M48
;DRILL file {KiCad 5.0.2} date 2019年03月11日 星期一 08时20分50秒
;FORMAT={-:-/ absolute / metric / decimal}
FMAT,2
METRIC,TZ
T1C0.300
T2C0.400
T3C0.600
T4C0.920
T5C1.000
T6C1.016
T7C2.330
%
G90
G05
T1
X116.332Y-58.928
X123.391Y-56.441
X125.984Y-68.707
X126.503Y-62.384
X127.762Y-58.901
X129.032Y-62.734
X129.638Y-59.737
X130.204Y-60.303
X132.305Y-60.303
X132.871Y-59.737
X134.395Y-65.18
X134.62Y-60.706
X136.017Y-66.294
X136.629Y-55.095
X138.176Y-60.833
X139.446Y-60.452
X139.782Y-61.169
X140.208Y-59.817
X144.399Y-63.246
X145.034Y-87.249
X146.431Y-78.486
X147.294Y-83.566
X147.447Y-85.471
X148.717Y-85.471
X150.114Y-79.502
T2
X112.014Y-51.308
X115.316Y-62.992
X121.285Y-67.818
X122.936Y-61.214
X122.936Y-62.738
X122.936Y-65.024
X125.73Y-62.738
X125.73Y-61.722
X125.73Y-65.242
X127.874Y-71.994
X128.562Y-71.306
X131.064Y-54.356
X131.191Y-60.198
X132.157Y-71.398
X134.62Y-59.69
X134.747Y-74.168
X134.874Y-75.946
X135.636Y-67.31
X136.652Y-67.31
X143.764Y-80.645
X144.145Y-49.784
X144.272Y-82.677
X145.796Y-49.276
X146.05Y-55.626
X151.257Y-87.249
T3
X114.554Y-70.485
X116.84Y-70.485
X119.253Y-70.485
T4
X108.49Y-60.365
X108.49Y-62.865
X110.49Y-60.365
X110.49Y-62.865
T5
X131.826Y-62.484
X104.648Y-72.898
X104.648Y-75.438
X104.648Y-77.978
X104.648Y-80.518
X104.648Y-83.058
X104.648Y-85.598
X104.648Y-88.138
X128.524Y-79.756
X131.064Y-79.756
X133.604Y-79.756
X136.144Y-79.756
X138.684Y-79.756
X141.224Y-79.756
X151.13Y-49.784
X151.13Y-52.324
X151.13Y-54.864
X151.13Y-57.404
X142.748Y-62.23
X142.748Y-64.77
X142.748Y-67.31
X142.748Y-69.85
X142.748Y-72.39
X142.748Y-74.93
X138.43Y-50.038
X140.97Y-50.038
X115.824Y-77.216
X115.824Y-79.756
X118.364Y-77.216
X118.364Y-79.756
X120.904Y-77.216
X120.904Y-79.756
X123.444Y-77.216
X123.444Y-79.756
T6
X120.904Y-49.53
X120.904Y-52.07
X123.444Y-49.53
X123.444Y-52.07
X125.984Y-49.53
X125.984Y-52.07
X128.524Y-49.53
X128.524Y-52.07
X131.064Y-49.53
X131.064Y-52.07
T7
X105.78Y-55.595
X105.78Y-67.635
T0
M30
