M48
; DRILL file {KiCad 5.1.12} date 2021年12月06日 星期一 16时47分01秒
; FORMAT={-:-/ absolute / metric / decimal}
; #@! TF.CreationDate,2021-12-06T16:47:01+08:00
; #@! TF.GenerationSoftware,Kicad,Pcbnew,5.1.12
; #@! TF.FileFunction,Plated,1,4,PTH
FMAT,2
METRIC
T1C0.300
T2C0.400
T3C0.500
T4C0.600
T5C0.920
T6C1.000
T7C1.016
T8C2.330
%
G90
G05
T1
X112.522Y-69.342
X112.522Y-71.628
X117.094Y-51.054
X120.65Y-60.434
X120.904Y-61.994
X122.032Y-57.15
X122.174Y-65.532
X122.682Y-54.102
X123.391Y-56.441
X125.984Y-54.102
X125.984Y-68.707
X126.503Y-62.384
X127.508Y-54.61
X127.762Y-58.901
X128.016Y-67.564
X129.032Y-62.734
X129.638Y-59.737
X130.204Y-60.303
X131.826Y-56.896
X132.559Y-60.303
X133.125Y-59.737
X134.637Y-60.916
X134.845Y-73.631
X135.323Y-67.108
X135.89Y-66.294
X135.89Y-73.914
X136.906Y-66.802
X137.706Y-66.782
X137.778Y-62.751
X137.791Y-60.557
X137.824Y-75.848
X138.176Y-64.008
X138.248Y-62.003
X138.447Y-74.439
X138.938Y-58.402
X138.938Y-59.182
X138.938Y-62.992
X139.192Y-59.944
X139.487Y-61.899
X139.496Y-64.262
X140.66Y-67.037
T2
X113.284Y-56.642
X120.65Y-63.246
X122.428Y-64.516
X122.682Y-58.42
X122.936Y-61.214
X122.936Y-62.738
X125.73Y-62.738
X125.73Y-61.722
X125.73Y-65.242
X127.874Y-71.994
X128.562Y-71.306
X129.54Y-54.102
X131.191Y-60.198
X132.46Y-73.375
X133.096Y-53.34
X133.096Y-85.598
X134.62Y-59.69
X135.636Y-69.596
X136.906Y-54.864
X137.414Y-73.152
X137.668Y-71.374
X138.176Y-87.884
X138.938Y-83.312
T3
X130.556Y-74.554
X130.556Y-76.454
T4
X114.554Y-69.215
X116.84Y-69.215
X119.253Y-69.215
T5
X108.49Y-60.365
X108.49Y-62.865
X110.49Y-60.365
X110.49Y-62.865
T6
X104.648Y-72.898
X104.648Y-75.438
X104.648Y-77.978
X104.648Y-80.518
X104.648Y-83.058
X104.648Y-85.598
X104.648Y-88.138
X113.792Y-76.962
X113.792Y-79.502
X116.332Y-76.962
X116.332Y-79.502
X118.872Y-76.962
X118.872Y-79.502
X121.412Y-76.962
X121.412Y-79.502
X123.952Y-76.962
X123.952Y-79.502
X126.492Y-76.962
X126.492Y-79.502
X131.826Y-62.484
X138.938Y-50.038
X141.478Y-50.038
X141.986Y-63.246
X141.986Y-65.786
X141.986Y-68.326
X141.986Y-70.866
T7
X120.904Y-49.53
X120.904Y-52.07
X123.444Y-49.53
X123.444Y-52.07
X125.984Y-49.53
X125.984Y-52.07
X128.524Y-49.53
X128.524Y-52.07
X131.064Y-49.53
X131.064Y-52.07
T8
X105.78Y-55.595
X105.78Y-67.635
T0
M30
