%TF.GenerationSoftware,KiCad,Pcbnew,5.1.12*%
%TF.CreationDate,2021-12-06T16:47:01+08:00*%
%TF.ProjectId,elf2,656c6632-2e6b-4696-9361-645f70636258,rev?*%
%TF.SameCoordinates,Original*%
%TF.FileFunction,Copper,L3,Inr*%
%TF.FilePolarity,Positive*%
%FSLAX46Y46*%
G04 Gerber Fmt 4.6, Leading zero omitted, Abs format (unit mm)*
G04 Created by KiCad (PCBNEW 5.1.12) date 2021-12-06 16:47:01*
%MOMM*%
%LPD*%
G01*
G04 APERTURE LIST*
%TA.AperFunction,ComponentPad*%
%ADD10R,1.700000X1.700000*%
%TD*%
%TA.AperFunction,ComponentPad*%
%ADD11O,1.700000X1.700000*%
%TD*%
%TA.AperFunction,ComponentPad*%
%ADD12C,1.000000*%
%TD*%
%TA.AperFunction,ComponentPad*%
%ADD13R,1.727200X1.727200*%
%TD*%
%TA.AperFunction,ComponentPad*%
%ADD14O,1.727200X1.727200*%
%TD*%
%TA.AperFunction,ComponentPad*%
%ADD15C,1.700000*%
%TD*%
%TA.AperFunction,ComponentPad*%
%ADD16C,3.500000*%
%TD*%
%TA.AperFunction,ViaPad*%
%ADD17C,0.600000*%
%TD*%
%TA.AperFunction,ViaPad*%
%ADD18C,0.700000*%
%TD*%
%TA.AperFunction,ViaPad*%
%ADD19C,1.200000*%
%TD*%
%TA.AperFunction,ViaPad*%
%ADD20C,2.000000*%
%TD*%
%TA.AperFunction,Conductor*%
%ADD21C,0.254000*%
%TD*%
%TA.AperFunction,Conductor*%
%ADD22C,0.350000*%
%TD*%
%ADD23C,0.300000*%
%ADD24C,0.350000*%
G04 APERTURE END LIST*
D10*
%TO.N,+3V3*%
%TO.C,J7*%
X141986000Y-63246000D03*
D11*
%TO.N,/SWDIO*%
X141986000Y-65786000D03*
%TO.N,/SWCLK*%
X141986000Y-68326000D03*
%TO.N,GND*%
X141986000Y-70866000D03*
%TD*%
D12*
%TO.N,Net-(C8-Pad1)*%
%TO.C,Y1*%
X130556000Y-74554000D03*
%TO.N,Net-(C9-Pad1)*%
X130556000Y-76454000D03*
%TD*%
D11*
%TO.N,+3V3*%
%TO.C,J4*%
X126492000Y-79502000D03*
X126492000Y-76962000D03*
%TO.N,GND*%
X123952000Y-79502000D03*
X123952000Y-76962000D03*
%TO.N,/PMOD_6P2_4*%
X121412000Y-79502000D03*
%TO.N,/PMOD_6P_4*%
X121412000Y-76962000D03*
%TO.N,/PMOD_6P2_3*%
X118872000Y-79502000D03*
%TO.N,/PMOD_6P_3*%
X118872000Y-76962000D03*
%TO.N,/PMOD_6P2_2*%
X116332000Y-79502000D03*
%TO.N,/PMOD_6P_2*%
X116332000Y-76962000D03*
%TO.N,/PMOD_6P2_1*%
X113792000Y-79502000D03*
D10*
%TO.N,/PMOD_6P_1*%
X113792000Y-76962000D03*
%TD*%
%TO.N,/ADC_0*%
%TO.C,J8*%
X104648000Y-88138000D03*
D11*
%TO.N,/LVDSRX_N*%
X104648000Y-85598000D03*
%TO.N,/LVDSRX_P*%
X104648000Y-83058000D03*
%TO.N,/LVDSTX_N*%
X104648000Y-80518000D03*
%TO.N,/LVDSTX_P*%
X104648000Y-77978000D03*
%TO.N,/ADC_REF*%
X104648000Y-75438000D03*
%TO.N,+3V3*%
X104648000Y-72898000D03*
%TD*%
D13*
%TO.N,/TCK*%
%TO.C,J2*%
X120904000Y-52070000D03*
D14*
%TO.N,GND*%
X120904000Y-49530000D03*
%TO.N,/TDO*%
X123444000Y-52070000D03*
%TO.N,Net-(D1-Pad1)*%
X123444000Y-49530000D03*
%TO.N,/TMS*%
X125984000Y-52070000D03*
%TO.N,N/C*%
X125984000Y-49530000D03*
X128524000Y-52070000D03*
X128524000Y-49530000D03*
%TO.N,/TDI*%
X131064000Y-52070000D03*
%TO.N,GND*%
X131064000Y-49530000D03*
%TD*%
D10*
%TO.N,/JTAGEN*%
%TO.C,J3*%
X138938000Y-50038000D03*
D11*
%TO.N,+3V3*%
X141478000Y-50038000D03*
%TD*%
D10*
%TO.N,+5V*%
%TO.C,J1*%
X110490000Y-62865000D03*
D15*
%TO.N,/PORT_D-*%
X110490000Y-60365000D03*
%TO.N,/PORT_D+*%
X108490000Y-60365000D03*
%TO.N,GND*%
X108490000Y-62865000D03*
D16*
X105780000Y-67635000D03*
X105780000Y-55595000D03*
%TD*%
D17*
%TO.N,/UPU*%
X126502772Y-62384000D03*
X120650000Y-60434000D03*
D18*
%TO.N,+3V3*%
X134620000Y-59690000D03*
X125730000Y-61722004D03*
X125729994Y-62738000D03*
X131191000Y-60198000D03*
X127873873Y-71993873D03*
D19*
X116840000Y-69215000D03*
X114554000Y-69215000D03*
X119253000Y-69215000D03*
D18*
X138176000Y-87884000D03*
X133096000Y-53340000D03*
X137668000Y-71374000D03*
X113284000Y-56642000D03*
X125730000Y-65242000D03*
D20*
%TO.N,GND*%
X131826000Y-62484000D03*
D18*
X122936000Y-62738000D03*
X122936000Y-61214000D03*
X128561611Y-71306135D03*
X138938000Y-83312000D03*
X129540000Y-54102000D03*
X120650000Y-63246000D03*
X133096000Y-85598000D03*
X137414000Y-73152000D03*
X135636000Y-69596000D03*
X132460077Y-73374824D03*
X122682000Y-58420000D03*
X122428000Y-64516000D03*
X136906000Y-54864000D03*
D17*
%TO.N,/PROGRAMN*%
X127508000Y-54610000D03*
X117094000Y-51054000D03*
%TO.N,/JTAGEN*%
X131826000Y-56896000D03*
%TO.N,/TMS*%
X125984000Y-54102000D03*
%TO.N,/TCK*%
X122682000Y-54102000D03*
%TO.N,/TDI*%
X127762000Y-58901500D03*
%TO.N,/TDO*%
X123391078Y-56440922D03*
%TO.N,/SWCLK*%
X138938000Y-59182006D03*
%TO.N,/SWDIO*%
X138938000Y-58401987D03*
%TO.N,/LED_B*%
X122174000Y-65532000D03*
X112522000Y-69342000D03*
X112522000Y-71628000D03*
X128016000Y-67564000D03*
%TO.N,/LED_R*%
X125984000Y-68707000D03*
X129032006Y-62734000D03*
%TO.N,/ADC_0*%
X134636820Y-60916176D03*
%TO.N,/LVDSRX_N*%
X133124843Y-59737156D03*
%TO.N,/LVDSRX_P*%
X132559157Y-60302842D03*
%TO.N,/LVDSTX_N*%
X130203843Y-60302842D03*
%TO.N,/LVDSTX_P*%
X129638157Y-59737156D03*
%TO.N,/ADC_REF*%
X137791323Y-60556698D03*
%TO.N,/PMOD_6P2_1*%
X137706124Y-66781879D03*
%TO.N,/PMOD_6P2_2*%
X137824122Y-75848122D03*
%TO.N,/PMOD_6P2_3*%
X138446840Y-74438840D03*
%TO.N,/PMOD_6P2_4*%
X138176000Y-64008000D03*
%TO.N,/QSPI_CS*%
X135890000Y-66293990D03*
X136906000Y-66802000D03*
%TO.N,/QSPI_IO1*%
X139495951Y-64262000D03*
X138247963Y-62003371D03*
%TO.N,/QSPI_IO2*%
X137777987Y-62750883D03*
X138938000Y-62992006D03*
%TO.N,/QSPI_IO0*%
X134844865Y-73630875D03*
X139192000Y-59944000D03*
%TO.N,/QSPI_SCK*%
X135890000Y-73914000D03*
X135322502Y-67108466D03*
%TO.N,/QSPI_IO3*%
X140660021Y-67037456D03*
X139486655Y-61898798D03*
%TO.N,/CLK*%
X122032000Y-57150000D03*
X120904000Y-61994000D03*
%TD*%
D21*
%TO.N,GND*%
X119547036Y-48894022D02*
X119449037Y-49170973D01*
X119569536Y-49403000D01*
X120777000Y-49403000D01*
X120777000Y-49383000D01*
X121031000Y-49383000D01*
X121031000Y-49403000D01*
X121051000Y-49403000D01*
X121051000Y-49657000D01*
X121031000Y-49657000D01*
X121031000Y-49677000D01*
X120777000Y-49677000D01*
X120777000Y-49657000D01*
X119569536Y-49657000D01*
X119449037Y-49889027D01*
X119547036Y-50165978D01*
X119697183Y-50418488D01*
X119858692Y-50597947D01*
X119796220Y-50616898D01*
X119685906Y-50675863D01*
X119589215Y-50755215D01*
X119509863Y-50851906D01*
X119450898Y-50962220D01*
X119414588Y-51081918D01*
X119402328Y-51206400D01*
X119402328Y-52933600D01*
X119414588Y-53058082D01*
X119450898Y-53177780D01*
X119509863Y-53288094D01*
X119589215Y-53384785D01*
X119685906Y-53464137D01*
X119796220Y-53523102D01*
X119915918Y-53559412D01*
X120040400Y-53571672D01*
X121767600Y-53571672D01*
X121892082Y-53559412D01*
X121927136Y-53548779D01*
X121853414Y-53659111D01*
X121782932Y-53829271D01*
X121747000Y-54009911D01*
X121747000Y-54194089D01*
X121782932Y-54374729D01*
X121853414Y-54544889D01*
X121955738Y-54698028D01*
X122085972Y-54828262D01*
X122239111Y-54930586D01*
X122409271Y-55001068D01*
X122589911Y-55037000D01*
X122774089Y-55037000D01*
X122954729Y-55001068D01*
X123124889Y-54930586D01*
X123278028Y-54828262D01*
X123408262Y-54698028D01*
X123510586Y-54544889D01*
X123581068Y-54374729D01*
X123617000Y-54194089D01*
X123617000Y-54009911D01*
X123581068Y-53829271D01*
X123510586Y-53659111D01*
X123450109Y-53568600D01*
X123591599Y-53568600D01*
X123881125Y-53511010D01*
X124153853Y-53398042D01*
X124399302Y-53234039D01*
X124608039Y-53025302D01*
X124714000Y-52866719D01*
X124819961Y-53025302D01*
X125028698Y-53234039D01*
X125274147Y-53398042D01*
X125338862Y-53424848D01*
X125257738Y-53505972D01*
X125155414Y-53659111D01*
X125084932Y-53829271D01*
X125049000Y-54009911D01*
X125049000Y-54194089D01*
X125084932Y-54374729D01*
X125155414Y-54544889D01*
X125257738Y-54698028D01*
X125387972Y-54828262D01*
X125541111Y-54930586D01*
X125711271Y-55001068D01*
X125891911Y-55037000D01*
X126076089Y-55037000D01*
X126256729Y-55001068D01*
X126426889Y-54930586D01*
X126580028Y-54828262D01*
X126595100Y-54813190D01*
X126608932Y-54882729D01*
X126679414Y-55052889D01*
X126781738Y-55206028D01*
X126911972Y-55336262D01*
X127065111Y-55438586D01*
X127235271Y-55509068D01*
X127415911Y-55545000D01*
X127600089Y-55545000D01*
X127780729Y-55509068D01*
X127950889Y-55438586D01*
X128104028Y-55336262D01*
X128234262Y-55206028D01*
X128336586Y-55052889D01*
X128407068Y-54882729D01*
X128443000Y-54702089D01*
X128443000Y-54517911D01*
X128407068Y-54337271D01*
X128336586Y-54167111D01*
X128234262Y-54013972D01*
X128104028Y-53883738D01*
X127950889Y-53781414D01*
X127780729Y-53710932D01*
X127600089Y-53675000D01*
X127415911Y-53675000D01*
X127235271Y-53710932D01*
X127065111Y-53781414D01*
X126911972Y-53883738D01*
X126896900Y-53898810D01*
X126883068Y-53829271D01*
X126812586Y-53659111D01*
X126710262Y-53505972D01*
X126629138Y-53424848D01*
X126693853Y-53398042D01*
X126939302Y-53234039D01*
X127148039Y-53025302D01*
X127254000Y-52866719D01*
X127359961Y-53025302D01*
X127568698Y-53234039D01*
X127814147Y-53398042D01*
X128086875Y-53511010D01*
X128376401Y-53568600D01*
X128671599Y-53568600D01*
X128961125Y-53511010D01*
X129233853Y-53398042D01*
X129479302Y-53234039D01*
X129688039Y-53025302D01*
X129794000Y-52866719D01*
X129899961Y-53025302D01*
X130108698Y-53234039D01*
X130354147Y-53398042D01*
X130626875Y-53511010D01*
X130916401Y-53568600D01*
X131211599Y-53568600D01*
X131501125Y-53511010D01*
X131773853Y-53398042D01*
X132019302Y-53234039D01*
X132135990Y-53117351D01*
X132111000Y-53242986D01*
X132111000Y-53437014D01*
X132148853Y-53627314D01*
X132223104Y-53806572D01*
X132330901Y-53967901D01*
X132468099Y-54105099D01*
X132629428Y-54212896D01*
X132808686Y-54287147D01*
X132998986Y-54325000D01*
X133193014Y-54325000D01*
X133383314Y-54287147D01*
X133562572Y-54212896D01*
X133723901Y-54105099D01*
X133861099Y-53967901D01*
X133968896Y-53806572D01*
X134043147Y-53627314D01*
X134081000Y-53437014D01*
X134081000Y-53242986D01*
X134043147Y-53052686D01*
X133968896Y-52873428D01*
X133861099Y-52712099D01*
X133723901Y-52574901D01*
X133562572Y-52467104D01*
X133383314Y-52392853D01*
X133193014Y-52355000D01*
X132998986Y-52355000D01*
X132808686Y-52392853D01*
X132629428Y-52467104D01*
X132480318Y-52566736D01*
X132505010Y-52507125D01*
X132562600Y-52217599D01*
X132562600Y-51922401D01*
X132505010Y-51632875D01*
X132392042Y-51360147D01*
X132228039Y-51114698D01*
X132019302Y-50905961D01*
X131858187Y-50798308D01*
X132074293Y-50636854D01*
X132270817Y-50418488D01*
X132420964Y-50165978D01*
X132518963Y-49889027D01*
X132398464Y-49657000D01*
X131191000Y-49657000D01*
X131191000Y-49677000D01*
X130937000Y-49677000D01*
X130937000Y-49657000D01*
X130917000Y-49657000D01*
X130917000Y-49403000D01*
X130937000Y-49403000D01*
X130937000Y-49383000D01*
X131191000Y-49383000D01*
X131191000Y-49403000D01*
X132398464Y-49403000D01*
X132518963Y-49170973D01*
X132420964Y-48894022D01*
X132315109Y-48716000D01*
X137662178Y-48716000D01*
X137636815Y-48736815D01*
X137557463Y-48833506D01*
X137498498Y-48943820D01*
X137462188Y-49063518D01*
X137449928Y-49188000D01*
X137449928Y-50888000D01*
X137462188Y-51012482D01*
X137498498Y-51132180D01*
X137557463Y-51242494D01*
X137636815Y-51339185D01*
X137733506Y-51418537D01*
X137843820Y-51477502D01*
X137963518Y-51513812D01*
X138088000Y-51526072D01*
X139788000Y-51526072D01*
X139912482Y-51513812D01*
X140032180Y-51477502D01*
X140142494Y-51418537D01*
X140239185Y-51339185D01*
X140318537Y-51242494D01*
X140377502Y-51132180D01*
X140399513Y-51059620D01*
X140531368Y-51191475D01*
X140774589Y-51353990D01*
X141044842Y-51465932D01*
X141331740Y-51523000D01*
X141624260Y-51523000D01*
X141911158Y-51465932D01*
X142181411Y-51353990D01*
X142424632Y-51191475D01*
X142631475Y-50984632D01*
X142793990Y-50741411D01*
X142905932Y-50471158D01*
X142963000Y-50184260D01*
X142963000Y-49891740D01*
X142905932Y-49604842D01*
X142793990Y-49334589D01*
X142631475Y-49091368D01*
X142424632Y-48884525D01*
X142181411Y-48722010D01*
X142166902Y-48716000D01*
X143054000Y-48716000D01*
X143054000Y-61798556D01*
X142960482Y-61770188D01*
X142836000Y-61757928D01*
X141136000Y-61757928D01*
X141011518Y-61770188D01*
X140891820Y-61806498D01*
X140781506Y-61865463D01*
X140684815Y-61944815D01*
X140605463Y-62041506D01*
X140546498Y-62151820D01*
X140510188Y-62271518D01*
X140497928Y-62396000D01*
X140497928Y-64096000D01*
X140510188Y-64220482D01*
X140546498Y-64340180D01*
X140605463Y-64450494D01*
X140684815Y-64547185D01*
X140781506Y-64626537D01*
X140891820Y-64685502D01*
X140964380Y-64707513D01*
X140832525Y-64839368D01*
X140670010Y-65082589D01*
X140558068Y-65352842D01*
X140501000Y-65639740D01*
X140501000Y-65932260D01*
X140536113Y-66108785D01*
X140387292Y-66138388D01*
X140217132Y-66208870D01*
X140063993Y-66311194D01*
X139933759Y-66441428D01*
X139831435Y-66594567D01*
X139760953Y-66764727D01*
X139725021Y-66945367D01*
X139725021Y-67129545D01*
X139760953Y-67310185D01*
X139831435Y-67480345D01*
X139933759Y-67633484D01*
X140063993Y-67763718D01*
X140217132Y-67866042D01*
X140387292Y-67936524D01*
X140543210Y-67967538D01*
X140501000Y-68179740D01*
X140501000Y-68472260D01*
X140558068Y-68759158D01*
X140670010Y-69029411D01*
X140832525Y-69272632D01*
X141039368Y-69479475D01*
X141221534Y-69601195D01*
X141104645Y-69670822D01*
X140888412Y-69865731D01*
X140714359Y-70099080D01*
X140589175Y-70361901D01*
X140544524Y-70509110D01*
X140665845Y-70739000D01*
X141859000Y-70739000D01*
X141859000Y-70719000D01*
X142113000Y-70719000D01*
X142113000Y-70739000D01*
X142133000Y-70739000D01*
X142133000Y-70993000D01*
X142113000Y-70993000D01*
X142113000Y-72186814D01*
X142342891Y-72307481D01*
X142617252Y-72210157D01*
X142867355Y-72061178D01*
X143054001Y-71892939D01*
X143054001Y-89206000D01*
X106095444Y-89206000D01*
X106123812Y-89112482D01*
X106136072Y-88988000D01*
X106136072Y-87786986D01*
X137191000Y-87786986D01*
X137191000Y-87981014D01*
X137228853Y-88171314D01*
X137303104Y-88350572D01*
X137410901Y-88511901D01*
X137548099Y-88649099D01*
X137709428Y-88756896D01*
X137888686Y-88831147D01*
X138078986Y-88869000D01*
X138273014Y-88869000D01*
X138463314Y-88831147D01*
X138642572Y-88756896D01*
X138803901Y-88649099D01*
X138941099Y-88511901D01*
X139048896Y-88350572D01*
X139123147Y-88171314D01*
X139161000Y-87981014D01*
X139161000Y-87786986D01*
X139123147Y-87596686D01*
X139048896Y-87417428D01*
X138941099Y-87256099D01*
X138803901Y-87118901D01*
X138642572Y-87011104D01*
X138463314Y-86936853D01*
X138273014Y-86899000D01*
X138078986Y-86899000D01*
X137888686Y-86936853D01*
X137709428Y-87011104D01*
X137548099Y-87118901D01*
X137410901Y-87256099D01*
X137303104Y-87417428D01*
X137228853Y-87596686D01*
X137191000Y-87786986D01*
X106136072Y-87786986D01*
X106136072Y-87288000D01*
X106123812Y-87163518D01*
X106087502Y-87043820D01*
X106028537Y-86933506D01*
X105949185Y-86836815D01*
X105852494Y-86757463D01*
X105742180Y-86698498D01*
X105669620Y-86676487D01*
X105801475Y-86544632D01*
X105963990Y-86301411D01*
X106075932Y-86031158D01*
X106133000Y-85744260D01*
X106133000Y-85451740D01*
X106075932Y-85164842D01*
X105963990Y-84894589D01*
X105801475Y-84651368D01*
X105594632Y-84444525D01*
X105420240Y-84328000D01*
X105594632Y-84211475D01*
X105801475Y-84004632D01*
X105963990Y-83761411D01*
X106075932Y-83491158D01*
X106133000Y-83204260D01*
X106133000Y-82911740D01*
X106075932Y-82624842D01*
X105963990Y-82354589D01*
X105801475Y-82111368D01*
X105594632Y-81904525D01*
X105420240Y-81788000D01*
X105594632Y-81671475D01*
X105801475Y-81464632D01*
X105963990Y-81221411D01*
X106075932Y-80951158D01*
X106133000Y-80664260D01*
X106133000Y-80371740D01*
X106075932Y-80084842D01*
X105963990Y-79814589D01*
X105801475Y-79571368D01*
X105594632Y-79364525D01*
X105420240Y-79248000D01*
X105594632Y-79131475D01*
X105801475Y-78924632D01*
X105963990Y-78681411D01*
X106075932Y-78411158D01*
X106133000Y-78124260D01*
X106133000Y-77831740D01*
X106075932Y-77544842D01*
X105963990Y-77274589D01*
X105801475Y-77031368D01*
X105594632Y-76824525D01*
X105420240Y-76708000D01*
X105594632Y-76591475D01*
X105801475Y-76384632D01*
X105963990Y-76141411D01*
X105976172Y-76112000D01*
X112303928Y-76112000D01*
X112303928Y-77812000D01*
X112316188Y-77936482D01*
X112352498Y-78056180D01*
X112411463Y-78166494D01*
X112490815Y-78263185D01*
X112587506Y-78342537D01*
X112697820Y-78401502D01*
X112770380Y-78423513D01*
X112638525Y-78555368D01*
X112476010Y-78798589D01*
X112364068Y-79068842D01*
X112307000Y-79355740D01*
X112307000Y-79648260D01*
X112364068Y-79935158D01*
X112476010Y-80205411D01*
X112638525Y-80448632D01*
X112845368Y-80655475D01*
X113088589Y-80817990D01*
X113358842Y-80929932D01*
X113645740Y-80987000D01*
X113938260Y-80987000D01*
X114225158Y-80929932D01*
X114495411Y-80817990D01*
X114738632Y-80655475D01*
X114945475Y-80448632D01*
X115062000Y-80274240D01*
X115178525Y-80448632D01*
X115385368Y-80655475D01*
X115628589Y-80817990D01*
X115898842Y-80929932D01*
X116185740Y-80987000D01*
X116478260Y-80987000D01*
X116765158Y-80929932D01*
X117035411Y-80817990D01*
X117278632Y-80655475D01*
X117485475Y-80448632D01*
X117602000Y-80274240D01*
X117718525Y-80448632D01*
X117925368Y-80655475D01*
X118168589Y-80817990D01*
X118438842Y-80929932D01*
X118725740Y-80987000D01*
X119018260Y-80987000D01*
X119305158Y-80929932D01*
X119575411Y-80817990D01*
X119818632Y-80655475D01*
X120025475Y-80448632D01*
X120142000Y-80274240D01*
X120258525Y-80448632D01*
X120465368Y-80655475D01*
X120708589Y-80817990D01*
X120978842Y-80929932D01*
X121265740Y-80987000D01*
X121558260Y-80987000D01*
X121845158Y-80929932D01*
X122115411Y-80817990D01*
X122358632Y-80655475D01*
X122565475Y-80448632D01*
X122687195Y-80266466D01*
X122756822Y-80383355D01*
X122951731Y-80599588D01*
X123185080Y-80773641D01*
X123447901Y-80898825D01*
X123595110Y-80943476D01*
X123825000Y-80822155D01*
X123825000Y-79629000D01*
X123805000Y-79629000D01*
X123805000Y-79375000D01*
X123825000Y-79375000D01*
X123825000Y-77089000D01*
X123805000Y-77089000D01*
X123805000Y-76835000D01*
X123825000Y-76835000D01*
X123825000Y-75641845D01*
X124079000Y-75641845D01*
X124079000Y-76835000D01*
X124099000Y-76835000D01*
X124099000Y-77089000D01*
X124079000Y-77089000D01*
X124079000Y-79375000D01*
X124099000Y-79375000D01*
X124099000Y-79629000D01*
X124079000Y-79629000D01*
X124079000Y-80822155D01*
X124308890Y-80943476D01*
X124456099Y-80898825D01*
X124718920Y-80773641D01*
X124952269Y-80599588D01*
X125147178Y-80383355D01*
X125216805Y-80266466D01*
X125338525Y-80448632D01*
X125545368Y-80655475D01*
X125788589Y-80817990D01*
X126058842Y-80929932D01*
X126345740Y-80987000D01*
X126638260Y-80987000D01*
X126925158Y-80929932D01*
X127195411Y-80817990D01*
X127438632Y-80655475D01*
X127645475Y-80448632D01*
X127807990Y-80205411D01*
X127919932Y-79935158D01*
X127977000Y-79648260D01*
X127977000Y-79355740D01*
X127919932Y-79068842D01*
X127807990Y-78798589D01*
X127645475Y-78555368D01*
X127438632Y-78348525D01*
X127264240Y-78232000D01*
X127438632Y-78115475D01*
X127645475Y-77908632D01*
X127807990Y-77665411D01*
X127919932Y-77395158D01*
X127977000Y-77108260D01*
X127977000Y-76815740D01*
X127919932Y-76528842D01*
X127807990Y-76258589D01*
X127645475Y-76015368D01*
X127438632Y-75808525D01*
X127195411Y-75646010D01*
X126925158Y-75534068D01*
X126638260Y-75477000D01*
X126345740Y-75477000D01*
X126058842Y-75534068D01*
X125788589Y-75646010D01*
X125545368Y-75808525D01*
X125338525Y-76015368D01*
X125216805Y-76197534D01*
X125147178Y-76080645D01*
X124952269Y-75864412D01*
X124718920Y-75690359D01*
X124456099Y-75565175D01*
X124308890Y-75520524D01*
X124079000Y-75641845D01*
X123825000Y-75641845D01*
X123595110Y-75520524D01*
X123447901Y-75565175D01*
X123185080Y-75690359D01*
X122951731Y-75864412D01*
X122756822Y-76080645D01*
X122687195Y-76197534D01*
X122565475Y-76015368D01*
X122358632Y-75808525D01*
X122115411Y-75646010D01*
X121845158Y-75534068D01*
X121558260Y-75477000D01*
X121265740Y-75477000D01*
X120978842Y-75534068D01*
X120708589Y-75646010D01*
X120465368Y-75808525D01*
X120258525Y-76015368D01*
X120142000Y-76189760D01*
X120025475Y-76015368D01*
X119818632Y-75808525D01*
X119575411Y-75646010D01*
X119305158Y-75534068D01*
X119018260Y-75477000D01*
X118725740Y-75477000D01*
X118438842Y-75534068D01*
X118168589Y-75646010D01*
X117925368Y-75808525D01*
X117718525Y-76015368D01*
X117602000Y-76189760D01*
X117485475Y-76015368D01*
X117278632Y-75808525D01*
X117035411Y-75646010D01*
X116765158Y-75534068D01*
X116478260Y-75477000D01*
X116185740Y-75477000D01*
X115898842Y-75534068D01*
X115628589Y-75646010D01*
X115385368Y-75808525D01*
X115253513Y-75940380D01*
X115231502Y-75867820D01*
X115172537Y-75757506D01*
X115093185Y-75660815D01*
X114996494Y-75581463D01*
X114886180Y-75522498D01*
X114766482Y-75486188D01*
X114642000Y-75473928D01*
X112942000Y-75473928D01*
X112817518Y-75486188D01*
X112697820Y-75522498D01*
X112587506Y-75581463D01*
X112490815Y-75660815D01*
X112411463Y-75757506D01*
X112352498Y-75867820D01*
X112316188Y-75987518D01*
X112303928Y-76112000D01*
X105976172Y-76112000D01*
X106075932Y-75871158D01*
X106133000Y-75584260D01*
X106133000Y-75291740D01*
X106075932Y-75004842D01*
X105963990Y-74734589D01*
X105801475Y-74491368D01*
X105752319Y-74442212D01*
X129421000Y-74442212D01*
X129421000Y-74665788D01*
X129464617Y-74885067D01*
X129550176Y-75091624D01*
X129674388Y-75277520D01*
X129832480Y-75435612D01*
X129934830Y-75504000D01*
X129832480Y-75572388D01*
X129674388Y-75730480D01*
X129550176Y-75916376D01*
X129464617Y-76122933D01*
X129421000Y-76342212D01*
X129421000Y-76565788D01*
X129464617Y-76785067D01*
X129550176Y-76991624D01*
X129674388Y-77177520D01*
X129832480Y-77335612D01*
X130018376Y-77459824D01*
X130224933Y-77545383D01*
X130444212Y-77589000D01*
X130667788Y-77589000D01*
X130887067Y-77545383D01*
X131093624Y-77459824D01*
X131279520Y-77335612D01*
X131437612Y-77177520D01*
X131561824Y-76991624D01*
X131647383Y-76785067D01*
X131691000Y-76565788D01*
X131691000Y-76342212D01*
X131647383Y-76122933D01*
X131561824Y-75916376D01*
X131454687Y-75756033D01*
X136889122Y-75756033D01*
X136889122Y-75940211D01*
X136925054Y-76120851D01*
X136995536Y-76291011D01*
X137097860Y-76444150D01*
X137228094Y-76574384D01*
X137381233Y-76676708D01*
X137551393Y-76747190D01*
X137732033Y-76783122D01*
X137916211Y-76783122D01*
X138096851Y-76747190D01*
X138267011Y-76676708D01*
X138420150Y-76574384D01*
X138550384Y-76444150D01*
X138652708Y-76291011D01*
X138723190Y-76120851D01*
X138759122Y-75940211D01*
X138759122Y-75756033D01*
X138723190Y-75575393D01*
X138652708Y-75405233D01*
X138620844Y-75357546D01*
X138719569Y-75337908D01*
X138889729Y-75267426D01*
X139042868Y-75165102D01*
X139173102Y-75034868D01*
X139275426Y-74881729D01*
X139345908Y-74711569D01*
X139381840Y-74530929D01*
X139381840Y-74346751D01*
X139345908Y-74166111D01*
X139275426Y-73995951D01*
X139173102Y-73842812D01*
X139042868Y-73712578D01*
X138889729Y-73610254D01*
X138719569Y-73539772D01*
X138538929Y-73503840D01*
X138354751Y-73503840D01*
X138174111Y-73539772D01*
X138003951Y-73610254D01*
X137850812Y-73712578D01*
X137720578Y-73842812D01*
X137618254Y-73995951D01*
X137547772Y-74166111D01*
X137511840Y-74346751D01*
X137511840Y-74530929D01*
X137547772Y-74711569D01*
X137618254Y-74881729D01*
X137650118Y-74929416D01*
X137551393Y-74949054D01*
X137381233Y-75019536D01*
X137228094Y-75121860D01*
X137097860Y-75252094D01*
X136995536Y-75405233D01*
X136925054Y-75575393D01*
X136889122Y-75756033D01*
X131454687Y-75756033D01*
X131437612Y-75730480D01*
X131279520Y-75572388D01*
X131177170Y-75504000D01*
X131279520Y-75435612D01*
X131437612Y-75277520D01*
X131561824Y-75091624D01*
X131647383Y-74885067D01*
X131691000Y-74665788D01*
X131691000Y-74442212D01*
X131647383Y-74222933D01*
X131561824Y-74016376D01*
X131437612Y-73830480D01*
X131279520Y-73672388D01*
X131093624Y-73548176D01*
X131070955Y-73538786D01*
X133909865Y-73538786D01*
X133909865Y-73722964D01*
X133945797Y-73903604D01*
X134016279Y-74073764D01*
X134118603Y-74226903D01*
X134248837Y-74357137D01*
X134401976Y-74459461D01*
X134572136Y-74529943D01*
X134752776Y-74565875D01*
X134936954Y-74565875D01*
X135117594Y-74529943D01*
X135164305Y-74510595D01*
X135293972Y-74640262D01*
X135447111Y-74742586D01*
X135617271Y-74813068D01*
X135797911Y-74849000D01*
X135982089Y-74849000D01*
X136162729Y-74813068D01*
X136332889Y-74742586D01*
X136486028Y-74640262D01*
X136616262Y-74510028D01*
X136718586Y-74356889D01*
X136789068Y-74186729D01*
X136825000Y-74006089D01*
X136825000Y-73821911D01*
X136789068Y-73641271D01*
X136718586Y-73471111D01*
X136616262Y-73317972D01*
X136486028Y-73187738D01*
X136332889Y-73085414D01*
X136162729Y-73014932D01*
X135982089Y-72979000D01*
X135797911Y-72979000D01*
X135617271Y-73014932D01*
X135570560Y-73034280D01*
X135440893Y-72904613D01*
X135287754Y-72802289D01*
X135117594Y-72731807D01*
X134936954Y-72695875D01*
X134752776Y-72695875D01*
X134572136Y-72731807D01*
X134401976Y-72802289D01*
X134248837Y-72904613D01*
X134118603Y-73034847D01*
X134016279Y-73187986D01*
X133945797Y-73358146D01*
X133909865Y-73538786D01*
X131070955Y-73538786D01*
X130887067Y-73462617D01*
X130667788Y-73419000D01*
X130444212Y-73419000D01*
X130224933Y-73462617D01*
X130018376Y-73548176D01*
X129832480Y-73672388D01*
X129674388Y-73830480D01*
X129550176Y-74016376D01*
X129464617Y-74222933D01*
X129421000Y-74442212D01*
X105752319Y-74442212D01*
X105594632Y-74284525D01*
X105420240Y-74168000D01*
X105594632Y-74051475D01*
X105801475Y-73844632D01*
X105963990Y-73601411D01*
X106075932Y-73331158D01*
X106133000Y-73044260D01*
X106133000Y-72751740D01*
X106075932Y-72464842D01*
X105963990Y-72194589D01*
X105801475Y-71951368D01*
X105594632Y-71744525D01*
X105351411Y-71582010D01*
X105240118Y-71535911D01*
X111587000Y-71535911D01*
X111587000Y-71720089D01*
X111622932Y-71900729D01*
X111693414Y-72070889D01*
X111795738Y-72224028D01*
X111925972Y-72354262D01*
X112079111Y-72456586D01*
X112249271Y-72527068D01*
X112429911Y-72563000D01*
X112614089Y-72563000D01*
X112794729Y-72527068D01*
X112964889Y-72456586D01*
X113118028Y-72354262D01*
X113248262Y-72224028D01*
X113350586Y-72070889D01*
X113421068Y-71900729D01*
X113421837Y-71896859D01*
X126888873Y-71896859D01*
X126888873Y-72090887D01*
X126926726Y-72281187D01*
X127000977Y-72460445D01*
X127108774Y-72621774D01*
X127245972Y-72758972D01*
X127407301Y-72866769D01*
X127586559Y-72941020D01*
X127776859Y-72978873D01*
X127970887Y-72978873D01*
X128161187Y-72941020D01*
X128340445Y-72866769D01*
X128501774Y-72758972D01*
X128638972Y-72621774D01*
X128746769Y-72460445D01*
X128821020Y-72281187D01*
X128858873Y-72090887D01*
X128858873Y-71896859D01*
X128821020Y-71706559D01*
X128746769Y-71527301D01*
X128638972Y-71365972D01*
X128549986Y-71276986D01*
X136683000Y-71276986D01*
X136683000Y-71471014D01*
X136720853Y-71661314D01*
X136795104Y-71840572D01*
X136902901Y-72001901D01*
X137040099Y-72139099D01*
X137201428Y-72246896D01*
X137380686Y-72321147D01*
X137570986Y-72359000D01*
X137765014Y-72359000D01*
X137955314Y-72321147D01*
X138134572Y-72246896D01*
X138295901Y-72139099D01*
X138433099Y-72001901D01*
X138540896Y-71840572D01*
X138615147Y-71661314D01*
X138653000Y-71471014D01*
X138653000Y-71276986D01*
X138642240Y-71222890D01*
X140544524Y-71222890D01*
X140589175Y-71370099D01*
X140714359Y-71632920D01*
X140888412Y-71866269D01*
X141104645Y-72061178D01*
X141354748Y-72210157D01*
X141629109Y-72307481D01*
X141859000Y-72186814D01*
X141859000Y-70993000D01*
X140665845Y-70993000D01*
X140544524Y-71222890D01*
X138642240Y-71222890D01*
X138615147Y-71086686D01*
X138540896Y-70907428D01*
X138433099Y-70746099D01*
X138295901Y-70608901D01*
X138134572Y-70501104D01*
X137955314Y-70426853D01*
X137765014Y-70389000D01*
X137570986Y-70389000D01*
X137380686Y-70426853D01*
X137201428Y-70501104D01*
X137040099Y-70608901D01*
X136902901Y-70746099D01*
X136795104Y-70907428D01*
X136720853Y-71086686D01*
X136683000Y-71276986D01*
X128549986Y-71276986D01*
X128501774Y-71228774D01*
X128340445Y-71120977D01*
X128161187Y-71046726D01*
X127970887Y-71008873D01*
X127776859Y-71008873D01*
X127586559Y-71046726D01*
X127407301Y-71120977D01*
X127245972Y-71228774D01*
X127108774Y-71365972D01*
X127000977Y-71527301D01*
X126926726Y-71706559D01*
X126888873Y-71896859D01*
X113421837Y-71896859D01*
X113457000Y-71720089D01*
X113457000Y-71535911D01*
X113421068Y-71355271D01*
X113350586Y-71185111D01*
X113248262Y-71031972D01*
X113118028Y-70901738D01*
X112964889Y-70799414D01*
X112794729Y-70728932D01*
X112614089Y-70693000D01*
X112429911Y-70693000D01*
X112249271Y-70728932D01*
X112079111Y-70799414D01*
X111925972Y-70901738D01*
X111795738Y-71031972D01*
X111693414Y-71185111D01*
X111622932Y-71355271D01*
X111587000Y-71535911D01*
X105240118Y-71535911D01*
X105081158Y-71470068D01*
X104794260Y-71413000D01*
X104501740Y-71413000D01*
X104214842Y-71470068D01*
X103944589Y-71582010D01*
X103834000Y-71655903D01*
X103834000Y-69304609D01*
X104289997Y-69304609D01*
X104476073Y-69645766D01*
X104893409Y-69861513D01*
X105344815Y-69991696D01*
X105812946Y-70031313D01*
X106279811Y-69978842D01*
X106727468Y-69836297D01*
X107083927Y-69645766D01*
X107270003Y-69304609D01*
X107215306Y-69249911D01*
X111587000Y-69249911D01*
X111587000Y-69434089D01*
X111622932Y-69614729D01*
X111693414Y-69784889D01*
X111795738Y-69938028D01*
X111925972Y-70068262D01*
X112079111Y-70170586D01*
X112249271Y-70241068D01*
X112429911Y-70277000D01*
X112614089Y-70277000D01*
X112794729Y-70241068D01*
X112964889Y-70170586D01*
X113118028Y-70068262D01*
X113248262Y-69938028D01*
X113350586Y-69784889D01*
X113401943Y-69660900D01*
X113459557Y-69799992D01*
X113594713Y-70002267D01*
X113766733Y-70174287D01*
X113969008Y-70309443D01*
X114193764Y-70402540D01*
X114432363Y-70450000D01*
X114675637Y-70450000D01*
X114914236Y-70402540D01*
X115138992Y-70309443D01*
X115341267Y-70174287D01*
X115513287Y-70002267D01*
X115648443Y-69799992D01*
X115697000Y-69682765D01*
X115745557Y-69799992D01*
X115880713Y-70002267D01*
X116052733Y-70174287D01*
X116255008Y-70309443D01*
X116479764Y-70402540D01*
X116718363Y-70450000D01*
X116961637Y-70450000D01*
X117200236Y-70402540D01*
X117424992Y-70309443D01*
X117627267Y-70174287D01*
X117799287Y-70002267D01*
X117934443Y-69799992D01*
X118027540Y-69575236D01*
X118046500Y-69479917D01*
X118065460Y-69575236D01*
X118158557Y-69799992D01*
X118293713Y-70002267D01*
X118465733Y-70174287D01*
X118668008Y-70309443D01*
X118892764Y-70402540D01*
X119131363Y-70450000D01*
X119374637Y-70450000D01*
X119613236Y-70402540D01*
X119837992Y-70309443D01*
X120040267Y-70174287D01*
X120212287Y-70002267D01*
X120347443Y-69799992D01*
X120440540Y-69575236D01*
X120488000Y-69336637D01*
X120488000Y-69093363D01*
X120440540Y-68854764D01*
X120347443Y-68630008D01*
X120337356Y-68614911D01*
X125049000Y-68614911D01*
X125049000Y-68799089D01*
X125084932Y-68979729D01*
X125155414Y-69149889D01*
X125257738Y-69303028D01*
X125387972Y-69433262D01*
X125541111Y-69535586D01*
X125711271Y-69606068D01*
X125891911Y-69642000D01*
X126076089Y-69642000D01*
X126256729Y-69606068D01*
X126426889Y-69535586D01*
X126580028Y-69433262D01*
X126710262Y-69303028D01*
X126812586Y-69149889D01*
X126883068Y-68979729D01*
X126919000Y-68799089D01*
X126919000Y-68614911D01*
X126883068Y-68434271D01*
X126812586Y-68264111D01*
X126710262Y-68110972D01*
X126580028Y-67980738D01*
X126426889Y-67878414D01*
X126256729Y-67807932D01*
X126076089Y-67772000D01*
X125891911Y-67772000D01*
X125711271Y-67807932D01*
X125541111Y-67878414D01*
X125387972Y-67980738D01*
X125257738Y-68110972D01*
X125155414Y-68264111D01*
X125084932Y-68434271D01*
X125049000Y-68614911D01*
X120337356Y-68614911D01*
X120212287Y-68427733D01*
X120040267Y-68255713D01*
X119837992Y-68120557D01*
X119613236Y-68027460D01*
X119374637Y-67980000D01*
X119131363Y-67980000D01*
X118892764Y-68027460D01*
X118668008Y-68120557D01*
X118465733Y-68255713D01*
X118293713Y-68427733D01*
X118158557Y-68630008D01*
X118065460Y-68854764D01*
X118046500Y-68950083D01*
X118027540Y-68854764D01*
X117934443Y-68630008D01*
X117799287Y-68427733D01*
X117627267Y-68255713D01*
X117424992Y-68120557D01*
X117200236Y-68027460D01*
X116961637Y-67980000D01*
X116718363Y-67980000D01*
X116479764Y-68027460D01*
X116255008Y-68120557D01*
X116052733Y-68255713D01*
X115880713Y-68427733D01*
X115745557Y-68630008D01*
X115697000Y-68747235D01*
X115648443Y-68630008D01*
X115513287Y-68427733D01*
X115341267Y-68255713D01*
X115138992Y-68120557D01*
X114914236Y-68027460D01*
X114675637Y-67980000D01*
X114432363Y-67980000D01*
X114193764Y-68027460D01*
X113969008Y-68120557D01*
X113766733Y-68255713D01*
X113594713Y-68427733D01*
X113459557Y-68630008D01*
X113366460Y-68854764D01*
X113355351Y-68910614D01*
X113350586Y-68899111D01*
X113248262Y-68745972D01*
X113118028Y-68615738D01*
X112964889Y-68513414D01*
X112794729Y-68442932D01*
X112614089Y-68407000D01*
X112429911Y-68407000D01*
X112249271Y-68442932D01*
X112079111Y-68513414D01*
X111925972Y-68615738D01*
X111795738Y-68745972D01*
X111693414Y-68899111D01*
X111622932Y-69069271D01*
X111587000Y-69249911D01*
X107215306Y-69249911D01*
X105780000Y-67814605D01*
X104289997Y-69304609D01*
X103834000Y-69304609D01*
X103834000Y-68974252D01*
X104110391Y-69125003D01*
X105600395Y-67635000D01*
X105959605Y-67635000D01*
X107449609Y-69125003D01*
X107790766Y-68938927D01*
X108006513Y-68521591D01*
X108136696Y-68070185D01*
X108176313Y-67602054D01*
X108161687Y-67471911D01*
X127081000Y-67471911D01*
X127081000Y-67656089D01*
X127116932Y-67836729D01*
X127187414Y-68006889D01*
X127289738Y-68160028D01*
X127419972Y-68290262D01*
X127573111Y-68392586D01*
X127743271Y-68463068D01*
X127923911Y-68499000D01*
X128108089Y-68499000D01*
X128288729Y-68463068D01*
X128458889Y-68392586D01*
X128612028Y-68290262D01*
X128742262Y-68160028D01*
X128844586Y-68006889D01*
X128915068Y-67836729D01*
X128951000Y-67656089D01*
X128951000Y-67471911D01*
X128915068Y-67291271D01*
X128844586Y-67121111D01*
X128774606Y-67016377D01*
X134387502Y-67016377D01*
X134387502Y-67200555D01*
X134423434Y-67381195D01*
X134493916Y-67551355D01*
X134596240Y-67704494D01*
X134726474Y-67834728D01*
X134879613Y-67937052D01*
X135049773Y-68007534D01*
X135230413Y-68043466D01*
X135414591Y-68043466D01*
X135595231Y-68007534D01*
X135765391Y-67937052D01*
X135918530Y-67834728D01*
X136048764Y-67704494D01*
X136151088Y-67551355D01*
X136204388Y-67422678D01*
X136309972Y-67528262D01*
X136463111Y-67630586D01*
X136633271Y-67701068D01*
X136813911Y-67737000D01*
X136998089Y-67737000D01*
X137178729Y-67701068D01*
X137330350Y-67638265D01*
X137433395Y-67680947D01*
X137614035Y-67716879D01*
X137798213Y-67716879D01*
X137978853Y-67680947D01*
X138149013Y-67610465D01*
X138302152Y-67508141D01*
X138432386Y-67377907D01*
X138534710Y-67224768D01*
X138605192Y-67054608D01*
X138641124Y-66873968D01*
X138641124Y-66689790D01*
X138605192Y-66509150D01*
X138534710Y-66338990D01*
X138432386Y-66185851D01*
X138302152Y-66055617D01*
X138149013Y-65953293D01*
X137978853Y-65882811D01*
X137798213Y-65846879D01*
X137614035Y-65846879D01*
X137433395Y-65882811D01*
X137281774Y-65945614D01*
X137178729Y-65902932D01*
X136998089Y-65867000D01*
X136813911Y-65867000D01*
X136731926Y-65883308D01*
X136718586Y-65851101D01*
X136616262Y-65697962D01*
X136486028Y-65567728D01*
X136332889Y-65465404D01*
X136162729Y-65394922D01*
X135982089Y-65358990D01*
X135797911Y-65358990D01*
X135617271Y-65394922D01*
X135447111Y-65465404D01*
X135293972Y-65567728D01*
X135163738Y-65697962D01*
X135061414Y-65851101D01*
X134990932Y-66021261D01*
X134955000Y-66201901D01*
X134955000Y-66248654D01*
X134879613Y-66279880D01*
X134726474Y-66382204D01*
X134596240Y-66512438D01*
X134493916Y-66665577D01*
X134423434Y-66835737D01*
X134387502Y-67016377D01*
X128774606Y-67016377D01*
X128742262Y-66967972D01*
X128612028Y-66837738D01*
X128458889Y-66735414D01*
X128288729Y-66664932D01*
X128108089Y-66629000D01*
X127923911Y-66629000D01*
X127743271Y-66664932D01*
X127573111Y-66735414D01*
X127419972Y-66837738D01*
X127289738Y-66967972D01*
X127187414Y-67121111D01*
X127116932Y-67291271D01*
X127081000Y-67471911D01*
X108161687Y-67471911D01*
X108123842Y-67135189D01*
X107981297Y-66687532D01*
X107790766Y-66331073D01*
X107449609Y-66144997D01*
X105959605Y-67635000D01*
X105600395Y-67635000D01*
X104110391Y-66144997D01*
X103834000Y-66295748D01*
X103834000Y-65965391D01*
X104289997Y-65965391D01*
X105780000Y-67455395D01*
X107270003Y-65965391D01*
X107083927Y-65624234D01*
X106727377Y-65439911D01*
X121239000Y-65439911D01*
X121239000Y-65624089D01*
X121274932Y-65804729D01*
X121345414Y-65974889D01*
X121447738Y-66128028D01*
X121577972Y-66258262D01*
X121731111Y-66360586D01*
X121901271Y-66431068D01*
X122081911Y-66467000D01*
X122266089Y-66467000D01*
X122446729Y-66431068D01*
X122616889Y-66360586D01*
X122770028Y-66258262D01*
X122900262Y-66128028D01*
X123002586Y-65974889D01*
X123073068Y-65804729D01*
X123109000Y-65624089D01*
X123109000Y-65439911D01*
X123073068Y-65259271D01*
X123025730Y-65144986D01*
X124745000Y-65144986D01*
X124745000Y-65339014D01*
X124782853Y-65529314D01*
X124857104Y-65708572D01*
X124964901Y-65869901D01*
X125102099Y-66007099D01*
X125263428Y-66114896D01*
X125442686Y-66189147D01*
X125632986Y-66227000D01*
X125827014Y-66227000D01*
X126017314Y-66189147D01*
X126196572Y-66114896D01*
X126357901Y-66007099D01*
X126495099Y-65869901D01*
X126602896Y-65708572D01*
X126677147Y-65529314D01*
X126715000Y-65339014D01*
X126715000Y-65144986D01*
X126677147Y-64954686D01*
X126602896Y-64775428D01*
X126495099Y-64614099D01*
X126357901Y-64476901D01*
X126196572Y-64369104D01*
X126017314Y-64294853D01*
X125827014Y-64257000D01*
X125632986Y-64257000D01*
X125442686Y-64294853D01*
X125263428Y-64369104D01*
X125102099Y-64476901D01*
X124964901Y-64614099D01*
X124857104Y-64775428D01*
X124782853Y-64954686D01*
X124745000Y-65144986D01*
X123025730Y-65144986D01*
X123002586Y-65089111D01*
X122900262Y-64935972D01*
X122770028Y-64805738D01*
X122616889Y-64703414D01*
X122446729Y-64632932D01*
X122266089Y-64597000D01*
X122081911Y-64597000D01*
X121901271Y-64632932D01*
X121731111Y-64703414D01*
X121577972Y-64805738D01*
X121447738Y-64935972D01*
X121345414Y-65089111D01*
X121274932Y-65259271D01*
X121239000Y-65439911D01*
X106727377Y-65439911D01*
X106666591Y-65408487D01*
X106215185Y-65278304D01*
X105747054Y-65238687D01*
X105280189Y-65291158D01*
X104832532Y-65433703D01*
X104476073Y-65624234D01*
X104289997Y-65965391D01*
X103834000Y-65965391D01*
X103834000Y-62933531D01*
X106999389Y-62933531D01*
X107041401Y-63223019D01*
X107139081Y-63498747D01*
X107212528Y-63636157D01*
X107461603Y-63713792D01*
X108310395Y-62865000D01*
X107461603Y-62016208D01*
X107212528Y-62093843D01*
X107086629Y-62357883D01*
X107014661Y-62641411D01*
X106999389Y-62933531D01*
X103834000Y-62933531D01*
X103834000Y-60218740D01*
X107005000Y-60218740D01*
X107005000Y-60511260D01*
X107062068Y-60798158D01*
X107174010Y-61068411D01*
X107336525Y-61311632D01*
X107543368Y-61518475D01*
X107706410Y-61627416D01*
X107641208Y-61836603D01*
X108490000Y-62685395D01*
X108504143Y-62671253D01*
X108683748Y-62850858D01*
X108669605Y-62865000D01*
X108683748Y-62879143D01*
X108504143Y-63058748D01*
X108490000Y-63044605D01*
X107641208Y-63893397D01*
X107718843Y-64142472D01*
X107982883Y-64268371D01*
X108266411Y-64340339D01*
X108558531Y-64355611D01*
X108848019Y-64313599D01*
X109123747Y-64215919D01*
X109199850Y-64175241D01*
X109285506Y-64245537D01*
X109395820Y-64304502D01*
X109515518Y-64340812D01*
X109640000Y-64353072D01*
X111340000Y-64353072D01*
X111464482Y-64340812D01*
X111584180Y-64304502D01*
X111694494Y-64245537D01*
X111791185Y-64166185D01*
X111870537Y-64069494D01*
X111929502Y-63959180D01*
X111965812Y-63839482D01*
X111978072Y-63715000D01*
X111978072Y-62015000D01*
X111965812Y-61890518D01*
X111929502Y-61770820D01*
X111870537Y-61660506D01*
X111791185Y-61563815D01*
X111694494Y-61484463D01*
X111584180Y-61425498D01*
X111542310Y-61412797D01*
X111643475Y-61311632D01*
X111805990Y-61068411D01*
X111917932Y-60798158D01*
X111975000Y-60511260D01*
X111975000Y-60341911D01*
X119715000Y-60341911D01*
X119715000Y-60526089D01*
X119750932Y-60706729D01*
X119821414Y-60876889D01*
X119923738Y-61030028D01*
X120053972Y-61160262D01*
X120207111Y-61262586D01*
X120282074Y-61293636D01*
X120177738Y-61397972D01*
X120075414Y-61551111D01*
X120004932Y-61721271D01*
X119969000Y-61901911D01*
X119969000Y-62086089D01*
X120004932Y-62266729D01*
X120075414Y-62436889D01*
X120177738Y-62590028D01*
X120307972Y-62720262D01*
X120461111Y-62822586D01*
X120631271Y-62893068D01*
X120811911Y-62929000D01*
X120996089Y-62929000D01*
X121176729Y-62893068D01*
X121346889Y-62822586D01*
X121500028Y-62720262D01*
X121579304Y-62640986D01*
X124744994Y-62640986D01*
X124744994Y-62835014D01*
X124782847Y-63025314D01*
X124857098Y-63204572D01*
X124964895Y-63365901D01*
X125102093Y-63503099D01*
X125263422Y-63610896D01*
X125442680Y-63685147D01*
X125632980Y-63723000D01*
X125827008Y-63723000D01*
X126017308Y-63685147D01*
X126196566Y-63610896D01*
X126357895Y-63503099D01*
X126495093Y-63365901D01*
X126526431Y-63319000D01*
X126594861Y-63319000D01*
X126775501Y-63283068D01*
X126945661Y-63212586D01*
X127098800Y-63110262D01*
X127229034Y-62980028D01*
X127331358Y-62826889D01*
X127401840Y-62656729D01*
X127404787Y-62641911D01*
X128097006Y-62641911D01*
X128097006Y-62826089D01*
X128132938Y-63006729D01*
X128203420Y-63176889D01*
X128305744Y-63330028D01*
X128435978Y-63460262D01*
X128589117Y-63562586D01*
X128759277Y-63633068D01*
X128939917Y-63669000D01*
X129124095Y-63669000D01*
X129304735Y-63633068D01*
X129474895Y-63562586D01*
X129628034Y-63460262D01*
X129758268Y-63330028D01*
X129860592Y-63176889D01*
X129931074Y-63006729D01*
X129967006Y-62826089D01*
X129967006Y-62658794D01*
X136842987Y-62658794D01*
X136842987Y-62842972D01*
X136878919Y-63023612D01*
X136949401Y-63193772D01*
X137051725Y-63346911D01*
X137181959Y-63477145D01*
X137335098Y-63579469D01*
X137340534Y-63581721D01*
X137276932Y-63735271D01*
X137241000Y-63915911D01*
X137241000Y-64100089D01*
X137276932Y-64280729D01*
X137347414Y-64450889D01*
X137449738Y-64604028D01*
X137579972Y-64734262D01*
X137733111Y-64836586D01*
X137903271Y-64907068D01*
X138083911Y-64943000D01*
X138268089Y-64943000D01*
X138448729Y-64907068D01*
X138618889Y-64836586D01*
X138713239Y-64773544D01*
X138769689Y-64858028D01*
X138899923Y-64988262D01*
X139053062Y-65090586D01*
X139223222Y-65161068D01*
X139403862Y-65197000D01*
X139588040Y-65197000D01*
X139768680Y-65161068D01*
X139938840Y-65090586D01*
X140091979Y-64988262D01*
X140222213Y-64858028D01*
X140324537Y-64704889D01*
X140395019Y-64534729D01*
X140430951Y-64354089D01*
X140430951Y-64169911D01*
X140395019Y-63989271D01*
X140324537Y-63819111D01*
X140222213Y-63665972D01*
X140091979Y-63535738D01*
X139938840Y-63433414D01*
X139792335Y-63372730D01*
X139837068Y-63264735D01*
X139873000Y-63084095D01*
X139873000Y-62899917D01*
X139845597Y-62762156D01*
X139929544Y-62727384D01*
X140082683Y-62625060D01*
X140212917Y-62494826D01*
X140315241Y-62341687D01*
X140385723Y-62171527D01*
X140421655Y-61990887D01*
X140421655Y-61806709D01*
X140385723Y-61626069D01*
X140315241Y-61455909D01*
X140212917Y-61302770D01*
X140082683Y-61172536D01*
X139929544Y-61070212D01*
X139759384Y-60999730D01*
X139578744Y-60963798D01*
X139394566Y-60963798D01*
X139213926Y-60999730D01*
X139043766Y-61070212D01*
X138890627Y-61172536D01*
X138809260Y-61253903D01*
X138690852Y-61174785D01*
X138543600Y-61113792D01*
X138619909Y-60999587D01*
X138690391Y-60829427D01*
X138707260Y-60744622D01*
X138749111Y-60772586D01*
X138919271Y-60843068D01*
X139099911Y-60879000D01*
X139284089Y-60879000D01*
X139464729Y-60843068D01*
X139634889Y-60772586D01*
X139788028Y-60670262D01*
X139918262Y-60540028D01*
X140020586Y-60386889D01*
X140091068Y-60216729D01*
X140127000Y-60036089D01*
X140127000Y-59851911D01*
X140091068Y-59671271D01*
X140020586Y-59501111D01*
X139918262Y-59347972D01*
X139868252Y-59297962D01*
X139873000Y-59274095D01*
X139873000Y-59089917D01*
X139837068Y-58909277D01*
X139788489Y-58791997D01*
X139837068Y-58674716D01*
X139873000Y-58494076D01*
X139873000Y-58309898D01*
X139837068Y-58129258D01*
X139766586Y-57959098D01*
X139664262Y-57805959D01*
X139534028Y-57675725D01*
X139380889Y-57573401D01*
X139210729Y-57502919D01*
X139030089Y-57466987D01*
X138845911Y-57466987D01*
X138665271Y-57502919D01*
X138495111Y-57573401D01*
X138341972Y-57675725D01*
X138211738Y-57805959D01*
X138109414Y-57959098D01*
X138038932Y-58129258D01*
X138003000Y-58309898D01*
X138003000Y-58494076D01*
X138038932Y-58674716D01*
X138087511Y-58791996D01*
X138038932Y-58909277D01*
X138003000Y-59089917D01*
X138003000Y-59274095D01*
X138038932Y-59454735D01*
X138109414Y-59624895D01*
X138157016Y-59696137D01*
X138064052Y-59657630D01*
X137883412Y-59621698D01*
X137699234Y-59621698D01*
X137518594Y-59657630D01*
X137348434Y-59728112D01*
X137195295Y-59830436D01*
X137065061Y-59960670D01*
X136962737Y-60113809D01*
X136892255Y-60283969D01*
X136856323Y-60464609D01*
X136856323Y-60648787D01*
X136892255Y-60829427D01*
X136962737Y-60999587D01*
X137065061Y-61152726D01*
X137195295Y-61282960D01*
X137348434Y-61385284D01*
X137495686Y-61446277D01*
X137419377Y-61560482D01*
X137348895Y-61730642D01*
X137312963Y-61911282D01*
X137312963Y-61937087D01*
X137181959Y-62024621D01*
X137051725Y-62154855D01*
X136949401Y-62307994D01*
X136878919Y-62478154D01*
X136842987Y-62658794D01*
X129967006Y-62658794D01*
X129967006Y-62641911D01*
X129931074Y-62461271D01*
X129860592Y-62291111D01*
X129758268Y-62137972D01*
X129628034Y-62007738D01*
X129474895Y-61905414D01*
X129304735Y-61834932D01*
X129124095Y-61799000D01*
X128939917Y-61799000D01*
X128759277Y-61834932D01*
X128589117Y-61905414D01*
X128435978Y-62007738D01*
X128305744Y-62137972D01*
X128203420Y-62291111D01*
X128132938Y-62461271D01*
X128097006Y-62641911D01*
X127404787Y-62641911D01*
X127437772Y-62476089D01*
X127437772Y-62291911D01*
X127401840Y-62111271D01*
X127331358Y-61941111D01*
X127229034Y-61787972D01*
X127098800Y-61657738D01*
X126945661Y-61555414D01*
X126775501Y-61484932D01*
X126683501Y-61466632D01*
X126677147Y-61434690D01*
X126602896Y-61255432D01*
X126495099Y-61094103D01*
X126357901Y-60956905D01*
X126196572Y-60849108D01*
X126017314Y-60774857D01*
X125827014Y-60737004D01*
X125632986Y-60737004D01*
X125442686Y-60774857D01*
X125263428Y-60849108D01*
X125102099Y-60956905D01*
X124964901Y-61094103D01*
X124857104Y-61255432D01*
X124782853Y-61434690D01*
X124745000Y-61624990D01*
X124745000Y-61819018D01*
X124782853Y-62009318D01*
X124857104Y-62188576D01*
X124884781Y-62229998D01*
X124857098Y-62271428D01*
X124782847Y-62450686D01*
X124744994Y-62640986D01*
X121579304Y-62640986D01*
X121630262Y-62590028D01*
X121732586Y-62436889D01*
X121803068Y-62266729D01*
X121839000Y-62086089D01*
X121839000Y-61901911D01*
X121803068Y-61721271D01*
X121732586Y-61551111D01*
X121630262Y-61397972D01*
X121500028Y-61267738D01*
X121346889Y-61165414D01*
X121271926Y-61134364D01*
X121376262Y-61030028D01*
X121478586Y-60876889D01*
X121549068Y-60706729D01*
X121585000Y-60526089D01*
X121585000Y-60341911D01*
X121549068Y-60161271D01*
X121478586Y-59991111D01*
X121376262Y-59837972D01*
X121246028Y-59707738D01*
X121092889Y-59605414D01*
X120922729Y-59534932D01*
X120742089Y-59499000D01*
X120557911Y-59499000D01*
X120377271Y-59534932D01*
X120207111Y-59605414D01*
X120053972Y-59707738D01*
X119923738Y-59837972D01*
X119821414Y-59991111D01*
X119750932Y-60161271D01*
X119715000Y-60341911D01*
X111975000Y-60341911D01*
X111975000Y-60218740D01*
X111917932Y-59931842D01*
X111805990Y-59661589D01*
X111643475Y-59418368D01*
X111436632Y-59211525D01*
X111193411Y-59049010D01*
X110923158Y-58937068D01*
X110636260Y-58880000D01*
X110343740Y-58880000D01*
X110056842Y-58937068D01*
X109786589Y-59049010D01*
X109543368Y-59211525D01*
X109490000Y-59264893D01*
X109436632Y-59211525D01*
X109193411Y-59049010D01*
X108923158Y-58937068D01*
X108636260Y-58880000D01*
X108343740Y-58880000D01*
X108056842Y-58937068D01*
X107786589Y-59049010D01*
X107543368Y-59211525D01*
X107336525Y-59418368D01*
X107174010Y-59661589D01*
X107062068Y-59931842D01*
X107005000Y-60218740D01*
X103834000Y-60218740D01*
X103834000Y-58809411D01*
X126827000Y-58809411D01*
X126827000Y-58993589D01*
X126862932Y-59174229D01*
X126933414Y-59344389D01*
X127035738Y-59497528D01*
X127165972Y-59627762D01*
X127319111Y-59730086D01*
X127489271Y-59800568D01*
X127669911Y-59836500D01*
X127854089Y-59836500D01*
X128034729Y-59800568D01*
X128204889Y-59730086D01*
X128332129Y-59645067D01*
X128703157Y-59645067D01*
X128703157Y-59829245D01*
X128739089Y-60009885D01*
X128809571Y-60180045D01*
X128911895Y-60333184D01*
X129042129Y-60463418D01*
X129195268Y-60565742D01*
X129322540Y-60618459D01*
X129375257Y-60745731D01*
X129477581Y-60898870D01*
X129607815Y-61029104D01*
X129760954Y-61131428D01*
X129931114Y-61201910D01*
X130111754Y-61237842D01*
X130295932Y-61237842D01*
X130476572Y-61201910D01*
X130646732Y-61131428D01*
X130732389Y-61074194D01*
X130903686Y-61145147D01*
X131093986Y-61183000D01*
X131288014Y-61183000D01*
X131478314Y-61145147D01*
X131657572Y-61070896D01*
X131818901Y-60963099D01*
X131858013Y-60923988D01*
X131963129Y-61029104D01*
X132116268Y-61131428D01*
X132286428Y-61201910D01*
X132467068Y-61237842D01*
X132651246Y-61237842D01*
X132831886Y-61201910D01*
X133002046Y-61131428D01*
X133155185Y-61029104D01*
X133285419Y-60898870D01*
X133387743Y-60745731D01*
X133440460Y-60618459D01*
X133567732Y-60565742D01*
X133720871Y-60463418D01*
X133851105Y-60333184D01*
X133858747Y-60321747D01*
X133889165Y-60352165D01*
X133808234Y-60473287D01*
X133737752Y-60643447D01*
X133701820Y-60824087D01*
X133701820Y-61008265D01*
X133737752Y-61188905D01*
X133808234Y-61359065D01*
X133910558Y-61512204D01*
X134040792Y-61642438D01*
X134193931Y-61744762D01*
X134364091Y-61815244D01*
X134544731Y-61851176D01*
X134728909Y-61851176D01*
X134909549Y-61815244D01*
X135079709Y-61744762D01*
X135232848Y-61642438D01*
X135363082Y-61512204D01*
X135465406Y-61359065D01*
X135535888Y-61188905D01*
X135571820Y-61008265D01*
X135571820Y-60824087D01*
X135535888Y-60643447D01*
X135465406Y-60473287D01*
X135371001Y-60331999D01*
X135385099Y-60317901D01*
X135492896Y-60156572D01*
X135567147Y-59977314D01*
X135605000Y-59787014D01*
X135605000Y-59592986D01*
X135567147Y-59402686D01*
X135492896Y-59223428D01*
X135385099Y-59062099D01*
X135247901Y-58924901D01*
X135086572Y-58817104D01*
X134907314Y-58742853D01*
X134717014Y-58705000D01*
X134522986Y-58705000D01*
X134332686Y-58742853D01*
X134153428Y-58817104D01*
X133992099Y-58924901D01*
X133854901Y-59062099D01*
X133821726Y-59111749D01*
X133720871Y-59010894D01*
X133567732Y-58908570D01*
X133397572Y-58838088D01*
X133216932Y-58802156D01*
X133032754Y-58802156D01*
X132852114Y-58838088D01*
X132681954Y-58908570D01*
X132528815Y-59010894D01*
X132398581Y-59141128D01*
X132296257Y-59294267D01*
X132243540Y-59421539D01*
X132116268Y-59474256D01*
X131963129Y-59576580D01*
X131961511Y-59578198D01*
X131956099Y-59570099D01*
X131818901Y-59432901D01*
X131657572Y-59325104D01*
X131478314Y-59250853D01*
X131288014Y-59213000D01*
X131093986Y-59213000D01*
X130903686Y-59250853D01*
X130724428Y-59325104D01*
X130563099Y-59432901D01*
X130558352Y-59437648D01*
X130519460Y-59421539D01*
X130466743Y-59294267D01*
X130364419Y-59141128D01*
X130234185Y-59010894D01*
X130081046Y-58908570D01*
X129910886Y-58838088D01*
X129730246Y-58802156D01*
X129546068Y-58802156D01*
X129365428Y-58838088D01*
X129195268Y-58908570D01*
X129042129Y-59010894D01*
X128911895Y-59141128D01*
X128809571Y-59294267D01*
X128739089Y-59464427D01*
X128703157Y-59645067D01*
X128332129Y-59645067D01*
X128358028Y-59627762D01*
X128488262Y-59497528D01*
X128590586Y-59344389D01*
X128661068Y-59174229D01*
X128697000Y-58993589D01*
X128697000Y-58809411D01*
X128661068Y-58628771D01*
X128590586Y-58458611D01*
X128488262Y-58305472D01*
X128358028Y-58175238D01*
X128204889Y-58072914D01*
X128034729Y-58002432D01*
X127854089Y-57966500D01*
X127669911Y-57966500D01*
X127489271Y-58002432D01*
X127319111Y-58072914D01*
X127165972Y-58175238D01*
X127035738Y-58305472D01*
X126933414Y-58458611D01*
X126862932Y-58628771D01*
X126827000Y-58809411D01*
X103834000Y-58809411D01*
X103834000Y-57264609D01*
X104289997Y-57264609D01*
X104476073Y-57605766D01*
X104893409Y-57821513D01*
X105344815Y-57951696D01*
X105812946Y-57991313D01*
X106279811Y-57938842D01*
X106727468Y-57796297D01*
X107083927Y-57605766D01*
X107270003Y-57264609D01*
X105780000Y-55774605D01*
X104289997Y-57264609D01*
X103834000Y-57264609D01*
X103834000Y-56934252D01*
X104110391Y-57085003D01*
X105600395Y-55595000D01*
X105959605Y-55595000D01*
X107449609Y-57085003D01*
X107790766Y-56898927D01*
X107973740Y-56544986D01*
X112299000Y-56544986D01*
X112299000Y-56739014D01*
X112336853Y-56929314D01*
X112411104Y-57108572D01*
X112518901Y-57269901D01*
X112656099Y-57407099D01*
X112817428Y-57514896D01*
X112996686Y-57589147D01*
X113186986Y-57627000D01*
X113381014Y-57627000D01*
X113571314Y-57589147D01*
X113750572Y-57514896D01*
X113911901Y-57407099D01*
X114049099Y-57269901D01*
X114156896Y-57108572D01*
X114177880Y-57057911D01*
X121097000Y-57057911D01*
X121097000Y-57242089D01*
X121132932Y-57422729D01*
X121203414Y-57592889D01*
X121305738Y-57746028D01*
X121435972Y-57876262D01*
X121589111Y-57978586D01*
X121759271Y-58049068D01*
X121939911Y-58085000D01*
X122124089Y-58085000D01*
X122304729Y-58049068D01*
X122474889Y-57978586D01*
X122628028Y-57876262D01*
X122758262Y-57746028D01*
X122860586Y-57592889D01*
X122931068Y-57422729D01*
X122960529Y-57274619D01*
X123118349Y-57339990D01*
X123298989Y-57375922D01*
X123483167Y-57375922D01*
X123663807Y-57339990D01*
X123833967Y-57269508D01*
X123987106Y-57167184D01*
X124117340Y-57036950D01*
X124219664Y-56883811D01*
X124252759Y-56803911D01*
X130891000Y-56803911D01*
X130891000Y-56988089D01*
X130926932Y-57168729D01*
X130997414Y-57338889D01*
X131099738Y-57492028D01*
X131229972Y-57622262D01*
X131383111Y-57724586D01*
X131553271Y-57795068D01*
X131733911Y-57831000D01*
X131918089Y-57831000D01*
X132098729Y-57795068D01*
X132268889Y-57724586D01*
X132422028Y-57622262D01*
X132552262Y-57492028D01*
X132654586Y-57338889D01*
X132725068Y-57168729D01*
X132761000Y-56988089D01*
X132761000Y-56803911D01*
X132725068Y-56623271D01*
X132654586Y-56453111D01*
X132552262Y-56299972D01*
X132422028Y-56169738D01*
X132268889Y-56067414D01*
X132098729Y-55996932D01*
X131918089Y-55961000D01*
X131733911Y-55961000D01*
X131553271Y-55996932D01*
X131383111Y-56067414D01*
X131229972Y-56169738D01*
X131099738Y-56299972D01*
X130997414Y-56453111D01*
X130926932Y-56623271D01*
X130891000Y-56803911D01*
X124252759Y-56803911D01*
X124290146Y-56713651D01*
X124326078Y-56533011D01*
X124326078Y-56348833D01*
X124290146Y-56168193D01*
X124219664Y-55998033D01*
X124117340Y-55844894D01*
X123987106Y-55714660D01*
X123833967Y-55612336D01*
X123663807Y-55541854D01*
X123483167Y-55505922D01*
X123298989Y-55505922D01*
X123118349Y-55541854D01*
X122948189Y-55612336D01*
X122795050Y-55714660D01*
X122664816Y-55844894D01*
X122562492Y-55998033D01*
X122492010Y-56168193D01*
X122462549Y-56316303D01*
X122304729Y-56250932D01*
X122124089Y-56215000D01*
X121939911Y-56215000D01*
X121759271Y-56250932D01*
X121589111Y-56321414D01*
X121435972Y-56423738D01*
X121305738Y-56553972D01*
X121203414Y-56707111D01*
X121132932Y-56877271D01*
X121097000Y-57057911D01*
X114177880Y-57057911D01*
X114231147Y-56929314D01*
X114269000Y-56739014D01*
X114269000Y-56544986D01*
X114231147Y-56354686D01*
X114156896Y-56175428D01*
X114049099Y-56014099D01*
X113911901Y-55876901D01*
X113750572Y-55769104D01*
X113571314Y-55694853D01*
X113381014Y-55657000D01*
X113186986Y-55657000D01*
X112996686Y-55694853D01*
X112817428Y-55769104D01*
X112656099Y-55876901D01*
X112518901Y-56014099D01*
X112411104Y-56175428D01*
X112336853Y-56354686D01*
X112299000Y-56544986D01*
X107973740Y-56544986D01*
X108006513Y-56481591D01*
X108136696Y-56030185D01*
X108176313Y-55562054D01*
X108123842Y-55095189D01*
X107981297Y-54647532D01*
X107790766Y-54291073D01*
X107449609Y-54104997D01*
X105959605Y-55595000D01*
X105600395Y-55595000D01*
X104110391Y-54104997D01*
X103834000Y-54255748D01*
X103834000Y-53925391D01*
X104289997Y-53925391D01*
X105780000Y-55415395D01*
X107270003Y-53925391D01*
X107083927Y-53584234D01*
X106666591Y-53368487D01*
X106215185Y-53238304D01*
X105747054Y-53198687D01*
X105280189Y-53251158D01*
X104832532Y-53393703D01*
X104476073Y-53584234D01*
X104289997Y-53925391D01*
X103834000Y-53925391D01*
X103834000Y-50961911D01*
X116159000Y-50961911D01*
X116159000Y-51146089D01*
X116194932Y-51326729D01*
X116265414Y-51496889D01*
X116367738Y-51650028D01*
X116497972Y-51780262D01*
X116651111Y-51882586D01*
X116821271Y-51953068D01*
X117001911Y-51989000D01*
X117186089Y-51989000D01*
X117366729Y-51953068D01*
X117536889Y-51882586D01*
X117690028Y-51780262D01*
X117820262Y-51650028D01*
X117922586Y-51496889D01*
X117993068Y-51326729D01*
X118029000Y-51146089D01*
X118029000Y-50961911D01*
X117993068Y-50781271D01*
X117922586Y-50611111D01*
X117820262Y-50457972D01*
X117690028Y-50327738D01*
X117536889Y-50225414D01*
X117366729Y-50154932D01*
X117186089Y-50119000D01*
X117001911Y-50119000D01*
X116821271Y-50154932D01*
X116651111Y-50225414D01*
X116497972Y-50327738D01*
X116367738Y-50457972D01*
X116265414Y-50611111D01*
X116194932Y-50781271D01*
X116159000Y-50961911D01*
X103834000Y-50961911D01*
X103834000Y-48716000D01*
X119652891Y-48716000D01*
X119547036Y-48894022D01*
%TA.AperFunction,Conductor*%
D22*
G36*
X119547036Y-48894022D02*
G01*
X119449037Y-49170973D01*
X119569536Y-49403000D01*
X120777000Y-49403000D01*
X120777000Y-49383000D01*
X121031000Y-49383000D01*
X121031000Y-49403000D01*
X121051000Y-49403000D01*
X121051000Y-49657000D01*
X121031000Y-49657000D01*
X121031000Y-49677000D01*
X120777000Y-49677000D01*
X120777000Y-49657000D01*
X119569536Y-49657000D01*
X119449037Y-49889027D01*
X119547036Y-50165978D01*
X119697183Y-50418488D01*
X119858692Y-50597947D01*
X119796220Y-50616898D01*
X119685906Y-50675863D01*
X119589215Y-50755215D01*
X119509863Y-50851906D01*
X119450898Y-50962220D01*
X119414588Y-51081918D01*
X119402328Y-51206400D01*
X119402328Y-52933600D01*
X119414588Y-53058082D01*
X119450898Y-53177780D01*
X119509863Y-53288094D01*
X119589215Y-53384785D01*
X119685906Y-53464137D01*
X119796220Y-53523102D01*
X119915918Y-53559412D01*
X120040400Y-53571672D01*
X121767600Y-53571672D01*
X121892082Y-53559412D01*
X121927136Y-53548779D01*
X121853414Y-53659111D01*
X121782932Y-53829271D01*
X121747000Y-54009911D01*
X121747000Y-54194089D01*
X121782932Y-54374729D01*
X121853414Y-54544889D01*
X121955738Y-54698028D01*
X122085972Y-54828262D01*
X122239111Y-54930586D01*
X122409271Y-55001068D01*
X122589911Y-55037000D01*
X122774089Y-55037000D01*
X122954729Y-55001068D01*
X123124889Y-54930586D01*
X123278028Y-54828262D01*
X123408262Y-54698028D01*
X123510586Y-54544889D01*
X123581068Y-54374729D01*
X123617000Y-54194089D01*
X123617000Y-54009911D01*
X123581068Y-53829271D01*
X123510586Y-53659111D01*
X123450109Y-53568600D01*
X123591599Y-53568600D01*
X123881125Y-53511010D01*
X124153853Y-53398042D01*
X124399302Y-53234039D01*
X124608039Y-53025302D01*
X124714000Y-52866719D01*
X124819961Y-53025302D01*
X125028698Y-53234039D01*
X125274147Y-53398042D01*
X125338862Y-53424848D01*
X125257738Y-53505972D01*
X125155414Y-53659111D01*
X125084932Y-53829271D01*
X125049000Y-54009911D01*
X125049000Y-54194089D01*
X125084932Y-54374729D01*
X125155414Y-54544889D01*
X125257738Y-54698028D01*
X125387972Y-54828262D01*
X125541111Y-54930586D01*
X125711271Y-55001068D01*
X125891911Y-55037000D01*
X126076089Y-55037000D01*
X126256729Y-55001068D01*
X126426889Y-54930586D01*
X126580028Y-54828262D01*
X126595100Y-54813190D01*
X126608932Y-54882729D01*
X126679414Y-55052889D01*
X126781738Y-55206028D01*
X126911972Y-55336262D01*
X127065111Y-55438586D01*
X127235271Y-55509068D01*
X127415911Y-55545000D01*
X127600089Y-55545000D01*
X127780729Y-55509068D01*
X127950889Y-55438586D01*
X128104028Y-55336262D01*
X128234262Y-55206028D01*
X128336586Y-55052889D01*
X128407068Y-54882729D01*
X128443000Y-54702089D01*
X128443000Y-54517911D01*
X128407068Y-54337271D01*
X128336586Y-54167111D01*
X128234262Y-54013972D01*
X128104028Y-53883738D01*
X127950889Y-53781414D01*
X127780729Y-53710932D01*
X127600089Y-53675000D01*
X127415911Y-53675000D01*
X127235271Y-53710932D01*
X127065111Y-53781414D01*
X126911972Y-53883738D01*
X126896900Y-53898810D01*
X126883068Y-53829271D01*
X126812586Y-53659111D01*
X126710262Y-53505972D01*
X126629138Y-53424848D01*
X126693853Y-53398042D01*
X126939302Y-53234039D01*
X127148039Y-53025302D01*
X127254000Y-52866719D01*
X127359961Y-53025302D01*
X127568698Y-53234039D01*
X127814147Y-53398042D01*
X128086875Y-53511010D01*
X128376401Y-53568600D01*
X128671599Y-53568600D01*
X128961125Y-53511010D01*
X129233853Y-53398042D01*
X129479302Y-53234039D01*
X129688039Y-53025302D01*
X129794000Y-52866719D01*
X129899961Y-53025302D01*
X130108698Y-53234039D01*
X130354147Y-53398042D01*
X130626875Y-53511010D01*
X130916401Y-53568600D01*
X131211599Y-53568600D01*
X131501125Y-53511010D01*
X131773853Y-53398042D01*
X132019302Y-53234039D01*
X132135990Y-53117351D01*
X132111000Y-53242986D01*
X132111000Y-53437014D01*
X132148853Y-53627314D01*
X132223104Y-53806572D01*
X132330901Y-53967901D01*
X132468099Y-54105099D01*
X132629428Y-54212896D01*
X132808686Y-54287147D01*
X132998986Y-54325000D01*
X133193014Y-54325000D01*
X133383314Y-54287147D01*
X133562572Y-54212896D01*
X133723901Y-54105099D01*
X133861099Y-53967901D01*
X133968896Y-53806572D01*
X134043147Y-53627314D01*
X134081000Y-53437014D01*
X134081000Y-53242986D01*
X134043147Y-53052686D01*
X133968896Y-52873428D01*
X133861099Y-52712099D01*
X133723901Y-52574901D01*
X133562572Y-52467104D01*
X133383314Y-52392853D01*
X133193014Y-52355000D01*
X132998986Y-52355000D01*
X132808686Y-52392853D01*
X132629428Y-52467104D01*
X132480318Y-52566736D01*
X132505010Y-52507125D01*
X132562600Y-52217599D01*
X132562600Y-51922401D01*
X132505010Y-51632875D01*
X132392042Y-51360147D01*
X132228039Y-51114698D01*
X132019302Y-50905961D01*
X131858187Y-50798308D01*
X132074293Y-50636854D01*
X132270817Y-50418488D01*
X132420964Y-50165978D01*
X132518963Y-49889027D01*
X132398464Y-49657000D01*
X131191000Y-49657000D01*
X131191000Y-49677000D01*
X130937000Y-49677000D01*
X130937000Y-49657000D01*
X130917000Y-49657000D01*
X130917000Y-49403000D01*
X130937000Y-49403000D01*
X130937000Y-49383000D01*
X131191000Y-49383000D01*
X131191000Y-49403000D01*
X132398464Y-49403000D01*
X132518963Y-49170973D01*
X132420964Y-48894022D01*
X132315109Y-48716000D01*
X137662178Y-48716000D01*
X137636815Y-48736815D01*
X137557463Y-48833506D01*
X137498498Y-48943820D01*
X137462188Y-49063518D01*
X137449928Y-49188000D01*
X137449928Y-50888000D01*
X137462188Y-51012482D01*
X137498498Y-51132180D01*
X137557463Y-51242494D01*
X137636815Y-51339185D01*
X137733506Y-51418537D01*
X137843820Y-51477502D01*
X137963518Y-51513812D01*
X138088000Y-51526072D01*
X139788000Y-51526072D01*
X139912482Y-51513812D01*
X140032180Y-51477502D01*
X140142494Y-51418537D01*
X140239185Y-51339185D01*
X140318537Y-51242494D01*
X140377502Y-51132180D01*
X140399513Y-51059620D01*
X140531368Y-51191475D01*
X140774589Y-51353990D01*
X141044842Y-51465932D01*
X141331740Y-51523000D01*
X141624260Y-51523000D01*
X141911158Y-51465932D01*
X142181411Y-51353990D01*
X142424632Y-51191475D01*
X142631475Y-50984632D01*
X142793990Y-50741411D01*
X142905932Y-50471158D01*
X142963000Y-50184260D01*
X142963000Y-49891740D01*
X142905932Y-49604842D01*
X142793990Y-49334589D01*
X142631475Y-49091368D01*
X142424632Y-48884525D01*
X142181411Y-48722010D01*
X142166902Y-48716000D01*
X143054000Y-48716000D01*
X143054000Y-61798556D01*
X142960482Y-61770188D01*
X142836000Y-61757928D01*
X141136000Y-61757928D01*
X141011518Y-61770188D01*
X140891820Y-61806498D01*
X140781506Y-61865463D01*
X140684815Y-61944815D01*
X140605463Y-62041506D01*
X140546498Y-62151820D01*
X140510188Y-62271518D01*
X140497928Y-62396000D01*
X140497928Y-64096000D01*
X140510188Y-64220482D01*
X140546498Y-64340180D01*
X140605463Y-64450494D01*
X140684815Y-64547185D01*
X140781506Y-64626537D01*
X140891820Y-64685502D01*
X140964380Y-64707513D01*
X140832525Y-64839368D01*
X140670010Y-65082589D01*
X140558068Y-65352842D01*
X140501000Y-65639740D01*
X140501000Y-65932260D01*
X140536113Y-66108785D01*
X140387292Y-66138388D01*
X140217132Y-66208870D01*
X140063993Y-66311194D01*
X139933759Y-66441428D01*
X139831435Y-66594567D01*
X139760953Y-66764727D01*
X139725021Y-66945367D01*
X139725021Y-67129545D01*
X139760953Y-67310185D01*
X139831435Y-67480345D01*
X139933759Y-67633484D01*
X140063993Y-67763718D01*
X140217132Y-67866042D01*
X140387292Y-67936524D01*
X140543210Y-67967538D01*
X140501000Y-68179740D01*
X140501000Y-68472260D01*
X140558068Y-68759158D01*
X140670010Y-69029411D01*
X140832525Y-69272632D01*
X141039368Y-69479475D01*
X141221534Y-69601195D01*
X141104645Y-69670822D01*
X140888412Y-69865731D01*
X140714359Y-70099080D01*
X140589175Y-70361901D01*
X140544524Y-70509110D01*
X140665845Y-70739000D01*
X141859000Y-70739000D01*
X141859000Y-70719000D01*
X142113000Y-70719000D01*
X142113000Y-70739000D01*
X142133000Y-70739000D01*
X142133000Y-70993000D01*
X142113000Y-70993000D01*
X142113000Y-72186814D01*
X142342891Y-72307481D01*
X142617252Y-72210157D01*
X142867355Y-72061178D01*
X143054001Y-71892939D01*
X143054001Y-89206000D01*
X106095444Y-89206000D01*
X106123812Y-89112482D01*
X106136072Y-88988000D01*
X106136072Y-87786986D01*
X137191000Y-87786986D01*
X137191000Y-87981014D01*
X137228853Y-88171314D01*
X137303104Y-88350572D01*
X137410901Y-88511901D01*
X137548099Y-88649099D01*
X137709428Y-88756896D01*
X137888686Y-88831147D01*
X138078986Y-88869000D01*
X138273014Y-88869000D01*
X138463314Y-88831147D01*
X138642572Y-88756896D01*
X138803901Y-88649099D01*
X138941099Y-88511901D01*
X139048896Y-88350572D01*
X139123147Y-88171314D01*
X139161000Y-87981014D01*
X139161000Y-87786986D01*
X139123147Y-87596686D01*
X139048896Y-87417428D01*
X138941099Y-87256099D01*
X138803901Y-87118901D01*
X138642572Y-87011104D01*
X138463314Y-86936853D01*
X138273014Y-86899000D01*
X138078986Y-86899000D01*
X137888686Y-86936853D01*
X137709428Y-87011104D01*
X137548099Y-87118901D01*
X137410901Y-87256099D01*
X137303104Y-87417428D01*
X137228853Y-87596686D01*
X137191000Y-87786986D01*
X106136072Y-87786986D01*
X106136072Y-87288000D01*
X106123812Y-87163518D01*
X106087502Y-87043820D01*
X106028537Y-86933506D01*
X105949185Y-86836815D01*
X105852494Y-86757463D01*
X105742180Y-86698498D01*
X105669620Y-86676487D01*
X105801475Y-86544632D01*
X105963990Y-86301411D01*
X106075932Y-86031158D01*
X106133000Y-85744260D01*
X106133000Y-85451740D01*
X106075932Y-85164842D01*
X105963990Y-84894589D01*
X105801475Y-84651368D01*
X105594632Y-84444525D01*
X105420240Y-84328000D01*
X105594632Y-84211475D01*
X105801475Y-84004632D01*
X105963990Y-83761411D01*
X106075932Y-83491158D01*
X106133000Y-83204260D01*
X106133000Y-82911740D01*
X106075932Y-82624842D01*
X105963990Y-82354589D01*
X105801475Y-82111368D01*
X105594632Y-81904525D01*
X105420240Y-81788000D01*
X105594632Y-81671475D01*
X105801475Y-81464632D01*
X105963990Y-81221411D01*
X106075932Y-80951158D01*
X106133000Y-80664260D01*
X106133000Y-80371740D01*
X106075932Y-80084842D01*
X105963990Y-79814589D01*
X105801475Y-79571368D01*
X105594632Y-79364525D01*
X105420240Y-79248000D01*
X105594632Y-79131475D01*
X105801475Y-78924632D01*
X105963990Y-78681411D01*
X106075932Y-78411158D01*
X106133000Y-78124260D01*
X106133000Y-77831740D01*
X106075932Y-77544842D01*
X105963990Y-77274589D01*
X105801475Y-77031368D01*
X105594632Y-76824525D01*
X105420240Y-76708000D01*
X105594632Y-76591475D01*
X105801475Y-76384632D01*
X105963990Y-76141411D01*
X105976172Y-76112000D01*
X112303928Y-76112000D01*
X112303928Y-77812000D01*
X112316188Y-77936482D01*
X112352498Y-78056180D01*
X112411463Y-78166494D01*
X112490815Y-78263185D01*
X112587506Y-78342537D01*
X112697820Y-78401502D01*
X112770380Y-78423513D01*
X112638525Y-78555368D01*
X112476010Y-78798589D01*
X112364068Y-79068842D01*
X112307000Y-79355740D01*
X112307000Y-79648260D01*
X112364068Y-79935158D01*
X112476010Y-80205411D01*
X112638525Y-80448632D01*
X112845368Y-80655475D01*
X113088589Y-80817990D01*
X113358842Y-80929932D01*
X113645740Y-80987000D01*
X113938260Y-80987000D01*
X114225158Y-80929932D01*
X114495411Y-80817990D01*
X114738632Y-80655475D01*
X114945475Y-80448632D01*
X115062000Y-80274240D01*
X115178525Y-80448632D01*
X115385368Y-80655475D01*
X115628589Y-80817990D01*
X115898842Y-80929932D01*
X116185740Y-80987000D01*
X116478260Y-80987000D01*
X116765158Y-80929932D01*
X117035411Y-80817990D01*
X117278632Y-80655475D01*
X117485475Y-80448632D01*
X117602000Y-80274240D01*
X117718525Y-80448632D01*
X117925368Y-80655475D01*
X118168589Y-80817990D01*
X118438842Y-80929932D01*
X118725740Y-80987000D01*
X119018260Y-80987000D01*
X119305158Y-80929932D01*
X119575411Y-80817990D01*
X119818632Y-80655475D01*
X120025475Y-80448632D01*
X120142000Y-80274240D01*
X120258525Y-80448632D01*
X120465368Y-80655475D01*
X120708589Y-80817990D01*
X120978842Y-80929932D01*
X121265740Y-80987000D01*
X121558260Y-80987000D01*
X121845158Y-80929932D01*
X122115411Y-80817990D01*
X122358632Y-80655475D01*
X122565475Y-80448632D01*
X122687195Y-80266466D01*
X122756822Y-80383355D01*
X122951731Y-80599588D01*
X123185080Y-80773641D01*
X123447901Y-80898825D01*
X123595110Y-80943476D01*
X123825000Y-80822155D01*
X123825000Y-79629000D01*
X123805000Y-79629000D01*
X123805000Y-79375000D01*
X123825000Y-79375000D01*
X123825000Y-77089000D01*
X123805000Y-77089000D01*
X123805000Y-76835000D01*
X123825000Y-76835000D01*
X123825000Y-75641845D01*
X124079000Y-75641845D01*
X124079000Y-76835000D01*
X124099000Y-76835000D01*
X124099000Y-77089000D01*
X124079000Y-77089000D01*
X124079000Y-79375000D01*
X124099000Y-79375000D01*
X124099000Y-79629000D01*
X124079000Y-79629000D01*
X124079000Y-80822155D01*
X124308890Y-80943476D01*
X124456099Y-80898825D01*
X124718920Y-80773641D01*
X124952269Y-80599588D01*
X125147178Y-80383355D01*
X125216805Y-80266466D01*
X125338525Y-80448632D01*
X125545368Y-80655475D01*
X125788589Y-80817990D01*
X126058842Y-80929932D01*
X126345740Y-80987000D01*
X126638260Y-80987000D01*
X126925158Y-80929932D01*
X127195411Y-80817990D01*
X127438632Y-80655475D01*
X127645475Y-80448632D01*
X127807990Y-80205411D01*
X127919932Y-79935158D01*
X127977000Y-79648260D01*
X127977000Y-79355740D01*
X127919932Y-79068842D01*
X127807990Y-78798589D01*
X127645475Y-78555368D01*
X127438632Y-78348525D01*
X127264240Y-78232000D01*
X127438632Y-78115475D01*
X127645475Y-77908632D01*
X127807990Y-77665411D01*
X127919932Y-77395158D01*
X127977000Y-77108260D01*
X127977000Y-76815740D01*
X127919932Y-76528842D01*
X127807990Y-76258589D01*
X127645475Y-76015368D01*
X127438632Y-75808525D01*
X127195411Y-75646010D01*
X126925158Y-75534068D01*
X126638260Y-75477000D01*
X126345740Y-75477000D01*
X126058842Y-75534068D01*
X125788589Y-75646010D01*
X125545368Y-75808525D01*
X125338525Y-76015368D01*
X125216805Y-76197534D01*
X125147178Y-76080645D01*
X124952269Y-75864412D01*
X124718920Y-75690359D01*
X124456099Y-75565175D01*
X124308890Y-75520524D01*
X124079000Y-75641845D01*
X123825000Y-75641845D01*
X123595110Y-75520524D01*
X123447901Y-75565175D01*
X123185080Y-75690359D01*
X122951731Y-75864412D01*
X122756822Y-76080645D01*
X122687195Y-76197534D01*
X122565475Y-76015368D01*
X122358632Y-75808525D01*
X122115411Y-75646010D01*
X121845158Y-75534068D01*
X121558260Y-75477000D01*
X121265740Y-75477000D01*
X120978842Y-75534068D01*
X120708589Y-75646010D01*
X120465368Y-75808525D01*
X120258525Y-76015368D01*
X120142000Y-76189760D01*
X120025475Y-76015368D01*
X119818632Y-75808525D01*
X119575411Y-75646010D01*
X119305158Y-75534068D01*
X119018260Y-75477000D01*
X118725740Y-75477000D01*
X118438842Y-75534068D01*
X118168589Y-75646010D01*
X117925368Y-75808525D01*
X117718525Y-76015368D01*
X117602000Y-76189760D01*
X117485475Y-76015368D01*
X117278632Y-75808525D01*
X117035411Y-75646010D01*
X116765158Y-75534068D01*
X116478260Y-75477000D01*
X116185740Y-75477000D01*
X115898842Y-75534068D01*
X115628589Y-75646010D01*
X115385368Y-75808525D01*
X115253513Y-75940380D01*
X115231502Y-75867820D01*
X115172537Y-75757506D01*
X115093185Y-75660815D01*
X114996494Y-75581463D01*
X114886180Y-75522498D01*
X114766482Y-75486188D01*
X114642000Y-75473928D01*
X112942000Y-75473928D01*
X112817518Y-75486188D01*
X112697820Y-75522498D01*
X112587506Y-75581463D01*
X112490815Y-75660815D01*
X112411463Y-75757506D01*
X112352498Y-75867820D01*
X112316188Y-75987518D01*
X112303928Y-76112000D01*
X105976172Y-76112000D01*
X106075932Y-75871158D01*
X106133000Y-75584260D01*
X106133000Y-75291740D01*
X106075932Y-75004842D01*
X105963990Y-74734589D01*
X105801475Y-74491368D01*
X105752319Y-74442212D01*
X129421000Y-74442212D01*
X129421000Y-74665788D01*
X129464617Y-74885067D01*
X129550176Y-75091624D01*
X129674388Y-75277520D01*
X129832480Y-75435612D01*
X129934830Y-75504000D01*
X129832480Y-75572388D01*
X129674388Y-75730480D01*
X129550176Y-75916376D01*
X129464617Y-76122933D01*
X129421000Y-76342212D01*
X129421000Y-76565788D01*
X129464617Y-76785067D01*
X129550176Y-76991624D01*
X129674388Y-77177520D01*
X129832480Y-77335612D01*
X130018376Y-77459824D01*
X130224933Y-77545383D01*
X130444212Y-77589000D01*
X130667788Y-77589000D01*
X130887067Y-77545383D01*
X131093624Y-77459824D01*
X131279520Y-77335612D01*
X131437612Y-77177520D01*
X131561824Y-76991624D01*
X131647383Y-76785067D01*
X131691000Y-76565788D01*
X131691000Y-76342212D01*
X131647383Y-76122933D01*
X131561824Y-75916376D01*
X131454687Y-75756033D01*
X136889122Y-75756033D01*
X136889122Y-75940211D01*
X136925054Y-76120851D01*
X136995536Y-76291011D01*
X137097860Y-76444150D01*
X137228094Y-76574384D01*
X137381233Y-76676708D01*
X137551393Y-76747190D01*
X137732033Y-76783122D01*
X137916211Y-76783122D01*
X138096851Y-76747190D01*
X138267011Y-76676708D01*
X138420150Y-76574384D01*
X138550384Y-76444150D01*
X138652708Y-76291011D01*
X138723190Y-76120851D01*
X138759122Y-75940211D01*
X138759122Y-75756033D01*
X138723190Y-75575393D01*
X138652708Y-75405233D01*
X138620844Y-75357546D01*
X138719569Y-75337908D01*
X138889729Y-75267426D01*
X139042868Y-75165102D01*
X139173102Y-75034868D01*
X139275426Y-74881729D01*
X139345908Y-74711569D01*
X139381840Y-74530929D01*
X139381840Y-74346751D01*
X139345908Y-74166111D01*
X139275426Y-73995951D01*
X139173102Y-73842812D01*
X139042868Y-73712578D01*
X138889729Y-73610254D01*
X138719569Y-73539772D01*
X138538929Y-73503840D01*
X138354751Y-73503840D01*
X138174111Y-73539772D01*
X138003951Y-73610254D01*
X137850812Y-73712578D01*
X137720578Y-73842812D01*
X137618254Y-73995951D01*
X137547772Y-74166111D01*
X137511840Y-74346751D01*
X137511840Y-74530929D01*
X137547772Y-74711569D01*
X137618254Y-74881729D01*
X137650118Y-74929416D01*
X137551393Y-74949054D01*
X137381233Y-75019536D01*
X137228094Y-75121860D01*
X137097860Y-75252094D01*
X136995536Y-75405233D01*
X136925054Y-75575393D01*
X136889122Y-75756033D01*
X131454687Y-75756033D01*
X131437612Y-75730480D01*
X131279520Y-75572388D01*
X131177170Y-75504000D01*
X131279520Y-75435612D01*
X131437612Y-75277520D01*
X131561824Y-75091624D01*
X131647383Y-74885067D01*
X131691000Y-74665788D01*
X131691000Y-74442212D01*
X131647383Y-74222933D01*
X131561824Y-74016376D01*
X131437612Y-73830480D01*
X131279520Y-73672388D01*
X131093624Y-73548176D01*
X131070955Y-73538786D01*
X133909865Y-73538786D01*
X133909865Y-73722964D01*
X133945797Y-73903604D01*
X134016279Y-74073764D01*
X134118603Y-74226903D01*
X134248837Y-74357137D01*
X134401976Y-74459461D01*
X134572136Y-74529943D01*
X134752776Y-74565875D01*
X134936954Y-74565875D01*
X135117594Y-74529943D01*
X135164305Y-74510595D01*
X135293972Y-74640262D01*
X135447111Y-74742586D01*
X135617271Y-74813068D01*
X135797911Y-74849000D01*
X135982089Y-74849000D01*
X136162729Y-74813068D01*
X136332889Y-74742586D01*
X136486028Y-74640262D01*
X136616262Y-74510028D01*
X136718586Y-74356889D01*
X136789068Y-74186729D01*
X136825000Y-74006089D01*
X136825000Y-73821911D01*
X136789068Y-73641271D01*
X136718586Y-73471111D01*
X136616262Y-73317972D01*
X136486028Y-73187738D01*
X136332889Y-73085414D01*
X136162729Y-73014932D01*
X135982089Y-72979000D01*
X135797911Y-72979000D01*
X135617271Y-73014932D01*
X135570560Y-73034280D01*
X135440893Y-72904613D01*
X135287754Y-72802289D01*
X135117594Y-72731807D01*
X134936954Y-72695875D01*
X134752776Y-72695875D01*
X134572136Y-72731807D01*
X134401976Y-72802289D01*
X134248837Y-72904613D01*
X134118603Y-73034847D01*
X134016279Y-73187986D01*
X133945797Y-73358146D01*
X133909865Y-73538786D01*
X131070955Y-73538786D01*
X130887067Y-73462617D01*
X130667788Y-73419000D01*
X130444212Y-73419000D01*
X130224933Y-73462617D01*
X130018376Y-73548176D01*
X129832480Y-73672388D01*
X129674388Y-73830480D01*
X129550176Y-74016376D01*
X129464617Y-74222933D01*
X129421000Y-74442212D01*
X105752319Y-74442212D01*
X105594632Y-74284525D01*
X105420240Y-74168000D01*
X105594632Y-74051475D01*
X105801475Y-73844632D01*
X105963990Y-73601411D01*
X106075932Y-73331158D01*
X106133000Y-73044260D01*
X106133000Y-72751740D01*
X106075932Y-72464842D01*
X105963990Y-72194589D01*
X105801475Y-71951368D01*
X105594632Y-71744525D01*
X105351411Y-71582010D01*
X105240118Y-71535911D01*
X111587000Y-71535911D01*
X111587000Y-71720089D01*
X111622932Y-71900729D01*
X111693414Y-72070889D01*
X111795738Y-72224028D01*
X111925972Y-72354262D01*
X112079111Y-72456586D01*
X112249271Y-72527068D01*
X112429911Y-72563000D01*
X112614089Y-72563000D01*
X112794729Y-72527068D01*
X112964889Y-72456586D01*
X113118028Y-72354262D01*
X113248262Y-72224028D01*
X113350586Y-72070889D01*
X113421068Y-71900729D01*
X113421837Y-71896859D01*
X126888873Y-71896859D01*
X126888873Y-72090887D01*
X126926726Y-72281187D01*
X127000977Y-72460445D01*
X127108774Y-72621774D01*
X127245972Y-72758972D01*
X127407301Y-72866769D01*
X127586559Y-72941020D01*
X127776859Y-72978873D01*
X127970887Y-72978873D01*
X128161187Y-72941020D01*
X128340445Y-72866769D01*
X128501774Y-72758972D01*
X128638972Y-72621774D01*
X128746769Y-72460445D01*
X128821020Y-72281187D01*
X128858873Y-72090887D01*
X128858873Y-71896859D01*
X128821020Y-71706559D01*
X128746769Y-71527301D01*
X128638972Y-71365972D01*
X128549986Y-71276986D01*
X136683000Y-71276986D01*
X136683000Y-71471014D01*
X136720853Y-71661314D01*
X136795104Y-71840572D01*
X136902901Y-72001901D01*
X137040099Y-72139099D01*
X137201428Y-72246896D01*
X137380686Y-72321147D01*
X137570986Y-72359000D01*
X137765014Y-72359000D01*
X137955314Y-72321147D01*
X138134572Y-72246896D01*
X138295901Y-72139099D01*
X138433099Y-72001901D01*
X138540896Y-71840572D01*
X138615147Y-71661314D01*
X138653000Y-71471014D01*
X138653000Y-71276986D01*
X138642240Y-71222890D01*
X140544524Y-71222890D01*
X140589175Y-71370099D01*
X140714359Y-71632920D01*
X140888412Y-71866269D01*
X141104645Y-72061178D01*
X141354748Y-72210157D01*
X141629109Y-72307481D01*
X141859000Y-72186814D01*
X141859000Y-70993000D01*
X140665845Y-70993000D01*
X140544524Y-71222890D01*
X138642240Y-71222890D01*
X138615147Y-71086686D01*
X138540896Y-70907428D01*
X138433099Y-70746099D01*
X138295901Y-70608901D01*
X138134572Y-70501104D01*
X137955314Y-70426853D01*
X137765014Y-70389000D01*
X137570986Y-70389000D01*
X137380686Y-70426853D01*
X137201428Y-70501104D01*
X137040099Y-70608901D01*
X136902901Y-70746099D01*
X136795104Y-70907428D01*
X136720853Y-71086686D01*
X136683000Y-71276986D01*
X128549986Y-71276986D01*
X128501774Y-71228774D01*
X128340445Y-71120977D01*
X128161187Y-71046726D01*
X127970887Y-71008873D01*
X127776859Y-71008873D01*
X127586559Y-71046726D01*
X127407301Y-71120977D01*
X127245972Y-71228774D01*
X127108774Y-71365972D01*
X127000977Y-71527301D01*
X126926726Y-71706559D01*
X126888873Y-71896859D01*
X113421837Y-71896859D01*
X113457000Y-71720089D01*
X113457000Y-71535911D01*
X113421068Y-71355271D01*
X113350586Y-71185111D01*
X113248262Y-71031972D01*
X113118028Y-70901738D01*
X112964889Y-70799414D01*
X112794729Y-70728932D01*
X112614089Y-70693000D01*
X112429911Y-70693000D01*
X112249271Y-70728932D01*
X112079111Y-70799414D01*
X111925972Y-70901738D01*
X111795738Y-71031972D01*
X111693414Y-71185111D01*
X111622932Y-71355271D01*
X111587000Y-71535911D01*
X105240118Y-71535911D01*
X105081158Y-71470068D01*
X104794260Y-71413000D01*
X104501740Y-71413000D01*
X104214842Y-71470068D01*
X103944589Y-71582010D01*
X103834000Y-71655903D01*
X103834000Y-69304609D01*
X104289997Y-69304609D01*
X104476073Y-69645766D01*
X104893409Y-69861513D01*
X105344815Y-69991696D01*
X105812946Y-70031313D01*
X106279811Y-69978842D01*
X106727468Y-69836297D01*
X107083927Y-69645766D01*
X107270003Y-69304609D01*
X107215306Y-69249911D01*
X111587000Y-69249911D01*
X111587000Y-69434089D01*
X111622932Y-69614729D01*
X111693414Y-69784889D01*
X111795738Y-69938028D01*
X111925972Y-70068262D01*
X112079111Y-70170586D01*
X112249271Y-70241068D01*
X112429911Y-70277000D01*
X112614089Y-70277000D01*
X112794729Y-70241068D01*
X112964889Y-70170586D01*
X113118028Y-70068262D01*
X113248262Y-69938028D01*
X113350586Y-69784889D01*
X113401943Y-69660900D01*
X113459557Y-69799992D01*
X113594713Y-70002267D01*
X113766733Y-70174287D01*
X113969008Y-70309443D01*
X114193764Y-70402540D01*
X114432363Y-70450000D01*
X114675637Y-70450000D01*
X114914236Y-70402540D01*
X115138992Y-70309443D01*
X115341267Y-70174287D01*
X115513287Y-70002267D01*
X115648443Y-69799992D01*
X115697000Y-69682765D01*
X115745557Y-69799992D01*
X115880713Y-70002267D01*
X116052733Y-70174287D01*
X116255008Y-70309443D01*
X116479764Y-70402540D01*
X116718363Y-70450000D01*
X116961637Y-70450000D01*
X117200236Y-70402540D01*
X117424992Y-70309443D01*
X117627267Y-70174287D01*
X117799287Y-70002267D01*
X117934443Y-69799992D01*
X118027540Y-69575236D01*
X118046500Y-69479917D01*
X118065460Y-69575236D01*
X118158557Y-69799992D01*
X118293713Y-70002267D01*
X118465733Y-70174287D01*
X118668008Y-70309443D01*
X118892764Y-70402540D01*
X119131363Y-70450000D01*
X119374637Y-70450000D01*
X119613236Y-70402540D01*
X119837992Y-70309443D01*
X120040267Y-70174287D01*
X120212287Y-70002267D01*
X120347443Y-69799992D01*
X120440540Y-69575236D01*
X120488000Y-69336637D01*
X120488000Y-69093363D01*
X120440540Y-68854764D01*
X120347443Y-68630008D01*
X120337356Y-68614911D01*
X125049000Y-68614911D01*
X125049000Y-68799089D01*
X125084932Y-68979729D01*
X125155414Y-69149889D01*
X125257738Y-69303028D01*
X125387972Y-69433262D01*
X125541111Y-69535586D01*
X125711271Y-69606068D01*
X125891911Y-69642000D01*
X126076089Y-69642000D01*
X126256729Y-69606068D01*
X126426889Y-69535586D01*
X126580028Y-69433262D01*
X126710262Y-69303028D01*
X126812586Y-69149889D01*
X126883068Y-68979729D01*
X126919000Y-68799089D01*
X126919000Y-68614911D01*
X126883068Y-68434271D01*
X126812586Y-68264111D01*
X126710262Y-68110972D01*
X126580028Y-67980738D01*
X126426889Y-67878414D01*
X126256729Y-67807932D01*
X126076089Y-67772000D01*
X125891911Y-67772000D01*
X125711271Y-67807932D01*
X125541111Y-67878414D01*
X125387972Y-67980738D01*
X125257738Y-68110972D01*
X125155414Y-68264111D01*
X125084932Y-68434271D01*
X125049000Y-68614911D01*
X120337356Y-68614911D01*
X120212287Y-68427733D01*
X120040267Y-68255713D01*
X119837992Y-68120557D01*
X119613236Y-68027460D01*
X119374637Y-67980000D01*
X119131363Y-67980000D01*
X118892764Y-68027460D01*
X118668008Y-68120557D01*
X118465733Y-68255713D01*
X118293713Y-68427733D01*
X118158557Y-68630008D01*
X118065460Y-68854764D01*
X118046500Y-68950083D01*
X118027540Y-68854764D01*
X117934443Y-68630008D01*
X117799287Y-68427733D01*
X117627267Y-68255713D01*
X117424992Y-68120557D01*
X117200236Y-68027460D01*
X116961637Y-67980000D01*
X116718363Y-67980000D01*
X116479764Y-68027460D01*
X116255008Y-68120557D01*
X116052733Y-68255713D01*
X115880713Y-68427733D01*
X115745557Y-68630008D01*
X115697000Y-68747235D01*
X115648443Y-68630008D01*
X115513287Y-68427733D01*
X115341267Y-68255713D01*
X115138992Y-68120557D01*
X114914236Y-68027460D01*
X114675637Y-67980000D01*
X114432363Y-67980000D01*
X114193764Y-68027460D01*
X113969008Y-68120557D01*
X113766733Y-68255713D01*
X113594713Y-68427733D01*
X113459557Y-68630008D01*
X113366460Y-68854764D01*
X113355351Y-68910614D01*
X113350586Y-68899111D01*
X113248262Y-68745972D01*
X113118028Y-68615738D01*
X112964889Y-68513414D01*
X112794729Y-68442932D01*
X112614089Y-68407000D01*
X112429911Y-68407000D01*
X112249271Y-68442932D01*
X112079111Y-68513414D01*
X111925972Y-68615738D01*
X111795738Y-68745972D01*
X111693414Y-68899111D01*
X111622932Y-69069271D01*
X111587000Y-69249911D01*
X107215306Y-69249911D01*
X105780000Y-67814605D01*
X104289997Y-69304609D01*
X103834000Y-69304609D01*
X103834000Y-68974252D01*
X104110391Y-69125003D01*
X105600395Y-67635000D01*
X105959605Y-67635000D01*
X107449609Y-69125003D01*
X107790766Y-68938927D01*
X108006513Y-68521591D01*
X108136696Y-68070185D01*
X108176313Y-67602054D01*
X108161687Y-67471911D01*
X127081000Y-67471911D01*
X127081000Y-67656089D01*
X127116932Y-67836729D01*
X127187414Y-68006889D01*
X127289738Y-68160028D01*
X127419972Y-68290262D01*
X127573111Y-68392586D01*
X127743271Y-68463068D01*
X127923911Y-68499000D01*
X128108089Y-68499000D01*
X128288729Y-68463068D01*
X128458889Y-68392586D01*
X128612028Y-68290262D01*
X128742262Y-68160028D01*
X128844586Y-68006889D01*
X128915068Y-67836729D01*
X128951000Y-67656089D01*
X128951000Y-67471911D01*
X128915068Y-67291271D01*
X128844586Y-67121111D01*
X128774606Y-67016377D01*
X134387502Y-67016377D01*
X134387502Y-67200555D01*
X134423434Y-67381195D01*
X134493916Y-67551355D01*
X134596240Y-67704494D01*
X134726474Y-67834728D01*
X134879613Y-67937052D01*
X135049773Y-68007534D01*
X135230413Y-68043466D01*
X135414591Y-68043466D01*
X135595231Y-68007534D01*
X135765391Y-67937052D01*
X135918530Y-67834728D01*
X136048764Y-67704494D01*
X136151088Y-67551355D01*
X136204388Y-67422678D01*
X136309972Y-67528262D01*
X136463111Y-67630586D01*
X136633271Y-67701068D01*
X136813911Y-67737000D01*
X136998089Y-67737000D01*
X137178729Y-67701068D01*
X137330350Y-67638265D01*
X137433395Y-67680947D01*
X137614035Y-67716879D01*
X137798213Y-67716879D01*
X137978853Y-67680947D01*
X138149013Y-67610465D01*
X138302152Y-67508141D01*
X138432386Y-67377907D01*
X138534710Y-67224768D01*
X138605192Y-67054608D01*
X138641124Y-66873968D01*
X138641124Y-66689790D01*
X138605192Y-66509150D01*
X138534710Y-66338990D01*
X138432386Y-66185851D01*
X138302152Y-66055617D01*
X138149013Y-65953293D01*
X137978853Y-65882811D01*
X137798213Y-65846879D01*
X137614035Y-65846879D01*
X137433395Y-65882811D01*
X137281774Y-65945614D01*
X137178729Y-65902932D01*
X136998089Y-65867000D01*
X136813911Y-65867000D01*
X136731926Y-65883308D01*
X136718586Y-65851101D01*
X136616262Y-65697962D01*
X136486028Y-65567728D01*
X136332889Y-65465404D01*
X136162729Y-65394922D01*
X135982089Y-65358990D01*
X135797911Y-65358990D01*
X135617271Y-65394922D01*
X135447111Y-65465404D01*
X135293972Y-65567728D01*
X135163738Y-65697962D01*
X135061414Y-65851101D01*
X134990932Y-66021261D01*
X134955000Y-66201901D01*
X134955000Y-66248654D01*
X134879613Y-66279880D01*
X134726474Y-66382204D01*
X134596240Y-66512438D01*
X134493916Y-66665577D01*
X134423434Y-66835737D01*
X134387502Y-67016377D01*
X128774606Y-67016377D01*
X128742262Y-66967972D01*
X128612028Y-66837738D01*
X128458889Y-66735414D01*
X128288729Y-66664932D01*
X128108089Y-66629000D01*
X127923911Y-66629000D01*
X127743271Y-66664932D01*
X127573111Y-66735414D01*
X127419972Y-66837738D01*
X127289738Y-66967972D01*
X127187414Y-67121111D01*
X127116932Y-67291271D01*
X127081000Y-67471911D01*
X108161687Y-67471911D01*
X108123842Y-67135189D01*
X107981297Y-66687532D01*
X107790766Y-66331073D01*
X107449609Y-66144997D01*
X105959605Y-67635000D01*
X105600395Y-67635000D01*
X104110391Y-66144997D01*
X103834000Y-66295748D01*
X103834000Y-65965391D01*
X104289997Y-65965391D01*
X105780000Y-67455395D01*
X107270003Y-65965391D01*
X107083927Y-65624234D01*
X106727377Y-65439911D01*
X121239000Y-65439911D01*
X121239000Y-65624089D01*
X121274932Y-65804729D01*
X121345414Y-65974889D01*
X121447738Y-66128028D01*
X121577972Y-66258262D01*
X121731111Y-66360586D01*
X121901271Y-66431068D01*
X122081911Y-66467000D01*
X122266089Y-66467000D01*
X122446729Y-66431068D01*
X122616889Y-66360586D01*
X122770028Y-66258262D01*
X122900262Y-66128028D01*
X123002586Y-65974889D01*
X123073068Y-65804729D01*
X123109000Y-65624089D01*
X123109000Y-65439911D01*
X123073068Y-65259271D01*
X123025730Y-65144986D01*
X124745000Y-65144986D01*
X124745000Y-65339014D01*
X124782853Y-65529314D01*
X124857104Y-65708572D01*
X124964901Y-65869901D01*
X125102099Y-66007099D01*
X125263428Y-66114896D01*
X125442686Y-66189147D01*
X125632986Y-66227000D01*
X125827014Y-66227000D01*
X126017314Y-66189147D01*
X126196572Y-66114896D01*
X126357901Y-66007099D01*
X126495099Y-65869901D01*
X126602896Y-65708572D01*
X126677147Y-65529314D01*
X126715000Y-65339014D01*
X126715000Y-65144986D01*
X126677147Y-64954686D01*
X126602896Y-64775428D01*
X126495099Y-64614099D01*
X126357901Y-64476901D01*
X126196572Y-64369104D01*
X126017314Y-64294853D01*
X125827014Y-64257000D01*
X125632986Y-64257000D01*
X125442686Y-64294853D01*
X125263428Y-64369104D01*
X125102099Y-64476901D01*
X124964901Y-64614099D01*
X124857104Y-64775428D01*
X124782853Y-64954686D01*
X124745000Y-65144986D01*
X123025730Y-65144986D01*
X123002586Y-65089111D01*
X122900262Y-64935972D01*
X122770028Y-64805738D01*
X122616889Y-64703414D01*
X122446729Y-64632932D01*
X122266089Y-64597000D01*
X122081911Y-64597000D01*
X121901271Y-64632932D01*
X121731111Y-64703414D01*
X121577972Y-64805738D01*
X121447738Y-64935972D01*
X121345414Y-65089111D01*
X121274932Y-65259271D01*
X121239000Y-65439911D01*
X106727377Y-65439911D01*
X106666591Y-65408487D01*
X106215185Y-65278304D01*
X105747054Y-65238687D01*
X105280189Y-65291158D01*
X104832532Y-65433703D01*
X104476073Y-65624234D01*
X104289997Y-65965391D01*
X103834000Y-65965391D01*
X103834000Y-62933531D01*
X106999389Y-62933531D01*
X107041401Y-63223019D01*
X107139081Y-63498747D01*
X107212528Y-63636157D01*
X107461603Y-63713792D01*
X108310395Y-62865000D01*
X107461603Y-62016208D01*
X107212528Y-62093843D01*
X107086629Y-62357883D01*
X107014661Y-62641411D01*
X106999389Y-62933531D01*
X103834000Y-62933531D01*
X103834000Y-60218740D01*
X107005000Y-60218740D01*
X107005000Y-60511260D01*
X107062068Y-60798158D01*
X107174010Y-61068411D01*
X107336525Y-61311632D01*
X107543368Y-61518475D01*
X107706410Y-61627416D01*
X107641208Y-61836603D01*
X108490000Y-62685395D01*
X108504143Y-62671253D01*
X108683748Y-62850858D01*
X108669605Y-62865000D01*
X108683748Y-62879143D01*
X108504143Y-63058748D01*
X108490000Y-63044605D01*
X107641208Y-63893397D01*
X107718843Y-64142472D01*
X107982883Y-64268371D01*
X108266411Y-64340339D01*
X108558531Y-64355611D01*
X108848019Y-64313599D01*
X109123747Y-64215919D01*
X109199850Y-64175241D01*
X109285506Y-64245537D01*
X109395820Y-64304502D01*
X109515518Y-64340812D01*
X109640000Y-64353072D01*
X111340000Y-64353072D01*
X111464482Y-64340812D01*
X111584180Y-64304502D01*
X111694494Y-64245537D01*
X111791185Y-64166185D01*
X111870537Y-64069494D01*
X111929502Y-63959180D01*
X111965812Y-63839482D01*
X111978072Y-63715000D01*
X111978072Y-62015000D01*
X111965812Y-61890518D01*
X111929502Y-61770820D01*
X111870537Y-61660506D01*
X111791185Y-61563815D01*
X111694494Y-61484463D01*
X111584180Y-61425498D01*
X111542310Y-61412797D01*
X111643475Y-61311632D01*
X111805990Y-61068411D01*
X111917932Y-60798158D01*
X111975000Y-60511260D01*
X111975000Y-60341911D01*
X119715000Y-60341911D01*
X119715000Y-60526089D01*
X119750932Y-60706729D01*
X119821414Y-60876889D01*
X119923738Y-61030028D01*
X120053972Y-61160262D01*
X120207111Y-61262586D01*
X120282074Y-61293636D01*
X120177738Y-61397972D01*
X120075414Y-61551111D01*
X120004932Y-61721271D01*
X119969000Y-61901911D01*
X119969000Y-62086089D01*
X120004932Y-62266729D01*
X120075414Y-62436889D01*
X120177738Y-62590028D01*
X120307972Y-62720262D01*
X120461111Y-62822586D01*
X120631271Y-62893068D01*
X120811911Y-62929000D01*
X120996089Y-62929000D01*
X121176729Y-62893068D01*
X121346889Y-62822586D01*
X121500028Y-62720262D01*
X121579304Y-62640986D01*
X124744994Y-62640986D01*
X124744994Y-62835014D01*
X124782847Y-63025314D01*
X124857098Y-63204572D01*
X124964895Y-63365901D01*
X125102093Y-63503099D01*
X125263422Y-63610896D01*
X125442680Y-63685147D01*
X125632980Y-63723000D01*
X125827008Y-63723000D01*
X126017308Y-63685147D01*
X126196566Y-63610896D01*
X126357895Y-63503099D01*
X126495093Y-63365901D01*
X126526431Y-63319000D01*
X126594861Y-63319000D01*
X126775501Y-63283068D01*
X126945661Y-63212586D01*
X127098800Y-63110262D01*
X127229034Y-62980028D01*
X127331358Y-62826889D01*
X127401840Y-62656729D01*
X127404787Y-62641911D01*
X128097006Y-62641911D01*
X128097006Y-62826089D01*
X128132938Y-63006729D01*
X128203420Y-63176889D01*
X128305744Y-63330028D01*
X128435978Y-63460262D01*
X128589117Y-63562586D01*
X128759277Y-63633068D01*
X128939917Y-63669000D01*
X129124095Y-63669000D01*
X129304735Y-63633068D01*
X129474895Y-63562586D01*
X129628034Y-63460262D01*
X129758268Y-63330028D01*
X129860592Y-63176889D01*
X129931074Y-63006729D01*
X129967006Y-62826089D01*
X129967006Y-62658794D01*
X136842987Y-62658794D01*
X136842987Y-62842972D01*
X136878919Y-63023612D01*
X136949401Y-63193772D01*
X137051725Y-63346911D01*
X137181959Y-63477145D01*
X137335098Y-63579469D01*
X137340534Y-63581721D01*
X137276932Y-63735271D01*
X137241000Y-63915911D01*
X137241000Y-64100089D01*
X137276932Y-64280729D01*
X137347414Y-64450889D01*
X137449738Y-64604028D01*
X137579972Y-64734262D01*
X137733111Y-64836586D01*
X137903271Y-64907068D01*
X138083911Y-64943000D01*
X138268089Y-64943000D01*
X138448729Y-64907068D01*
X138618889Y-64836586D01*
X138713239Y-64773544D01*
X138769689Y-64858028D01*
X138899923Y-64988262D01*
X139053062Y-65090586D01*
X139223222Y-65161068D01*
X139403862Y-65197000D01*
X139588040Y-65197000D01*
X139768680Y-65161068D01*
X139938840Y-65090586D01*
X140091979Y-64988262D01*
X140222213Y-64858028D01*
X140324537Y-64704889D01*
X140395019Y-64534729D01*
X140430951Y-64354089D01*
X140430951Y-64169911D01*
X140395019Y-63989271D01*
X140324537Y-63819111D01*
X140222213Y-63665972D01*
X140091979Y-63535738D01*
X139938840Y-63433414D01*
X139792335Y-63372730D01*
X139837068Y-63264735D01*
X139873000Y-63084095D01*
X139873000Y-62899917D01*
X139845597Y-62762156D01*
X139929544Y-62727384D01*
X140082683Y-62625060D01*
X140212917Y-62494826D01*
X140315241Y-62341687D01*
X140385723Y-62171527D01*
X140421655Y-61990887D01*
X140421655Y-61806709D01*
X140385723Y-61626069D01*
X140315241Y-61455909D01*
X140212917Y-61302770D01*
X140082683Y-61172536D01*
X139929544Y-61070212D01*
X139759384Y-60999730D01*
X139578744Y-60963798D01*
X139394566Y-60963798D01*
X139213926Y-60999730D01*
X139043766Y-61070212D01*
X138890627Y-61172536D01*
X138809260Y-61253903D01*
X138690852Y-61174785D01*
X138543600Y-61113792D01*
X138619909Y-60999587D01*
X138690391Y-60829427D01*
X138707260Y-60744622D01*
X138749111Y-60772586D01*
X138919271Y-60843068D01*
X139099911Y-60879000D01*
X139284089Y-60879000D01*
X139464729Y-60843068D01*
X139634889Y-60772586D01*
X139788028Y-60670262D01*
X139918262Y-60540028D01*
X140020586Y-60386889D01*
X140091068Y-60216729D01*
X140127000Y-60036089D01*
X140127000Y-59851911D01*
X140091068Y-59671271D01*
X140020586Y-59501111D01*
X139918262Y-59347972D01*
X139868252Y-59297962D01*
X139873000Y-59274095D01*
X139873000Y-59089917D01*
X139837068Y-58909277D01*
X139788489Y-58791997D01*
X139837068Y-58674716D01*
X139873000Y-58494076D01*
X139873000Y-58309898D01*
X139837068Y-58129258D01*
X139766586Y-57959098D01*
X139664262Y-57805959D01*
X139534028Y-57675725D01*
X139380889Y-57573401D01*
X139210729Y-57502919D01*
X139030089Y-57466987D01*
X138845911Y-57466987D01*
X138665271Y-57502919D01*
X138495111Y-57573401D01*
X138341972Y-57675725D01*
X138211738Y-57805959D01*
X138109414Y-57959098D01*
X138038932Y-58129258D01*
X138003000Y-58309898D01*
X138003000Y-58494076D01*
X138038932Y-58674716D01*
X138087511Y-58791996D01*
X138038932Y-58909277D01*
X138003000Y-59089917D01*
X138003000Y-59274095D01*
X138038932Y-59454735D01*
X138109414Y-59624895D01*
X138157016Y-59696137D01*
X138064052Y-59657630D01*
X137883412Y-59621698D01*
X137699234Y-59621698D01*
X137518594Y-59657630D01*
X137348434Y-59728112D01*
X137195295Y-59830436D01*
X137065061Y-59960670D01*
X136962737Y-60113809D01*
X136892255Y-60283969D01*
X136856323Y-60464609D01*
X136856323Y-60648787D01*
X136892255Y-60829427D01*
X136962737Y-60999587D01*
X137065061Y-61152726D01*
X137195295Y-61282960D01*
X137348434Y-61385284D01*
X137495686Y-61446277D01*
X137419377Y-61560482D01*
X137348895Y-61730642D01*
X137312963Y-61911282D01*
X137312963Y-61937087D01*
X137181959Y-62024621D01*
X137051725Y-62154855D01*
X136949401Y-62307994D01*
X136878919Y-62478154D01*
X136842987Y-62658794D01*
X129967006Y-62658794D01*
X129967006Y-62641911D01*
X129931074Y-62461271D01*
X129860592Y-62291111D01*
X129758268Y-62137972D01*
X129628034Y-62007738D01*
X129474895Y-61905414D01*
X129304735Y-61834932D01*
X129124095Y-61799000D01*
X128939917Y-61799000D01*
X128759277Y-61834932D01*
X128589117Y-61905414D01*
X128435978Y-62007738D01*
X128305744Y-62137972D01*
X128203420Y-62291111D01*
X128132938Y-62461271D01*
X128097006Y-62641911D01*
X127404787Y-62641911D01*
X127437772Y-62476089D01*
X127437772Y-62291911D01*
X127401840Y-62111271D01*
X127331358Y-61941111D01*
X127229034Y-61787972D01*
X127098800Y-61657738D01*
X126945661Y-61555414D01*
X126775501Y-61484932D01*
X126683501Y-61466632D01*
X126677147Y-61434690D01*
X126602896Y-61255432D01*
X126495099Y-61094103D01*
X126357901Y-60956905D01*
X126196572Y-60849108D01*
X126017314Y-60774857D01*
X125827014Y-60737004D01*
X125632986Y-60737004D01*
X125442686Y-60774857D01*
X125263428Y-60849108D01*
X125102099Y-60956905D01*
X124964901Y-61094103D01*
X124857104Y-61255432D01*
X124782853Y-61434690D01*
X124745000Y-61624990D01*
X124745000Y-61819018D01*
X124782853Y-62009318D01*
X124857104Y-62188576D01*
X124884781Y-62229998D01*
X124857098Y-62271428D01*
X124782847Y-62450686D01*
X124744994Y-62640986D01*
X121579304Y-62640986D01*
X121630262Y-62590028D01*
X121732586Y-62436889D01*
X121803068Y-62266729D01*
X121839000Y-62086089D01*
X121839000Y-61901911D01*
X121803068Y-61721271D01*
X121732586Y-61551111D01*
X121630262Y-61397972D01*
X121500028Y-61267738D01*
X121346889Y-61165414D01*
X121271926Y-61134364D01*
X121376262Y-61030028D01*
X121478586Y-60876889D01*
X121549068Y-60706729D01*
X121585000Y-60526089D01*
X121585000Y-60341911D01*
X121549068Y-60161271D01*
X121478586Y-59991111D01*
X121376262Y-59837972D01*
X121246028Y-59707738D01*
X121092889Y-59605414D01*
X120922729Y-59534932D01*
X120742089Y-59499000D01*
X120557911Y-59499000D01*
X120377271Y-59534932D01*
X120207111Y-59605414D01*
X120053972Y-59707738D01*
X119923738Y-59837972D01*
X119821414Y-59991111D01*
X119750932Y-60161271D01*
X119715000Y-60341911D01*
X111975000Y-60341911D01*
X111975000Y-60218740D01*
X111917932Y-59931842D01*
X111805990Y-59661589D01*
X111643475Y-59418368D01*
X111436632Y-59211525D01*
X111193411Y-59049010D01*
X110923158Y-58937068D01*
X110636260Y-58880000D01*
X110343740Y-58880000D01*
X110056842Y-58937068D01*
X109786589Y-59049010D01*
X109543368Y-59211525D01*
X109490000Y-59264893D01*
X109436632Y-59211525D01*
X109193411Y-59049010D01*
X108923158Y-58937068D01*
X108636260Y-58880000D01*
X108343740Y-58880000D01*
X108056842Y-58937068D01*
X107786589Y-59049010D01*
X107543368Y-59211525D01*
X107336525Y-59418368D01*
X107174010Y-59661589D01*
X107062068Y-59931842D01*
X107005000Y-60218740D01*
X103834000Y-60218740D01*
X103834000Y-58809411D01*
X126827000Y-58809411D01*
X126827000Y-58993589D01*
X126862932Y-59174229D01*
X126933414Y-59344389D01*
X127035738Y-59497528D01*
X127165972Y-59627762D01*
X127319111Y-59730086D01*
X127489271Y-59800568D01*
X127669911Y-59836500D01*
X127854089Y-59836500D01*
X128034729Y-59800568D01*
X128204889Y-59730086D01*
X128332129Y-59645067D01*
X128703157Y-59645067D01*
X128703157Y-59829245D01*
X128739089Y-60009885D01*
X128809571Y-60180045D01*
X128911895Y-60333184D01*
X129042129Y-60463418D01*
X129195268Y-60565742D01*
X129322540Y-60618459D01*
X129375257Y-60745731D01*
X129477581Y-60898870D01*
X129607815Y-61029104D01*
X129760954Y-61131428D01*
X129931114Y-61201910D01*
X130111754Y-61237842D01*
X130295932Y-61237842D01*
X130476572Y-61201910D01*
X130646732Y-61131428D01*
X130732389Y-61074194D01*
X130903686Y-61145147D01*
X131093986Y-61183000D01*
X131288014Y-61183000D01*
X131478314Y-61145147D01*
X131657572Y-61070896D01*
X131818901Y-60963099D01*
X131858013Y-60923988D01*
X131963129Y-61029104D01*
X132116268Y-61131428D01*
X132286428Y-61201910D01*
X132467068Y-61237842D01*
X132651246Y-61237842D01*
X132831886Y-61201910D01*
X133002046Y-61131428D01*
X133155185Y-61029104D01*
X133285419Y-60898870D01*
X133387743Y-60745731D01*
X133440460Y-60618459D01*
X133567732Y-60565742D01*
X133720871Y-60463418D01*
X133851105Y-60333184D01*
X133858747Y-60321747D01*
X133889165Y-60352165D01*
X133808234Y-60473287D01*
X133737752Y-60643447D01*
X133701820Y-60824087D01*
X133701820Y-61008265D01*
X133737752Y-61188905D01*
X133808234Y-61359065D01*
X133910558Y-61512204D01*
X134040792Y-61642438D01*
X134193931Y-61744762D01*
X134364091Y-61815244D01*
X134544731Y-61851176D01*
X134728909Y-61851176D01*
X134909549Y-61815244D01*
X135079709Y-61744762D01*
X135232848Y-61642438D01*
X135363082Y-61512204D01*
X135465406Y-61359065D01*
X135535888Y-61188905D01*
X135571820Y-61008265D01*
X135571820Y-60824087D01*
X135535888Y-60643447D01*
X135465406Y-60473287D01*
X135371001Y-60331999D01*
X135385099Y-60317901D01*
X135492896Y-60156572D01*
X135567147Y-59977314D01*
X135605000Y-59787014D01*
X135605000Y-59592986D01*
X135567147Y-59402686D01*
X135492896Y-59223428D01*
X135385099Y-59062099D01*
X135247901Y-58924901D01*
X135086572Y-58817104D01*
X134907314Y-58742853D01*
X134717014Y-58705000D01*
X134522986Y-58705000D01*
X134332686Y-58742853D01*
X134153428Y-58817104D01*
X133992099Y-58924901D01*
X133854901Y-59062099D01*
X133821726Y-59111749D01*
X133720871Y-59010894D01*
X133567732Y-58908570D01*
X133397572Y-58838088D01*
X133216932Y-58802156D01*
X133032754Y-58802156D01*
X132852114Y-58838088D01*
X132681954Y-58908570D01*
X132528815Y-59010894D01*
X132398581Y-59141128D01*
X132296257Y-59294267D01*
X132243540Y-59421539D01*
X132116268Y-59474256D01*
X131963129Y-59576580D01*
X131961511Y-59578198D01*
X131956099Y-59570099D01*
X131818901Y-59432901D01*
X131657572Y-59325104D01*
X131478314Y-59250853D01*
X131288014Y-59213000D01*
X131093986Y-59213000D01*
X130903686Y-59250853D01*
X130724428Y-59325104D01*
X130563099Y-59432901D01*
X130558352Y-59437648D01*
X130519460Y-59421539D01*
X130466743Y-59294267D01*
X130364419Y-59141128D01*
X130234185Y-59010894D01*
X130081046Y-58908570D01*
X129910886Y-58838088D01*
X129730246Y-58802156D01*
X129546068Y-58802156D01*
X129365428Y-58838088D01*
X129195268Y-58908570D01*
X129042129Y-59010894D01*
X128911895Y-59141128D01*
X128809571Y-59294267D01*
X128739089Y-59464427D01*
X128703157Y-59645067D01*
X128332129Y-59645067D01*
X128358028Y-59627762D01*
X128488262Y-59497528D01*
X128590586Y-59344389D01*
X128661068Y-59174229D01*
X128697000Y-58993589D01*
X128697000Y-58809411D01*
X128661068Y-58628771D01*
X128590586Y-58458611D01*
X128488262Y-58305472D01*
X128358028Y-58175238D01*
X128204889Y-58072914D01*
X128034729Y-58002432D01*
X127854089Y-57966500D01*
X127669911Y-57966500D01*
X127489271Y-58002432D01*
X127319111Y-58072914D01*
X127165972Y-58175238D01*
X127035738Y-58305472D01*
X126933414Y-58458611D01*
X126862932Y-58628771D01*
X126827000Y-58809411D01*
X103834000Y-58809411D01*
X103834000Y-57264609D01*
X104289997Y-57264609D01*
X104476073Y-57605766D01*
X104893409Y-57821513D01*
X105344815Y-57951696D01*
X105812946Y-57991313D01*
X106279811Y-57938842D01*
X106727468Y-57796297D01*
X107083927Y-57605766D01*
X107270003Y-57264609D01*
X105780000Y-55774605D01*
X104289997Y-57264609D01*
X103834000Y-57264609D01*
X103834000Y-56934252D01*
X104110391Y-57085003D01*
X105600395Y-55595000D01*
X105959605Y-55595000D01*
X107449609Y-57085003D01*
X107790766Y-56898927D01*
X107973740Y-56544986D01*
X112299000Y-56544986D01*
X112299000Y-56739014D01*
X112336853Y-56929314D01*
X112411104Y-57108572D01*
X112518901Y-57269901D01*
X112656099Y-57407099D01*
X112817428Y-57514896D01*
X112996686Y-57589147D01*
X113186986Y-57627000D01*
X113381014Y-57627000D01*
X113571314Y-57589147D01*
X113750572Y-57514896D01*
X113911901Y-57407099D01*
X114049099Y-57269901D01*
X114156896Y-57108572D01*
X114177880Y-57057911D01*
X121097000Y-57057911D01*
X121097000Y-57242089D01*
X121132932Y-57422729D01*
X121203414Y-57592889D01*
X121305738Y-57746028D01*
X121435972Y-57876262D01*
X121589111Y-57978586D01*
X121759271Y-58049068D01*
X121939911Y-58085000D01*
X122124089Y-58085000D01*
X122304729Y-58049068D01*
X122474889Y-57978586D01*
X122628028Y-57876262D01*
X122758262Y-57746028D01*
X122860586Y-57592889D01*
X122931068Y-57422729D01*
X122960529Y-57274619D01*
X123118349Y-57339990D01*
X123298989Y-57375922D01*
X123483167Y-57375922D01*
X123663807Y-57339990D01*
X123833967Y-57269508D01*
X123987106Y-57167184D01*
X124117340Y-57036950D01*
X124219664Y-56883811D01*
X124252759Y-56803911D01*
X130891000Y-56803911D01*
X130891000Y-56988089D01*
X130926932Y-57168729D01*
X130997414Y-57338889D01*
X131099738Y-57492028D01*
X131229972Y-57622262D01*
X131383111Y-57724586D01*
X131553271Y-57795068D01*
X131733911Y-57831000D01*
X131918089Y-57831000D01*
X132098729Y-57795068D01*
X132268889Y-57724586D01*
X132422028Y-57622262D01*
X132552262Y-57492028D01*
X132654586Y-57338889D01*
X132725068Y-57168729D01*
X132761000Y-56988089D01*
X132761000Y-56803911D01*
X132725068Y-56623271D01*
X132654586Y-56453111D01*
X132552262Y-56299972D01*
X132422028Y-56169738D01*
X132268889Y-56067414D01*
X132098729Y-55996932D01*
X131918089Y-55961000D01*
X131733911Y-55961000D01*
X131553271Y-55996932D01*
X131383111Y-56067414D01*
X131229972Y-56169738D01*
X131099738Y-56299972D01*
X130997414Y-56453111D01*
X130926932Y-56623271D01*
X130891000Y-56803911D01*
X124252759Y-56803911D01*
X124290146Y-56713651D01*
X124326078Y-56533011D01*
X124326078Y-56348833D01*
X124290146Y-56168193D01*
X124219664Y-55998033D01*
X124117340Y-55844894D01*
X123987106Y-55714660D01*
X123833967Y-55612336D01*
X123663807Y-55541854D01*
X123483167Y-55505922D01*
X123298989Y-55505922D01*
X123118349Y-55541854D01*
X122948189Y-55612336D01*
X122795050Y-55714660D01*
X122664816Y-55844894D01*
X122562492Y-55998033D01*
X122492010Y-56168193D01*
X122462549Y-56316303D01*
X122304729Y-56250932D01*
X122124089Y-56215000D01*
X121939911Y-56215000D01*
X121759271Y-56250932D01*
X121589111Y-56321414D01*
X121435972Y-56423738D01*
X121305738Y-56553972D01*
X121203414Y-56707111D01*
X121132932Y-56877271D01*
X121097000Y-57057911D01*
X114177880Y-57057911D01*
X114231147Y-56929314D01*
X114269000Y-56739014D01*
X114269000Y-56544986D01*
X114231147Y-56354686D01*
X114156896Y-56175428D01*
X114049099Y-56014099D01*
X113911901Y-55876901D01*
X113750572Y-55769104D01*
X113571314Y-55694853D01*
X113381014Y-55657000D01*
X113186986Y-55657000D01*
X112996686Y-55694853D01*
X112817428Y-55769104D01*
X112656099Y-55876901D01*
X112518901Y-56014099D01*
X112411104Y-56175428D01*
X112336853Y-56354686D01*
X112299000Y-56544986D01*
X107973740Y-56544986D01*
X108006513Y-56481591D01*
X108136696Y-56030185D01*
X108176313Y-55562054D01*
X108123842Y-55095189D01*
X107981297Y-54647532D01*
X107790766Y-54291073D01*
X107449609Y-54104997D01*
X105959605Y-55595000D01*
X105600395Y-55595000D01*
X104110391Y-54104997D01*
X103834000Y-54255748D01*
X103834000Y-53925391D01*
X104289997Y-53925391D01*
X105780000Y-55415395D01*
X107270003Y-53925391D01*
X107083927Y-53584234D01*
X106666591Y-53368487D01*
X106215185Y-53238304D01*
X105747054Y-53198687D01*
X105280189Y-53251158D01*
X104832532Y-53393703D01*
X104476073Y-53584234D01*
X104289997Y-53925391D01*
X103834000Y-53925391D01*
X103834000Y-50961911D01*
X116159000Y-50961911D01*
X116159000Y-51146089D01*
X116194932Y-51326729D01*
X116265414Y-51496889D01*
X116367738Y-51650028D01*
X116497972Y-51780262D01*
X116651111Y-51882586D01*
X116821271Y-51953068D01*
X117001911Y-51989000D01*
X117186089Y-51989000D01*
X117366729Y-51953068D01*
X117536889Y-51882586D01*
X117690028Y-51780262D01*
X117820262Y-51650028D01*
X117922586Y-51496889D01*
X117993068Y-51326729D01*
X118029000Y-51146089D01*
X118029000Y-50961911D01*
X117993068Y-50781271D01*
X117922586Y-50611111D01*
X117820262Y-50457972D01*
X117690028Y-50327738D01*
X117536889Y-50225414D01*
X117366729Y-50154932D01*
X117186089Y-50119000D01*
X117001911Y-50119000D01*
X116821271Y-50154932D01*
X116651111Y-50225414D01*
X116497972Y-50327738D01*
X116367738Y-50457972D01*
X116265414Y-50611111D01*
X116194932Y-50781271D01*
X116159000Y-50961911D01*
X103834000Y-50961911D01*
X103834000Y-48716000D01*
X119652891Y-48716000D01*
X119547036Y-48894022D01*
G37*
%TD.AperFunction*%
%TD*%
D23*
X126502772Y-62384000D03*
X120650000Y-60434000D03*
D24*
X134620000Y-59690000D03*
X125730000Y-61722004D03*
X125729994Y-62738000D03*
X131191000Y-60198000D03*
X127873873Y-71993873D03*
X116840000Y-69215000D03*
X114554000Y-69215000D03*
X119253000Y-69215000D03*
X138176000Y-87884000D03*
X133096000Y-53340000D03*
X137668000Y-71374000D03*
X113284000Y-56642000D03*
X125730000Y-65242000D03*
X131826000Y-62484000D03*
X122936000Y-62738000D03*
X122936000Y-61214000D03*
X128561611Y-71306135D03*
X138938000Y-83312000D03*
X129540000Y-54102000D03*
X120650000Y-63246000D03*
X133096000Y-85598000D03*
X137414000Y-73152000D03*
X135636000Y-69596000D03*
X132460077Y-73374824D03*
X122682000Y-58420000D03*
X122428000Y-64516000D03*
X136906000Y-54864000D03*
D23*
X127508000Y-54610000D03*
X117094000Y-51054000D03*
X131826000Y-56896000D03*
X125984000Y-54102000D03*
X122682000Y-54102000D03*
X127762000Y-58901500D03*
X123391078Y-56440922D03*
X138938000Y-59182006D03*
X138938000Y-58401987D03*
X122174000Y-65532000D03*
X112522000Y-69342000D03*
X112522000Y-71628000D03*
X128016000Y-67564000D03*
X125984000Y-68707000D03*
X129032006Y-62734000D03*
X134636820Y-60916176D03*
X133124843Y-59737156D03*
X132559157Y-60302842D03*
X130203843Y-60302842D03*
X129638157Y-59737156D03*
X137791323Y-60556698D03*
X137706124Y-66781879D03*
X137824122Y-75848122D03*
X138446840Y-74438840D03*
X138176000Y-64008000D03*
X135890000Y-66293990D03*
X136906000Y-66802000D03*
X139495951Y-64262000D03*
X138247963Y-62003371D03*
X137777987Y-62750883D03*
X138938000Y-62992006D03*
X134844865Y-73630875D03*
X139192000Y-59944000D03*
X135890000Y-73914000D03*
X135322502Y-67108466D03*
X140660021Y-67037456D03*
X139486655Y-61898798D03*
X122032000Y-57150000D03*
X120904000Y-61994000D03*
D24*
X141986000Y-63246000D03*
X141986000Y-65786000D03*
X141986000Y-68326000D03*
X141986000Y-70866000D03*
X130556000Y-74554000D03*
X130556000Y-76454000D03*
X126492000Y-79502000D03*
X126492000Y-76962000D03*
X123952000Y-79502000D03*
X123952000Y-76962000D03*
X121412000Y-79502000D03*
X121412000Y-76962000D03*
X118872000Y-79502000D03*
X118872000Y-76962000D03*
X116332000Y-79502000D03*
X116332000Y-76962000D03*
X113792000Y-79502000D03*
X113792000Y-76962000D03*
X104648000Y-88138000D03*
X104648000Y-85598000D03*
X104648000Y-83058000D03*
X104648000Y-80518000D03*
X104648000Y-77978000D03*
X104648000Y-75438000D03*
X104648000Y-72898000D03*
X120904000Y-52070000D03*
X120904000Y-49530000D03*
X123444000Y-52070000D03*
X123444000Y-49530000D03*
X125984000Y-52070000D03*
X125984000Y-49530000D03*
X128524000Y-52070000D03*
X128524000Y-49530000D03*
X131064000Y-52070000D03*
X131064000Y-49530000D03*
X138938000Y-50038000D03*
X141478000Y-50038000D03*
X110490000Y-62865000D03*
X110490000Y-60365000D03*
X108490000Y-60365000D03*
X108490000Y-62865000D03*
X105780000Y-67635000D03*
X105780000Y-55595000D03*
M02*
