%TF.GenerationSoftware,KiCad,Pcbnew,5.0.2*%
%TF.CreationDate,2019-03-11T08:20:50+08:00*%
%TF.ProjectId,elf2,656c6632-2e6b-4696-9361-645f70636258,rev?*%
%TF.SameCoordinates,Original*%
%TF.FileFunction,Copper,L4,Bot*%
%TF.FilePolarity,Positive*%
%FSLAX46Y46*%
G04 Gerber Fmt 4.6, Leading zero omitted, Abs format (unit mm)*
G04 Created by KiCad (PCBNEW 5.0.2) date 2019年03月11日 星期一 08时20分50秒*
%MOMM*%
%LPD*%
G01*
G04 APERTURE LIST*
%ADD10R,1.700000X1.700000*%
%ADD11O,1.700000X1.700000*%
%ADD12R,1.727200X1.727200*%
%ADD13O,1.727200X1.727200*%
%ADD14C,1.700000*%
%ADD15C,3.500000*%
%ADD16C,0.600000*%
%ADD17C,0.700000*%
%ADD18C,1.200000*%
%ADD19C,2.000000*%
%ADD20C,0.200000*%
%ADD21C,0.300000*%
%ADD22C,0.350000*%
G04 APERTURE END LIST*
D10*
X104648000Y-88138000D03*
D11*
X104648000Y-85598000D03*
X104648000Y-83058000D03*
X104648000Y-80518000D03*
X104648000Y-77978000D03*
X104648000Y-75438000D03*
X104648000Y-72898000D03*
D10*
X151130000Y-49784000D03*
D11*
X151130000Y-52324000D03*
X151130000Y-54864000D03*
X151130000Y-57404000D03*
D10*
X142748000Y-74930000D03*
D11*
X142748000Y-72390000D03*
X142748000Y-69850000D03*
X142748000Y-67310000D03*
X142748000Y-64770000D03*
X142748000Y-62230000D03*
D10*
X128524000Y-79756000D03*
D11*
X131064000Y-79756000D03*
X133604000Y-79756000D03*
X136144000Y-79756000D03*
X138684000Y-79756000D03*
X141224000Y-79756000D03*
D10*
X115824000Y-77216000D03*
D11*
X115824000Y-79756000D03*
X118364000Y-77216000D03*
X118364000Y-79756000D03*
X120904000Y-77216000D03*
X120904000Y-79756000D03*
X123444000Y-77216000D03*
X123444000Y-79756000D03*
D12*
X120904000Y-52070000D03*
D13*
X120904000Y-49530000D03*
X123444000Y-52070000D03*
X123444000Y-49530000D03*
X125984000Y-52070000D03*
X125984000Y-49530000D03*
X128524000Y-52070000D03*
X128524000Y-49530000D03*
X131064000Y-52070000D03*
X131064000Y-49530000D03*
D10*
X138430000Y-50038000D03*
D11*
X140970000Y-50038000D03*
D10*
X110490000Y-62865000D03*
D14*
X110490000Y-60365000D03*
X108490000Y-60365000D03*
X108490000Y-62865000D03*
D15*
X105780000Y-67635000D03*
X105780000Y-55595000D03*
D16*
X126502772Y-62384000D03*
X116332000Y-58928000D03*
D17*
X134620000Y-59690000D03*
X112014000Y-51308000D03*
X125730000Y-61722004D03*
X125730000Y-65242000D03*
X125729994Y-62738000D03*
X145796000Y-49276000D03*
X136652000Y-67310000D03*
X131191000Y-60198000D03*
X127873873Y-71993873D03*
D18*
X116840000Y-70485000D03*
D17*
X121285000Y-67818000D03*
X144272000Y-82677000D03*
D18*
X114554000Y-70485000D03*
X119253000Y-70485000D03*
D19*
X131826000Y-62484000D03*
D17*
X135636000Y-67310000D03*
X122936000Y-62738000D03*
X122936000Y-61214000D03*
D16*
X136629000Y-55095000D03*
D17*
X122936000Y-65024000D03*
X115316000Y-62992000D03*
X134874000Y-75946000D03*
X146050000Y-55626000D03*
X131064000Y-54356000D03*
X144145000Y-49784006D03*
X134747000Y-74168000D03*
X132156653Y-71397893D03*
X128561611Y-71306135D03*
X143764000Y-80645000D03*
X151257000Y-87249000D03*
D16*
X127762000Y-58901500D03*
X123391078Y-56440922D03*
X125984000Y-68707000D03*
X129032006Y-62734000D03*
X134620000Y-60706004D03*
X132870843Y-59737156D03*
X132305157Y-60302842D03*
X130203843Y-60302842D03*
X129638157Y-59737156D03*
X138176000Y-60833000D03*
X134395122Y-65180122D03*
X145034000Y-87249000D03*
X139781528Y-61168529D03*
X147447000Y-85471000D03*
X148717000Y-85471000D03*
X140208000Y-59817000D03*
X139446000Y-60452000D03*
X150114000Y-79502000D03*
X136017000Y-66294000D03*
X146431002Y-78486000D03*
X147293999Y-83566000D03*
X144399000Y-63246000D03*
D20*
X126502772Y-61532774D02*
X123897998Y-58928000D01*
X126502772Y-62384000D02*
X126502772Y-61532774D01*
X123897998Y-58928000D02*
X116332000Y-58928000D01*
X127762000Y-55372000D02*
X131064000Y-52070000D01*
X127762000Y-58901500D02*
X127762000Y-55372000D01*
X123391078Y-52122922D02*
X123444000Y-52070000D01*
X123391078Y-56440922D02*
X123391078Y-52122922D01*
X125984000Y-68707000D02*
X129032006Y-65658994D01*
X129032006Y-65658994D02*
X129032006Y-62734000D01*
X134620000Y-64135000D02*
X134620000Y-60706004D01*
X104648000Y-88138000D02*
X105698000Y-88138000D01*
X105698000Y-88138000D02*
X112268000Y-81568000D01*
X112268000Y-81568000D02*
X112268000Y-78567998D01*
X112268000Y-78567998D02*
X115905998Y-74930000D01*
X115905998Y-74930000D02*
X123825000Y-74930000D01*
X123825000Y-74930000D02*
X134620000Y-64135000D01*
X132870843Y-59737156D02*
X132870843Y-60019999D01*
X132870843Y-60019999D02*
X134240000Y-61389156D01*
X134240000Y-61389156D02*
X134240000Y-63908844D01*
X134240000Y-63908844D02*
X123598844Y-74550000D01*
X123598844Y-74550000D02*
X115724844Y-74550000D01*
X115724844Y-74550000D02*
X111888000Y-78386844D01*
X111888000Y-78386844D02*
X111888000Y-81307844D01*
X105718000Y-84528000D02*
X104648000Y-85598000D01*
X111888000Y-81307844D02*
X108667844Y-84528000D01*
X108667844Y-84528000D02*
X105718000Y-84528000D01*
X132588000Y-60302842D02*
X133840000Y-61554842D01*
X132305157Y-60302842D02*
X132588000Y-60302842D01*
X133840000Y-61554842D02*
X133840000Y-63743156D01*
X133840000Y-63743156D02*
X123433156Y-74150000D01*
X123433156Y-74150000D02*
X115559156Y-74150000D01*
X115559156Y-74150000D02*
X111488000Y-78221156D01*
X111488000Y-78221156D02*
X111488000Y-81142156D01*
X111488000Y-81142156D02*
X108502156Y-84128000D01*
X105718000Y-84128000D02*
X104648000Y-83058000D01*
X108502156Y-84128000D02*
X105718000Y-84128000D01*
X131474456Y-65531388D02*
X131474456Y-64643612D01*
X110114584Y-75842256D02*
X110682832Y-75274012D01*
X110114584Y-76125099D02*
X110086660Y-76090084D01*
X110397427Y-76407942D02*
X110114584Y-76125099D01*
X110421942Y-76432458D02*
X110397427Y-76407942D01*
X110500872Y-76531433D02*
X110421942Y-76432458D01*
X110555799Y-76645490D02*
X110500872Y-76531433D01*
X110583969Y-76768910D02*
X110555799Y-76645490D01*
X110500872Y-77132980D02*
X110555799Y-77018923D01*
X124669844Y-72336000D02*
X131474456Y-65531388D01*
X110682832Y-75274012D02*
X113620844Y-72336000D01*
X110273936Y-77359917D02*
X110372911Y-77280987D01*
X110086660Y-76090084D02*
X110067228Y-76049733D01*
X110036460Y-77443013D02*
X110159879Y-77414844D01*
X110086660Y-75877271D02*
X110114584Y-75842256D01*
X110421942Y-77231955D02*
X110500872Y-77132980D01*
X109573414Y-77280987D02*
X109672389Y-77359917D01*
X108342164Y-76077746D02*
X108382514Y-76097178D01*
X130038157Y-60468528D02*
X130203843Y-60302842D01*
X108253714Y-76067781D02*
X108298500Y-76067781D01*
X108169700Y-76097179D02*
X108210052Y-76077746D01*
X108134685Y-76125102D02*
X108169700Y-76097179D01*
X108087331Y-76200467D02*
X108106762Y-76160117D01*
X108077365Y-76288915D02*
X108077365Y-76244129D01*
X108106763Y-76372929D02*
X108087330Y-76332579D01*
X110159879Y-77414844D02*
X110273936Y-77359917D01*
X109909866Y-77443013D02*
X110036460Y-77443013D01*
X108134686Y-76407944D02*
X108106763Y-76372929D01*
X108558950Y-76832208D02*
X108134686Y-76407944D01*
X108700371Y-76973630D02*
X108558950Y-76832208D01*
X108700370Y-76973626D02*
X108700371Y-76973630D01*
X110583969Y-76895503D02*
X110583969Y-76768910D01*
X109266056Y-77539312D02*
X108700370Y-76973626D01*
X109290571Y-77563828D02*
X109266056Y-77539312D01*
X109369501Y-77662803D02*
X109290571Y-77563828D01*
X110057263Y-75961285D02*
X110067228Y-75917622D01*
X109452598Y-77900280D02*
X109424428Y-77776860D01*
X108077365Y-76244129D02*
X108087331Y-76200467D01*
X109424428Y-78150293D02*
X109452598Y-78026873D01*
X109369501Y-78264350D02*
X109424428Y-78150293D01*
X109290571Y-78363325D02*
X109369501Y-78264350D01*
X109142566Y-78491287D02*
X109241541Y-78412357D01*
X130038157Y-63207313D02*
X130038157Y-60468528D01*
X108905089Y-78574383D02*
X109028509Y-78546213D01*
X108778495Y-78574383D02*
X108905089Y-78574383D01*
X109452598Y-78026873D02*
X109452598Y-77900280D01*
X108541019Y-78491287D02*
X108655076Y-78546213D01*
X108210052Y-76077746D02*
X108253714Y-76067781D01*
X108442044Y-78412357D02*
X108541019Y-78491287D01*
X108059320Y-78057644D02*
X108099671Y-78077075D01*
X108015657Y-78047678D02*
X108059320Y-78057644D01*
X109672389Y-77359917D02*
X109786446Y-77414844D01*
X109028509Y-78546213D02*
X109142566Y-78491287D01*
X107970871Y-78047678D02*
X108015657Y-78047678D01*
X107927208Y-78057644D02*
X107970871Y-78047678D01*
X107886858Y-78077075D02*
X107927208Y-78057644D01*
X107851843Y-78104999D02*
X107886858Y-78077075D01*
X110057263Y-76006070D02*
X110057263Y-75961285D01*
X110067228Y-76049733D02*
X110057263Y-76006070D01*
X110372911Y-77280987D02*
X110421942Y-77231955D01*
X108298500Y-76067781D02*
X108342164Y-76077746D01*
X108106762Y-76160117D02*
X108134685Y-76125102D01*
X108655076Y-78546213D02*
X108778495Y-78574383D01*
X108087330Y-76332579D02*
X108077365Y-76288915D01*
X109786446Y-77414844D02*
X109909866Y-77443013D01*
X109241541Y-78412357D02*
X109290571Y-78363325D01*
X110067228Y-75917622D02*
X110086660Y-75877271D01*
X131474456Y-64643612D02*
X130038157Y-63207313D01*
X108099671Y-78077075D02*
X108134686Y-78104999D01*
X110555799Y-77018923D02*
X110583969Y-76895503D01*
X106508844Y-79448000D02*
X107851843Y-78104999D01*
X108417529Y-76125101D02*
X109573414Y-77280987D01*
X105718000Y-79448000D02*
X106508844Y-79448000D01*
X108382514Y-76097178D02*
X108417529Y-76125101D01*
X109424428Y-77776860D02*
X109369501Y-77662803D01*
X113620844Y-72336000D02*
X124669844Y-72336000D01*
X108134686Y-78104999D02*
X108442044Y-78412357D01*
X104648000Y-80518000D02*
X105718000Y-79448000D01*
X109831741Y-76973629D02*
X109866756Y-77001552D01*
X107665303Y-76329818D02*
X107665301Y-76203226D01*
X109011136Y-78069983D02*
X109030568Y-78029632D01*
X109728295Y-76284452D02*
X109673369Y-76170395D01*
X129638157Y-60595558D02*
X129623842Y-60581243D01*
X109030568Y-78029632D02*
X109040534Y-77985969D01*
X107693471Y-76453239D02*
X107665303Y-76329818D01*
X108462824Y-75683887D02*
X108576881Y-75738814D01*
X107748398Y-76567296D02*
X107693471Y-76453239D01*
X109030568Y-77897520D02*
X109011136Y-77857170D01*
X106343156Y-79048000D02*
X107593516Y-77797641D01*
X109040534Y-77941183D02*
X109030568Y-77897520D01*
X108700370Y-78104998D02*
X108735385Y-78132922D01*
X107806548Y-77663784D02*
X107929967Y-77635614D01*
X109040534Y-77985969D02*
X109040534Y-77941183D01*
X108907847Y-78152354D02*
X108948198Y-78132922D01*
X107876359Y-75817744D02*
X107975335Y-75738813D01*
X108819399Y-78162319D02*
X108864184Y-78162319D01*
X108775736Y-78152354D02*
X108819399Y-78162319D01*
X109645199Y-75920382D02*
X109673369Y-75796962D01*
X107692491Y-77718711D02*
X107806548Y-77663784D01*
X108700372Y-75842259D02*
X109831741Y-76973629D01*
X107693470Y-76079807D02*
X107748397Y-75965750D01*
X108393013Y-77797641D02*
X108700370Y-78104998D01*
X107929967Y-77635614D02*
X108056561Y-77635614D01*
X110142507Y-76938614D02*
X110161939Y-76898263D01*
X107827328Y-75866774D02*
X107876359Y-75817744D01*
X108089392Y-75683886D02*
X108212812Y-75655716D01*
X108056561Y-77635614D02*
X108179981Y-77663784D01*
X109673369Y-75796962D02*
X109728295Y-75682905D01*
X108294038Y-77718711D02*
X108393013Y-77797641D01*
X107665301Y-76203226D02*
X107693470Y-76079807D01*
X107593516Y-77797641D02*
X107692491Y-77718711D01*
X108576881Y-75738814D02*
X108675857Y-75817743D01*
X109011136Y-77857170D02*
X108983213Y-77822155D01*
X108735385Y-78132922D02*
X108775736Y-78152354D01*
X110039218Y-77020984D02*
X110079569Y-77001552D01*
X107975335Y-75738813D02*
X108089392Y-75683886D01*
X110079569Y-77001552D02*
X110114584Y-76973629D01*
X108212812Y-75655716D02*
X108339404Y-75655717D01*
X108675857Y-75817743D02*
X108700372Y-75842259D01*
X109866756Y-77001552D02*
X109907107Y-77020984D01*
X109950770Y-77030950D02*
X109995556Y-77030950D01*
X109995556Y-77030950D02*
X110039218Y-77020984D01*
X108983213Y-78104998D02*
X109011136Y-78069983D01*
X108179981Y-77663784D02*
X108294038Y-77718711D01*
X129638157Y-63373001D02*
X129638157Y-60595558D01*
X110161939Y-76766151D02*
X110142507Y-76725801D01*
X110114584Y-76973629D02*
X110142507Y-76938614D01*
X104648000Y-77978000D02*
X105718000Y-79048000D01*
X110161939Y-76898263D02*
X110171905Y-76854600D01*
X110171905Y-76809814D02*
X110161939Y-76766151D01*
X113455156Y-71936000D02*
X124504156Y-71936000D01*
X109728295Y-75682905D02*
X109807225Y-75583930D01*
X110171905Y-76854600D02*
X110171905Y-76809814D01*
X109907107Y-77020984D02*
X109950770Y-77030950D01*
X129638157Y-60010126D02*
X129638157Y-59737156D01*
X107748397Y-75965750D02*
X107827328Y-75866774D01*
X110114584Y-76690786D02*
X109807225Y-76383427D01*
X131074456Y-64809300D02*
X129638157Y-63373001D01*
X108983213Y-77822155D02*
X107827329Y-76666270D01*
X107827329Y-76666270D02*
X107748398Y-76567296D01*
X109673369Y-76170395D02*
X109645199Y-76046976D01*
X109645199Y-76046976D02*
X109645199Y-75920382D01*
X108948198Y-78132922D02*
X108983213Y-78104998D01*
X109807225Y-75583930D02*
X109831741Y-75559415D01*
X109831741Y-75559415D02*
X113455156Y-71936000D01*
X109807225Y-76383427D02*
X109728295Y-76284452D01*
X124504156Y-71936000D02*
X131074456Y-65365700D01*
X131074456Y-65365700D02*
X131074456Y-64809300D01*
X129623842Y-60581243D02*
X129623842Y-60024441D01*
X105718000Y-79048000D02*
X106343156Y-79048000D01*
X129623842Y-60024441D02*
X129638157Y-60010126D01*
X108864184Y-78162319D02*
X108907847Y-78152354D01*
X108339404Y-75655717D02*
X108462824Y-75683887D01*
X110142507Y-76725801D02*
X110114584Y-76690786D01*
X137876001Y-60533001D02*
X138176000Y-60833000D01*
X123825000Y-69088000D02*
X128016000Y-64897000D01*
X110998000Y-69088000D02*
X123825000Y-69088000D01*
X104648000Y-75438000D02*
X110998000Y-69088000D01*
X136382999Y-59039999D02*
X137876001Y-60533001D01*
X128016000Y-64897000D02*
X128016000Y-60297912D01*
X129273913Y-59039999D02*
X136382999Y-59039999D01*
X128016000Y-60297912D02*
X129273913Y-59039999D01*
X137326196Y-74296240D02*
X137265671Y-74267094D01*
X137524364Y-74296241D02*
X137458869Y-74311189D01*
X138769008Y-73333796D02*
X138703514Y-73318847D01*
X136543162Y-73462661D02*
X136477667Y-73447711D01*
X135761811Y-72614131D02*
X135694633Y-72614132D01*
X137584889Y-74267093D02*
X137524364Y-74296241D01*
X137637413Y-74225208D02*
X137584889Y-74267093D01*
X138598018Y-74205694D02*
X138612967Y-74140200D01*
X137184998Y-72132035D02*
X137226884Y-72079512D01*
X138510315Y-73362943D02*
X138457792Y-73404829D01*
X138636335Y-73318847D02*
X138570841Y-73333796D01*
X138829534Y-73362943D02*
X138769008Y-73333796D01*
X144968550Y-81318046D02*
X145004291Y-81261165D01*
X137142116Y-74112159D02*
X137127166Y-74046664D01*
X138882057Y-73404829D02*
X138829534Y-73362943D01*
X137609262Y-72556300D02*
X137199073Y-72966489D01*
X136278637Y-73198135D02*
X136278638Y-73130957D01*
X138953090Y-73517877D02*
X138923943Y-73457351D01*
X144921047Y-81365549D02*
X144968550Y-81318046D01*
X138968039Y-73583371D02*
X138953090Y-73517877D01*
X144384000Y-81431000D02*
X144734000Y-81431000D01*
X138968039Y-73650550D02*
X138968039Y-73583371D01*
X144317244Y-81438521D02*
X144384000Y-81431000D01*
X138953090Y-73716044D02*
X138968039Y-73650550D01*
X138882057Y-73829093D02*
X138923943Y-73776570D01*
X138684000Y-74027151D02*
X138882057Y-73829093D01*
X136322734Y-73004937D02*
X136364619Y-72952413D01*
X138047602Y-73815018D02*
X137637413Y-74225208D01*
X145034000Y-81131000D02*
X145034000Y-80801416D01*
X138598018Y-74272873D02*
X138598018Y-74205694D01*
X135445058Y-72415101D02*
X135430108Y-72349606D01*
X138612967Y-74338367D02*
X138598018Y-74272873D01*
X145864165Y-82060709D02*
X145800756Y-82038521D01*
X138684000Y-74451416D02*
X138642114Y-74398893D01*
X145034000Y-80801416D02*
X138684000Y-74451416D01*
X145334000Y-82631000D02*
X145734000Y-82631000D01*
X135430109Y-72282428D02*
X135445057Y-72216933D01*
X144864166Y-81401290D02*
X144921047Y-81365549D01*
X137132475Y-71665885D02*
X137071949Y-71636738D01*
X144800757Y-81423478D02*
X144864166Y-81401290D01*
X135827306Y-72599183D02*
X135761811Y-72614131D01*
X138642114Y-74079674D02*
X138684000Y-74027151D01*
X137213148Y-73800942D02*
X138033527Y-72980564D01*
X138119509Y-72734842D02*
X138104560Y-72669348D01*
X144734000Y-81431000D02*
X144800757Y-81423478D01*
X136477667Y-73447711D02*
X136417142Y-73418565D01*
X138642114Y-74398893D02*
X138612967Y-74338367D01*
X145004291Y-81261165D02*
X145026479Y-81197756D01*
X137127167Y-73979486D02*
X137142115Y-73913991D01*
X138923943Y-73457351D02*
X138882057Y-73404829D01*
X145203834Y-82660709D02*
X145267243Y-82638521D01*
X138612967Y-74140200D02*
X138642114Y-74079674D01*
X144253835Y-82001290D02*
X144196954Y-81965549D01*
X146026478Y-82397756D02*
X146034000Y-82331000D01*
X145099450Y-82743953D02*
X145146953Y-82696450D01*
X144091522Y-81797756D02*
X144084000Y-81731000D01*
X138033527Y-72980564D02*
X138075413Y-72928041D01*
X136138412Y-72330093D02*
X135940355Y-72528150D01*
X135694633Y-72614132D02*
X135629138Y-72599182D01*
X135714148Y-71905827D02*
X135756033Y-71853303D01*
X138570841Y-73333796D02*
X138510315Y-73362943D01*
X145734000Y-82031000D02*
X144384000Y-82031000D01*
X138703514Y-73318847D02*
X138636335Y-73318847D01*
X144091522Y-81664243D02*
X144113710Y-81600834D01*
X135756034Y-71534085D02*
X135714148Y-71481563D01*
X137458869Y-74311189D02*
X137391691Y-74311190D01*
X145864165Y-82601290D02*
X145921046Y-82565549D01*
X138457792Y-73404829D02*
X138047602Y-73815018D01*
X145968549Y-82143953D02*
X145921046Y-82096450D01*
X145800756Y-82623478D02*
X145864165Y-82601290D01*
X136675835Y-73447712D02*
X136610340Y-73462660D01*
X145267243Y-82638521D02*
X145334000Y-82631000D01*
X145968549Y-82518046D02*
X146004290Y-82461165D01*
X145034000Y-82931000D02*
X145041521Y-82864243D01*
X145041521Y-82864243D02*
X145063709Y-82800834D01*
X145921046Y-82096450D02*
X145864165Y-82060709D01*
X145034000Y-87249000D02*
X145034000Y-82931000D01*
X144113710Y-81861165D02*
X144091522Y-81797756D01*
X136788884Y-73376679D02*
X136736360Y-73418564D01*
X145734000Y-82631000D02*
X145800756Y-82623478D01*
X145063709Y-82800834D02*
X145099450Y-82743953D01*
X137661785Y-72514414D02*
X137609262Y-72556300D01*
X144113710Y-81600834D02*
X144149451Y-81543953D01*
X146034000Y-82331000D02*
X146026478Y-82264243D01*
X144084000Y-81731000D02*
X144091522Y-81664243D01*
X135516091Y-72528150D02*
X135474204Y-72475626D01*
X144196954Y-81496450D02*
X144253835Y-81460709D01*
X145146953Y-82696450D02*
X145203834Y-82660709D01*
X138033527Y-72556300D02*
X137981004Y-72514414D01*
X135516090Y-72103884D02*
X135714148Y-71905827D01*
X146004290Y-82461165D02*
X146026478Y-82397756D01*
X145921046Y-82565549D02*
X145968549Y-82518046D01*
X146004290Y-82200834D02*
X145968549Y-82143953D01*
X138923943Y-73776570D02*
X138953090Y-73716044D01*
X145026479Y-81197756D02*
X145034000Y-81131000D01*
X135887831Y-72570035D02*
X135827306Y-72599183D01*
X146026478Y-82264243D02*
X146004290Y-82200834D01*
X134395122Y-70162538D02*
X134395122Y-65180122D01*
X145800756Y-82038521D02*
X145734000Y-82031000D01*
X136736360Y-73418564D02*
X136675835Y-73447712D01*
X137391691Y-74311190D02*
X137326196Y-74296240D01*
X144384000Y-82031000D02*
X144317244Y-82023478D01*
X144253835Y-81460709D02*
X144317244Y-81438521D01*
X136364619Y-72952413D02*
X137184998Y-72132035D01*
X135474205Y-72156408D02*
X135516090Y-72103884D01*
X144317244Y-82023478D02*
X144253835Y-82001290D01*
X144196954Y-81965549D02*
X144149451Y-81918046D01*
X144149451Y-81918046D02*
X144113710Y-81861165D01*
X135568613Y-72570036D02*
X135516091Y-72528150D01*
X144149451Y-81543953D02*
X144196954Y-81496450D01*
X137265671Y-74267094D02*
X137213149Y-74225208D01*
X137213149Y-74225208D02*
X137171262Y-74172684D01*
X137171262Y-74172684D02*
X137142116Y-74112159D01*
X137127166Y-74046664D02*
X137127167Y-73979486D01*
X137142115Y-73913991D02*
X137171263Y-73853466D01*
X137171263Y-73853466D02*
X137213148Y-73800942D01*
X138075413Y-72928041D02*
X138104560Y-72867515D01*
X138104560Y-72867515D02*
X138119509Y-72802021D01*
X138119509Y-72802021D02*
X138119509Y-72734842D01*
X137981004Y-72514414D02*
X137920478Y-72485267D01*
X137226884Y-72079512D02*
X137256031Y-72018986D01*
X138104560Y-72669348D02*
X138075413Y-72608822D01*
X138075413Y-72608822D02*
X138033527Y-72556300D01*
X136293586Y-73065462D02*
X136322734Y-73004937D01*
X137920478Y-72485267D02*
X137854984Y-72470318D01*
X137854984Y-72470318D02*
X137787805Y-72470318D01*
X137787805Y-72470318D02*
X137722311Y-72485267D01*
X136293587Y-73263630D02*
X136278637Y-73198135D01*
X137722311Y-72485267D02*
X137661785Y-72514414D01*
X137199073Y-72966489D02*
X136788884Y-73376679D01*
X136610340Y-73462660D02*
X136543162Y-73462661D01*
X136417142Y-73418565D02*
X136364620Y-73376679D01*
X135800129Y-71727283D02*
X135800130Y-71660105D01*
X136364620Y-73376679D02*
X136322733Y-73324155D01*
X136322733Y-73324155D02*
X136293587Y-73263630D01*
X136278638Y-73130957D02*
X136293586Y-73065462D01*
X137256031Y-72018986D02*
X137270980Y-71953492D01*
X137270980Y-71953492D02*
X137270980Y-71886313D01*
X137270980Y-71886313D02*
X137256031Y-71820819D01*
X137256031Y-71820819D02*
X137226884Y-71760293D01*
X137226884Y-71760293D02*
X137184998Y-71707771D01*
X136760733Y-71707771D02*
X136138412Y-72330093D01*
X137184998Y-71707771D02*
X137132475Y-71665885D01*
X137071949Y-71636738D02*
X137006455Y-71621789D01*
X137006455Y-71621789D02*
X136939276Y-71621789D01*
X136939276Y-71621789D02*
X136873782Y-71636738D01*
X135445057Y-72216933D02*
X135474205Y-72156408D01*
X136873782Y-71636738D02*
X136813256Y-71665885D01*
X136813256Y-71665885D02*
X136760733Y-71707771D01*
X135940355Y-72528150D02*
X135887831Y-72570035D01*
X135629138Y-72599182D02*
X135568613Y-72570036D01*
X135474204Y-72475626D02*
X135445058Y-72415101D01*
X135430108Y-72349606D02*
X135430109Y-72282428D01*
X135756033Y-71853303D02*
X135785181Y-71792778D01*
X135785181Y-71792778D02*
X135800129Y-71727283D01*
X135800130Y-71660105D02*
X135785180Y-71594610D01*
X135785180Y-71594610D02*
X135756034Y-71534085D01*
X135714148Y-71481563D02*
X135445599Y-71213015D01*
X135445599Y-71213015D02*
X134395122Y-70162538D01*
X148336000Y-84582000D02*
X147447000Y-85471000D01*
X148336000Y-68515998D02*
X148336000Y-84582000D01*
X148166165Y-68245707D02*
X148223046Y-68281448D01*
X148102756Y-68223519D02*
X148166165Y-68245707D01*
X148036000Y-68215998D02*
X148102756Y-68223519D01*
X147645816Y-68215998D02*
X148036000Y-68215998D01*
X147579059Y-68208476D02*
X147645816Y-68215998D01*
X148270549Y-68328951D02*
X148306290Y-68385832D01*
X147515650Y-68186288D02*
X147579059Y-68208476D01*
X147411266Y-68103044D02*
X147458769Y-68150547D01*
X147353337Y-67849241D02*
X147345816Y-67915998D01*
X147375525Y-67785832D02*
X147353337Y-67849241D01*
X147458769Y-67681448D02*
X147411266Y-67728951D01*
X147579059Y-67623519D02*
X147515650Y-67645707D01*
X149026184Y-67615998D02*
X147645816Y-67615998D01*
X149156350Y-67586288D02*
X149092941Y-67608476D01*
X147411266Y-66528951D02*
X147375525Y-66585832D01*
X147515650Y-66445707D02*
X147458769Y-66481448D01*
X147645816Y-67615998D02*
X147579059Y-67623519D01*
X149092941Y-67023519D02*
X149156350Y-67045707D01*
X148306290Y-68385832D02*
X148328478Y-68449241D01*
X147375525Y-68046163D02*
X147411266Y-68103044D01*
X147579059Y-66423519D02*
X147515650Y-66445707D01*
X149156350Y-67045707D02*
X149213231Y-67081448D01*
X147645816Y-66415998D02*
X147579059Y-66423519D01*
X148102756Y-66408476D02*
X148036000Y-66415998D01*
X147411266Y-67728951D02*
X147375525Y-67785832D01*
X148223046Y-66350547D02*
X148166165Y-66386288D01*
X148223046Y-68281448D02*
X148270549Y-68328951D01*
X148306290Y-66246163D02*
X148270549Y-66303044D01*
X148328478Y-68449241D02*
X148336000Y-68515998D01*
X148336000Y-66115998D02*
X148328478Y-66182754D01*
X139781528Y-61168529D02*
X140081527Y-60868530D01*
X147345816Y-67915998D02*
X147353337Y-67982754D01*
X147515650Y-67645707D02*
X147458769Y-67681448D01*
X148166165Y-66386288D02*
X148102756Y-66408476D01*
X143088532Y-60868530D02*
X148336000Y-66115998D01*
X148328478Y-66182754D02*
X148306290Y-66246163D01*
X149213231Y-67550547D02*
X149156350Y-67586288D01*
X147375525Y-66585832D02*
X147353337Y-66649241D01*
X147579059Y-67008476D02*
X147645816Y-67015998D01*
X148036000Y-66415998D02*
X147645816Y-66415998D01*
X147353337Y-67982754D02*
X147375525Y-68046163D01*
X147353337Y-66649241D02*
X147345816Y-66715998D01*
X147645816Y-67015998D02*
X149026184Y-67015998D01*
X140081527Y-60868530D02*
X143088532Y-60868530D01*
X147345816Y-66715998D02*
X147353337Y-66782754D01*
X147458769Y-66481448D02*
X147411266Y-66528951D01*
X147353337Y-66782754D02*
X147375525Y-66846163D01*
X147375525Y-66846163D02*
X147411266Y-66903044D01*
X149092941Y-67608476D02*
X149026184Y-67615998D01*
X147411266Y-66903044D02*
X147458769Y-66950547D01*
X147458769Y-66950547D02*
X147515650Y-66986288D01*
X147515650Y-66986288D02*
X147579059Y-67008476D01*
X149260734Y-67503044D02*
X149213231Y-67550547D01*
X149026184Y-67015998D02*
X149092941Y-67023519D01*
X149296475Y-67185832D02*
X149318663Y-67249241D01*
X149318663Y-67249241D02*
X149326184Y-67315998D01*
X149213231Y-67081448D02*
X149260734Y-67128951D01*
X149326184Y-67315998D02*
X149318663Y-67382754D01*
X147458769Y-68150547D02*
X147515650Y-68186288D01*
X149318663Y-67382754D02*
X149296475Y-67446163D01*
X148270549Y-66303044D02*
X148223046Y-66350547D01*
X149260734Y-67128951D02*
X149296475Y-67185832D01*
X149296475Y-67446163D02*
X149260734Y-67503044D01*
X150694001Y-83493999D02*
X150694001Y-66844586D01*
X148717000Y-85471000D02*
X150694001Y-83493999D01*
X150694001Y-66844586D02*
X143666415Y-59817000D01*
X143666415Y-59817000D02*
X140208000Y-59817000D01*
X149725478Y-72932243D02*
X149733000Y-72999000D01*
X149563165Y-72728709D02*
X149620046Y-72764450D01*
X149499756Y-72706521D02*
X149563165Y-72728709D01*
X149433000Y-72699000D02*
X149499756Y-72706521D01*
X149733000Y-72999000D02*
X149733000Y-79121000D01*
X149042727Y-72699000D02*
X149433000Y-72699000D01*
X148912561Y-72669290D02*
X148975970Y-72691478D01*
X148772436Y-72529165D02*
X148808177Y-72586046D01*
X148772436Y-72268834D02*
X148750248Y-72332243D01*
X149733000Y-79121000D02*
X150114000Y-79502000D01*
X148975970Y-72106521D02*
X148912561Y-72128709D01*
X150120345Y-72072248D02*
X150063248Y-72092227D01*
X150171565Y-72040064D02*
X150120345Y-72072248D01*
X150266501Y-71888974D02*
X150246522Y-71946071D01*
X150273273Y-71828864D02*
X150266501Y-71888974D01*
X150266501Y-71709025D02*
X150273273Y-71769136D01*
X150273273Y-71769136D02*
X150273273Y-71828864D01*
X150246522Y-71651928D02*
X150266501Y-71709025D01*
X150214338Y-71600708D02*
X150246522Y-71651928D01*
X150120345Y-71525751D02*
X150171565Y-71557935D01*
X150063248Y-71505772D02*
X150120345Y-71525751D01*
X148808177Y-72211953D02*
X148772436Y-72268834D01*
X148912561Y-71469290D02*
X148975970Y-71491478D01*
X148750248Y-72332243D02*
X148742727Y-72399000D01*
X148750248Y-71265756D02*
X148772436Y-71329165D01*
X148742727Y-71199000D02*
X148750248Y-71265756D01*
X150214338Y-71997291D02*
X150171565Y-72040064D01*
X148750248Y-71132243D02*
X148742727Y-71199000D01*
X148772436Y-71068834D02*
X148750248Y-71132243D01*
X150273273Y-69428864D02*
X150266501Y-69488974D01*
X148742727Y-72399000D02*
X148750248Y-72465756D01*
X148808177Y-68611953D02*
X148772436Y-68668834D01*
X148912561Y-69728709D02*
X148855680Y-69764450D01*
X149667549Y-72811953D02*
X149703290Y-72868834D01*
X148772436Y-70129165D02*
X148808177Y-70186046D01*
X150266501Y-70688974D02*
X150246522Y-70746071D01*
X150246522Y-69251928D02*
X150266501Y-69309025D01*
X149042727Y-69099000D02*
X150003137Y-69099000D01*
X150063248Y-69105772D02*
X150120345Y-69125751D01*
X148975970Y-71491478D02*
X149042727Y-71499000D01*
X148855680Y-71433549D02*
X148912561Y-71469290D01*
X149667549Y-68386046D02*
X149620046Y-68433549D01*
X148772436Y-71329165D02*
X148808177Y-71386046D01*
X148912561Y-69069290D02*
X148975970Y-69091478D01*
X150273273Y-70569136D02*
X150273273Y-70628864D01*
X150171565Y-69157935D02*
X150214338Y-69200708D01*
X149733000Y-66421000D02*
X149733000Y-68199000D01*
X150171565Y-70840064D02*
X150120345Y-70872248D01*
X148772436Y-68929165D02*
X148808177Y-68986046D01*
X150003137Y-71499000D02*
X150063248Y-71505772D01*
X148808177Y-71386046D02*
X148855680Y-71433549D01*
X148975970Y-69091478D02*
X149042727Y-69099000D01*
X149620046Y-72764450D02*
X149667549Y-72811953D01*
X148750248Y-68865756D02*
X148772436Y-68929165D01*
X148750248Y-68732243D02*
X148742727Y-68799000D01*
X148912561Y-70928709D02*
X148855680Y-70964450D01*
X150003137Y-72099000D02*
X149042727Y-72099000D01*
X150003137Y-69099000D02*
X150063248Y-69105772D01*
X150171565Y-71557935D02*
X150214338Y-71600708D01*
X148975970Y-69706521D02*
X148912561Y-69728709D01*
X149733000Y-68199000D02*
X149725478Y-68265756D01*
X143764000Y-60452000D02*
X149733000Y-66421000D01*
X148855680Y-72164450D02*
X148808177Y-72211953D01*
X149703290Y-68329165D02*
X149667549Y-68386046D01*
X150120345Y-69672248D02*
X150063248Y-69692227D01*
X148772436Y-68668834D02*
X148750248Y-68732243D01*
X150266501Y-69488974D02*
X150246522Y-69546071D01*
X148808177Y-70186046D02*
X148855680Y-70233549D01*
X148912561Y-68528709D02*
X148855680Y-68564450D01*
X149042727Y-72099000D02*
X148975970Y-72106521D01*
X150246522Y-70451928D02*
X150266501Y-70509025D01*
X149563165Y-68469290D02*
X149499756Y-68491478D01*
X148855680Y-68564450D02*
X148808177Y-68611953D01*
X148750248Y-72465756D02*
X148772436Y-72529165D01*
X139446000Y-60452000D02*
X143764000Y-60452000D01*
X149725478Y-68265756D02*
X149703290Y-68329165D01*
X150120345Y-69125751D02*
X150171565Y-69157935D01*
X149620046Y-68433549D02*
X149563165Y-68469290D01*
X148808177Y-69811953D02*
X148772436Y-69868834D01*
X149499756Y-68491478D02*
X149433000Y-68499000D01*
X148855680Y-69033549D02*
X148912561Y-69069290D01*
X149042727Y-71499000D02*
X150003137Y-71499000D01*
X149433000Y-68499000D02*
X149042727Y-68499000D01*
X150246522Y-71946071D02*
X150214338Y-71997291D01*
X150273273Y-70628864D02*
X150266501Y-70688974D01*
X150214338Y-69200708D02*
X150246522Y-69251928D01*
X150266501Y-69309025D02*
X150273273Y-69369136D01*
X148855680Y-70964450D02*
X148808177Y-71011953D01*
X149042727Y-68499000D02*
X148975970Y-68506521D01*
X148975970Y-72691478D02*
X149042727Y-72699000D01*
X148808177Y-68986046D02*
X148855680Y-69033549D01*
X150003137Y-70899000D02*
X149042727Y-70899000D01*
X148855680Y-72633549D02*
X148912561Y-72669290D01*
X150273273Y-69369136D02*
X150273273Y-69428864D01*
X150214338Y-69597291D02*
X150171565Y-69640064D01*
X148742727Y-68799000D02*
X148750248Y-68865756D01*
X150063248Y-69692227D02*
X150003137Y-69699000D01*
X148912561Y-72128709D02*
X148855680Y-72164450D01*
X150003137Y-69699000D02*
X149042727Y-69699000D01*
X148855680Y-69764450D02*
X148808177Y-69811953D01*
X150246522Y-69546071D02*
X150214338Y-69597291D01*
X150003137Y-70299000D02*
X150063248Y-70305772D01*
X150063248Y-72092227D02*
X150003137Y-72099000D01*
X149042727Y-69699000D02*
X148975970Y-69706521D01*
X148742727Y-69999000D02*
X148750248Y-70065756D01*
X148750248Y-70065756D02*
X148772436Y-70129165D01*
X148855680Y-70233549D02*
X148912561Y-70269290D01*
X148975970Y-70291478D02*
X149042727Y-70299000D01*
X149042727Y-70299000D02*
X150003137Y-70299000D01*
X149703290Y-72868834D02*
X149725478Y-72932243D01*
X148912561Y-70269290D02*
X148975970Y-70291478D01*
X150063248Y-70305772D02*
X150120345Y-70325751D01*
X150120345Y-70872248D02*
X150063248Y-70892227D01*
X148772436Y-69868834D02*
X148750248Y-69932243D01*
X150120345Y-70325751D02*
X150171565Y-70357935D01*
X150171565Y-70357935D02*
X150214338Y-70400708D01*
X150214338Y-70400708D02*
X150246522Y-70451928D01*
X150266501Y-70509025D02*
X150273273Y-70569136D01*
X150171565Y-69640064D02*
X150120345Y-69672248D01*
X148750248Y-69932243D02*
X148742727Y-69999000D01*
X150246522Y-70746071D02*
X150214338Y-70797291D01*
X148808177Y-72586046D02*
X148855680Y-72633549D01*
X150214338Y-70797291D02*
X150171565Y-70840064D01*
X150063248Y-70892227D02*
X150003137Y-70899000D01*
X149042727Y-70899000D02*
X148975970Y-70906521D01*
X148975970Y-70906521D02*
X148912561Y-70928709D01*
X148975970Y-68506521D02*
X148912561Y-68528709D01*
X148808177Y-71011953D02*
X148772436Y-71068834D01*
X140911166Y-73282290D02*
X140968047Y-73246549D01*
X139707549Y-69163365D02*
X139736697Y-69102839D01*
X143624824Y-77533170D02*
X143609875Y-77467676D01*
X141051291Y-73142165D02*
X141073479Y-73078756D01*
X139815704Y-68257228D02*
X139750209Y-68272176D01*
X141073479Y-73078756D02*
X141081000Y-73012000D01*
X143114577Y-77354628D02*
X142831734Y-77637470D01*
X141015550Y-72824953D02*
X140968047Y-72777450D01*
X140911166Y-72741709D02*
X140847757Y-72719521D01*
X140968047Y-71577450D02*
X140911166Y-71541709D01*
X138364371Y-66646156D02*
X138311850Y-66604272D01*
X140847757Y-72719521D02*
X140781000Y-72712000D01*
X138505792Y-68626054D02*
X138547677Y-68573531D01*
X140968047Y-73246549D02*
X141015550Y-73199046D01*
X138406257Y-66698679D02*
X138364371Y-66646156D01*
X137620143Y-68570614D02*
X137552964Y-68570614D01*
X139381000Y-72712000D02*
X139314243Y-72704478D01*
X144423000Y-78946086D02*
X144423000Y-78786000D01*
X139250834Y-72682290D02*
X139193953Y-72646549D01*
X140781000Y-72112000D02*
X140847757Y-72104478D01*
X138053156Y-66575123D02*
X137992630Y-66604271D01*
X139088521Y-72478756D02*
X139081000Y-72412000D01*
X138534164Y-69404192D02*
X138468670Y-69419141D01*
X139081000Y-72412000D02*
X139088521Y-72345243D01*
X139193953Y-70977450D02*
X139250834Y-70941709D01*
X139110709Y-72281834D02*
X139146450Y-72224953D01*
X140911166Y-72082290D02*
X140968047Y-72046549D01*
X140911166Y-71541709D02*
X140847757Y-71519521D01*
X140968047Y-72046549D02*
X141015550Y-71999046D01*
X139637162Y-68343211D02*
X138647213Y-69333160D01*
X137992630Y-66604271D02*
X137940107Y-66646156D01*
X141015550Y-71999046D02*
X141051291Y-71942165D01*
X139314243Y-72119521D02*
X139381000Y-72112000D01*
X138547677Y-68254312D02*
X138505792Y-68201790D01*
X145135953Y-77791364D02*
X145088450Y-77838867D01*
X141073479Y-71878756D02*
X141081000Y-71812000D01*
X144592834Y-79216377D02*
X144535953Y-79180636D01*
X145923000Y-78486000D02*
X145856243Y-78478478D01*
X141081000Y-71812000D02*
X141073479Y-71745243D01*
X138181064Y-68961419D02*
X138222949Y-68908896D01*
X141073479Y-71745243D02*
X141051291Y-71681834D01*
X139110709Y-72542165D02*
X139088521Y-72478756D01*
X137685637Y-68555665D02*
X137620143Y-68570614D01*
X138151916Y-69021945D02*
X138181064Y-68961419D01*
X144430521Y-79012843D02*
X144423000Y-78946086D01*
X139250834Y-71482290D02*
X139193953Y-71446549D01*
X141073479Y-72945243D02*
X141051291Y-72881834D01*
X143425793Y-77283595D02*
X143360299Y-77268646D01*
X141051291Y-71942165D02*
X141073479Y-71878756D01*
X139314243Y-71504478D02*
X139250834Y-71482290D01*
X139193953Y-71446549D02*
X139146450Y-71399046D01*
X145030521Y-77959157D02*
X145023000Y-78025914D01*
X139146450Y-71399046D02*
X139110709Y-71342165D01*
X139081000Y-71212000D02*
X139088521Y-71145243D01*
X141051291Y-71681834D02*
X141015550Y-71624953D01*
X140015549Y-70799046D02*
X140051290Y-70742165D01*
X139314243Y-70919521D02*
X139381000Y-70912000D01*
X145052709Y-77895748D02*
X145030521Y-77959157D01*
X139110709Y-71081834D02*
X139146450Y-71024953D01*
X139146450Y-72224953D02*
X139193953Y-72177450D01*
X143609875Y-77665843D02*
X143624824Y-77600349D01*
X139381000Y-70912000D02*
X139781000Y-70912000D01*
X139250834Y-72141709D02*
X139314243Y-72119521D01*
X137288440Y-68306091D02*
X137288440Y-68238912D01*
X143227626Y-77283595D02*
X143167100Y-77312742D01*
X139781000Y-70912000D02*
X139847756Y-70904478D01*
X139847756Y-70904478D02*
X139911165Y-70882290D01*
X139968046Y-70846549D02*
X140015549Y-70799046D01*
X140051290Y-70742165D02*
X140073478Y-70678756D01*
X139948377Y-68272177D02*
X139882882Y-68257227D01*
X137332537Y-68432111D02*
X137303389Y-68371585D01*
X140073478Y-70678756D02*
X140081000Y-70612000D01*
X139778582Y-69474580D02*
X139736696Y-69422057D01*
X139736696Y-69422057D02*
X139707548Y-69361531D01*
X139110709Y-71342165D02*
X139088521Y-71278756D01*
X137552964Y-68570614D02*
X137487470Y-68555665D01*
X138647213Y-69333160D02*
X138594690Y-69375045D01*
X143360299Y-77268646D02*
X143293120Y-77268646D01*
X139707548Y-69361531D02*
X139692600Y-69296038D01*
X138251324Y-66575124D02*
X138185829Y-66560174D01*
X139692600Y-69296038D02*
X139692599Y-69228858D01*
X139911165Y-70882290D02*
X139968046Y-70846549D01*
X142586012Y-77723452D02*
X142520518Y-77708503D01*
X139692599Y-69228858D02*
X139707549Y-69163365D01*
X139736697Y-69102839D02*
X139778582Y-69050316D01*
X139778582Y-69050316D02*
X140061424Y-68767473D01*
X140061424Y-68767473D02*
X140103309Y-68714950D01*
X145510046Y-77791364D02*
X145453165Y-77755623D01*
X140132457Y-68654425D02*
X140147405Y-68588930D01*
X140147406Y-68521752D02*
X140132456Y-68456257D01*
X139882882Y-68257227D02*
X139815704Y-68257228D01*
X136598002Y-66294000D02*
X136017000Y-66294000D01*
X140250835Y-73341709D02*
X140314244Y-73319521D01*
X140968047Y-72777450D02*
X140911166Y-72741709D01*
X139381000Y-72112000D02*
X140781000Y-72112000D01*
X140132456Y-68456257D02*
X140103310Y-68395732D01*
X140061424Y-68343209D02*
X140008903Y-68301325D01*
X141051291Y-72881834D02*
X141015550Y-72824953D01*
X140008903Y-68301325D02*
X139948377Y-68272177D01*
X137303389Y-68371585D02*
X137288440Y-68306091D01*
X143214114Y-78114258D02*
X143256000Y-78061735D01*
X137303389Y-68173418D02*
X137332537Y-68112892D01*
X140147405Y-68588930D02*
X140147406Y-68521752D01*
X145735953Y-78420549D02*
X145688450Y-78373046D01*
X137285523Y-66970884D02*
X137233002Y-66929000D01*
X138185829Y-66560174D02*
X138118651Y-66560175D01*
X138136967Y-69087439D02*
X138151916Y-69021945D01*
X138406256Y-67017897D02*
X138435404Y-66957372D01*
X139689683Y-68301324D02*
X139637162Y-68343211D01*
X137374422Y-68484633D02*
X137332537Y-68432111D01*
X140847757Y-71519521D02*
X140781000Y-71512000D01*
X138435403Y-66759204D02*
X138406257Y-66698679D01*
X144488450Y-79133133D02*
X144452709Y-79076252D01*
X137478723Y-67014981D02*
X137411543Y-67014980D01*
X145256243Y-77733435D02*
X145192834Y-77755623D01*
X137657266Y-66929000D02*
X137604743Y-66970885D01*
X140781000Y-71512000D02*
X139381000Y-71512000D01*
X138311850Y-66604272D02*
X138251324Y-66575124D01*
X145856243Y-78478478D02*
X145792834Y-78456290D01*
X137233002Y-66929000D02*
X136598002Y-66294000D01*
X140847757Y-72104478D02*
X140911166Y-72082290D01*
X140081000Y-69776998D02*
X139778582Y-69474580D01*
X145192834Y-77755623D02*
X145135953Y-77791364D01*
X141015550Y-71624953D02*
X140968047Y-71577450D01*
X137487470Y-68555665D02*
X137426944Y-68526518D01*
X139088521Y-71145243D02*
X139110709Y-71081834D01*
X137374422Y-68060369D02*
X138364371Y-67070420D01*
X138450352Y-66891877D02*
X138450353Y-66824699D01*
X138181064Y-69280638D02*
X138151916Y-69220112D01*
X139314243Y-72704478D02*
X139250834Y-72682290D01*
X138275471Y-69375045D02*
X138222949Y-69333160D01*
X138151916Y-69220112D02*
X138136967Y-69154618D01*
X139193953Y-72177450D02*
X139250834Y-72141709D01*
X138222949Y-68908896D02*
X138505792Y-68626054D01*
X138118651Y-66560175D02*
X138053156Y-66575123D01*
X139088521Y-71278756D02*
X139081000Y-71212000D01*
X140081000Y-70612000D02*
X140081000Y-69776998D01*
X138136967Y-69154618D02*
X138136967Y-69087439D01*
X137544216Y-67000031D02*
X137478723Y-67014981D01*
X137288440Y-68238912D02*
X137303389Y-68173418D01*
X137332537Y-68112892D02*
X137374422Y-68060369D01*
X137411543Y-67014980D02*
X137346050Y-67000032D01*
X139381000Y-71512000D02*
X139314243Y-71504478D01*
X140381000Y-73312000D02*
X140781000Y-73312000D01*
X138435404Y-66957372D02*
X138450352Y-66891877D01*
X138392744Y-68130757D02*
X138327250Y-68115808D01*
X137346050Y-67000032D02*
X137285523Y-66970884D01*
X144957549Y-79133133D02*
X144910046Y-79180636D01*
X137940107Y-66646156D02*
X137657266Y-66929000D01*
X137426944Y-68526518D02*
X137374422Y-68484633D01*
X139146450Y-71024953D02*
X139193953Y-70977450D01*
X138453270Y-68159905D02*
X138392744Y-68130757D01*
X145453165Y-77755623D02*
X145389756Y-77733435D01*
X141081000Y-73012000D02*
X141073479Y-72945243D01*
X137798686Y-68484633D02*
X137746163Y-68526518D01*
X144253165Y-78515710D02*
X144189756Y-78493522D01*
X140781000Y-72712000D02*
X139381000Y-72712000D01*
X144423000Y-78786000D02*
X144415478Y-78719244D01*
X140103309Y-68714950D02*
X140132457Y-68654425D01*
X138081528Y-68201790D02*
X137798686Y-68484633D01*
X138134051Y-68159905D02*
X138081528Y-68201790D01*
X142520518Y-77708503D02*
X142459992Y-77679355D01*
X138194577Y-68130757D02*
X138134051Y-68159905D01*
X138260071Y-68115808D02*
X138194577Y-68130757D01*
X138505792Y-68201790D02*
X138453270Y-68159905D01*
X138364371Y-67070420D02*
X138406256Y-67017897D01*
X138468670Y-69419141D02*
X138401491Y-69419141D01*
X141015550Y-73199046D02*
X141051291Y-73142165D01*
X139250834Y-70941709D02*
X139314243Y-70919521D01*
X139088521Y-72345243D02*
X139110709Y-72281834D01*
X140103310Y-68395732D02*
X140061424Y-68343209D01*
X137746163Y-68526518D02*
X137685637Y-68555665D01*
X138576824Y-68314838D02*
X138547677Y-68254312D01*
X138591773Y-68380332D02*
X138576824Y-68314838D01*
X140847757Y-73304478D02*
X140911166Y-73282290D01*
X144789756Y-79238565D02*
X144723000Y-79246086D01*
X139146450Y-72599046D02*
X139110709Y-72542165D01*
X138576824Y-68513005D02*
X138591773Y-68447511D01*
X138547677Y-68573531D02*
X138576824Y-68513005D01*
X142407471Y-77637471D02*
X140081000Y-75311000D01*
X139193953Y-72646549D02*
X139146450Y-72599046D01*
X138450353Y-66824699D02*
X138435403Y-66759204D01*
X138335997Y-69404192D02*
X138275471Y-69375045D01*
X145623000Y-78186000D02*
X145623000Y-78025914D01*
X142779211Y-77679355D02*
X142718685Y-77708503D01*
X138222949Y-69333160D02*
X138181064Y-69280638D01*
X138401491Y-69419141D02*
X138335997Y-69404192D01*
X137604743Y-66970885D02*
X137544216Y-67000031D01*
X138327250Y-68115808D02*
X138260071Y-68115808D01*
X138591773Y-68447511D02*
X138591773Y-68380332D01*
X143214114Y-78433477D02*
X143184967Y-78372951D01*
X138594690Y-69375045D02*
X138534164Y-69404192D01*
X144535953Y-79180636D02*
X144488450Y-79133133D01*
X139750209Y-68272176D02*
X139689683Y-68301324D01*
X140781000Y-73312000D02*
X140847757Y-73304478D01*
X143624824Y-77600349D02*
X143624824Y-77533170D01*
X143538842Y-77778892D02*
X143580727Y-77726369D01*
X143256000Y-78061735D02*
X143538842Y-77778892D01*
X140314244Y-73319521D02*
X140381000Y-73312000D01*
X140193954Y-73377450D02*
X140250835Y-73341709D01*
X140146451Y-73424953D02*
X140193954Y-73377450D01*
X143184967Y-78372951D02*
X143170018Y-78307457D01*
X140110710Y-73481834D02*
X140146451Y-73424953D01*
X140088522Y-73545243D02*
X140110710Y-73481834D01*
X140081000Y-73612000D02*
X140088522Y-73545243D01*
X140081000Y-75311000D02*
X140081000Y-73612000D01*
X142459992Y-77679355D02*
X142407471Y-77637471D01*
X142653191Y-77723452D02*
X142586012Y-77723452D01*
X142718685Y-77708503D02*
X142653191Y-77723452D01*
X145688450Y-78373046D02*
X145652709Y-78316165D01*
X142831734Y-77637470D02*
X142779211Y-77679355D01*
X143167100Y-77312742D02*
X143114577Y-77354628D01*
X143293120Y-77268646D02*
X143227626Y-77283595D01*
X143486319Y-77312742D02*
X143425793Y-77283595D01*
X143538842Y-77354628D02*
X143486319Y-77312742D01*
X143580727Y-77407150D02*
X143538842Y-77354628D01*
X143609875Y-77467676D02*
X143580727Y-77407150D01*
X145792834Y-78456290D02*
X145735953Y-78420549D01*
X143580727Y-77726369D02*
X143609875Y-77665843D01*
X144452709Y-79076252D02*
X144430521Y-79012843D01*
X145652709Y-78316165D02*
X145630521Y-78252756D01*
X143184967Y-78174784D02*
X143214114Y-78114258D01*
X144993290Y-79076252D02*
X144957549Y-79133133D01*
X143170018Y-78240278D02*
X143184967Y-78174784D01*
X143170018Y-78307457D02*
X143170018Y-78240278D01*
X143256000Y-78486000D02*
X143214114Y-78433477D01*
X144123000Y-78486000D02*
X143256000Y-78486000D01*
X144189756Y-78493522D02*
X144123000Y-78486000D01*
X144310046Y-78551451D02*
X144253165Y-78515710D01*
X144357549Y-78598954D02*
X144310046Y-78551451D01*
X144393290Y-78655835D02*
X144357549Y-78598954D01*
X144415478Y-78719244D02*
X144393290Y-78655835D01*
X144656243Y-79238565D02*
X144592834Y-79216377D01*
X144723000Y-79246086D02*
X144656243Y-79238565D01*
X144853165Y-79216377D02*
X144789756Y-79238565D01*
X144910046Y-79180636D02*
X144853165Y-79216377D01*
X145015478Y-79012843D02*
X144993290Y-79076252D01*
X145023000Y-78946086D02*
X145015478Y-79012843D01*
X145023000Y-78025914D02*
X145023000Y-78946086D01*
X145088450Y-77838867D02*
X145052709Y-77895748D01*
X145323000Y-77725914D02*
X145256243Y-77733435D01*
X145389756Y-77733435D02*
X145323000Y-77725914D01*
X145557549Y-77838867D02*
X145510046Y-77791364D01*
X145593290Y-77895748D02*
X145557549Y-77838867D01*
X145615478Y-77959157D02*
X145593290Y-77895748D01*
X145623000Y-78025914D02*
X145615478Y-77959157D01*
X145630521Y-78252756D02*
X145623000Y-78186000D01*
X146431002Y-78486000D02*
X145923000Y-78486000D01*
X147293999Y-69188999D02*
X147293999Y-83566000D01*
X146034791Y-66619785D02*
X146034790Y-66686963D01*
X144884524Y-68089531D02*
X144899473Y-68155025D01*
X145637594Y-66370209D02*
X145703089Y-66355261D01*
X145990695Y-66493765D02*
X146019841Y-66554290D01*
X144080095Y-67047806D02*
X144050947Y-67108332D01*
X145524547Y-66441244D02*
X145577068Y-66399357D01*
X144399000Y-66718264D02*
X144121980Y-66995283D01*
X144546244Y-67419547D02*
X145035395Y-66930395D01*
X146019841Y-66554290D02*
X146034791Y-66619785D01*
X144884524Y-68022352D02*
X144884524Y-68089531D01*
X144493721Y-67461432D02*
X144546244Y-67419547D01*
X146478430Y-68362793D02*
X146520316Y-68415316D01*
X144300522Y-67505528D02*
X144367701Y-67505528D01*
X145394770Y-68268073D02*
X146373073Y-67289770D01*
X144440885Y-66665741D02*
X144399000Y-66718264D01*
X146744814Y-67247884D02*
X146797335Y-67289768D01*
X144484981Y-66472542D02*
X144484981Y-66539721D01*
X144440885Y-66346522D02*
X144470032Y-66407048D01*
X144121980Y-67419547D02*
X144174502Y-67461432D01*
X144035998Y-67173826D02*
X144035998Y-67241005D01*
X145770267Y-66355260D02*
X145835762Y-66370210D01*
X145035395Y-66930395D02*
X145524547Y-66441244D01*
X144470032Y-66407048D02*
X144484981Y-66472542D01*
X144484981Y-66539721D02*
X144470032Y-66605215D01*
X144399000Y-63246000D02*
X144399000Y-66294000D01*
X146618793Y-67203786D02*
X146684288Y-67218736D01*
X144470032Y-66605215D02*
X144440885Y-66665741D01*
X145281721Y-68339105D02*
X145342247Y-68309958D01*
X145835762Y-66370210D02*
X145896288Y-66399358D01*
X145577068Y-66399357D02*
X145637594Y-66370209D01*
X146520316Y-67991052D02*
X146478431Y-68043575D01*
X144399000Y-66294000D02*
X144440885Y-66346522D01*
X144050947Y-67108332D02*
X144035998Y-67173826D01*
X146434333Y-68169594D02*
X146434334Y-68236774D01*
X146883317Y-67468311D02*
X146883316Y-67535489D01*
X144121980Y-66995283D02*
X144080095Y-67047806D01*
X144035998Y-67241005D02*
X144050947Y-67306499D01*
X144433195Y-67490579D02*
X144493721Y-67461432D01*
X146019842Y-66752458D02*
X145990694Y-66812983D01*
X144050947Y-67306499D02*
X144080095Y-67367025D01*
X146434334Y-68236774D02*
X146449282Y-68302267D01*
X146034790Y-66686963D02*
X146019842Y-66752458D01*
X145149048Y-68354054D02*
X145216227Y-68354054D01*
X144174502Y-67461432D02*
X144235028Y-67490579D01*
X145948809Y-66865506D02*
X144970506Y-67843809D01*
X144928621Y-68215551D02*
X144970506Y-68268073D01*
X145083554Y-68339105D02*
X145149048Y-68354054D01*
X144970506Y-67843809D02*
X144928621Y-67896332D01*
X146520316Y-68415316D02*
X147293999Y-69188999D01*
X145896288Y-66399358D02*
X145948809Y-66441242D01*
X144928621Y-67896332D02*
X144899473Y-67956858D01*
X144899473Y-67956858D02*
X144884524Y-68022352D01*
X145342247Y-68309958D02*
X145394770Y-68268073D01*
X146425594Y-67247883D02*
X146486120Y-67218735D01*
X144970506Y-68268073D02*
X145023028Y-68309958D01*
X145990694Y-66812983D02*
X145948809Y-66865506D01*
X144899473Y-68155025D02*
X144928621Y-68215551D01*
X145023028Y-68309958D02*
X145083554Y-68339105D01*
X145216227Y-68354054D02*
X145281721Y-68339105D01*
X146449283Y-68104101D02*
X146434333Y-68169594D01*
X146373073Y-67289770D02*
X146425594Y-67247883D01*
X146486120Y-67218735D02*
X146551615Y-67203787D01*
X146551615Y-67203787D02*
X146618793Y-67203786D01*
X146684288Y-67218736D02*
X146744814Y-67247884D01*
X146797335Y-67289768D02*
X146839221Y-67342291D01*
X144080095Y-67367025D02*
X144121980Y-67419547D01*
X146868368Y-67600984D02*
X146839220Y-67661509D01*
X145703089Y-66355261D02*
X145770267Y-66355260D01*
X146449282Y-68302267D02*
X146478430Y-68362793D01*
X144367701Y-67505528D02*
X144433195Y-67490579D01*
X146839221Y-67342291D02*
X146868367Y-67402816D01*
X146797335Y-67714032D02*
X146520316Y-67991052D01*
X144235028Y-67490579D02*
X144300522Y-67505528D01*
X146868367Y-67402816D02*
X146883317Y-67468311D01*
X145948809Y-66441242D02*
X145990695Y-66493765D01*
X146883316Y-67535489D02*
X146868368Y-67600984D01*
X146839220Y-67661509D02*
X146797335Y-67714032D01*
X146478431Y-68043575D02*
X146449283Y-68104101D01*
D21*
X126502772Y-62384000D03*
X116332000Y-58928000D03*
D22*
X134620000Y-59690000D03*
X112014000Y-51308000D03*
X125730000Y-61722004D03*
X125730000Y-65242000D03*
X125729994Y-62738000D03*
X145796000Y-49276000D03*
X136652000Y-67310000D03*
X131191000Y-60198000D03*
X127873873Y-71993873D03*
X116840000Y-70485000D03*
X121285000Y-67818000D03*
X144272000Y-82677000D03*
X114554000Y-70485000D03*
X119253000Y-70485000D03*
X131826000Y-62484000D03*
X135636000Y-67310000D03*
X122936000Y-62738000D03*
X122936000Y-61214000D03*
D21*
X136629000Y-55095000D03*
D22*
X122936000Y-65024000D03*
X115316000Y-62992000D03*
X134874000Y-75946000D03*
X146050000Y-55626000D03*
X131064000Y-54356000D03*
X144145000Y-49784006D03*
X134747000Y-74168000D03*
X132156653Y-71397893D03*
X128561611Y-71306135D03*
X143764000Y-80645000D03*
X151257000Y-87249000D03*
D21*
X127762000Y-58901500D03*
X123391078Y-56440922D03*
X125984000Y-68707000D03*
X129032006Y-62734000D03*
X134620000Y-60706004D03*
X132870843Y-59737156D03*
X132305157Y-60302842D03*
X130203843Y-60302842D03*
X129638157Y-59737156D03*
X138176000Y-60833000D03*
X134395122Y-65180122D03*
X145034000Y-87249000D03*
X139781528Y-61168529D03*
X147447000Y-85471000D03*
X148717000Y-85471000D03*
X140208000Y-59817000D03*
X139446000Y-60452000D03*
X150114000Y-79502000D03*
X136017000Y-66294000D03*
X146431002Y-78486000D03*
X147293999Y-83566000D03*
X144399000Y-63246000D03*
D22*
X104648000Y-88138000D03*
X104648000Y-85598000D03*
X104648000Y-83058000D03*
X104648000Y-80518000D03*
X104648000Y-77978000D03*
X104648000Y-75438000D03*
X104648000Y-72898000D03*
X151130000Y-49784000D03*
X151130000Y-52324000D03*
X151130000Y-54864000D03*
X151130000Y-57404000D03*
X142748000Y-74930000D03*
X142748000Y-72390000D03*
X142748000Y-69850000D03*
X142748000Y-67310000D03*
X142748000Y-64770000D03*
X142748000Y-62230000D03*
X128524000Y-79756000D03*
X131064000Y-79756000D03*
X133604000Y-79756000D03*
X136144000Y-79756000D03*
X138684000Y-79756000D03*
X141224000Y-79756000D03*
X115824000Y-77216000D03*
X115824000Y-79756000D03*
X118364000Y-77216000D03*
X118364000Y-79756000D03*
X120904000Y-77216000D03*
X120904000Y-79756000D03*
X123444000Y-77216000D03*
X123444000Y-79756000D03*
X120904000Y-52070000D03*
X120904000Y-49530000D03*
X123444000Y-52070000D03*
X123444000Y-49530000D03*
X125984000Y-52070000D03*
X125984000Y-49530000D03*
X128524000Y-52070000D03*
X128524000Y-49530000D03*
X131064000Y-52070000D03*
X131064000Y-49530000D03*
X138430000Y-50038000D03*
X140970000Y-50038000D03*
X110490000Y-62865000D03*
X110490000Y-60365000D03*
X108490000Y-60365000D03*
X108490000Y-62865000D03*
X105780000Y-67635000D03*
X105780000Y-55595000D03*
M02*
