%TF.GenerationSoftware,KiCad,Pcbnew,5.1.12*%
%TF.CreationDate,2021-12-06T16:47:01+08:00*%
%TF.ProjectId,elf2,656c6632-2e6b-4696-9361-645f70636258,rev?*%
%TF.SameCoordinates,Original*%
%TF.FileFunction,Legend,Top*%
%TF.FilePolarity,Positive*%
%FSLAX46Y46*%
G04 Gerber Fmt 4.6, Leading zero omitted, Abs format (unit mm)*
G04 Created by KiCad (PCBNEW 5.1.12) date 2021-12-06 16:47:01*
%MOMM*%
%LPD*%
G01*
G04 APERTURE LIST*
%ADD10C,0.125000*%
%ADD11C,0.162500*%
%ADD12C,0.200000*%
%ADD13C,0.120000*%
%ADD14C,0.150000*%
G04 APERTURE END LIST*
D10*
X113296761Y-73831952D02*
X113327714Y-73801000D01*
X113389619Y-73770047D01*
X113544380Y-73770047D01*
X113606285Y-73801000D01*
X113637238Y-73831952D01*
X113668190Y-73893857D01*
X113668190Y-73955761D01*
X113637238Y-74048619D01*
X113265809Y-74420047D01*
X113668190Y-74420047D01*
X114225333Y-73770047D02*
X114101523Y-73770047D01*
X114039619Y-73801000D01*
X114008666Y-73831952D01*
X113946761Y-73924809D01*
X113915809Y-74048619D01*
X113915809Y-74296238D01*
X113946761Y-74358142D01*
X113977714Y-74389095D01*
X114039619Y-74420047D01*
X114163428Y-74420047D01*
X114225333Y-74389095D01*
X114256285Y-74358142D01*
X114287238Y-74296238D01*
X114287238Y-74141476D01*
X114256285Y-74079571D01*
X114225333Y-74048619D01*
X114163428Y-74017666D01*
X114039619Y-74017666D01*
X113977714Y-74048619D01*
X113946761Y-74079571D01*
X113915809Y-74141476D01*
X113265809Y-74870047D02*
X113668190Y-74870047D01*
X113451523Y-75117666D01*
X113544380Y-75117666D01*
X113606285Y-75148619D01*
X113637238Y-75179571D01*
X113668190Y-75241476D01*
X113668190Y-75396238D01*
X113637238Y-75458142D01*
X113606285Y-75489095D01*
X113544380Y-75520047D01*
X113358666Y-75520047D01*
X113296761Y-75489095D01*
X113265809Y-75458142D01*
X113884857Y-74870047D02*
X114318190Y-74870047D01*
X114039619Y-75520047D01*
X115836761Y-73831952D02*
X115867714Y-73801000D01*
X115929619Y-73770047D01*
X116084380Y-73770047D01*
X116146285Y-73801000D01*
X116177238Y-73831952D01*
X116208190Y-73893857D01*
X116208190Y-73955761D01*
X116177238Y-74048619D01*
X115805809Y-74420047D01*
X116208190Y-74420047D01*
X116424857Y-73770047D02*
X116858190Y-73770047D01*
X116579619Y-74420047D01*
X115805809Y-74870047D02*
X116208190Y-74870047D01*
X115991523Y-75117666D01*
X116084380Y-75117666D01*
X116146285Y-75148619D01*
X116177238Y-75179571D01*
X116208190Y-75241476D01*
X116208190Y-75396238D01*
X116177238Y-75458142D01*
X116146285Y-75489095D01*
X116084380Y-75520047D01*
X115898666Y-75520047D01*
X115836761Y-75489095D01*
X115805809Y-75458142D01*
X116579619Y-75148619D02*
X116517714Y-75117666D01*
X116486761Y-75086714D01*
X116455809Y-75024809D01*
X116455809Y-74993857D01*
X116486761Y-74931952D01*
X116517714Y-74901000D01*
X116579619Y-74870047D01*
X116703428Y-74870047D01*
X116765333Y-74901000D01*
X116796285Y-74931952D01*
X116827238Y-74993857D01*
X116827238Y-75024809D01*
X116796285Y-75086714D01*
X116765333Y-75117666D01*
X116703428Y-75148619D01*
X116579619Y-75148619D01*
X116517714Y-75179571D01*
X116486761Y-75210523D01*
X116455809Y-75272428D01*
X116455809Y-75396238D01*
X116486761Y-75458142D01*
X116517714Y-75489095D01*
X116579619Y-75520047D01*
X116703428Y-75520047D01*
X116765333Y-75489095D01*
X116796285Y-75458142D01*
X116827238Y-75396238D01*
X116827238Y-75272428D01*
X116796285Y-75210523D01*
X116765333Y-75179571D01*
X116703428Y-75148619D01*
X118376761Y-73831952D02*
X118407714Y-73801000D01*
X118469619Y-73770047D01*
X118624380Y-73770047D01*
X118686285Y-73801000D01*
X118717238Y-73831952D01*
X118748190Y-73893857D01*
X118748190Y-73955761D01*
X118717238Y-74048619D01*
X118345809Y-74420047D01*
X118748190Y-74420047D01*
X119119619Y-74048619D02*
X119057714Y-74017666D01*
X119026761Y-73986714D01*
X118995809Y-73924809D01*
X118995809Y-73893857D01*
X119026761Y-73831952D01*
X119057714Y-73801000D01*
X119119619Y-73770047D01*
X119243428Y-73770047D01*
X119305333Y-73801000D01*
X119336285Y-73831952D01*
X119367238Y-73893857D01*
X119367238Y-73924809D01*
X119336285Y-73986714D01*
X119305333Y-74017666D01*
X119243428Y-74048619D01*
X119119619Y-74048619D01*
X119057714Y-74079571D01*
X119026761Y-74110523D01*
X118995809Y-74172428D01*
X118995809Y-74296238D01*
X119026761Y-74358142D01*
X119057714Y-74389095D01*
X119119619Y-74420047D01*
X119243428Y-74420047D01*
X119305333Y-74389095D01*
X119336285Y-74358142D01*
X119367238Y-74296238D01*
X119367238Y-74172428D01*
X119336285Y-74110523D01*
X119305333Y-74079571D01*
X119243428Y-74048619D01*
X118345809Y-74870047D02*
X118748190Y-74870047D01*
X118531523Y-75117666D01*
X118624380Y-75117666D01*
X118686285Y-75148619D01*
X118717238Y-75179571D01*
X118748190Y-75241476D01*
X118748190Y-75396238D01*
X118717238Y-75458142D01*
X118686285Y-75489095D01*
X118624380Y-75520047D01*
X118438666Y-75520047D01*
X118376761Y-75489095D01*
X118345809Y-75458142D01*
X119057714Y-75520047D02*
X119181523Y-75520047D01*
X119243428Y-75489095D01*
X119274380Y-75458142D01*
X119336285Y-75365285D01*
X119367238Y-75241476D01*
X119367238Y-74993857D01*
X119336285Y-74931952D01*
X119305333Y-74901000D01*
X119243428Y-74870047D01*
X119119619Y-74870047D01*
X119057714Y-74901000D01*
X119026761Y-74931952D01*
X118995809Y-74993857D01*
X118995809Y-75148619D01*
X119026761Y-75210523D01*
X119057714Y-75241476D01*
X119119619Y-75272428D01*
X119243428Y-75272428D01*
X119305333Y-75241476D01*
X119336285Y-75210523D01*
X119367238Y-75148619D01*
X120885809Y-73770047D02*
X121288190Y-73770047D01*
X121071523Y-74017666D01*
X121164380Y-74017666D01*
X121226285Y-74048619D01*
X121257238Y-74079571D01*
X121288190Y-74141476D01*
X121288190Y-74296238D01*
X121257238Y-74358142D01*
X121226285Y-74389095D01*
X121164380Y-74420047D01*
X120978666Y-74420047D01*
X120916761Y-74389095D01*
X120885809Y-74358142D01*
X121690571Y-73770047D02*
X121752476Y-73770047D01*
X121814380Y-73801000D01*
X121845333Y-73831952D01*
X121876285Y-73893857D01*
X121907238Y-74017666D01*
X121907238Y-74172428D01*
X121876285Y-74296238D01*
X121845333Y-74358142D01*
X121814380Y-74389095D01*
X121752476Y-74420047D01*
X121690571Y-74420047D01*
X121628666Y-74389095D01*
X121597714Y-74358142D01*
X121566761Y-74296238D01*
X121535809Y-74172428D01*
X121535809Y-74017666D01*
X121566761Y-73893857D01*
X121597714Y-73831952D01*
X121628666Y-73801000D01*
X121690571Y-73770047D01*
X121226285Y-75086714D02*
X121226285Y-75520047D01*
X121071523Y-74839095D02*
X120916761Y-75303380D01*
X121319142Y-75303380D01*
X121690571Y-74870047D02*
X121752476Y-74870047D01*
X121814380Y-74901000D01*
X121845333Y-74931952D01*
X121876285Y-74993857D01*
X121907238Y-75117666D01*
X121907238Y-75272428D01*
X121876285Y-75396238D01*
X121845333Y-75458142D01*
X121814380Y-75489095D01*
X121752476Y-75520047D01*
X121690571Y-75520047D01*
X121628666Y-75489095D01*
X121597714Y-75458142D01*
X121566761Y-75396238D01*
X121535809Y-75272428D01*
X121535809Y-75117666D01*
X121566761Y-74993857D01*
X121597714Y-74931952D01*
X121628666Y-74901000D01*
X121690571Y-74870047D01*
X123456761Y-73801000D02*
X123394857Y-73770047D01*
X123302000Y-73770047D01*
X123209142Y-73801000D01*
X123147238Y-73862904D01*
X123116285Y-73924809D01*
X123085333Y-74048619D01*
X123085333Y-74141476D01*
X123116285Y-74265285D01*
X123147238Y-74327190D01*
X123209142Y-74389095D01*
X123302000Y-74420047D01*
X123363904Y-74420047D01*
X123456761Y-74389095D01*
X123487714Y-74358142D01*
X123487714Y-74141476D01*
X123363904Y-74141476D01*
X123766285Y-74420047D02*
X123766285Y-73770047D01*
X124137714Y-74420047D01*
X124137714Y-73770047D01*
X124447238Y-74420047D02*
X124447238Y-73770047D01*
X124602000Y-73770047D01*
X124694857Y-73801000D01*
X124756761Y-73862904D01*
X124787714Y-73924809D01*
X124818666Y-74048619D01*
X124818666Y-74141476D01*
X124787714Y-74265285D01*
X124756761Y-74327190D01*
X124694857Y-74389095D01*
X124602000Y-74420047D01*
X124447238Y-74420047D01*
X123456761Y-74901000D02*
X123394857Y-74870047D01*
X123302000Y-74870047D01*
X123209142Y-74901000D01*
X123147238Y-74962904D01*
X123116285Y-75024809D01*
X123085333Y-75148619D01*
X123085333Y-75241476D01*
X123116285Y-75365285D01*
X123147238Y-75427190D01*
X123209142Y-75489095D01*
X123302000Y-75520047D01*
X123363904Y-75520047D01*
X123456761Y-75489095D01*
X123487714Y-75458142D01*
X123487714Y-75241476D01*
X123363904Y-75241476D01*
X123766285Y-75520047D02*
X123766285Y-74870047D01*
X124137714Y-75520047D01*
X124137714Y-74870047D01*
X124447238Y-75520047D02*
X124447238Y-74870047D01*
X124602000Y-74870047D01*
X124694857Y-74901000D01*
X124756761Y-74962904D01*
X124787714Y-75024809D01*
X124818666Y-75148619D01*
X124818666Y-75241476D01*
X124787714Y-75365285D01*
X124756761Y-75427190D01*
X124694857Y-75489095D01*
X124602000Y-75520047D01*
X124447238Y-75520047D01*
X125687238Y-73770047D02*
X126089619Y-73770047D01*
X125872952Y-74017666D01*
X125965809Y-74017666D01*
X126027714Y-74048619D01*
X126058666Y-74079571D01*
X126089619Y-74141476D01*
X126089619Y-74296238D01*
X126058666Y-74358142D01*
X126027714Y-74389095D01*
X125965809Y-74420047D01*
X125780095Y-74420047D01*
X125718190Y-74389095D01*
X125687238Y-74358142D01*
X126275333Y-73770047D02*
X126492000Y-74420047D01*
X126708666Y-73770047D01*
X126863428Y-73770047D02*
X127265809Y-73770047D01*
X127049142Y-74017666D01*
X127142000Y-74017666D01*
X127203904Y-74048619D01*
X127234857Y-74079571D01*
X127265809Y-74141476D01*
X127265809Y-74296238D01*
X127234857Y-74358142D01*
X127203904Y-74389095D01*
X127142000Y-74420047D01*
X126956285Y-74420047D01*
X126894380Y-74389095D01*
X126863428Y-74358142D01*
X125687238Y-74870047D02*
X126089619Y-74870047D01*
X125872952Y-75117666D01*
X125965809Y-75117666D01*
X126027714Y-75148619D01*
X126058666Y-75179571D01*
X126089619Y-75241476D01*
X126089619Y-75396238D01*
X126058666Y-75458142D01*
X126027714Y-75489095D01*
X125965809Y-75520047D01*
X125780095Y-75520047D01*
X125718190Y-75489095D01*
X125687238Y-75458142D01*
X126275333Y-74870047D02*
X126492000Y-75520047D01*
X126708666Y-74870047D01*
X126863428Y-74870047D02*
X127265809Y-74870047D01*
X127049142Y-75117666D01*
X127142000Y-75117666D01*
X127203904Y-75148619D01*
X127234857Y-75179571D01*
X127265809Y-75241476D01*
X127265809Y-75396238D01*
X127234857Y-75458142D01*
X127203904Y-75489095D01*
X127142000Y-75520047D01*
X126956285Y-75520047D01*
X126894380Y-75489095D01*
X126863428Y-75458142D01*
D11*
X140673238Y-51714047D02*
X141075619Y-51714047D01*
X140858952Y-51961666D01*
X140951809Y-51961666D01*
X141013714Y-51992619D01*
X141044666Y-52023571D01*
X141075619Y-52085476D01*
X141075619Y-52240238D01*
X141044666Y-52302142D01*
X141013714Y-52333095D01*
X140951809Y-52364047D01*
X140766095Y-52364047D01*
X140704190Y-52333095D01*
X140673238Y-52302142D01*
X141261333Y-51714047D02*
X141478000Y-52364047D01*
X141694666Y-51714047D01*
X141849428Y-51714047D02*
X142251809Y-51714047D01*
X142035142Y-51961666D01*
X142128000Y-51961666D01*
X142189904Y-51992619D01*
X142220857Y-52023571D01*
X142251809Y-52085476D01*
X142251809Y-52240238D01*
X142220857Y-52302142D01*
X142189904Y-52333095D01*
X142128000Y-52364047D01*
X141942285Y-52364047D01*
X141880380Y-52333095D01*
X141849428Y-52302142D01*
X139092761Y-51653297D02*
X138783238Y-51653297D01*
X138752285Y-51962821D01*
X138783238Y-51931869D01*
X138845142Y-51900916D01*
X138999904Y-51900916D01*
X139061809Y-51931869D01*
X139092761Y-51962821D01*
X139123714Y-52024726D01*
X139123714Y-52179488D01*
X139092761Y-52241392D01*
X139061809Y-52272345D01*
X138999904Y-52303297D01*
X138845142Y-52303297D01*
X138783238Y-52272345D01*
X138752285Y-52241392D01*
X137545142Y-52790797D02*
X137545142Y-53255083D01*
X137514190Y-53347940D01*
X137452285Y-53409845D01*
X137359428Y-53440797D01*
X137297523Y-53440797D01*
X137761809Y-52790797D02*
X138133238Y-52790797D01*
X137947523Y-53440797D02*
X137947523Y-52790797D01*
X138318952Y-53255083D02*
X138628476Y-53255083D01*
X138257047Y-53440797D02*
X138473714Y-52790797D01*
X138690380Y-53440797D01*
X139247523Y-52821750D02*
X139185619Y-52790797D01*
X139092761Y-52790797D01*
X138999904Y-52821750D01*
X138938000Y-52883654D01*
X138907047Y-52945559D01*
X138876095Y-53069369D01*
X138876095Y-53162226D01*
X138907047Y-53286035D01*
X138938000Y-53347940D01*
X138999904Y-53409845D01*
X139092761Y-53440797D01*
X139154666Y-53440797D01*
X139247523Y-53409845D01*
X139278476Y-53378892D01*
X139278476Y-53162226D01*
X139154666Y-53162226D01*
X139557047Y-53100321D02*
X139773714Y-53100321D01*
X139866571Y-53440797D02*
X139557047Y-53440797D01*
X139557047Y-52790797D01*
X139866571Y-52790797D01*
X140145142Y-53440797D02*
X140145142Y-52790797D01*
X140516571Y-53440797D01*
X140516571Y-52790797D01*
X141181238Y-60858047D02*
X141583619Y-60858047D01*
X141366952Y-61105666D01*
X141459809Y-61105666D01*
X141521714Y-61136619D01*
X141552666Y-61167571D01*
X141583619Y-61229476D01*
X141583619Y-61384238D01*
X141552666Y-61446142D01*
X141521714Y-61477095D01*
X141459809Y-61508047D01*
X141274095Y-61508047D01*
X141212190Y-61477095D01*
X141181238Y-61446142D01*
X141769333Y-60858047D02*
X141986000Y-61508047D01*
X142202666Y-60858047D01*
X142357428Y-60858047D02*
X142759809Y-60858047D01*
X142543142Y-61105666D01*
X142636000Y-61105666D01*
X142697904Y-61136619D01*
X142728857Y-61167571D01*
X142759809Y-61229476D01*
X142759809Y-61384238D01*
X142728857Y-61446142D01*
X142697904Y-61477095D01*
X142636000Y-61508047D01*
X142450285Y-61508047D01*
X142388380Y-61477095D01*
X142357428Y-61446142D01*
D10*
X141307428Y-73608380D02*
X141378857Y-73632190D01*
X141497904Y-73632190D01*
X141545523Y-73608380D01*
X141569333Y-73584571D01*
X141593142Y-73536952D01*
X141593142Y-73489333D01*
X141569333Y-73441714D01*
X141545523Y-73417904D01*
X141497904Y-73394095D01*
X141402666Y-73370285D01*
X141355047Y-73346476D01*
X141331238Y-73322666D01*
X141307428Y-73275047D01*
X141307428Y-73227428D01*
X141331238Y-73179809D01*
X141355047Y-73156000D01*
X141402666Y-73132190D01*
X141521714Y-73132190D01*
X141593142Y-73156000D01*
X141759809Y-73132190D02*
X141878857Y-73632190D01*
X141974095Y-73275047D01*
X142069333Y-73632190D01*
X142188380Y-73132190D01*
X142378857Y-73632190D02*
X142378857Y-73132190D01*
X142497904Y-73132190D01*
X142569333Y-73156000D01*
X142616952Y-73203619D01*
X142640761Y-73251238D01*
X142664571Y-73346476D01*
X142664571Y-73417904D01*
X142640761Y-73513142D01*
X142616952Y-73560761D01*
X142569333Y-73608380D01*
X142497904Y-73632190D01*
X142378857Y-73632190D01*
D11*
X139629000Y-71361238D02*
X139598047Y-71423142D01*
X139598047Y-71516000D01*
X139629000Y-71608857D01*
X139690904Y-71670761D01*
X139752809Y-71701714D01*
X139876619Y-71732666D01*
X139969476Y-71732666D01*
X140093285Y-71701714D01*
X140155190Y-71670761D01*
X140217095Y-71608857D01*
X140248047Y-71516000D01*
X140248047Y-71454095D01*
X140217095Y-71361238D01*
X140186142Y-71330285D01*
X139969476Y-71330285D01*
X139969476Y-71454095D01*
X140248047Y-71051714D02*
X139598047Y-71051714D01*
X140248047Y-70680285D01*
X139598047Y-70680285D01*
X140248047Y-70370761D02*
X139598047Y-70370761D01*
X139598047Y-70216000D01*
X139629000Y-70123142D01*
X139690904Y-70061238D01*
X139752809Y-70030285D01*
X139876619Y-69999333D01*
X139969476Y-69999333D01*
X140093285Y-70030285D01*
X140155190Y-70061238D01*
X140217095Y-70123142D01*
X140248047Y-70216000D01*
X140248047Y-70370761D01*
X139109392Y-68712904D02*
X139140345Y-68743857D01*
X139171297Y-68836714D01*
X139171297Y-68898619D01*
X139140345Y-68991476D01*
X139078440Y-69053380D01*
X139016535Y-69084333D01*
X138892726Y-69115285D01*
X138799869Y-69115285D01*
X138676059Y-69084333D01*
X138614154Y-69053380D01*
X138552250Y-68991476D01*
X138521297Y-68898619D01*
X138521297Y-68836714D01*
X138552250Y-68743857D01*
X138583202Y-68712904D01*
X139171297Y-68124809D02*
X139171297Y-68434333D01*
X138521297Y-68434333D01*
X139171297Y-67908142D02*
X138521297Y-67908142D01*
X139171297Y-67536714D02*
X138799869Y-67815285D01*
X138521297Y-67536714D02*
X138892726Y-67908142D01*
X139875464Y-68511714D02*
X140308797Y-68511714D01*
X139627845Y-68666476D02*
X140092130Y-68821238D01*
X140092130Y-68418857D01*
X139658797Y-67892666D02*
X139658797Y-68016476D01*
X139689750Y-68078380D01*
X139720702Y-68109333D01*
X139813559Y-68171238D01*
X139937369Y-68202190D01*
X140184988Y-68202190D01*
X140246892Y-68171238D01*
X140277845Y-68140285D01*
X140308797Y-68078380D01*
X140308797Y-67954571D01*
X140277845Y-67892666D01*
X140246892Y-67861714D01*
X140184988Y-67830761D01*
X140030226Y-67830761D01*
X139968321Y-67861714D01*
X139937369Y-67892666D01*
X139906416Y-67954571D01*
X139906416Y-68078380D01*
X139937369Y-68140285D01*
X139968321Y-68171238D01*
X140030226Y-68202190D01*
X139171297Y-66197476D02*
X138521297Y-66197476D01*
X138521297Y-66042714D01*
X138552250Y-65949857D01*
X138614154Y-65887952D01*
X138676059Y-65857000D01*
X138799869Y-65826047D01*
X138892726Y-65826047D01*
X139016535Y-65857000D01*
X139078440Y-65887952D01*
X139140345Y-65949857D01*
X139171297Y-66042714D01*
X139171297Y-66197476D01*
X139171297Y-65547476D02*
X138521297Y-65547476D01*
X138521297Y-65114142D02*
X138521297Y-64990333D01*
X138552250Y-64928428D01*
X138614154Y-64866523D01*
X138737964Y-64835571D01*
X138954630Y-64835571D01*
X139078440Y-64866523D01*
X139140345Y-64928428D01*
X139171297Y-64990333D01*
X139171297Y-65114142D01*
X139140345Y-65176047D01*
X139078440Y-65237952D01*
X138954630Y-65268904D01*
X138737964Y-65268904D01*
X138614154Y-65237952D01*
X138552250Y-65176047D01*
X138521297Y-65114142D01*
X139875464Y-65717714D02*
X140308797Y-65717714D01*
X139627845Y-65872476D02*
X140092130Y-66027238D01*
X140092130Y-65624857D01*
X139658797Y-65439142D02*
X139658797Y-65005809D01*
X140308797Y-65284380D01*
D10*
X112839523Y-52867714D02*
X113220476Y-52867714D01*
X113030000Y-53058190D02*
X113030000Y-52677238D01*
X122237523Y-70901714D02*
X122618476Y-70901714D01*
X122428000Y-71092190D02*
X122428000Y-70711238D01*
D11*
X112054047Y-78169142D02*
X111404047Y-78169142D01*
X111404047Y-77921523D01*
X111435000Y-77859619D01*
X111465952Y-77828666D01*
X111527857Y-77797714D01*
X111620714Y-77797714D01*
X111682619Y-77828666D01*
X111713571Y-77859619D01*
X111744523Y-77921523D01*
X111744523Y-78169142D01*
X112054047Y-77519142D02*
X111404047Y-77519142D01*
X111868333Y-77302476D01*
X111404047Y-77085809D01*
X112054047Y-77085809D01*
X111404047Y-76652476D02*
X111404047Y-76528666D01*
X111435000Y-76466761D01*
X111496904Y-76404857D01*
X111620714Y-76373904D01*
X111837380Y-76373904D01*
X111961190Y-76404857D01*
X112023095Y-76466761D01*
X112054047Y-76528666D01*
X112054047Y-76652476D01*
X112023095Y-76714380D01*
X111961190Y-76776285D01*
X111837380Y-76807238D01*
X111620714Y-76807238D01*
X111496904Y-76776285D01*
X111435000Y-76714380D01*
X111404047Y-76652476D01*
X112054047Y-76095333D02*
X111404047Y-76095333D01*
X111404047Y-75940571D01*
X111435000Y-75847714D01*
X111496904Y-75785809D01*
X111558809Y-75754857D01*
X111682619Y-75723904D01*
X111775476Y-75723904D01*
X111899285Y-75754857D01*
X111961190Y-75785809D01*
X112023095Y-75847714D01*
X112054047Y-75940571D01*
X112054047Y-76095333D01*
D10*
X137985523Y-69250714D02*
X138366476Y-69250714D01*
X138176000Y-69441190D02*
X138176000Y-69060238D01*
X110426523Y-48676714D02*
X110807476Y-48676714D01*
X110617000Y-48867190D02*
X110617000Y-48486238D01*
D12*
X136450605Y-58928000D02*
G75*
G03*
X136450605Y-58928000I-179605J0D01*
G01*
D11*
X108347357Y-87689190D02*
X108316404Y-87658238D01*
X108285452Y-87565380D01*
X108285452Y-87503476D01*
X108316404Y-87410619D01*
X108378309Y-87348714D01*
X108440214Y-87317761D01*
X108564023Y-87286809D01*
X108656880Y-87286809D01*
X108780690Y-87317761D01*
X108842595Y-87348714D01*
X108904500Y-87410619D01*
X108935452Y-87503476D01*
X108935452Y-87565380D01*
X108904500Y-87658238D01*
X108873547Y-87689190D01*
X108285452Y-87967761D02*
X108935452Y-87967761D01*
X108625928Y-87967761D02*
X108625928Y-88339190D01*
X108285452Y-88339190D02*
X108935452Y-88339190D01*
X108935452Y-88772523D02*
X108935452Y-88834428D01*
X108904500Y-88896333D01*
X108873547Y-88927285D01*
X108811642Y-88958238D01*
X108687833Y-88989190D01*
X108533071Y-88989190D01*
X108409261Y-88958238D01*
X108347357Y-88927285D01*
X108316404Y-88896333D01*
X108285452Y-88834428D01*
X108285452Y-88772523D01*
X108316404Y-88710619D01*
X108347357Y-88679666D01*
X108409261Y-88648714D01*
X108533071Y-88617761D01*
X108687833Y-88617761D01*
X108811642Y-88648714D01*
X108873547Y-88679666D01*
X108904500Y-88710619D01*
X108935452Y-88772523D01*
X106660452Y-87921333D02*
X106660452Y-88323714D01*
X106412833Y-88107047D01*
X106412833Y-88199904D01*
X106381880Y-88261809D01*
X106350928Y-88292761D01*
X106289023Y-88323714D01*
X106134261Y-88323714D01*
X106072357Y-88292761D01*
X106041404Y-88261809D01*
X106010452Y-88199904D01*
X106010452Y-88014190D01*
X106041404Y-87952285D01*
X106072357Y-87921333D01*
X108347357Y-85149190D02*
X108316404Y-85118238D01*
X108285452Y-85025380D01*
X108285452Y-84963476D01*
X108316404Y-84870619D01*
X108378309Y-84808714D01*
X108440214Y-84777761D01*
X108564023Y-84746809D01*
X108656880Y-84746809D01*
X108780690Y-84777761D01*
X108842595Y-84808714D01*
X108904500Y-84870619D01*
X108935452Y-84963476D01*
X108935452Y-85025380D01*
X108904500Y-85118238D01*
X108873547Y-85149190D01*
X108285452Y-85427761D02*
X108935452Y-85427761D01*
X108625928Y-85427761D02*
X108625928Y-85799190D01*
X108285452Y-85799190D02*
X108935452Y-85799190D01*
X108285452Y-86449190D02*
X108285452Y-86077761D01*
X108285452Y-86263476D02*
X108935452Y-86263476D01*
X108842595Y-86201571D01*
X108780690Y-86139666D01*
X108749738Y-86077761D01*
X107147952Y-85087285D02*
X107457476Y-84870619D01*
X107147952Y-84715857D02*
X107797952Y-84715857D01*
X107797952Y-84963476D01*
X107767000Y-85025380D01*
X107736047Y-85056333D01*
X107674142Y-85087285D01*
X107581285Y-85087285D01*
X107519380Y-85056333D01*
X107488428Y-85025380D01*
X107457476Y-84963476D01*
X107457476Y-84715857D01*
X107797952Y-85303952D02*
X107147952Y-85737285D01*
X107797952Y-85737285D02*
X107147952Y-85303952D01*
X107395571Y-85984904D02*
X107395571Y-86480142D01*
X106660452Y-85721809D02*
X106660452Y-85598000D01*
X106629500Y-85536095D01*
X106598547Y-85505142D01*
X106505690Y-85443238D01*
X106381880Y-85412285D01*
X106134261Y-85412285D01*
X106072357Y-85443238D01*
X106041404Y-85474190D01*
X106010452Y-85536095D01*
X106010452Y-85659904D01*
X106041404Y-85721809D01*
X106072357Y-85752761D01*
X106134261Y-85783714D01*
X106289023Y-85783714D01*
X106350928Y-85752761D01*
X106381880Y-85721809D01*
X106412833Y-85659904D01*
X106412833Y-85536095D01*
X106381880Y-85474190D01*
X106350928Y-85443238D01*
X106289023Y-85412285D01*
X108347357Y-82609190D02*
X108316404Y-82578238D01*
X108285452Y-82485380D01*
X108285452Y-82423476D01*
X108316404Y-82330619D01*
X108378309Y-82268714D01*
X108440214Y-82237761D01*
X108564023Y-82206809D01*
X108656880Y-82206809D01*
X108780690Y-82237761D01*
X108842595Y-82268714D01*
X108904500Y-82330619D01*
X108935452Y-82423476D01*
X108935452Y-82485380D01*
X108904500Y-82578238D01*
X108873547Y-82609190D01*
X108285452Y-82887761D02*
X108935452Y-82887761D01*
X108625928Y-82887761D02*
X108625928Y-83259190D01*
X108285452Y-83259190D02*
X108935452Y-83259190D01*
X108873547Y-83537761D02*
X108904500Y-83568714D01*
X108935452Y-83630619D01*
X108935452Y-83785380D01*
X108904500Y-83847285D01*
X108873547Y-83878238D01*
X108811642Y-83909190D01*
X108749738Y-83909190D01*
X108656880Y-83878238D01*
X108285452Y-83506809D01*
X108285452Y-83909190D01*
X107147952Y-82547285D02*
X107457476Y-82330619D01*
X107147952Y-82175857D02*
X107797952Y-82175857D01*
X107797952Y-82423476D01*
X107767000Y-82485380D01*
X107736047Y-82516333D01*
X107674142Y-82547285D01*
X107581285Y-82547285D01*
X107519380Y-82516333D01*
X107488428Y-82485380D01*
X107457476Y-82423476D01*
X107457476Y-82175857D01*
X107797952Y-82763952D02*
X107147952Y-83197285D01*
X107797952Y-83197285D02*
X107147952Y-82763952D01*
X107395571Y-83444904D02*
X107395571Y-83940142D01*
X107147952Y-83692523D02*
X107643190Y-83692523D01*
X106660452Y-82841333D02*
X106660452Y-83274666D01*
X106010452Y-82996095D01*
X108347357Y-80069190D02*
X108316404Y-80038238D01*
X108285452Y-79945380D01*
X108285452Y-79883476D01*
X108316404Y-79790619D01*
X108378309Y-79728714D01*
X108440214Y-79697761D01*
X108564023Y-79666809D01*
X108656880Y-79666809D01*
X108780690Y-79697761D01*
X108842595Y-79728714D01*
X108904500Y-79790619D01*
X108935452Y-79883476D01*
X108935452Y-79945380D01*
X108904500Y-80038238D01*
X108873547Y-80069190D01*
X108285452Y-80347761D02*
X108935452Y-80347761D01*
X108625928Y-80347761D02*
X108625928Y-80719190D01*
X108285452Y-80719190D02*
X108935452Y-80719190D01*
X108935452Y-80966809D02*
X108935452Y-81369190D01*
X108687833Y-81152523D01*
X108687833Y-81245380D01*
X108656880Y-81307285D01*
X108625928Y-81338238D01*
X108564023Y-81369190D01*
X108409261Y-81369190D01*
X108347357Y-81338238D01*
X108316404Y-81307285D01*
X108285452Y-81245380D01*
X108285452Y-81059666D01*
X108316404Y-80997761D01*
X108347357Y-80966809D01*
X107797952Y-79620380D02*
X107797952Y-79991809D01*
X107147952Y-79806095D02*
X107797952Y-79806095D01*
X107797952Y-80146571D02*
X107147952Y-80579904D01*
X107797952Y-80579904D02*
X107147952Y-80146571D01*
X107395571Y-80827523D02*
X107395571Y-81322761D01*
X106010452Y-80394190D02*
X106010452Y-80518000D01*
X106041404Y-80579904D01*
X106072357Y-80610857D01*
X106165214Y-80672761D01*
X106289023Y-80703714D01*
X106536642Y-80703714D01*
X106598547Y-80672761D01*
X106629500Y-80641809D01*
X106660452Y-80579904D01*
X106660452Y-80456095D01*
X106629500Y-80394190D01*
X106598547Y-80363238D01*
X106536642Y-80332285D01*
X106381880Y-80332285D01*
X106319976Y-80363238D01*
X106289023Y-80394190D01*
X106258071Y-80456095D01*
X106258071Y-80579904D01*
X106289023Y-80641809D01*
X106319976Y-80672761D01*
X106381880Y-80703714D01*
X108347357Y-77529190D02*
X108316404Y-77498238D01*
X108285452Y-77405380D01*
X108285452Y-77343476D01*
X108316404Y-77250619D01*
X108378309Y-77188714D01*
X108440214Y-77157761D01*
X108564023Y-77126809D01*
X108656880Y-77126809D01*
X108780690Y-77157761D01*
X108842595Y-77188714D01*
X108904500Y-77250619D01*
X108935452Y-77343476D01*
X108935452Y-77405380D01*
X108904500Y-77498238D01*
X108873547Y-77529190D01*
X108285452Y-77807761D02*
X108935452Y-77807761D01*
X108625928Y-77807761D02*
X108625928Y-78179190D01*
X108285452Y-78179190D02*
X108935452Y-78179190D01*
X108718785Y-78767285D02*
X108285452Y-78767285D01*
X108966404Y-78612523D02*
X108502119Y-78457761D01*
X108502119Y-78860142D01*
X107797952Y-77080380D02*
X107797952Y-77451809D01*
X107147952Y-77266095D02*
X107797952Y-77266095D01*
X107797952Y-77606571D02*
X107147952Y-78039904D01*
X107797952Y-78039904D02*
X107147952Y-77606571D01*
X107395571Y-78287523D02*
X107395571Y-78782761D01*
X107147952Y-78535142D02*
X107643190Y-78535142D01*
X106010452Y-77854190D02*
X106010452Y-77482761D01*
X106010452Y-77668476D02*
X106660452Y-77668476D01*
X106567595Y-77606571D01*
X106505690Y-77544666D01*
X106474738Y-77482761D01*
X106660452Y-78256571D02*
X106660452Y-78318476D01*
X106629500Y-78380380D01*
X106598547Y-78411333D01*
X106536642Y-78442285D01*
X106412833Y-78473238D01*
X106258071Y-78473238D01*
X106134261Y-78442285D01*
X106072357Y-78411333D01*
X106041404Y-78380380D01*
X106010452Y-78318476D01*
X106010452Y-78256571D01*
X106041404Y-78194666D01*
X106072357Y-78163714D01*
X106134261Y-78132761D01*
X106258071Y-78101809D01*
X106412833Y-78101809D01*
X106536642Y-78132761D01*
X106598547Y-78163714D01*
X106629500Y-78194666D01*
X106660452Y-78256571D01*
X108285452Y-75066571D02*
X108594976Y-74849904D01*
X108285452Y-74695142D02*
X108935452Y-74695142D01*
X108935452Y-74942761D01*
X108904500Y-75004666D01*
X108873547Y-75035619D01*
X108811642Y-75066571D01*
X108718785Y-75066571D01*
X108656880Y-75035619D01*
X108625928Y-75004666D01*
X108594976Y-74942761D01*
X108594976Y-74695142D01*
X108625928Y-75345142D02*
X108625928Y-75561809D01*
X108285452Y-75654666D02*
X108285452Y-75345142D01*
X108935452Y-75345142D01*
X108935452Y-75654666D01*
X108625928Y-76149904D02*
X108625928Y-75933238D01*
X108285452Y-75933238D02*
X108935452Y-75933238D01*
X108935452Y-76242761D01*
X106443785Y-75252285D02*
X106010452Y-75252285D01*
X106691404Y-75097523D02*
X106227119Y-74942761D01*
X106227119Y-75345142D01*
X106660452Y-75902285D02*
X106660452Y-75592761D01*
X106350928Y-75561809D01*
X106381880Y-75592761D01*
X106412833Y-75654666D01*
X106412833Y-75809428D01*
X106381880Y-75871333D01*
X106350928Y-75902285D01*
X106289023Y-75933238D01*
X106134261Y-75933238D01*
X106072357Y-75902285D01*
X106041404Y-75871333D01*
X106010452Y-75809428D01*
X106010452Y-75654666D01*
X106041404Y-75592761D01*
X106072357Y-75561809D01*
X106654952Y-72093238D02*
X106654952Y-72495619D01*
X106407333Y-72278952D01*
X106407333Y-72371809D01*
X106376380Y-72433714D01*
X106345428Y-72464666D01*
X106283523Y-72495619D01*
X106128761Y-72495619D01*
X106066857Y-72464666D01*
X106035904Y-72433714D01*
X106004952Y-72371809D01*
X106004952Y-72186095D01*
X106035904Y-72124190D01*
X106066857Y-72093238D01*
X106654952Y-72681333D02*
X106004952Y-72898000D01*
X106654952Y-73114666D01*
X106654952Y-73269428D02*
X106654952Y-73671809D01*
X106407333Y-73455142D01*
X106407333Y-73548000D01*
X106376380Y-73609904D01*
X106345428Y-73640857D01*
X106283523Y-73671809D01*
X106128761Y-73671809D01*
X106066857Y-73640857D01*
X106035904Y-73609904D01*
X106004952Y-73548000D01*
X106004952Y-73362285D01*
X106035904Y-73300380D01*
X106066857Y-73269428D01*
X108471166Y-69934238D02*
X108471166Y-70243761D01*
X108285452Y-69872333D02*
X108935452Y-70089000D01*
X108285452Y-70305666D01*
X108285452Y-70522333D02*
X108935452Y-70522333D01*
X108935452Y-70677095D01*
X108904500Y-70769952D01*
X108842595Y-70831857D01*
X108780690Y-70862809D01*
X108656880Y-70893761D01*
X108564023Y-70893761D01*
X108440214Y-70862809D01*
X108378309Y-70831857D01*
X108316404Y-70769952D01*
X108285452Y-70677095D01*
X108285452Y-70522333D01*
X108347357Y-71543761D02*
X108316404Y-71512809D01*
X108285452Y-71419952D01*
X108285452Y-71358047D01*
X108316404Y-71265190D01*
X108378309Y-71203285D01*
X108440214Y-71172333D01*
X108564023Y-71141380D01*
X108656880Y-71141380D01*
X108780690Y-71172333D01*
X108842595Y-71203285D01*
X108904500Y-71265190D01*
X108935452Y-71358047D01*
X108935452Y-71419952D01*
X108904500Y-71512809D01*
X108873547Y-71543761D01*
X107147952Y-70027095D02*
X107147952Y-69717571D01*
X107797952Y-69717571D01*
X107797952Y-70150904D02*
X107147952Y-70367571D01*
X107797952Y-70584238D01*
X107147952Y-70800904D02*
X107797952Y-70800904D01*
X107797952Y-70955666D01*
X107767000Y-71048523D01*
X107705095Y-71110428D01*
X107643190Y-71141380D01*
X107519380Y-71172333D01*
X107426523Y-71172333D01*
X107302714Y-71141380D01*
X107240809Y-71110428D01*
X107178904Y-71048523D01*
X107147952Y-70955666D01*
X107147952Y-70800904D01*
X107178904Y-71419952D02*
X107147952Y-71512809D01*
X107147952Y-71667571D01*
X107178904Y-71729476D01*
X107209857Y-71760428D01*
X107271761Y-71791380D01*
X107333666Y-71791380D01*
X107395571Y-71760428D01*
X107426523Y-71729476D01*
X107457476Y-71667571D01*
X107488428Y-71543761D01*
X107519380Y-71481857D01*
X107550333Y-71450904D01*
X107612238Y-71419952D01*
X107674142Y-71419952D01*
X107736047Y-71450904D01*
X107767000Y-71481857D01*
X107797952Y-71543761D01*
X107797952Y-71698523D01*
X107767000Y-71791380D01*
X106010452Y-70073523D02*
X106660452Y-70073523D01*
X106660452Y-70321142D01*
X106629500Y-70383047D01*
X106598547Y-70414000D01*
X106536642Y-70444952D01*
X106443785Y-70444952D01*
X106381880Y-70414000D01*
X106350928Y-70383047D01*
X106319976Y-70321142D01*
X106319976Y-70073523D01*
X106010452Y-70723523D02*
X106660452Y-70723523D01*
X106010452Y-71033047D02*
X106660452Y-71033047D01*
X106010452Y-71404476D01*
X106660452Y-71404476D01*
X119079571Y-52146428D02*
X119110523Y-52053571D01*
X119141476Y-52022619D01*
X119203380Y-51991666D01*
X119296238Y-51991666D01*
X119358142Y-52022619D01*
X119389095Y-52053571D01*
X119420047Y-52115476D01*
X119420047Y-52363095D01*
X118770047Y-52363095D01*
X118770047Y-52146428D01*
X118801000Y-52084523D01*
X118831952Y-52053571D01*
X118893857Y-52022619D01*
X118955761Y-52022619D01*
X119017666Y-52053571D01*
X119048619Y-52084523D01*
X119079571Y-52146428D01*
X119079571Y-52363095D01*
X119420047Y-51620238D02*
X119389095Y-51682142D01*
X119327190Y-51713095D01*
X118770047Y-51713095D01*
X119420047Y-51094047D02*
X119079571Y-51094047D01*
X119017666Y-51125000D01*
X118986714Y-51186904D01*
X118986714Y-51310714D01*
X119017666Y-51372619D01*
X119389095Y-51094047D02*
X119420047Y-51155952D01*
X119420047Y-51310714D01*
X119389095Y-51372619D01*
X119327190Y-51403571D01*
X119265285Y-51403571D01*
X119203380Y-51372619D01*
X119172428Y-51310714D01*
X119172428Y-51155952D01*
X119141476Y-51094047D01*
X119389095Y-50815476D02*
X119420047Y-50753571D01*
X119420047Y-50629761D01*
X119389095Y-50567857D01*
X119327190Y-50536904D01*
X119296238Y-50536904D01*
X119234333Y-50567857D01*
X119203380Y-50629761D01*
X119203380Y-50722619D01*
X119172428Y-50784523D01*
X119110523Y-50815476D01*
X119079571Y-50815476D01*
X119017666Y-50784523D01*
X118986714Y-50722619D01*
X118986714Y-50629761D01*
X119017666Y-50567857D01*
X118986714Y-50351190D02*
X118986714Y-50103571D01*
X118770047Y-50258333D02*
X119327190Y-50258333D01*
X119389095Y-50227380D01*
X119420047Y-50165476D01*
X119420047Y-50103571D01*
X119389095Y-49639285D02*
X119420047Y-49701190D01*
X119420047Y-49825000D01*
X119389095Y-49886904D01*
X119327190Y-49917857D01*
X119079571Y-49917857D01*
X119017666Y-49886904D01*
X118986714Y-49825000D01*
X118986714Y-49701190D01*
X119017666Y-49639285D01*
X119079571Y-49608333D01*
X119141476Y-49608333D01*
X119203380Y-49917857D01*
X119420047Y-49329761D02*
X118986714Y-49329761D01*
X119110523Y-49329761D02*
X119048619Y-49298809D01*
X119017666Y-49267857D01*
X118986714Y-49205952D01*
X118986714Y-49144047D01*
X114086047Y-80857047D02*
X113436047Y-80857047D01*
X113436047Y-80609428D01*
X113467000Y-80547523D01*
X113497952Y-80516571D01*
X113559857Y-80485619D01*
X113652714Y-80485619D01*
X113714619Y-80516571D01*
X113745571Y-80547523D01*
X113776523Y-80609428D01*
X113776523Y-80857047D01*
X114086047Y-80207047D02*
X113436047Y-80207047D01*
X113900333Y-79990380D01*
X113436047Y-79773714D01*
X114086047Y-79773714D01*
X113436047Y-79340380D02*
X113436047Y-79216571D01*
X113467000Y-79154666D01*
X113528904Y-79092761D01*
X113652714Y-79061809D01*
X113869380Y-79061809D01*
X113993190Y-79092761D01*
X114055095Y-79154666D01*
X114086047Y-79216571D01*
X114086047Y-79340380D01*
X114055095Y-79402285D01*
X113993190Y-79464190D01*
X113869380Y-79495142D01*
X113652714Y-79495142D01*
X113528904Y-79464190D01*
X113467000Y-79402285D01*
X113436047Y-79340380D01*
X114086047Y-78783238D02*
X113436047Y-78783238D01*
X113436047Y-78628476D01*
X113467000Y-78535619D01*
X113528904Y-78473714D01*
X113590809Y-78442761D01*
X113714619Y-78411809D01*
X113807476Y-78411809D01*
X113931285Y-78442761D01*
X113993190Y-78473714D01*
X114055095Y-78535619D01*
X114086047Y-78628476D01*
X114086047Y-78783238D01*
X114147952Y-78288000D02*
X114147952Y-77792761D01*
X114086047Y-77638000D02*
X113436047Y-77638000D01*
X113497952Y-77359428D02*
X113467000Y-77328476D01*
X113436047Y-77266571D01*
X113436047Y-77111809D01*
X113467000Y-77049904D01*
X113497952Y-77018952D01*
X113559857Y-76988000D01*
X113621761Y-76988000D01*
X113714619Y-77018952D01*
X114086047Y-77390380D01*
X114086047Y-76988000D01*
X114024142Y-76338000D02*
X114055095Y-76368952D01*
X114086047Y-76461809D01*
X114086047Y-76523714D01*
X114055095Y-76616571D01*
X113993190Y-76678476D01*
X113931285Y-76709428D01*
X113807476Y-76740380D01*
X113714619Y-76740380D01*
X113590809Y-76709428D01*
X113528904Y-76678476D01*
X113467000Y-76616571D01*
X113436047Y-76523714D01*
X113436047Y-76461809D01*
X113467000Y-76368952D01*
X113497952Y-76338000D01*
D13*
%TO.C,U1*%
X134986000Y-58874000D02*
X134986000Y-57584000D01*
X135436000Y-58874000D02*
X134986000Y-58874000D01*
X135436000Y-59324000D02*
X135436000Y-58874000D01*
X135436000Y-66094000D02*
X134986000Y-66094000D01*
X135436000Y-65644000D02*
X135436000Y-66094000D01*
X128216000Y-58874000D02*
X128666000Y-58874000D01*
X128216000Y-59324000D02*
X128216000Y-58874000D01*
X128216000Y-66094000D02*
X128666000Y-66094000D01*
X128216000Y-65644000D02*
X128216000Y-66094000D01*
%TO.C,X1*%
X121108000Y-55859001D02*
X121638000Y-55859001D01*
X121638000Y-55859001D02*
X121638000Y-59459001D01*
X121638000Y-59459001D02*
X121108000Y-59459001D01*
X118568000Y-55859001D02*
X119308000Y-55859001D01*
X116768000Y-59699001D02*
X116768000Y-59459001D01*
X116768000Y-59459001D02*
X116238000Y-59459001D01*
X116238000Y-59459001D02*
X116238000Y-55859001D01*
X116238000Y-55859001D02*
X116768000Y-55859001D01*
X119308000Y-59459001D02*
X118568000Y-59459001D01*
X118568000Y-59459001D02*
X118568000Y-59699001D01*
%TO.C,C16*%
X114956000Y-57511836D02*
X114956000Y-57296164D01*
X115676000Y-57511836D02*
X115676000Y-57296164D01*
%TO.C,SW1*%
X112534000Y-52102000D02*
X106414000Y-52102000D01*
X106414000Y-52102000D02*
X106414000Y-48482000D01*
X106414000Y-48482000D02*
X112534000Y-48482000D01*
X112534000Y-48482000D02*
X112534000Y-52102000D01*
%TO.C,J7*%
X140656000Y-61916000D02*
X141986000Y-61916000D01*
X140656000Y-63246000D02*
X140656000Y-61916000D01*
X140656000Y-64516000D02*
X143316000Y-64516000D01*
X143316000Y-64516000D02*
X143316000Y-72196000D01*
X140656000Y-64516000D02*
X140656000Y-72196000D01*
X140656000Y-72196000D02*
X143316000Y-72196000D01*
%TO.C,Y1*%
X132856000Y-77204000D02*
X141256000Y-77204000D01*
X141256000Y-77204000D02*
X141256000Y-73804000D01*
X141256000Y-73804000D02*
X132856000Y-73804000D01*
X132856000Y-73804000D02*
X132856000Y-77204000D01*
X132856000Y-76049000D02*
X131706000Y-76454000D01*
X131706000Y-76454000D02*
X131256000Y-76454000D01*
X132856000Y-74959000D02*
X131706000Y-74554000D01*
X131706000Y-74554000D02*
X131256000Y-74554000D01*
%TO.C,J4*%
X112582000Y-89592000D02*
X112582000Y-80962000D01*
X112700095Y-89592000D02*
X112700095Y-80962000D01*
X112818190Y-89592000D02*
X112818190Y-80962000D01*
X112936285Y-89592000D02*
X112936285Y-80962000D01*
X113054380Y-89592000D02*
X113054380Y-80962000D01*
X113172475Y-89592000D02*
X113172475Y-80962000D01*
X113290570Y-89592000D02*
X113290570Y-80962000D01*
X113408665Y-89592000D02*
X113408665Y-80962000D01*
X113526760Y-89592000D02*
X113526760Y-80962000D01*
X113644855Y-89592000D02*
X113644855Y-80962000D01*
X113762950Y-89592000D02*
X113762950Y-80962000D01*
X113881045Y-89592000D02*
X113881045Y-80962000D01*
X113999140Y-89592000D02*
X113999140Y-80962000D01*
X114117235Y-89592000D02*
X114117235Y-80962000D01*
X114235330Y-89592000D02*
X114235330Y-80962000D01*
X114353425Y-89592000D02*
X114353425Y-80962000D01*
X114471520Y-89592000D02*
X114471520Y-80962000D01*
X114589615Y-89592000D02*
X114589615Y-80962000D01*
X114707710Y-89592000D02*
X114707710Y-80962000D01*
X114825805Y-89592000D02*
X114825805Y-80962000D01*
X114943900Y-89592000D02*
X114943900Y-80962000D01*
X113432000Y-80962000D02*
X113432000Y-80552000D01*
X113432000Y-78452000D02*
X113432000Y-78072000D01*
X114152000Y-80962000D02*
X114152000Y-80552000D01*
X114152000Y-78452000D02*
X114152000Y-78072000D01*
X115972000Y-80962000D02*
X115972000Y-80552000D01*
X115972000Y-78452000D02*
X115972000Y-78012000D01*
X116692000Y-80962000D02*
X116692000Y-80552000D01*
X116692000Y-78452000D02*
X116692000Y-78012000D01*
X118512000Y-80962000D02*
X118512000Y-80552000D01*
X118512000Y-78452000D02*
X118512000Y-78012000D01*
X119232000Y-80962000D02*
X119232000Y-80552000D01*
X119232000Y-78452000D02*
X119232000Y-78012000D01*
X121052000Y-80962000D02*
X121052000Y-80552000D01*
X121052000Y-78452000D02*
X121052000Y-78012000D01*
X121772000Y-80962000D02*
X121772000Y-80552000D01*
X121772000Y-78452000D02*
X121772000Y-78012000D01*
X123592000Y-80962000D02*
X123592000Y-80552000D01*
X123592000Y-78452000D02*
X123592000Y-78012000D01*
X124312000Y-80962000D02*
X124312000Y-80552000D01*
X124312000Y-78452000D02*
X124312000Y-78012000D01*
X126132000Y-80962000D02*
X126132000Y-80552000D01*
X126132000Y-78452000D02*
X126132000Y-78012000D01*
X126852000Y-80962000D02*
X126852000Y-80552000D01*
X126852000Y-78452000D02*
X126852000Y-78012000D01*
X115062000Y-89592000D02*
X115062000Y-80962000D01*
X117602000Y-89592000D02*
X117602000Y-80962000D01*
X120142000Y-89592000D02*
X120142000Y-80962000D01*
X122682000Y-89592000D02*
X122682000Y-80962000D01*
X125222000Y-89592000D02*
X125222000Y-80962000D01*
X112462000Y-89592000D02*
X112462000Y-80962000D01*
X112462000Y-80962000D02*
X127822000Y-80962000D01*
X127822000Y-89592000D02*
X127822000Y-80962000D01*
X112462000Y-89592000D02*
X127822000Y-89592000D01*
X112462000Y-75852000D02*
X113792000Y-75852000D01*
X112462000Y-76962000D02*
X112462000Y-75852000D01*
%TO.C,U2*%
X113430000Y-71125000D02*
X114690000Y-71125000D01*
X120250000Y-71125000D02*
X118990000Y-71125000D01*
X113430000Y-67365000D02*
X113430000Y-71125000D01*
X120250000Y-65115000D02*
X120250000Y-71125000D01*
D14*
%TO.C,U3*%
X136179000Y-83269000D02*
X136129000Y-83269000D01*
X136179000Y-87419000D02*
X136034000Y-87419000D01*
X131029000Y-87419000D02*
X131174000Y-87419000D01*
X131029000Y-83269000D02*
X131174000Y-83269000D01*
X136179000Y-83269000D02*
X136179000Y-87419000D01*
X131029000Y-83269000D02*
X131029000Y-87419000D01*
X136129000Y-83269000D02*
X136129000Y-81869000D01*
D13*
%TO.C,J8*%
X105978000Y-89468000D02*
X104648000Y-89468000D01*
X105978000Y-88138000D02*
X105978000Y-89468000D01*
X105978000Y-86868000D02*
X103318000Y-86868000D01*
X103318000Y-86868000D02*
X103318000Y-71568000D01*
X105978000Y-86868000D02*
X105978000Y-71568000D01*
X105978000Y-71568000D02*
X103318000Y-71568000D01*
%TO.C,D3*%
X125310000Y-69115000D02*
X123025000Y-69115000D01*
X125310000Y-70585000D02*
X125310000Y-69115000D01*
X123025000Y-70585000D02*
X125310000Y-70585000D01*
%TO.C,D4*%
X124625000Y-67591000D02*
X122340000Y-67591000D01*
X122340000Y-67591000D02*
X122340000Y-69061000D01*
X122340000Y-69061000D02*
X124625000Y-69061000D01*
%TO.C,D5*%
X122340000Y-67537000D02*
X124625000Y-67537000D01*
X122340000Y-66067000D02*
X122340000Y-67537000D01*
X124625000Y-66067000D02*
X122340000Y-66067000D01*
%TO.C,J2*%
X128234000Y-47940000D02*
X128234000Y-38590000D01*
X123734000Y-47940000D02*
X123734000Y-38590000D01*
X136414000Y-47940000D02*
X115554000Y-47940000D01*
X136414000Y-47940000D02*
X136414000Y-38590000D01*
X115554000Y-47940000D02*
X115554000Y-38590000D01*
X115554000Y-38590000D02*
X136414000Y-38590000D01*
X119634000Y-52070000D02*
X119634000Y-53340000D01*
X119634000Y-53340000D02*
X120904000Y-53340000D01*
%TO.C,C5*%
X114295422Y-62790000D02*
X114812578Y-62790000D01*
X114295422Y-64210000D02*
X114812578Y-64210000D01*
%TO.C,C6*%
X117851422Y-64210000D02*
X118368578Y-64210000D01*
X117851422Y-62790000D02*
X118368578Y-62790000D01*
%TO.C,J3*%
X137608000Y-51368000D02*
X137608000Y-50038000D01*
X138938000Y-51368000D02*
X137608000Y-51368000D01*
X140208000Y-51368000D02*
X140208000Y-48708000D01*
X140208000Y-48708000D02*
X142808000Y-48708000D01*
X140208000Y-51368000D02*
X142808000Y-51368000D01*
X142808000Y-51368000D02*
X142808000Y-48708000D01*
%TO.C,J1*%
X112810000Y-62365000D02*
X112310000Y-62865000D01*
X112810000Y-63365000D02*
X112810000Y-62365000D01*
X112310000Y-62865000D02*
X112810000Y-63365000D01*
X95370000Y-55455000D02*
X103730000Y-55455000D01*
X95370000Y-67775000D02*
X95370000Y-55455000D01*
X103730000Y-67775000D02*
X95370000Y-67775000D01*
X112090000Y-55455000D02*
X107830000Y-55455000D01*
X112090000Y-67775000D02*
X112090000Y-55455000D01*
X107830000Y-67775000D02*
X112090000Y-67775000D01*
%TO.C,D1*%
X117262000Y-55356000D02*
X117262000Y-53356000D01*
X117262000Y-53356000D02*
X113412000Y-53356000D01*
X117262000Y-55356000D02*
X113412000Y-55356000D01*
%TO.C,D2*%
X133436000Y-69104000D02*
X137286000Y-69104000D01*
X133436000Y-71104000D02*
X137286000Y-71104000D01*
X133436000Y-69104000D02*
X133436000Y-71104000D01*
%TO.C,FB1*%
X135036779Y-55370000D02*
X134711221Y-55370000D01*
X135036779Y-56390000D02*
X134711221Y-56390000D01*
%TO.C,U1*%
D10*
X137402190Y-62864952D02*
X137806952Y-62864952D01*
X137854571Y-62841142D01*
X137878380Y-62817333D01*
X137902190Y-62769714D01*
X137902190Y-62674476D01*
X137878380Y-62626857D01*
X137854571Y-62603047D01*
X137806952Y-62579238D01*
X137402190Y-62579238D01*
X137902190Y-62079238D02*
X137902190Y-62364952D01*
X137902190Y-62222095D02*
X137402190Y-62222095D01*
X137473619Y-62269714D01*
X137521238Y-62317333D01*
X137545047Y-62364952D01*
%TO.C,X1*%
X118533238Y-55098190D02*
X118866571Y-55598190D01*
X118866571Y-55098190D02*
X118533238Y-55598190D01*
X119318952Y-55598190D02*
X119033238Y-55598190D01*
X119176095Y-55598190D02*
X119176095Y-55098190D01*
X119128476Y-55169619D01*
X119080857Y-55217238D01*
X119033238Y-55241047D01*
%TO.C,C16*%
X114478571Y-57725428D02*
X114502380Y-57749238D01*
X114526190Y-57820666D01*
X114526190Y-57868285D01*
X114502380Y-57939714D01*
X114454761Y-57987333D01*
X114407142Y-58011142D01*
X114311904Y-58034952D01*
X114240476Y-58034952D01*
X114145238Y-58011142D01*
X114097619Y-57987333D01*
X114050000Y-57939714D01*
X114026190Y-57868285D01*
X114026190Y-57820666D01*
X114050000Y-57749238D01*
X114073809Y-57725428D01*
X114526190Y-57249238D02*
X114526190Y-57534952D01*
X114526190Y-57392095D02*
X114026190Y-57392095D01*
X114097619Y-57439714D01*
X114145238Y-57487333D01*
X114169047Y-57534952D01*
X114026190Y-56820666D02*
X114026190Y-56915904D01*
X114050000Y-56963523D01*
X114073809Y-56987333D01*
X114145238Y-57034952D01*
X114240476Y-57058761D01*
X114430952Y-57058761D01*
X114478571Y-57034952D01*
X114502380Y-57011142D01*
X114526190Y-56963523D01*
X114526190Y-56868285D01*
X114502380Y-56820666D01*
X114478571Y-56796857D01*
X114430952Y-56773047D01*
X114311904Y-56773047D01*
X114264285Y-56796857D01*
X114240476Y-56820666D01*
X114216666Y-56868285D01*
X114216666Y-56963523D01*
X114240476Y-57011142D01*
X114264285Y-57034952D01*
X114311904Y-57058761D01*
%TO.C,SW1*%
X108807333Y-52780380D02*
X108878761Y-52804190D01*
X108997809Y-52804190D01*
X109045428Y-52780380D01*
X109069238Y-52756571D01*
X109093047Y-52708952D01*
X109093047Y-52661333D01*
X109069238Y-52613714D01*
X109045428Y-52589904D01*
X108997809Y-52566095D01*
X108902571Y-52542285D01*
X108854952Y-52518476D01*
X108831142Y-52494666D01*
X108807333Y-52447047D01*
X108807333Y-52399428D01*
X108831142Y-52351809D01*
X108854952Y-52328000D01*
X108902571Y-52304190D01*
X109021619Y-52304190D01*
X109093047Y-52328000D01*
X109259714Y-52304190D02*
X109378761Y-52804190D01*
X109474000Y-52447047D01*
X109569238Y-52804190D01*
X109688285Y-52304190D01*
X110140666Y-52804190D02*
X109854952Y-52804190D01*
X109997809Y-52804190D02*
X109997809Y-52304190D01*
X109950190Y-52375619D01*
X109902571Y-52423238D01*
X109854952Y-52447047D01*
%TO.C,C9*%
X134028666Y-73457571D02*
X134004857Y-73481380D01*
X133933428Y-73505190D01*
X133885809Y-73505190D01*
X133814380Y-73481380D01*
X133766761Y-73433761D01*
X133742952Y-73386142D01*
X133719142Y-73290904D01*
X133719142Y-73219476D01*
X133742952Y-73124238D01*
X133766761Y-73076619D01*
X133814380Y-73029000D01*
X133885809Y-73005190D01*
X133933428Y-73005190D01*
X134004857Y-73029000D01*
X134028666Y-73052809D01*
X134266761Y-73505190D02*
X134362000Y-73505190D01*
X134409619Y-73481380D01*
X134433428Y-73457571D01*
X134481047Y-73386142D01*
X134504857Y-73290904D01*
X134504857Y-73100428D01*
X134481047Y-73052809D01*
X134457238Y-73029000D01*
X134409619Y-73005190D01*
X134314380Y-73005190D01*
X134266761Y-73029000D01*
X134242952Y-73052809D01*
X134219142Y-73100428D01*
X134219142Y-73219476D01*
X134242952Y-73267095D01*
X134266761Y-73290904D01*
X134314380Y-73314714D01*
X134409619Y-73314714D01*
X134457238Y-73290904D01*
X134481047Y-73267095D01*
X134504857Y-73219476D01*
%TO.C,J7*%
X141819333Y-72370190D02*
X141819333Y-72727333D01*
X141795523Y-72798761D01*
X141747904Y-72846380D01*
X141676476Y-72870190D01*
X141628857Y-72870190D01*
X142009809Y-72370190D02*
X142343142Y-72370190D01*
X142128857Y-72870190D01*
%TO.C,Y1*%
X141720095Y-75676095D02*
X141958190Y-75676095D01*
X141458190Y-75842761D02*
X141720095Y-75676095D01*
X141458190Y-75509428D01*
X141958190Y-75080857D02*
X141958190Y-75366571D01*
X141958190Y-75223714D02*
X141458190Y-75223714D01*
X141529619Y-75271333D01*
X141577238Y-75318952D01*
X141601047Y-75366571D01*
%TO.C,J4*%
X111404047Y-80226666D02*
X111868333Y-80226666D01*
X111961190Y-80257619D01*
X112023095Y-80319523D01*
X112054047Y-80412380D01*
X112054047Y-80474285D01*
X111620714Y-79638571D02*
X112054047Y-79638571D01*
X111373095Y-79793333D02*
X111837380Y-79948095D01*
X111837380Y-79545714D01*
%TO.C,U2*%
X120503190Y-69595952D02*
X120907952Y-69595952D01*
X120955571Y-69572142D01*
X120979380Y-69548333D01*
X121003190Y-69500714D01*
X121003190Y-69405476D01*
X120979380Y-69357857D01*
X120955571Y-69334047D01*
X120907952Y-69310238D01*
X120503190Y-69310238D01*
X120550809Y-69095952D02*
X120527000Y-69072142D01*
X120503190Y-69024523D01*
X120503190Y-68905476D01*
X120527000Y-68857857D01*
X120550809Y-68834047D01*
X120598428Y-68810238D01*
X120646047Y-68810238D01*
X120717476Y-68834047D01*
X121003190Y-69119761D01*
X121003190Y-68810238D01*
%TO.C,U3*%
X130213191Y-85652951D02*
X130617953Y-85652951D01*
X130665572Y-85629141D01*
X130689381Y-85605332D01*
X130713191Y-85557713D01*
X130713191Y-85462475D01*
X130689381Y-85414856D01*
X130665572Y-85391046D01*
X130617953Y-85367237D01*
X130213191Y-85367237D01*
X130213191Y-85176760D02*
X130213191Y-84867237D01*
X130403667Y-85033903D01*
X130403667Y-84962475D01*
X130427477Y-84914856D01*
X130451286Y-84891046D01*
X130498905Y-84867237D01*
X130617953Y-84867237D01*
X130665572Y-84891046D01*
X130689381Y-84914856D01*
X130713191Y-84962475D01*
X130713191Y-85105332D01*
X130689381Y-85152951D01*
X130665572Y-85176760D01*
%TO.C,C15*%
X137846571Y-85157428D02*
X137870380Y-85181238D01*
X137894190Y-85252666D01*
X137894190Y-85300285D01*
X137870380Y-85371714D01*
X137822761Y-85419333D01*
X137775142Y-85443142D01*
X137679904Y-85466952D01*
X137608476Y-85466952D01*
X137513238Y-85443142D01*
X137465619Y-85419333D01*
X137418000Y-85371714D01*
X137394190Y-85300285D01*
X137394190Y-85252666D01*
X137418000Y-85181238D01*
X137441809Y-85157428D01*
X137894190Y-84681238D02*
X137894190Y-84966952D01*
X137894190Y-84824095D02*
X137394190Y-84824095D01*
X137465619Y-84871714D01*
X137513238Y-84919333D01*
X137537047Y-84966952D01*
X137394190Y-84228857D02*
X137394190Y-84466952D01*
X137632285Y-84490761D01*
X137608476Y-84466952D01*
X137584666Y-84419333D01*
X137584666Y-84300285D01*
X137608476Y-84252666D01*
X137632285Y-84228857D01*
X137679904Y-84205047D01*
X137798952Y-84205047D01*
X137846571Y-84228857D01*
X137870380Y-84252666D01*
X137894190Y-84300285D01*
X137894190Y-84419333D01*
X137870380Y-84466952D01*
X137846571Y-84490761D01*
%TO.C,J8*%
X104481333Y-90194190D02*
X104481333Y-90551333D01*
X104457523Y-90622761D01*
X104409904Y-90670380D01*
X104338476Y-90694190D01*
X104290857Y-90694190D01*
X104790857Y-90408476D02*
X104743238Y-90384666D01*
X104719428Y-90360857D01*
X104695619Y-90313238D01*
X104695619Y-90289428D01*
X104719428Y-90241809D01*
X104743238Y-90218000D01*
X104790857Y-90194190D01*
X104886095Y-90194190D01*
X104933714Y-90218000D01*
X104957523Y-90241809D01*
X104981333Y-90289428D01*
X104981333Y-90313238D01*
X104957523Y-90360857D01*
X104933714Y-90384666D01*
X104886095Y-90408476D01*
X104790857Y-90408476D01*
X104743238Y-90432285D01*
X104719428Y-90456095D01*
X104695619Y-90503714D01*
X104695619Y-90598952D01*
X104719428Y-90646571D01*
X104743238Y-90670380D01*
X104790857Y-90694190D01*
X104886095Y-90694190D01*
X104933714Y-90670380D01*
X104957523Y-90646571D01*
X104981333Y-90598952D01*
X104981333Y-90503714D01*
X104957523Y-90456095D01*
X104933714Y-90432285D01*
X104886095Y-90408476D01*
%TO.C,D3*%
X123455952Y-71219190D02*
X123455952Y-70719190D01*
X123575000Y-70719190D01*
X123646428Y-70743000D01*
X123694047Y-70790619D01*
X123717857Y-70838238D01*
X123741666Y-70933476D01*
X123741666Y-71004904D01*
X123717857Y-71100142D01*
X123694047Y-71147761D01*
X123646428Y-71195380D01*
X123575000Y-71219190D01*
X123455952Y-71219190D01*
X123908333Y-70719190D02*
X124217857Y-70719190D01*
X124051190Y-70909666D01*
X124122619Y-70909666D01*
X124170238Y-70933476D01*
X124194047Y-70957285D01*
X124217857Y-71004904D01*
X124217857Y-71123952D01*
X124194047Y-71171571D01*
X124170238Y-71195380D01*
X124122619Y-71219190D01*
X123979761Y-71219190D01*
X123932142Y-71195380D01*
X123908333Y-71171571D01*
%TO.C,D4*%
X121423952Y-68171190D02*
X121423952Y-67671190D01*
X121543000Y-67671190D01*
X121614428Y-67695000D01*
X121662047Y-67742619D01*
X121685857Y-67790238D01*
X121709666Y-67885476D01*
X121709666Y-67956904D01*
X121685857Y-68052142D01*
X121662047Y-68099761D01*
X121614428Y-68147380D01*
X121543000Y-68171190D01*
X121423952Y-68171190D01*
X122138238Y-67837857D02*
X122138238Y-68171190D01*
X122019190Y-67647380D02*
X121900142Y-68004523D01*
X122209666Y-68004523D01*
%TO.C,D5*%
X121423952Y-67028190D02*
X121423952Y-66528190D01*
X121543000Y-66528190D01*
X121614428Y-66552000D01*
X121662047Y-66599619D01*
X121685857Y-66647238D01*
X121709666Y-66742476D01*
X121709666Y-66813904D01*
X121685857Y-66909142D01*
X121662047Y-66956761D01*
X121614428Y-67004380D01*
X121543000Y-67028190D01*
X121423952Y-67028190D01*
X122162047Y-66528190D02*
X121923952Y-66528190D01*
X121900142Y-66766285D01*
X121923952Y-66742476D01*
X121971571Y-66718666D01*
X122090619Y-66718666D01*
X122138238Y-66742476D01*
X122162047Y-66766285D01*
X122185857Y-66813904D01*
X122185857Y-66932952D01*
X122162047Y-66980571D01*
X122138238Y-67004380D01*
X122090619Y-67028190D01*
X121971571Y-67028190D01*
X121923952Y-67004380D01*
X121900142Y-66980571D01*
%TO.C,R8*%
X126916666Y-68552190D02*
X126750000Y-68314095D01*
X126630952Y-68552190D02*
X126630952Y-68052190D01*
X126821428Y-68052190D01*
X126869047Y-68076000D01*
X126892857Y-68099809D01*
X126916666Y-68147428D01*
X126916666Y-68218857D01*
X126892857Y-68266476D01*
X126869047Y-68290285D01*
X126821428Y-68314095D01*
X126630952Y-68314095D01*
X127202380Y-68266476D02*
X127154761Y-68242666D01*
X127130952Y-68218857D01*
X127107142Y-68171238D01*
X127107142Y-68147428D01*
X127130952Y-68099809D01*
X127154761Y-68076000D01*
X127202380Y-68052190D01*
X127297619Y-68052190D01*
X127345238Y-68076000D01*
X127369047Y-68099809D01*
X127392857Y-68147428D01*
X127392857Y-68171238D01*
X127369047Y-68218857D01*
X127345238Y-68242666D01*
X127297619Y-68266476D01*
X127202380Y-68266476D01*
X127154761Y-68290285D01*
X127130952Y-68314095D01*
X127107142Y-68361714D01*
X127107142Y-68456952D01*
X127130952Y-68504571D01*
X127154761Y-68528380D01*
X127202380Y-68552190D01*
X127297619Y-68552190D01*
X127345238Y-68528380D01*
X127369047Y-68504571D01*
X127392857Y-68456952D01*
X127392857Y-68361714D01*
X127369047Y-68314095D01*
X127345238Y-68290285D01*
X127297619Y-68266476D01*
%TO.C,R7*%
X126916666Y-69314190D02*
X126750000Y-69076095D01*
X126630952Y-69314190D02*
X126630952Y-68814190D01*
X126821428Y-68814190D01*
X126869047Y-68838000D01*
X126892857Y-68861809D01*
X126916666Y-68909428D01*
X126916666Y-68980857D01*
X126892857Y-69028476D01*
X126869047Y-69052285D01*
X126821428Y-69076095D01*
X126630952Y-69076095D01*
X127083333Y-68814190D02*
X127416666Y-68814190D01*
X127202380Y-69314190D01*
%TO.C,R6*%
X121892190Y-70949333D02*
X121654095Y-71116000D01*
X121892190Y-71235047D02*
X121392190Y-71235047D01*
X121392190Y-71044571D01*
X121416000Y-70996952D01*
X121439809Y-70973142D01*
X121487428Y-70949333D01*
X121558857Y-70949333D01*
X121606476Y-70973142D01*
X121630285Y-70996952D01*
X121654095Y-71044571D01*
X121654095Y-71235047D01*
X121392190Y-70520761D02*
X121392190Y-70616000D01*
X121416000Y-70663619D01*
X121439809Y-70687428D01*
X121511238Y-70735047D01*
X121606476Y-70758857D01*
X121796952Y-70758857D01*
X121844571Y-70735047D01*
X121868380Y-70711238D01*
X121892190Y-70663619D01*
X121892190Y-70568380D01*
X121868380Y-70520761D01*
X121844571Y-70496952D01*
X121796952Y-70473142D01*
X121677904Y-70473142D01*
X121630285Y-70496952D01*
X121606476Y-70520761D01*
X121582666Y-70568380D01*
X121582666Y-70663619D01*
X121606476Y-70711238D01*
X121630285Y-70735047D01*
X121677904Y-70758857D01*
%TO.C,R5*%
X132560190Y-53677333D02*
X132322095Y-53844000D01*
X132560190Y-53963047D02*
X132060190Y-53963047D01*
X132060190Y-53772571D01*
X132084000Y-53724952D01*
X132107809Y-53701142D01*
X132155428Y-53677333D01*
X132226857Y-53677333D01*
X132274476Y-53701142D01*
X132298285Y-53724952D01*
X132322095Y-53772571D01*
X132322095Y-53963047D01*
X132060190Y-53224952D02*
X132060190Y-53463047D01*
X132298285Y-53486857D01*
X132274476Y-53463047D01*
X132250666Y-53415428D01*
X132250666Y-53296380D01*
X132274476Y-53248761D01*
X132298285Y-53224952D01*
X132345904Y-53201142D01*
X132464952Y-53201142D01*
X132512571Y-53224952D01*
X132536380Y-53248761D01*
X132560190Y-53296380D01*
X132560190Y-53415428D01*
X132536380Y-53463047D01*
X132512571Y-53486857D01*
%TO.C,R4*%
X131798190Y-53677333D02*
X131560095Y-53844000D01*
X131798190Y-53963047D02*
X131298190Y-53963047D01*
X131298190Y-53772571D01*
X131322000Y-53724952D01*
X131345809Y-53701142D01*
X131393428Y-53677333D01*
X131464857Y-53677333D01*
X131512476Y-53701142D01*
X131536285Y-53724952D01*
X131560095Y-53772571D01*
X131560095Y-53963047D01*
X131464857Y-53248761D02*
X131798190Y-53248761D01*
X131274380Y-53367809D02*
X131631523Y-53486857D01*
X131631523Y-53177333D01*
%TO.C,J2*%
X118090190Y-50839666D02*
X118447333Y-50839666D01*
X118518761Y-50863476D01*
X118566380Y-50911095D01*
X118590190Y-50982523D01*
X118590190Y-51030142D01*
X118137809Y-50625380D02*
X118114000Y-50601571D01*
X118090190Y-50553952D01*
X118090190Y-50434904D01*
X118114000Y-50387285D01*
X118137809Y-50363476D01*
X118185428Y-50339666D01*
X118233047Y-50339666D01*
X118304476Y-50363476D01*
X118590190Y-50649190D01*
X118590190Y-50339666D01*
%TO.C,C2*%
X124376666Y-60503571D02*
X124352857Y-60527380D01*
X124281428Y-60551190D01*
X124233809Y-60551190D01*
X124162380Y-60527380D01*
X124114761Y-60479761D01*
X124090952Y-60432142D01*
X124067142Y-60336904D01*
X124067142Y-60265476D01*
X124090952Y-60170238D01*
X124114761Y-60122619D01*
X124162380Y-60075000D01*
X124233809Y-60051190D01*
X124281428Y-60051190D01*
X124352857Y-60075000D01*
X124376666Y-60098809D01*
X124567142Y-60098809D02*
X124590952Y-60075000D01*
X124638571Y-60051190D01*
X124757619Y-60051190D01*
X124805238Y-60075000D01*
X124829047Y-60098809D01*
X124852857Y-60146428D01*
X124852857Y-60194047D01*
X124829047Y-60265476D01*
X124543333Y-60551190D01*
X124852857Y-60551190D01*
%TO.C,C3*%
X124757666Y-64948571D02*
X124733857Y-64972380D01*
X124662428Y-64996190D01*
X124614809Y-64996190D01*
X124543380Y-64972380D01*
X124495761Y-64924761D01*
X124471952Y-64877142D01*
X124448142Y-64781904D01*
X124448142Y-64710476D01*
X124471952Y-64615238D01*
X124495761Y-64567619D01*
X124543380Y-64520000D01*
X124614809Y-64496190D01*
X124662428Y-64496190D01*
X124733857Y-64520000D01*
X124757666Y-64543809D01*
X124924333Y-64496190D02*
X125233857Y-64496190D01*
X125067190Y-64686666D01*
X125138619Y-64686666D01*
X125186238Y-64710476D01*
X125210047Y-64734285D01*
X125233857Y-64781904D01*
X125233857Y-64900952D01*
X125210047Y-64948571D01*
X125186238Y-64972380D01*
X125138619Y-64996190D01*
X124995761Y-64996190D01*
X124948142Y-64972380D01*
X124924333Y-64948571D01*
%TO.C,C4*%
X130099571Y-69933333D02*
X130123380Y-69957142D01*
X130147190Y-70028571D01*
X130147190Y-70076190D01*
X130123380Y-70147619D01*
X130075761Y-70195238D01*
X130028142Y-70219047D01*
X129932904Y-70242857D01*
X129861476Y-70242857D01*
X129766238Y-70219047D01*
X129718619Y-70195238D01*
X129671000Y-70147619D01*
X129647190Y-70076190D01*
X129647190Y-70028571D01*
X129671000Y-69957142D01*
X129694809Y-69933333D01*
X129813857Y-69504761D02*
X130147190Y-69504761D01*
X129623380Y-69623809D02*
X129980523Y-69742857D01*
X129980523Y-69433333D01*
%TO.C,C7*%
X140378666Y-55804571D02*
X140354857Y-55828380D01*
X140283428Y-55852190D01*
X140235809Y-55852190D01*
X140164380Y-55828380D01*
X140116761Y-55780761D01*
X140092952Y-55733142D01*
X140069142Y-55637904D01*
X140069142Y-55566476D01*
X140092952Y-55471238D01*
X140116761Y-55423619D01*
X140164380Y-55376000D01*
X140235809Y-55352190D01*
X140283428Y-55352190D01*
X140354857Y-55376000D01*
X140378666Y-55399809D01*
X140545333Y-55352190D02*
X140878666Y-55352190D01*
X140664380Y-55852190D01*
%TO.C,C8*%
X136314666Y-73457571D02*
X136290857Y-73481380D01*
X136219428Y-73505190D01*
X136171809Y-73505190D01*
X136100380Y-73481380D01*
X136052761Y-73433761D01*
X136028952Y-73386142D01*
X136005142Y-73290904D01*
X136005142Y-73219476D01*
X136028952Y-73124238D01*
X136052761Y-73076619D01*
X136100380Y-73029000D01*
X136171809Y-73005190D01*
X136219428Y-73005190D01*
X136290857Y-73029000D01*
X136314666Y-73052809D01*
X136600380Y-73219476D02*
X136552761Y-73195666D01*
X136528952Y-73171857D01*
X136505142Y-73124238D01*
X136505142Y-73100428D01*
X136528952Y-73052809D01*
X136552761Y-73029000D01*
X136600380Y-73005190D01*
X136695619Y-73005190D01*
X136743238Y-73029000D01*
X136767047Y-73052809D01*
X136790857Y-73100428D01*
X136790857Y-73124238D01*
X136767047Y-73171857D01*
X136743238Y-73195666D01*
X136695619Y-73219476D01*
X136600380Y-73219476D01*
X136552761Y-73243285D01*
X136528952Y-73267095D01*
X136505142Y-73314714D01*
X136505142Y-73409952D01*
X136528952Y-73457571D01*
X136552761Y-73481380D01*
X136600380Y-73505190D01*
X136695619Y-73505190D01*
X136743238Y-73481380D01*
X136767047Y-73457571D01*
X136790857Y-73409952D01*
X136790857Y-73314714D01*
X136767047Y-73267095D01*
X136743238Y-73243285D01*
X136695619Y-73219476D01*
%TO.C,C10*%
X132520571Y-68504571D02*
X132496761Y-68528380D01*
X132425333Y-68552190D01*
X132377714Y-68552190D01*
X132306285Y-68528380D01*
X132258666Y-68480761D01*
X132234857Y-68433142D01*
X132211047Y-68337904D01*
X132211047Y-68266476D01*
X132234857Y-68171238D01*
X132258666Y-68123619D01*
X132306285Y-68076000D01*
X132377714Y-68052190D01*
X132425333Y-68052190D01*
X132496761Y-68076000D01*
X132520571Y-68099809D01*
X132996761Y-68552190D02*
X132711047Y-68552190D01*
X132853904Y-68552190D02*
X132853904Y-68052190D01*
X132806285Y-68123619D01*
X132758666Y-68171238D01*
X132711047Y-68195047D01*
X133306285Y-68052190D02*
X133353904Y-68052190D01*
X133401523Y-68076000D01*
X133425333Y-68099809D01*
X133449142Y-68147428D01*
X133472952Y-68242666D01*
X133472952Y-68361714D01*
X133449142Y-68456952D01*
X133425333Y-68504571D01*
X133401523Y-68528380D01*
X133353904Y-68552190D01*
X133306285Y-68552190D01*
X133258666Y-68528380D01*
X133234857Y-68504571D01*
X133211047Y-68456952D01*
X133187238Y-68361714D01*
X133187238Y-68242666D01*
X133211047Y-68147428D01*
X133234857Y-68099809D01*
X133258666Y-68076000D01*
X133306285Y-68052190D01*
%TO.C,C11*%
X124900571Y-63932571D02*
X124876761Y-63956380D01*
X124805333Y-63980190D01*
X124757714Y-63980190D01*
X124686285Y-63956380D01*
X124638666Y-63908761D01*
X124614857Y-63861142D01*
X124591047Y-63765904D01*
X124591047Y-63694476D01*
X124614857Y-63599238D01*
X124638666Y-63551619D01*
X124686285Y-63504000D01*
X124757714Y-63480190D01*
X124805333Y-63480190D01*
X124876761Y-63504000D01*
X124900571Y-63527809D01*
X125376761Y-63980190D02*
X125091047Y-63980190D01*
X125233904Y-63980190D02*
X125233904Y-63480190D01*
X125186285Y-63551619D01*
X125138666Y-63599238D01*
X125091047Y-63623047D01*
X125852952Y-63980190D02*
X125567238Y-63980190D01*
X125710095Y-63980190D02*
X125710095Y-63480190D01*
X125662476Y-63551619D01*
X125614857Y-63599238D01*
X125567238Y-63623047D01*
%TO.C,C12*%
X140394571Y-54788571D02*
X140370761Y-54812380D01*
X140299333Y-54836190D01*
X140251714Y-54836190D01*
X140180285Y-54812380D01*
X140132666Y-54764761D01*
X140108857Y-54717142D01*
X140085047Y-54621904D01*
X140085047Y-54550476D01*
X140108857Y-54455238D01*
X140132666Y-54407619D01*
X140180285Y-54360000D01*
X140251714Y-54336190D01*
X140299333Y-54336190D01*
X140370761Y-54360000D01*
X140394571Y-54383809D01*
X140870761Y-54836190D02*
X140585047Y-54836190D01*
X140727904Y-54836190D02*
X140727904Y-54336190D01*
X140680285Y-54407619D01*
X140632666Y-54455238D01*
X140585047Y-54479047D01*
X141061238Y-54383809D02*
X141085047Y-54360000D01*
X141132666Y-54336190D01*
X141251714Y-54336190D01*
X141299333Y-54360000D01*
X141323142Y-54383809D01*
X141346952Y-54431428D01*
X141346952Y-54479047D01*
X141323142Y-54550476D01*
X141037428Y-54836190D01*
X141346952Y-54836190D01*
%TO.C,C13*%
X134552571Y-53899571D02*
X134528761Y-53923380D01*
X134457333Y-53947190D01*
X134409714Y-53947190D01*
X134338285Y-53923380D01*
X134290666Y-53875761D01*
X134266857Y-53828142D01*
X134243047Y-53732904D01*
X134243047Y-53661476D01*
X134266857Y-53566238D01*
X134290666Y-53518619D01*
X134338285Y-53471000D01*
X134409714Y-53447190D01*
X134457333Y-53447190D01*
X134528761Y-53471000D01*
X134552571Y-53494809D01*
X135028761Y-53947190D02*
X134743047Y-53947190D01*
X134885904Y-53947190D02*
X134885904Y-53447190D01*
X134838285Y-53518619D01*
X134790666Y-53566238D01*
X134743047Y-53590047D01*
X135195428Y-53447190D02*
X135504952Y-53447190D01*
X135338285Y-53637666D01*
X135409714Y-53637666D01*
X135457333Y-53661476D01*
X135481142Y-53685285D01*
X135504952Y-53732904D01*
X135504952Y-53851952D01*
X135481142Y-53899571D01*
X135457333Y-53923380D01*
X135409714Y-53947190D01*
X135266857Y-53947190D01*
X135219238Y-53923380D01*
X135195428Y-53899571D01*
%TO.C,C1*%
X130734571Y-53677333D02*
X130758380Y-53701142D01*
X130782190Y-53772571D01*
X130782190Y-53820190D01*
X130758380Y-53891619D01*
X130710761Y-53939238D01*
X130663142Y-53963047D01*
X130567904Y-53986857D01*
X130496476Y-53986857D01*
X130401238Y-53963047D01*
X130353619Y-53939238D01*
X130306000Y-53891619D01*
X130282190Y-53820190D01*
X130282190Y-53772571D01*
X130306000Y-53701142D01*
X130329809Y-53677333D01*
X130782190Y-53201142D02*
X130782190Y-53486857D01*
X130782190Y-53344000D02*
X130282190Y-53344000D01*
X130353619Y-53391619D01*
X130401238Y-53439238D01*
X130425047Y-53486857D01*
%TO.C,C14*%
X130996571Y-68504571D02*
X130972761Y-68528380D01*
X130901333Y-68552190D01*
X130853714Y-68552190D01*
X130782285Y-68528380D01*
X130734666Y-68480761D01*
X130710857Y-68433142D01*
X130687047Y-68337904D01*
X130687047Y-68266476D01*
X130710857Y-68171238D01*
X130734666Y-68123619D01*
X130782285Y-68076000D01*
X130853714Y-68052190D01*
X130901333Y-68052190D01*
X130972761Y-68076000D01*
X130996571Y-68099809D01*
X131472761Y-68552190D02*
X131187047Y-68552190D01*
X131329904Y-68552190D02*
X131329904Y-68052190D01*
X131282285Y-68123619D01*
X131234666Y-68171238D01*
X131187047Y-68195047D01*
X131901333Y-68218857D02*
X131901333Y-68552190D01*
X131782285Y-68028380D02*
X131663238Y-68385523D01*
X131972761Y-68385523D01*
%TO.C,C5*%
X113454666Y-62408571D02*
X113430857Y-62432380D01*
X113359428Y-62456190D01*
X113311809Y-62456190D01*
X113240380Y-62432380D01*
X113192761Y-62384761D01*
X113168952Y-62337142D01*
X113145142Y-62241904D01*
X113145142Y-62170476D01*
X113168952Y-62075238D01*
X113192761Y-62027619D01*
X113240380Y-61980000D01*
X113311809Y-61956190D01*
X113359428Y-61956190D01*
X113430857Y-61980000D01*
X113454666Y-62003809D01*
X113907047Y-61956190D02*
X113668952Y-61956190D01*
X113645142Y-62194285D01*
X113668952Y-62170476D01*
X113716571Y-62146666D01*
X113835619Y-62146666D01*
X113883238Y-62170476D01*
X113907047Y-62194285D01*
X113930857Y-62241904D01*
X113930857Y-62360952D01*
X113907047Y-62408571D01*
X113883238Y-62432380D01*
X113835619Y-62456190D01*
X113716571Y-62456190D01*
X113668952Y-62432380D01*
X113645142Y-62408571D01*
%TO.C,C6*%
X119296666Y-62408571D02*
X119272857Y-62432380D01*
X119201428Y-62456190D01*
X119153809Y-62456190D01*
X119082380Y-62432380D01*
X119034761Y-62384761D01*
X119010952Y-62337142D01*
X118987142Y-62241904D01*
X118987142Y-62170476D01*
X119010952Y-62075238D01*
X119034761Y-62027619D01*
X119082380Y-61980000D01*
X119153809Y-61956190D01*
X119201428Y-61956190D01*
X119272857Y-61980000D01*
X119296666Y-62003809D01*
X119725238Y-61956190D02*
X119630000Y-61956190D01*
X119582380Y-61980000D01*
X119558571Y-62003809D01*
X119510952Y-62075238D01*
X119487142Y-62170476D01*
X119487142Y-62360952D01*
X119510952Y-62408571D01*
X119534761Y-62432380D01*
X119582380Y-62456190D01*
X119677619Y-62456190D01*
X119725238Y-62432380D01*
X119749047Y-62408571D01*
X119772857Y-62360952D01*
X119772857Y-62241904D01*
X119749047Y-62194285D01*
X119725238Y-62170476D01*
X119677619Y-62146666D01*
X119582380Y-62146666D01*
X119534761Y-62170476D01*
X119510952Y-62194285D01*
X119487142Y-62241904D01*
%TO.C,J3*%
X136886190Y-50204666D02*
X137243333Y-50204666D01*
X137314761Y-50228476D01*
X137362380Y-50276095D01*
X137386190Y-50347523D01*
X137386190Y-50395142D01*
X136886190Y-50014190D02*
X136886190Y-49704666D01*
X137076666Y-49871333D01*
X137076666Y-49799904D01*
X137100476Y-49752285D01*
X137124285Y-49728476D01*
X137171904Y-49704666D01*
X137290952Y-49704666D01*
X137338571Y-49728476D01*
X137362380Y-49752285D01*
X137386190Y-49799904D01*
X137386190Y-49942761D01*
X137362380Y-49990380D01*
X137338571Y-50014190D01*
%TO.C,J1*%
X112482333Y-63607190D02*
X112482333Y-63964333D01*
X112458523Y-64035761D01*
X112410904Y-64083380D01*
X112339476Y-64107190D01*
X112291857Y-64107190D01*
X112982333Y-64107190D02*
X112696619Y-64107190D01*
X112839476Y-64107190D02*
X112839476Y-63607190D01*
X112791857Y-63678619D01*
X112744238Y-63726238D01*
X112696619Y-63750047D01*
%TO.C,D1*%
X114692952Y-56106190D02*
X114692952Y-55606190D01*
X114812000Y-55606190D01*
X114883428Y-55630000D01*
X114931047Y-55677619D01*
X114954857Y-55725238D01*
X114978666Y-55820476D01*
X114978666Y-55891904D01*
X114954857Y-55987142D01*
X114931047Y-56034761D01*
X114883428Y-56082380D01*
X114812000Y-56106190D01*
X114692952Y-56106190D01*
X115454857Y-56106190D02*
X115169142Y-56106190D01*
X115312000Y-56106190D02*
X115312000Y-55606190D01*
X115264380Y-55677619D01*
X115216761Y-55725238D01*
X115169142Y-55749047D01*
%TO.C,D2*%
X135266952Y-71854190D02*
X135266952Y-71354190D01*
X135386000Y-71354190D01*
X135457428Y-71378000D01*
X135505047Y-71425619D01*
X135528857Y-71473238D01*
X135552666Y-71568476D01*
X135552666Y-71639904D01*
X135528857Y-71735142D01*
X135505047Y-71782761D01*
X135457428Y-71830380D01*
X135386000Y-71854190D01*
X135266952Y-71854190D01*
X135743142Y-71401809D02*
X135766952Y-71378000D01*
X135814571Y-71354190D01*
X135933619Y-71354190D01*
X135981238Y-71378000D01*
X136005047Y-71401809D01*
X136028857Y-71449428D01*
X136028857Y-71497047D01*
X136005047Y-71568476D01*
X135719333Y-71854190D01*
X136028857Y-71854190D01*
%TO.C,FB1*%
X135473333Y-57114285D02*
X135306666Y-57114285D01*
X135306666Y-57376190D02*
X135306666Y-56876190D01*
X135544761Y-56876190D01*
X135901904Y-57114285D02*
X135973333Y-57138095D01*
X135997142Y-57161904D01*
X136020952Y-57209523D01*
X136020952Y-57280952D01*
X135997142Y-57328571D01*
X135973333Y-57352380D01*
X135925714Y-57376190D01*
X135735238Y-57376190D01*
X135735238Y-56876190D01*
X135901904Y-56876190D01*
X135949523Y-56900000D01*
X135973333Y-56923809D01*
X135997142Y-56971428D01*
X135997142Y-57019047D01*
X135973333Y-57066666D01*
X135949523Y-57090476D01*
X135901904Y-57114285D01*
X135735238Y-57114285D01*
X136497142Y-57376190D02*
X136211428Y-57376190D01*
X136354285Y-57376190D02*
X136354285Y-56876190D01*
X136306666Y-56947619D01*
X136259047Y-56995238D01*
X136211428Y-57019047D01*
%TO.C,R3*%
X116629666Y-61948190D02*
X116463000Y-61710095D01*
X116343952Y-61948190D02*
X116343952Y-61448190D01*
X116534428Y-61448190D01*
X116582047Y-61472000D01*
X116605857Y-61495809D01*
X116629666Y-61543428D01*
X116629666Y-61614857D01*
X116605857Y-61662476D01*
X116582047Y-61686285D01*
X116534428Y-61710095D01*
X116343952Y-61710095D01*
X116796333Y-61448190D02*
X117105857Y-61448190D01*
X116939190Y-61638666D01*
X117010619Y-61638666D01*
X117058238Y-61662476D01*
X117082047Y-61686285D01*
X117105857Y-61733904D01*
X117105857Y-61852952D01*
X117082047Y-61900571D01*
X117058238Y-61924380D01*
X117010619Y-61948190D01*
X116867761Y-61948190D01*
X116820142Y-61924380D01*
X116796333Y-61900571D01*
%TO.C,R1*%
X115105666Y-59027190D02*
X114939000Y-58789095D01*
X114819952Y-59027190D02*
X114819952Y-58527190D01*
X115010428Y-58527190D01*
X115058047Y-58551000D01*
X115081857Y-58574809D01*
X115105666Y-58622428D01*
X115105666Y-58693857D01*
X115081857Y-58741476D01*
X115058047Y-58765285D01*
X115010428Y-58789095D01*
X114819952Y-58789095D01*
X115581857Y-59027190D02*
X115296142Y-59027190D01*
X115439000Y-59027190D02*
X115439000Y-58527190D01*
X115391380Y-58598619D01*
X115343761Y-58646238D01*
X115296142Y-58670047D01*
%TO.C,R2*%
X116629666Y-60932190D02*
X116463000Y-60694095D01*
X116343952Y-60932190D02*
X116343952Y-60432190D01*
X116534428Y-60432190D01*
X116582047Y-60456000D01*
X116605857Y-60479809D01*
X116629666Y-60527428D01*
X116629666Y-60598857D01*
X116605857Y-60646476D01*
X116582047Y-60670285D01*
X116534428Y-60694095D01*
X116343952Y-60694095D01*
X116820142Y-60479809D02*
X116843952Y-60456000D01*
X116891571Y-60432190D01*
X117010619Y-60432190D01*
X117058238Y-60456000D01*
X117082047Y-60479809D01*
X117105857Y-60527428D01*
X117105857Y-60575047D01*
X117082047Y-60646476D01*
X116796333Y-60932190D01*
X117105857Y-60932190D01*
%TD*%
M02*
