%TF.GenerationSoftware,KiCad,Pcbnew,5.1.12*%
%TF.CreationDate,2021-12-06T16:47:01+08:00*%
%TF.ProjectId,elf2,656c6632-2e6b-4696-9361-645f70636258,rev?*%
%TF.SameCoordinates,Original*%
%TF.FileFunction,Copper,L4,Bot*%
%TF.FilePolarity,Positive*%
%FSLAX46Y46*%
G04 Gerber Fmt 4.6, Leading zero omitted, Abs format (unit mm)*
G04 Created by KiCad (PCBNEW 5.1.12) date 2021-12-06 16:47:01*
%MOMM*%
%LPD*%
G01*
G04 APERTURE LIST*
%TA.AperFunction,ComponentPad*%
%ADD10R,1.700000X1.700000*%
%TD*%
%TA.AperFunction,ComponentPad*%
%ADD11O,1.700000X1.700000*%
%TD*%
%TA.AperFunction,ComponentPad*%
%ADD12C,1.000000*%
%TD*%
%TA.AperFunction,ComponentPad*%
%ADD13R,1.727200X1.727200*%
%TD*%
%TA.AperFunction,ComponentPad*%
%ADD14O,1.727200X1.727200*%
%TD*%
%TA.AperFunction,ComponentPad*%
%ADD15C,1.700000*%
%TD*%
%TA.AperFunction,ComponentPad*%
%ADD16C,3.500000*%
%TD*%
%TA.AperFunction,ViaPad*%
%ADD17C,0.600000*%
%TD*%
%TA.AperFunction,ViaPad*%
%ADD18C,0.700000*%
%TD*%
%TA.AperFunction,ViaPad*%
%ADD19C,1.200000*%
%TD*%
%TA.AperFunction,ViaPad*%
%ADD20C,2.000000*%
%TD*%
%TA.AperFunction,Conductor*%
%ADD21C,0.200000*%
%TD*%
%ADD22C,0.300000*%
%ADD23C,0.350000*%
G04 APERTURE END LIST*
D10*
%TO.P,J7,1*%
%TO.N,+3V3*%
X141986000Y-63246000D03*
D11*
%TO.P,J7,2*%
%TO.N,/SWDIO*%
X141986000Y-65786000D03*
%TO.P,J7,3*%
%TO.N,/SWCLK*%
X141986000Y-68326000D03*
%TO.P,J7,4*%
%TO.N,GND*%
X141986000Y-70866000D03*
%TD*%
D12*
%TO.P,Y1,2*%
%TO.N,Net-(C8-Pad1)*%
X130556000Y-74554000D03*
%TO.P,Y1,1*%
%TO.N,Net-(C9-Pad1)*%
X130556000Y-76454000D03*
%TD*%
D11*
%TO.P,J4,12*%
%TO.N,+3V3*%
X126492000Y-79502000D03*
%TO.P,J4,11*%
X126492000Y-76962000D03*
%TO.P,J4,10*%
%TO.N,GND*%
X123952000Y-79502000D03*
%TO.P,J4,9*%
X123952000Y-76962000D03*
%TO.P,J4,8*%
%TO.N,/PMOD_6P2_4*%
X121412000Y-79502000D03*
%TO.P,J4,7*%
%TO.N,/PMOD_6P_4*%
X121412000Y-76962000D03*
%TO.P,J4,6*%
%TO.N,/PMOD_6P2_3*%
X118872000Y-79502000D03*
%TO.P,J4,5*%
%TO.N,/PMOD_6P_3*%
X118872000Y-76962000D03*
%TO.P,J4,4*%
%TO.N,/PMOD_6P2_2*%
X116332000Y-79502000D03*
%TO.P,J4,3*%
%TO.N,/PMOD_6P_2*%
X116332000Y-76962000D03*
%TO.P,J4,2*%
%TO.N,/PMOD_6P2_1*%
X113792000Y-79502000D03*
D10*
%TO.P,J4,1*%
%TO.N,/PMOD_6P_1*%
X113792000Y-76962000D03*
%TD*%
%TO.P,J8,1*%
%TO.N,/ADC_0*%
X104648000Y-88138000D03*
D11*
%TO.P,J8,2*%
%TO.N,/LVDSRX_N*%
X104648000Y-85598000D03*
%TO.P,J8,3*%
%TO.N,/LVDSRX_P*%
X104648000Y-83058000D03*
%TO.P,J8,4*%
%TO.N,/LVDSTX_N*%
X104648000Y-80518000D03*
%TO.P,J8,5*%
%TO.N,/LVDSTX_P*%
X104648000Y-77978000D03*
%TO.P,J8,6*%
%TO.N,/ADC_REF*%
X104648000Y-75438000D03*
%TO.P,J8,7*%
%TO.N,+3V3*%
X104648000Y-72898000D03*
%TD*%
D13*
%TO.P,J2,1*%
%TO.N,/TCK*%
X120904000Y-52070000D03*
D14*
%TO.P,J2,2*%
%TO.N,GND*%
X120904000Y-49530000D03*
%TO.P,J2,3*%
%TO.N,/TDO*%
X123444000Y-52070000D03*
%TO.P,J2,4*%
%TO.N,Net-(D1-Pad1)*%
X123444000Y-49530000D03*
%TO.P,J2,5*%
%TO.N,/TMS*%
X125984000Y-52070000D03*
%TO.P,J2,6*%
%TO.N,N/C*%
X125984000Y-49530000D03*
%TO.P,J2,7*%
X128524000Y-52070000D03*
%TO.P,J2,8*%
X128524000Y-49530000D03*
%TO.P,J2,9*%
%TO.N,/TDI*%
X131064000Y-52070000D03*
%TO.P,J2,10*%
%TO.N,GND*%
X131064000Y-49530000D03*
%TD*%
D10*
%TO.P,J3,1*%
%TO.N,/JTAGEN*%
X138938000Y-50038000D03*
D11*
%TO.P,J3,2*%
%TO.N,+3V3*%
X141478000Y-50038000D03*
%TD*%
D10*
%TO.P,J1,1*%
%TO.N,+5V*%
X110490000Y-62865000D03*
D15*
%TO.P,J1,2*%
%TO.N,/PORT_D-*%
X110490000Y-60365000D03*
%TO.P,J1,3*%
%TO.N,/PORT_D+*%
X108490000Y-60365000D03*
%TO.P,J1,4*%
%TO.N,GND*%
X108490000Y-62865000D03*
D16*
%TO.P,J1,5*%
X105780000Y-67635000D03*
X105780000Y-55595000D03*
%TD*%
D17*
%TO.N,/UPU*%
X126502772Y-62384000D03*
X120650000Y-60434000D03*
D18*
%TO.N,+3V3*%
X134620000Y-59690000D03*
X125730000Y-61722004D03*
X125729994Y-62738000D03*
X131191000Y-60198000D03*
X127873873Y-71993873D03*
D19*
X116840000Y-69215000D03*
X114554000Y-69215000D03*
X119253000Y-69215000D03*
D18*
X138176000Y-87884000D03*
X133096000Y-53340000D03*
X137668000Y-71374000D03*
X113284000Y-56642000D03*
X125730000Y-65242000D03*
D20*
%TO.N,GND*%
X131826000Y-62484000D03*
D18*
X122936000Y-62738000D03*
X122936000Y-61214000D03*
X128561611Y-71306135D03*
X138938000Y-83312000D03*
X129540000Y-54102000D03*
X120650000Y-63246000D03*
X133096000Y-85598000D03*
X137414000Y-73152000D03*
X135636000Y-69596000D03*
X132460077Y-73374824D03*
X122682000Y-58420000D03*
X122428000Y-64516000D03*
X136906000Y-54864000D03*
D17*
%TO.N,/PROGRAMN*%
X127508000Y-54610000D03*
X117094000Y-51054000D03*
%TO.N,/JTAGEN*%
X131826000Y-56896000D03*
%TO.N,/TMS*%
X125984000Y-54102000D03*
%TO.N,/TCK*%
X122682000Y-54102000D03*
%TO.N,/TDI*%
X127762000Y-58901500D03*
%TO.N,/TDO*%
X123391078Y-56440922D03*
%TO.N,/SWCLK*%
X138938000Y-59182006D03*
%TO.N,/SWDIO*%
X138938000Y-58401987D03*
%TO.N,/LED_B*%
X122174000Y-65532000D03*
X112522000Y-69342000D03*
X112522000Y-71628000D03*
X128016000Y-67564000D03*
%TO.N,/LED_R*%
X125984000Y-68707000D03*
X129032006Y-62734000D03*
%TO.N,/ADC_0*%
X134636820Y-60916176D03*
%TO.N,/LVDSRX_N*%
X133124843Y-59737156D03*
%TO.N,/LVDSRX_P*%
X132559157Y-60302842D03*
%TO.N,/LVDSTX_N*%
X130203843Y-60302842D03*
%TO.N,/LVDSTX_P*%
X129638157Y-59737156D03*
%TO.N,/ADC_REF*%
X137791323Y-60556698D03*
%TO.N,/PMOD_6P2_1*%
X137706124Y-66781879D03*
%TO.N,/PMOD_6P2_2*%
X137824122Y-75848122D03*
%TO.N,/PMOD_6P2_3*%
X138446840Y-74438840D03*
%TO.N,/PMOD_6P2_4*%
X138176000Y-64008000D03*
%TO.N,/QSPI_CS*%
X135890000Y-66293990D03*
X136906000Y-66802000D03*
%TO.N,/QSPI_IO1*%
X139495951Y-64262000D03*
X138247963Y-62003371D03*
%TO.N,/QSPI_IO2*%
X137777987Y-62750883D03*
X138938000Y-62992006D03*
%TO.N,/QSPI_IO0*%
X134844865Y-73630875D03*
X139192000Y-59944000D03*
%TO.N,/QSPI_SCK*%
X135890000Y-73914000D03*
X135322502Y-67108466D03*
%TO.N,/QSPI_IO3*%
X140660021Y-67037456D03*
X139486655Y-61898798D03*
%TO.N,/CLK*%
X122032000Y-57150000D03*
X120904000Y-61994000D03*
%TD*%
D21*
%TO.N,/UPU*%
X126502772Y-62384000D02*
X126502772Y-61532774D01*
X126502772Y-61532774D02*
X125403998Y-60434000D01*
X125403998Y-60434000D02*
X120650000Y-60434000D01*
%TO.N,/PROGRAMN*%
X123060923Y-57020923D02*
X117094000Y-51054000D01*
X127508000Y-54610000D02*
X125097077Y-57020923D01*
X125097077Y-57020923D02*
X123060923Y-57020923D01*
%TO.N,/JTAGEN*%
X138684000Y-50038000D02*
X138938000Y-50038000D01*
X131826000Y-56896000D02*
X138684000Y-50038000D01*
%TO.N,/TMS*%
X125984000Y-54102000D02*
X125984000Y-52070000D01*
%TO.N,/TCK*%
X120904000Y-52070000D02*
X122682000Y-53848000D01*
X122682000Y-53848000D02*
X122682000Y-54102000D01*
%TO.N,/TDI*%
X129703482Y-56970657D02*
X129650959Y-57012543D01*
X129829502Y-56926562D02*
X129764008Y-56941509D01*
X129764008Y-56941509D02*
X129703482Y-56970657D01*
X129896680Y-56926562D02*
X129829502Y-56926562D01*
X130022702Y-56970657D02*
X129962176Y-56941509D01*
X130075223Y-57012543D02*
X130022702Y-56970657D01*
X130218585Y-57155905D02*
X130075223Y-57012543D01*
X130271109Y-57197790D02*
X130218585Y-57155905D01*
X130464307Y-57241887D02*
X130397129Y-57241886D01*
X130529802Y-57226937D02*
X130464307Y-57241887D01*
X130243074Y-55525354D02*
X130177579Y-55510406D01*
X130642849Y-57155905D02*
X130590327Y-57197791D01*
X130713883Y-56844688D02*
X130728832Y-56910183D01*
X130810701Y-55810782D02*
X130745207Y-55825731D01*
X130397129Y-57241886D02*
X130331634Y-57226938D01*
X130612534Y-55810782D02*
X130552008Y-55781635D01*
X129845876Y-55842108D02*
X129860825Y-55907602D01*
X130678028Y-55825731D02*
X130612534Y-55810782D01*
X129931858Y-55596387D02*
X129889972Y-55648909D01*
X130728832Y-56977361D02*
X130713883Y-57042856D01*
X129931858Y-56020651D02*
X130642849Y-56731641D01*
X130356122Y-55596387D02*
X130303600Y-55554502D01*
X130499485Y-55739750D02*
X130356122Y-55596387D01*
X128341751Y-58321749D02*
X127762000Y-58901500D01*
X130745207Y-55825731D02*
X130678028Y-55825731D01*
X129889972Y-55648909D02*
X129860825Y-55709435D01*
X130303600Y-55554502D02*
X130243074Y-55525354D01*
X130923750Y-55739750D02*
X130871227Y-55781635D01*
X131064000Y-55599500D02*
X130923750Y-55739750D01*
X131064000Y-52070000D02*
X131064000Y-55599500D01*
X130331634Y-57226938D02*
X130271109Y-57197790D01*
X129845876Y-55774929D02*
X129845876Y-55842108D01*
X130177579Y-55510406D02*
X130110401Y-55510406D01*
X130110401Y-55510406D02*
X130044906Y-55525354D01*
X130590327Y-57197791D02*
X130529802Y-57226937D01*
X130728832Y-56910183D02*
X130728832Y-56977361D01*
X129962176Y-56941509D02*
X129896680Y-56926562D01*
X130044906Y-55525354D02*
X129984380Y-55554502D01*
X129860825Y-55907602D02*
X129889972Y-55968128D01*
X130552008Y-55781635D02*
X130499485Y-55739750D01*
X130871227Y-55781635D02*
X130810701Y-55810782D01*
X129984380Y-55554502D02*
X129931858Y-55596387D01*
X129860825Y-55709435D02*
X129845876Y-55774929D01*
X129889972Y-55968128D02*
X129931858Y-56020651D01*
X130713883Y-57042856D02*
X130684735Y-57103382D01*
X130642849Y-56731641D02*
X130684735Y-56784162D01*
X129650959Y-57012543D02*
X128341751Y-58321749D01*
X130684735Y-57103382D02*
X130642849Y-57155905D01*
X130684735Y-56784162D02*
X130713883Y-56844688D01*
%TO.N,/TDO*%
X123391078Y-52122922D02*
X123444000Y-52070000D01*
X123391078Y-56440922D02*
X123391078Y-52122922D01*
%TO.N,/SWCLK*%
X140455988Y-59683988D02*
X139954006Y-59182006D01*
X141986000Y-67505031D02*
X140455988Y-65975019D01*
X140455988Y-65975019D02*
X140455988Y-59683988D01*
X141986000Y-68326000D02*
X141986000Y-67505031D01*
X139954006Y-59182006D02*
X138938000Y-59182006D01*
%TO.N,/SWDIO*%
X140835999Y-64635999D02*
X141986000Y-65786000D01*
X140835998Y-61926575D02*
X140835999Y-64635999D01*
X141476574Y-61139529D02*
X141512315Y-61196410D01*
X141534503Y-61259819D02*
X141542024Y-61326576D01*
X141135998Y-60426578D02*
X141069242Y-60434100D01*
X140843520Y-61859818D02*
X140835998Y-61926575D01*
X140901449Y-60539531D02*
X140865708Y-60596413D01*
X141512315Y-60256745D02*
X141476574Y-60313626D01*
X141534503Y-60193336D02*
X141512315Y-60256745D01*
X141069242Y-61634096D02*
X141005833Y-61656284D01*
X140865708Y-59656745D02*
X140901449Y-59713626D01*
X141429071Y-61092026D02*
X141476574Y-61139529D01*
X141512315Y-61196410D02*
X141534503Y-61259819D01*
X141476574Y-60313626D02*
X141429071Y-60361129D01*
X141429071Y-59892030D02*
X141476574Y-59939533D01*
X141005833Y-59796870D02*
X141069242Y-59819058D01*
X141476574Y-59939533D02*
X141512315Y-59996414D01*
X138938000Y-58401987D02*
X139711403Y-58401987D01*
X141308781Y-60419058D02*
X141242024Y-60426579D01*
X141069242Y-61019054D02*
X141135998Y-61026576D01*
X139711403Y-58401987D02*
X140835998Y-59526582D01*
X141429071Y-60361129D02*
X141372190Y-60396870D01*
X140843520Y-59593336D02*
X140865708Y-59656745D01*
X141534503Y-60059823D02*
X141542024Y-60126580D01*
X140948952Y-59761129D02*
X141005833Y-59796870D01*
X141242024Y-60426579D02*
X141135998Y-60426578D01*
X140835998Y-59526582D02*
X140843520Y-59593336D01*
X140901449Y-59713626D02*
X140948952Y-59761129D01*
X141372190Y-59856289D02*
X141429071Y-59892030D01*
X140901449Y-61739527D02*
X140865708Y-61796409D01*
X141372190Y-60396870D02*
X141308781Y-60419058D01*
X140901449Y-60913622D02*
X140948952Y-60961125D01*
X140948952Y-60492029D02*
X140901449Y-60539531D01*
X141069242Y-60434100D02*
X141005833Y-60456288D01*
X141069242Y-59819058D02*
X141135998Y-59826580D01*
X141005833Y-60456288D02*
X140948952Y-60492029D01*
X141135998Y-59826580D02*
X141242024Y-59826580D01*
X141242024Y-59826580D02*
X141308781Y-59834101D01*
X140865708Y-61796409D02*
X140843520Y-61859818D01*
X141308781Y-59834101D02*
X141372190Y-59856289D01*
X141308781Y-61619054D02*
X141242024Y-61626575D01*
X141135998Y-61626574D02*
X141069242Y-61634096D01*
X140843520Y-60659822D02*
X140835998Y-60726578D01*
X141542024Y-60126580D02*
X141534503Y-60193336D01*
X141512315Y-59996414D02*
X141534503Y-60059823D01*
X140835998Y-60726578D02*
X140843520Y-60793332D01*
X140843520Y-60793332D02*
X140865708Y-60856741D01*
X140865708Y-60856741D02*
X140901449Y-60913622D01*
X141534503Y-61393332D02*
X141512315Y-61456741D01*
X141476574Y-61513622D02*
X141429071Y-61561125D01*
X141005833Y-60996866D02*
X141069242Y-61019054D01*
X140865708Y-60596413D02*
X140843520Y-60659822D01*
X141135998Y-61026576D02*
X141242024Y-61026576D01*
X141542024Y-61326576D02*
X141534503Y-61393332D01*
X141512315Y-61456741D02*
X141476574Y-61513622D01*
X141242024Y-61026576D02*
X141308781Y-61034097D01*
X141308781Y-61034097D02*
X141372190Y-61056285D01*
X141372190Y-61056285D02*
X141429071Y-61092026D01*
X141429071Y-61561125D02*
X141372190Y-61596866D01*
X141372190Y-61596866D02*
X141308781Y-61619054D01*
X141242024Y-61626575D02*
X141135998Y-61626574D01*
X140948952Y-61692025D02*
X140901449Y-61739527D01*
X140948952Y-60961125D02*
X141005833Y-60996866D01*
X141005833Y-61656284D02*
X140948952Y-61692025D01*
%TO.N,/LED_B*%
X116332000Y-65532000D02*
X112522000Y-69342000D01*
X122174000Y-65532000D02*
X116332000Y-65532000D01*
X124251999Y-71328001D02*
X128016000Y-67564000D01*
X112821999Y-71328001D02*
X124251999Y-71328001D01*
X112522000Y-71628000D02*
X112821999Y-71328001D01*
%TO.N,/LED_R*%
X125984000Y-68707000D02*
X129032006Y-65658994D01*
X129032006Y-65658994D02*
X129032006Y-62734000D01*
%TO.N,/ADC_0*%
X112086010Y-75678248D02*
X112086010Y-80699990D01*
X114242704Y-73521554D02*
X112086010Y-75678248D01*
X125164705Y-73521554D02*
X114242704Y-73521554D01*
X134447990Y-64238269D02*
X125164705Y-73521554D01*
X112086010Y-80699990D02*
X104648000Y-88138000D01*
X134636820Y-60916176D02*
X134447990Y-61105006D01*
X134447990Y-61105006D02*
X134447990Y-64238269D01*
%TO.N,/LVDSRX_N*%
X111706000Y-78540000D02*
X111706000Y-75520844D01*
X104648000Y-85598000D02*
X111706000Y-78540000D01*
X133124843Y-60019999D02*
X134058000Y-60953156D01*
X133124843Y-59737156D02*
X133124843Y-60019999D01*
X134058000Y-60953156D02*
X134058000Y-64090844D01*
X134058000Y-64090844D02*
X125007300Y-73141544D01*
X125007300Y-73141544D02*
X114085300Y-73141544D01*
X114085300Y-73141544D02*
X111706000Y-75520844D01*
%TO.N,/LVDSRX_P*%
X106622314Y-83058000D02*
X111306000Y-78374314D01*
X104648000Y-83058000D02*
X106622314Y-83058000D01*
X111306000Y-78374314D02*
X111306000Y-75355156D01*
X132842000Y-60302842D02*
X133658000Y-61118842D01*
X132559157Y-60302842D02*
X132842000Y-60302842D01*
X133658000Y-61118842D02*
X133658000Y-63925156D01*
X133658000Y-63925156D02*
X124841612Y-72741544D01*
X113919612Y-72741544D02*
X111306000Y-75355156D01*
X124841612Y-72741544D02*
X113919612Y-72741544D01*
%TO.N,/LVDSTX_N*%
X131474456Y-65531388D02*
X131474456Y-64643612D01*
X110114584Y-75842256D02*
X110682832Y-75274012D01*
X110114584Y-76125099D02*
X110086660Y-76090084D01*
X110397427Y-76407942D02*
X110114584Y-76125099D01*
X110421942Y-76432458D02*
X110397427Y-76407942D01*
X110500872Y-76531433D02*
X110421942Y-76432458D01*
X110555799Y-76645490D02*
X110500872Y-76531433D01*
X110583969Y-76768910D02*
X110555799Y-76645490D01*
X110500872Y-77132980D02*
X110555799Y-77018923D01*
X124669844Y-72336000D02*
X131474456Y-65531388D01*
X110682832Y-75274012D02*
X113620844Y-72336000D01*
X110273936Y-77359917D02*
X110372911Y-77280987D01*
X110086660Y-76090084D02*
X110067228Y-76049733D01*
X110036460Y-77443013D02*
X110159879Y-77414844D01*
X110086660Y-75877271D02*
X110114584Y-75842256D01*
X110421942Y-77231955D02*
X110500872Y-77132980D01*
X109573414Y-77280987D02*
X109672389Y-77359917D01*
X108342164Y-76077746D02*
X108382514Y-76097178D01*
X130038157Y-60468528D02*
X130203843Y-60302842D01*
X108253714Y-76067781D02*
X108298500Y-76067781D01*
X108169700Y-76097179D02*
X108210052Y-76077746D01*
X108134685Y-76125102D02*
X108169700Y-76097179D01*
X108087331Y-76200467D02*
X108106762Y-76160117D01*
X108077365Y-76288915D02*
X108077365Y-76244129D01*
X108106763Y-76372929D02*
X108087330Y-76332579D01*
X110159879Y-77414844D02*
X110273936Y-77359917D01*
X109909866Y-77443013D02*
X110036460Y-77443013D01*
X108134686Y-76407944D02*
X108106763Y-76372929D01*
X108558950Y-76832208D02*
X108134686Y-76407944D01*
X108700371Y-76973630D02*
X108558950Y-76832208D01*
X108700370Y-76973626D02*
X108700371Y-76973630D01*
X110583969Y-76895503D02*
X110583969Y-76768910D01*
X109266056Y-77539312D02*
X108700370Y-76973626D01*
X109290571Y-77563828D02*
X109266056Y-77539312D01*
X109369501Y-77662803D02*
X109290571Y-77563828D01*
X110057263Y-75961285D02*
X110067228Y-75917622D01*
X109452598Y-77900280D02*
X109424428Y-77776860D01*
X108077365Y-76244129D02*
X108087331Y-76200467D01*
X109424428Y-78150293D02*
X109452598Y-78026873D01*
X109369501Y-78264350D02*
X109424428Y-78150293D01*
X109290571Y-78363325D02*
X109369501Y-78264350D01*
X109142566Y-78491287D02*
X109241541Y-78412357D01*
X130038157Y-63207313D02*
X130038157Y-60468528D01*
X108905089Y-78574383D02*
X109028509Y-78546213D01*
X108778495Y-78574383D02*
X108905089Y-78574383D01*
X109452598Y-78026873D02*
X109452598Y-77900280D01*
X108541019Y-78491287D02*
X108655076Y-78546213D01*
X108210052Y-76077746D02*
X108253714Y-76067781D01*
X108442044Y-78412357D02*
X108541019Y-78491287D01*
X108059320Y-78057644D02*
X108099671Y-78077075D01*
X108015657Y-78047678D02*
X108059320Y-78057644D01*
X109672389Y-77359917D02*
X109786446Y-77414844D01*
X109028509Y-78546213D02*
X109142566Y-78491287D01*
X107970871Y-78047678D02*
X108015657Y-78047678D01*
X107927208Y-78057644D02*
X107970871Y-78047678D01*
X107886858Y-78077075D02*
X107927208Y-78057644D01*
X107851843Y-78104999D02*
X107886858Y-78077075D01*
X110057263Y-76006070D02*
X110057263Y-75961285D01*
X110067228Y-76049733D02*
X110057263Y-76006070D01*
X110372911Y-77280987D02*
X110421942Y-77231955D01*
X108298500Y-76067781D02*
X108342164Y-76077746D01*
X108106762Y-76160117D02*
X108134685Y-76125102D01*
X108655076Y-78546213D02*
X108778495Y-78574383D01*
X108087330Y-76332579D02*
X108077365Y-76288915D01*
X109786446Y-77414844D02*
X109909866Y-77443013D01*
X109241541Y-78412357D02*
X109290571Y-78363325D01*
X110067228Y-75917622D02*
X110086660Y-75877271D01*
X131474456Y-64643612D02*
X130038157Y-63207313D01*
X108099671Y-78077075D02*
X108134686Y-78104999D01*
X110555799Y-77018923D02*
X110583969Y-76895503D01*
X106508844Y-79448000D02*
X107851843Y-78104999D01*
X108417529Y-76125101D02*
X109573414Y-77280987D01*
X105718000Y-79448000D02*
X106508844Y-79448000D01*
X108382514Y-76097178D02*
X108417529Y-76125101D01*
X109424428Y-77776860D02*
X109369501Y-77662803D01*
X113620844Y-72336000D02*
X124669844Y-72336000D01*
X108134686Y-78104999D02*
X108442044Y-78412357D01*
X104648000Y-80518000D02*
X105718000Y-79448000D01*
%TO.N,/LVDSTX_P*%
X109831741Y-76973629D02*
X109866756Y-77001552D01*
X107665303Y-76329818D02*
X107665301Y-76203226D01*
X109011136Y-78069983D02*
X109030568Y-78029632D01*
X109728295Y-76284452D02*
X109673369Y-76170395D01*
X129638157Y-60595558D02*
X129623842Y-60581243D01*
X109030568Y-78029632D02*
X109040534Y-77985969D01*
X107693471Y-76453239D02*
X107665303Y-76329818D01*
X108462824Y-75683887D02*
X108576881Y-75738814D01*
X107748398Y-76567296D02*
X107693471Y-76453239D01*
X109030568Y-77897520D02*
X109011136Y-77857170D01*
X106343156Y-79048000D02*
X107593516Y-77797641D01*
X109040534Y-77941183D02*
X109030568Y-77897520D01*
X108700370Y-78104998D02*
X108735385Y-78132922D01*
X107806548Y-77663784D02*
X107929967Y-77635614D01*
X109040534Y-77985969D02*
X109040534Y-77941183D01*
X108907847Y-78152354D02*
X108948198Y-78132922D01*
X107876359Y-75817744D02*
X107975335Y-75738813D01*
X108819399Y-78162319D02*
X108864184Y-78162319D01*
X108775736Y-78152354D02*
X108819399Y-78162319D01*
X109645199Y-75920382D02*
X109673369Y-75796962D01*
X107692491Y-77718711D02*
X107806548Y-77663784D01*
X108700372Y-75842259D02*
X109831741Y-76973629D01*
X107693470Y-76079807D02*
X107748397Y-75965750D01*
X108393013Y-77797641D02*
X108700370Y-78104998D01*
X107929967Y-77635614D02*
X108056561Y-77635614D01*
X110142507Y-76938614D02*
X110161939Y-76898263D01*
X107827328Y-75866774D02*
X107876359Y-75817744D01*
X108089392Y-75683886D02*
X108212812Y-75655716D01*
X108056561Y-77635614D02*
X108179981Y-77663784D01*
X109673369Y-75796962D02*
X109728295Y-75682905D01*
X108294038Y-77718711D02*
X108393013Y-77797641D01*
X107665301Y-76203226D02*
X107693470Y-76079807D01*
X107593516Y-77797641D02*
X107692491Y-77718711D01*
X108576881Y-75738814D02*
X108675857Y-75817743D01*
X109011136Y-77857170D02*
X108983213Y-77822155D01*
X108735385Y-78132922D02*
X108775736Y-78152354D01*
X110039218Y-77020984D02*
X110079569Y-77001552D01*
X107975335Y-75738813D02*
X108089392Y-75683886D01*
X110079569Y-77001552D02*
X110114584Y-76973629D01*
X108212812Y-75655716D02*
X108339404Y-75655717D01*
X108675857Y-75817743D02*
X108700372Y-75842259D01*
X109866756Y-77001552D02*
X109907107Y-77020984D01*
X109950770Y-77030950D02*
X109995556Y-77030950D01*
X109995556Y-77030950D02*
X110039218Y-77020984D01*
X108983213Y-78104998D02*
X109011136Y-78069983D01*
X108179981Y-77663784D02*
X108294038Y-77718711D01*
X129638157Y-63373001D02*
X129638157Y-60595558D01*
X110161939Y-76766151D02*
X110142507Y-76725801D01*
X110114584Y-76973629D02*
X110142507Y-76938614D01*
X104648000Y-77978000D02*
X105718000Y-79048000D01*
X110161939Y-76898263D02*
X110171905Y-76854600D01*
X110171905Y-76809814D02*
X110161939Y-76766151D01*
X113455156Y-71936000D02*
X124504156Y-71936000D01*
X109728295Y-75682905D02*
X109807225Y-75583930D01*
X110171905Y-76854600D02*
X110171905Y-76809814D01*
X109907107Y-77020984D02*
X109950770Y-77030950D01*
X129638157Y-60010126D02*
X129638157Y-59737156D01*
X107748397Y-75965750D02*
X107827328Y-75866774D01*
X110114584Y-76690786D02*
X109807225Y-76383427D01*
X131074456Y-64809300D02*
X129638157Y-63373001D01*
X108983213Y-77822155D02*
X107827329Y-76666270D01*
X107827329Y-76666270D02*
X107748398Y-76567296D01*
X109673369Y-76170395D02*
X109645199Y-76046976D01*
X109645199Y-76046976D02*
X109645199Y-75920382D01*
X108948198Y-78132922D02*
X108983213Y-78104998D01*
X109807225Y-75583930D02*
X109831741Y-75559415D01*
X109831741Y-75559415D02*
X113455156Y-71936000D01*
X109807225Y-76383427D02*
X109728295Y-76284452D01*
X124504156Y-71936000D02*
X131074456Y-65365700D01*
X131074456Y-65365700D02*
X131074456Y-64809300D01*
X129623842Y-60581243D02*
X129623842Y-60024441D01*
X105718000Y-79048000D02*
X106343156Y-79048000D01*
X129623842Y-60024441D02*
X129638157Y-60010126D01*
X108864184Y-78162319D02*
X108907847Y-78152354D01*
X108339404Y-75655717D02*
X108462824Y-75683887D01*
X110142507Y-76725801D02*
X110114584Y-76690786D01*
%TO.N,/ADC_REF*%
X128016000Y-64897000D02*
X128016000Y-60297912D01*
X122301000Y-70612000D02*
X128016000Y-64897000D01*
X128016000Y-60297912D02*
X129273913Y-59039999D01*
X129273913Y-59039999D02*
X136274624Y-59039999D01*
X109474000Y-70612000D02*
X122301000Y-70612000D01*
X104648000Y-75438000D02*
X109474000Y-70612000D01*
X136274624Y-59039999D02*
X137791323Y-60556698D01*
%TO.N,/PMOD_6P2_1*%
X136652000Y-71427998D02*
X137706124Y-70373874D01*
X135986402Y-74676000D02*
X136652000Y-74010402D01*
X131572000Y-73406000D02*
X132842000Y-74676000D01*
X129286000Y-73406000D02*
X131572000Y-73406000D01*
X128016000Y-74676000D02*
X129286000Y-73406000D01*
X132842000Y-74676000D02*
X135986402Y-74676000D01*
X120091450Y-74788953D02*
X120138953Y-74741450D01*
X120326000Y-74676000D02*
X128016000Y-74676000D01*
X119418478Y-74909243D02*
X119426000Y-74976000D01*
X119396290Y-74845834D02*
X119418478Y-74909243D01*
X119126000Y-74676000D02*
X119192756Y-74683521D01*
X120026000Y-74976000D02*
X120033521Y-74909243D01*
X119256165Y-74705709D02*
X119313046Y-74741450D01*
X112522000Y-75779672D02*
X113625672Y-74676000D01*
X119538953Y-75276424D02*
X119595834Y-75312165D01*
X119913046Y-75276424D02*
X119960549Y-75228921D01*
X119426000Y-74976000D02*
X119426000Y-75041875D01*
X120138953Y-74741450D02*
X120195834Y-74705709D01*
X113625672Y-74676000D02*
X119126000Y-74676000D01*
X112522000Y-78232000D02*
X112522000Y-75779672D01*
X137706124Y-70373874D02*
X137706124Y-66781879D01*
X119313046Y-74741450D02*
X119360549Y-74788953D01*
X113792000Y-79502000D02*
X112522000Y-78232000D01*
X136652000Y-74010402D02*
X136652000Y-71427998D01*
X120259243Y-74683521D02*
X120326000Y-74676000D01*
X119433521Y-75108631D02*
X119455709Y-75172040D01*
X120195834Y-74705709D02*
X120259243Y-74683521D01*
X119455709Y-75172040D02*
X119491450Y-75228921D01*
X119426000Y-75041875D02*
X119433521Y-75108631D01*
X119491450Y-75228921D02*
X119538953Y-75276424D01*
X120055709Y-74845834D02*
X120091450Y-74788953D01*
X119192756Y-74683521D02*
X119256165Y-74705709D01*
X119659243Y-75334353D02*
X119726000Y-75341875D01*
X119360549Y-74788953D02*
X119396290Y-74845834D01*
X119792756Y-75334353D02*
X119856165Y-75312165D01*
X119726000Y-75341875D02*
X119792756Y-75334353D01*
X119595834Y-75312165D02*
X119659243Y-75334353D01*
X119856165Y-75312165D02*
X119913046Y-75276424D01*
X119996290Y-75172040D02*
X120018478Y-75108631D01*
X120018478Y-75108631D02*
X120026000Y-75041875D01*
X120026000Y-75041875D02*
X120026000Y-74976000D01*
X119960549Y-75228921D02*
X119996290Y-75172040D01*
X120033521Y-74909243D02*
X120055709Y-74845834D01*
%TO.N,/PMOD_6P2_2*%
X125866756Y-82796478D02*
X125800000Y-82804000D01*
X126707521Y-82570756D02*
X126700000Y-82504000D01*
X126092478Y-82570756D02*
X126070290Y-82634165D01*
X126034549Y-82691046D02*
X125987046Y-82738549D01*
X126700000Y-82504000D02*
X126700000Y-82280945D01*
X125987046Y-82738549D02*
X125930165Y-82774290D01*
X137824122Y-77567878D02*
X132588000Y-82804000D01*
X126729709Y-82634165D02*
X126707521Y-82570756D01*
X126530165Y-82010654D02*
X126466756Y-81988466D01*
X126700000Y-82280945D02*
X126692478Y-82214188D01*
X126466756Y-81988466D02*
X126400000Y-81980945D01*
X126692478Y-82214188D02*
X126670290Y-82150779D01*
X119634000Y-82804000D02*
X116332000Y-79502000D01*
X126100000Y-82280945D02*
X126100000Y-82504000D01*
X126765450Y-82691046D02*
X126729709Y-82634165D01*
X126812953Y-82738549D02*
X126765450Y-82691046D01*
X126070290Y-82634165D02*
X126034549Y-82691046D01*
X127000000Y-82804000D02*
X126933243Y-82796478D01*
X132588000Y-82804000D02*
X127000000Y-82804000D01*
X126933243Y-82796478D02*
X126869834Y-82774290D01*
X126869834Y-82774290D02*
X126812953Y-82738549D01*
X126100000Y-82504000D02*
X126092478Y-82570756D01*
X126400000Y-81980945D02*
X126333243Y-81988466D01*
X126212953Y-82046395D02*
X126165450Y-82093898D01*
X137824122Y-75848122D02*
X137824122Y-77567878D01*
X126634549Y-82093898D02*
X126587046Y-82046395D01*
X126587046Y-82046395D02*
X126530165Y-82010654D01*
X125930165Y-82774290D02*
X125866756Y-82796478D01*
X126670290Y-82150779D02*
X126634549Y-82093898D01*
X126333243Y-81988466D02*
X126269834Y-82010654D01*
X126269834Y-82010654D02*
X126212953Y-82046395D01*
X126165450Y-82093898D02*
X126129709Y-82150779D01*
X126129709Y-82150779D02*
X126107521Y-82214188D01*
X125800000Y-82804000D02*
X119634000Y-82804000D01*
X126107521Y-82214188D02*
X126100000Y-82280945D01*
%TO.N,/PMOD_6P2_3*%
X120538001Y-81168001D02*
X118872000Y-79502000D01*
X131819116Y-80642300D02*
X131293415Y-81168001D01*
X131925181Y-80536236D02*
X131819116Y-80642300D01*
X132103724Y-80450255D02*
X132038229Y-80465205D01*
X132170902Y-80450256D02*
X132103724Y-80450255D01*
X132349446Y-80536237D02*
X132296923Y-80494352D01*
X133004030Y-80860965D02*
X132943503Y-80890113D01*
X133127584Y-80706032D02*
X133098436Y-80766558D01*
X133142533Y-80573359D02*
X133142534Y-80640537D01*
X133127585Y-80507864D02*
X133142533Y-80573359D01*
X132632288Y-80819079D02*
X132349446Y-80536237D01*
X133098437Y-80447338D02*
X133127585Y-80507864D01*
X132687727Y-79866251D02*
X132687728Y-79933429D01*
X132702677Y-79800756D02*
X132687727Y-79866251D01*
X132773708Y-79687708D02*
X132731823Y-79740231D01*
X132038229Y-80465205D02*
X131977703Y-80494353D01*
X133056552Y-80394815D02*
X133098437Y-80447338D01*
X133587810Y-78873608D02*
X132773708Y-79687708D01*
X133766354Y-78787625D02*
X133700859Y-78802574D01*
X133959553Y-78831722D02*
X133899027Y-78802574D01*
X133056552Y-80819079D02*
X133004030Y-80860965D01*
X134012074Y-78873608D02*
X133959553Y-78831722D01*
X134283669Y-79145203D02*
X134012074Y-78873608D01*
X134396718Y-79216236D02*
X134336193Y-79187088D01*
X134462213Y-79231184D02*
X134396718Y-79216236D01*
X134529391Y-79231185D02*
X134462213Y-79231184D01*
X134594886Y-79216235D02*
X134529391Y-79231185D01*
X134655411Y-79187089D02*
X134594886Y-79216235D01*
X134793916Y-78966659D02*
X134778967Y-79032154D01*
X134793916Y-78899481D02*
X134793916Y-78966659D01*
X135453648Y-76906559D02*
X135421417Y-76880856D01*
X132731823Y-79740231D02*
X132702677Y-79800756D01*
X135078355Y-77383059D02*
X135072733Y-77388683D01*
X132810830Y-80905062D02*
X132745337Y-80890112D01*
X133098436Y-80766558D02*
X133056552Y-80819079D01*
X132687728Y-79933429D02*
X132702676Y-79998924D01*
X135567708Y-76893708D02*
X135551592Y-76906559D01*
X135000416Y-77301856D02*
X135013268Y-77317972D01*
X132236397Y-80465204D02*
X132170902Y-80450256D01*
X132773709Y-80111972D02*
X133056552Y-80394815D01*
X135382751Y-76867326D02*
X135362139Y-76867326D01*
X134991473Y-77283286D02*
X135000416Y-77301856D01*
X135551592Y-76906559D02*
X135533022Y-76915502D01*
X133899027Y-78802574D02*
X133833532Y-78787625D01*
X134778967Y-79032154D02*
X134749819Y-79092680D01*
X135245246Y-78367708D02*
X135184721Y-78338560D01*
X134991473Y-77222483D02*
X134986886Y-77242579D01*
X134986886Y-77263191D02*
X134991473Y-77283286D01*
X135556461Y-78296675D02*
X135503939Y-78338561D01*
X133833532Y-78787625D02*
X133766354Y-78787625D01*
X134986886Y-77242579D02*
X134986886Y-77263191D01*
X133640333Y-78831722D02*
X133587810Y-78873608D01*
X135000416Y-77203913D02*
X134991473Y-77222483D01*
X135362139Y-76867326D02*
X135342044Y-76871913D01*
X132702676Y-79998924D02*
X132731824Y-80059449D01*
X135013268Y-77187797D02*
X135000416Y-77203913D01*
X135072733Y-77388683D02*
X135556461Y-77872411D01*
X135307358Y-76893708D02*
X135013268Y-77187797D01*
X138446840Y-74438840D02*
X138022576Y-74438840D01*
X135013268Y-77317972D02*
X135078355Y-77383059D01*
X134707933Y-79145203D02*
X134655411Y-79187089D01*
X135627495Y-77985458D02*
X135642444Y-78050953D01*
X135492314Y-76920089D02*
X135472219Y-76915502D01*
X135533022Y-76915502D02*
X135512926Y-76920089D01*
X132296923Y-80494352D02*
X132236397Y-80465204D01*
X138022576Y-74438840D02*
X135567708Y-76893708D01*
X135323473Y-76880856D02*
X135307358Y-76893708D01*
X135184721Y-78338560D02*
X135132197Y-78296675D01*
X135556461Y-77872411D02*
X135598347Y-77924932D01*
X134583381Y-77747859D02*
X134567266Y-77735008D01*
X135342044Y-76871913D02*
X135323473Y-76880856D01*
X135402847Y-76871913D02*
X135382751Y-76867326D01*
X135377919Y-78382657D02*
X135310741Y-78382656D01*
X135598347Y-77924932D02*
X135627495Y-77985458D01*
X135472219Y-76915502D02*
X135453648Y-76906559D01*
X135642444Y-78050953D02*
X135642444Y-78118131D01*
X135642444Y-78118131D02*
X135627495Y-78183626D01*
X132731824Y-80059449D02*
X132773709Y-80111972D01*
X134778967Y-78833986D02*
X134793916Y-78899481D01*
X135627495Y-78183626D02*
X135598347Y-78244152D01*
X132684810Y-80860966D02*
X132632288Y-80819079D01*
X134567266Y-77735008D02*
X134548696Y-77726065D01*
X131293415Y-81168001D02*
X120538001Y-81168001D01*
X134132735Y-78117342D02*
X134137322Y-78137437D01*
X135503939Y-78338561D02*
X135443414Y-78367707D01*
X135443414Y-78367707D02*
X135377919Y-78382657D01*
X135310741Y-78382656D02*
X135245246Y-78367708D01*
X135132197Y-78296675D02*
X134583381Y-77747859D01*
X134548696Y-77726065D02*
X134528600Y-77721478D01*
X132878010Y-80905061D02*
X132810830Y-80905062D01*
X135421417Y-76880856D02*
X135402847Y-76871913D01*
X134507988Y-77721478D02*
X134487893Y-77726065D01*
X134487893Y-77726065D02*
X134469322Y-77735008D01*
X132943503Y-80890113D02*
X132878010Y-80905061D01*
X134159117Y-78041948D02*
X134146265Y-78058064D01*
X134453207Y-77747859D02*
X134159117Y-78041948D01*
X134336193Y-79187088D02*
X134283669Y-79145203D01*
X134146265Y-78058064D02*
X134137322Y-78076634D01*
X134146265Y-78156007D02*
X134159117Y-78172123D01*
X133700859Y-78802574D02*
X133640333Y-78831722D01*
X134137322Y-78076634D02*
X134132735Y-78096730D01*
X132745337Y-80890112D02*
X132684810Y-80860966D01*
X134749819Y-79092680D02*
X134707933Y-79145203D01*
X134137322Y-78137437D02*
X134146265Y-78156007D01*
X134707933Y-78720939D02*
X134749819Y-78773460D01*
X134528600Y-77721478D02*
X134507988Y-77721478D01*
X134132735Y-78096730D02*
X134132735Y-78117342D01*
X134469322Y-77735008D02*
X134453207Y-77747859D01*
X135598347Y-78244152D02*
X135556461Y-78296675D01*
X134159117Y-78172123D02*
X134707933Y-78720939D01*
X131977703Y-80494353D02*
X131925181Y-80536236D01*
X133142534Y-80640537D02*
X133127584Y-80706032D01*
X135512926Y-76920089D02*
X135492314Y-76920089D01*
X134749819Y-78773460D02*
X134778967Y-78833986D01*
%TO.N,/PMOD_6P2_4*%
X122562001Y-80652001D02*
X121412000Y-79502000D01*
X128529999Y-80652001D02*
X122562001Y-80652001D01*
X128596755Y-80644479D02*
X128529999Y-80652001D01*
X128800289Y-80482166D02*
X128764548Y-80539047D01*
X128822477Y-80418757D02*
X128800289Y-80482166D01*
X128829999Y-80352001D02*
X128822477Y-80418757D01*
X128895449Y-79764954D02*
X128859708Y-79821835D01*
X129129999Y-79652001D02*
X129063242Y-79659522D01*
X129196755Y-79659522D02*
X129129999Y-79652001D01*
X129260164Y-79681710D02*
X129196755Y-79659522D01*
X129364548Y-79764954D02*
X129317045Y-79717451D01*
X129429999Y-79952001D02*
X129422477Y-79885244D01*
X129431252Y-80713128D02*
X129429999Y-80702001D01*
X129440907Y-80733176D02*
X129434950Y-80723696D01*
X129448824Y-80741093D02*
X129440907Y-80733176D01*
X129468872Y-80750748D02*
X129458304Y-80747050D01*
X129991125Y-80750748D02*
X129979999Y-80752001D01*
X130001693Y-80747050D02*
X129991125Y-80750748D01*
X130011173Y-80741093D02*
X130001693Y-80747050D01*
X130019090Y-80733176D02*
X130011173Y-80741093D01*
X130025047Y-80723696D02*
X130019090Y-80733176D01*
X130029999Y-79952001D02*
X130029999Y-80702001D01*
X128829999Y-79952001D02*
X128829999Y-80352001D01*
X130142952Y-79717451D02*
X130095449Y-79764954D01*
X130263242Y-79659522D02*
X130199833Y-79681710D01*
X134161730Y-77090413D02*
X134109207Y-77048528D01*
X133360852Y-77138064D02*
X133402738Y-77190587D01*
X133726827Y-77844532D02*
X133684943Y-77897056D01*
X133316756Y-76944865D02*
X133316756Y-77012044D01*
X134109207Y-77048528D02*
X133827002Y-76766323D01*
X131583630Y-79998372D02*
X130929999Y-80652001D01*
X133774480Y-76724438D02*
X133713954Y-76695290D01*
X133316756Y-77012044D02*
X133331705Y-77077538D01*
X134957735Y-76200000D02*
X134675530Y-75917795D01*
X129458304Y-80747050D02*
X129448824Y-80741093D01*
X134575355Y-76676785D02*
X134604503Y-76737311D01*
X132007892Y-78584157D02*
X131955369Y-78542272D01*
X128859708Y-79821835D02*
X128837520Y-79885244D01*
X134165284Y-76163516D02*
X134180233Y-76229010D01*
X134533470Y-76624263D02*
X134575355Y-76676785D01*
X131512595Y-78697205D02*
X131497646Y-78762699D01*
X128717045Y-80586550D02*
X128660164Y-80622291D01*
X131784567Y-80027032D02*
X131762734Y-80022050D01*
X133331705Y-76879371D02*
X133316756Y-76944865D01*
X133581281Y-76680342D02*
X133515787Y-76695290D01*
X134533471Y-77048528D02*
X134533472Y-77048528D01*
X139192000Y-65024000D02*
X139192000Y-72390000D01*
X134575355Y-76996004D02*
X134533471Y-77048528D01*
X133726827Y-77525313D02*
X133755975Y-77585839D01*
X133827002Y-76766323D02*
X133774480Y-76724438D01*
X130396755Y-79659522D02*
X130329999Y-79652001D01*
X133648460Y-76680342D02*
X133581281Y-76680342D01*
X134619451Y-76869984D02*
X134604503Y-76935478D01*
X131665538Y-79969711D02*
X131643144Y-79969712D01*
X134165284Y-76096337D02*
X134165284Y-76163516D01*
X134180233Y-76229010D02*
X134209380Y-76289536D01*
X129429999Y-80702001D02*
X129429999Y-79952001D01*
X134533472Y-77048528D02*
X134480949Y-77090413D01*
X133331705Y-77077538D02*
X133360852Y-77138064D01*
X134675530Y-75917795D02*
X134623008Y-75875910D01*
X133455261Y-76724438D02*
X133402738Y-76766323D01*
X135010258Y-76241885D02*
X134957735Y-76200000D01*
X130029999Y-80702001D02*
X130028745Y-80713128D01*
X134619451Y-76802805D02*
X134619451Y-76869984D01*
X135268951Y-76271032D02*
X135203457Y-76285981D01*
X133402738Y-76766323D02*
X133360852Y-76818845D01*
X130929999Y-80652001D02*
X130863242Y-80644479D01*
X131643144Y-79969712D02*
X131621313Y-79974695D01*
X132172994Y-79677845D02*
X132163277Y-79698021D01*
X135329477Y-76241885D02*
X135268951Y-76271032D01*
X134496988Y-75831814D02*
X134429809Y-75831814D01*
X132469278Y-78952981D02*
X132403784Y-78938032D01*
X129479999Y-80752001D02*
X129468872Y-80750748D01*
X134604503Y-76935478D02*
X134575355Y-76996004D01*
X135203457Y-76285981D02*
X135136278Y-76285981D01*
X134429809Y-75831814D02*
X134364315Y-75846762D01*
X132601951Y-78938032D02*
X132536457Y-78952981D01*
X129317045Y-79717451D02*
X129260164Y-79681710D01*
X134287750Y-77134509D02*
X134222256Y-77119560D01*
X129979999Y-80752001D02*
X129479999Y-80752001D01*
X135382000Y-76200000D02*
X135329477Y-76241885D01*
X131583628Y-79008421D02*
X132149315Y-79574107D01*
X128660164Y-80622291D02*
X128596755Y-80644479D01*
X133360852Y-76818845D02*
X133331705Y-76879371D01*
X131541742Y-78955898D02*
X131583628Y-79008421D01*
X135136278Y-76285981D02*
X135070784Y-76271032D01*
X133770923Y-77718512D02*
X133755975Y-77784006D01*
X138176000Y-64008000D02*
X139192000Y-65024000D01*
X129422477Y-79885244D02*
X129400289Y-79821835D01*
X130059708Y-79821835D02*
X130037520Y-79885244D01*
X132177976Y-79656014D02*
X132172994Y-79677845D01*
X129063242Y-79659522D02*
X128999833Y-79681710D01*
X130863242Y-80644479D02*
X130799833Y-80622291D01*
X128999833Y-79681710D02*
X128942952Y-79717451D01*
X134251266Y-75917795D02*
X134209380Y-75970317D01*
X134209380Y-75970317D02*
X134180233Y-76030843D01*
X134180233Y-76030843D02*
X134165284Y-76096337D01*
X129400289Y-79821835D02*
X129364548Y-79764954D01*
X135070784Y-76271032D02*
X135010258Y-76241885D01*
X132290735Y-78867000D02*
X132007892Y-78584157D01*
X133515787Y-76695290D02*
X133455261Y-76724438D01*
X134209380Y-76289536D02*
X134251266Y-76342059D01*
X132163277Y-79698021D02*
X132149315Y-79715529D01*
X134364315Y-75846762D02*
X134303789Y-75875910D01*
X134251266Y-76342059D02*
X134533470Y-76624263D01*
X134604503Y-76737311D02*
X134619451Y-76802805D01*
X133684943Y-77897056D02*
X133578879Y-78003121D01*
X133755975Y-77585839D02*
X133770923Y-77651333D01*
X131828790Y-80022050D02*
X131806959Y-80027033D01*
X133770923Y-77651333D02*
X133770923Y-77718512D01*
X133578879Y-78003121D02*
X132715000Y-78867000D01*
X134222256Y-77119560D02*
X134161730Y-77090413D01*
X132715000Y-78867000D02*
X132662477Y-78908885D01*
X132662477Y-78908885D02*
X132601951Y-78938032D01*
X129434950Y-80723696D02*
X129431252Y-80713128D01*
X132536457Y-78952981D02*
X132469278Y-78952981D01*
X131497646Y-78762699D02*
X131497646Y-78829878D01*
X132403784Y-78938032D02*
X132343258Y-78908885D01*
X130199833Y-79681710D02*
X130142952Y-79717451D01*
X134303789Y-75875910D02*
X134251266Y-75917795D01*
X132343258Y-78908885D02*
X132290735Y-78867000D01*
X130622477Y-79885244D02*
X130600289Y-79821835D01*
X133402738Y-77190587D02*
X133684942Y-77472791D01*
X134623008Y-75875910D02*
X134562482Y-75846762D01*
X130695449Y-80539047D02*
X130659708Y-80482166D01*
X139192000Y-72390000D02*
X135382000Y-76200000D01*
X131541742Y-78636679D02*
X131512595Y-78697205D01*
X131894843Y-78513124D02*
X131829349Y-78498175D01*
X130028745Y-80713128D02*
X130025047Y-80723696D01*
X133713954Y-76695290D02*
X133648460Y-76680342D01*
X131829349Y-78498175D02*
X131762170Y-78498175D01*
X130564548Y-79764954D02*
X130517045Y-79717451D01*
X131762170Y-78498175D02*
X131696676Y-78513124D01*
X131601139Y-79984410D02*
X131583630Y-79998372D01*
X134354929Y-77134509D02*
X134287750Y-77134509D01*
X131696676Y-78513124D02*
X131636150Y-78542272D01*
X128764548Y-80539047D02*
X128717045Y-80586550D01*
X131636150Y-78542272D02*
X131583628Y-78584157D01*
X131583628Y-78584157D02*
X131541742Y-78636679D01*
X131497646Y-78829878D02*
X131512595Y-78895372D01*
X131512595Y-78895372D02*
X131541742Y-78955898D01*
X128837520Y-79885244D02*
X128829999Y-79952001D01*
X134420423Y-77119560D02*
X134354929Y-77134509D01*
X132149315Y-79574107D02*
X132163277Y-79591615D01*
X132163277Y-79591615D02*
X132172994Y-79611789D01*
X133755975Y-77784006D02*
X133726827Y-77844532D01*
X132177977Y-79633620D02*
X132177976Y-79656014D01*
X131687369Y-79974695D02*
X131665538Y-79969711D01*
X134562482Y-75846762D02*
X134496988Y-75831814D01*
X132149315Y-79715529D02*
X131866474Y-79998371D01*
X131866474Y-79998371D02*
X131848966Y-80012333D01*
X130095449Y-79764954D02*
X130059708Y-79821835D01*
X131848966Y-80012333D02*
X131828790Y-80022050D01*
X131806959Y-80027033D02*
X131784567Y-80027032D01*
X131707545Y-79984410D02*
X131687369Y-79974695D01*
X131762734Y-80022050D02*
X131742560Y-80012333D01*
X128942952Y-79717451D02*
X128895449Y-79764954D01*
X131742560Y-80012333D02*
X131707545Y-79984410D01*
X133684942Y-77472791D02*
X133726827Y-77525313D01*
X130329999Y-79652001D02*
X130263242Y-79659522D01*
X131621313Y-79974695D02*
X131601139Y-79984410D01*
X130637520Y-80418757D02*
X130629999Y-80352001D01*
X130799833Y-80622291D02*
X130742952Y-80586550D01*
X131955369Y-78542272D02*
X131894843Y-78513124D01*
X130742952Y-80586550D02*
X130695449Y-80539047D01*
X134480949Y-77090413D02*
X134420423Y-77119560D01*
X130629999Y-80352001D02*
X130629999Y-79952001D01*
X130659708Y-80482166D02*
X130637520Y-80418757D01*
X132172994Y-79611789D02*
X132177977Y-79633620D01*
X130629999Y-79952001D02*
X130622477Y-79885244D01*
X130460164Y-79681710D02*
X130396755Y-79659522D01*
X130600289Y-79821835D02*
X130564548Y-79764954D01*
X130037520Y-79885244D02*
X130029999Y-79952001D01*
X130517045Y-79717451D02*
X130460164Y-79681710D01*
%TO.N,/QSPI_CS*%
X135890000Y-66293990D02*
X136397990Y-66293990D01*
X136397990Y-66293990D02*
X136906000Y-66802000D01*
%TO.N,/QSPI_IO1*%
X138656587Y-62411995D02*
X138247963Y-62003371D01*
X139518001Y-64239950D02*
X139518001Y-62713595D01*
X139216401Y-62411995D02*
X138656587Y-62411995D01*
X139495951Y-64262000D02*
X139518001Y-64239950D01*
X139518001Y-62713595D02*
X139216401Y-62411995D01*
%TO.N,/QSPI_IO2*%
X137777987Y-62750883D02*
X138019110Y-62992006D01*
X138019110Y-62992006D02*
X138938000Y-62992006D01*
%TO.N,/QSPI_IO0*%
X134544866Y-73330876D02*
X134544866Y-64845134D01*
X134544866Y-64845134D02*
X139192000Y-60198000D01*
X139192000Y-60198000D02*
X139192000Y-59944000D01*
X134844865Y-73630875D02*
X134544866Y-73330876D01*
%TO.N,/QSPI_SCK*%
X135890000Y-73212002D02*
X135890000Y-73914000D01*
X135860290Y-73081836D02*
X135882478Y-73145245D01*
X135240000Y-72912002D02*
X135590000Y-72912002D01*
X135109834Y-72882292D02*
X135173243Y-72904480D01*
X135590000Y-72912002D02*
X135656756Y-72919523D01*
X135052953Y-72846551D02*
X135109834Y-72882292D01*
X134969709Y-72742167D02*
X135005450Y-72799048D01*
X134947521Y-72678758D02*
X134969709Y-72742167D01*
X134940000Y-72612002D02*
X134947521Y-72678758D01*
X134947521Y-72545245D02*
X134940000Y-72612002D01*
X135005450Y-72424955D02*
X134969709Y-72481836D01*
X135656756Y-72919523D02*
X135720165Y-72941711D01*
X135052953Y-72377452D02*
X135005450Y-72424955D01*
X135109834Y-72341711D02*
X135052953Y-72377452D01*
X135240000Y-72312002D02*
X135173243Y-72319523D01*
X135882478Y-73145245D02*
X135890000Y-73212002D01*
X135720165Y-72941711D02*
X135777046Y-72977452D01*
X136140930Y-72294671D02*
X136103942Y-72307614D01*
X136174111Y-72273822D02*
X136140930Y-72294671D01*
X136222670Y-72212931D02*
X136201821Y-72246112D01*
X136240000Y-71887002D02*
X136240000Y-72137002D01*
X135098951Y-68410421D02*
X135051448Y-68457924D01*
X136240000Y-72137002D02*
X136235613Y-72175943D01*
X136035997Y-68044971D02*
X136028476Y-68111727D01*
X135824549Y-70999048D02*
X135777046Y-71046551D01*
X135219241Y-68352492D02*
X135155832Y-68374680D01*
X135109834Y-71141711D02*
X135052953Y-71177452D01*
X135285997Y-68344971D02*
X135219241Y-68352492D01*
X135802754Y-67752492D02*
X135866163Y-67774680D01*
X135735997Y-68344971D02*
X135285997Y-68344971D01*
X136235613Y-71848060D02*
X136240000Y-71887002D01*
X135866163Y-68315261D02*
X135802754Y-68337449D01*
X135240000Y-71712002D02*
X136065000Y-71712002D01*
X135802754Y-68337449D02*
X135735997Y-68344971D01*
X135173243Y-71119523D02*
X135109834Y-71141711D01*
X135923044Y-68279520D02*
X135866163Y-68315261D01*
X136201821Y-72246112D02*
X136174111Y-72273822D01*
X135970547Y-68232017D02*
X135923044Y-68279520D01*
X135051448Y-67632017D02*
X135098951Y-67679520D01*
X136006288Y-68175136D02*
X135970547Y-68232017D01*
X136006288Y-67914805D02*
X136028476Y-67978214D01*
X135155832Y-68374680D02*
X135098951Y-68410421D01*
X135322502Y-67108466D02*
X134985997Y-67444971D01*
X136028476Y-67978214D02*
X136035997Y-68044971D01*
X135824549Y-73024955D02*
X135860290Y-73081836D01*
X136103942Y-72307614D02*
X136065000Y-72312002D01*
X135285997Y-67744971D02*
X135735997Y-67744971D01*
X134969709Y-72481836D02*
X134947521Y-72545245D01*
X135173243Y-72319523D02*
X135109834Y-72341711D01*
X135777046Y-71046551D02*
X135720165Y-71082292D01*
X134993519Y-67511727D02*
X135015707Y-67575136D01*
X135720165Y-71082292D02*
X135656756Y-71104480D01*
X135735997Y-67744971D02*
X135802754Y-67752492D01*
X135098951Y-67679520D02*
X135155832Y-67715261D01*
X135015707Y-67575136D02*
X135051448Y-67632017D01*
X135051448Y-68457924D02*
X135015707Y-68514805D01*
X135052953Y-71177452D02*
X135005450Y-71224955D01*
X136235613Y-72175943D02*
X136222670Y-72212931D01*
X135923044Y-67810421D02*
X135970547Y-67857924D01*
X136222670Y-71811072D02*
X136235613Y-71848060D01*
X134969709Y-71281836D02*
X134947521Y-71345245D01*
X136065000Y-72312002D02*
X135240000Y-72312002D01*
X135219241Y-67737449D02*
X135285997Y-67744971D01*
X135155832Y-67715261D02*
X135219241Y-67737449D01*
X135866163Y-67774680D02*
X135923044Y-67810421D01*
X136201821Y-71777891D02*
X136222670Y-71811072D01*
X135015707Y-68514805D02*
X134993519Y-68578214D01*
X135970547Y-67857924D02*
X136006288Y-67914805D01*
X135890000Y-70812002D02*
X135882478Y-70878758D01*
X135005450Y-72799048D02*
X135052953Y-72846551D01*
X134993519Y-68578214D02*
X134985997Y-68644971D01*
X134985997Y-68644971D02*
X134985997Y-69907999D01*
X135777046Y-72977452D02*
X135824549Y-73024955D01*
X136103942Y-71716389D02*
X136140930Y-71729332D01*
X134985997Y-69907999D02*
X135890000Y-70812002D01*
X136028476Y-68111727D02*
X136006288Y-68175136D01*
X134985997Y-67444971D02*
X134993519Y-67511727D01*
X135882478Y-70878758D02*
X135860290Y-70942167D01*
X135860290Y-70942167D02*
X135824549Y-70999048D01*
X135005450Y-71224955D02*
X134969709Y-71281836D01*
X135656756Y-71104480D02*
X135590000Y-71112002D01*
X135590000Y-71112002D02*
X135240000Y-71112002D01*
X136065000Y-71712002D02*
X136103942Y-71716389D01*
X136174111Y-71750181D02*
X136201821Y-71777891D01*
X135240000Y-71112002D02*
X135173243Y-71119523D01*
X134947521Y-71478758D02*
X134969709Y-71542167D01*
X135173243Y-72904480D02*
X135240000Y-72912002D01*
X134947521Y-71345245D02*
X134940000Y-71412002D01*
X134940000Y-71412002D02*
X134947521Y-71478758D01*
X134969709Y-71542167D02*
X135005450Y-71599048D01*
X135005450Y-71599048D02*
X135052953Y-71646551D01*
X135109834Y-71682292D02*
X135173243Y-71704480D01*
X135052953Y-71646551D02*
X135109834Y-71682292D01*
X135173243Y-71704480D02*
X135240000Y-71712002D01*
X136140930Y-71729332D02*
X136174111Y-71750181D01*
%TO.N,/QSPI_IO3*%
X140075977Y-62488120D02*
X139486655Y-61898798D01*
X140075977Y-66453412D02*
X140075977Y-62488120D01*
X140660021Y-67037456D02*
X140075977Y-66453412D01*
%TO.N,/CLK*%
X120069999Y-61159999D02*
X120904000Y-61994000D01*
X120069999Y-59112001D02*
X120069999Y-61159999D01*
X122032000Y-57150000D02*
X120069999Y-59112001D01*
%TD*%
D22*
X126502772Y-62384000D03*
X120650000Y-60434000D03*
D23*
X134620000Y-59690000D03*
X125730000Y-61722004D03*
X125729994Y-62738000D03*
X131191000Y-60198000D03*
X127873873Y-71993873D03*
X116840000Y-69215000D03*
X114554000Y-69215000D03*
X119253000Y-69215000D03*
X138176000Y-87884000D03*
X133096000Y-53340000D03*
X137668000Y-71374000D03*
X113284000Y-56642000D03*
X125730000Y-65242000D03*
X131826000Y-62484000D03*
X122936000Y-62738000D03*
X122936000Y-61214000D03*
X128561611Y-71306135D03*
X138938000Y-83312000D03*
X129540000Y-54102000D03*
X120650000Y-63246000D03*
X133096000Y-85598000D03*
X137414000Y-73152000D03*
X135636000Y-69596000D03*
X132460077Y-73374824D03*
X122682000Y-58420000D03*
X122428000Y-64516000D03*
X136906000Y-54864000D03*
D22*
X127508000Y-54610000D03*
X117094000Y-51054000D03*
X131826000Y-56896000D03*
X125984000Y-54102000D03*
X122682000Y-54102000D03*
X127762000Y-58901500D03*
X123391078Y-56440922D03*
X138938000Y-59182006D03*
X138938000Y-58401987D03*
X122174000Y-65532000D03*
X112522000Y-69342000D03*
X112522000Y-71628000D03*
X128016000Y-67564000D03*
X125984000Y-68707000D03*
X129032006Y-62734000D03*
X134636820Y-60916176D03*
X133124843Y-59737156D03*
X132559157Y-60302842D03*
X130203843Y-60302842D03*
X129638157Y-59737156D03*
X137791323Y-60556698D03*
X137706124Y-66781879D03*
X137824122Y-75848122D03*
X138446840Y-74438840D03*
X138176000Y-64008000D03*
X135890000Y-66293990D03*
X136906000Y-66802000D03*
X139495951Y-64262000D03*
X138247963Y-62003371D03*
X137777987Y-62750883D03*
X138938000Y-62992006D03*
X134844865Y-73630875D03*
X139192000Y-59944000D03*
X135890000Y-73914000D03*
X135322502Y-67108466D03*
X140660021Y-67037456D03*
X139486655Y-61898798D03*
X122032000Y-57150000D03*
X120904000Y-61994000D03*
D23*
X141986000Y-63246000D03*
X141986000Y-65786000D03*
X141986000Y-68326000D03*
X141986000Y-70866000D03*
X130556000Y-74554000D03*
X130556000Y-76454000D03*
X126492000Y-79502000D03*
X126492000Y-76962000D03*
X123952000Y-79502000D03*
X123952000Y-76962000D03*
X121412000Y-79502000D03*
X121412000Y-76962000D03*
X118872000Y-79502000D03*
X118872000Y-76962000D03*
X116332000Y-79502000D03*
X116332000Y-76962000D03*
X113792000Y-79502000D03*
X113792000Y-76962000D03*
X104648000Y-88138000D03*
X104648000Y-85598000D03*
X104648000Y-83058000D03*
X104648000Y-80518000D03*
X104648000Y-77978000D03*
X104648000Y-75438000D03*
X104648000Y-72898000D03*
X120904000Y-52070000D03*
X120904000Y-49530000D03*
X123444000Y-52070000D03*
X123444000Y-49530000D03*
X125984000Y-52070000D03*
X125984000Y-49530000D03*
X128524000Y-52070000D03*
X128524000Y-49530000D03*
X131064000Y-52070000D03*
X131064000Y-49530000D03*
X138938000Y-50038000D03*
X141478000Y-50038000D03*
X110490000Y-62865000D03*
X110490000Y-60365000D03*
X108490000Y-60365000D03*
X108490000Y-62865000D03*
X105780000Y-67635000D03*
X105780000Y-55595000D03*
M02*
