%TF.GenerationSoftware,KiCad,Pcbnew,5.1.12*%
%TF.CreationDate,2021-12-06T16:47:01+08:00*%
%TF.ProjectId,elf2,656c6632-2e6b-4696-9361-645f70636258,rev?*%
%TF.SameCoordinates,Original*%
%TF.FileFunction,Paste,Top*%
%TF.FilePolarity,Positive*%
%FSLAX46Y46*%
G04 Gerber Fmt 4.6, Leading zero omitted, Abs format (unit mm)*
G04 Created by KiCad (PCBNEW 5.1.12) date 2021-12-06 16:47:01*
%MOMM*%
%LPD*%
G01*
G04 APERTURE LIST*
%ADD10R,1.400000X1.200000*%
%ADD11R,2.180000X1.600000*%
%ADD12R,1.500000X2.000000*%
%ADD13R,3.800000X2.000000*%
%ADD14R,0.600000X1.550000*%
%ADD15R,1.100000X1.100000*%
G04 APERTURE END LIST*
%TO.C,U1*%
G36*
G01*
X130785999Y-61194000D02*
X132866001Y-61194000D01*
G75*
G02*
X133116000Y-61443999I0J-249999D01*
G01*
X133116000Y-63524001D01*
G75*
G02*
X132866001Y-63774000I-249999J0D01*
G01*
X130785999Y-63774000D01*
G75*
G02*
X130536000Y-63524001I0J249999D01*
G01*
X130536000Y-61443999D01*
G75*
G02*
X130785999Y-61194000I249999J0D01*
G01*
G37*
G36*
G01*
X134501000Y-57584000D02*
X134651000Y-57584000D01*
G75*
G02*
X134726000Y-57659000I0J-75000D01*
G01*
X134726000Y-58984000D01*
G75*
G02*
X134651000Y-59059000I-75000J0D01*
G01*
X134501000Y-59059000D01*
G75*
G02*
X134426000Y-58984000I0J75000D01*
G01*
X134426000Y-57659000D01*
G75*
G02*
X134501000Y-57584000I75000J0D01*
G01*
G37*
G36*
G01*
X134001000Y-57584000D02*
X134151000Y-57584000D01*
G75*
G02*
X134226000Y-57659000I0J-75000D01*
G01*
X134226000Y-58984000D01*
G75*
G02*
X134151000Y-59059000I-75000J0D01*
G01*
X134001000Y-59059000D01*
G75*
G02*
X133926000Y-58984000I0J75000D01*
G01*
X133926000Y-57659000D01*
G75*
G02*
X134001000Y-57584000I75000J0D01*
G01*
G37*
G36*
G01*
X133501000Y-57584000D02*
X133651000Y-57584000D01*
G75*
G02*
X133726000Y-57659000I0J-75000D01*
G01*
X133726000Y-58984000D01*
G75*
G02*
X133651000Y-59059000I-75000J0D01*
G01*
X133501000Y-59059000D01*
G75*
G02*
X133426000Y-58984000I0J75000D01*
G01*
X133426000Y-57659000D01*
G75*
G02*
X133501000Y-57584000I75000J0D01*
G01*
G37*
G36*
G01*
X133001000Y-57584000D02*
X133151000Y-57584000D01*
G75*
G02*
X133226000Y-57659000I0J-75000D01*
G01*
X133226000Y-58984000D01*
G75*
G02*
X133151000Y-59059000I-75000J0D01*
G01*
X133001000Y-59059000D01*
G75*
G02*
X132926000Y-58984000I0J75000D01*
G01*
X132926000Y-57659000D01*
G75*
G02*
X133001000Y-57584000I75000J0D01*
G01*
G37*
G36*
G01*
X132501000Y-57584000D02*
X132651000Y-57584000D01*
G75*
G02*
X132726000Y-57659000I0J-75000D01*
G01*
X132726000Y-58984000D01*
G75*
G02*
X132651000Y-59059000I-75000J0D01*
G01*
X132501000Y-59059000D01*
G75*
G02*
X132426000Y-58984000I0J75000D01*
G01*
X132426000Y-57659000D01*
G75*
G02*
X132501000Y-57584000I75000J0D01*
G01*
G37*
G36*
G01*
X132001000Y-57584000D02*
X132151000Y-57584000D01*
G75*
G02*
X132226000Y-57659000I0J-75000D01*
G01*
X132226000Y-58984000D01*
G75*
G02*
X132151000Y-59059000I-75000J0D01*
G01*
X132001000Y-59059000D01*
G75*
G02*
X131926000Y-58984000I0J75000D01*
G01*
X131926000Y-57659000D01*
G75*
G02*
X132001000Y-57584000I75000J0D01*
G01*
G37*
G36*
G01*
X131501000Y-57584000D02*
X131651000Y-57584000D01*
G75*
G02*
X131726000Y-57659000I0J-75000D01*
G01*
X131726000Y-58984000D01*
G75*
G02*
X131651000Y-59059000I-75000J0D01*
G01*
X131501000Y-59059000D01*
G75*
G02*
X131426000Y-58984000I0J75000D01*
G01*
X131426000Y-57659000D01*
G75*
G02*
X131501000Y-57584000I75000J0D01*
G01*
G37*
G36*
G01*
X131001000Y-57584000D02*
X131151000Y-57584000D01*
G75*
G02*
X131226000Y-57659000I0J-75000D01*
G01*
X131226000Y-58984000D01*
G75*
G02*
X131151000Y-59059000I-75000J0D01*
G01*
X131001000Y-59059000D01*
G75*
G02*
X130926000Y-58984000I0J75000D01*
G01*
X130926000Y-57659000D01*
G75*
G02*
X131001000Y-57584000I75000J0D01*
G01*
G37*
G36*
G01*
X130501000Y-57584000D02*
X130651000Y-57584000D01*
G75*
G02*
X130726000Y-57659000I0J-75000D01*
G01*
X130726000Y-58984000D01*
G75*
G02*
X130651000Y-59059000I-75000J0D01*
G01*
X130501000Y-59059000D01*
G75*
G02*
X130426000Y-58984000I0J75000D01*
G01*
X130426000Y-57659000D01*
G75*
G02*
X130501000Y-57584000I75000J0D01*
G01*
G37*
G36*
G01*
X130001000Y-57584000D02*
X130151000Y-57584000D01*
G75*
G02*
X130226000Y-57659000I0J-75000D01*
G01*
X130226000Y-58984000D01*
G75*
G02*
X130151000Y-59059000I-75000J0D01*
G01*
X130001000Y-59059000D01*
G75*
G02*
X129926000Y-58984000I0J75000D01*
G01*
X129926000Y-57659000D01*
G75*
G02*
X130001000Y-57584000I75000J0D01*
G01*
G37*
G36*
G01*
X129501000Y-57584000D02*
X129651000Y-57584000D01*
G75*
G02*
X129726000Y-57659000I0J-75000D01*
G01*
X129726000Y-58984000D01*
G75*
G02*
X129651000Y-59059000I-75000J0D01*
G01*
X129501000Y-59059000D01*
G75*
G02*
X129426000Y-58984000I0J75000D01*
G01*
X129426000Y-57659000D01*
G75*
G02*
X129501000Y-57584000I75000J0D01*
G01*
G37*
G36*
G01*
X129001000Y-57584000D02*
X129151000Y-57584000D01*
G75*
G02*
X129226000Y-57659000I0J-75000D01*
G01*
X129226000Y-58984000D01*
G75*
G02*
X129151000Y-59059000I-75000J0D01*
G01*
X129001000Y-59059000D01*
G75*
G02*
X128926000Y-58984000I0J75000D01*
G01*
X128926000Y-57659000D01*
G75*
G02*
X129001000Y-57584000I75000J0D01*
G01*
G37*
G36*
G01*
X127001000Y-59584000D02*
X128326000Y-59584000D01*
G75*
G02*
X128401000Y-59659000I0J-75000D01*
G01*
X128401000Y-59809000D01*
G75*
G02*
X128326000Y-59884000I-75000J0D01*
G01*
X127001000Y-59884000D01*
G75*
G02*
X126926000Y-59809000I0J75000D01*
G01*
X126926000Y-59659000D01*
G75*
G02*
X127001000Y-59584000I75000J0D01*
G01*
G37*
G36*
G01*
X127001000Y-60084000D02*
X128326000Y-60084000D01*
G75*
G02*
X128401000Y-60159000I0J-75000D01*
G01*
X128401000Y-60309000D01*
G75*
G02*
X128326000Y-60384000I-75000J0D01*
G01*
X127001000Y-60384000D01*
G75*
G02*
X126926000Y-60309000I0J75000D01*
G01*
X126926000Y-60159000D01*
G75*
G02*
X127001000Y-60084000I75000J0D01*
G01*
G37*
G36*
G01*
X127001000Y-60584000D02*
X128326000Y-60584000D01*
G75*
G02*
X128401000Y-60659000I0J-75000D01*
G01*
X128401000Y-60809000D01*
G75*
G02*
X128326000Y-60884000I-75000J0D01*
G01*
X127001000Y-60884000D01*
G75*
G02*
X126926000Y-60809000I0J75000D01*
G01*
X126926000Y-60659000D01*
G75*
G02*
X127001000Y-60584000I75000J0D01*
G01*
G37*
G36*
G01*
X127001000Y-61084000D02*
X128326000Y-61084000D01*
G75*
G02*
X128401000Y-61159000I0J-75000D01*
G01*
X128401000Y-61309000D01*
G75*
G02*
X128326000Y-61384000I-75000J0D01*
G01*
X127001000Y-61384000D01*
G75*
G02*
X126926000Y-61309000I0J75000D01*
G01*
X126926000Y-61159000D01*
G75*
G02*
X127001000Y-61084000I75000J0D01*
G01*
G37*
G36*
G01*
X127001000Y-61584000D02*
X128326000Y-61584000D01*
G75*
G02*
X128401000Y-61659000I0J-75000D01*
G01*
X128401000Y-61809000D01*
G75*
G02*
X128326000Y-61884000I-75000J0D01*
G01*
X127001000Y-61884000D01*
G75*
G02*
X126926000Y-61809000I0J75000D01*
G01*
X126926000Y-61659000D01*
G75*
G02*
X127001000Y-61584000I75000J0D01*
G01*
G37*
G36*
G01*
X127001000Y-62084000D02*
X128326000Y-62084000D01*
G75*
G02*
X128401000Y-62159000I0J-75000D01*
G01*
X128401000Y-62309000D01*
G75*
G02*
X128326000Y-62384000I-75000J0D01*
G01*
X127001000Y-62384000D01*
G75*
G02*
X126926000Y-62309000I0J75000D01*
G01*
X126926000Y-62159000D01*
G75*
G02*
X127001000Y-62084000I75000J0D01*
G01*
G37*
G36*
G01*
X127001000Y-62584000D02*
X128326000Y-62584000D01*
G75*
G02*
X128401000Y-62659000I0J-75000D01*
G01*
X128401000Y-62809000D01*
G75*
G02*
X128326000Y-62884000I-75000J0D01*
G01*
X127001000Y-62884000D01*
G75*
G02*
X126926000Y-62809000I0J75000D01*
G01*
X126926000Y-62659000D01*
G75*
G02*
X127001000Y-62584000I75000J0D01*
G01*
G37*
G36*
G01*
X127001000Y-63084000D02*
X128326000Y-63084000D01*
G75*
G02*
X128401000Y-63159000I0J-75000D01*
G01*
X128401000Y-63309000D01*
G75*
G02*
X128326000Y-63384000I-75000J0D01*
G01*
X127001000Y-63384000D01*
G75*
G02*
X126926000Y-63309000I0J75000D01*
G01*
X126926000Y-63159000D01*
G75*
G02*
X127001000Y-63084000I75000J0D01*
G01*
G37*
G36*
G01*
X127001000Y-63584000D02*
X128326000Y-63584000D01*
G75*
G02*
X128401000Y-63659000I0J-75000D01*
G01*
X128401000Y-63809000D01*
G75*
G02*
X128326000Y-63884000I-75000J0D01*
G01*
X127001000Y-63884000D01*
G75*
G02*
X126926000Y-63809000I0J75000D01*
G01*
X126926000Y-63659000D01*
G75*
G02*
X127001000Y-63584000I75000J0D01*
G01*
G37*
G36*
G01*
X127001000Y-64084000D02*
X128326000Y-64084000D01*
G75*
G02*
X128401000Y-64159000I0J-75000D01*
G01*
X128401000Y-64309000D01*
G75*
G02*
X128326000Y-64384000I-75000J0D01*
G01*
X127001000Y-64384000D01*
G75*
G02*
X126926000Y-64309000I0J75000D01*
G01*
X126926000Y-64159000D01*
G75*
G02*
X127001000Y-64084000I75000J0D01*
G01*
G37*
G36*
G01*
X127001000Y-64584000D02*
X128326000Y-64584000D01*
G75*
G02*
X128401000Y-64659000I0J-75000D01*
G01*
X128401000Y-64809000D01*
G75*
G02*
X128326000Y-64884000I-75000J0D01*
G01*
X127001000Y-64884000D01*
G75*
G02*
X126926000Y-64809000I0J75000D01*
G01*
X126926000Y-64659000D01*
G75*
G02*
X127001000Y-64584000I75000J0D01*
G01*
G37*
G36*
G01*
X127001000Y-65084000D02*
X128326000Y-65084000D01*
G75*
G02*
X128401000Y-65159000I0J-75000D01*
G01*
X128401000Y-65309000D01*
G75*
G02*
X128326000Y-65384000I-75000J0D01*
G01*
X127001000Y-65384000D01*
G75*
G02*
X126926000Y-65309000I0J75000D01*
G01*
X126926000Y-65159000D01*
G75*
G02*
X127001000Y-65084000I75000J0D01*
G01*
G37*
G36*
G01*
X129001000Y-65909000D02*
X129151000Y-65909000D01*
G75*
G02*
X129226000Y-65984000I0J-75000D01*
G01*
X129226000Y-67309000D01*
G75*
G02*
X129151000Y-67384000I-75000J0D01*
G01*
X129001000Y-67384000D01*
G75*
G02*
X128926000Y-67309000I0J75000D01*
G01*
X128926000Y-65984000D01*
G75*
G02*
X129001000Y-65909000I75000J0D01*
G01*
G37*
G36*
G01*
X129501000Y-65909000D02*
X129651000Y-65909000D01*
G75*
G02*
X129726000Y-65984000I0J-75000D01*
G01*
X129726000Y-67309000D01*
G75*
G02*
X129651000Y-67384000I-75000J0D01*
G01*
X129501000Y-67384000D01*
G75*
G02*
X129426000Y-67309000I0J75000D01*
G01*
X129426000Y-65984000D01*
G75*
G02*
X129501000Y-65909000I75000J0D01*
G01*
G37*
G36*
G01*
X130001000Y-65909000D02*
X130151000Y-65909000D01*
G75*
G02*
X130226000Y-65984000I0J-75000D01*
G01*
X130226000Y-67309000D01*
G75*
G02*
X130151000Y-67384000I-75000J0D01*
G01*
X130001000Y-67384000D01*
G75*
G02*
X129926000Y-67309000I0J75000D01*
G01*
X129926000Y-65984000D01*
G75*
G02*
X130001000Y-65909000I75000J0D01*
G01*
G37*
G36*
G01*
X130501000Y-65909000D02*
X130651000Y-65909000D01*
G75*
G02*
X130726000Y-65984000I0J-75000D01*
G01*
X130726000Y-67309000D01*
G75*
G02*
X130651000Y-67384000I-75000J0D01*
G01*
X130501000Y-67384000D01*
G75*
G02*
X130426000Y-67309000I0J75000D01*
G01*
X130426000Y-65984000D01*
G75*
G02*
X130501000Y-65909000I75000J0D01*
G01*
G37*
G36*
G01*
X131001000Y-65909000D02*
X131151000Y-65909000D01*
G75*
G02*
X131226000Y-65984000I0J-75000D01*
G01*
X131226000Y-67309000D01*
G75*
G02*
X131151000Y-67384000I-75000J0D01*
G01*
X131001000Y-67384000D01*
G75*
G02*
X130926000Y-67309000I0J75000D01*
G01*
X130926000Y-65984000D01*
G75*
G02*
X131001000Y-65909000I75000J0D01*
G01*
G37*
G36*
G01*
X131501000Y-65909000D02*
X131651000Y-65909000D01*
G75*
G02*
X131726000Y-65984000I0J-75000D01*
G01*
X131726000Y-67309000D01*
G75*
G02*
X131651000Y-67384000I-75000J0D01*
G01*
X131501000Y-67384000D01*
G75*
G02*
X131426000Y-67309000I0J75000D01*
G01*
X131426000Y-65984000D01*
G75*
G02*
X131501000Y-65909000I75000J0D01*
G01*
G37*
G36*
G01*
X132001000Y-65909000D02*
X132151000Y-65909000D01*
G75*
G02*
X132226000Y-65984000I0J-75000D01*
G01*
X132226000Y-67309000D01*
G75*
G02*
X132151000Y-67384000I-75000J0D01*
G01*
X132001000Y-67384000D01*
G75*
G02*
X131926000Y-67309000I0J75000D01*
G01*
X131926000Y-65984000D01*
G75*
G02*
X132001000Y-65909000I75000J0D01*
G01*
G37*
G36*
G01*
X132501000Y-65909000D02*
X132651000Y-65909000D01*
G75*
G02*
X132726000Y-65984000I0J-75000D01*
G01*
X132726000Y-67309000D01*
G75*
G02*
X132651000Y-67384000I-75000J0D01*
G01*
X132501000Y-67384000D01*
G75*
G02*
X132426000Y-67309000I0J75000D01*
G01*
X132426000Y-65984000D01*
G75*
G02*
X132501000Y-65909000I75000J0D01*
G01*
G37*
G36*
G01*
X133001000Y-65909000D02*
X133151000Y-65909000D01*
G75*
G02*
X133226000Y-65984000I0J-75000D01*
G01*
X133226000Y-67309000D01*
G75*
G02*
X133151000Y-67384000I-75000J0D01*
G01*
X133001000Y-67384000D01*
G75*
G02*
X132926000Y-67309000I0J75000D01*
G01*
X132926000Y-65984000D01*
G75*
G02*
X133001000Y-65909000I75000J0D01*
G01*
G37*
G36*
G01*
X133501000Y-65909000D02*
X133651000Y-65909000D01*
G75*
G02*
X133726000Y-65984000I0J-75000D01*
G01*
X133726000Y-67309000D01*
G75*
G02*
X133651000Y-67384000I-75000J0D01*
G01*
X133501000Y-67384000D01*
G75*
G02*
X133426000Y-67309000I0J75000D01*
G01*
X133426000Y-65984000D01*
G75*
G02*
X133501000Y-65909000I75000J0D01*
G01*
G37*
G36*
G01*
X134001000Y-65909000D02*
X134151000Y-65909000D01*
G75*
G02*
X134226000Y-65984000I0J-75000D01*
G01*
X134226000Y-67309000D01*
G75*
G02*
X134151000Y-67384000I-75000J0D01*
G01*
X134001000Y-67384000D01*
G75*
G02*
X133926000Y-67309000I0J75000D01*
G01*
X133926000Y-65984000D01*
G75*
G02*
X134001000Y-65909000I75000J0D01*
G01*
G37*
G36*
G01*
X134501000Y-65909000D02*
X134651000Y-65909000D01*
G75*
G02*
X134726000Y-65984000I0J-75000D01*
G01*
X134726000Y-67309000D01*
G75*
G02*
X134651000Y-67384000I-75000J0D01*
G01*
X134501000Y-67384000D01*
G75*
G02*
X134426000Y-67309000I0J75000D01*
G01*
X134426000Y-65984000D01*
G75*
G02*
X134501000Y-65909000I75000J0D01*
G01*
G37*
G36*
G01*
X135326000Y-65084000D02*
X136651000Y-65084000D01*
G75*
G02*
X136726000Y-65159000I0J-75000D01*
G01*
X136726000Y-65309000D01*
G75*
G02*
X136651000Y-65384000I-75000J0D01*
G01*
X135326000Y-65384000D01*
G75*
G02*
X135251000Y-65309000I0J75000D01*
G01*
X135251000Y-65159000D01*
G75*
G02*
X135326000Y-65084000I75000J0D01*
G01*
G37*
G36*
G01*
X135326000Y-64584000D02*
X136651000Y-64584000D01*
G75*
G02*
X136726000Y-64659000I0J-75000D01*
G01*
X136726000Y-64809000D01*
G75*
G02*
X136651000Y-64884000I-75000J0D01*
G01*
X135326000Y-64884000D01*
G75*
G02*
X135251000Y-64809000I0J75000D01*
G01*
X135251000Y-64659000D01*
G75*
G02*
X135326000Y-64584000I75000J0D01*
G01*
G37*
G36*
G01*
X135326000Y-64084000D02*
X136651000Y-64084000D01*
G75*
G02*
X136726000Y-64159000I0J-75000D01*
G01*
X136726000Y-64309000D01*
G75*
G02*
X136651000Y-64384000I-75000J0D01*
G01*
X135326000Y-64384000D01*
G75*
G02*
X135251000Y-64309000I0J75000D01*
G01*
X135251000Y-64159000D01*
G75*
G02*
X135326000Y-64084000I75000J0D01*
G01*
G37*
G36*
G01*
X135326000Y-63584000D02*
X136651000Y-63584000D01*
G75*
G02*
X136726000Y-63659000I0J-75000D01*
G01*
X136726000Y-63809000D01*
G75*
G02*
X136651000Y-63884000I-75000J0D01*
G01*
X135326000Y-63884000D01*
G75*
G02*
X135251000Y-63809000I0J75000D01*
G01*
X135251000Y-63659000D01*
G75*
G02*
X135326000Y-63584000I75000J0D01*
G01*
G37*
G36*
G01*
X135326000Y-63084000D02*
X136651000Y-63084000D01*
G75*
G02*
X136726000Y-63159000I0J-75000D01*
G01*
X136726000Y-63309000D01*
G75*
G02*
X136651000Y-63384000I-75000J0D01*
G01*
X135326000Y-63384000D01*
G75*
G02*
X135251000Y-63309000I0J75000D01*
G01*
X135251000Y-63159000D01*
G75*
G02*
X135326000Y-63084000I75000J0D01*
G01*
G37*
G36*
G01*
X135326000Y-62584000D02*
X136651000Y-62584000D01*
G75*
G02*
X136726000Y-62659000I0J-75000D01*
G01*
X136726000Y-62809000D01*
G75*
G02*
X136651000Y-62884000I-75000J0D01*
G01*
X135326000Y-62884000D01*
G75*
G02*
X135251000Y-62809000I0J75000D01*
G01*
X135251000Y-62659000D01*
G75*
G02*
X135326000Y-62584000I75000J0D01*
G01*
G37*
G36*
G01*
X135326000Y-62084000D02*
X136651000Y-62084000D01*
G75*
G02*
X136726000Y-62159000I0J-75000D01*
G01*
X136726000Y-62309000D01*
G75*
G02*
X136651000Y-62384000I-75000J0D01*
G01*
X135326000Y-62384000D01*
G75*
G02*
X135251000Y-62309000I0J75000D01*
G01*
X135251000Y-62159000D01*
G75*
G02*
X135326000Y-62084000I75000J0D01*
G01*
G37*
G36*
G01*
X135326000Y-61584000D02*
X136651000Y-61584000D01*
G75*
G02*
X136726000Y-61659000I0J-75000D01*
G01*
X136726000Y-61809000D01*
G75*
G02*
X136651000Y-61884000I-75000J0D01*
G01*
X135326000Y-61884000D01*
G75*
G02*
X135251000Y-61809000I0J75000D01*
G01*
X135251000Y-61659000D01*
G75*
G02*
X135326000Y-61584000I75000J0D01*
G01*
G37*
G36*
G01*
X135326000Y-61084000D02*
X136651000Y-61084000D01*
G75*
G02*
X136726000Y-61159000I0J-75000D01*
G01*
X136726000Y-61309000D01*
G75*
G02*
X136651000Y-61384000I-75000J0D01*
G01*
X135326000Y-61384000D01*
G75*
G02*
X135251000Y-61309000I0J75000D01*
G01*
X135251000Y-61159000D01*
G75*
G02*
X135326000Y-61084000I75000J0D01*
G01*
G37*
G36*
G01*
X135326000Y-60584000D02*
X136651000Y-60584000D01*
G75*
G02*
X136726000Y-60659000I0J-75000D01*
G01*
X136726000Y-60809000D01*
G75*
G02*
X136651000Y-60884000I-75000J0D01*
G01*
X135326000Y-60884000D01*
G75*
G02*
X135251000Y-60809000I0J75000D01*
G01*
X135251000Y-60659000D01*
G75*
G02*
X135326000Y-60584000I75000J0D01*
G01*
G37*
G36*
G01*
X135326000Y-60084000D02*
X136651000Y-60084000D01*
G75*
G02*
X136726000Y-60159000I0J-75000D01*
G01*
X136726000Y-60309000D01*
G75*
G02*
X136651000Y-60384000I-75000J0D01*
G01*
X135326000Y-60384000D01*
G75*
G02*
X135251000Y-60309000I0J75000D01*
G01*
X135251000Y-60159000D01*
G75*
G02*
X135326000Y-60084000I75000J0D01*
G01*
G37*
G36*
G01*
X135326000Y-59584000D02*
X136651000Y-59584000D01*
G75*
G02*
X136726000Y-59659000I0J-75000D01*
G01*
X136726000Y-59809000D01*
G75*
G02*
X136651000Y-59884000I-75000J0D01*
G01*
X135326000Y-59884000D01*
G75*
G02*
X135251000Y-59809000I0J75000D01*
G01*
X135251000Y-59659000D01*
G75*
G02*
X135326000Y-59584000I75000J0D01*
G01*
G37*
%TD*%
D10*
%TO.C,X1*%
X117668000Y-56559001D03*
X120208000Y-56559001D03*
X120208000Y-58759001D03*
X117668000Y-58759001D03*
%TD*%
%TO.C,C16*%
G36*
G01*
X115486000Y-57204000D02*
X115146000Y-57204000D01*
G75*
G02*
X115006000Y-57064000I0J140000D01*
G01*
X115006000Y-56784000D01*
G75*
G02*
X115146000Y-56644000I140000J0D01*
G01*
X115486000Y-56644000D01*
G75*
G02*
X115626000Y-56784000I0J-140000D01*
G01*
X115626000Y-57064000D01*
G75*
G02*
X115486000Y-57204000I-140000J0D01*
G01*
G37*
G36*
G01*
X115486000Y-58164000D02*
X115146000Y-58164000D01*
G75*
G02*
X115006000Y-58024000I0J140000D01*
G01*
X115006000Y-57744000D01*
G75*
G02*
X115146000Y-57604000I140000J0D01*
G01*
X115486000Y-57604000D01*
G75*
G02*
X115626000Y-57744000I0J-140000D01*
G01*
X115626000Y-58024000D01*
G75*
G02*
X115486000Y-58164000I-140000J0D01*
G01*
G37*
%TD*%
D11*
%TO.C,SW1*%
X104884000Y-50292000D03*
X114064000Y-50292000D03*
%TD*%
%TO.C,C9*%
G36*
G01*
X134892000Y-72217500D02*
X134892000Y-72562500D01*
G75*
G02*
X134744500Y-72710000I-147500J0D01*
G01*
X134449500Y-72710000D01*
G75*
G02*
X134302000Y-72562500I0J147500D01*
G01*
X134302000Y-72217500D01*
G75*
G02*
X134449500Y-72070000I147500J0D01*
G01*
X134744500Y-72070000D01*
G75*
G02*
X134892000Y-72217500I0J-147500D01*
G01*
G37*
G36*
G01*
X133922000Y-72217500D02*
X133922000Y-72562500D01*
G75*
G02*
X133774500Y-72710000I-147500J0D01*
G01*
X133479500Y-72710000D01*
G75*
G02*
X133332000Y-72562500I0J147500D01*
G01*
X133332000Y-72217500D01*
G75*
G02*
X133479500Y-72070000I147500J0D01*
G01*
X133774500Y-72070000D01*
G75*
G02*
X133922000Y-72217500I0J-147500D01*
G01*
G37*
%TD*%
D12*
%TO.C,U2*%
X119140000Y-66065000D03*
X114540000Y-66065000D03*
X116840000Y-66065000D03*
D13*
X116840000Y-72365000D03*
%TD*%
D14*
%TO.C,U3*%
X135509000Y-88044000D03*
X134239000Y-88044000D03*
X132969000Y-88044000D03*
X131699000Y-88044000D03*
X131699000Y-82644000D03*
X132969000Y-82644000D03*
X134239000Y-82644000D03*
X135509000Y-82644000D03*
%TD*%
%TO.C,C15*%
G36*
G01*
X138511500Y-84056000D02*
X138856500Y-84056000D01*
G75*
G02*
X139004000Y-84203500I0J-147500D01*
G01*
X139004000Y-84498500D01*
G75*
G02*
X138856500Y-84646000I-147500J0D01*
G01*
X138511500Y-84646000D01*
G75*
G02*
X138364000Y-84498500I0J147500D01*
G01*
X138364000Y-84203500D01*
G75*
G02*
X138511500Y-84056000I147500J0D01*
G01*
G37*
G36*
G01*
X138511500Y-85026000D02*
X138856500Y-85026000D01*
G75*
G02*
X139004000Y-85173500I0J-147500D01*
G01*
X139004000Y-85468500D01*
G75*
G02*
X138856500Y-85616000I-147500J0D01*
G01*
X138511500Y-85616000D01*
G75*
G02*
X138364000Y-85468500I0J147500D01*
G01*
X138364000Y-85173500D01*
G75*
G02*
X138511500Y-85026000I147500J0D01*
G01*
G37*
%TD*%
%TO.C,D3*%
G36*
G01*
X125050000Y-69593750D02*
X125050000Y-70106250D01*
G75*
G02*
X124831250Y-70325000I-218750J0D01*
G01*
X124393750Y-70325000D01*
G75*
G02*
X124175000Y-70106250I0J218750D01*
G01*
X124175000Y-69593750D01*
G75*
G02*
X124393750Y-69375000I218750J0D01*
G01*
X124831250Y-69375000D01*
G75*
G02*
X125050000Y-69593750I0J-218750D01*
G01*
G37*
G36*
G01*
X123475000Y-69593750D02*
X123475000Y-70106250D01*
G75*
G02*
X123256250Y-70325000I-218750J0D01*
G01*
X122818750Y-70325000D01*
G75*
G02*
X122600000Y-70106250I0J218750D01*
G01*
X122600000Y-69593750D01*
G75*
G02*
X122818750Y-69375000I218750J0D01*
G01*
X123256250Y-69375000D01*
G75*
G02*
X123475000Y-69593750I0J-218750D01*
G01*
G37*
%TD*%
%TO.C,D4*%
G36*
G01*
X124175000Y-68582250D02*
X124175000Y-68069750D01*
G75*
G02*
X124393750Y-67851000I218750J0D01*
G01*
X124831250Y-67851000D01*
G75*
G02*
X125050000Y-68069750I0J-218750D01*
G01*
X125050000Y-68582250D01*
G75*
G02*
X124831250Y-68801000I-218750J0D01*
G01*
X124393750Y-68801000D01*
G75*
G02*
X124175000Y-68582250I0J218750D01*
G01*
G37*
G36*
G01*
X122600000Y-68582250D02*
X122600000Y-68069750D01*
G75*
G02*
X122818750Y-67851000I218750J0D01*
G01*
X123256250Y-67851000D01*
G75*
G02*
X123475000Y-68069750I0J-218750D01*
G01*
X123475000Y-68582250D01*
G75*
G02*
X123256250Y-68801000I-218750J0D01*
G01*
X122818750Y-68801000D01*
G75*
G02*
X122600000Y-68582250I0J218750D01*
G01*
G37*
%TD*%
%TO.C,D5*%
G36*
G01*
X122600000Y-67058250D02*
X122600000Y-66545750D01*
G75*
G02*
X122818750Y-66327000I218750J0D01*
G01*
X123256250Y-66327000D01*
G75*
G02*
X123475000Y-66545750I0J-218750D01*
G01*
X123475000Y-67058250D01*
G75*
G02*
X123256250Y-67277000I-218750J0D01*
G01*
X122818750Y-67277000D01*
G75*
G02*
X122600000Y-67058250I0J218750D01*
G01*
G37*
G36*
G01*
X124175000Y-67058250D02*
X124175000Y-66545750D01*
G75*
G02*
X124393750Y-66327000I218750J0D01*
G01*
X124831250Y-66327000D01*
G75*
G02*
X125050000Y-66545750I0J-218750D01*
G01*
X125050000Y-67058250D01*
G75*
G02*
X124831250Y-67277000I-218750J0D01*
G01*
X124393750Y-67277000D01*
G75*
G02*
X124175000Y-67058250I0J218750D01*
G01*
G37*
%TD*%
%TO.C,R8*%
G36*
G01*
X127145000Y-66248500D02*
X127145000Y-66593500D01*
G75*
G02*
X126997500Y-66741000I-147500J0D01*
G01*
X126702500Y-66741000D01*
G75*
G02*
X126555000Y-66593500I0J147500D01*
G01*
X126555000Y-66248500D01*
G75*
G02*
X126702500Y-66101000I147500J0D01*
G01*
X126997500Y-66101000D01*
G75*
G02*
X127145000Y-66248500I0J-147500D01*
G01*
G37*
G36*
G01*
X126175000Y-66248500D02*
X126175000Y-66593500D01*
G75*
G02*
X126027500Y-66741000I-147500J0D01*
G01*
X125732500Y-66741000D01*
G75*
G02*
X125585000Y-66593500I0J147500D01*
G01*
X125585000Y-66248500D01*
G75*
G02*
X125732500Y-66101000I147500J0D01*
G01*
X126027500Y-66101000D01*
G75*
G02*
X126175000Y-66248500I0J-147500D01*
G01*
G37*
%TD*%
%TO.C,R7*%
G36*
G01*
X126175000Y-67264500D02*
X126175000Y-67609500D01*
G75*
G02*
X126027500Y-67757000I-147500J0D01*
G01*
X125732500Y-67757000D01*
G75*
G02*
X125585000Y-67609500I0J147500D01*
G01*
X125585000Y-67264500D01*
G75*
G02*
X125732500Y-67117000I147500J0D01*
G01*
X126027500Y-67117000D01*
G75*
G02*
X126175000Y-67264500I0J-147500D01*
G01*
G37*
G36*
G01*
X127145000Y-67264500D02*
X127145000Y-67609500D01*
G75*
G02*
X126997500Y-67757000I-147500J0D01*
G01*
X126702500Y-67757000D01*
G75*
G02*
X126555000Y-67609500I0J147500D01*
G01*
X126555000Y-67264500D01*
G75*
G02*
X126702500Y-67117000I147500J0D01*
G01*
X126997500Y-67117000D01*
G75*
G02*
X127145000Y-67264500I0J-147500D01*
G01*
G37*
%TD*%
%TO.C,R6*%
G36*
G01*
X121493500Y-68562000D02*
X121838500Y-68562000D01*
G75*
G02*
X121986000Y-68709500I0J-147500D01*
G01*
X121986000Y-69004500D01*
G75*
G02*
X121838500Y-69152000I-147500J0D01*
G01*
X121493500Y-69152000D01*
G75*
G02*
X121346000Y-69004500I0J147500D01*
G01*
X121346000Y-68709500D01*
G75*
G02*
X121493500Y-68562000I147500J0D01*
G01*
G37*
G36*
G01*
X121493500Y-69532000D02*
X121838500Y-69532000D01*
G75*
G02*
X121986000Y-69679500I0J-147500D01*
G01*
X121986000Y-69974500D01*
G75*
G02*
X121838500Y-70122000I-147500J0D01*
G01*
X121493500Y-70122000D01*
G75*
G02*
X121346000Y-69974500I0J147500D01*
G01*
X121346000Y-69679500D01*
G75*
G02*
X121493500Y-69532000I147500J0D01*
G01*
G37*
%TD*%
%TO.C,R5*%
G36*
G01*
X132415500Y-55308000D02*
X132760500Y-55308000D01*
G75*
G02*
X132908000Y-55455500I0J-147500D01*
G01*
X132908000Y-55750500D01*
G75*
G02*
X132760500Y-55898000I-147500J0D01*
G01*
X132415500Y-55898000D01*
G75*
G02*
X132268000Y-55750500I0J147500D01*
G01*
X132268000Y-55455500D01*
G75*
G02*
X132415500Y-55308000I147500J0D01*
G01*
G37*
G36*
G01*
X132415500Y-54338000D02*
X132760500Y-54338000D01*
G75*
G02*
X132908000Y-54485500I0J-147500D01*
G01*
X132908000Y-54780500D01*
G75*
G02*
X132760500Y-54928000I-147500J0D01*
G01*
X132415500Y-54928000D01*
G75*
G02*
X132268000Y-54780500I0J147500D01*
G01*
X132268000Y-54485500D01*
G75*
G02*
X132415500Y-54338000I147500J0D01*
G01*
G37*
%TD*%
%TO.C,R4*%
G36*
G01*
X131744500Y-55898000D02*
X131399500Y-55898000D01*
G75*
G02*
X131252000Y-55750500I0J147500D01*
G01*
X131252000Y-55455500D01*
G75*
G02*
X131399500Y-55308000I147500J0D01*
G01*
X131744500Y-55308000D01*
G75*
G02*
X131892000Y-55455500I0J-147500D01*
G01*
X131892000Y-55750500D01*
G75*
G02*
X131744500Y-55898000I-147500J0D01*
G01*
G37*
G36*
G01*
X131744500Y-54928000D02*
X131399500Y-54928000D01*
G75*
G02*
X131252000Y-54780500I0J147500D01*
G01*
X131252000Y-54485500D01*
G75*
G02*
X131399500Y-54338000I147500J0D01*
G01*
X131744500Y-54338000D01*
G75*
G02*
X131892000Y-54485500I0J-147500D01*
G01*
X131892000Y-54780500D01*
G75*
G02*
X131744500Y-54928000I-147500J0D01*
G01*
G37*
%TD*%
%TO.C,C2*%
G36*
G01*
X124650000Y-61386500D02*
X124650000Y-61041500D01*
G75*
G02*
X124797500Y-60894000I147500J0D01*
G01*
X125092500Y-60894000D01*
G75*
G02*
X125240000Y-61041500I0J-147500D01*
G01*
X125240000Y-61386500D01*
G75*
G02*
X125092500Y-61534000I-147500J0D01*
G01*
X124797500Y-61534000D01*
G75*
G02*
X124650000Y-61386500I0J147500D01*
G01*
G37*
G36*
G01*
X123680000Y-61386500D02*
X123680000Y-61041500D01*
G75*
G02*
X123827500Y-60894000I147500J0D01*
G01*
X124122500Y-60894000D01*
G75*
G02*
X124270000Y-61041500I0J-147500D01*
G01*
X124270000Y-61386500D01*
G75*
G02*
X124122500Y-61534000I-147500J0D01*
G01*
X123827500Y-61534000D01*
G75*
G02*
X123680000Y-61386500I0J147500D01*
G01*
G37*
%TD*%
%TO.C,C3*%
G36*
G01*
X122918000Y-65704500D02*
X122918000Y-65359500D01*
G75*
G02*
X123065500Y-65212000I147500J0D01*
G01*
X123360500Y-65212000D01*
G75*
G02*
X123508000Y-65359500I0J-147500D01*
G01*
X123508000Y-65704500D01*
G75*
G02*
X123360500Y-65852000I-147500J0D01*
G01*
X123065500Y-65852000D01*
G75*
G02*
X122918000Y-65704500I0J147500D01*
G01*
G37*
G36*
G01*
X123888000Y-65704500D02*
X123888000Y-65359500D01*
G75*
G02*
X124035500Y-65212000I147500J0D01*
G01*
X124330500Y-65212000D01*
G75*
G02*
X124478000Y-65359500I0J-147500D01*
G01*
X124478000Y-65704500D01*
G75*
G02*
X124330500Y-65852000I-147500J0D01*
G01*
X124035500Y-65852000D01*
G75*
G02*
X123888000Y-65704500I0J147500D01*
G01*
G37*
%TD*%
%TO.C,C4*%
G36*
G01*
X130982500Y-69660000D02*
X130637500Y-69660000D01*
G75*
G02*
X130490000Y-69512500I0J147500D01*
G01*
X130490000Y-69217500D01*
G75*
G02*
X130637500Y-69070000I147500J0D01*
G01*
X130982500Y-69070000D01*
G75*
G02*
X131130000Y-69217500I0J-147500D01*
G01*
X131130000Y-69512500D01*
G75*
G02*
X130982500Y-69660000I-147500J0D01*
G01*
G37*
G36*
G01*
X130982500Y-70630000D02*
X130637500Y-70630000D01*
G75*
G02*
X130490000Y-70482500I0J147500D01*
G01*
X130490000Y-70187500D01*
G75*
G02*
X130637500Y-70040000I147500J0D01*
G01*
X130982500Y-70040000D01*
G75*
G02*
X131130000Y-70187500I0J-147500D01*
G01*
X131130000Y-70482500D01*
G75*
G02*
X130982500Y-70630000I-147500J0D01*
G01*
G37*
%TD*%
%TO.C,C7*%
G36*
G01*
X139718000Y-55453500D02*
X139718000Y-55798500D01*
G75*
G02*
X139570500Y-55946000I-147500J0D01*
G01*
X139275500Y-55946000D01*
G75*
G02*
X139128000Y-55798500I0J147500D01*
G01*
X139128000Y-55453500D01*
G75*
G02*
X139275500Y-55306000I147500J0D01*
G01*
X139570500Y-55306000D01*
G75*
G02*
X139718000Y-55453500I0J-147500D01*
G01*
G37*
G36*
G01*
X138748000Y-55453500D02*
X138748000Y-55798500D01*
G75*
G02*
X138600500Y-55946000I-147500J0D01*
G01*
X138305500Y-55946000D01*
G75*
G02*
X138158000Y-55798500I0J147500D01*
G01*
X138158000Y-55453500D01*
G75*
G02*
X138305500Y-55306000I147500J0D01*
G01*
X138600500Y-55306000D01*
G75*
G02*
X138748000Y-55453500I0J-147500D01*
G01*
G37*
%TD*%
%TO.C,C8*%
G36*
G01*
X136588000Y-72562500D02*
X136588000Y-72217500D01*
G75*
G02*
X136735500Y-72070000I147500J0D01*
G01*
X137030500Y-72070000D01*
G75*
G02*
X137178000Y-72217500I0J-147500D01*
G01*
X137178000Y-72562500D01*
G75*
G02*
X137030500Y-72710000I-147500J0D01*
G01*
X136735500Y-72710000D01*
G75*
G02*
X136588000Y-72562500I0J147500D01*
G01*
G37*
G36*
G01*
X135618000Y-72562500D02*
X135618000Y-72217500D01*
G75*
G02*
X135765500Y-72070000I147500J0D01*
G01*
X136060500Y-72070000D01*
G75*
G02*
X136208000Y-72217500I0J-147500D01*
G01*
X136208000Y-72562500D01*
G75*
G02*
X136060500Y-72710000I-147500J0D01*
G01*
X135765500Y-72710000D01*
G75*
G02*
X135618000Y-72562500I0J147500D01*
G01*
G37*
%TD*%
%TO.C,C10*%
G36*
G01*
X136462000Y-68153500D02*
X136462000Y-68498500D01*
G75*
G02*
X136314500Y-68646000I-147500J0D01*
G01*
X136019500Y-68646000D01*
G75*
G02*
X135872000Y-68498500I0J147500D01*
G01*
X135872000Y-68153500D01*
G75*
G02*
X136019500Y-68006000I147500J0D01*
G01*
X136314500Y-68006000D01*
G75*
G02*
X136462000Y-68153500I0J-147500D01*
G01*
G37*
G36*
G01*
X137432000Y-68153500D02*
X137432000Y-68498500D01*
G75*
G02*
X137284500Y-68646000I-147500J0D01*
G01*
X136989500Y-68646000D01*
G75*
G02*
X136842000Y-68498500I0J147500D01*
G01*
X136842000Y-68153500D01*
G75*
G02*
X136989500Y-68006000I147500J0D01*
G01*
X137284500Y-68006000D01*
G75*
G02*
X137432000Y-68153500I0J-147500D01*
G01*
G37*
%TD*%
%TO.C,C11*%
G36*
G01*
X125240000Y-62565500D02*
X125240000Y-62910500D01*
G75*
G02*
X125092500Y-63058000I-147500J0D01*
G01*
X124797500Y-63058000D01*
G75*
G02*
X124650000Y-62910500I0J147500D01*
G01*
X124650000Y-62565500D01*
G75*
G02*
X124797500Y-62418000I147500J0D01*
G01*
X125092500Y-62418000D01*
G75*
G02*
X125240000Y-62565500I0J-147500D01*
G01*
G37*
G36*
G01*
X124270000Y-62565500D02*
X124270000Y-62910500D01*
G75*
G02*
X124122500Y-63058000I-147500J0D01*
G01*
X123827500Y-63058000D01*
G75*
G02*
X123680000Y-62910500I0J147500D01*
G01*
X123680000Y-62565500D01*
G75*
G02*
X123827500Y-62418000I147500J0D01*
G01*
X124122500Y-62418000D01*
G75*
G02*
X124270000Y-62565500I0J-147500D01*
G01*
G37*
%TD*%
%TO.C,C12*%
G36*
G01*
X139128000Y-54782500D02*
X139128000Y-54437500D01*
G75*
G02*
X139275500Y-54290000I147500J0D01*
G01*
X139570500Y-54290000D01*
G75*
G02*
X139718000Y-54437500I0J-147500D01*
G01*
X139718000Y-54782500D01*
G75*
G02*
X139570500Y-54930000I-147500J0D01*
G01*
X139275500Y-54930000D01*
G75*
G02*
X139128000Y-54782500I0J147500D01*
G01*
G37*
G36*
G01*
X138158000Y-54782500D02*
X138158000Y-54437500D01*
G75*
G02*
X138305500Y-54290000I147500J0D01*
G01*
X138600500Y-54290000D01*
G75*
G02*
X138748000Y-54437500I0J-147500D01*
G01*
X138748000Y-54782500D01*
G75*
G02*
X138600500Y-54930000I-147500J0D01*
G01*
X138305500Y-54930000D01*
G75*
G02*
X138158000Y-54782500I0J147500D01*
G01*
G37*
%TD*%
%TO.C,C13*%
G36*
G01*
X135654000Y-54437500D02*
X135654000Y-54782500D01*
G75*
G02*
X135506500Y-54930000I-147500J0D01*
G01*
X135211500Y-54930000D01*
G75*
G02*
X135064000Y-54782500I0J147500D01*
G01*
X135064000Y-54437500D01*
G75*
G02*
X135211500Y-54290000I147500J0D01*
G01*
X135506500Y-54290000D01*
G75*
G02*
X135654000Y-54437500I0J-147500D01*
G01*
G37*
G36*
G01*
X134684000Y-54437500D02*
X134684000Y-54782500D01*
G75*
G02*
X134536500Y-54930000I-147500J0D01*
G01*
X134241500Y-54930000D01*
G75*
G02*
X134094000Y-54782500I0J147500D01*
G01*
X134094000Y-54437500D01*
G75*
G02*
X134241500Y-54290000I147500J0D01*
G01*
X134536500Y-54290000D01*
G75*
G02*
X134684000Y-54437500I0J-147500D01*
G01*
G37*
%TD*%
%TO.C,C1*%
G36*
G01*
X130383500Y-55308000D02*
X130728500Y-55308000D01*
G75*
G02*
X130876000Y-55455500I0J-147500D01*
G01*
X130876000Y-55750500D01*
G75*
G02*
X130728500Y-55898000I-147500J0D01*
G01*
X130383500Y-55898000D01*
G75*
G02*
X130236000Y-55750500I0J147500D01*
G01*
X130236000Y-55455500D01*
G75*
G02*
X130383500Y-55308000I147500J0D01*
G01*
G37*
G36*
G01*
X130383500Y-54338000D02*
X130728500Y-54338000D01*
G75*
G02*
X130876000Y-54485500I0J-147500D01*
G01*
X130876000Y-54780500D01*
G75*
G02*
X130728500Y-54928000I-147500J0D01*
G01*
X130383500Y-54928000D01*
G75*
G02*
X130236000Y-54780500I0J147500D01*
G01*
X130236000Y-54485500D01*
G75*
G02*
X130383500Y-54338000I147500J0D01*
G01*
G37*
%TD*%
%TO.C,C14*%
G36*
G01*
X135400000Y-68153500D02*
X135400000Y-68498500D01*
G75*
G02*
X135252500Y-68646000I-147500J0D01*
G01*
X134957500Y-68646000D01*
G75*
G02*
X134810000Y-68498500I0J147500D01*
G01*
X134810000Y-68153500D01*
G75*
G02*
X134957500Y-68006000I147500J0D01*
G01*
X135252500Y-68006000D01*
G75*
G02*
X135400000Y-68153500I0J-147500D01*
G01*
G37*
G36*
G01*
X134430000Y-68153500D02*
X134430000Y-68498500D01*
G75*
G02*
X134282500Y-68646000I-147500J0D01*
G01*
X133987500Y-68646000D01*
G75*
G02*
X133840000Y-68498500I0J147500D01*
G01*
X133840000Y-68153500D01*
G75*
G02*
X133987500Y-68006000I147500J0D01*
G01*
X134282500Y-68006000D01*
G75*
G02*
X134430000Y-68153500I0J-147500D01*
G01*
G37*
%TD*%
%TO.C,C5*%
G36*
G01*
X115004000Y-63956250D02*
X115004000Y-63043750D01*
G75*
G02*
X115247750Y-62800000I243750J0D01*
G01*
X115735250Y-62800000D01*
G75*
G02*
X115979000Y-63043750I0J-243750D01*
G01*
X115979000Y-63956250D01*
G75*
G02*
X115735250Y-64200000I-243750J0D01*
G01*
X115247750Y-64200000D01*
G75*
G02*
X115004000Y-63956250I0J243750D01*
G01*
G37*
G36*
G01*
X113129000Y-63956250D02*
X113129000Y-63043750D01*
G75*
G02*
X113372750Y-62800000I243750J0D01*
G01*
X113860250Y-62800000D01*
G75*
G02*
X114104000Y-63043750I0J-243750D01*
G01*
X114104000Y-63956250D01*
G75*
G02*
X113860250Y-64200000I-243750J0D01*
G01*
X113372750Y-64200000D01*
G75*
G02*
X113129000Y-63956250I0J243750D01*
G01*
G37*
%TD*%
%TO.C,C6*%
G36*
G01*
X116685000Y-63956250D02*
X116685000Y-63043750D01*
G75*
G02*
X116928750Y-62800000I243750J0D01*
G01*
X117416250Y-62800000D01*
G75*
G02*
X117660000Y-63043750I0J-243750D01*
G01*
X117660000Y-63956250D01*
G75*
G02*
X117416250Y-64200000I-243750J0D01*
G01*
X116928750Y-64200000D01*
G75*
G02*
X116685000Y-63956250I0J243750D01*
G01*
G37*
G36*
G01*
X118560000Y-63956250D02*
X118560000Y-63043750D01*
G75*
G02*
X118803750Y-62800000I243750J0D01*
G01*
X119291250Y-62800000D01*
G75*
G02*
X119535000Y-63043750I0J-243750D01*
G01*
X119535000Y-63956250D01*
G75*
G02*
X119291250Y-64200000I-243750J0D01*
G01*
X118803750Y-64200000D01*
G75*
G02*
X118560000Y-63956250I0J243750D01*
G01*
G37*
%TD*%
D15*
%TO.C,D1*%
X113662000Y-54356000D03*
X116462000Y-54356000D03*
%TD*%
%TO.C,D2*%
X134236000Y-70104000D03*
X137036000Y-70104000D03*
%TD*%
%TO.C,FB1*%
G36*
G01*
X136099000Y-55623750D02*
X136099000Y-56136250D01*
G75*
G02*
X135880250Y-56355000I-218750J0D01*
G01*
X135442750Y-56355000D01*
G75*
G02*
X135224000Y-56136250I0J218750D01*
G01*
X135224000Y-55623750D01*
G75*
G02*
X135442750Y-55405000I218750J0D01*
G01*
X135880250Y-55405000D01*
G75*
G02*
X136099000Y-55623750I0J-218750D01*
G01*
G37*
G36*
G01*
X134524000Y-55623750D02*
X134524000Y-56136250D01*
G75*
G02*
X134305250Y-56355000I-218750J0D01*
G01*
X133867750Y-56355000D01*
G75*
G02*
X133649000Y-56136250I0J218750D01*
G01*
X133649000Y-55623750D01*
G75*
G02*
X133867750Y-55405000I218750J0D01*
G01*
X134305250Y-55405000D01*
G75*
G02*
X134524000Y-55623750I0J-218750D01*
G01*
G37*
%TD*%
%TO.C,R3*%
G36*
G01*
X115969000Y-61549500D02*
X115969000Y-61894500D01*
G75*
G02*
X115821500Y-62042000I-147500J0D01*
G01*
X115526500Y-62042000D01*
G75*
G02*
X115379000Y-61894500I0J147500D01*
G01*
X115379000Y-61549500D01*
G75*
G02*
X115526500Y-61402000I147500J0D01*
G01*
X115821500Y-61402000D01*
G75*
G02*
X115969000Y-61549500I0J-147500D01*
G01*
G37*
G36*
G01*
X114999000Y-61549500D02*
X114999000Y-61894500D01*
G75*
G02*
X114851500Y-62042000I-147500J0D01*
G01*
X114556500Y-62042000D01*
G75*
G02*
X114409000Y-61894500I0J147500D01*
G01*
X114409000Y-61549500D01*
G75*
G02*
X114556500Y-61402000I147500J0D01*
G01*
X114851500Y-61402000D01*
G75*
G02*
X114999000Y-61549500I0J-147500D01*
G01*
G37*
%TD*%
%TO.C,R1*%
G36*
G01*
X114999000Y-59517500D02*
X114999000Y-59862500D01*
G75*
G02*
X114851500Y-60010000I-147500J0D01*
G01*
X114556500Y-60010000D01*
G75*
G02*
X114409000Y-59862500I0J147500D01*
G01*
X114409000Y-59517500D01*
G75*
G02*
X114556500Y-59370000I147500J0D01*
G01*
X114851500Y-59370000D01*
G75*
G02*
X114999000Y-59517500I0J-147500D01*
G01*
G37*
G36*
G01*
X115969000Y-59517500D02*
X115969000Y-59862500D01*
G75*
G02*
X115821500Y-60010000I-147500J0D01*
G01*
X115526500Y-60010000D01*
G75*
G02*
X115379000Y-59862500I0J147500D01*
G01*
X115379000Y-59517500D01*
G75*
G02*
X115526500Y-59370000I147500J0D01*
G01*
X115821500Y-59370000D01*
G75*
G02*
X115969000Y-59517500I0J-147500D01*
G01*
G37*
%TD*%
%TO.C,R2*%
G36*
G01*
X115969000Y-60533500D02*
X115969000Y-60878500D01*
G75*
G02*
X115821500Y-61026000I-147500J0D01*
G01*
X115526500Y-61026000D01*
G75*
G02*
X115379000Y-60878500I0J147500D01*
G01*
X115379000Y-60533500D01*
G75*
G02*
X115526500Y-60386000I147500J0D01*
G01*
X115821500Y-60386000D01*
G75*
G02*
X115969000Y-60533500I0J-147500D01*
G01*
G37*
G36*
G01*
X114999000Y-60533500D02*
X114999000Y-60878500D01*
G75*
G02*
X114851500Y-61026000I-147500J0D01*
G01*
X114556500Y-61026000D01*
G75*
G02*
X114409000Y-60878500I0J147500D01*
G01*
X114409000Y-60533500D01*
G75*
G02*
X114556500Y-60386000I147500J0D01*
G01*
X114851500Y-60386000D01*
G75*
G02*
X114999000Y-60533500I0J-147500D01*
G01*
G37*
%TD*%
M02*
