%TF.GenerationSoftware,KiCad,Pcbnew,5.0.2*%
%TF.CreationDate,2019-03-11T08:20:50+08:00*%
%TF.ProjectId,elf2,656c6632-2e6b-4696-9361-645f70636258,rev?*%
%TF.SameCoordinates,Original*%
%TF.FileFunction,Soldermask,Bot*%
%TF.FilePolarity,Negative*%
%FSLAX46Y46*%
G04 Gerber Fmt 4.6, Leading zero omitted, Abs format (unit mm)*
G04 Created by KiCad (PCBNEW 5.0.2) date 2019年03月11日 星期一 08时20分50秒*
%MOMM*%
%LPD*%
G01*
G04 APERTURE LIST*
%ADD10C,1.000000*%
%ADD11C,0.350000*%
G04 APERTURE END LIST*
D10*
X132349634Y-62484000D02*
G75*
G03X132349634Y-62484000I-523634J0D01*
G01*
D11*
G36*
X105549000Y-89039000D02*
X103747000Y-89039000D01*
X103747000Y-87237000D01*
X105549000Y-87237000D01*
X105549000Y-89039000D01*
X105549000Y-89039000D01*
G37*
G36*
X104758443Y-84703519D02*
X104824627Y-84710037D01*
X104937853Y-84744384D01*
X104994467Y-84761557D01*
X105133087Y-84835652D01*
X105150991Y-84845222D01*
X105186729Y-84874552D01*
X105288186Y-84957814D01*
X105371448Y-85059271D01*
X105400778Y-85095009D01*
X105400779Y-85095011D01*
X105484443Y-85251533D01*
X105484443Y-85251534D01*
X105535963Y-85421373D01*
X105553359Y-85598000D01*
X105535963Y-85774627D01*
X105501616Y-85887853D01*
X105484443Y-85944467D01*
X105410348Y-86083087D01*
X105400778Y-86100991D01*
X105371448Y-86136729D01*
X105288186Y-86238186D01*
X105186729Y-86321448D01*
X105150991Y-86350778D01*
X105150989Y-86350779D01*
X104994467Y-86434443D01*
X104937853Y-86451616D01*
X104824627Y-86485963D01*
X104758442Y-86492482D01*
X104692260Y-86499000D01*
X104603740Y-86499000D01*
X104537558Y-86492482D01*
X104471373Y-86485963D01*
X104358147Y-86451616D01*
X104301533Y-86434443D01*
X104145011Y-86350779D01*
X104145009Y-86350778D01*
X104109271Y-86321448D01*
X104007814Y-86238186D01*
X103924552Y-86136729D01*
X103895222Y-86100991D01*
X103885652Y-86083087D01*
X103811557Y-85944467D01*
X103794384Y-85887853D01*
X103760037Y-85774627D01*
X103742641Y-85598000D01*
X103760037Y-85421373D01*
X103811557Y-85251534D01*
X103811557Y-85251533D01*
X103895221Y-85095011D01*
X103895222Y-85095009D01*
X103924552Y-85059271D01*
X104007814Y-84957814D01*
X104109271Y-84874552D01*
X104145009Y-84845222D01*
X104162913Y-84835652D01*
X104301533Y-84761557D01*
X104358147Y-84744384D01*
X104471373Y-84710037D01*
X104537557Y-84703519D01*
X104603740Y-84697000D01*
X104692260Y-84697000D01*
X104758443Y-84703519D01*
X104758443Y-84703519D01*
G37*
G36*
X104758442Y-82163518D02*
X104824627Y-82170037D01*
X104937853Y-82204384D01*
X104994467Y-82221557D01*
X105133087Y-82295652D01*
X105150991Y-82305222D01*
X105186729Y-82334552D01*
X105288186Y-82417814D01*
X105371448Y-82519271D01*
X105400778Y-82555009D01*
X105400779Y-82555011D01*
X105484443Y-82711533D01*
X105484443Y-82711534D01*
X105535963Y-82881373D01*
X105553359Y-83058000D01*
X105535963Y-83234627D01*
X105501616Y-83347853D01*
X105484443Y-83404467D01*
X105410348Y-83543087D01*
X105400778Y-83560991D01*
X105371448Y-83596729D01*
X105288186Y-83698186D01*
X105186729Y-83781448D01*
X105150991Y-83810778D01*
X105150989Y-83810779D01*
X104994467Y-83894443D01*
X104937853Y-83911616D01*
X104824627Y-83945963D01*
X104758442Y-83952482D01*
X104692260Y-83959000D01*
X104603740Y-83959000D01*
X104537558Y-83952482D01*
X104471373Y-83945963D01*
X104358147Y-83911616D01*
X104301533Y-83894443D01*
X104145011Y-83810779D01*
X104145009Y-83810778D01*
X104109271Y-83781448D01*
X104007814Y-83698186D01*
X103924552Y-83596729D01*
X103895222Y-83560991D01*
X103885652Y-83543087D01*
X103811557Y-83404467D01*
X103794384Y-83347853D01*
X103760037Y-83234627D01*
X103742641Y-83058000D01*
X103760037Y-82881373D01*
X103811557Y-82711534D01*
X103811557Y-82711533D01*
X103895221Y-82555011D01*
X103895222Y-82555009D01*
X103924552Y-82519271D01*
X104007814Y-82417814D01*
X104109271Y-82334552D01*
X104145009Y-82305222D01*
X104162913Y-82295652D01*
X104301533Y-82221557D01*
X104358147Y-82204384D01*
X104471373Y-82170037D01*
X104537558Y-82163518D01*
X104603740Y-82157000D01*
X104692260Y-82157000D01*
X104758442Y-82163518D01*
X104758442Y-82163518D01*
G37*
G36*
X104758442Y-79623518D02*
X104824627Y-79630037D01*
X104937853Y-79664384D01*
X104994467Y-79681557D01*
X105133087Y-79755652D01*
X105150991Y-79765222D01*
X105186729Y-79794552D01*
X105288186Y-79877814D01*
X105371448Y-79979271D01*
X105400778Y-80015009D01*
X105400779Y-80015011D01*
X105484443Y-80171533D01*
X105484443Y-80171534D01*
X105535963Y-80341373D01*
X105553359Y-80518000D01*
X105535963Y-80694627D01*
X105501616Y-80807853D01*
X105484443Y-80864467D01*
X105410348Y-81003087D01*
X105400778Y-81020991D01*
X105371448Y-81056729D01*
X105288186Y-81158186D01*
X105186729Y-81241448D01*
X105150991Y-81270778D01*
X105150989Y-81270779D01*
X104994467Y-81354443D01*
X104937853Y-81371616D01*
X104824627Y-81405963D01*
X104758442Y-81412482D01*
X104692260Y-81419000D01*
X104603740Y-81419000D01*
X104537558Y-81412482D01*
X104471373Y-81405963D01*
X104358147Y-81371616D01*
X104301533Y-81354443D01*
X104145011Y-81270779D01*
X104145009Y-81270778D01*
X104109271Y-81241448D01*
X104007814Y-81158186D01*
X103924552Y-81056729D01*
X103895222Y-81020991D01*
X103885652Y-81003087D01*
X103811557Y-80864467D01*
X103794384Y-80807853D01*
X103760037Y-80694627D01*
X103742641Y-80518000D01*
X103760037Y-80341373D01*
X103811557Y-80171534D01*
X103811557Y-80171533D01*
X103895221Y-80015011D01*
X103895222Y-80015009D01*
X103924552Y-79979271D01*
X104007814Y-79877814D01*
X104109271Y-79794552D01*
X104145009Y-79765222D01*
X104162913Y-79755652D01*
X104301533Y-79681557D01*
X104358147Y-79664384D01*
X104471373Y-79630037D01*
X104537558Y-79623518D01*
X104603740Y-79617000D01*
X104692260Y-79617000D01*
X104758442Y-79623518D01*
X104758442Y-79623518D01*
G37*
G36*
X131174443Y-78861519D02*
X131240627Y-78868037D01*
X131353853Y-78902384D01*
X131410467Y-78919557D01*
X131549087Y-78993652D01*
X131566991Y-79003222D01*
X131602729Y-79032552D01*
X131704186Y-79115814D01*
X131787448Y-79217271D01*
X131816778Y-79253009D01*
X131816779Y-79253011D01*
X131900443Y-79409533D01*
X131900443Y-79409534D01*
X131951963Y-79579373D01*
X131969359Y-79756000D01*
X131951963Y-79932627D01*
X131926973Y-80015009D01*
X131900443Y-80102467D01*
X131863526Y-80171533D01*
X131816778Y-80258991D01*
X131787448Y-80294729D01*
X131704186Y-80396186D01*
X131602729Y-80479448D01*
X131566991Y-80508778D01*
X131566989Y-80508779D01*
X131410467Y-80592443D01*
X131353853Y-80609616D01*
X131240627Y-80643963D01*
X131174443Y-80650481D01*
X131108260Y-80657000D01*
X131019740Y-80657000D01*
X130953557Y-80650481D01*
X130887373Y-80643963D01*
X130774147Y-80609616D01*
X130717533Y-80592443D01*
X130561011Y-80508779D01*
X130561009Y-80508778D01*
X130525271Y-80479448D01*
X130423814Y-80396186D01*
X130340552Y-80294729D01*
X130311222Y-80258991D01*
X130264474Y-80171533D01*
X130227557Y-80102467D01*
X130201027Y-80015009D01*
X130176037Y-79932627D01*
X130158641Y-79756000D01*
X130176037Y-79579373D01*
X130227557Y-79409534D01*
X130227557Y-79409533D01*
X130311221Y-79253011D01*
X130311222Y-79253009D01*
X130340552Y-79217271D01*
X130423814Y-79115814D01*
X130525271Y-79032552D01*
X130561009Y-79003222D01*
X130578913Y-78993652D01*
X130717533Y-78919557D01*
X130774147Y-78902384D01*
X130887373Y-78868037D01*
X130953557Y-78861519D01*
X131019740Y-78855000D01*
X131108260Y-78855000D01*
X131174443Y-78861519D01*
X131174443Y-78861519D01*
G37*
G36*
X133714443Y-78861519D02*
X133780627Y-78868037D01*
X133893853Y-78902384D01*
X133950467Y-78919557D01*
X134089087Y-78993652D01*
X134106991Y-79003222D01*
X134142729Y-79032552D01*
X134244186Y-79115814D01*
X134327448Y-79217271D01*
X134356778Y-79253009D01*
X134356779Y-79253011D01*
X134440443Y-79409533D01*
X134440443Y-79409534D01*
X134491963Y-79579373D01*
X134509359Y-79756000D01*
X134491963Y-79932627D01*
X134466973Y-80015009D01*
X134440443Y-80102467D01*
X134403526Y-80171533D01*
X134356778Y-80258991D01*
X134327448Y-80294729D01*
X134244186Y-80396186D01*
X134142729Y-80479448D01*
X134106991Y-80508778D01*
X134106989Y-80508779D01*
X133950467Y-80592443D01*
X133893853Y-80609616D01*
X133780627Y-80643963D01*
X133714443Y-80650481D01*
X133648260Y-80657000D01*
X133559740Y-80657000D01*
X133493557Y-80650481D01*
X133427373Y-80643963D01*
X133314147Y-80609616D01*
X133257533Y-80592443D01*
X133101011Y-80508779D01*
X133101009Y-80508778D01*
X133065271Y-80479448D01*
X132963814Y-80396186D01*
X132880552Y-80294729D01*
X132851222Y-80258991D01*
X132804474Y-80171533D01*
X132767557Y-80102467D01*
X132741027Y-80015009D01*
X132716037Y-79932627D01*
X132698641Y-79756000D01*
X132716037Y-79579373D01*
X132767557Y-79409534D01*
X132767557Y-79409533D01*
X132851221Y-79253011D01*
X132851222Y-79253009D01*
X132880552Y-79217271D01*
X132963814Y-79115814D01*
X133065271Y-79032552D01*
X133101009Y-79003222D01*
X133118913Y-78993652D01*
X133257533Y-78919557D01*
X133314147Y-78902384D01*
X133427373Y-78868037D01*
X133493557Y-78861519D01*
X133559740Y-78855000D01*
X133648260Y-78855000D01*
X133714443Y-78861519D01*
X133714443Y-78861519D01*
G37*
G36*
X136254443Y-78861519D02*
X136320627Y-78868037D01*
X136433853Y-78902384D01*
X136490467Y-78919557D01*
X136629087Y-78993652D01*
X136646991Y-79003222D01*
X136682729Y-79032552D01*
X136784186Y-79115814D01*
X136867448Y-79217271D01*
X136896778Y-79253009D01*
X136896779Y-79253011D01*
X136980443Y-79409533D01*
X136980443Y-79409534D01*
X137031963Y-79579373D01*
X137049359Y-79756000D01*
X137031963Y-79932627D01*
X137006973Y-80015009D01*
X136980443Y-80102467D01*
X136943526Y-80171533D01*
X136896778Y-80258991D01*
X136867448Y-80294729D01*
X136784186Y-80396186D01*
X136682729Y-80479448D01*
X136646991Y-80508778D01*
X136646989Y-80508779D01*
X136490467Y-80592443D01*
X136433853Y-80609616D01*
X136320627Y-80643963D01*
X136254443Y-80650481D01*
X136188260Y-80657000D01*
X136099740Y-80657000D01*
X136033557Y-80650481D01*
X135967373Y-80643963D01*
X135854147Y-80609616D01*
X135797533Y-80592443D01*
X135641011Y-80508779D01*
X135641009Y-80508778D01*
X135605271Y-80479448D01*
X135503814Y-80396186D01*
X135420552Y-80294729D01*
X135391222Y-80258991D01*
X135344474Y-80171533D01*
X135307557Y-80102467D01*
X135281027Y-80015009D01*
X135256037Y-79932627D01*
X135238641Y-79756000D01*
X135256037Y-79579373D01*
X135307557Y-79409534D01*
X135307557Y-79409533D01*
X135391221Y-79253011D01*
X135391222Y-79253009D01*
X135420552Y-79217271D01*
X135503814Y-79115814D01*
X135605271Y-79032552D01*
X135641009Y-79003222D01*
X135658913Y-78993652D01*
X135797533Y-78919557D01*
X135854147Y-78902384D01*
X135967373Y-78868037D01*
X136033557Y-78861519D01*
X136099740Y-78855000D01*
X136188260Y-78855000D01*
X136254443Y-78861519D01*
X136254443Y-78861519D01*
G37*
G36*
X129425000Y-80657000D02*
X127623000Y-80657000D01*
X127623000Y-78855000D01*
X129425000Y-78855000D01*
X129425000Y-80657000D01*
X129425000Y-80657000D01*
G37*
G36*
X138794443Y-78861519D02*
X138860627Y-78868037D01*
X138973853Y-78902384D01*
X139030467Y-78919557D01*
X139169087Y-78993652D01*
X139186991Y-79003222D01*
X139222729Y-79032552D01*
X139324186Y-79115814D01*
X139407448Y-79217271D01*
X139436778Y-79253009D01*
X139436779Y-79253011D01*
X139520443Y-79409533D01*
X139520443Y-79409534D01*
X139571963Y-79579373D01*
X139589359Y-79756000D01*
X139571963Y-79932627D01*
X139546973Y-80015009D01*
X139520443Y-80102467D01*
X139483526Y-80171533D01*
X139436778Y-80258991D01*
X139407448Y-80294729D01*
X139324186Y-80396186D01*
X139222729Y-80479448D01*
X139186991Y-80508778D01*
X139186989Y-80508779D01*
X139030467Y-80592443D01*
X138973853Y-80609616D01*
X138860627Y-80643963D01*
X138794443Y-80650481D01*
X138728260Y-80657000D01*
X138639740Y-80657000D01*
X138573557Y-80650481D01*
X138507373Y-80643963D01*
X138394147Y-80609616D01*
X138337533Y-80592443D01*
X138181011Y-80508779D01*
X138181009Y-80508778D01*
X138145271Y-80479448D01*
X138043814Y-80396186D01*
X137960552Y-80294729D01*
X137931222Y-80258991D01*
X137884474Y-80171533D01*
X137847557Y-80102467D01*
X137821027Y-80015009D01*
X137796037Y-79932627D01*
X137778641Y-79756000D01*
X137796037Y-79579373D01*
X137847557Y-79409534D01*
X137847557Y-79409533D01*
X137931221Y-79253011D01*
X137931222Y-79253009D01*
X137960552Y-79217271D01*
X138043814Y-79115814D01*
X138145271Y-79032552D01*
X138181009Y-79003222D01*
X138198913Y-78993652D01*
X138337533Y-78919557D01*
X138394147Y-78902384D01*
X138507373Y-78868037D01*
X138573557Y-78861519D01*
X138639740Y-78855000D01*
X138728260Y-78855000D01*
X138794443Y-78861519D01*
X138794443Y-78861519D01*
G37*
G36*
X141334443Y-78861519D02*
X141400627Y-78868037D01*
X141513853Y-78902384D01*
X141570467Y-78919557D01*
X141709087Y-78993652D01*
X141726991Y-79003222D01*
X141762729Y-79032552D01*
X141864186Y-79115814D01*
X141947448Y-79217271D01*
X141976778Y-79253009D01*
X141976779Y-79253011D01*
X142060443Y-79409533D01*
X142060443Y-79409534D01*
X142111963Y-79579373D01*
X142129359Y-79756000D01*
X142111963Y-79932627D01*
X142086973Y-80015009D01*
X142060443Y-80102467D01*
X142023526Y-80171533D01*
X141976778Y-80258991D01*
X141947448Y-80294729D01*
X141864186Y-80396186D01*
X141762729Y-80479448D01*
X141726991Y-80508778D01*
X141726989Y-80508779D01*
X141570467Y-80592443D01*
X141513853Y-80609616D01*
X141400627Y-80643963D01*
X141334443Y-80650481D01*
X141268260Y-80657000D01*
X141179740Y-80657000D01*
X141113557Y-80650481D01*
X141047373Y-80643963D01*
X140934147Y-80609616D01*
X140877533Y-80592443D01*
X140721011Y-80508779D01*
X140721009Y-80508778D01*
X140685271Y-80479448D01*
X140583814Y-80396186D01*
X140500552Y-80294729D01*
X140471222Y-80258991D01*
X140424474Y-80171533D01*
X140387557Y-80102467D01*
X140361027Y-80015009D01*
X140336037Y-79932627D01*
X140318641Y-79756000D01*
X140336037Y-79579373D01*
X140387557Y-79409534D01*
X140387557Y-79409533D01*
X140471221Y-79253011D01*
X140471222Y-79253009D01*
X140500552Y-79217271D01*
X140583814Y-79115814D01*
X140685271Y-79032552D01*
X140721009Y-79003222D01*
X140738913Y-78993652D01*
X140877533Y-78919557D01*
X140934147Y-78902384D01*
X141047373Y-78868037D01*
X141113557Y-78861519D01*
X141179740Y-78855000D01*
X141268260Y-78855000D01*
X141334443Y-78861519D01*
X141334443Y-78861519D01*
G37*
G36*
X115934443Y-78861519D02*
X116000627Y-78868037D01*
X116113853Y-78902384D01*
X116170467Y-78919557D01*
X116309087Y-78993652D01*
X116326991Y-79003222D01*
X116362729Y-79032552D01*
X116464186Y-79115814D01*
X116547448Y-79217271D01*
X116576778Y-79253009D01*
X116576779Y-79253011D01*
X116660443Y-79409533D01*
X116660443Y-79409534D01*
X116711963Y-79579373D01*
X116729359Y-79756000D01*
X116711963Y-79932627D01*
X116686973Y-80015009D01*
X116660443Y-80102467D01*
X116623526Y-80171533D01*
X116576778Y-80258991D01*
X116547448Y-80294729D01*
X116464186Y-80396186D01*
X116362729Y-80479448D01*
X116326991Y-80508778D01*
X116326989Y-80508779D01*
X116170467Y-80592443D01*
X116113853Y-80609616D01*
X116000627Y-80643963D01*
X115934443Y-80650481D01*
X115868260Y-80657000D01*
X115779740Y-80657000D01*
X115713557Y-80650481D01*
X115647373Y-80643963D01*
X115534147Y-80609616D01*
X115477533Y-80592443D01*
X115321011Y-80508779D01*
X115321009Y-80508778D01*
X115285271Y-80479448D01*
X115183814Y-80396186D01*
X115100552Y-80294729D01*
X115071222Y-80258991D01*
X115024474Y-80171533D01*
X114987557Y-80102467D01*
X114961027Y-80015009D01*
X114936037Y-79932627D01*
X114918641Y-79756000D01*
X114936037Y-79579373D01*
X114987557Y-79409534D01*
X114987557Y-79409533D01*
X115071221Y-79253011D01*
X115071222Y-79253009D01*
X115100552Y-79217271D01*
X115183814Y-79115814D01*
X115285271Y-79032552D01*
X115321009Y-79003222D01*
X115338913Y-78993652D01*
X115477533Y-78919557D01*
X115534147Y-78902384D01*
X115647373Y-78868037D01*
X115713557Y-78861519D01*
X115779740Y-78855000D01*
X115868260Y-78855000D01*
X115934443Y-78861519D01*
X115934443Y-78861519D01*
G37*
G36*
X118474443Y-78861519D02*
X118540627Y-78868037D01*
X118653853Y-78902384D01*
X118710467Y-78919557D01*
X118849087Y-78993652D01*
X118866991Y-79003222D01*
X118902729Y-79032552D01*
X119004186Y-79115814D01*
X119087448Y-79217271D01*
X119116778Y-79253009D01*
X119116779Y-79253011D01*
X119200443Y-79409533D01*
X119200443Y-79409534D01*
X119251963Y-79579373D01*
X119269359Y-79756000D01*
X119251963Y-79932627D01*
X119226973Y-80015009D01*
X119200443Y-80102467D01*
X119163526Y-80171533D01*
X119116778Y-80258991D01*
X119087448Y-80294729D01*
X119004186Y-80396186D01*
X118902729Y-80479448D01*
X118866991Y-80508778D01*
X118866989Y-80508779D01*
X118710467Y-80592443D01*
X118653853Y-80609616D01*
X118540627Y-80643963D01*
X118474443Y-80650481D01*
X118408260Y-80657000D01*
X118319740Y-80657000D01*
X118253557Y-80650481D01*
X118187373Y-80643963D01*
X118074147Y-80609616D01*
X118017533Y-80592443D01*
X117861011Y-80508779D01*
X117861009Y-80508778D01*
X117825271Y-80479448D01*
X117723814Y-80396186D01*
X117640552Y-80294729D01*
X117611222Y-80258991D01*
X117564474Y-80171533D01*
X117527557Y-80102467D01*
X117501027Y-80015009D01*
X117476037Y-79932627D01*
X117458641Y-79756000D01*
X117476037Y-79579373D01*
X117527557Y-79409534D01*
X117527557Y-79409533D01*
X117611221Y-79253011D01*
X117611222Y-79253009D01*
X117640552Y-79217271D01*
X117723814Y-79115814D01*
X117825271Y-79032552D01*
X117861009Y-79003222D01*
X117878913Y-78993652D01*
X118017533Y-78919557D01*
X118074147Y-78902384D01*
X118187373Y-78868037D01*
X118253557Y-78861519D01*
X118319740Y-78855000D01*
X118408260Y-78855000D01*
X118474443Y-78861519D01*
X118474443Y-78861519D01*
G37*
G36*
X121014443Y-78861519D02*
X121080627Y-78868037D01*
X121193853Y-78902384D01*
X121250467Y-78919557D01*
X121389087Y-78993652D01*
X121406991Y-79003222D01*
X121442729Y-79032552D01*
X121544186Y-79115814D01*
X121627448Y-79217271D01*
X121656778Y-79253009D01*
X121656779Y-79253011D01*
X121740443Y-79409533D01*
X121740443Y-79409534D01*
X121791963Y-79579373D01*
X121809359Y-79756000D01*
X121791963Y-79932627D01*
X121766973Y-80015009D01*
X121740443Y-80102467D01*
X121703526Y-80171533D01*
X121656778Y-80258991D01*
X121627448Y-80294729D01*
X121544186Y-80396186D01*
X121442729Y-80479448D01*
X121406991Y-80508778D01*
X121406989Y-80508779D01*
X121250467Y-80592443D01*
X121193853Y-80609616D01*
X121080627Y-80643963D01*
X121014443Y-80650481D01*
X120948260Y-80657000D01*
X120859740Y-80657000D01*
X120793557Y-80650481D01*
X120727373Y-80643963D01*
X120614147Y-80609616D01*
X120557533Y-80592443D01*
X120401011Y-80508779D01*
X120401009Y-80508778D01*
X120365271Y-80479448D01*
X120263814Y-80396186D01*
X120180552Y-80294729D01*
X120151222Y-80258991D01*
X120104474Y-80171533D01*
X120067557Y-80102467D01*
X120041027Y-80015009D01*
X120016037Y-79932627D01*
X119998641Y-79756000D01*
X120016037Y-79579373D01*
X120067557Y-79409534D01*
X120067557Y-79409533D01*
X120151221Y-79253011D01*
X120151222Y-79253009D01*
X120180552Y-79217271D01*
X120263814Y-79115814D01*
X120365271Y-79032552D01*
X120401009Y-79003222D01*
X120418913Y-78993652D01*
X120557533Y-78919557D01*
X120614147Y-78902384D01*
X120727373Y-78868037D01*
X120793557Y-78861519D01*
X120859740Y-78855000D01*
X120948260Y-78855000D01*
X121014443Y-78861519D01*
X121014443Y-78861519D01*
G37*
G36*
X123554443Y-78861519D02*
X123620627Y-78868037D01*
X123733853Y-78902384D01*
X123790467Y-78919557D01*
X123929087Y-78993652D01*
X123946991Y-79003222D01*
X123982729Y-79032552D01*
X124084186Y-79115814D01*
X124167448Y-79217271D01*
X124196778Y-79253009D01*
X124196779Y-79253011D01*
X124280443Y-79409533D01*
X124280443Y-79409534D01*
X124331963Y-79579373D01*
X124349359Y-79756000D01*
X124331963Y-79932627D01*
X124306973Y-80015009D01*
X124280443Y-80102467D01*
X124243526Y-80171533D01*
X124196778Y-80258991D01*
X124167448Y-80294729D01*
X124084186Y-80396186D01*
X123982729Y-80479448D01*
X123946991Y-80508778D01*
X123946989Y-80508779D01*
X123790467Y-80592443D01*
X123733853Y-80609616D01*
X123620627Y-80643963D01*
X123554443Y-80650481D01*
X123488260Y-80657000D01*
X123399740Y-80657000D01*
X123333557Y-80650481D01*
X123267373Y-80643963D01*
X123154147Y-80609616D01*
X123097533Y-80592443D01*
X122941011Y-80508779D01*
X122941009Y-80508778D01*
X122905271Y-80479448D01*
X122803814Y-80396186D01*
X122720552Y-80294729D01*
X122691222Y-80258991D01*
X122644474Y-80171533D01*
X122607557Y-80102467D01*
X122581027Y-80015009D01*
X122556037Y-79932627D01*
X122538641Y-79756000D01*
X122556037Y-79579373D01*
X122607557Y-79409534D01*
X122607557Y-79409533D01*
X122691221Y-79253011D01*
X122691222Y-79253009D01*
X122720552Y-79217271D01*
X122803814Y-79115814D01*
X122905271Y-79032552D01*
X122941009Y-79003222D01*
X122958913Y-78993652D01*
X123097533Y-78919557D01*
X123154147Y-78902384D01*
X123267373Y-78868037D01*
X123333557Y-78861519D01*
X123399740Y-78855000D01*
X123488260Y-78855000D01*
X123554443Y-78861519D01*
X123554443Y-78861519D01*
G37*
G36*
X104758442Y-77083518D02*
X104824627Y-77090037D01*
X104937853Y-77124384D01*
X104994467Y-77141557D01*
X105133087Y-77215652D01*
X105150991Y-77225222D01*
X105186729Y-77254552D01*
X105288186Y-77337814D01*
X105371448Y-77439271D01*
X105400778Y-77475009D01*
X105400779Y-77475011D01*
X105484443Y-77631533D01*
X105484443Y-77631534D01*
X105535963Y-77801373D01*
X105553359Y-77978000D01*
X105535963Y-78154627D01*
X105501616Y-78267853D01*
X105484443Y-78324467D01*
X105410348Y-78463087D01*
X105400778Y-78480991D01*
X105371448Y-78516729D01*
X105288186Y-78618186D01*
X105186729Y-78701448D01*
X105150991Y-78730778D01*
X105150989Y-78730779D01*
X104994467Y-78814443D01*
X104937853Y-78831616D01*
X104824627Y-78865963D01*
X104758443Y-78872481D01*
X104692260Y-78879000D01*
X104603740Y-78879000D01*
X104537557Y-78872481D01*
X104471373Y-78865963D01*
X104358147Y-78831616D01*
X104301533Y-78814443D01*
X104145011Y-78730779D01*
X104145009Y-78730778D01*
X104109271Y-78701448D01*
X104007814Y-78618186D01*
X103924552Y-78516729D01*
X103895222Y-78480991D01*
X103885652Y-78463087D01*
X103811557Y-78324467D01*
X103794384Y-78267853D01*
X103760037Y-78154627D01*
X103742641Y-77978000D01*
X103760037Y-77801373D01*
X103811557Y-77631534D01*
X103811557Y-77631533D01*
X103895221Y-77475011D01*
X103895222Y-77475009D01*
X103924552Y-77439271D01*
X104007814Y-77337814D01*
X104109271Y-77254552D01*
X104145009Y-77225222D01*
X104162913Y-77215652D01*
X104301533Y-77141557D01*
X104358147Y-77124384D01*
X104471373Y-77090037D01*
X104537558Y-77083518D01*
X104603740Y-77077000D01*
X104692260Y-77077000D01*
X104758442Y-77083518D01*
X104758442Y-77083518D01*
G37*
G36*
X123554442Y-76321518D02*
X123620627Y-76328037D01*
X123733853Y-76362384D01*
X123790467Y-76379557D01*
X123929087Y-76453652D01*
X123946991Y-76463222D01*
X123982729Y-76492552D01*
X124084186Y-76575814D01*
X124167448Y-76677271D01*
X124196778Y-76713009D01*
X124196779Y-76713011D01*
X124280443Y-76869533D01*
X124280443Y-76869534D01*
X124331963Y-77039373D01*
X124349359Y-77216000D01*
X124331963Y-77392627D01*
X124306973Y-77475009D01*
X124280443Y-77562467D01*
X124243526Y-77631533D01*
X124196778Y-77718991D01*
X124167448Y-77754729D01*
X124084186Y-77856186D01*
X123982729Y-77939448D01*
X123946991Y-77968778D01*
X123946989Y-77968779D01*
X123790467Y-78052443D01*
X123733853Y-78069616D01*
X123620627Y-78103963D01*
X123554442Y-78110482D01*
X123488260Y-78117000D01*
X123399740Y-78117000D01*
X123333558Y-78110482D01*
X123267373Y-78103963D01*
X123154147Y-78069616D01*
X123097533Y-78052443D01*
X122941011Y-77968779D01*
X122941009Y-77968778D01*
X122905271Y-77939448D01*
X122803814Y-77856186D01*
X122720552Y-77754729D01*
X122691222Y-77718991D01*
X122644474Y-77631533D01*
X122607557Y-77562467D01*
X122581027Y-77475009D01*
X122556037Y-77392627D01*
X122538641Y-77216000D01*
X122556037Y-77039373D01*
X122607557Y-76869534D01*
X122607557Y-76869533D01*
X122691221Y-76713011D01*
X122691222Y-76713009D01*
X122720552Y-76677271D01*
X122803814Y-76575814D01*
X122905271Y-76492552D01*
X122941009Y-76463222D01*
X122958913Y-76453652D01*
X123097533Y-76379557D01*
X123154147Y-76362384D01*
X123267373Y-76328037D01*
X123333558Y-76321518D01*
X123399740Y-76315000D01*
X123488260Y-76315000D01*
X123554442Y-76321518D01*
X123554442Y-76321518D01*
G37*
G36*
X121014442Y-76321518D02*
X121080627Y-76328037D01*
X121193853Y-76362384D01*
X121250467Y-76379557D01*
X121389087Y-76453652D01*
X121406991Y-76463222D01*
X121442729Y-76492552D01*
X121544186Y-76575814D01*
X121627448Y-76677271D01*
X121656778Y-76713009D01*
X121656779Y-76713011D01*
X121740443Y-76869533D01*
X121740443Y-76869534D01*
X121791963Y-77039373D01*
X121809359Y-77216000D01*
X121791963Y-77392627D01*
X121766973Y-77475009D01*
X121740443Y-77562467D01*
X121703526Y-77631533D01*
X121656778Y-77718991D01*
X121627448Y-77754729D01*
X121544186Y-77856186D01*
X121442729Y-77939448D01*
X121406991Y-77968778D01*
X121406989Y-77968779D01*
X121250467Y-78052443D01*
X121193853Y-78069616D01*
X121080627Y-78103963D01*
X121014442Y-78110482D01*
X120948260Y-78117000D01*
X120859740Y-78117000D01*
X120793558Y-78110482D01*
X120727373Y-78103963D01*
X120614147Y-78069616D01*
X120557533Y-78052443D01*
X120401011Y-77968779D01*
X120401009Y-77968778D01*
X120365271Y-77939448D01*
X120263814Y-77856186D01*
X120180552Y-77754729D01*
X120151222Y-77718991D01*
X120104474Y-77631533D01*
X120067557Y-77562467D01*
X120041027Y-77475009D01*
X120016037Y-77392627D01*
X119998641Y-77216000D01*
X120016037Y-77039373D01*
X120067557Y-76869534D01*
X120067557Y-76869533D01*
X120151221Y-76713011D01*
X120151222Y-76713009D01*
X120180552Y-76677271D01*
X120263814Y-76575814D01*
X120365271Y-76492552D01*
X120401009Y-76463222D01*
X120418913Y-76453652D01*
X120557533Y-76379557D01*
X120614147Y-76362384D01*
X120727373Y-76328037D01*
X120793558Y-76321518D01*
X120859740Y-76315000D01*
X120948260Y-76315000D01*
X121014442Y-76321518D01*
X121014442Y-76321518D01*
G37*
G36*
X118474442Y-76321518D02*
X118540627Y-76328037D01*
X118653853Y-76362384D01*
X118710467Y-76379557D01*
X118849087Y-76453652D01*
X118866991Y-76463222D01*
X118902729Y-76492552D01*
X119004186Y-76575814D01*
X119087448Y-76677271D01*
X119116778Y-76713009D01*
X119116779Y-76713011D01*
X119200443Y-76869533D01*
X119200443Y-76869534D01*
X119251963Y-77039373D01*
X119269359Y-77216000D01*
X119251963Y-77392627D01*
X119226973Y-77475009D01*
X119200443Y-77562467D01*
X119163526Y-77631533D01*
X119116778Y-77718991D01*
X119087448Y-77754729D01*
X119004186Y-77856186D01*
X118902729Y-77939448D01*
X118866991Y-77968778D01*
X118866989Y-77968779D01*
X118710467Y-78052443D01*
X118653853Y-78069616D01*
X118540627Y-78103963D01*
X118474442Y-78110482D01*
X118408260Y-78117000D01*
X118319740Y-78117000D01*
X118253558Y-78110482D01*
X118187373Y-78103963D01*
X118074147Y-78069616D01*
X118017533Y-78052443D01*
X117861011Y-77968779D01*
X117861009Y-77968778D01*
X117825271Y-77939448D01*
X117723814Y-77856186D01*
X117640552Y-77754729D01*
X117611222Y-77718991D01*
X117564474Y-77631533D01*
X117527557Y-77562467D01*
X117501027Y-77475009D01*
X117476037Y-77392627D01*
X117458641Y-77216000D01*
X117476037Y-77039373D01*
X117527557Y-76869534D01*
X117527557Y-76869533D01*
X117611221Y-76713011D01*
X117611222Y-76713009D01*
X117640552Y-76677271D01*
X117723814Y-76575814D01*
X117825271Y-76492552D01*
X117861009Y-76463222D01*
X117878913Y-76453652D01*
X118017533Y-76379557D01*
X118074147Y-76362384D01*
X118187373Y-76328037D01*
X118253558Y-76321518D01*
X118319740Y-76315000D01*
X118408260Y-76315000D01*
X118474442Y-76321518D01*
X118474442Y-76321518D01*
G37*
G36*
X116725000Y-78117000D02*
X114923000Y-78117000D01*
X114923000Y-76315000D01*
X116725000Y-76315000D01*
X116725000Y-78117000D01*
X116725000Y-78117000D01*
G37*
G36*
X104758443Y-74543519D02*
X104824627Y-74550037D01*
X104937853Y-74584384D01*
X104994467Y-74601557D01*
X105133087Y-74675652D01*
X105150991Y-74685222D01*
X105186729Y-74714552D01*
X105288186Y-74797814D01*
X105371448Y-74899271D01*
X105400778Y-74935009D01*
X105400779Y-74935011D01*
X105484443Y-75091533D01*
X105484443Y-75091534D01*
X105535963Y-75261373D01*
X105553359Y-75438000D01*
X105535963Y-75614627D01*
X105501616Y-75727853D01*
X105484443Y-75784467D01*
X105459570Y-75831000D01*
X105400778Y-75940991D01*
X105371448Y-75976729D01*
X105288186Y-76078186D01*
X105186729Y-76161448D01*
X105150991Y-76190778D01*
X105150989Y-76190779D01*
X104994467Y-76274443D01*
X104937853Y-76291616D01*
X104824627Y-76325963D01*
X104758442Y-76332482D01*
X104692260Y-76339000D01*
X104603740Y-76339000D01*
X104537558Y-76332482D01*
X104471373Y-76325963D01*
X104358147Y-76291616D01*
X104301533Y-76274443D01*
X104145011Y-76190779D01*
X104145009Y-76190778D01*
X104109271Y-76161448D01*
X104007814Y-76078186D01*
X103924552Y-75976729D01*
X103895222Y-75940991D01*
X103836430Y-75831000D01*
X103811557Y-75784467D01*
X103794384Y-75727853D01*
X103760037Y-75614627D01*
X103742641Y-75438000D01*
X103760037Y-75261373D01*
X103811557Y-75091534D01*
X103811557Y-75091533D01*
X103895221Y-74935011D01*
X103895222Y-74935009D01*
X103924552Y-74899271D01*
X104007814Y-74797814D01*
X104109271Y-74714552D01*
X104145009Y-74685222D01*
X104162913Y-74675652D01*
X104301533Y-74601557D01*
X104358147Y-74584384D01*
X104471373Y-74550037D01*
X104537557Y-74543519D01*
X104603740Y-74537000D01*
X104692260Y-74537000D01*
X104758443Y-74543519D01*
X104758443Y-74543519D01*
G37*
G36*
X143649000Y-75831000D02*
X141847000Y-75831000D01*
X141847000Y-74029000D01*
X143649000Y-74029000D01*
X143649000Y-75831000D01*
X143649000Y-75831000D01*
G37*
G36*
X104758443Y-72003519D02*
X104824627Y-72010037D01*
X104935049Y-72043533D01*
X104994467Y-72061557D01*
X105133087Y-72135652D01*
X105150991Y-72145222D01*
X105186729Y-72174552D01*
X105288186Y-72257814D01*
X105371448Y-72359271D01*
X105400778Y-72395009D01*
X105400779Y-72395011D01*
X105484443Y-72551533D01*
X105501616Y-72608147D01*
X105535963Y-72721373D01*
X105553359Y-72898000D01*
X105535963Y-73074627D01*
X105515289Y-73142779D01*
X105484443Y-73244467D01*
X105459570Y-73291000D01*
X105400778Y-73400991D01*
X105371448Y-73436729D01*
X105288186Y-73538186D01*
X105186729Y-73621448D01*
X105150991Y-73650778D01*
X105150989Y-73650779D01*
X104994467Y-73734443D01*
X104937853Y-73751616D01*
X104824627Y-73785963D01*
X104758443Y-73792481D01*
X104692260Y-73799000D01*
X104603740Y-73799000D01*
X104537557Y-73792481D01*
X104471373Y-73785963D01*
X104358147Y-73751616D01*
X104301533Y-73734443D01*
X104145011Y-73650779D01*
X104145009Y-73650778D01*
X104109271Y-73621448D01*
X104007814Y-73538186D01*
X103924552Y-73436729D01*
X103895222Y-73400991D01*
X103836430Y-73291000D01*
X103811557Y-73244467D01*
X103780711Y-73142779D01*
X103760037Y-73074627D01*
X103742641Y-72898000D01*
X103760037Y-72721373D01*
X103794384Y-72608147D01*
X103811557Y-72551533D01*
X103895221Y-72395011D01*
X103895222Y-72395009D01*
X103924552Y-72359271D01*
X104007814Y-72257814D01*
X104109271Y-72174552D01*
X104145009Y-72145222D01*
X104162913Y-72135652D01*
X104301533Y-72061557D01*
X104360951Y-72043533D01*
X104471373Y-72010037D01*
X104537557Y-72003519D01*
X104603740Y-71997000D01*
X104692260Y-71997000D01*
X104758443Y-72003519D01*
X104758443Y-72003519D01*
G37*
G36*
X142858443Y-71495519D02*
X142924627Y-71502037D01*
X143037853Y-71536384D01*
X143094467Y-71553557D01*
X143233087Y-71627652D01*
X143250991Y-71637222D01*
X143286729Y-71666552D01*
X143388186Y-71749814D01*
X143471448Y-71851271D01*
X143500778Y-71887009D01*
X143500779Y-71887011D01*
X143584443Y-72043533D01*
X143584443Y-72043534D01*
X143635963Y-72213373D01*
X143653359Y-72390000D01*
X143635963Y-72566627D01*
X143601616Y-72679853D01*
X143584443Y-72736467D01*
X143510348Y-72875087D01*
X143500778Y-72892991D01*
X143496667Y-72898000D01*
X143388186Y-73030186D01*
X143286729Y-73113448D01*
X143250991Y-73142778D01*
X143250989Y-73142779D01*
X143094467Y-73226443D01*
X143037853Y-73243616D01*
X142924627Y-73277963D01*
X142858443Y-73284481D01*
X142792260Y-73291000D01*
X142703740Y-73291000D01*
X142637557Y-73284481D01*
X142571373Y-73277963D01*
X142458147Y-73243616D01*
X142401533Y-73226443D01*
X142245011Y-73142779D01*
X142245009Y-73142778D01*
X142209271Y-73113448D01*
X142107814Y-73030186D01*
X141999333Y-72898000D01*
X141995222Y-72892991D01*
X141985652Y-72875087D01*
X141911557Y-72736467D01*
X141894384Y-72679853D01*
X141860037Y-72566627D01*
X141842641Y-72390000D01*
X141860037Y-72213373D01*
X141911557Y-72043534D01*
X141911557Y-72043533D01*
X141995221Y-71887011D01*
X141995222Y-71887009D01*
X142024552Y-71851271D01*
X142107814Y-71749814D01*
X142209271Y-71666552D01*
X142245009Y-71637222D01*
X142262913Y-71627652D01*
X142401533Y-71553557D01*
X142458147Y-71536384D01*
X142571373Y-71502037D01*
X142637557Y-71495519D01*
X142703740Y-71489000D01*
X142792260Y-71489000D01*
X142858443Y-71495519D01*
X142858443Y-71495519D01*
G37*
G36*
X142858443Y-68955519D02*
X142924627Y-68962037D01*
X143037853Y-68996384D01*
X143094467Y-69013557D01*
X143233087Y-69087652D01*
X143250991Y-69097222D01*
X143286729Y-69126552D01*
X143388186Y-69209814D01*
X143471448Y-69311271D01*
X143500778Y-69347009D01*
X143500779Y-69347011D01*
X143584443Y-69503533D01*
X143584443Y-69503534D01*
X143635963Y-69673373D01*
X143653359Y-69850000D01*
X143635963Y-70026627D01*
X143601616Y-70139853D01*
X143584443Y-70196467D01*
X143510348Y-70335087D01*
X143500778Y-70352991D01*
X143471448Y-70388729D01*
X143388186Y-70490186D01*
X143286729Y-70573448D01*
X143250991Y-70602778D01*
X143250989Y-70602779D01*
X143094467Y-70686443D01*
X143037853Y-70703616D01*
X142924627Y-70737963D01*
X142858443Y-70744481D01*
X142792260Y-70751000D01*
X142703740Y-70751000D01*
X142637557Y-70744481D01*
X142571373Y-70737963D01*
X142458147Y-70703616D01*
X142401533Y-70686443D01*
X142245011Y-70602779D01*
X142245009Y-70602778D01*
X142209271Y-70573448D01*
X142107814Y-70490186D01*
X142024552Y-70388729D01*
X141995222Y-70352991D01*
X141985652Y-70335087D01*
X141911557Y-70196467D01*
X141894384Y-70139853D01*
X141860037Y-70026627D01*
X141842641Y-69850000D01*
X141860037Y-69673373D01*
X141911557Y-69503534D01*
X141911557Y-69503533D01*
X141995221Y-69347011D01*
X141995222Y-69347009D01*
X142024552Y-69311271D01*
X142107814Y-69209814D01*
X142209271Y-69126552D01*
X142245009Y-69097222D01*
X142262913Y-69087652D01*
X142401533Y-69013557D01*
X142458147Y-68996384D01*
X142571373Y-68962037D01*
X142637557Y-68955519D01*
X142703740Y-68949000D01*
X142792260Y-68949000D01*
X142858443Y-68955519D01*
X142858443Y-68955519D01*
G37*
G36*
X106305331Y-65903211D02*
X106633092Y-66038974D01*
X106928073Y-66236074D01*
X107178926Y-66486927D01*
X107376026Y-66781908D01*
X107511789Y-67109669D01*
X107581000Y-67457616D01*
X107581000Y-67812384D01*
X107511789Y-68160331D01*
X107376026Y-68488092D01*
X107178926Y-68783073D01*
X106928073Y-69033926D01*
X106633092Y-69231026D01*
X106305331Y-69366789D01*
X105957384Y-69436000D01*
X105602616Y-69436000D01*
X105254669Y-69366789D01*
X104926908Y-69231026D01*
X104631927Y-69033926D01*
X104381074Y-68783073D01*
X104183974Y-68488092D01*
X104048211Y-68160331D01*
X103979000Y-67812384D01*
X103979000Y-67457616D01*
X104048211Y-67109669D01*
X104183974Y-66781908D01*
X104381074Y-66486927D01*
X104631927Y-66236074D01*
X104926908Y-66038974D01*
X105254669Y-65903211D01*
X105602616Y-65834000D01*
X105957384Y-65834000D01*
X106305331Y-65903211D01*
X106305331Y-65903211D01*
G37*
G36*
X142858443Y-66415519D02*
X142924627Y-66422037D01*
X143037853Y-66456384D01*
X143094467Y-66473557D01*
X143233087Y-66547652D01*
X143250991Y-66557222D01*
X143286729Y-66586552D01*
X143388186Y-66669814D01*
X143471448Y-66771271D01*
X143500778Y-66807009D01*
X143500779Y-66807011D01*
X143584443Y-66963533D01*
X143584443Y-66963534D01*
X143635963Y-67133373D01*
X143653359Y-67310000D01*
X143635963Y-67486627D01*
X143601616Y-67599853D01*
X143584443Y-67656467D01*
X143510348Y-67795087D01*
X143500778Y-67812991D01*
X143471448Y-67848729D01*
X143388186Y-67950186D01*
X143286729Y-68033448D01*
X143250991Y-68062778D01*
X143250989Y-68062779D01*
X143094467Y-68146443D01*
X143048680Y-68160332D01*
X142924627Y-68197963D01*
X142858443Y-68204481D01*
X142792260Y-68211000D01*
X142703740Y-68211000D01*
X142637557Y-68204481D01*
X142571373Y-68197963D01*
X142447320Y-68160332D01*
X142401533Y-68146443D01*
X142245011Y-68062779D01*
X142245009Y-68062778D01*
X142209271Y-68033448D01*
X142107814Y-67950186D01*
X142024552Y-67848729D01*
X141995222Y-67812991D01*
X141985652Y-67795087D01*
X141911557Y-67656467D01*
X141894384Y-67599853D01*
X141860037Y-67486627D01*
X141842641Y-67310000D01*
X141860037Y-67133373D01*
X141911557Y-66963534D01*
X141911557Y-66963533D01*
X141995221Y-66807011D01*
X141995222Y-66807009D01*
X142024552Y-66771271D01*
X142107814Y-66669814D01*
X142209271Y-66586552D01*
X142245009Y-66557222D01*
X142262913Y-66547652D01*
X142401533Y-66473557D01*
X142458147Y-66456384D01*
X142571373Y-66422037D01*
X142637557Y-66415519D01*
X142703740Y-66409000D01*
X142792260Y-66409000D01*
X142858443Y-66415519D01*
X142858443Y-66415519D01*
G37*
G36*
X142858442Y-63875518D02*
X142924627Y-63882037D01*
X143037853Y-63916384D01*
X143094467Y-63933557D01*
X143233087Y-64007652D01*
X143250991Y-64017222D01*
X143286729Y-64046552D01*
X143388186Y-64129814D01*
X143471448Y-64231271D01*
X143500778Y-64267009D01*
X143500779Y-64267011D01*
X143584443Y-64423533D01*
X143584443Y-64423534D01*
X143635963Y-64593373D01*
X143653359Y-64770000D01*
X143635963Y-64946627D01*
X143601616Y-65059853D01*
X143584443Y-65116467D01*
X143510348Y-65255087D01*
X143500778Y-65272991D01*
X143471448Y-65308729D01*
X143388186Y-65410186D01*
X143286729Y-65493448D01*
X143250991Y-65522778D01*
X143250989Y-65522779D01*
X143094467Y-65606443D01*
X143037853Y-65623616D01*
X142924627Y-65657963D01*
X142858442Y-65664482D01*
X142792260Y-65671000D01*
X142703740Y-65671000D01*
X142637558Y-65664482D01*
X142571373Y-65657963D01*
X142458147Y-65623616D01*
X142401533Y-65606443D01*
X142245011Y-65522779D01*
X142245009Y-65522778D01*
X142209271Y-65493448D01*
X142107814Y-65410186D01*
X142024552Y-65308729D01*
X141995222Y-65272991D01*
X141985652Y-65255087D01*
X141911557Y-65116467D01*
X141894384Y-65059853D01*
X141860037Y-64946627D01*
X141842641Y-64770000D01*
X141860037Y-64593373D01*
X141911557Y-64423534D01*
X141911557Y-64423533D01*
X141995221Y-64267011D01*
X141995222Y-64267009D01*
X142024552Y-64231271D01*
X142107814Y-64129814D01*
X142209271Y-64046552D01*
X142245009Y-64017222D01*
X142262913Y-64007652D01*
X142401533Y-63933557D01*
X142458147Y-63916384D01*
X142571373Y-63882037D01*
X142637558Y-63875518D01*
X142703740Y-63869000D01*
X142792260Y-63869000D01*
X142858442Y-63875518D01*
X142858442Y-63875518D01*
G37*
G36*
X108752812Y-61998624D02*
X108916784Y-62066544D01*
X109064354Y-62165147D01*
X109189853Y-62290646D01*
X109288456Y-62438216D01*
X109348520Y-62583223D01*
X109360066Y-62604824D01*
X109375612Y-62623766D01*
X109394554Y-62639312D01*
X109416165Y-62650863D01*
X109439614Y-62657976D01*
X109464000Y-62660378D01*
X109488386Y-62657976D01*
X109511835Y-62650863D01*
X109533446Y-62639312D01*
X109552388Y-62623766D01*
X109567934Y-62604824D01*
X109579485Y-62583213D01*
X109586598Y-62559764D01*
X109589000Y-62535378D01*
X109589000Y-61964000D01*
X111391000Y-61964000D01*
X111391000Y-63766000D01*
X109589000Y-63766000D01*
X109589000Y-63194622D01*
X109586598Y-63170236D01*
X109579485Y-63146787D01*
X109567934Y-63125176D01*
X109552388Y-63106234D01*
X109533446Y-63090688D01*
X109511835Y-63079137D01*
X109488386Y-63072024D01*
X109464000Y-63069622D01*
X109439614Y-63072024D01*
X109416165Y-63079137D01*
X109394554Y-63090688D01*
X109375612Y-63106234D01*
X109360066Y-63125176D01*
X109348520Y-63146777D01*
X109288456Y-63291784D01*
X109189853Y-63439354D01*
X109064354Y-63564853D01*
X108916784Y-63663456D01*
X108752812Y-63731376D01*
X108578741Y-63766000D01*
X108401259Y-63766000D01*
X108227188Y-63731376D01*
X108063216Y-63663456D01*
X107915646Y-63564853D01*
X107790147Y-63439354D01*
X107691544Y-63291784D01*
X107623624Y-63127812D01*
X107589000Y-62953741D01*
X107589000Y-62776259D01*
X107623624Y-62602188D01*
X107691544Y-62438216D01*
X107790147Y-62290646D01*
X107915646Y-62165147D01*
X108063216Y-62066544D01*
X108227188Y-61998624D01*
X108401259Y-61964000D01*
X108578741Y-61964000D01*
X108752812Y-61998624D01*
X108752812Y-61998624D01*
G37*
G36*
X142858443Y-61335519D02*
X142924627Y-61342037D01*
X143037853Y-61376384D01*
X143094467Y-61393557D01*
X143233087Y-61467652D01*
X143250991Y-61477222D01*
X143286729Y-61506552D01*
X143388186Y-61589814D01*
X143471448Y-61691271D01*
X143500778Y-61727009D01*
X143500779Y-61727011D01*
X143584443Y-61883533D01*
X143584443Y-61883534D01*
X143635963Y-62053373D01*
X143653359Y-62230000D01*
X143635963Y-62406627D01*
X143626380Y-62438218D01*
X143584443Y-62576467D01*
X143550851Y-62639312D01*
X143500778Y-62732991D01*
X143471448Y-62768729D01*
X143388186Y-62870186D01*
X143286729Y-62953448D01*
X143250991Y-62982778D01*
X143250989Y-62982779D01*
X143094467Y-63066443D01*
X143037853Y-63083616D01*
X142924627Y-63117963D01*
X142858443Y-63124481D01*
X142792260Y-63131000D01*
X142703740Y-63131000D01*
X142637557Y-63124481D01*
X142571373Y-63117963D01*
X142458147Y-63083616D01*
X142401533Y-63066443D01*
X142245011Y-62982779D01*
X142245009Y-62982778D01*
X142209271Y-62953448D01*
X142107814Y-62870186D01*
X142024552Y-62768729D01*
X141995222Y-62732991D01*
X141945149Y-62639312D01*
X141911557Y-62576467D01*
X141869620Y-62438218D01*
X141860037Y-62406627D01*
X141842641Y-62230000D01*
X141860037Y-62053373D01*
X141911557Y-61883534D01*
X141911557Y-61883533D01*
X141995221Y-61727011D01*
X141995222Y-61727009D01*
X142024552Y-61691271D01*
X142107814Y-61589814D01*
X142209271Y-61506552D01*
X142245009Y-61477222D01*
X142262913Y-61467652D01*
X142401533Y-61393557D01*
X142458147Y-61376384D01*
X142571373Y-61342037D01*
X142637557Y-61335519D01*
X142703740Y-61329000D01*
X142792260Y-61329000D01*
X142858443Y-61335519D01*
X142858443Y-61335519D01*
G37*
G36*
X108752812Y-59498624D02*
X108916784Y-59566544D01*
X109064354Y-59665147D01*
X109189853Y-59790646D01*
X109288456Y-59938216D01*
X109356376Y-60102188D01*
X109367404Y-60157633D01*
X109374515Y-60181074D01*
X109386067Y-60202685D01*
X109401612Y-60221627D01*
X109420554Y-60237172D01*
X109442165Y-60248723D01*
X109465614Y-60255836D01*
X109490000Y-60258238D01*
X109514387Y-60255836D01*
X109537836Y-60248723D01*
X109559447Y-60237171D01*
X109578389Y-60221626D01*
X109593934Y-60202684D01*
X109605485Y-60181073D01*
X109612596Y-60157633D01*
X109623624Y-60102188D01*
X109691544Y-59938216D01*
X109790147Y-59790646D01*
X109915646Y-59665147D01*
X110063216Y-59566544D01*
X110227188Y-59498624D01*
X110401259Y-59464000D01*
X110578741Y-59464000D01*
X110752812Y-59498624D01*
X110916784Y-59566544D01*
X111064354Y-59665147D01*
X111189853Y-59790646D01*
X111288456Y-59938216D01*
X111356376Y-60102188D01*
X111391000Y-60276259D01*
X111391000Y-60453741D01*
X111356376Y-60627812D01*
X111288456Y-60791784D01*
X111189853Y-60939354D01*
X111064354Y-61064853D01*
X110916784Y-61163456D01*
X110752812Y-61231376D01*
X110578741Y-61266000D01*
X110401259Y-61266000D01*
X110227188Y-61231376D01*
X110063216Y-61163456D01*
X109915646Y-61064853D01*
X109790147Y-60939354D01*
X109691544Y-60791784D01*
X109623624Y-60627812D01*
X109612596Y-60572367D01*
X109605485Y-60548926D01*
X109593933Y-60527315D01*
X109578388Y-60508373D01*
X109559446Y-60492828D01*
X109537835Y-60481277D01*
X109514386Y-60474164D01*
X109490000Y-60471762D01*
X109465613Y-60474164D01*
X109442164Y-60481277D01*
X109420553Y-60492829D01*
X109401611Y-60508374D01*
X109386066Y-60527316D01*
X109374515Y-60548927D01*
X109367404Y-60572367D01*
X109356376Y-60627812D01*
X109288456Y-60791784D01*
X109189853Y-60939354D01*
X109064354Y-61064853D01*
X108916784Y-61163456D01*
X108752812Y-61231376D01*
X108578741Y-61266000D01*
X108401259Y-61266000D01*
X108227188Y-61231376D01*
X108063216Y-61163456D01*
X107915646Y-61064853D01*
X107790147Y-60939354D01*
X107691544Y-60791784D01*
X107623624Y-60627812D01*
X107589000Y-60453741D01*
X107589000Y-60276259D01*
X107623624Y-60102188D01*
X107691544Y-59938216D01*
X107790147Y-59790646D01*
X107915646Y-59665147D01*
X108063216Y-59566544D01*
X108227188Y-59498624D01*
X108401259Y-59464000D01*
X108578741Y-59464000D01*
X108752812Y-59498624D01*
X108752812Y-59498624D01*
G37*
G36*
X151240442Y-56509518D02*
X151306627Y-56516037D01*
X151419853Y-56550384D01*
X151476467Y-56567557D01*
X151615087Y-56641652D01*
X151632991Y-56651222D01*
X151668729Y-56680552D01*
X151770186Y-56763814D01*
X151853448Y-56865271D01*
X151882778Y-56901009D01*
X151882779Y-56901011D01*
X151966443Y-57057533D01*
X151966443Y-57057534D01*
X152017963Y-57227373D01*
X152035359Y-57404000D01*
X152017963Y-57580627D01*
X151983616Y-57693853D01*
X151966443Y-57750467D01*
X151892348Y-57889087D01*
X151882778Y-57906991D01*
X151853448Y-57942729D01*
X151770186Y-58044186D01*
X151668729Y-58127448D01*
X151632991Y-58156778D01*
X151632989Y-58156779D01*
X151476467Y-58240443D01*
X151419853Y-58257616D01*
X151306627Y-58291963D01*
X151240443Y-58298481D01*
X151174260Y-58305000D01*
X151085740Y-58305000D01*
X151019557Y-58298481D01*
X150953373Y-58291963D01*
X150840147Y-58257616D01*
X150783533Y-58240443D01*
X150627011Y-58156779D01*
X150627009Y-58156778D01*
X150591271Y-58127448D01*
X150489814Y-58044186D01*
X150406552Y-57942729D01*
X150377222Y-57906991D01*
X150367652Y-57889087D01*
X150293557Y-57750467D01*
X150276384Y-57693853D01*
X150242037Y-57580627D01*
X150224641Y-57404000D01*
X150242037Y-57227373D01*
X150293557Y-57057534D01*
X150293557Y-57057533D01*
X150377221Y-56901011D01*
X150377222Y-56901009D01*
X150406552Y-56865271D01*
X150489814Y-56763814D01*
X150591271Y-56680552D01*
X150627009Y-56651222D01*
X150644913Y-56641652D01*
X150783533Y-56567557D01*
X150840147Y-56550384D01*
X150953373Y-56516037D01*
X151019558Y-56509518D01*
X151085740Y-56503000D01*
X151174260Y-56503000D01*
X151240442Y-56509518D01*
X151240442Y-56509518D01*
G37*
G36*
X106305331Y-53863211D02*
X106633092Y-53998974D01*
X106928073Y-54196074D01*
X107178926Y-54446927D01*
X107376026Y-54741908D01*
X107511789Y-55069669D01*
X107581000Y-55417616D01*
X107581000Y-55772384D01*
X107511789Y-56120331D01*
X107376026Y-56448092D01*
X107178926Y-56743073D01*
X106928073Y-56993926D01*
X106633092Y-57191026D01*
X106305331Y-57326789D01*
X105957384Y-57396000D01*
X105602616Y-57396000D01*
X105254669Y-57326789D01*
X104926908Y-57191026D01*
X104631927Y-56993926D01*
X104381074Y-56743073D01*
X104183974Y-56448092D01*
X104048211Y-56120331D01*
X103979000Y-55772384D01*
X103979000Y-55417616D01*
X104048211Y-55069669D01*
X104183974Y-54741908D01*
X104381074Y-54446927D01*
X104631927Y-54196074D01*
X104926908Y-53998974D01*
X105254669Y-53863211D01*
X105602616Y-53794000D01*
X105957384Y-53794000D01*
X106305331Y-53863211D01*
X106305331Y-53863211D01*
G37*
G36*
X151240443Y-53969519D02*
X151306627Y-53976037D01*
X151419853Y-54010384D01*
X151476467Y-54027557D01*
X151615087Y-54101652D01*
X151632991Y-54111222D01*
X151668729Y-54140552D01*
X151770186Y-54223814D01*
X151853448Y-54325271D01*
X151882778Y-54361009D01*
X151882779Y-54361011D01*
X151966443Y-54517533D01*
X151966443Y-54517534D01*
X152017963Y-54687373D01*
X152035359Y-54864000D01*
X152017963Y-55040627D01*
X152009153Y-55069669D01*
X151966443Y-55210467D01*
X151892348Y-55349087D01*
X151882778Y-55366991D01*
X151853448Y-55402729D01*
X151770186Y-55504186D01*
X151668729Y-55587448D01*
X151632991Y-55616778D01*
X151632989Y-55616779D01*
X151476467Y-55700443D01*
X151419853Y-55717616D01*
X151306627Y-55751963D01*
X151240443Y-55758481D01*
X151174260Y-55765000D01*
X151085740Y-55765000D01*
X151019557Y-55758481D01*
X150953373Y-55751963D01*
X150840147Y-55717616D01*
X150783533Y-55700443D01*
X150627011Y-55616779D01*
X150627009Y-55616778D01*
X150591271Y-55587448D01*
X150489814Y-55504186D01*
X150406552Y-55402729D01*
X150377222Y-55366991D01*
X150367652Y-55349087D01*
X150293557Y-55210467D01*
X150250847Y-55069669D01*
X150242037Y-55040627D01*
X150224641Y-54864000D01*
X150242037Y-54687373D01*
X150293557Y-54517534D01*
X150293557Y-54517533D01*
X150377221Y-54361011D01*
X150377222Y-54361009D01*
X150406552Y-54325271D01*
X150489814Y-54223814D01*
X150591271Y-54140552D01*
X150627009Y-54111222D01*
X150644913Y-54101652D01*
X150783533Y-54027557D01*
X150840147Y-54010384D01*
X150953373Y-53976037D01*
X151019557Y-53969519D01*
X151085740Y-53963000D01*
X151174260Y-53963000D01*
X151240443Y-53969519D01*
X151240443Y-53969519D01*
G37*
G36*
X151240443Y-51429519D02*
X151306627Y-51436037D01*
X151419853Y-51470384D01*
X151476467Y-51487557D01*
X151610904Y-51559416D01*
X151632991Y-51571222D01*
X151668729Y-51600552D01*
X151770186Y-51683814D01*
X151853448Y-51785271D01*
X151882778Y-51821009D01*
X151882779Y-51821011D01*
X151966443Y-51977533D01*
X151966443Y-51977534D01*
X152017963Y-52147373D01*
X152035359Y-52324000D01*
X152017963Y-52500627D01*
X151993708Y-52580584D01*
X151966443Y-52670467D01*
X151940047Y-52719849D01*
X151882778Y-52826991D01*
X151876910Y-52834141D01*
X151770186Y-52964186D01*
X151668729Y-53047448D01*
X151632991Y-53076778D01*
X151632989Y-53076779D01*
X151476467Y-53160443D01*
X151419853Y-53177616D01*
X151306627Y-53211963D01*
X151240442Y-53218482D01*
X151174260Y-53225000D01*
X151085740Y-53225000D01*
X151019558Y-53218482D01*
X150953373Y-53211963D01*
X150840147Y-53177616D01*
X150783533Y-53160443D01*
X150627011Y-53076779D01*
X150627009Y-53076778D01*
X150591271Y-53047448D01*
X150489814Y-52964186D01*
X150383090Y-52834141D01*
X150377222Y-52826991D01*
X150319953Y-52719849D01*
X150293557Y-52670467D01*
X150266292Y-52580584D01*
X150242037Y-52500627D01*
X150224641Y-52324000D01*
X150242037Y-52147373D01*
X150293557Y-51977534D01*
X150293557Y-51977533D01*
X150377221Y-51821011D01*
X150377222Y-51821009D01*
X150406552Y-51785271D01*
X150489814Y-51683814D01*
X150591271Y-51600552D01*
X150627009Y-51571222D01*
X150649096Y-51559416D01*
X150783533Y-51487557D01*
X150840147Y-51470384D01*
X150953373Y-51436037D01*
X151019557Y-51429519D01*
X151085740Y-51423000D01*
X151174260Y-51423000D01*
X151240443Y-51429519D01*
X151240443Y-51429519D01*
G37*
G36*
X131243294Y-51168633D02*
X131415694Y-51220931D01*
X131415696Y-51220932D01*
X131574583Y-51305859D01*
X131713849Y-51420151D01*
X131828141Y-51559417D01*
X131894633Y-51683814D01*
X131913069Y-51718306D01*
X131965367Y-51890706D01*
X131983025Y-52070000D01*
X131965367Y-52249294D01*
X131913069Y-52421694D01*
X131913068Y-52421696D01*
X131828141Y-52580583D01*
X131713849Y-52719849D01*
X131574583Y-52834141D01*
X131415696Y-52919068D01*
X131415694Y-52919069D01*
X131243294Y-52971367D01*
X131108931Y-52984600D01*
X131019069Y-52984600D01*
X130884706Y-52971367D01*
X130712306Y-52919069D01*
X130712304Y-52919068D01*
X130553417Y-52834141D01*
X130414151Y-52719849D01*
X130299859Y-52580583D01*
X130214932Y-52421696D01*
X130214931Y-52421694D01*
X130162633Y-52249294D01*
X130144975Y-52070000D01*
X130162633Y-51890706D01*
X130214931Y-51718306D01*
X130233367Y-51683814D01*
X130299859Y-51559417D01*
X130414151Y-51420151D01*
X130553417Y-51305859D01*
X130712304Y-51220932D01*
X130712306Y-51220931D01*
X130884706Y-51168633D01*
X131019069Y-51155400D01*
X131108931Y-51155400D01*
X131243294Y-51168633D01*
X131243294Y-51168633D01*
G37*
G36*
X128703294Y-51168633D02*
X128875694Y-51220931D01*
X128875696Y-51220932D01*
X129034583Y-51305859D01*
X129173849Y-51420151D01*
X129288141Y-51559417D01*
X129354633Y-51683814D01*
X129373069Y-51718306D01*
X129425367Y-51890706D01*
X129443025Y-52070000D01*
X129425367Y-52249294D01*
X129373069Y-52421694D01*
X129373068Y-52421696D01*
X129288141Y-52580583D01*
X129173849Y-52719849D01*
X129034583Y-52834141D01*
X128875696Y-52919068D01*
X128875694Y-52919069D01*
X128703294Y-52971367D01*
X128568931Y-52984600D01*
X128479069Y-52984600D01*
X128344706Y-52971367D01*
X128172306Y-52919069D01*
X128172304Y-52919068D01*
X128013417Y-52834141D01*
X127874151Y-52719849D01*
X127759859Y-52580583D01*
X127674932Y-52421696D01*
X127674931Y-52421694D01*
X127622633Y-52249294D01*
X127604975Y-52070000D01*
X127622633Y-51890706D01*
X127674931Y-51718306D01*
X127693367Y-51683814D01*
X127759859Y-51559417D01*
X127874151Y-51420151D01*
X128013417Y-51305859D01*
X128172304Y-51220932D01*
X128172306Y-51220931D01*
X128344706Y-51168633D01*
X128479069Y-51155400D01*
X128568931Y-51155400D01*
X128703294Y-51168633D01*
X128703294Y-51168633D01*
G37*
G36*
X126163294Y-51168633D02*
X126335694Y-51220931D01*
X126335696Y-51220932D01*
X126494583Y-51305859D01*
X126633849Y-51420151D01*
X126748141Y-51559417D01*
X126814633Y-51683814D01*
X126833069Y-51718306D01*
X126885367Y-51890706D01*
X126903025Y-52070000D01*
X126885367Y-52249294D01*
X126833069Y-52421694D01*
X126833068Y-52421696D01*
X126748141Y-52580583D01*
X126633849Y-52719849D01*
X126494583Y-52834141D01*
X126335696Y-52919068D01*
X126335694Y-52919069D01*
X126163294Y-52971367D01*
X126028931Y-52984600D01*
X125939069Y-52984600D01*
X125804706Y-52971367D01*
X125632306Y-52919069D01*
X125632304Y-52919068D01*
X125473417Y-52834141D01*
X125334151Y-52719849D01*
X125219859Y-52580583D01*
X125134932Y-52421696D01*
X125134931Y-52421694D01*
X125082633Y-52249294D01*
X125064975Y-52070000D01*
X125082633Y-51890706D01*
X125134931Y-51718306D01*
X125153367Y-51683814D01*
X125219859Y-51559417D01*
X125334151Y-51420151D01*
X125473417Y-51305859D01*
X125632304Y-51220932D01*
X125632306Y-51220931D01*
X125804706Y-51168633D01*
X125939069Y-51155400D01*
X126028931Y-51155400D01*
X126163294Y-51168633D01*
X126163294Y-51168633D01*
G37*
G36*
X123623294Y-51168633D02*
X123795694Y-51220931D01*
X123795696Y-51220932D01*
X123954583Y-51305859D01*
X124093849Y-51420151D01*
X124208141Y-51559417D01*
X124274633Y-51683814D01*
X124293069Y-51718306D01*
X124345367Y-51890706D01*
X124363025Y-52070000D01*
X124345367Y-52249294D01*
X124293069Y-52421694D01*
X124293068Y-52421696D01*
X124208141Y-52580583D01*
X124093849Y-52719849D01*
X123954583Y-52834141D01*
X123795696Y-52919068D01*
X123795694Y-52919069D01*
X123623294Y-52971367D01*
X123488931Y-52984600D01*
X123399069Y-52984600D01*
X123264706Y-52971367D01*
X123092306Y-52919069D01*
X123092304Y-52919068D01*
X122933417Y-52834141D01*
X122794151Y-52719849D01*
X122679859Y-52580583D01*
X122594932Y-52421696D01*
X122594931Y-52421694D01*
X122542633Y-52249294D01*
X122524975Y-52070000D01*
X122542633Y-51890706D01*
X122594931Y-51718306D01*
X122613367Y-51683814D01*
X122679859Y-51559417D01*
X122794151Y-51420151D01*
X122933417Y-51305859D01*
X123092304Y-51220932D01*
X123092306Y-51220931D01*
X123264706Y-51168633D01*
X123399069Y-51155400D01*
X123488931Y-51155400D01*
X123623294Y-51168633D01*
X123623294Y-51168633D01*
G37*
G36*
X121818600Y-52984600D02*
X119989400Y-52984600D01*
X119989400Y-51155400D01*
X121818600Y-51155400D01*
X121818600Y-52984600D01*
X121818600Y-52984600D01*
G37*
G36*
X139331000Y-50939000D02*
X137529000Y-50939000D01*
X137529000Y-49137000D01*
X139331000Y-49137000D01*
X139331000Y-50939000D01*
X139331000Y-50939000D01*
G37*
G36*
X141080443Y-49143519D02*
X141146627Y-49150037D01*
X141259853Y-49184384D01*
X141316467Y-49201557D01*
X141455087Y-49275652D01*
X141472991Y-49285222D01*
X141508729Y-49314552D01*
X141610186Y-49397814D01*
X141693448Y-49499271D01*
X141722778Y-49535009D01*
X141722779Y-49535011D01*
X141806443Y-49691533D01*
X141823616Y-49748147D01*
X141857963Y-49861373D01*
X141875359Y-50038000D01*
X141857963Y-50214627D01*
X141833843Y-50294140D01*
X141806443Y-50384467D01*
X141732348Y-50523087D01*
X141722778Y-50540991D01*
X141693448Y-50576729D01*
X141610186Y-50678186D01*
X141508729Y-50761448D01*
X141472991Y-50790778D01*
X141472989Y-50790779D01*
X141316467Y-50874443D01*
X141259853Y-50891616D01*
X141146627Y-50925963D01*
X141080443Y-50932481D01*
X141014260Y-50939000D01*
X140925740Y-50939000D01*
X140859557Y-50932481D01*
X140793373Y-50925963D01*
X140680147Y-50891616D01*
X140623533Y-50874443D01*
X140467011Y-50790779D01*
X140467009Y-50790778D01*
X140431271Y-50761448D01*
X140329814Y-50678186D01*
X140246552Y-50576729D01*
X140217222Y-50540991D01*
X140207652Y-50523087D01*
X140133557Y-50384467D01*
X140106157Y-50294140D01*
X140082037Y-50214627D01*
X140064641Y-50038000D01*
X140082037Y-49861373D01*
X140116384Y-49748147D01*
X140133557Y-49691533D01*
X140217221Y-49535011D01*
X140217222Y-49535009D01*
X140246552Y-49499271D01*
X140329814Y-49397814D01*
X140431271Y-49314552D01*
X140467009Y-49285222D01*
X140484913Y-49275652D01*
X140623533Y-49201557D01*
X140680147Y-49184384D01*
X140793373Y-49150037D01*
X140859557Y-49143519D01*
X140925740Y-49137000D01*
X141014260Y-49137000D01*
X141080443Y-49143519D01*
X141080443Y-49143519D01*
G37*
G36*
X152031000Y-50685000D02*
X150229000Y-50685000D01*
X150229000Y-48883000D01*
X152031000Y-48883000D01*
X152031000Y-50685000D01*
X152031000Y-50685000D01*
G37*
G36*
X123623294Y-48628633D02*
X123795694Y-48680931D01*
X123795696Y-48680932D01*
X123954583Y-48765859D01*
X124093849Y-48880151D01*
X124208141Y-49019417D01*
X124277959Y-49150037D01*
X124293069Y-49178306D01*
X124345367Y-49350706D01*
X124363025Y-49530000D01*
X124345367Y-49709294D01*
X124293069Y-49881694D01*
X124293068Y-49881696D01*
X124208141Y-50040583D01*
X124093849Y-50179849D01*
X123954583Y-50294141D01*
X123795696Y-50379068D01*
X123795694Y-50379069D01*
X123623294Y-50431367D01*
X123488931Y-50444600D01*
X123399069Y-50444600D01*
X123264706Y-50431367D01*
X123092306Y-50379069D01*
X123092304Y-50379068D01*
X122933417Y-50294141D01*
X122794151Y-50179849D01*
X122679859Y-50040583D01*
X122594932Y-49881696D01*
X122594931Y-49881694D01*
X122542633Y-49709294D01*
X122524975Y-49530000D01*
X122542633Y-49350706D01*
X122594931Y-49178306D01*
X122610041Y-49150037D01*
X122679859Y-49019417D01*
X122794151Y-48880151D01*
X122933417Y-48765859D01*
X123092304Y-48680932D01*
X123092306Y-48680931D01*
X123264706Y-48628633D01*
X123399069Y-48615400D01*
X123488931Y-48615400D01*
X123623294Y-48628633D01*
X123623294Y-48628633D01*
G37*
G36*
X121083294Y-48628633D02*
X121255694Y-48680931D01*
X121255696Y-48680932D01*
X121414583Y-48765859D01*
X121553849Y-48880151D01*
X121668141Y-49019417D01*
X121737959Y-49150037D01*
X121753069Y-49178306D01*
X121805367Y-49350706D01*
X121823025Y-49530000D01*
X121805367Y-49709294D01*
X121753069Y-49881694D01*
X121753068Y-49881696D01*
X121668141Y-50040583D01*
X121553849Y-50179849D01*
X121414583Y-50294141D01*
X121255696Y-50379068D01*
X121255694Y-50379069D01*
X121083294Y-50431367D01*
X120948931Y-50444600D01*
X120859069Y-50444600D01*
X120724706Y-50431367D01*
X120552306Y-50379069D01*
X120552304Y-50379068D01*
X120393417Y-50294141D01*
X120254151Y-50179849D01*
X120139859Y-50040583D01*
X120054932Y-49881696D01*
X120054931Y-49881694D01*
X120002633Y-49709294D01*
X119984975Y-49530000D01*
X120002633Y-49350706D01*
X120054931Y-49178306D01*
X120070041Y-49150037D01*
X120139859Y-49019417D01*
X120254151Y-48880151D01*
X120393417Y-48765859D01*
X120552304Y-48680932D01*
X120552306Y-48680931D01*
X120724706Y-48628633D01*
X120859069Y-48615400D01*
X120948931Y-48615400D01*
X121083294Y-48628633D01*
X121083294Y-48628633D01*
G37*
G36*
X126163294Y-48628633D02*
X126335694Y-48680931D01*
X126335696Y-48680932D01*
X126494583Y-48765859D01*
X126633849Y-48880151D01*
X126748141Y-49019417D01*
X126817959Y-49150037D01*
X126833069Y-49178306D01*
X126885367Y-49350706D01*
X126903025Y-49530000D01*
X126885367Y-49709294D01*
X126833069Y-49881694D01*
X126833068Y-49881696D01*
X126748141Y-50040583D01*
X126633849Y-50179849D01*
X126494583Y-50294141D01*
X126335696Y-50379068D01*
X126335694Y-50379069D01*
X126163294Y-50431367D01*
X126028931Y-50444600D01*
X125939069Y-50444600D01*
X125804706Y-50431367D01*
X125632306Y-50379069D01*
X125632304Y-50379068D01*
X125473417Y-50294141D01*
X125334151Y-50179849D01*
X125219859Y-50040583D01*
X125134932Y-49881696D01*
X125134931Y-49881694D01*
X125082633Y-49709294D01*
X125064975Y-49530000D01*
X125082633Y-49350706D01*
X125134931Y-49178306D01*
X125150041Y-49150037D01*
X125219859Y-49019417D01*
X125334151Y-48880151D01*
X125473417Y-48765859D01*
X125632304Y-48680932D01*
X125632306Y-48680931D01*
X125804706Y-48628633D01*
X125939069Y-48615400D01*
X126028931Y-48615400D01*
X126163294Y-48628633D01*
X126163294Y-48628633D01*
G37*
G36*
X131243294Y-48628633D02*
X131415694Y-48680931D01*
X131415696Y-48680932D01*
X131574583Y-48765859D01*
X131713849Y-48880151D01*
X131828141Y-49019417D01*
X131897959Y-49150037D01*
X131913069Y-49178306D01*
X131965367Y-49350706D01*
X131983025Y-49530000D01*
X131965367Y-49709294D01*
X131913069Y-49881694D01*
X131913068Y-49881696D01*
X131828141Y-50040583D01*
X131713849Y-50179849D01*
X131574583Y-50294141D01*
X131415696Y-50379068D01*
X131415694Y-50379069D01*
X131243294Y-50431367D01*
X131108931Y-50444600D01*
X131019069Y-50444600D01*
X130884706Y-50431367D01*
X130712306Y-50379069D01*
X130712304Y-50379068D01*
X130553417Y-50294141D01*
X130414151Y-50179849D01*
X130299859Y-50040583D01*
X130214932Y-49881696D01*
X130214931Y-49881694D01*
X130162633Y-49709294D01*
X130144975Y-49530000D01*
X130162633Y-49350706D01*
X130214931Y-49178306D01*
X130230041Y-49150037D01*
X130299859Y-49019417D01*
X130414151Y-48880151D01*
X130553417Y-48765859D01*
X130712304Y-48680932D01*
X130712306Y-48680931D01*
X130884706Y-48628633D01*
X131019069Y-48615400D01*
X131108931Y-48615400D01*
X131243294Y-48628633D01*
X131243294Y-48628633D01*
G37*
G36*
X128703294Y-48628633D02*
X128875694Y-48680931D01*
X128875696Y-48680932D01*
X129034583Y-48765859D01*
X129173849Y-48880151D01*
X129288141Y-49019417D01*
X129357959Y-49150037D01*
X129373069Y-49178306D01*
X129425367Y-49350706D01*
X129443025Y-49530000D01*
X129425367Y-49709294D01*
X129373069Y-49881694D01*
X129373068Y-49881696D01*
X129288141Y-50040583D01*
X129173849Y-50179849D01*
X129034583Y-50294141D01*
X128875696Y-50379068D01*
X128875694Y-50379069D01*
X128703294Y-50431367D01*
X128568931Y-50444600D01*
X128479069Y-50444600D01*
X128344706Y-50431367D01*
X128172306Y-50379069D01*
X128172304Y-50379068D01*
X128013417Y-50294141D01*
X127874151Y-50179849D01*
X127759859Y-50040583D01*
X127674932Y-49881696D01*
X127674931Y-49881694D01*
X127622633Y-49709294D01*
X127604975Y-49530000D01*
X127622633Y-49350706D01*
X127674931Y-49178306D01*
X127690041Y-49150037D01*
X127759859Y-49019417D01*
X127874151Y-48880151D01*
X128013417Y-48765859D01*
X128172304Y-48680932D01*
X128172306Y-48680931D01*
X128344706Y-48628633D01*
X128479069Y-48615400D01*
X128568931Y-48615400D01*
X128703294Y-48628633D01*
X128703294Y-48628633D01*
G37*
M02*
