%TF.GenerationSoftware,KiCad,Pcbnew,5.1.12*%
%TF.CreationDate,2021-12-06T16:47:01+08:00*%
%TF.ProjectId,elf2,656c6632-2e6b-4696-9361-645f70636258,rev?*%
%TF.SameCoordinates,Original*%
%TF.FileFunction,Copper,L2,Inr*%
%TF.FilePolarity,Positive*%
%FSLAX46Y46*%
G04 Gerber Fmt 4.6, Leading zero omitted, Abs format (unit mm)*
G04 Created by KiCad (PCBNEW 5.1.12) date 2021-12-06 16:47:01*
%MOMM*%
%LPD*%
G01*
G04 APERTURE LIST*
%TA.AperFunction,ComponentPad*%
%ADD10R,1.700000X1.700000*%
%TD*%
%TA.AperFunction,ComponentPad*%
%ADD11O,1.700000X1.700000*%
%TD*%
%TA.AperFunction,ComponentPad*%
%ADD12C,1.000000*%
%TD*%
%TA.AperFunction,ComponentPad*%
%ADD13R,1.727200X1.727200*%
%TD*%
%TA.AperFunction,ComponentPad*%
%ADD14O,1.727200X1.727200*%
%TD*%
%TA.AperFunction,ComponentPad*%
%ADD15C,1.700000*%
%TD*%
%TA.AperFunction,ComponentPad*%
%ADD16C,3.500000*%
%TD*%
%TA.AperFunction,ViaPad*%
%ADD17C,0.600000*%
%TD*%
%TA.AperFunction,ViaPad*%
%ADD18C,0.700000*%
%TD*%
%TA.AperFunction,ViaPad*%
%ADD19C,1.200000*%
%TD*%
%TA.AperFunction,ViaPad*%
%ADD20C,2.000000*%
%TD*%
%TA.AperFunction,Conductor*%
%ADD21C,0.254000*%
%TD*%
%TA.AperFunction,Conductor*%
%ADD22C,0.350000*%
%TD*%
%ADD23C,0.300000*%
%ADD24C,0.350000*%
G04 APERTURE END LIST*
D10*
%TO.N,+3V3*%
%TO.C,J7*%
X141986000Y-63246000D03*
D11*
%TO.N,/SWDIO*%
X141986000Y-65786000D03*
%TO.N,/SWCLK*%
X141986000Y-68326000D03*
%TO.N,GND*%
X141986000Y-70866000D03*
%TD*%
D12*
%TO.N,Net-(C8-Pad1)*%
%TO.C,Y1*%
X130556000Y-74554000D03*
%TO.N,Net-(C9-Pad1)*%
X130556000Y-76454000D03*
%TD*%
D11*
%TO.N,+3V3*%
%TO.C,J4*%
X126492000Y-79502000D03*
X126492000Y-76962000D03*
%TO.N,GND*%
X123952000Y-79502000D03*
X123952000Y-76962000D03*
%TO.N,/PMOD_6P2_4*%
X121412000Y-79502000D03*
%TO.N,/PMOD_6P_4*%
X121412000Y-76962000D03*
%TO.N,/PMOD_6P2_3*%
X118872000Y-79502000D03*
%TO.N,/PMOD_6P_3*%
X118872000Y-76962000D03*
%TO.N,/PMOD_6P2_2*%
X116332000Y-79502000D03*
%TO.N,/PMOD_6P_2*%
X116332000Y-76962000D03*
%TO.N,/PMOD_6P2_1*%
X113792000Y-79502000D03*
D10*
%TO.N,/PMOD_6P_1*%
X113792000Y-76962000D03*
%TD*%
%TO.N,/ADC_0*%
%TO.C,J8*%
X104648000Y-88138000D03*
D11*
%TO.N,/LVDSRX_N*%
X104648000Y-85598000D03*
%TO.N,/LVDSRX_P*%
X104648000Y-83058000D03*
%TO.N,/LVDSTX_N*%
X104648000Y-80518000D03*
%TO.N,/LVDSTX_P*%
X104648000Y-77978000D03*
%TO.N,/ADC_REF*%
X104648000Y-75438000D03*
%TO.N,+3V3*%
X104648000Y-72898000D03*
%TD*%
D13*
%TO.N,/TCK*%
%TO.C,J2*%
X120904000Y-52070000D03*
D14*
%TO.N,GND*%
X120904000Y-49530000D03*
%TO.N,/TDO*%
X123444000Y-52070000D03*
%TO.N,Net-(D1-Pad1)*%
X123444000Y-49530000D03*
%TO.N,/TMS*%
X125984000Y-52070000D03*
%TO.N,N/C*%
X125984000Y-49530000D03*
X128524000Y-52070000D03*
X128524000Y-49530000D03*
%TO.N,/TDI*%
X131064000Y-52070000D03*
%TO.N,GND*%
X131064000Y-49530000D03*
%TD*%
D10*
%TO.N,/JTAGEN*%
%TO.C,J3*%
X138938000Y-50038000D03*
D11*
%TO.N,+3V3*%
X141478000Y-50038000D03*
%TD*%
D10*
%TO.N,+5V*%
%TO.C,J1*%
X110490000Y-62865000D03*
D15*
%TO.N,/PORT_D-*%
X110490000Y-60365000D03*
%TO.N,/PORT_D+*%
X108490000Y-60365000D03*
%TO.N,GND*%
X108490000Y-62865000D03*
D16*
X105780000Y-67635000D03*
X105780000Y-55595000D03*
%TD*%
D17*
%TO.N,/UPU*%
X126502772Y-62384000D03*
X120650000Y-60434000D03*
D18*
%TO.N,+3V3*%
X134620000Y-59690000D03*
X125730000Y-61722004D03*
X125729994Y-62738000D03*
X131191000Y-60198000D03*
X127873873Y-71993873D03*
D19*
X116840000Y-69215000D03*
X114554000Y-69215000D03*
X119253000Y-69215000D03*
D18*
X138176000Y-87884000D03*
X133096000Y-53340000D03*
X137668000Y-71374000D03*
X113284000Y-56642000D03*
X125730000Y-65242000D03*
D20*
%TO.N,GND*%
X131826000Y-62484000D03*
D18*
X122936000Y-62738000D03*
X122936000Y-61214000D03*
X128561611Y-71306135D03*
X138938000Y-83312000D03*
X129540000Y-54102000D03*
X120650000Y-63246000D03*
X133096000Y-85598000D03*
X137414000Y-73152000D03*
X135636000Y-69596000D03*
X132460077Y-73374824D03*
X122682000Y-58420000D03*
X122428000Y-64516000D03*
X136906000Y-54864000D03*
D17*
%TO.N,/PROGRAMN*%
X127508000Y-54610000D03*
X117094000Y-51054000D03*
%TO.N,/JTAGEN*%
X131826000Y-56896000D03*
%TO.N,/TMS*%
X125984000Y-54102000D03*
%TO.N,/TCK*%
X122682000Y-54102000D03*
%TO.N,/TDI*%
X127762000Y-58901500D03*
%TO.N,/TDO*%
X123391078Y-56440922D03*
%TO.N,/SWCLK*%
X138938000Y-59182006D03*
%TO.N,/SWDIO*%
X138938000Y-58401987D03*
%TO.N,/LED_B*%
X122174000Y-65532000D03*
X112522000Y-69342000D03*
X112522000Y-71628000D03*
X128016000Y-67564000D03*
%TO.N,/LED_R*%
X125984000Y-68707000D03*
X129032006Y-62734000D03*
%TO.N,/ADC_0*%
X134636820Y-60916176D03*
%TO.N,/LVDSRX_N*%
X133124843Y-59737156D03*
%TO.N,/LVDSRX_P*%
X132559157Y-60302842D03*
%TO.N,/LVDSTX_N*%
X130203843Y-60302842D03*
%TO.N,/LVDSTX_P*%
X129638157Y-59737156D03*
%TO.N,/ADC_REF*%
X137791323Y-60556698D03*
%TO.N,/PMOD_6P2_1*%
X137706124Y-66781879D03*
%TO.N,/PMOD_6P2_2*%
X137824122Y-75848122D03*
%TO.N,/PMOD_6P2_3*%
X138446840Y-74438840D03*
%TO.N,/PMOD_6P2_4*%
X138176000Y-64008000D03*
%TO.N,/QSPI_CS*%
X135890000Y-66293990D03*
X136906000Y-66802000D03*
%TO.N,/QSPI_IO1*%
X139495951Y-64262000D03*
X138247963Y-62003371D03*
%TO.N,/QSPI_IO2*%
X137777987Y-62750883D03*
X138938000Y-62992006D03*
%TO.N,/QSPI_IO0*%
X134844865Y-73630875D03*
X139192000Y-59944000D03*
%TO.N,/QSPI_SCK*%
X135890000Y-73914000D03*
X135322502Y-67108466D03*
%TO.N,/QSPI_IO3*%
X140660021Y-67037456D03*
X139486655Y-61898798D03*
%TO.N,/CLK*%
X122032000Y-57150000D03*
X120904000Y-61994000D03*
%TD*%
D21*
%TO.N,+3V3*%
X119575958Y-48820147D02*
X119462990Y-49092875D01*
X119405400Y-49382401D01*
X119405400Y-49677599D01*
X119462990Y-49967125D01*
X119575958Y-50239853D01*
X119739961Y-50485302D01*
X119854023Y-50599364D01*
X119796220Y-50616898D01*
X119685906Y-50675863D01*
X119589215Y-50755215D01*
X119509863Y-50851906D01*
X119450898Y-50962220D01*
X119414588Y-51081918D01*
X119402328Y-51206400D01*
X119402328Y-52933600D01*
X119414588Y-53058082D01*
X119450898Y-53177780D01*
X119509863Y-53288094D01*
X119589215Y-53384785D01*
X119685906Y-53464137D01*
X119796220Y-53523102D01*
X119915918Y-53559412D01*
X120040400Y-53571672D01*
X121767600Y-53571672D01*
X121892082Y-53559412D01*
X121927136Y-53548779D01*
X121853414Y-53659111D01*
X121782932Y-53829271D01*
X121747000Y-54009911D01*
X121747000Y-54194089D01*
X121782932Y-54374729D01*
X121853414Y-54544889D01*
X121955738Y-54698028D01*
X122085972Y-54828262D01*
X122239111Y-54930586D01*
X122409271Y-55001068D01*
X122589911Y-55037000D01*
X122774089Y-55037000D01*
X122954729Y-55001068D01*
X123124889Y-54930586D01*
X123278028Y-54828262D01*
X123408262Y-54698028D01*
X123510586Y-54544889D01*
X123581068Y-54374729D01*
X123617000Y-54194089D01*
X123617000Y-54009911D01*
X123581068Y-53829271D01*
X123510586Y-53659111D01*
X123450109Y-53568600D01*
X123591599Y-53568600D01*
X123881125Y-53511010D01*
X124153853Y-53398042D01*
X124399302Y-53234039D01*
X124608039Y-53025302D01*
X124714000Y-52866719D01*
X124819961Y-53025302D01*
X125028698Y-53234039D01*
X125274147Y-53398042D01*
X125338862Y-53424848D01*
X125257738Y-53505972D01*
X125155414Y-53659111D01*
X125084932Y-53829271D01*
X125049000Y-54009911D01*
X125049000Y-54194089D01*
X125084932Y-54374729D01*
X125155414Y-54544889D01*
X125257738Y-54698028D01*
X125387972Y-54828262D01*
X125541111Y-54930586D01*
X125711271Y-55001068D01*
X125891911Y-55037000D01*
X126076089Y-55037000D01*
X126256729Y-55001068D01*
X126426889Y-54930586D01*
X126580028Y-54828262D01*
X126595100Y-54813190D01*
X126608932Y-54882729D01*
X126679414Y-55052889D01*
X126781738Y-55206028D01*
X126911972Y-55336262D01*
X127065111Y-55438586D01*
X127235271Y-55509068D01*
X127415911Y-55545000D01*
X127600089Y-55545000D01*
X127780729Y-55509068D01*
X127950889Y-55438586D01*
X128104028Y-55336262D01*
X128234262Y-55206028D01*
X128336586Y-55052889D01*
X128407068Y-54882729D01*
X128443000Y-54702089D01*
X128443000Y-54517911D01*
X128407068Y-54337271D01*
X128336586Y-54167111D01*
X128234262Y-54013972D01*
X128104028Y-53883738D01*
X127950889Y-53781414D01*
X127780729Y-53710932D01*
X127600089Y-53675000D01*
X127415911Y-53675000D01*
X127235271Y-53710932D01*
X127065111Y-53781414D01*
X126911972Y-53883738D01*
X126896900Y-53898810D01*
X126883068Y-53829271D01*
X126812586Y-53659111D01*
X126710262Y-53505972D01*
X126629138Y-53424848D01*
X126693853Y-53398042D01*
X126939302Y-53234039D01*
X127148039Y-53025302D01*
X127254000Y-52866719D01*
X127359961Y-53025302D01*
X127568698Y-53234039D01*
X127814147Y-53398042D01*
X128086875Y-53511010D01*
X128376401Y-53568600D01*
X128671599Y-53568600D01*
X128717913Y-53559388D01*
X128667104Y-53635428D01*
X128592853Y-53814686D01*
X128555000Y-54004986D01*
X128555000Y-54199014D01*
X128592853Y-54389314D01*
X128667104Y-54568572D01*
X128774901Y-54729901D01*
X128912099Y-54867099D01*
X129073428Y-54974896D01*
X129252686Y-55049147D01*
X129442986Y-55087000D01*
X129637014Y-55087000D01*
X129827314Y-55049147D01*
X130006572Y-54974896D01*
X130167901Y-54867099D01*
X130268014Y-54766986D01*
X135921000Y-54766986D01*
X135921000Y-54961014D01*
X135958853Y-55151314D01*
X136033104Y-55330572D01*
X136140901Y-55491901D01*
X136278099Y-55629099D01*
X136439428Y-55736896D01*
X136618686Y-55811147D01*
X136808986Y-55849000D01*
X137003014Y-55849000D01*
X137193314Y-55811147D01*
X137372572Y-55736896D01*
X137533901Y-55629099D01*
X137671099Y-55491901D01*
X137778896Y-55330572D01*
X137853147Y-55151314D01*
X137891000Y-54961014D01*
X137891000Y-54766986D01*
X137853147Y-54576686D01*
X137778896Y-54397428D01*
X137671099Y-54236099D01*
X137533901Y-54098901D01*
X137372572Y-53991104D01*
X137193314Y-53916853D01*
X137003014Y-53879000D01*
X136808986Y-53879000D01*
X136618686Y-53916853D01*
X136439428Y-53991104D01*
X136278099Y-54098901D01*
X136140901Y-54236099D01*
X136033104Y-54397428D01*
X135958853Y-54576686D01*
X135921000Y-54766986D01*
X130268014Y-54766986D01*
X130305099Y-54729901D01*
X130412896Y-54568572D01*
X130487147Y-54389314D01*
X130525000Y-54199014D01*
X130525000Y-54004986D01*
X130487147Y-53814686D01*
X130412896Y-53635428D01*
X130305099Y-53474099D01*
X130167901Y-53336901D01*
X130006572Y-53229104D01*
X129827314Y-53154853D01*
X129637014Y-53117000D01*
X129596341Y-53117000D01*
X129688039Y-53025302D01*
X129794000Y-52866719D01*
X129899961Y-53025302D01*
X130108698Y-53234039D01*
X130354147Y-53398042D01*
X130626875Y-53511010D01*
X130916401Y-53568600D01*
X131211599Y-53568600D01*
X131501125Y-53511010D01*
X131773853Y-53398042D01*
X132019302Y-53234039D01*
X132228039Y-53025302D01*
X132392042Y-52779853D01*
X132505010Y-52507125D01*
X132562600Y-52217599D01*
X132562600Y-51922401D01*
X132505010Y-51632875D01*
X132392042Y-51360147D01*
X132228039Y-51114698D01*
X132019302Y-50905961D01*
X131860719Y-50800000D01*
X132019302Y-50694039D01*
X132228039Y-50485302D01*
X132392042Y-50239853D01*
X132505010Y-49967125D01*
X132562600Y-49677599D01*
X132562600Y-49382401D01*
X132505010Y-49092875D01*
X132392042Y-48820147D01*
X132322454Y-48716000D01*
X137662178Y-48716000D01*
X137636815Y-48736815D01*
X137557463Y-48833506D01*
X137498498Y-48943820D01*
X137462188Y-49063518D01*
X137449928Y-49188000D01*
X137449928Y-50888000D01*
X137462188Y-51012482D01*
X137498498Y-51132180D01*
X137557463Y-51242494D01*
X137636815Y-51339185D01*
X137733506Y-51418537D01*
X137843820Y-51477502D01*
X137963518Y-51513812D01*
X138088000Y-51526072D01*
X139788000Y-51526072D01*
X139912482Y-51513812D01*
X140032180Y-51477502D01*
X140142494Y-51418537D01*
X140239185Y-51339185D01*
X140318537Y-51242494D01*
X140377502Y-51132180D01*
X140401966Y-51051534D01*
X140477731Y-51135588D01*
X140711080Y-51309641D01*
X140973901Y-51434825D01*
X141121110Y-51479476D01*
X141351000Y-51358155D01*
X141351000Y-50165000D01*
X141605000Y-50165000D01*
X141605000Y-51358155D01*
X141834890Y-51479476D01*
X141982099Y-51434825D01*
X142244920Y-51309641D01*
X142478269Y-51135588D01*
X142673178Y-50919355D01*
X142822157Y-50669252D01*
X142919481Y-50394891D01*
X142798814Y-50165000D01*
X141605000Y-50165000D01*
X141351000Y-50165000D01*
X141331000Y-50165000D01*
X141331000Y-49911000D01*
X141351000Y-49911000D01*
X141351000Y-49891000D01*
X141605000Y-49891000D01*
X141605000Y-49911000D01*
X142798814Y-49911000D01*
X142919481Y-49681109D01*
X142822157Y-49406748D01*
X142673178Y-49156645D01*
X142478269Y-48940412D01*
X142244920Y-48766359D01*
X142139192Y-48716000D01*
X143054000Y-48716000D01*
X143054000Y-61798556D01*
X142960482Y-61770188D01*
X142836000Y-61757928D01*
X142271750Y-61761000D01*
X142113000Y-61919750D01*
X142113000Y-63119000D01*
X142133000Y-63119000D01*
X142133000Y-63373000D01*
X142113000Y-63373000D01*
X142113000Y-63393000D01*
X141859000Y-63393000D01*
X141859000Y-63373000D01*
X140659750Y-63373000D01*
X140501000Y-63531750D01*
X140497928Y-64096000D01*
X140510188Y-64220482D01*
X140546498Y-64340180D01*
X140605463Y-64450494D01*
X140684815Y-64547185D01*
X140781506Y-64626537D01*
X140891820Y-64685502D01*
X140964380Y-64707513D01*
X140832525Y-64839368D01*
X140670010Y-65082589D01*
X140558068Y-65352842D01*
X140501000Y-65639740D01*
X140501000Y-65932260D01*
X140536113Y-66108785D01*
X140387292Y-66138388D01*
X140217132Y-66208870D01*
X140063993Y-66311194D01*
X139933759Y-66441428D01*
X139831435Y-66594567D01*
X139760953Y-66764727D01*
X139725021Y-66945367D01*
X139725021Y-67129545D01*
X139760953Y-67310185D01*
X139831435Y-67480345D01*
X139933759Y-67633484D01*
X140063993Y-67763718D01*
X140217132Y-67866042D01*
X140387292Y-67936524D01*
X140543210Y-67967538D01*
X140501000Y-68179740D01*
X140501000Y-68472260D01*
X140558068Y-68759158D01*
X140670010Y-69029411D01*
X140832525Y-69272632D01*
X141039368Y-69479475D01*
X141213760Y-69596000D01*
X141039368Y-69712525D01*
X140832525Y-69919368D01*
X140670010Y-70162589D01*
X140558068Y-70432842D01*
X140501000Y-70719740D01*
X140501000Y-71012260D01*
X140558068Y-71299158D01*
X140670010Y-71569411D01*
X140832525Y-71812632D01*
X141039368Y-72019475D01*
X141282589Y-72181990D01*
X141552842Y-72293932D01*
X141839740Y-72351000D01*
X142132260Y-72351000D01*
X142419158Y-72293932D01*
X142689411Y-72181990D01*
X142932632Y-72019475D01*
X143054001Y-71898106D01*
X143054001Y-89206000D01*
X106095444Y-89206000D01*
X106123812Y-89112482D01*
X106136072Y-88988000D01*
X106136072Y-87288000D01*
X106123812Y-87163518D01*
X106087502Y-87043820D01*
X106028537Y-86933506D01*
X105949185Y-86836815D01*
X105852494Y-86757463D01*
X105742180Y-86698498D01*
X105669620Y-86676487D01*
X105801475Y-86544632D01*
X105963990Y-86301411D01*
X106075932Y-86031158D01*
X106133000Y-85744260D01*
X106133000Y-85500986D01*
X132111000Y-85500986D01*
X132111000Y-85695014D01*
X132148853Y-85885314D01*
X132223104Y-86064572D01*
X132330901Y-86225901D01*
X132468099Y-86363099D01*
X132629428Y-86470896D01*
X132808686Y-86545147D01*
X132998986Y-86583000D01*
X133193014Y-86583000D01*
X133383314Y-86545147D01*
X133562572Y-86470896D01*
X133723901Y-86363099D01*
X133861099Y-86225901D01*
X133968896Y-86064572D01*
X134043147Y-85885314D01*
X134081000Y-85695014D01*
X134081000Y-85500986D01*
X134043147Y-85310686D01*
X133968896Y-85131428D01*
X133861099Y-84970099D01*
X133723901Y-84832901D01*
X133562572Y-84725104D01*
X133383314Y-84650853D01*
X133193014Y-84613000D01*
X132998986Y-84613000D01*
X132808686Y-84650853D01*
X132629428Y-84725104D01*
X132468099Y-84832901D01*
X132330901Y-84970099D01*
X132223104Y-85131428D01*
X132148853Y-85310686D01*
X132111000Y-85500986D01*
X106133000Y-85500986D01*
X106133000Y-85451740D01*
X106075932Y-85164842D01*
X105963990Y-84894589D01*
X105801475Y-84651368D01*
X105594632Y-84444525D01*
X105420240Y-84328000D01*
X105594632Y-84211475D01*
X105801475Y-84004632D01*
X105963990Y-83761411D01*
X106075932Y-83491158D01*
X106130866Y-83214986D01*
X137953000Y-83214986D01*
X137953000Y-83409014D01*
X137990853Y-83599314D01*
X138065104Y-83778572D01*
X138172901Y-83939901D01*
X138310099Y-84077099D01*
X138471428Y-84184896D01*
X138650686Y-84259147D01*
X138840986Y-84297000D01*
X139035014Y-84297000D01*
X139225314Y-84259147D01*
X139404572Y-84184896D01*
X139565901Y-84077099D01*
X139703099Y-83939901D01*
X139810896Y-83778572D01*
X139885147Y-83599314D01*
X139923000Y-83409014D01*
X139923000Y-83214986D01*
X139885147Y-83024686D01*
X139810896Y-82845428D01*
X139703099Y-82684099D01*
X139565901Y-82546901D01*
X139404572Y-82439104D01*
X139225314Y-82364853D01*
X139035014Y-82327000D01*
X138840986Y-82327000D01*
X138650686Y-82364853D01*
X138471428Y-82439104D01*
X138310099Y-82546901D01*
X138172901Y-82684099D01*
X138065104Y-82845428D01*
X137990853Y-83024686D01*
X137953000Y-83214986D01*
X106130866Y-83214986D01*
X106133000Y-83204260D01*
X106133000Y-82911740D01*
X106075932Y-82624842D01*
X105963990Y-82354589D01*
X105801475Y-82111368D01*
X105594632Y-81904525D01*
X105420240Y-81788000D01*
X105594632Y-81671475D01*
X105801475Y-81464632D01*
X105963990Y-81221411D01*
X106075932Y-80951158D01*
X106133000Y-80664260D01*
X106133000Y-80371740D01*
X106075932Y-80084842D01*
X105963990Y-79814589D01*
X105801475Y-79571368D01*
X105594632Y-79364525D01*
X105420240Y-79248000D01*
X105594632Y-79131475D01*
X105801475Y-78924632D01*
X105963990Y-78681411D01*
X106075932Y-78411158D01*
X106133000Y-78124260D01*
X106133000Y-77831740D01*
X106075932Y-77544842D01*
X105963990Y-77274589D01*
X105801475Y-77031368D01*
X105594632Y-76824525D01*
X105420240Y-76708000D01*
X105594632Y-76591475D01*
X105801475Y-76384632D01*
X105963990Y-76141411D01*
X105976172Y-76112000D01*
X112303928Y-76112000D01*
X112303928Y-77812000D01*
X112316188Y-77936482D01*
X112352498Y-78056180D01*
X112411463Y-78166494D01*
X112490815Y-78263185D01*
X112587506Y-78342537D01*
X112697820Y-78401502D01*
X112770380Y-78423513D01*
X112638525Y-78555368D01*
X112476010Y-78798589D01*
X112364068Y-79068842D01*
X112307000Y-79355740D01*
X112307000Y-79648260D01*
X112364068Y-79935158D01*
X112476010Y-80205411D01*
X112638525Y-80448632D01*
X112845368Y-80655475D01*
X113088589Y-80817990D01*
X113358842Y-80929932D01*
X113645740Y-80987000D01*
X113938260Y-80987000D01*
X114225158Y-80929932D01*
X114495411Y-80817990D01*
X114738632Y-80655475D01*
X114945475Y-80448632D01*
X115062000Y-80274240D01*
X115178525Y-80448632D01*
X115385368Y-80655475D01*
X115628589Y-80817990D01*
X115898842Y-80929932D01*
X116185740Y-80987000D01*
X116478260Y-80987000D01*
X116765158Y-80929932D01*
X117035411Y-80817990D01*
X117278632Y-80655475D01*
X117485475Y-80448632D01*
X117602000Y-80274240D01*
X117718525Y-80448632D01*
X117925368Y-80655475D01*
X118168589Y-80817990D01*
X118438842Y-80929932D01*
X118725740Y-80987000D01*
X119018260Y-80987000D01*
X119305158Y-80929932D01*
X119575411Y-80817990D01*
X119818632Y-80655475D01*
X120025475Y-80448632D01*
X120142000Y-80274240D01*
X120258525Y-80448632D01*
X120465368Y-80655475D01*
X120708589Y-80817990D01*
X120978842Y-80929932D01*
X121265740Y-80987000D01*
X121558260Y-80987000D01*
X121845158Y-80929932D01*
X122115411Y-80817990D01*
X122358632Y-80655475D01*
X122565475Y-80448632D01*
X122682000Y-80274240D01*
X122798525Y-80448632D01*
X123005368Y-80655475D01*
X123248589Y-80817990D01*
X123518842Y-80929932D01*
X123805740Y-80987000D01*
X124098260Y-80987000D01*
X124385158Y-80929932D01*
X124655411Y-80817990D01*
X124898632Y-80655475D01*
X125105475Y-80448632D01*
X125227195Y-80266466D01*
X125296822Y-80383355D01*
X125491731Y-80599588D01*
X125725080Y-80773641D01*
X125987901Y-80898825D01*
X126135110Y-80943476D01*
X126365000Y-80822155D01*
X126365000Y-79629000D01*
X126619000Y-79629000D01*
X126619000Y-80822155D01*
X126848890Y-80943476D01*
X126996099Y-80898825D01*
X127258920Y-80773641D01*
X127492269Y-80599588D01*
X127687178Y-80383355D01*
X127836157Y-80133252D01*
X127933481Y-79858891D01*
X127812814Y-79629000D01*
X126619000Y-79629000D01*
X126365000Y-79629000D01*
X126345000Y-79629000D01*
X126345000Y-79375000D01*
X126365000Y-79375000D01*
X126365000Y-77089000D01*
X126619000Y-77089000D01*
X126619000Y-79375000D01*
X127812814Y-79375000D01*
X127933481Y-79145109D01*
X127836157Y-78870748D01*
X127687178Y-78620645D01*
X127492269Y-78404412D01*
X127261120Y-78232000D01*
X127492269Y-78059588D01*
X127687178Y-77843355D01*
X127836157Y-77593252D01*
X127933481Y-77318891D01*
X127812814Y-77089000D01*
X126619000Y-77089000D01*
X126365000Y-77089000D01*
X126345000Y-77089000D01*
X126345000Y-76835000D01*
X126365000Y-76835000D01*
X126365000Y-75641845D01*
X126619000Y-75641845D01*
X126619000Y-76835000D01*
X127812814Y-76835000D01*
X127933481Y-76605109D01*
X127836157Y-76330748D01*
X127687178Y-76080645D01*
X127492269Y-75864412D01*
X127258920Y-75690359D01*
X126996099Y-75565175D01*
X126848890Y-75520524D01*
X126619000Y-75641845D01*
X126365000Y-75641845D01*
X126135110Y-75520524D01*
X125987901Y-75565175D01*
X125725080Y-75690359D01*
X125491731Y-75864412D01*
X125296822Y-76080645D01*
X125227195Y-76197534D01*
X125105475Y-76015368D01*
X124898632Y-75808525D01*
X124655411Y-75646010D01*
X124385158Y-75534068D01*
X124098260Y-75477000D01*
X123805740Y-75477000D01*
X123518842Y-75534068D01*
X123248589Y-75646010D01*
X123005368Y-75808525D01*
X122798525Y-76015368D01*
X122682000Y-76189760D01*
X122565475Y-76015368D01*
X122358632Y-75808525D01*
X122115411Y-75646010D01*
X121845158Y-75534068D01*
X121558260Y-75477000D01*
X121265740Y-75477000D01*
X120978842Y-75534068D01*
X120708589Y-75646010D01*
X120465368Y-75808525D01*
X120258525Y-76015368D01*
X120142000Y-76189760D01*
X120025475Y-76015368D01*
X119818632Y-75808525D01*
X119575411Y-75646010D01*
X119305158Y-75534068D01*
X119018260Y-75477000D01*
X118725740Y-75477000D01*
X118438842Y-75534068D01*
X118168589Y-75646010D01*
X117925368Y-75808525D01*
X117718525Y-76015368D01*
X117602000Y-76189760D01*
X117485475Y-76015368D01*
X117278632Y-75808525D01*
X117035411Y-75646010D01*
X116765158Y-75534068D01*
X116478260Y-75477000D01*
X116185740Y-75477000D01*
X115898842Y-75534068D01*
X115628589Y-75646010D01*
X115385368Y-75808525D01*
X115253513Y-75940380D01*
X115231502Y-75867820D01*
X115172537Y-75757506D01*
X115093185Y-75660815D01*
X114996494Y-75581463D01*
X114886180Y-75522498D01*
X114766482Y-75486188D01*
X114642000Y-75473928D01*
X112942000Y-75473928D01*
X112817518Y-75486188D01*
X112697820Y-75522498D01*
X112587506Y-75581463D01*
X112490815Y-75660815D01*
X112411463Y-75757506D01*
X112352498Y-75867820D01*
X112316188Y-75987518D01*
X112303928Y-76112000D01*
X105976172Y-76112000D01*
X106075932Y-75871158D01*
X106133000Y-75584260D01*
X106133000Y-75291740D01*
X106075932Y-75004842D01*
X105963990Y-74734589D01*
X105801475Y-74491368D01*
X105752319Y-74442212D01*
X129421000Y-74442212D01*
X129421000Y-74665788D01*
X129464617Y-74885067D01*
X129550176Y-75091624D01*
X129674388Y-75277520D01*
X129832480Y-75435612D01*
X129934830Y-75504000D01*
X129832480Y-75572388D01*
X129674388Y-75730480D01*
X129550176Y-75916376D01*
X129464617Y-76122933D01*
X129421000Y-76342212D01*
X129421000Y-76565788D01*
X129464617Y-76785067D01*
X129550176Y-76991624D01*
X129674388Y-77177520D01*
X129832480Y-77335612D01*
X130018376Y-77459824D01*
X130224933Y-77545383D01*
X130444212Y-77589000D01*
X130667788Y-77589000D01*
X130887067Y-77545383D01*
X131093624Y-77459824D01*
X131279520Y-77335612D01*
X131437612Y-77177520D01*
X131561824Y-76991624D01*
X131647383Y-76785067D01*
X131691000Y-76565788D01*
X131691000Y-76342212D01*
X131647383Y-76122933D01*
X131561824Y-75916376D01*
X131437612Y-75730480D01*
X131279520Y-75572388D01*
X131177170Y-75504000D01*
X131279520Y-75435612D01*
X131437612Y-75277520D01*
X131561824Y-75091624D01*
X131647383Y-74885067D01*
X131691000Y-74665788D01*
X131691000Y-74442212D01*
X131647383Y-74222933D01*
X131561824Y-74016376D01*
X131437612Y-73830480D01*
X131279520Y-73672388D01*
X131093624Y-73548176D01*
X130887067Y-73462617D01*
X130667788Y-73419000D01*
X130444212Y-73419000D01*
X130224933Y-73462617D01*
X130018376Y-73548176D01*
X129832480Y-73672388D01*
X129674388Y-73830480D01*
X129550176Y-74016376D01*
X129464617Y-74222933D01*
X129421000Y-74442212D01*
X105752319Y-74442212D01*
X105594632Y-74284525D01*
X105412466Y-74162805D01*
X105529355Y-74093178D01*
X105745588Y-73898269D01*
X105919641Y-73664920D01*
X106044825Y-73402099D01*
X106082523Y-73277810D01*
X131475077Y-73277810D01*
X131475077Y-73471838D01*
X131512930Y-73662138D01*
X131587181Y-73841396D01*
X131694978Y-74002725D01*
X131832176Y-74139923D01*
X131993505Y-74247720D01*
X132172763Y-74321971D01*
X132363063Y-74359824D01*
X132557091Y-74359824D01*
X132747391Y-74321971D01*
X132926649Y-74247720D01*
X133087978Y-74139923D01*
X133225176Y-74002725D01*
X133332973Y-73841396D01*
X133407224Y-73662138D01*
X133431760Y-73538786D01*
X133909865Y-73538786D01*
X133909865Y-73722964D01*
X133945797Y-73903604D01*
X134016279Y-74073764D01*
X134118603Y-74226903D01*
X134248837Y-74357137D01*
X134401976Y-74459461D01*
X134572136Y-74529943D01*
X134752776Y-74565875D01*
X134936954Y-74565875D01*
X135117594Y-74529943D01*
X135164305Y-74510595D01*
X135293972Y-74640262D01*
X135447111Y-74742586D01*
X135617271Y-74813068D01*
X135797911Y-74849000D01*
X135982089Y-74849000D01*
X136162729Y-74813068D01*
X136332889Y-74742586D01*
X136486028Y-74640262D01*
X136616262Y-74510028D01*
X136718586Y-74356889D01*
X136789068Y-74186729D01*
X136825000Y-74006089D01*
X136825000Y-73943092D01*
X136947428Y-74024896D01*
X137126686Y-74099147D01*
X137316986Y-74137000D01*
X137511014Y-74137000D01*
X137564213Y-74126418D01*
X137547772Y-74166111D01*
X137511840Y-74346751D01*
X137511840Y-74530929D01*
X137547772Y-74711569D01*
X137618254Y-74881729D01*
X137650118Y-74929416D01*
X137551393Y-74949054D01*
X137381233Y-75019536D01*
X137228094Y-75121860D01*
X137097860Y-75252094D01*
X136995536Y-75405233D01*
X136925054Y-75575393D01*
X136889122Y-75756033D01*
X136889122Y-75940211D01*
X136925054Y-76120851D01*
X136995536Y-76291011D01*
X137097860Y-76444150D01*
X137228094Y-76574384D01*
X137381233Y-76676708D01*
X137551393Y-76747190D01*
X137732033Y-76783122D01*
X137916211Y-76783122D01*
X138096851Y-76747190D01*
X138267011Y-76676708D01*
X138420150Y-76574384D01*
X138550384Y-76444150D01*
X138652708Y-76291011D01*
X138723190Y-76120851D01*
X138759122Y-75940211D01*
X138759122Y-75756033D01*
X138723190Y-75575393D01*
X138652708Y-75405233D01*
X138620844Y-75357546D01*
X138719569Y-75337908D01*
X138889729Y-75267426D01*
X139042868Y-75165102D01*
X139173102Y-75034868D01*
X139275426Y-74881729D01*
X139345908Y-74711569D01*
X139381840Y-74530929D01*
X139381840Y-74346751D01*
X139345908Y-74166111D01*
X139275426Y-73995951D01*
X139173102Y-73842812D01*
X139042868Y-73712578D01*
X138889729Y-73610254D01*
X138719569Y-73539772D01*
X138538929Y-73503840D01*
X138354751Y-73503840D01*
X138332594Y-73508247D01*
X138361147Y-73439314D01*
X138399000Y-73249014D01*
X138399000Y-73054986D01*
X138361147Y-72864686D01*
X138286896Y-72685428D01*
X138179099Y-72524099D01*
X138041901Y-72386901D01*
X137880572Y-72279104D01*
X137701314Y-72204853D01*
X137511014Y-72167000D01*
X137316986Y-72167000D01*
X137126686Y-72204853D01*
X136947428Y-72279104D01*
X136786099Y-72386901D01*
X136648901Y-72524099D01*
X136541104Y-72685428D01*
X136466853Y-72864686D01*
X136429000Y-73054986D01*
X136429000Y-73149633D01*
X136332889Y-73085414D01*
X136162729Y-73014932D01*
X135982089Y-72979000D01*
X135797911Y-72979000D01*
X135617271Y-73014932D01*
X135570560Y-73034280D01*
X135440893Y-72904613D01*
X135287754Y-72802289D01*
X135117594Y-72731807D01*
X134936954Y-72695875D01*
X134752776Y-72695875D01*
X134572136Y-72731807D01*
X134401976Y-72802289D01*
X134248837Y-72904613D01*
X134118603Y-73034847D01*
X134016279Y-73187986D01*
X133945797Y-73358146D01*
X133909865Y-73538786D01*
X133431760Y-73538786D01*
X133445077Y-73471838D01*
X133445077Y-73277810D01*
X133407224Y-73087510D01*
X133332973Y-72908252D01*
X133225176Y-72746923D01*
X133087978Y-72609725D01*
X132926649Y-72501928D01*
X132747391Y-72427677D01*
X132557091Y-72389824D01*
X132363063Y-72389824D01*
X132172763Y-72427677D01*
X131993505Y-72501928D01*
X131832176Y-72609725D01*
X131694978Y-72746923D01*
X131587181Y-72908252D01*
X131512930Y-73087510D01*
X131475077Y-73277810D01*
X106082523Y-73277810D01*
X106089476Y-73254890D01*
X105968155Y-73025000D01*
X104775000Y-73025000D01*
X104775000Y-73045000D01*
X104521000Y-73045000D01*
X104521000Y-73025000D01*
X104501000Y-73025000D01*
X104501000Y-72771000D01*
X104521000Y-72771000D01*
X104521000Y-71577186D01*
X104775000Y-71577186D01*
X104775000Y-72771000D01*
X105968155Y-72771000D01*
X106089476Y-72541110D01*
X106044825Y-72393901D01*
X105919641Y-72131080D01*
X105745588Y-71897731D01*
X105529355Y-71702822D01*
X105279252Y-71553843D01*
X105228701Y-71535911D01*
X111587000Y-71535911D01*
X111587000Y-71720089D01*
X111622932Y-71900729D01*
X111693414Y-72070889D01*
X111795738Y-72224028D01*
X111925972Y-72354262D01*
X112079111Y-72456586D01*
X112249271Y-72527068D01*
X112429911Y-72563000D01*
X112614089Y-72563000D01*
X112794729Y-72527068D01*
X112964889Y-72456586D01*
X113118028Y-72354262D01*
X113248262Y-72224028D01*
X113350586Y-72070889D01*
X113421068Y-71900729D01*
X113457000Y-71720089D01*
X113457000Y-71535911D01*
X113421068Y-71355271D01*
X113360532Y-71209121D01*
X127576611Y-71209121D01*
X127576611Y-71403149D01*
X127614464Y-71593449D01*
X127688715Y-71772707D01*
X127796512Y-71934036D01*
X127933710Y-72071234D01*
X128095039Y-72179031D01*
X128274297Y-72253282D01*
X128464597Y-72291135D01*
X128658625Y-72291135D01*
X128848925Y-72253282D01*
X129028183Y-72179031D01*
X129189512Y-72071234D01*
X129326710Y-71934036D01*
X129434507Y-71772707D01*
X129508758Y-71593449D01*
X129546611Y-71403149D01*
X129546611Y-71209121D01*
X129508758Y-71018821D01*
X129434507Y-70839563D01*
X129326710Y-70678234D01*
X129189512Y-70541036D01*
X129028183Y-70433239D01*
X128848925Y-70358988D01*
X128658625Y-70321135D01*
X128464597Y-70321135D01*
X128274297Y-70358988D01*
X128095039Y-70433239D01*
X127933710Y-70541036D01*
X127796512Y-70678234D01*
X127688715Y-70839563D01*
X127614464Y-71018821D01*
X127576611Y-71209121D01*
X113360532Y-71209121D01*
X113350586Y-71185111D01*
X113248262Y-71031972D01*
X113118028Y-70901738D01*
X112964889Y-70799414D01*
X112794729Y-70728932D01*
X112614089Y-70693000D01*
X112429911Y-70693000D01*
X112249271Y-70728932D01*
X112079111Y-70799414D01*
X111925972Y-70901738D01*
X111795738Y-71031972D01*
X111693414Y-71185111D01*
X111622932Y-71355271D01*
X111587000Y-71535911D01*
X105228701Y-71535911D01*
X105004891Y-71456519D01*
X104775000Y-71577186D01*
X104521000Y-71577186D01*
X104291109Y-71456519D01*
X104016748Y-71553843D01*
X103834000Y-71662701D01*
X103834000Y-69015492D01*
X103927450Y-69155349D01*
X104259651Y-69487550D01*
X104650279Y-69748560D01*
X105084321Y-69928346D01*
X105545098Y-70020000D01*
X106014902Y-70020000D01*
X106475679Y-69928346D01*
X106909721Y-69748560D01*
X107300349Y-69487550D01*
X107537988Y-69249911D01*
X111587000Y-69249911D01*
X111587000Y-69434089D01*
X111622932Y-69614729D01*
X111693414Y-69784889D01*
X111795738Y-69938028D01*
X111925972Y-70068262D01*
X112079111Y-70170586D01*
X112249271Y-70241068D01*
X112429911Y-70277000D01*
X112614089Y-70277000D01*
X112794729Y-70241068D01*
X112964889Y-70170586D01*
X113118028Y-70068262D01*
X113248262Y-69938028D01*
X113350586Y-69784889D01*
X113421068Y-69614729D01*
X113457000Y-69434089D01*
X113457000Y-69249911D01*
X113421068Y-69069271D01*
X113350586Y-68899111D01*
X113248262Y-68745972D01*
X113118028Y-68615738D01*
X113116791Y-68614911D01*
X125049000Y-68614911D01*
X125049000Y-68799089D01*
X125084932Y-68979729D01*
X125155414Y-69149889D01*
X125257738Y-69303028D01*
X125387972Y-69433262D01*
X125541111Y-69535586D01*
X125711271Y-69606068D01*
X125891911Y-69642000D01*
X126076089Y-69642000D01*
X126256729Y-69606068D01*
X126426889Y-69535586D01*
X126481664Y-69498986D01*
X134651000Y-69498986D01*
X134651000Y-69693014D01*
X134688853Y-69883314D01*
X134763104Y-70062572D01*
X134870901Y-70223901D01*
X135008099Y-70361099D01*
X135169428Y-70468896D01*
X135348686Y-70543147D01*
X135538986Y-70581000D01*
X135733014Y-70581000D01*
X135923314Y-70543147D01*
X136102572Y-70468896D01*
X136263901Y-70361099D01*
X136401099Y-70223901D01*
X136508896Y-70062572D01*
X136583147Y-69883314D01*
X136621000Y-69693014D01*
X136621000Y-69498986D01*
X136583147Y-69308686D01*
X136508896Y-69129428D01*
X136401099Y-68968099D01*
X136263901Y-68830901D01*
X136102572Y-68723104D01*
X135923314Y-68648853D01*
X135733014Y-68611000D01*
X135538986Y-68611000D01*
X135348686Y-68648853D01*
X135169428Y-68723104D01*
X135008099Y-68830901D01*
X134870901Y-68968099D01*
X134763104Y-69129428D01*
X134688853Y-69308686D01*
X134651000Y-69498986D01*
X126481664Y-69498986D01*
X126580028Y-69433262D01*
X126710262Y-69303028D01*
X126812586Y-69149889D01*
X126883068Y-68979729D01*
X126919000Y-68799089D01*
X126919000Y-68614911D01*
X126883068Y-68434271D01*
X126812586Y-68264111D01*
X126710262Y-68110972D01*
X126580028Y-67980738D01*
X126426889Y-67878414D01*
X126256729Y-67807932D01*
X126076089Y-67772000D01*
X125891911Y-67772000D01*
X125711271Y-67807932D01*
X125541111Y-67878414D01*
X125387972Y-67980738D01*
X125257738Y-68110972D01*
X125155414Y-68264111D01*
X125084932Y-68434271D01*
X125049000Y-68614911D01*
X113116791Y-68614911D01*
X112964889Y-68513414D01*
X112794729Y-68442932D01*
X112614089Y-68407000D01*
X112429911Y-68407000D01*
X112249271Y-68442932D01*
X112079111Y-68513414D01*
X111925972Y-68615738D01*
X111795738Y-68745972D01*
X111693414Y-68899111D01*
X111622932Y-69069271D01*
X111587000Y-69249911D01*
X107537988Y-69249911D01*
X107632550Y-69155349D01*
X107893560Y-68764721D01*
X108073346Y-68330679D01*
X108165000Y-67869902D01*
X108165000Y-67471911D01*
X127081000Y-67471911D01*
X127081000Y-67656089D01*
X127116932Y-67836729D01*
X127187414Y-68006889D01*
X127289738Y-68160028D01*
X127419972Y-68290262D01*
X127573111Y-68392586D01*
X127743271Y-68463068D01*
X127923911Y-68499000D01*
X128108089Y-68499000D01*
X128288729Y-68463068D01*
X128458889Y-68392586D01*
X128612028Y-68290262D01*
X128742262Y-68160028D01*
X128844586Y-68006889D01*
X128915068Y-67836729D01*
X128951000Y-67656089D01*
X128951000Y-67471911D01*
X128915068Y-67291271D01*
X128844586Y-67121111D01*
X128774606Y-67016377D01*
X134387502Y-67016377D01*
X134387502Y-67200555D01*
X134423434Y-67381195D01*
X134493916Y-67551355D01*
X134596240Y-67704494D01*
X134726474Y-67834728D01*
X134879613Y-67937052D01*
X135049773Y-68007534D01*
X135230413Y-68043466D01*
X135414591Y-68043466D01*
X135595231Y-68007534D01*
X135765391Y-67937052D01*
X135918530Y-67834728D01*
X136048764Y-67704494D01*
X136151088Y-67551355D01*
X136204388Y-67422678D01*
X136309972Y-67528262D01*
X136463111Y-67630586D01*
X136633271Y-67701068D01*
X136813911Y-67737000D01*
X136998089Y-67737000D01*
X137178729Y-67701068D01*
X137330350Y-67638265D01*
X137433395Y-67680947D01*
X137614035Y-67716879D01*
X137798213Y-67716879D01*
X137978853Y-67680947D01*
X138149013Y-67610465D01*
X138302152Y-67508141D01*
X138432386Y-67377907D01*
X138534710Y-67224768D01*
X138605192Y-67054608D01*
X138641124Y-66873968D01*
X138641124Y-66689790D01*
X138605192Y-66509150D01*
X138534710Y-66338990D01*
X138432386Y-66185851D01*
X138302152Y-66055617D01*
X138149013Y-65953293D01*
X137978853Y-65882811D01*
X137798213Y-65846879D01*
X137614035Y-65846879D01*
X137433395Y-65882811D01*
X137281774Y-65945614D01*
X137178729Y-65902932D01*
X136998089Y-65867000D01*
X136813911Y-65867000D01*
X136731926Y-65883308D01*
X136718586Y-65851101D01*
X136616262Y-65697962D01*
X136486028Y-65567728D01*
X136332889Y-65465404D01*
X136162729Y-65394922D01*
X135982089Y-65358990D01*
X135797911Y-65358990D01*
X135617271Y-65394922D01*
X135447111Y-65465404D01*
X135293972Y-65567728D01*
X135163738Y-65697962D01*
X135061414Y-65851101D01*
X134990932Y-66021261D01*
X134955000Y-66201901D01*
X134955000Y-66248654D01*
X134879613Y-66279880D01*
X134726474Y-66382204D01*
X134596240Y-66512438D01*
X134493916Y-66665577D01*
X134423434Y-66835737D01*
X134387502Y-67016377D01*
X128774606Y-67016377D01*
X128742262Y-66967972D01*
X128612028Y-66837738D01*
X128458889Y-66735414D01*
X128288729Y-66664932D01*
X128108089Y-66629000D01*
X127923911Y-66629000D01*
X127743271Y-66664932D01*
X127573111Y-66735414D01*
X127419972Y-66837738D01*
X127289738Y-66967972D01*
X127187414Y-67121111D01*
X127116932Y-67291271D01*
X127081000Y-67471911D01*
X108165000Y-67471911D01*
X108165000Y-67400098D01*
X108073346Y-66939321D01*
X107893560Y-66505279D01*
X107632550Y-66114651D01*
X107300349Y-65782450D01*
X106909721Y-65521440D01*
X106712893Y-65439911D01*
X121239000Y-65439911D01*
X121239000Y-65624089D01*
X121274932Y-65804729D01*
X121345414Y-65974889D01*
X121447738Y-66128028D01*
X121577972Y-66258262D01*
X121731111Y-66360586D01*
X121901271Y-66431068D01*
X122081911Y-66467000D01*
X122266089Y-66467000D01*
X122446729Y-66431068D01*
X122616889Y-66360586D01*
X122770028Y-66258262D01*
X122900262Y-66128028D01*
X123002586Y-65974889D01*
X123073068Y-65804729D01*
X123109000Y-65624089D01*
X123109000Y-65439911D01*
X123073841Y-65263159D01*
X123193099Y-65143901D01*
X123300896Y-64982572D01*
X123375147Y-64803314D01*
X123413000Y-64613014D01*
X123413000Y-64418986D01*
X123375147Y-64228686D01*
X123300896Y-64049428D01*
X123193099Y-63888099D01*
X123055901Y-63750901D01*
X123014144Y-63723000D01*
X123033014Y-63723000D01*
X123223314Y-63685147D01*
X123402572Y-63610896D01*
X123563901Y-63503099D01*
X123701099Y-63365901D01*
X123808896Y-63204572D01*
X123883147Y-63025314D01*
X123921000Y-62835014D01*
X123921000Y-62640986D01*
X123883147Y-62450686D01*
X123817381Y-62291911D01*
X125567772Y-62291911D01*
X125567772Y-62476089D01*
X125603704Y-62656729D01*
X125674186Y-62826889D01*
X125776510Y-62980028D01*
X125906744Y-63110262D01*
X126059883Y-63212586D01*
X126230043Y-63283068D01*
X126410683Y-63319000D01*
X126594861Y-63319000D01*
X126775501Y-63283068D01*
X126945661Y-63212586D01*
X127098800Y-63110262D01*
X127229034Y-62980028D01*
X127331358Y-62826889D01*
X127401840Y-62656729D01*
X127404787Y-62641911D01*
X128097006Y-62641911D01*
X128097006Y-62826089D01*
X128132938Y-63006729D01*
X128203420Y-63176889D01*
X128305744Y-63330028D01*
X128435978Y-63460262D01*
X128589117Y-63562586D01*
X128759277Y-63633068D01*
X128939917Y-63669000D01*
X129124095Y-63669000D01*
X129304735Y-63633068D01*
X129474895Y-63562586D01*
X129628034Y-63460262D01*
X129758268Y-63330028D01*
X129860592Y-63176889D01*
X129931074Y-63006729D01*
X129967006Y-62826089D01*
X129967006Y-62641911D01*
X129931074Y-62461271D01*
X129873788Y-62322967D01*
X130191000Y-62322967D01*
X130191000Y-62645033D01*
X130253832Y-62960912D01*
X130377082Y-63258463D01*
X130556013Y-63526252D01*
X130783748Y-63753987D01*
X131051537Y-63932918D01*
X131349088Y-64056168D01*
X131664967Y-64119000D01*
X131987033Y-64119000D01*
X132302912Y-64056168D01*
X132600463Y-63932918D01*
X132868252Y-63753987D01*
X133095987Y-63526252D01*
X133274918Y-63258463D01*
X133398168Y-62960912D01*
X133458262Y-62658794D01*
X136842987Y-62658794D01*
X136842987Y-62842972D01*
X136878919Y-63023612D01*
X136949401Y-63193772D01*
X137051725Y-63346911D01*
X137181959Y-63477145D01*
X137335098Y-63579469D01*
X137340534Y-63581721D01*
X137276932Y-63735271D01*
X137241000Y-63915911D01*
X137241000Y-64100089D01*
X137276932Y-64280729D01*
X137347414Y-64450889D01*
X137449738Y-64604028D01*
X137579972Y-64734262D01*
X137733111Y-64836586D01*
X137903271Y-64907068D01*
X138083911Y-64943000D01*
X138268089Y-64943000D01*
X138448729Y-64907068D01*
X138618889Y-64836586D01*
X138713239Y-64773544D01*
X138769689Y-64858028D01*
X138899923Y-64988262D01*
X139053062Y-65090586D01*
X139223222Y-65161068D01*
X139403862Y-65197000D01*
X139588040Y-65197000D01*
X139768680Y-65161068D01*
X139938840Y-65090586D01*
X140091979Y-64988262D01*
X140222213Y-64858028D01*
X140324537Y-64704889D01*
X140395019Y-64534729D01*
X140430951Y-64354089D01*
X140430951Y-64169911D01*
X140395019Y-63989271D01*
X140324537Y-63819111D01*
X140222213Y-63665972D01*
X140091979Y-63535738D01*
X139938840Y-63433414D01*
X139792335Y-63372730D01*
X139837068Y-63264735D01*
X139873000Y-63084095D01*
X139873000Y-62899917D01*
X139845597Y-62762156D01*
X139929544Y-62727384D01*
X140082683Y-62625060D01*
X140212917Y-62494826D01*
X140278950Y-62396000D01*
X140497928Y-62396000D01*
X140501000Y-62960250D01*
X140659750Y-63119000D01*
X141859000Y-63119000D01*
X141859000Y-61919750D01*
X141700250Y-61761000D01*
X141136000Y-61757928D01*
X141011518Y-61770188D01*
X140891820Y-61806498D01*
X140781506Y-61865463D01*
X140684815Y-61944815D01*
X140605463Y-62041506D01*
X140546498Y-62151820D01*
X140510188Y-62271518D01*
X140497928Y-62396000D01*
X140278950Y-62396000D01*
X140315241Y-62341687D01*
X140385723Y-62171527D01*
X140421655Y-61990887D01*
X140421655Y-61806709D01*
X140385723Y-61626069D01*
X140315241Y-61455909D01*
X140212917Y-61302770D01*
X140082683Y-61172536D01*
X139929544Y-61070212D01*
X139759384Y-60999730D01*
X139578744Y-60963798D01*
X139394566Y-60963798D01*
X139213926Y-60999730D01*
X139043766Y-61070212D01*
X138890627Y-61172536D01*
X138809260Y-61253903D01*
X138690852Y-61174785D01*
X138543600Y-61113792D01*
X138619909Y-60999587D01*
X138690391Y-60829427D01*
X138707260Y-60744622D01*
X138749111Y-60772586D01*
X138919271Y-60843068D01*
X139099911Y-60879000D01*
X139284089Y-60879000D01*
X139464729Y-60843068D01*
X139634889Y-60772586D01*
X139788028Y-60670262D01*
X139918262Y-60540028D01*
X140020586Y-60386889D01*
X140091068Y-60216729D01*
X140127000Y-60036089D01*
X140127000Y-59851911D01*
X140091068Y-59671271D01*
X140020586Y-59501111D01*
X139918262Y-59347972D01*
X139868252Y-59297962D01*
X139873000Y-59274095D01*
X139873000Y-59089917D01*
X139837068Y-58909277D01*
X139788489Y-58791997D01*
X139837068Y-58674716D01*
X139873000Y-58494076D01*
X139873000Y-58309898D01*
X139837068Y-58129258D01*
X139766586Y-57959098D01*
X139664262Y-57805959D01*
X139534028Y-57675725D01*
X139380889Y-57573401D01*
X139210729Y-57502919D01*
X139030089Y-57466987D01*
X138845911Y-57466987D01*
X138665271Y-57502919D01*
X138495111Y-57573401D01*
X138341972Y-57675725D01*
X138211738Y-57805959D01*
X138109414Y-57959098D01*
X138038932Y-58129258D01*
X138003000Y-58309898D01*
X138003000Y-58494076D01*
X138038932Y-58674716D01*
X138087511Y-58791996D01*
X138038932Y-58909277D01*
X138003000Y-59089917D01*
X138003000Y-59274095D01*
X138038932Y-59454735D01*
X138109414Y-59624895D01*
X138157016Y-59696137D01*
X138064052Y-59657630D01*
X137883412Y-59621698D01*
X137699234Y-59621698D01*
X137518594Y-59657630D01*
X137348434Y-59728112D01*
X137195295Y-59830436D01*
X137065061Y-59960670D01*
X136962737Y-60113809D01*
X136892255Y-60283969D01*
X136856323Y-60464609D01*
X136856323Y-60648787D01*
X136892255Y-60829427D01*
X136962737Y-60999587D01*
X137065061Y-61152726D01*
X137195295Y-61282960D01*
X137348434Y-61385284D01*
X137495686Y-61446277D01*
X137419377Y-61560482D01*
X137348895Y-61730642D01*
X137312963Y-61911282D01*
X137312963Y-61937087D01*
X137181959Y-62024621D01*
X137051725Y-62154855D01*
X136949401Y-62307994D01*
X136878919Y-62478154D01*
X136842987Y-62658794D01*
X133458262Y-62658794D01*
X133461000Y-62645033D01*
X133461000Y-62322967D01*
X133398168Y-62007088D01*
X133274918Y-61709537D01*
X133095987Y-61441748D01*
X132868252Y-61214013D01*
X132843154Y-61197243D01*
X133002046Y-61131428D01*
X133155185Y-61029104D01*
X133285419Y-60898870D01*
X133335387Y-60824087D01*
X133701820Y-60824087D01*
X133701820Y-61008265D01*
X133737752Y-61188905D01*
X133808234Y-61359065D01*
X133910558Y-61512204D01*
X134040792Y-61642438D01*
X134193931Y-61744762D01*
X134364091Y-61815244D01*
X134544731Y-61851176D01*
X134728909Y-61851176D01*
X134909549Y-61815244D01*
X135079709Y-61744762D01*
X135232848Y-61642438D01*
X135363082Y-61512204D01*
X135465406Y-61359065D01*
X135535888Y-61188905D01*
X135571820Y-61008265D01*
X135571820Y-60824087D01*
X135535888Y-60643447D01*
X135465406Y-60473287D01*
X135363082Y-60320148D01*
X135232848Y-60189914D01*
X135079709Y-60087590D01*
X134909549Y-60017108D01*
X134728909Y-59981176D01*
X134544731Y-59981176D01*
X134364091Y-60017108D01*
X134193931Y-60087590D01*
X134040792Y-60189914D01*
X133910558Y-60320148D01*
X133808234Y-60473287D01*
X133737752Y-60643447D01*
X133701820Y-60824087D01*
X133335387Y-60824087D01*
X133387743Y-60745731D01*
X133440460Y-60618459D01*
X133567732Y-60565742D01*
X133720871Y-60463418D01*
X133851105Y-60333184D01*
X133953429Y-60180045D01*
X134023911Y-60009885D01*
X134059843Y-59829245D01*
X134059843Y-59645067D01*
X134023911Y-59464427D01*
X133953429Y-59294267D01*
X133851105Y-59141128D01*
X133720871Y-59010894D01*
X133567732Y-58908570D01*
X133397572Y-58838088D01*
X133216932Y-58802156D01*
X133032754Y-58802156D01*
X132852114Y-58838088D01*
X132681954Y-58908570D01*
X132528815Y-59010894D01*
X132398581Y-59141128D01*
X132296257Y-59294267D01*
X132243540Y-59421539D01*
X132116268Y-59474256D01*
X131963129Y-59576580D01*
X131832895Y-59706814D01*
X131730571Y-59859953D01*
X131660089Y-60030113D01*
X131624157Y-60210753D01*
X131624157Y-60394931D01*
X131660089Y-60575571D01*
X131730571Y-60745731D01*
X131799573Y-60849000D01*
X131664967Y-60849000D01*
X131349088Y-60911832D01*
X131051537Y-61035082D01*
X130783748Y-61214013D01*
X130556013Y-61441748D01*
X130377082Y-61709537D01*
X130253832Y-62007088D01*
X130191000Y-62322967D01*
X129873788Y-62322967D01*
X129860592Y-62291111D01*
X129758268Y-62137972D01*
X129628034Y-62007738D01*
X129474895Y-61905414D01*
X129304735Y-61834932D01*
X129124095Y-61799000D01*
X128939917Y-61799000D01*
X128759277Y-61834932D01*
X128589117Y-61905414D01*
X128435978Y-62007738D01*
X128305744Y-62137972D01*
X128203420Y-62291111D01*
X128132938Y-62461271D01*
X128097006Y-62641911D01*
X127404787Y-62641911D01*
X127437772Y-62476089D01*
X127437772Y-62291911D01*
X127401840Y-62111271D01*
X127331358Y-61941111D01*
X127229034Y-61787972D01*
X127098800Y-61657738D01*
X126945661Y-61555414D01*
X126775501Y-61484932D01*
X126594861Y-61449000D01*
X126410683Y-61449000D01*
X126230043Y-61484932D01*
X126059883Y-61555414D01*
X125906744Y-61657738D01*
X125776510Y-61787972D01*
X125674186Y-61941111D01*
X125603704Y-62111271D01*
X125567772Y-62291911D01*
X123817381Y-62291911D01*
X123808896Y-62271428D01*
X123701099Y-62110099D01*
X123567000Y-61976000D01*
X123701099Y-61841901D01*
X123808896Y-61680572D01*
X123883147Y-61501314D01*
X123921000Y-61311014D01*
X123921000Y-61116986D01*
X123883147Y-60926686D01*
X123808896Y-60747428D01*
X123701099Y-60586099D01*
X123563901Y-60448901D01*
X123402572Y-60341104D01*
X123223314Y-60266853D01*
X123033014Y-60229000D01*
X122838986Y-60229000D01*
X122648686Y-60266853D01*
X122469428Y-60341104D01*
X122308099Y-60448901D01*
X122170901Y-60586099D01*
X122063104Y-60747428D01*
X121988853Y-60926686D01*
X121951000Y-61116986D01*
X121951000Y-61311014D01*
X121988853Y-61501314D01*
X122063104Y-61680572D01*
X122170901Y-61841901D01*
X122305000Y-61976000D01*
X122170901Y-62110099D01*
X122063104Y-62271428D01*
X121988853Y-62450686D01*
X121951000Y-62640986D01*
X121951000Y-62835014D01*
X121988853Y-63025314D01*
X122063104Y-63204572D01*
X122170901Y-63365901D01*
X122308099Y-63503099D01*
X122349856Y-63531000D01*
X122330986Y-63531000D01*
X122140686Y-63568853D01*
X121961428Y-63643104D01*
X121800099Y-63750901D01*
X121662901Y-63888099D01*
X121555104Y-64049428D01*
X121480853Y-64228686D01*
X121443000Y-64418986D01*
X121443000Y-64613014D01*
X121480853Y-64803314D01*
X121510008Y-64873702D01*
X121447738Y-64935972D01*
X121345414Y-65089111D01*
X121274932Y-65259271D01*
X121239000Y-65439911D01*
X106712893Y-65439911D01*
X106475679Y-65341654D01*
X106014902Y-65250000D01*
X105545098Y-65250000D01*
X105084321Y-65341654D01*
X104650279Y-65521440D01*
X104259651Y-65782450D01*
X103927450Y-66114651D01*
X103834000Y-66254508D01*
X103834000Y-60218740D01*
X107005000Y-60218740D01*
X107005000Y-60511260D01*
X107062068Y-60798158D01*
X107174010Y-61068411D01*
X107336525Y-61311632D01*
X107543368Y-61518475D01*
X107687828Y-61615000D01*
X107543368Y-61711525D01*
X107336525Y-61918368D01*
X107174010Y-62161589D01*
X107062068Y-62431842D01*
X107005000Y-62718740D01*
X107005000Y-63011260D01*
X107062068Y-63298158D01*
X107174010Y-63568411D01*
X107336525Y-63811632D01*
X107543368Y-64018475D01*
X107786589Y-64180990D01*
X108056842Y-64292932D01*
X108343740Y-64350000D01*
X108636260Y-64350000D01*
X108923158Y-64292932D01*
X109193411Y-64180990D01*
X109200822Y-64176038D01*
X109285506Y-64245537D01*
X109395820Y-64304502D01*
X109515518Y-64340812D01*
X109640000Y-64353072D01*
X111340000Y-64353072D01*
X111464482Y-64340812D01*
X111584180Y-64304502D01*
X111694494Y-64245537D01*
X111791185Y-64166185D01*
X111870537Y-64069494D01*
X111929502Y-63959180D01*
X111965812Y-63839482D01*
X111978072Y-63715000D01*
X111978072Y-63148986D01*
X119665000Y-63148986D01*
X119665000Y-63343014D01*
X119702853Y-63533314D01*
X119777104Y-63712572D01*
X119884901Y-63873901D01*
X120022099Y-64011099D01*
X120183428Y-64118896D01*
X120362686Y-64193147D01*
X120552986Y-64231000D01*
X120747014Y-64231000D01*
X120937314Y-64193147D01*
X121116572Y-64118896D01*
X121277901Y-64011099D01*
X121415099Y-63873901D01*
X121522896Y-63712572D01*
X121597147Y-63533314D01*
X121635000Y-63343014D01*
X121635000Y-63148986D01*
X121597147Y-62958686D01*
X121522896Y-62779428D01*
X121488506Y-62727960D01*
X121500028Y-62720262D01*
X121630262Y-62590028D01*
X121732586Y-62436889D01*
X121803068Y-62266729D01*
X121839000Y-62086089D01*
X121839000Y-61901911D01*
X121803068Y-61721271D01*
X121732586Y-61551111D01*
X121630262Y-61397972D01*
X121500028Y-61267738D01*
X121346889Y-61165414D01*
X121271926Y-61134364D01*
X121376262Y-61030028D01*
X121478586Y-60876889D01*
X121549068Y-60706729D01*
X121585000Y-60526089D01*
X121585000Y-60341911D01*
X121549068Y-60161271D01*
X121478586Y-59991111D01*
X121376262Y-59837972D01*
X121246028Y-59707738D01*
X121092889Y-59605414D01*
X120922729Y-59534932D01*
X120742089Y-59499000D01*
X120557911Y-59499000D01*
X120377271Y-59534932D01*
X120207111Y-59605414D01*
X120053972Y-59707738D01*
X119923738Y-59837972D01*
X119821414Y-59991111D01*
X119750932Y-60161271D01*
X119715000Y-60341911D01*
X119715000Y-60526089D01*
X119750932Y-60706729D01*
X119821414Y-60876889D01*
X119923738Y-61030028D01*
X120053972Y-61160262D01*
X120207111Y-61262586D01*
X120282074Y-61293636D01*
X120177738Y-61397972D01*
X120075414Y-61551111D01*
X120004932Y-61721271D01*
X119969000Y-61901911D01*
X119969000Y-62086089D01*
X120004932Y-62266729D01*
X120075414Y-62436889D01*
X120079289Y-62442688D01*
X120022099Y-62480901D01*
X119884901Y-62618099D01*
X119777104Y-62779428D01*
X119702853Y-62958686D01*
X119665000Y-63148986D01*
X111978072Y-63148986D01*
X111978072Y-62015000D01*
X111965812Y-61890518D01*
X111929502Y-61770820D01*
X111870537Y-61660506D01*
X111791185Y-61563815D01*
X111694494Y-61484463D01*
X111584180Y-61425498D01*
X111542310Y-61412797D01*
X111643475Y-61311632D01*
X111805990Y-61068411D01*
X111917932Y-60798158D01*
X111975000Y-60511260D01*
X111975000Y-60218740D01*
X111917932Y-59931842D01*
X111805990Y-59661589D01*
X111643475Y-59418368D01*
X111436632Y-59211525D01*
X111193411Y-59049010D01*
X110923158Y-58937068D01*
X110636260Y-58880000D01*
X110343740Y-58880000D01*
X110056842Y-58937068D01*
X109786589Y-59049010D01*
X109543368Y-59211525D01*
X109490000Y-59264893D01*
X109436632Y-59211525D01*
X109193411Y-59049010D01*
X108923158Y-58937068D01*
X108636260Y-58880000D01*
X108343740Y-58880000D01*
X108056842Y-58937068D01*
X107786589Y-59049010D01*
X107543368Y-59211525D01*
X107336525Y-59418368D01*
X107174010Y-59661589D01*
X107062068Y-59931842D01*
X107005000Y-60218740D01*
X103834000Y-60218740D01*
X103834000Y-56975492D01*
X103927450Y-57115349D01*
X104259651Y-57447550D01*
X104650279Y-57708560D01*
X105084321Y-57888346D01*
X105545098Y-57980000D01*
X106014902Y-57980000D01*
X106475679Y-57888346D01*
X106909721Y-57708560D01*
X107300349Y-57447550D01*
X107632550Y-57115349D01*
X107670928Y-57057911D01*
X121097000Y-57057911D01*
X121097000Y-57242089D01*
X121132932Y-57422729D01*
X121203414Y-57592889D01*
X121305738Y-57746028D01*
X121435972Y-57876262D01*
X121589111Y-57978586D01*
X121759271Y-58049068D01*
X121768711Y-58050946D01*
X121734853Y-58132686D01*
X121697000Y-58322986D01*
X121697000Y-58517014D01*
X121734853Y-58707314D01*
X121809104Y-58886572D01*
X121916901Y-59047901D01*
X122054099Y-59185099D01*
X122215428Y-59292896D01*
X122394686Y-59367147D01*
X122584986Y-59405000D01*
X122779014Y-59405000D01*
X122969314Y-59367147D01*
X123148572Y-59292896D01*
X123309901Y-59185099D01*
X123447099Y-59047901D01*
X123554896Y-58886572D01*
X123586857Y-58809411D01*
X126827000Y-58809411D01*
X126827000Y-58993589D01*
X126862932Y-59174229D01*
X126933414Y-59344389D01*
X127035738Y-59497528D01*
X127165972Y-59627762D01*
X127319111Y-59730086D01*
X127489271Y-59800568D01*
X127669911Y-59836500D01*
X127854089Y-59836500D01*
X128034729Y-59800568D01*
X128204889Y-59730086D01*
X128332129Y-59645067D01*
X128703157Y-59645067D01*
X128703157Y-59829245D01*
X128739089Y-60009885D01*
X128809571Y-60180045D01*
X128911895Y-60333184D01*
X129042129Y-60463418D01*
X129195268Y-60565742D01*
X129322540Y-60618459D01*
X129375257Y-60745731D01*
X129477581Y-60898870D01*
X129607815Y-61029104D01*
X129760954Y-61131428D01*
X129931114Y-61201910D01*
X130111754Y-61237842D01*
X130295932Y-61237842D01*
X130476572Y-61201910D01*
X130646732Y-61131428D01*
X130799871Y-61029104D01*
X130930105Y-60898870D01*
X131032429Y-60745731D01*
X131102911Y-60575571D01*
X131138843Y-60394931D01*
X131138843Y-60210753D01*
X131102911Y-60030113D01*
X131032429Y-59859953D01*
X130930105Y-59706814D01*
X130799871Y-59576580D01*
X130646732Y-59474256D01*
X130519460Y-59421539D01*
X130466743Y-59294267D01*
X130364419Y-59141128D01*
X130234185Y-59010894D01*
X130081046Y-58908570D01*
X129910886Y-58838088D01*
X129730246Y-58802156D01*
X129546068Y-58802156D01*
X129365428Y-58838088D01*
X129195268Y-58908570D01*
X129042129Y-59010894D01*
X128911895Y-59141128D01*
X128809571Y-59294267D01*
X128739089Y-59464427D01*
X128703157Y-59645067D01*
X128332129Y-59645067D01*
X128358028Y-59627762D01*
X128488262Y-59497528D01*
X128590586Y-59344389D01*
X128661068Y-59174229D01*
X128697000Y-58993589D01*
X128697000Y-58809411D01*
X128661068Y-58628771D01*
X128590586Y-58458611D01*
X128488262Y-58305472D01*
X128358028Y-58175238D01*
X128204889Y-58072914D01*
X128034729Y-58002432D01*
X127854089Y-57966500D01*
X127669911Y-57966500D01*
X127489271Y-58002432D01*
X127319111Y-58072914D01*
X127165972Y-58175238D01*
X127035738Y-58305472D01*
X126933414Y-58458611D01*
X126862932Y-58628771D01*
X126827000Y-58809411D01*
X123586857Y-58809411D01*
X123629147Y-58707314D01*
X123667000Y-58517014D01*
X123667000Y-58322986D01*
X123629147Y-58132686D01*
X123554896Y-57953428D01*
X123447099Y-57792099D01*
X123309901Y-57654901D01*
X123148572Y-57547104D01*
X122969314Y-57472853D01*
X122914798Y-57462009D01*
X122931068Y-57422729D01*
X122960529Y-57274619D01*
X123118349Y-57339990D01*
X123298989Y-57375922D01*
X123483167Y-57375922D01*
X123663807Y-57339990D01*
X123833967Y-57269508D01*
X123987106Y-57167184D01*
X124117340Y-57036950D01*
X124219664Y-56883811D01*
X124252759Y-56803911D01*
X130891000Y-56803911D01*
X130891000Y-56988089D01*
X130926932Y-57168729D01*
X130997414Y-57338889D01*
X131099738Y-57492028D01*
X131229972Y-57622262D01*
X131383111Y-57724586D01*
X131553271Y-57795068D01*
X131733911Y-57831000D01*
X131918089Y-57831000D01*
X132098729Y-57795068D01*
X132268889Y-57724586D01*
X132422028Y-57622262D01*
X132552262Y-57492028D01*
X132654586Y-57338889D01*
X132725068Y-57168729D01*
X132761000Y-56988089D01*
X132761000Y-56803911D01*
X132725068Y-56623271D01*
X132654586Y-56453111D01*
X132552262Y-56299972D01*
X132422028Y-56169738D01*
X132268889Y-56067414D01*
X132098729Y-55996932D01*
X131918089Y-55961000D01*
X131733911Y-55961000D01*
X131553271Y-55996932D01*
X131383111Y-56067414D01*
X131229972Y-56169738D01*
X131099738Y-56299972D01*
X130997414Y-56453111D01*
X130926932Y-56623271D01*
X130891000Y-56803911D01*
X124252759Y-56803911D01*
X124290146Y-56713651D01*
X124326078Y-56533011D01*
X124326078Y-56348833D01*
X124290146Y-56168193D01*
X124219664Y-55998033D01*
X124117340Y-55844894D01*
X123987106Y-55714660D01*
X123833967Y-55612336D01*
X123663807Y-55541854D01*
X123483167Y-55505922D01*
X123298989Y-55505922D01*
X123118349Y-55541854D01*
X122948189Y-55612336D01*
X122795050Y-55714660D01*
X122664816Y-55844894D01*
X122562492Y-55998033D01*
X122492010Y-56168193D01*
X122462549Y-56316303D01*
X122304729Y-56250932D01*
X122124089Y-56215000D01*
X121939911Y-56215000D01*
X121759271Y-56250932D01*
X121589111Y-56321414D01*
X121435972Y-56423738D01*
X121305738Y-56553972D01*
X121203414Y-56707111D01*
X121132932Y-56877271D01*
X121097000Y-57057911D01*
X107670928Y-57057911D01*
X107893560Y-56724721D01*
X108073346Y-56290679D01*
X108165000Y-55829902D01*
X108165000Y-55360098D01*
X108073346Y-54899321D01*
X107893560Y-54465279D01*
X107632550Y-54074651D01*
X107300349Y-53742450D01*
X106909721Y-53481440D01*
X106475679Y-53301654D01*
X106014902Y-53210000D01*
X105545098Y-53210000D01*
X105084321Y-53301654D01*
X104650279Y-53481440D01*
X104259651Y-53742450D01*
X103927450Y-54074651D01*
X103834000Y-54214508D01*
X103834000Y-50961911D01*
X116159000Y-50961911D01*
X116159000Y-51146089D01*
X116194932Y-51326729D01*
X116265414Y-51496889D01*
X116367738Y-51650028D01*
X116497972Y-51780262D01*
X116651111Y-51882586D01*
X116821271Y-51953068D01*
X117001911Y-51989000D01*
X117186089Y-51989000D01*
X117366729Y-51953068D01*
X117536889Y-51882586D01*
X117690028Y-51780262D01*
X117820262Y-51650028D01*
X117922586Y-51496889D01*
X117993068Y-51326729D01*
X118029000Y-51146089D01*
X118029000Y-50961911D01*
X117993068Y-50781271D01*
X117922586Y-50611111D01*
X117820262Y-50457972D01*
X117690028Y-50327738D01*
X117536889Y-50225414D01*
X117366729Y-50154932D01*
X117186089Y-50119000D01*
X117001911Y-50119000D01*
X116821271Y-50154932D01*
X116651111Y-50225414D01*
X116497972Y-50327738D01*
X116367738Y-50457972D01*
X116265414Y-50611111D01*
X116194932Y-50781271D01*
X116159000Y-50961911D01*
X103834000Y-50961911D01*
X103834000Y-48716000D01*
X119645546Y-48716000D01*
X119575958Y-48820147D01*
%TA.AperFunction,Conductor*%
D22*
G36*
X119575958Y-48820147D02*
G01*
X119462990Y-49092875D01*
X119405400Y-49382401D01*
X119405400Y-49677599D01*
X119462990Y-49967125D01*
X119575958Y-50239853D01*
X119739961Y-50485302D01*
X119854023Y-50599364D01*
X119796220Y-50616898D01*
X119685906Y-50675863D01*
X119589215Y-50755215D01*
X119509863Y-50851906D01*
X119450898Y-50962220D01*
X119414588Y-51081918D01*
X119402328Y-51206400D01*
X119402328Y-52933600D01*
X119414588Y-53058082D01*
X119450898Y-53177780D01*
X119509863Y-53288094D01*
X119589215Y-53384785D01*
X119685906Y-53464137D01*
X119796220Y-53523102D01*
X119915918Y-53559412D01*
X120040400Y-53571672D01*
X121767600Y-53571672D01*
X121892082Y-53559412D01*
X121927136Y-53548779D01*
X121853414Y-53659111D01*
X121782932Y-53829271D01*
X121747000Y-54009911D01*
X121747000Y-54194089D01*
X121782932Y-54374729D01*
X121853414Y-54544889D01*
X121955738Y-54698028D01*
X122085972Y-54828262D01*
X122239111Y-54930586D01*
X122409271Y-55001068D01*
X122589911Y-55037000D01*
X122774089Y-55037000D01*
X122954729Y-55001068D01*
X123124889Y-54930586D01*
X123278028Y-54828262D01*
X123408262Y-54698028D01*
X123510586Y-54544889D01*
X123581068Y-54374729D01*
X123617000Y-54194089D01*
X123617000Y-54009911D01*
X123581068Y-53829271D01*
X123510586Y-53659111D01*
X123450109Y-53568600D01*
X123591599Y-53568600D01*
X123881125Y-53511010D01*
X124153853Y-53398042D01*
X124399302Y-53234039D01*
X124608039Y-53025302D01*
X124714000Y-52866719D01*
X124819961Y-53025302D01*
X125028698Y-53234039D01*
X125274147Y-53398042D01*
X125338862Y-53424848D01*
X125257738Y-53505972D01*
X125155414Y-53659111D01*
X125084932Y-53829271D01*
X125049000Y-54009911D01*
X125049000Y-54194089D01*
X125084932Y-54374729D01*
X125155414Y-54544889D01*
X125257738Y-54698028D01*
X125387972Y-54828262D01*
X125541111Y-54930586D01*
X125711271Y-55001068D01*
X125891911Y-55037000D01*
X126076089Y-55037000D01*
X126256729Y-55001068D01*
X126426889Y-54930586D01*
X126580028Y-54828262D01*
X126595100Y-54813190D01*
X126608932Y-54882729D01*
X126679414Y-55052889D01*
X126781738Y-55206028D01*
X126911972Y-55336262D01*
X127065111Y-55438586D01*
X127235271Y-55509068D01*
X127415911Y-55545000D01*
X127600089Y-55545000D01*
X127780729Y-55509068D01*
X127950889Y-55438586D01*
X128104028Y-55336262D01*
X128234262Y-55206028D01*
X128336586Y-55052889D01*
X128407068Y-54882729D01*
X128443000Y-54702089D01*
X128443000Y-54517911D01*
X128407068Y-54337271D01*
X128336586Y-54167111D01*
X128234262Y-54013972D01*
X128104028Y-53883738D01*
X127950889Y-53781414D01*
X127780729Y-53710932D01*
X127600089Y-53675000D01*
X127415911Y-53675000D01*
X127235271Y-53710932D01*
X127065111Y-53781414D01*
X126911972Y-53883738D01*
X126896900Y-53898810D01*
X126883068Y-53829271D01*
X126812586Y-53659111D01*
X126710262Y-53505972D01*
X126629138Y-53424848D01*
X126693853Y-53398042D01*
X126939302Y-53234039D01*
X127148039Y-53025302D01*
X127254000Y-52866719D01*
X127359961Y-53025302D01*
X127568698Y-53234039D01*
X127814147Y-53398042D01*
X128086875Y-53511010D01*
X128376401Y-53568600D01*
X128671599Y-53568600D01*
X128717913Y-53559388D01*
X128667104Y-53635428D01*
X128592853Y-53814686D01*
X128555000Y-54004986D01*
X128555000Y-54199014D01*
X128592853Y-54389314D01*
X128667104Y-54568572D01*
X128774901Y-54729901D01*
X128912099Y-54867099D01*
X129073428Y-54974896D01*
X129252686Y-55049147D01*
X129442986Y-55087000D01*
X129637014Y-55087000D01*
X129827314Y-55049147D01*
X130006572Y-54974896D01*
X130167901Y-54867099D01*
X130268014Y-54766986D01*
X135921000Y-54766986D01*
X135921000Y-54961014D01*
X135958853Y-55151314D01*
X136033104Y-55330572D01*
X136140901Y-55491901D01*
X136278099Y-55629099D01*
X136439428Y-55736896D01*
X136618686Y-55811147D01*
X136808986Y-55849000D01*
X137003014Y-55849000D01*
X137193314Y-55811147D01*
X137372572Y-55736896D01*
X137533901Y-55629099D01*
X137671099Y-55491901D01*
X137778896Y-55330572D01*
X137853147Y-55151314D01*
X137891000Y-54961014D01*
X137891000Y-54766986D01*
X137853147Y-54576686D01*
X137778896Y-54397428D01*
X137671099Y-54236099D01*
X137533901Y-54098901D01*
X137372572Y-53991104D01*
X137193314Y-53916853D01*
X137003014Y-53879000D01*
X136808986Y-53879000D01*
X136618686Y-53916853D01*
X136439428Y-53991104D01*
X136278099Y-54098901D01*
X136140901Y-54236099D01*
X136033104Y-54397428D01*
X135958853Y-54576686D01*
X135921000Y-54766986D01*
X130268014Y-54766986D01*
X130305099Y-54729901D01*
X130412896Y-54568572D01*
X130487147Y-54389314D01*
X130525000Y-54199014D01*
X130525000Y-54004986D01*
X130487147Y-53814686D01*
X130412896Y-53635428D01*
X130305099Y-53474099D01*
X130167901Y-53336901D01*
X130006572Y-53229104D01*
X129827314Y-53154853D01*
X129637014Y-53117000D01*
X129596341Y-53117000D01*
X129688039Y-53025302D01*
X129794000Y-52866719D01*
X129899961Y-53025302D01*
X130108698Y-53234039D01*
X130354147Y-53398042D01*
X130626875Y-53511010D01*
X130916401Y-53568600D01*
X131211599Y-53568600D01*
X131501125Y-53511010D01*
X131773853Y-53398042D01*
X132019302Y-53234039D01*
X132228039Y-53025302D01*
X132392042Y-52779853D01*
X132505010Y-52507125D01*
X132562600Y-52217599D01*
X132562600Y-51922401D01*
X132505010Y-51632875D01*
X132392042Y-51360147D01*
X132228039Y-51114698D01*
X132019302Y-50905961D01*
X131860719Y-50800000D01*
X132019302Y-50694039D01*
X132228039Y-50485302D01*
X132392042Y-50239853D01*
X132505010Y-49967125D01*
X132562600Y-49677599D01*
X132562600Y-49382401D01*
X132505010Y-49092875D01*
X132392042Y-48820147D01*
X132322454Y-48716000D01*
X137662178Y-48716000D01*
X137636815Y-48736815D01*
X137557463Y-48833506D01*
X137498498Y-48943820D01*
X137462188Y-49063518D01*
X137449928Y-49188000D01*
X137449928Y-50888000D01*
X137462188Y-51012482D01*
X137498498Y-51132180D01*
X137557463Y-51242494D01*
X137636815Y-51339185D01*
X137733506Y-51418537D01*
X137843820Y-51477502D01*
X137963518Y-51513812D01*
X138088000Y-51526072D01*
X139788000Y-51526072D01*
X139912482Y-51513812D01*
X140032180Y-51477502D01*
X140142494Y-51418537D01*
X140239185Y-51339185D01*
X140318537Y-51242494D01*
X140377502Y-51132180D01*
X140401966Y-51051534D01*
X140477731Y-51135588D01*
X140711080Y-51309641D01*
X140973901Y-51434825D01*
X141121110Y-51479476D01*
X141351000Y-51358155D01*
X141351000Y-50165000D01*
X141605000Y-50165000D01*
X141605000Y-51358155D01*
X141834890Y-51479476D01*
X141982099Y-51434825D01*
X142244920Y-51309641D01*
X142478269Y-51135588D01*
X142673178Y-50919355D01*
X142822157Y-50669252D01*
X142919481Y-50394891D01*
X142798814Y-50165000D01*
X141605000Y-50165000D01*
X141351000Y-50165000D01*
X141331000Y-50165000D01*
X141331000Y-49911000D01*
X141351000Y-49911000D01*
X141351000Y-49891000D01*
X141605000Y-49891000D01*
X141605000Y-49911000D01*
X142798814Y-49911000D01*
X142919481Y-49681109D01*
X142822157Y-49406748D01*
X142673178Y-49156645D01*
X142478269Y-48940412D01*
X142244920Y-48766359D01*
X142139192Y-48716000D01*
X143054000Y-48716000D01*
X143054000Y-61798556D01*
X142960482Y-61770188D01*
X142836000Y-61757928D01*
X142271750Y-61761000D01*
X142113000Y-61919750D01*
X142113000Y-63119000D01*
X142133000Y-63119000D01*
X142133000Y-63373000D01*
X142113000Y-63373000D01*
X142113000Y-63393000D01*
X141859000Y-63393000D01*
X141859000Y-63373000D01*
X140659750Y-63373000D01*
X140501000Y-63531750D01*
X140497928Y-64096000D01*
X140510188Y-64220482D01*
X140546498Y-64340180D01*
X140605463Y-64450494D01*
X140684815Y-64547185D01*
X140781506Y-64626537D01*
X140891820Y-64685502D01*
X140964380Y-64707513D01*
X140832525Y-64839368D01*
X140670010Y-65082589D01*
X140558068Y-65352842D01*
X140501000Y-65639740D01*
X140501000Y-65932260D01*
X140536113Y-66108785D01*
X140387292Y-66138388D01*
X140217132Y-66208870D01*
X140063993Y-66311194D01*
X139933759Y-66441428D01*
X139831435Y-66594567D01*
X139760953Y-66764727D01*
X139725021Y-66945367D01*
X139725021Y-67129545D01*
X139760953Y-67310185D01*
X139831435Y-67480345D01*
X139933759Y-67633484D01*
X140063993Y-67763718D01*
X140217132Y-67866042D01*
X140387292Y-67936524D01*
X140543210Y-67967538D01*
X140501000Y-68179740D01*
X140501000Y-68472260D01*
X140558068Y-68759158D01*
X140670010Y-69029411D01*
X140832525Y-69272632D01*
X141039368Y-69479475D01*
X141213760Y-69596000D01*
X141039368Y-69712525D01*
X140832525Y-69919368D01*
X140670010Y-70162589D01*
X140558068Y-70432842D01*
X140501000Y-70719740D01*
X140501000Y-71012260D01*
X140558068Y-71299158D01*
X140670010Y-71569411D01*
X140832525Y-71812632D01*
X141039368Y-72019475D01*
X141282589Y-72181990D01*
X141552842Y-72293932D01*
X141839740Y-72351000D01*
X142132260Y-72351000D01*
X142419158Y-72293932D01*
X142689411Y-72181990D01*
X142932632Y-72019475D01*
X143054001Y-71898106D01*
X143054001Y-89206000D01*
X106095444Y-89206000D01*
X106123812Y-89112482D01*
X106136072Y-88988000D01*
X106136072Y-87288000D01*
X106123812Y-87163518D01*
X106087502Y-87043820D01*
X106028537Y-86933506D01*
X105949185Y-86836815D01*
X105852494Y-86757463D01*
X105742180Y-86698498D01*
X105669620Y-86676487D01*
X105801475Y-86544632D01*
X105963990Y-86301411D01*
X106075932Y-86031158D01*
X106133000Y-85744260D01*
X106133000Y-85500986D01*
X132111000Y-85500986D01*
X132111000Y-85695014D01*
X132148853Y-85885314D01*
X132223104Y-86064572D01*
X132330901Y-86225901D01*
X132468099Y-86363099D01*
X132629428Y-86470896D01*
X132808686Y-86545147D01*
X132998986Y-86583000D01*
X133193014Y-86583000D01*
X133383314Y-86545147D01*
X133562572Y-86470896D01*
X133723901Y-86363099D01*
X133861099Y-86225901D01*
X133968896Y-86064572D01*
X134043147Y-85885314D01*
X134081000Y-85695014D01*
X134081000Y-85500986D01*
X134043147Y-85310686D01*
X133968896Y-85131428D01*
X133861099Y-84970099D01*
X133723901Y-84832901D01*
X133562572Y-84725104D01*
X133383314Y-84650853D01*
X133193014Y-84613000D01*
X132998986Y-84613000D01*
X132808686Y-84650853D01*
X132629428Y-84725104D01*
X132468099Y-84832901D01*
X132330901Y-84970099D01*
X132223104Y-85131428D01*
X132148853Y-85310686D01*
X132111000Y-85500986D01*
X106133000Y-85500986D01*
X106133000Y-85451740D01*
X106075932Y-85164842D01*
X105963990Y-84894589D01*
X105801475Y-84651368D01*
X105594632Y-84444525D01*
X105420240Y-84328000D01*
X105594632Y-84211475D01*
X105801475Y-84004632D01*
X105963990Y-83761411D01*
X106075932Y-83491158D01*
X106130866Y-83214986D01*
X137953000Y-83214986D01*
X137953000Y-83409014D01*
X137990853Y-83599314D01*
X138065104Y-83778572D01*
X138172901Y-83939901D01*
X138310099Y-84077099D01*
X138471428Y-84184896D01*
X138650686Y-84259147D01*
X138840986Y-84297000D01*
X139035014Y-84297000D01*
X139225314Y-84259147D01*
X139404572Y-84184896D01*
X139565901Y-84077099D01*
X139703099Y-83939901D01*
X139810896Y-83778572D01*
X139885147Y-83599314D01*
X139923000Y-83409014D01*
X139923000Y-83214986D01*
X139885147Y-83024686D01*
X139810896Y-82845428D01*
X139703099Y-82684099D01*
X139565901Y-82546901D01*
X139404572Y-82439104D01*
X139225314Y-82364853D01*
X139035014Y-82327000D01*
X138840986Y-82327000D01*
X138650686Y-82364853D01*
X138471428Y-82439104D01*
X138310099Y-82546901D01*
X138172901Y-82684099D01*
X138065104Y-82845428D01*
X137990853Y-83024686D01*
X137953000Y-83214986D01*
X106130866Y-83214986D01*
X106133000Y-83204260D01*
X106133000Y-82911740D01*
X106075932Y-82624842D01*
X105963990Y-82354589D01*
X105801475Y-82111368D01*
X105594632Y-81904525D01*
X105420240Y-81788000D01*
X105594632Y-81671475D01*
X105801475Y-81464632D01*
X105963990Y-81221411D01*
X106075932Y-80951158D01*
X106133000Y-80664260D01*
X106133000Y-80371740D01*
X106075932Y-80084842D01*
X105963990Y-79814589D01*
X105801475Y-79571368D01*
X105594632Y-79364525D01*
X105420240Y-79248000D01*
X105594632Y-79131475D01*
X105801475Y-78924632D01*
X105963990Y-78681411D01*
X106075932Y-78411158D01*
X106133000Y-78124260D01*
X106133000Y-77831740D01*
X106075932Y-77544842D01*
X105963990Y-77274589D01*
X105801475Y-77031368D01*
X105594632Y-76824525D01*
X105420240Y-76708000D01*
X105594632Y-76591475D01*
X105801475Y-76384632D01*
X105963990Y-76141411D01*
X105976172Y-76112000D01*
X112303928Y-76112000D01*
X112303928Y-77812000D01*
X112316188Y-77936482D01*
X112352498Y-78056180D01*
X112411463Y-78166494D01*
X112490815Y-78263185D01*
X112587506Y-78342537D01*
X112697820Y-78401502D01*
X112770380Y-78423513D01*
X112638525Y-78555368D01*
X112476010Y-78798589D01*
X112364068Y-79068842D01*
X112307000Y-79355740D01*
X112307000Y-79648260D01*
X112364068Y-79935158D01*
X112476010Y-80205411D01*
X112638525Y-80448632D01*
X112845368Y-80655475D01*
X113088589Y-80817990D01*
X113358842Y-80929932D01*
X113645740Y-80987000D01*
X113938260Y-80987000D01*
X114225158Y-80929932D01*
X114495411Y-80817990D01*
X114738632Y-80655475D01*
X114945475Y-80448632D01*
X115062000Y-80274240D01*
X115178525Y-80448632D01*
X115385368Y-80655475D01*
X115628589Y-80817990D01*
X115898842Y-80929932D01*
X116185740Y-80987000D01*
X116478260Y-80987000D01*
X116765158Y-80929932D01*
X117035411Y-80817990D01*
X117278632Y-80655475D01*
X117485475Y-80448632D01*
X117602000Y-80274240D01*
X117718525Y-80448632D01*
X117925368Y-80655475D01*
X118168589Y-80817990D01*
X118438842Y-80929932D01*
X118725740Y-80987000D01*
X119018260Y-80987000D01*
X119305158Y-80929932D01*
X119575411Y-80817990D01*
X119818632Y-80655475D01*
X120025475Y-80448632D01*
X120142000Y-80274240D01*
X120258525Y-80448632D01*
X120465368Y-80655475D01*
X120708589Y-80817990D01*
X120978842Y-80929932D01*
X121265740Y-80987000D01*
X121558260Y-80987000D01*
X121845158Y-80929932D01*
X122115411Y-80817990D01*
X122358632Y-80655475D01*
X122565475Y-80448632D01*
X122682000Y-80274240D01*
X122798525Y-80448632D01*
X123005368Y-80655475D01*
X123248589Y-80817990D01*
X123518842Y-80929932D01*
X123805740Y-80987000D01*
X124098260Y-80987000D01*
X124385158Y-80929932D01*
X124655411Y-80817990D01*
X124898632Y-80655475D01*
X125105475Y-80448632D01*
X125227195Y-80266466D01*
X125296822Y-80383355D01*
X125491731Y-80599588D01*
X125725080Y-80773641D01*
X125987901Y-80898825D01*
X126135110Y-80943476D01*
X126365000Y-80822155D01*
X126365000Y-79629000D01*
X126619000Y-79629000D01*
X126619000Y-80822155D01*
X126848890Y-80943476D01*
X126996099Y-80898825D01*
X127258920Y-80773641D01*
X127492269Y-80599588D01*
X127687178Y-80383355D01*
X127836157Y-80133252D01*
X127933481Y-79858891D01*
X127812814Y-79629000D01*
X126619000Y-79629000D01*
X126365000Y-79629000D01*
X126345000Y-79629000D01*
X126345000Y-79375000D01*
X126365000Y-79375000D01*
X126365000Y-77089000D01*
X126619000Y-77089000D01*
X126619000Y-79375000D01*
X127812814Y-79375000D01*
X127933481Y-79145109D01*
X127836157Y-78870748D01*
X127687178Y-78620645D01*
X127492269Y-78404412D01*
X127261120Y-78232000D01*
X127492269Y-78059588D01*
X127687178Y-77843355D01*
X127836157Y-77593252D01*
X127933481Y-77318891D01*
X127812814Y-77089000D01*
X126619000Y-77089000D01*
X126365000Y-77089000D01*
X126345000Y-77089000D01*
X126345000Y-76835000D01*
X126365000Y-76835000D01*
X126365000Y-75641845D01*
X126619000Y-75641845D01*
X126619000Y-76835000D01*
X127812814Y-76835000D01*
X127933481Y-76605109D01*
X127836157Y-76330748D01*
X127687178Y-76080645D01*
X127492269Y-75864412D01*
X127258920Y-75690359D01*
X126996099Y-75565175D01*
X126848890Y-75520524D01*
X126619000Y-75641845D01*
X126365000Y-75641845D01*
X126135110Y-75520524D01*
X125987901Y-75565175D01*
X125725080Y-75690359D01*
X125491731Y-75864412D01*
X125296822Y-76080645D01*
X125227195Y-76197534D01*
X125105475Y-76015368D01*
X124898632Y-75808525D01*
X124655411Y-75646010D01*
X124385158Y-75534068D01*
X124098260Y-75477000D01*
X123805740Y-75477000D01*
X123518842Y-75534068D01*
X123248589Y-75646010D01*
X123005368Y-75808525D01*
X122798525Y-76015368D01*
X122682000Y-76189760D01*
X122565475Y-76015368D01*
X122358632Y-75808525D01*
X122115411Y-75646010D01*
X121845158Y-75534068D01*
X121558260Y-75477000D01*
X121265740Y-75477000D01*
X120978842Y-75534068D01*
X120708589Y-75646010D01*
X120465368Y-75808525D01*
X120258525Y-76015368D01*
X120142000Y-76189760D01*
X120025475Y-76015368D01*
X119818632Y-75808525D01*
X119575411Y-75646010D01*
X119305158Y-75534068D01*
X119018260Y-75477000D01*
X118725740Y-75477000D01*
X118438842Y-75534068D01*
X118168589Y-75646010D01*
X117925368Y-75808525D01*
X117718525Y-76015368D01*
X117602000Y-76189760D01*
X117485475Y-76015368D01*
X117278632Y-75808525D01*
X117035411Y-75646010D01*
X116765158Y-75534068D01*
X116478260Y-75477000D01*
X116185740Y-75477000D01*
X115898842Y-75534068D01*
X115628589Y-75646010D01*
X115385368Y-75808525D01*
X115253513Y-75940380D01*
X115231502Y-75867820D01*
X115172537Y-75757506D01*
X115093185Y-75660815D01*
X114996494Y-75581463D01*
X114886180Y-75522498D01*
X114766482Y-75486188D01*
X114642000Y-75473928D01*
X112942000Y-75473928D01*
X112817518Y-75486188D01*
X112697820Y-75522498D01*
X112587506Y-75581463D01*
X112490815Y-75660815D01*
X112411463Y-75757506D01*
X112352498Y-75867820D01*
X112316188Y-75987518D01*
X112303928Y-76112000D01*
X105976172Y-76112000D01*
X106075932Y-75871158D01*
X106133000Y-75584260D01*
X106133000Y-75291740D01*
X106075932Y-75004842D01*
X105963990Y-74734589D01*
X105801475Y-74491368D01*
X105752319Y-74442212D01*
X129421000Y-74442212D01*
X129421000Y-74665788D01*
X129464617Y-74885067D01*
X129550176Y-75091624D01*
X129674388Y-75277520D01*
X129832480Y-75435612D01*
X129934830Y-75504000D01*
X129832480Y-75572388D01*
X129674388Y-75730480D01*
X129550176Y-75916376D01*
X129464617Y-76122933D01*
X129421000Y-76342212D01*
X129421000Y-76565788D01*
X129464617Y-76785067D01*
X129550176Y-76991624D01*
X129674388Y-77177520D01*
X129832480Y-77335612D01*
X130018376Y-77459824D01*
X130224933Y-77545383D01*
X130444212Y-77589000D01*
X130667788Y-77589000D01*
X130887067Y-77545383D01*
X131093624Y-77459824D01*
X131279520Y-77335612D01*
X131437612Y-77177520D01*
X131561824Y-76991624D01*
X131647383Y-76785067D01*
X131691000Y-76565788D01*
X131691000Y-76342212D01*
X131647383Y-76122933D01*
X131561824Y-75916376D01*
X131437612Y-75730480D01*
X131279520Y-75572388D01*
X131177170Y-75504000D01*
X131279520Y-75435612D01*
X131437612Y-75277520D01*
X131561824Y-75091624D01*
X131647383Y-74885067D01*
X131691000Y-74665788D01*
X131691000Y-74442212D01*
X131647383Y-74222933D01*
X131561824Y-74016376D01*
X131437612Y-73830480D01*
X131279520Y-73672388D01*
X131093624Y-73548176D01*
X130887067Y-73462617D01*
X130667788Y-73419000D01*
X130444212Y-73419000D01*
X130224933Y-73462617D01*
X130018376Y-73548176D01*
X129832480Y-73672388D01*
X129674388Y-73830480D01*
X129550176Y-74016376D01*
X129464617Y-74222933D01*
X129421000Y-74442212D01*
X105752319Y-74442212D01*
X105594632Y-74284525D01*
X105412466Y-74162805D01*
X105529355Y-74093178D01*
X105745588Y-73898269D01*
X105919641Y-73664920D01*
X106044825Y-73402099D01*
X106082523Y-73277810D01*
X131475077Y-73277810D01*
X131475077Y-73471838D01*
X131512930Y-73662138D01*
X131587181Y-73841396D01*
X131694978Y-74002725D01*
X131832176Y-74139923D01*
X131993505Y-74247720D01*
X132172763Y-74321971D01*
X132363063Y-74359824D01*
X132557091Y-74359824D01*
X132747391Y-74321971D01*
X132926649Y-74247720D01*
X133087978Y-74139923D01*
X133225176Y-74002725D01*
X133332973Y-73841396D01*
X133407224Y-73662138D01*
X133431760Y-73538786D01*
X133909865Y-73538786D01*
X133909865Y-73722964D01*
X133945797Y-73903604D01*
X134016279Y-74073764D01*
X134118603Y-74226903D01*
X134248837Y-74357137D01*
X134401976Y-74459461D01*
X134572136Y-74529943D01*
X134752776Y-74565875D01*
X134936954Y-74565875D01*
X135117594Y-74529943D01*
X135164305Y-74510595D01*
X135293972Y-74640262D01*
X135447111Y-74742586D01*
X135617271Y-74813068D01*
X135797911Y-74849000D01*
X135982089Y-74849000D01*
X136162729Y-74813068D01*
X136332889Y-74742586D01*
X136486028Y-74640262D01*
X136616262Y-74510028D01*
X136718586Y-74356889D01*
X136789068Y-74186729D01*
X136825000Y-74006089D01*
X136825000Y-73943092D01*
X136947428Y-74024896D01*
X137126686Y-74099147D01*
X137316986Y-74137000D01*
X137511014Y-74137000D01*
X137564213Y-74126418D01*
X137547772Y-74166111D01*
X137511840Y-74346751D01*
X137511840Y-74530929D01*
X137547772Y-74711569D01*
X137618254Y-74881729D01*
X137650118Y-74929416D01*
X137551393Y-74949054D01*
X137381233Y-75019536D01*
X137228094Y-75121860D01*
X137097860Y-75252094D01*
X136995536Y-75405233D01*
X136925054Y-75575393D01*
X136889122Y-75756033D01*
X136889122Y-75940211D01*
X136925054Y-76120851D01*
X136995536Y-76291011D01*
X137097860Y-76444150D01*
X137228094Y-76574384D01*
X137381233Y-76676708D01*
X137551393Y-76747190D01*
X137732033Y-76783122D01*
X137916211Y-76783122D01*
X138096851Y-76747190D01*
X138267011Y-76676708D01*
X138420150Y-76574384D01*
X138550384Y-76444150D01*
X138652708Y-76291011D01*
X138723190Y-76120851D01*
X138759122Y-75940211D01*
X138759122Y-75756033D01*
X138723190Y-75575393D01*
X138652708Y-75405233D01*
X138620844Y-75357546D01*
X138719569Y-75337908D01*
X138889729Y-75267426D01*
X139042868Y-75165102D01*
X139173102Y-75034868D01*
X139275426Y-74881729D01*
X139345908Y-74711569D01*
X139381840Y-74530929D01*
X139381840Y-74346751D01*
X139345908Y-74166111D01*
X139275426Y-73995951D01*
X139173102Y-73842812D01*
X139042868Y-73712578D01*
X138889729Y-73610254D01*
X138719569Y-73539772D01*
X138538929Y-73503840D01*
X138354751Y-73503840D01*
X138332594Y-73508247D01*
X138361147Y-73439314D01*
X138399000Y-73249014D01*
X138399000Y-73054986D01*
X138361147Y-72864686D01*
X138286896Y-72685428D01*
X138179099Y-72524099D01*
X138041901Y-72386901D01*
X137880572Y-72279104D01*
X137701314Y-72204853D01*
X137511014Y-72167000D01*
X137316986Y-72167000D01*
X137126686Y-72204853D01*
X136947428Y-72279104D01*
X136786099Y-72386901D01*
X136648901Y-72524099D01*
X136541104Y-72685428D01*
X136466853Y-72864686D01*
X136429000Y-73054986D01*
X136429000Y-73149633D01*
X136332889Y-73085414D01*
X136162729Y-73014932D01*
X135982089Y-72979000D01*
X135797911Y-72979000D01*
X135617271Y-73014932D01*
X135570560Y-73034280D01*
X135440893Y-72904613D01*
X135287754Y-72802289D01*
X135117594Y-72731807D01*
X134936954Y-72695875D01*
X134752776Y-72695875D01*
X134572136Y-72731807D01*
X134401976Y-72802289D01*
X134248837Y-72904613D01*
X134118603Y-73034847D01*
X134016279Y-73187986D01*
X133945797Y-73358146D01*
X133909865Y-73538786D01*
X133431760Y-73538786D01*
X133445077Y-73471838D01*
X133445077Y-73277810D01*
X133407224Y-73087510D01*
X133332973Y-72908252D01*
X133225176Y-72746923D01*
X133087978Y-72609725D01*
X132926649Y-72501928D01*
X132747391Y-72427677D01*
X132557091Y-72389824D01*
X132363063Y-72389824D01*
X132172763Y-72427677D01*
X131993505Y-72501928D01*
X131832176Y-72609725D01*
X131694978Y-72746923D01*
X131587181Y-72908252D01*
X131512930Y-73087510D01*
X131475077Y-73277810D01*
X106082523Y-73277810D01*
X106089476Y-73254890D01*
X105968155Y-73025000D01*
X104775000Y-73025000D01*
X104775000Y-73045000D01*
X104521000Y-73045000D01*
X104521000Y-73025000D01*
X104501000Y-73025000D01*
X104501000Y-72771000D01*
X104521000Y-72771000D01*
X104521000Y-71577186D01*
X104775000Y-71577186D01*
X104775000Y-72771000D01*
X105968155Y-72771000D01*
X106089476Y-72541110D01*
X106044825Y-72393901D01*
X105919641Y-72131080D01*
X105745588Y-71897731D01*
X105529355Y-71702822D01*
X105279252Y-71553843D01*
X105228701Y-71535911D01*
X111587000Y-71535911D01*
X111587000Y-71720089D01*
X111622932Y-71900729D01*
X111693414Y-72070889D01*
X111795738Y-72224028D01*
X111925972Y-72354262D01*
X112079111Y-72456586D01*
X112249271Y-72527068D01*
X112429911Y-72563000D01*
X112614089Y-72563000D01*
X112794729Y-72527068D01*
X112964889Y-72456586D01*
X113118028Y-72354262D01*
X113248262Y-72224028D01*
X113350586Y-72070889D01*
X113421068Y-71900729D01*
X113457000Y-71720089D01*
X113457000Y-71535911D01*
X113421068Y-71355271D01*
X113360532Y-71209121D01*
X127576611Y-71209121D01*
X127576611Y-71403149D01*
X127614464Y-71593449D01*
X127688715Y-71772707D01*
X127796512Y-71934036D01*
X127933710Y-72071234D01*
X128095039Y-72179031D01*
X128274297Y-72253282D01*
X128464597Y-72291135D01*
X128658625Y-72291135D01*
X128848925Y-72253282D01*
X129028183Y-72179031D01*
X129189512Y-72071234D01*
X129326710Y-71934036D01*
X129434507Y-71772707D01*
X129508758Y-71593449D01*
X129546611Y-71403149D01*
X129546611Y-71209121D01*
X129508758Y-71018821D01*
X129434507Y-70839563D01*
X129326710Y-70678234D01*
X129189512Y-70541036D01*
X129028183Y-70433239D01*
X128848925Y-70358988D01*
X128658625Y-70321135D01*
X128464597Y-70321135D01*
X128274297Y-70358988D01*
X128095039Y-70433239D01*
X127933710Y-70541036D01*
X127796512Y-70678234D01*
X127688715Y-70839563D01*
X127614464Y-71018821D01*
X127576611Y-71209121D01*
X113360532Y-71209121D01*
X113350586Y-71185111D01*
X113248262Y-71031972D01*
X113118028Y-70901738D01*
X112964889Y-70799414D01*
X112794729Y-70728932D01*
X112614089Y-70693000D01*
X112429911Y-70693000D01*
X112249271Y-70728932D01*
X112079111Y-70799414D01*
X111925972Y-70901738D01*
X111795738Y-71031972D01*
X111693414Y-71185111D01*
X111622932Y-71355271D01*
X111587000Y-71535911D01*
X105228701Y-71535911D01*
X105004891Y-71456519D01*
X104775000Y-71577186D01*
X104521000Y-71577186D01*
X104291109Y-71456519D01*
X104016748Y-71553843D01*
X103834000Y-71662701D01*
X103834000Y-69015492D01*
X103927450Y-69155349D01*
X104259651Y-69487550D01*
X104650279Y-69748560D01*
X105084321Y-69928346D01*
X105545098Y-70020000D01*
X106014902Y-70020000D01*
X106475679Y-69928346D01*
X106909721Y-69748560D01*
X107300349Y-69487550D01*
X107537988Y-69249911D01*
X111587000Y-69249911D01*
X111587000Y-69434089D01*
X111622932Y-69614729D01*
X111693414Y-69784889D01*
X111795738Y-69938028D01*
X111925972Y-70068262D01*
X112079111Y-70170586D01*
X112249271Y-70241068D01*
X112429911Y-70277000D01*
X112614089Y-70277000D01*
X112794729Y-70241068D01*
X112964889Y-70170586D01*
X113118028Y-70068262D01*
X113248262Y-69938028D01*
X113350586Y-69784889D01*
X113421068Y-69614729D01*
X113457000Y-69434089D01*
X113457000Y-69249911D01*
X113421068Y-69069271D01*
X113350586Y-68899111D01*
X113248262Y-68745972D01*
X113118028Y-68615738D01*
X113116791Y-68614911D01*
X125049000Y-68614911D01*
X125049000Y-68799089D01*
X125084932Y-68979729D01*
X125155414Y-69149889D01*
X125257738Y-69303028D01*
X125387972Y-69433262D01*
X125541111Y-69535586D01*
X125711271Y-69606068D01*
X125891911Y-69642000D01*
X126076089Y-69642000D01*
X126256729Y-69606068D01*
X126426889Y-69535586D01*
X126481664Y-69498986D01*
X134651000Y-69498986D01*
X134651000Y-69693014D01*
X134688853Y-69883314D01*
X134763104Y-70062572D01*
X134870901Y-70223901D01*
X135008099Y-70361099D01*
X135169428Y-70468896D01*
X135348686Y-70543147D01*
X135538986Y-70581000D01*
X135733014Y-70581000D01*
X135923314Y-70543147D01*
X136102572Y-70468896D01*
X136263901Y-70361099D01*
X136401099Y-70223901D01*
X136508896Y-70062572D01*
X136583147Y-69883314D01*
X136621000Y-69693014D01*
X136621000Y-69498986D01*
X136583147Y-69308686D01*
X136508896Y-69129428D01*
X136401099Y-68968099D01*
X136263901Y-68830901D01*
X136102572Y-68723104D01*
X135923314Y-68648853D01*
X135733014Y-68611000D01*
X135538986Y-68611000D01*
X135348686Y-68648853D01*
X135169428Y-68723104D01*
X135008099Y-68830901D01*
X134870901Y-68968099D01*
X134763104Y-69129428D01*
X134688853Y-69308686D01*
X134651000Y-69498986D01*
X126481664Y-69498986D01*
X126580028Y-69433262D01*
X126710262Y-69303028D01*
X126812586Y-69149889D01*
X126883068Y-68979729D01*
X126919000Y-68799089D01*
X126919000Y-68614911D01*
X126883068Y-68434271D01*
X126812586Y-68264111D01*
X126710262Y-68110972D01*
X126580028Y-67980738D01*
X126426889Y-67878414D01*
X126256729Y-67807932D01*
X126076089Y-67772000D01*
X125891911Y-67772000D01*
X125711271Y-67807932D01*
X125541111Y-67878414D01*
X125387972Y-67980738D01*
X125257738Y-68110972D01*
X125155414Y-68264111D01*
X125084932Y-68434271D01*
X125049000Y-68614911D01*
X113116791Y-68614911D01*
X112964889Y-68513414D01*
X112794729Y-68442932D01*
X112614089Y-68407000D01*
X112429911Y-68407000D01*
X112249271Y-68442932D01*
X112079111Y-68513414D01*
X111925972Y-68615738D01*
X111795738Y-68745972D01*
X111693414Y-68899111D01*
X111622932Y-69069271D01*
X111587000Y-69249911D01*
X107537988Y-69249911D01*
X107632550Y-69155349D01*
X107893560Y-68764721D01*
X108073346Y-68330679D01*
X108165000Y-67869902D01*
X108165000Y-67471911D01*
X127081000Y-67471911D01*
X127081000Y-67656089D01*
X127116932Y-67836729D01*
X127187414Y-68006889D01*
X127289738Y-68160028D01*
X127419972Y-68290262D01*
X127573111Y-68392586D01*
X127743271Y-68463068D01*
X127923911Y-68499000D01*
X128108089Y-68499000D01*
X128288729Y-68463068D01*
X128458889Y-68392586D01*
X128612028Y-68290262D01*
X128742262Y-68160028D01*
X128844586Y-68006889D01*
X128915068Y-67836729D01*
X128951000Y-67656089D01*
X128951000Y-67471911D01*
X128915068Y-67291271D01*
X128844586Y-67121111D01*
X128774606Y-67016377D01*
X134387502Y-67016377D01*
X134387502Y-67200555D01*
X134423434Y-67381195D01*
X134493916Y-67551355D01*
X134596240Y-67704494D01*
X134726474Y-67834728D01*
X134879613Y-67937052D01*
X135049773Y-68007534D01*
X135230413Y-68043466D01*
X135414591Y-68043466D01*
X135595231Y-68007534D01*
X135765391Y-67937052D01*
X135918530Y-67834728D01*
X136048764Y-67704494D01*
X136151088Y-67551355D01*
X136204388Y-67422678D01*
X136309972Y-67528262D01*
X136463111Y-67630586D01*
X136633271Y-67701068D01*
X136813911Y-67737000D01*
X136998089Y-67737000D01*
X137178729Y-67701068D01*
X137330350Y-67638265D01*
X137433395Y-67680947D01*
X137614035Y-67716879D01*
X137798213Y-67716879D01*
X137978853Y-67680947D01*
X138149013Y-67610465D01*
X138302152Y-67508141D01*
X138432386Y-67377907D01*
X138534710Y-67224768D01*
X138605192Y-67054608D01*
X138641124Y-66873968D01*
X138641124Y-66689790D01*
X138605192Y-66509150D01*
X138534710Y-66338990D01*
X138432386Y-66185851D01*
X138302152Y-66055617D01*
X138149013Y-65953293D01*
X137978853Y-65882811D01*
X137798213Y-65846879D01*
X137614035Y-65846879D01*
X137433395Y-65882811D01*
X137281774Y-65945614D01*
X137178729Y-65902932D01*
X136998089Y-65867000D01*
X136813911Y-65867000D01*
X136731926Y-65883308D01*
X136718586Y-65851101D01*
X136616262Y-65697962D01*
X136486028Y-65567728D01*
X136332889Y-65465404D01*
X136162729Y-65394922D01*
X135982089Y-65358990D01*
X135797911Y-65358990D01*
X135617271Y-65394922D01*
X135447111Y-65465404D01*
X135293972Y-65567728D01*
X135163738Y-65697962D01*
X135061414Y-65851101D01*
X134990932Y-66021261D01*
X134955000Y-66201901D01*
X134955000Y-66248654D01*
X134879613Y-66279880D01*
X134726474Y-66382204D01*
X134596240Y-66512438D01*
X134493916Y-66665577D01*
X134423434Y-66835737D01*
X134387502Y-67016377D01*
X128774606Y-67016377D01*
X128742262Y-66967972D01*
X128612028Y-66837738D01*
X128458889Y-66735414D01*
X128288729Y-66664932D01*
X128108089Y-66629000D01*
X127923911Y-66629000D01*
X127743271Y-66664932D01*
X127573111Y-66735414D01*
X127419972Y-66837738D01*
X127289738Y-66967972D01*
X127187414Y-67121111D01*
X127116932Y-67291271D01*
X127081000Y-67471911D01*
X108165000Y-67471911D01*
X108165000Y-67400098D01*
X108073346Y-66939321D01*
X107893560Y-66505279D01*
X107632550Y-66114651D01*
X107300349Y-65782450D01*
X106909721Y-65521440D01*
X106712893Y-65439911D01*
X121239000Y-65439911D01*
X121239000Y-65624089D01*
X121274932Y-65804729D01*
X121345414Y-65974889D01*
X121447738Y-66128028D01*
X121577972Y-66258262D01*
X121731111Y-66360586D01*
X121901271Y-66431068D01*
X122081911Y-66467000D01*
X122266089Y-66467000D01*
X122446729Y-66431068D01*
X122616889Y-66360586D01*
X122770028Y-66258262D01*
X122900262Y-66128028D01*
X123002586Y-65974889D01*
X123073068Y-65804729D01*
X123109000Y-65624089D01*
X123109000Y-65439911D01*
X123073841Y-65263159D01*
X123193099Y-65143901D01*
X123300896Y-64982572D01*
X123375147Y-64803314D01*
X123413000Y-64613014D01*
X123413000Y-64418986D01*
X123375147Y-64228686D01*
X123300896Y-64049428D01*
X123193099Y-63888099D01*
X123055901Y-63750901D01*
X123014144Y-63723000D01*
X123033014Y-63723000D01*
X123223314Y-63685147D01*
X123402572Y-63610896D01*
X123563901Y-63503099D01*
X123701099Y-63365901D01*
X123808896Y-63204572D01*
X123883147Y-63025314D01*
X123921000Y-62835014D01*
X123921000Y-62640986D01*
X123883147Y-62450686D01*
X123817381Y-62291911D01*
X125567772Y-62291911D01*
X125567772Y-62476089D01*
X125603704Y-62656729D01*
X125674186Y-62826889D01*
X125776510Y-62980028D01*
X125906744Y-63110262D01*
X126059883Y-63212586D01*
X126230043Y-63283068D01*
X126410683Y-63319000D01*
X126594861Y-63319000D01*
X126775501Y-63283068D01*
X126945661Y-63212586D01*
X127098800Y-63110262D01*
X127229034Y-62980028D01*
X127331358Y-62826889D01*
X127401840Y-62656729D01*
X127404787Y-62641911D01*
X128097006Y-62641911D01*
X128097006Y-62826089D01*
X128132938Y-63006729D01*
X128203420Y-63176889D01*
X128305744Y-63330028D01*
X128435978Y-63460262D01*
X128589117Y-63562586D01*
X128759277Y-63633068D01*
X128939917Y-63669000D01*
X129124095Y-63669000D01*
X129304735Y-63633068D01*
X129474895Y-63562586D01*
X129628034Y-63460262D01*
X129758268Y-63330028D01*
X129860592Y-63176889D01*
X129931074Y-63006729D01*
X129967006Y-62826089D01*
X129967006Y-62641911D01*
X129931074Y-62461271D01*
X129873788Y-62322967D01*
X130191000Y-62322967D01*
X130191000Y-62645033D01*
X130253832Y-62960912D01*
X130377082Y-63258463D01*
X130556013Y-63526252D01*
X130783748Y-63753987D01*
X131051537Y-63932918D01*
X131349088Y-64056168D01*
X131664967Y-64119000D01*
X131987033Y-64119000D01*
X132302912Y-64056168D01*
X132600463Y-63932918D01*
X132868252Y-63753987D01*
X133095987Y-63526252D01*
X133274918Y-63258463D01*
X133398168Y-62960912D01*
X133458262Y-62658794D01*
X136842987Y-62658794D01*
X136842987Y-62842972D01*
X136878919Y-63023612D01*
X136949401Y-63193772D01*
X137051725Y-63346911D01*
X137181959Y-63477145D01*
X137335098Y-63579469D01*
X137340534Y-63581721D01*
X137276932Y-63735271D01*
X137241000Y-63915911D01*
X137241000Y-64100089D01*
X137276932Y-64280729D01*
X137347414Y-64450889D01*
X137449738Y-64604028D01*
X137579972Y-64734262D01*
X137733111Y-64836586D01*
X137903271Y-64907068D01*
X138083911Y-64943000D01*
X138268089Y-64943000D01*
X138448729Y-64907068D01*
X138618889Y-64836586D01*
X138713239Y-64773544D01*
X138769689Y-64858028D01*
X138899923Y-64988262D01*
X139053062Y-65090586D01*
X139223222Y-65161068D01*
X139403862Y-65197000D01*
X139588040Y-65197000D01*
X139768680Y-65161068D01*
X139938840Y-65090586D01*
X140091979Y-64988262D01*
X140222213Y-64858028D01*
X140324537Y-64704889D01*
X140395019Y-64534729D01*
X140430951Y-64354089D01*
X140430951Y-64169911D01*
X140395019Y-63989271D01*
X140324537Y-63819111D01*
X140222213Y-63665972D01*
X140091979Y-63535738D01*
X139938840Y-63433414D01*
X139792335Y-63372730D01*
X139837068Y-63264735D01*
X139873000Y-63084095D01*
X139873000Y-62899917D01*
X139845597Y-62762156D01*
X139929544Y-62727384D01*
X140082683Y-62625060D01*
X140212917Y-62494826D01*
X140278950Y-62396000D01*
X140497928Y-62396000D01*
X140501000Y-62960250D01*
X140659750Y-63119000D01*
X141859000Y-63119000D01*
X141859000Y-61919750D01*
X141700250Y-61761000D01*
X141136000Y-61757928D01*
X141011518Y-61770188D01*
X140891820Y-61806498D01*
X140781506Y-61865463D01*
X140684815Y-61944815D01*
X140605463Y-62041506D01*
X140546498Y-62151820D01*
X140510188Y-62271518D01*
X140497928Y-62396000D01*
X140278950Y-62396000D01*
X140315241Y-62341687D01*
X140385723Y-62171527D01*
X140421655Y-61990887D01*
X140421655Y-61806709D01*
X140385723Y-61626069D01*
X140315241Y-61455909D01*
X140212917Y-61302770D01*
X140082683Y-61172536D01*
X139929544Y-61070212D01*
X139759384Y-60999730D01*
X139578744Y-60963798D01*
X139394566Y-60963798D01*
X139213926Y-60999730D01*
X139043766Y-61070212D01*
X138890627Y-61172536D01*
X138809260Y-61253903D01*
X138690852Y-61174785D01*
X138543600Y-61113792D01*
X138619909Y-60999587D01*
X138690391Y-60829427D01*
X138707260Y-60744622D01*
X138749111Y-60772586D01*
X138919271Y-60843068D01*
X139099911Y-60879000D01*
X139284089Y-60879000D01*
X139464729Y-60843068D01*
X139634889Y-60772586D01*
X139788028Y-60670262D01*
X139918262Y-60540028D01*
X140020586Y-60386889D01*
X140091068Y-60216729D01*
X140127000Y-60036089D01*
X140127000Y-59851911D01*
X140091068Y-59671271D01*
X140020586Y-59501111D01*
X139918262Y-59347972D01*
X139868252Y-59297962D01*
X139873000Y-59274095D01*
X139873000Y-59089917D01*
X139837068Y-58909277D01*
X139788489Y-58791997D01*
X139837068Y-58674716D01*
X139873000Y-58494076D01*
X139873000Y-58309898D01*
X139837068Y-58129258D01*
X139766586Y-57959098D01*
X139664262Y-57805959D01*
X139534028Y-57675725D01*
X139380889Y-57573401D01*
X139210729Y-57502919D01*
X139030089Y-57466987D01*
X138845911Y-57466987D01*
X138665271Y-57502919D01*
X138495111Y-57573401D01*
X138341972Y-57675725D01*
X138211738Y-57805959D01*
X138109414Y-57959098D01*
X138038932Y-58129258D01*
X138003000Y-58309898D01*
X138003000Y-58494076D01*
X138038932Y-58674716D01*
X138087511Y-58791996D01*
X138038932Y-58909277D01*
X138003000Y-59089917D01*
X138003000Y-59274095D01*
X138038932Y-59454735D01*
X138109414Y-59624895D01*
X138157016Y-59696137D01*
X138064052Y-59657630D01*
X137883412Y-59621698D01*
X137699234Y-59621698D01*
X137518594Y-59657630D01*
X137348434Y-59728112D01*
X137195295Y-59830436D01*
X137065061Y-59960670D01*
X136962737Y-60113809D01*
X136892255Y-60283969D01*
X136856323Y-60464609D01*
X136856323Y-60648787D01*
X136892255Y-60829427D01*
X136962737Y-60999587D01*
X137065061Y-61152726D01*
X137195295Y-61282960D01*
X137348434Y-61385284D01*
X137495686Y-61446277D01*
X137419377Y-61560482D01*
X137348895Y-61730642D01*
X137312963Y-61911282D01*
X137312963Y-61937087D01*
X137181959Y-62024621D01*
X137051725Y-62154855D01*
X136949401Y-62307994D01*
X136878919Y-62478154D01*
X136842987Y-62658794D01*
X133458262Y-62658794D01*
X133461000Y-62645033D01*
X133461000Y-62322967D01*
X133398168Y-62007088D01*
X133274918Y-61709537D01*
X133095987Y-61441748D01*
X132868252Y-61214013D01*
X132843154Y-61197243D01*
X133002046Y-61131428D01*
X133155185Y-61029104D01*
X133285419Y-60898870D01*
X133335387Y-60824087D01*
X133701820Y-60824087D01*
X133701820Y-61008265D01*
X133737752Y-61188905D01*
X133808234Y-61359065D01*
X133910558Y-61512204D01*
X134040792Y-61642438D01*
X134193931Y-61744762D01*
X134364091Y-61815244D01*
X134544731Y-61851176D01*
X134728909Y-61851176D01*
X134909549Y-61815244D01*
X135079709Y-61744762D01*
X135232848Y-61642438D01*
X135363082Y-61512204D01*
X135465406Y-61359065D01*
X135535888Y-61188905D01*
X135571820Y-61008265D01*
X135571820Y-60824087D01*
X135535888Y-60643447D01*
X135465406Y-60473287D01*
X135363082Y-60320148D01*
X135232848Y-60189914D01*
X135079709Y-60087590D01*
X134909549Y-60017108D01*
X134728909Y-59981176D01*
X134544731Y-59981176D01*
X134364091Y-60017108D01*
X134193931Y-60087590D01*
X134040792Y-60189914D01*
X133910558Y-60320148D01*
X133808234Y-60473287D01*
X133737752Y-60643447D01*
X133701820Y-60824087D01*
X133335387Y-60824087D01*
X133387743Y-60745731D01*
X133440460Y-60618459D01*
X133567732Y-60565742D01*
X133720871Y-60463418D01*
X133851105Y-60333184D01*
X133953429Y-60180045D01*
X134023911Y-60009885D01*
X134059843Y-59829245D01*
X134059843Y-59645067D01*
X134023911Y-59464427D01*
X133953429Y-59294267D01*
X133851105Y-59141128D01*
X133720871Y-59010894D01*
X133567732Y-58908570D01*
X133397572Y-58838088D01*
X133216932Y-58802156D01*
X133032754Y-58802156D01*
X132852114Y-58838088D01*
X132681954Y-58908570D01*
X132528815Y-59010894D01*
X132398581Y-59141128D01*
X132296257Y-59294267D01*
X132243540Y-59421539D01*
X132116268Y-59474256D01*
X131963129Y-59576580D01*
X131832895Y-59706814D01*
X131730571Y-59859953D01*
X131660089Y-60030113D01*
X131624157Y-60210753D01*
X131624157Y-60394931D01*
X131660089Y-60575571D01*
X131730571Y-60745731D01*
X131799573Y-60849000D01*
X131664967Y-60849000D01*
X131349088Y-60911832D01*
X131051537Y-61035082D01*
X130783748Y-61214013D01*
X130556013Y-61441748D01*
X130377082Y-61709537D01*
X130253832Y-62007088D01*
X130191000Y-62322967D01*
X129873788Y-62322967D01*
X129860592Y-62291111D01*
X129758268Y-62137972D01*
X129628034Y-62007738D01*
X129474895Y-61905414D01*
X129304735Y-61834932D01*
X129124095Y-61799000D01*
X128939917Y-61799000D01*
X128759277Y-61834932D01*
X128589117Y-61905414D01*
X128435978Y-62007738D01*
X128305744Y-62137972D01*
X128203420Y-62291111D01*
X128132938Y-62461271D01*
X128097006Y-62641911D01*
X127404787Y-62641911D01*
X127437772Y-62476089D01*
X127437772Y-62291911D01*
X127401840Y-62111271D01*
X127331358Y-61941111D01*
X127229034Y-61787972D01*
X127098800Y-61657738D01*
X126945661Y-61555414D01*
X126775501Y-61484932D01*
X126594861Y-61449000D01*
X126410683Y-61449000D01*
X126230043Y-61484932D01*
X126059883Y-61555414D01*
X125906744Y-61657738D01*
X125776510Y-61787972D01*
X125674186Y-61941111D01*
X125603704Y-62111271D01*
X125567772Y-62291911D01*
X123817381Y-62291911D01*
X123808896Y-62271428D01*
X123701099Y-62110099D01*
X123567000Y-61976000D01*
X123701099Y-61841901D01*
X123808896Y-61680572D01*
X123883147Y-61501314D01*
X123921000Y-61311014D01*
X123921000Y-61116986D01*
X123883147Y-60926686D01*
X123808896Y-60747428D01*
X123701099Y-60586099D01*
X123563901Y-60448901D01*
X123402572Y-60341104D01*
X123223314Y-60266853D01*
X123033014Y-60229000D01*
X122838986Y-60229000D01*
X122648686Y-60266853D01*
X122469428Y-60341104D01*
X122308099Y-60448901D01*
X122170901Y-60586099D01*
X122063104Y-60747428D01*
X121988853Y-60926686D01*
X121951000Y-61116986D01*
X121951000Y-61311014D01*
X121988853Y-61501314D01*
X122063104Y-61680572D01*
X122170901Y-61841901D01*
X122305000Y-61976000D01*
X122170901Y-62110099D01*
X122063104Y-62271428D01*
X121988853Y-62450686D01*
X121951000Y-62640986D01*
X121951000Y-62835014D01*
X121988853Y-63025314D01*
X122063104Y-63204572D01*
X122170901Y-63365901D01*
X122308099Y-63503099D01*
X122349856Y-63531000D01*
X122330986Y-63531000D01*
X122140686Y-63568853D01*
X121961428Y-63643104D01*
X121800099Y-63750901D01*
X121662901Y-63888099D01*
X121555104Y-64049428D01*
X121480853Y-64228686D01*
X121443000Y-64418986D01*
X121443000Y-64613014D01*
X121480853Y-64803314D01*
X121510008Y-64873702D01*
X121447738Y-64935972D01*
X121345414Y-65089111D01*
X121274932Y-65259271D01*
X121239000Y-65439911D01*
X106712893Y-65439911D01*
X106475679Y-65341654D01*
X106014902Y-65250000D01*
X105545098Y-65250000D01*
X105084321Y-65341654D01*
X104650279Y-65521440D01*
X104259651Y-65782450D01*
X103927450Y-66114651D01*
X103834000Y-66254508D01*
X103834000Y-60218740D01*
X107005000Y-60218740D01*
X107005000Y-60511260D01*
X107062068Y-60798158D01*
X107174010Y-61068411D01*
X107336525Y-61311632D01*
X107543368Y-61518475D01*
X107687828Y-61615000D01*
X107543368Y-61711525D01*
X107336525Y-61918368D01*
X107174010Y-62161589D01*
X107062068Y-62431842D01*
X107005000Y-62718740D01*
X107005000Y-63011260D01*
X107062068Y-63298158D01*
X107174010Y-63568411D01*
X107336525Y-63811632D01*
X107543368Y-64018475D01*
X107786589Y-64180990D01*
X108056842Y-64292932D01*
X108343740Y-64350000D01*
X108636260Y-64350000D01*
X108923158Y-64292932D01*
X109193411Y-64180990D01*
X109200822Y-64176038D01*
X109285506Y-64245537D01*
X109395820Y-64304502D01*
X109515518Y-64340812D01*
X109640000Y-64353072D01*
X111340000Y-64353072D01*
X111464482Y-64340812D01*
X111584180Y-64304502D01*
X111694494Y-64245537D01*
X111791185Y-64166185D01*
X111870537Y-64069494D01*
X111929502Y-63959180D01*
X111965812Y-63839482D01*
X111978072Y-63715000D01*
X111978072Y-63148986D01*
X119665000Y-63148986D01*
X119665000Y-63343014D01*
X119702853Y-63533314D01*
X119777104Y-63712572D01*
X119884901Y-63873901D01*
X120022099Y-64011099D01*
X120183428Y-64118896D01*
X120362686Y-64193147D01*
X120552986Y-64231000D01*
X120747014Y-64231000D01*
X120937314Y-64193147D01*
X121116572Y-64118896D01*
X121277901Y-64011099D01*
X121415099Y-63873901D01*
X121522896Y-63712572D01*
X121597147Y-63533314D01*
X121635000Y-63343014D01*
X121635000Y-63148986D01*
X121597147Y-62958686D01*
X121522896Y-62779428D01*
X121488506Y-62727960D01*
X121500028Y-62720262D01*
X121630262Y-62590028D01*
X121732586Y-62436889D01*
X121803068Y-62266729D01*
X121839000Y-62086089D01*
X121839000Y-61901911D01*
X121803068Y-61721271D01*
X121732586Y-61551111D01*
X121630262Y-61397972D01*
X121500028Y-61267738D01*
X121346889Y-61165414D01*
X121271926Y-61134364D01*
X121376262Y-61030028D01*
X121478586Y-60876889D01*
X121549068Y-60706729D01*
X121585000Y-60526089D01*
X121585000Y-60341911D01*
X121549068Y-60161271D01*
X121478586Y-59991111D01*
X121376262Y-59837972D01*
X121246028Y-59707738D01*
X121092889Y-59605414D01*
X120922729Y-59534932D01*
X120742089Y-59499000D01*
X120557911Y-59499000D01*
X120377271Y-59534932D01*
X120207111Y-59605414D01*
X120053972Y-59707738D01*
X119923738Y-59837972D01*
X119821414Y-59991111D01*
X119750932Y-60161271D01*
X119715000Y-60341911D01*
X119715000Y-60526089D01*
X119750932Y-60706729D01*
X119821414Y-60876889D01*
X119923738Y-61030028D01*
X120053972Y-61160262D01*
X120207111Y-61262586D01*
X120282074Y-61293636D01*
X120177738Y-61397972D01*
X120075414Y-61551111D01*
X120004932Y-61721271D01*
X119969000Y-61901911D01*
X119969000Y-62086089D01*
X120004932Y-62266729D01*
X120075414Y-62436889D01*
X120079289Y-62442688D01*
X120022099Y-62480901D01*
X119884901Y-62618099D01*
X119777104Y-62779428D01*
X119702853Y-62958686D01*
X119665000Y-63148986D01*
X111978072Y-63148986D01*
X111978072Y-62015000D01*
X111965812Y-61890518D01*
X111929502Y-61770820D01*
X111870537Y-61660506D01*
X111791185Y-61563815D01*
X111694494Y-61484463D01*
X111584180Y-61425498D01*
X111542310Y-61412797D01*
X111643475Y-61311632D01*
X111805990Y-61068411D01*
X111917932Y-60798158D01*
X111975000Y-60511260D01*
X111975000Y-60218740D01*
X111917932Y-59931842D01*
X111805990Y-59661589D01*
X111643475Y-59418368D01*
X111436632Y-59211525D01*
X111193411Y-59049010D01*
X110923158Y-58937068D01*
X110636260Y-58880000D01*
X110343740Y-58880000D01*
X110056842Y-58937068D01*
X109786589Y-59049010D01*
X109543368Y-59211525D01*
X109490000Y-59264893D01*
X109436632Y-59211525D01*
X109193411Y-59049010D01*
X108923158Y-58937068D01*
X108636260Y-58880000D01*
X108343740Y-58880000D01*
X108056842Y-58937068D01*
X107786589Y-59049010D01*
X107543368Y-59211525D01*
X107336525Y-59418368D01*
X107174010Y-59661589D01*
X107062068Y-59931842D01*
X107005000Y-60218740D01*
X103834000Y-60218740D01*
X103834000Y-56975492D01*
X103927450Y-57115349D01*
X104259651Y-57447550D01*
X104650279Y-57708560D01*
X105084321Y-57888346D01*
X105545098Y-57980000D01*
X106014902Y-57980000D01*
X106475679Y-57888346D01*
X106909721Y-57708560D01*
X107300349Y-57447550D01*
X107632550Y-57115349D01*
X107670928Y-57057911D01*
X121097000Y-57057911D01*
X121097000Y-57242089D01*
X121132932Y-57422729D01*
X121203414Y-57592889D01*
X121305738Y-57746028D01*
X121435972Y-57876262D01*
X121589111Y-57978586D01*
X121759271Y-58049068D01*
X121768711Y-58050946D01*
X121734853Y-58132686D01*
X121697000Y-58322986D01*
X121697000Y-58517014D01*
X121734853Y-58707314D01*
X121809104Y-58886572D01*
X121916901Y-59047901D01*
X122054099Y-59185099D01*
X122215428Y-59292896D01*
X122394686Y-59367147D01*
X122584986Y-59405000D01*
X122779014Y-59405000D01*
X122969314Y-59367147D01*
X123148572Y-59292896D01*
X123309901Y-59185099D01*
X123447099Y-59047901D01*
X123554896Y-58886572D01*
X123586857Y-58809411D01*
X126827000Y-58809411D01*
X126827000Y-58993589D01*
X126862932Y-59174229D01*
X126933414Y-59344389D01*
X127035738Y-59497528D01*
X127165972Y-59627762D01*
X127319111Y-59730086D01*
X127489271Y-59800568D01*
X127669911Y-59836500D01*
X127854089Y-59836500D01*
X128034729Y-59800568D01*
X128204889Y-59730086D01*
X128332129Y-59645067D01*
X128703157Y-59645067D01*
X128703157Y-59829245D01*
X128739089Y-60009885D01*
X128809571Y-60180045D01*
X128911895Y-60333184D01*
X129042129Y-60463418D01*
X129195268Y-60565742D01*
X129322540Y-60618459D01*
X129375257Y-60745731D01*
X129477581Y-60898870D01*
X129607815Y-61029104D01*
X129760954Y-61131428D01*
X129931114Y-61201910D01*
X130111754Y-61237842D01*
X130295932Y-61237842D01*
X130476572Y-61201910D01*
X130646732Y-61131428D01*
X130799871Y-61029104D01*
X130930105Y-60898870D01*
X131032429Y-60745731D01*
X131102911Y-60575571D01*
X131138843Y-60394931D01*
X131138843Y-60210753D01*
X131102911Y-60030113D01*
X131032429Y-59859953D01*
X130930105Y-59706814D01*
X130799871Y-59576580D01*
X130646732Y-59474256D01*
X130519460Y-59421539D01*
X130466743Y-59294267D01*
X130364419Y-59141128D01*
X130234185Y-59010894D01*
X130081046Y-58908570D01*
X129910886Y-58838088D01*
X129730246Y-58802156D01*
X129546068Y-58802156D01*
X129365428Y-58838088D01*
X129195268Y-58908570D01*
X129042129Y-59010894D01*
X128911895Y-59141128D01*
X128809571Y-59294267D01*
X128739089Y-59464427D01*
X128703157Y-59645067D01*
X128332129Y-59645067D01*
X128358028Y-59627762D01*
X128488262Y-59497528D01*
X128590586Y-59344389D01*
X128661068Y-59174229D01*
X128697000Y-58993589D01*
X128697000Y-58809411D01*
X128661068Y-58628771D01*
X128590586Y-58458611D01*
X128488262Y-58305472D01*
X128358028Y-58175238D01*
X128204889Y-58072914D01*
X128034729Y-58002432D01*
X127854089Y-57966500D01*
X127669911Y-57966500D01*
X127489271Y-58002432D01*
X127319111Y-58072914D01*
X127165972Y-58175238D01*
X127035738Y-58305472D01*
X126933414Y-58458611D01*
X126862932Y-58628771D01*
X126827000Y-58809411D01*
X123586857Y-58809411D01*
X123629147Y-58707314D01*
X123667000Y-58517014D01*
X123667000Y-58322986D01*
X123629147Y-58132686D01*
X123554896Y-57953428D01*
X123447099Y-57792099D01*
X123309901Y-57654901D01*
X123148572Y-57547104D01*
X122969314Y-57472853D01*
X122914798Y-57462009D01*
X122931068Y-57422729D01*
X122960529Y-57274619D01*
X123118349Y-57339990D01*
X123298989Y-57375922D01*
X123483167Y-57375922D01*
X123663807Y-57339990D01*
X123833967Y-57269508D01*
X123987106Y-57167184D01*
X124117340Y-57036950D01*
X124219664Y-56883811D01*
X124252759Y-56803911D01*
X130891000Y-56803911D01*
X130891000Y-56988089D01*
X130926932Y-57168729D01*
X130997414Y-57338889D01*
X131099738Y-57492028D01*
X131229972Y-57622262D01*
X131383111Y-57724586D01*
X131553271Y-57795068D01*
X131733911Y-57831000D01*
X131918089Y-57831000D01*
X132098729Y-57795068D01*
X132268889Y-57724586D01*
X132422028Y-57622262D01*
X132552262Y-57492028D01*
X132654586Y-57338889D01*
X132725068Y-57168729D01*
X132761000Y-56988089D01*
X132761000Y-56803911D01*
X132725068Y-56623271D01*
X132654586Y-56453111D01*
X132552262Y-56299972D01*
X132422028Y-56169738D01*
X132268889Y-56067414D01*
X132098729Y-55996932D01*
X131918089Y-55961000D01*
X131733911Y-55961000D01*
X131553271Y-55996932D01*
X131383111Y-56067414D01*
X131229972Y-56169738D01*
X131099738Y-56299972D01*
X130997414Y-56453111D01*
X130926932Y-56623271D01*
X130891000Y-56803911D01*
X124252759Y-56803911D01*
X124290146Y-56713651D01*
X124326078Y-56533011D01*
X124326078Y-56348833D01*
X124290146Y-56168193D01*
X124219664Y-55998033D01*
X124117340Y-55844894D01*
X123987106Y-55714660D01*
X123833967Y-55612336D01*
X123663807Y-55541854D01*
X123483167Y-55505922D01*
X123298989Y-55505922D01*
X123118349Y-55541854D01*
X122948189Y-55612336D01*
X122795050Y-55714660D01*
X122664816Y-55844894D01*
X122562492Y-55998033D01*
X122492010Y-56168193D01*
X122462549Y-56316303D01*
X122304729Y-56250932D01*
X122124089Y-56215000D01*
X121939911Y-56215000D01*
X121759271Y-56250932D01*
X121589111Y-56321414D01*
X121435972Y-56423738D01*
X121305738Y-56553972D01*
X121203414Y-56707111D01*
X121132932Y-56877271D01*
X121097000Y-57057911D01*
X107670928Y-57057911D01*
X107893560Y-56724721D01*
X108073346Y-56290679D01*
X108165000Y-55829902D01*
X108165000Y-55360098D01*
X108073346Y-54899321D01*
X107893560Y-54465279D01*
X107632550Y-54074651D01*
X107300349Y-53742450D01*
X106909721Y-53481440D01*
X106475679Y-53301654D01*
X106014902Y-53210000D01*
X105545098Y-53210000D01*
X105084321Y-53301654D01*
X104650279Y-53481440D01*
X104259651Y-53742450D01*
X103927450Y-54074651D01*
X103834000Y-54214508D01*
X103834000Y-50961911D01*
X116159000Y-50961911D01*
X116159000Y-51146089D01*
X116194932Y-51326729D01*
X116265414Y-51496889D01*
X116367738Y-51650028D01*
X116497972Y-51780262D01*
X116651111Y-51882586D01*
X116821271Y-51953068D01*
X117001911Y-51989000D01*
X117186089Y-51989000D01*
X117366729Y-51953068D01*
X117536889Y-51882586D01*
X117690028Y-51780262D01*
X117820262Y-51650028D01*
X117922586Y-51496889D01*
X117993068Y-51326729D01*
X118029000Y-51146089D01*
X118029000Y-50961911D01*
X117993068Y-50781271D01*
X117922586Y-50611111D01*
X117820262Y-50457972D01*
X117690028Y-50327738D01*
X117536889Y-50225414D01*
X117366729Y-50154932D01*
X117186089Y-50119000D01*
X117001911Y-50119000D01*
X116821271Y-50154932D01*
X116651111Y-50225414D01*
X116497972Y-50327738D01*
X116367738Y-50457972D01*
X116265414Y-50611111D01*
X116194932Y-50781271D01*
X116159000Y-50961911D01*
X103834000Y-50961911D01*
X103834000Y-48716000D01*
X119645546Y-48716000D01*
X119575958Y-48820147D01*
G37*
%TD.AperFunction*%
%TD*%
D23*
X126502772Y-62384000D03*
X120650000Y-60434000D03*
D24*
X134620000Y-59690000D03*
X125730000Y-61722004D03*
X125729994Y-62738000D03*
X131191000Y-60198000D03*
X127873873Y-71993873D03*
X116840000Y-69215000D03*
X114554000Y-69215000D03*
X119253000Y-69215000D03*
X138176000Y-87884000D03*
X133096000Y-53340000D03*
X137668000Y-71374000D03*
X113284000Y-56642000D03*
X125730000Y-65242000D03*
X131826000Y-62484000D03*
X122936000Y-62738000D03*
X122936000Y-61214000D03*
X128561611Y-71306135D03*
X138938000Y-83312000D03*
X129540000Y-54102000D03*
X120650000Y-63246000D03*
X133096000Y-85598000D03*
X137414000Y-73152000D03*
X135636000Y-69596000D03*
X132460077Y-73374824D03*
X122682000Y-58420000D03*
X122428000Y-64516000D03*
X136906000Y-54864000D03*
D23*
X127508000Y-54610000D03*
X117094000Y-51054000D03*
X131826000Y-56896000D03*
X125984000Y-54102000D03*
X122682000Y-54102000D03*
X127762000Y-58901500D03*
X123391078Y-56440922D03*
X138938000Y-59182006D03*
X138938000Y-58401987D03*
X122174000Y-65532000D03*
X112522000Y-69342000D03*
X112522000Y-71628000D03*
X128016000Y-67564000D03*
X125984000Y-68707000D03*
X129032006Y-62734000D03*
X134636820Y-60916176D03*
X133124843Y-59737156D03*
X132559157Y-60302842D03*
X130203843Y-60302842D03*
X129638157Y-59737156D03*
X137791323Y-60556698D03*
X137706124Y-66781879D03*
X137824122Y-75848122D03*
X138446840Y-74438840D03*
X138176000Y-64008000D03*
X135890000Y-66293990D03*
X136906000Y-66802000D03*
X139495951Y-64262000D03*
X138247963Y-62003371D03*
X137777987Y-62750883D03*
X138938000Y-62992006D03*
X134844865Y-73630875D03*
X139192000Y-59944000D03*
X135890000Y-73914000D03*
X135322502Y-67108466D03*
X140660021Y-67037456D03*
X139486655Y-61898798D03*
X122032000Y-57150000D03*
X120904000Y-61994000D03*
D24*
X141986000Y-63246000D03*
X141986000Y-65786000D03*
X141986000Y-68326000D03*
X141986000Y-70866000D03*
X130556000Y-74554000D03*
X130556000Y-76454000D03*
X126492000Y-79502000D03*
X126492000Y-76962000D03*
X123952000Y-79502000D03*
X123952000Y-76962000D03*
X121412000Y-79502000D03*
X121412000Y-76962000D03*
X118872000Y-79502000D03*
X118872000Y-76962000D03*
X116332000Y-79502000D03*
X116332000Y-76962000D03*
X113792000Y-79502000D03*
X113792000Y-76962000D03*
X104648000Y-88138000D03*
X104648000Y-85598000D03*
X104648000Y-83058000D03*
X104648000Y-80518000D03*
X104648000Y-77978000D03*
X104648000Y-75438000D03*
X104648000Y-72898000D03*
X120904000Y-52070000D03*
X120904000Y-49530000D03*
X123444000Y-52070000D03*
X123444000Y-49530000D03*
X125984000Y-52070000D03*
X125984000Y-49530000D03*
X128524000Y-52070000D03*
X128524000Y-49530000D03*
X131064000Y-52070000D03*
X131064000Y-49530000D03*
X138938000Y-50038000D03*
X141478000Y-50038000D03*
X110490000Y-62865000D03*
X110490000Y-60365000D03*
X108490000Y-60365000D03*
X108490000Y-62865000D03*
X105780000Y-67635000D03*
X105780000Y-55595000D03*
M02*
