%TF.GenerationSoftware,KiCad,Pcbnew,5.1.12*%
%TF.CreationDate,2021-12-06T16:47:01+08:00*%
%TF.ProjectId,elf2,656c6632-2e6b-4696-9361-645f70636258,rev?*%
%TF.SameCoordinates,Original*%
%TF.FileFunction,Legend,Bot*%
%TF.FilePolarity,Positive*%
%FSLAX46Y46*%
G04 Gerber Fmt 4.6, Leading zero omitted, Abs format (unit mm)*
G04 Created by KiCad (PCBNEW 5.1.12) date 2021-12-06 16:47:01*
%MOMM*%
%LPD*%
G01*
G04 APERTURE LIST*
%ADD10C,0.300000*%
%ADD11C,0.010000*%
G04 APERTURE END LIST*
D10*
X125076142Y-86853142D02*
X125576142Y-86853142D01*
X125790428Y-86067428D02*
X125076142Y-86067428D01*
X125076142Y-87567428D01*
X125790428Y-87567428D01*
X127147571Y-86067428D02*
X126433285Y-86067428D01*
X126433285Y-87567428D01*
X128147571Y-86853142D02*
X127647571Y-86853142D01*
X127647571Y-86067428D02*
X127647571Y-87567428D01*
X128361857Y-87567428D01*
X128861857Y-87424571D02*
X128933285Y-87496000D01*
X129076142Y-87567428D01*
X129433285Y-87567428D01*
X129576142Y-87496000D01*
X129647571Y-87424571D01*
X129719000Y-87281714D01*
X129719000Y-87138857D01*
X129647571Y-86924571D01*
X128790428Y-86067428D01*
X129719000Y-86067428D01*
X131504714Y-86067428D02*
X131504714Y-87567428D01*
X131504714Y-86996000D02*
X131647571Y-87067428D01*
X131933285Y-87067428D01*
X132076142Y-86996000D01*
X132147571Y-86924571D01*
X132219000Y-86781714D01*
X132219000Y-86353142D01*
X132147571Y-86210285D01*
X132076142Y-86138857D01*
X131933285Y-86067428D01*
X131647571Y-86067428D01*
X131504714Y-86138857D01*
X133076142Y-86067428D02*
X132933285Y-86138857D01*
X132861857Y-86210285D01*
X132790428Y-86353142D01*
X132790428Y-86781714D01*
X132861857Y-86924571D01*
X132933285Y-86996000D01*
X133076142Y-87067428D01*
X133290428Y-87067428D01*
X133433285Y-86996000D01*
X133504714Y-86924571D01*
X133576142Y-86781714D01*
X133576142Y-86353142D01*
X133504714Y-86210285D01*
X133433285Y-86138857D01*
X133290428Y-86067428D01*
X133076142Y-86067428D01*
X134861857Y-86067428D02*
X134861857Y-86853142D01*
X134790428Y-86996000D01*
X134647571Y-87067428D01*
X134361857Y-87067428D01*
X134219000Y-86996000D01*
X134861857Y-86138857D02*
X134719000Y-86067428D01*
X134361857Y-86067428D01*
X134219000Y-86138857D01*
X134147571Y-86281714D01*
X134147571Y-86424571D01*
X134219000Y-86567428D01*
X134361857Y-86638857D01*
X134719000Y-86638857D01*
X134861857Y-86710285D01*
X135576142Y-86067428D02*
X135576142Y-87067428D01*
X135576142Y-86781714D02*
X135647571Y-86924571D01*
X135719000Y-86996000D01*
X135861857Y-87067428D01*
X136004714Y-87067428D01*
X137147571Y-86067428D02*
X137147571Y-87567428D01*
X137147571Y-86138857D02*
X137004714Y-86067428D01*
X136719000Y-86067428D01*
X136576142Y-86138857D01*
X136504714Y-86210285D01*
X136433285Y-86353142D01*
X136433285Y-86781714D01*
X136504714Y-86924571D01*
X136576142Y-86996000D01*
X136719000Y-87067428D01*
X137004714Y-87067428D01*
X137147571Y-86996000D01*
X138861857Y-87067428D02*
X139219000Y-86067428D01*
X139576142Y-87067428D01*
X140933285Y-86067428D02*
X140076142Y-86067428D01*
X140504714Y-86067428D02*
X140504714Y-87567428D01*
X140361857Y-87353142D01*
X140219000Y-87210285D01*
X140076142Y-87138857D01*
X127147571Y-83517428D02*
X127147571Y-85017428D01*
X127147571Y-84446000D02*
X127290428Y-84517428D01*
X127576142Y-84517428D01*
X127719000Y-84446000D01*
X127790428Y-84374571D01*
X127861857Y-84231714D01*
X127861857Y-83803142D01*
X127790428Y-83660285D01*
X127719000Y-83588857D01*
X127576142Y-83517428D01*
X127290428Y-83517428D01*
X127147571Y-83588857D01*
X128361857Y-84517428D02*
X128719000Y-83517428D01*
X129076142Y-84517428D02*
X128719000Y-83517428D01*
X128576142Y-83160285D01*
X128504714Y-83088857D01*
X128361857Y-83017428D01*
X130790428Y-83517428D02*
X130790428Y-85017428D01*
X132147571Y-83588857D02*
X132004714Y-83517428D01*
X131719000Y-83517428D01*
X131576142Y-83588857D01*
X131504714Y-83660285D01*
X131433285Y-83803142D01*
X131433285Y-84231714D01*
X131504714Y-84374571D01*
X131576142Y-84446000D01*
X131719000Y-84517428D01*
X132004714Y-84517428D01*
X132147571Y-84446000D01*
X133361857Y-83588857D02*
X133219000Y-83517428D01*
X132933285Y-83517428D01*
X132790428Y-83588857D01*
X132719000Y-83731714D01*
X132719000Y-84303142D01*
X132790428Y-84446000D01*
X132933285Y-84517428D01*
X133219000Y-84517428D01*
X133361857Y-84446000D01*
X133433285Y-84303142D01*
X133433285Y-84160285D01*
X132719000Y-84017428D01*
X134076142Y-84517428D02*
X134076142Y-83517428D01*
X134076142Y-84374571D02*
X134147571Y-84446000D01*
X134290428Y-84517428D01*
X134504714Y-84517428D01*
X134647571Y-84446000D01*
X134719000Y-84303142D01*
X134719000Y-83517428D01*
X135647571Y-83517428D02*
X135504714Y-83588857D01*
X135433285Y-83660285D01*
X135361857Y-83803142D01*
X135361857Y-84231714D01*
X135433285Y-84374571D01*
X135504714Y-84446000D01*
X135647571Y-84517428D01*
X135861857Y-84517428D01*
X136004714Y-84446000D01*
X136076142Y-84374571D01*
X136147571Y-84231714D01*
X136147571Y-83803142D01*
X136076142Y-83660285D01*
X136004714Y-83588857D01*
X135861857Y-83517428D01*
X135647571Y-83517428D01*
X136647571Y-84517428D02*
X136933285Y-83517428D01*
X137219000Y-84231714D01*
X137504714Y-83517428D01*
X137790428Y-84517428D01*
X138219000Y-84517428D02*
X138576142Y-83517428D01*
X138933285Y-84517428D02*
X138576142Y-83517428D01*
X138433285Y-83160285D01*
X138361857Y-83088857D01*
X138219000Y-83017428D01*
D11*
%TO.C,REF\u002A\u002A*%
G36*
X109829600Y-88108946D02*
G01*
X109840465Y-87995007D01*
X109872082Y-87887384D01*
X109922985Y-87788385D01*
X109991707Y-87700316D01*
X110076781Y-87625484D01*
X110173768Y-87567616D01*
X110280036Y-87527995D01*
X110387050Y-87509427D01*
X110492700Y-87510566D01*
X110594875Y-87530070D01*
X110691466Y-87566594D01*
X110780362Y-87618795D01*
X110859454Y-87685327D01*
X110926631Y-87764848D01*
X110979783Y-87856013D01*
X111016801Y-87957477D01*
X111035573Y-88067898D01*
X111037511Y-88117794D01*
X111037511Y-88205733D01*
X111089440Y-88205733D01*
X111125747Y-88202889D01*
X111152645Y-88191089D01*
X111179751Y-88167351D01*
X111218133Y-88128969D01*
X111218133Y-85937398D01*
X111218124Y-85675261D01*
X111218092Y-85434759D01*
X111218028Y-85214952D01*
X111217924Y-85014899D01*
X111217773Y-84833656D01*
X111217566Y-84670284D01*
X111217294Y-84523840D01*
X111216950Y-84393383D01*
X111216526Y-84277971D01*
X111216013Y-84176662D01*
X111215403Y-84088516D01*
X111214688Y-84012590D01*
X111213860Y-83947943D01*
X111212911Y-83893633D01*
X111211833Y-83848720D01*
X111210617Y-83812260D01*
X111209255Y-83783313D01*
X111207739Y-83760937D01*
X111206062Y-83744191D01*
X111204214Y-83732132D01*
X111202187Y-83723820D01*
X111199975Y-83718313D01*
X111198892Y-83716463D01*
X111194729Y-83709451D01*
X111191195Y-83703004D01*
X111187365Y-83697100D01*
X111182318Y-83691714D01*
X111175129Y-83686822D01*
X111164877Y-83682402D01*
X111150636Y-83678428D01*
X111131486Y-83674879D01*
X111106501Y-83671730D01*
X111074760Y-83668958D01*
X111035338Y-83666539D01*
X110987314Y-83664449D01*
X110929763Y-83662665D01*
X110861763Y-83661163D01*
X110782390Y-83659920D01*
X110690721Y-83658911D01*
X110585834Y-83658115D01*
X110466804Y-83657506D01*
X110332710Y-83657061D01*
X110182627Y-83656757D01*
X110015633Y-83656570D01*
X109830804Y-83656476D01*
X109627217Y-83656452D01*
X109403950Y-83656475D01*
X109160078Y-83656520D01*
X108894679Y-83656563D01*
X108856296Y-83656568D01*
X108589318Y-83656611D01*
X108343998Y-83656682D01*
X108119417Y-83656787D01*
X107914655Y-83656934D01*
X107728794Y-83657131D01*
X107560912Y-83657384D01*
X107410092Y-83657700D01*
X107275413Y-83658087D01*
X107155956Y-83658553D01*
X107050801Y-83659103D01*
X106959029Y-83659747D01*
X106879721Y-83660489D01*
X106811957Y-83661339D01*
X106754818Y-83662303D01*
X106707383Y-83663389D01*
X106668734Y-83664603D01*
X106637951Y-83665953D01*
X106614115Y-83667445D01*
X106596306Y-83669089D01*
X106583605Y-83670889D01*
X106575092Y-83672855D01*
X106570734Y-83674523D01*
X106562272Y-83678094D01*
X106554503Y-83680730D01*
X106547398Y-83683366D01*
X106540927Y-83686938D01*
X106535061Y-83692379D01*
X106529771Y-83700625D01*
X106525026Y-83712610D01*
X106520798Y-83729269D01*
X106517057Y-83751537D01*
X106513773Y-83780348D01*
X106510917Y-83816637D01*
X106508460Y-83861339D01*
X106506371Y-83915389D01*
X106504622Y-83979721D01*
X106503183Y-84055270D01*
X106502024Y-84142970D01*
X106501117Y-84243757D01*
X106500431Y-84358566D01*
X106499937Y-84488330D01*
X106499605Y-84633985D01*
X106499407Y-84796465D01*
X106499313Y-84976705D01*
X106499292Y-85175640D01*
X106499315Y-85394204D01*
X106499354Y-85633332D01*
X106499378Y-85893960D01*
X106499378Y-85936111D01*
X106499364Y-86199008D01*
X106499339Y-86440268D01*
X106499329Y-86660835D01*
X106499358Y-86861648D01*
X106499452Y-87043651D01*
X106499638Y-87207784D01*
X106499941Y-87354989D01*
X106500386Y-87486208D01*
X106500966Y-87596133D01*
X106803803Y-87596133D01*
X106843593Y-87538289D01*
X106854764Y-87522521D01*
X106864834Y-87508559D01*
X106873862Y-87495216D01*
X106881903Y-87481307D01*
X106889014Y-87465644D01*
X106895253Y-87447042D01*
X106900675Y-87424314D01*
X106905338Y-87396273D01*
X106909299Y-87361733D01*
X106912615Y-87319508D01*
X106915341Y-87268411D01*
X106917536Y-87207256D01*
X106919255Y-87134856D01*
X106920556Y-87050025D01*
X106921495Y-86951578D01*
X106922130Y-86838326D01*
X106922516Y-86709084D01*
X106922712Y-86562666D01*
X106922773Y-86397884D01*
X106922757Y-86213553D01*
X106922720Y-86008487D01*
X106922711Y-85885867D01*
X106922735Y-85668918D01*
X106922769Y-85473358D01*
X106922757Y-85298001D01*
X106922642Y-85141659D01*
X106922370Y-85003143D01*
X106921882Y-84881266D01*
X106921124Y-84774840D01*
X106920038Y-84682678D01*
X106918569Y-84603591D01*
X106916660Y-84536392D01*
X106914256Y-84479893D01*
X106911299Y-84432907D01*
X106907734Y-84394245D01*
X106903505Y-84362720D01*
X106898554Y-84337145D01*
X106892827Y-84316330D01*
X106886267Y-84299089D01*
X106878817Y-84284235D01*
X106870421Y-84270578D01*
X106861024Y-84256931D01*
X106850568Y-84242107D01*
X106844477Y-84233217D01*
X106805704Y-84175600D01*
X107337268Y-84175600D01*
X107460517Y-84175635D01*
X107563013Y-84175785D01*
X107646580Y-84176122D01*
X107713044Y-84176714D01*
X107764229Y-84177633D01*
X107801959Y-84178949D01*
X107828060Y-84180731D01*
X107844356Y-84183049D01*
X107852672Y-84185974D01*
X107854832Y-84189576D01*
X107852661Y-84193925D01*
X107851465Y-84195355D01*
X107826315Y-84232427D01*
X107800417Y-84285228D01*
X107776808Y-84347230D01*
X107768539Y-84373643D01*
X107763922Y-84391584D01*
X107760021Y-84412645D01*
X107756752Y-84438911D01*
X107754034Y-84472468D01*
X107751785Y-84515401D01*
X107749923Y-84569796D01*
X107748364Y-84637738D01*
X107747028Y-84721312D01*
X107745831Y-84822605D01*
X107744692Y-84943700D01*
X107744315Y-84988400D01*
X107743298Y-85113551D01*
X107742540Y-85217918D01*
X107742097Y-85303293D01*
X107742030Y-85371467D01*
X107742395Y-85424235D01*
X107743252Y-85463386D01*
X107744659Y-85490715D01*
X107746675Y-85508014D01*
X107749357Y-85517074D01*
X107752764Y-85519688D01*
X107756956Y-85517649D01*
X107761429Y-85513333D01*
X107771784Y-85500398D01*
X107793842Y-85471324D01*
X107826043Y-85428241D01*
X107866826Y-85373282D01*
X107914630Y-85308577D01*
X107967895Y-85236258D01*
X108025060Y-85158456D01*
X108084563Y-85077302D01*
X108144845Y-84994928D01*
X108204345Y-84913464D01*
X108261502Y-84835043D01*
X108314755Y-84761796D01*
X108362543Y-84695853D01*
X108403307Y-84639346D01*
X108435484Y-84594407D01*
X108457515Y-84563166D01*
X108462083Y-84556534D01*
X108485004Y-84519631D01*
X108511812Y-84471641D01*
X108537211Y-84422103D01*
X108540432Y-84415423D01*
X108562110Y-84367228D01*
X108574696Y-84329666D01*
X108580426Y-84293840D01*
X108581544Y-84251800D01*
X108580910Y-84175600D01*
X109735349Y-84175600D01*
X109644185Y-84269331D01*
X109597388Y-84319225D01*
X109547101Y-84375705D01*
X109501056Y-84429974D01*
X109480631Y-84455327D01*
X109450193Y-84494872D01*
X109410138Y-84548084D01*
X109361639Y-84613333D01*
X109305865Y-84688989D01*
X109243989Y-84773423D01*
X109177181Y-84865006D01*
X109106613Y-84962108D01*
X109033455Y-85063099D01*
X108958879Y-85166350D01*
X108884056Y-85270232D01*
X108810157Y-85373115D01*
X108738354Y-85473369D01*
X108669816Y-85569364D01*
X108605716Y-85659473D01*
X108547225Y-85742064D01*
X108495514Y-85815508D01*
X108451753Y-85878176D01*
X108417115Y-85928439D01*
X108392770Y-85964666D01*
X108379889Y-85985229D01*
X108378131Y-85989332D01*
X108386090Y-86000658D01*
X108406885Y-86027838D01*
X108439153Y-86069171D01*
X108481530Y-86122956D01*
X108532653Y-86187494D01*
X108591159Y-86261082D01*
X108655686Y-86342022D01*
X108724869Y-86428612D01*
X108797347Y-86519152D01*
X108871754Y-86611940D01*
X108931483Y-86686298D01*
X109942489Y-86686298D01*
X109948398Y-86673341D01*
X109962728Y-86651092D01*
X109963775Y-86649609D01*
X109982562Y-86619456D01*
X110002209Y-86582625D01*
X110006108Y-86574489D01*
X110009644Y-86566060D01*
X110012770Y-86555941D01*
X110015514Y-86542740D01*
X110017908Y-86525062D01*
X110019981Y-86501516D01*
X110021765Y-86470707D01*
X110023288Y-86431243D01*
X110024581Y-86381731D01*
X110025674Y-86320777D01*
X110026597Y-86246989D01*
X110027381Y-86158972D01*
X110028055Y-86055335D01*
X110028650Y-85934684D01*
X110029195Y-85795626D01*
X110029721Y-85636768D01*
X110030255Y-85457911D01*
X110030794Y-85272793D01*
X110031228Y-85108855D01*
X110031491Y-84964697D01*
X110031516Y-84838921D01*
X110031235Y-84730129D01*
X110030581Y-84636923D01*
X110029486Y-84557903D01*
X110027882Y-84491672D01*
X110025703Y-84436830D01*
X110022881Y-84391979D01*
X110019349Y-84355722D01*
X110015039Y-84326659D01*
X110009883Y-84303391D01*
X110003815Y-84284521D01*
X109996767Y-84268649D01*
X109988671Y-84254378D01*
X109979460Y-84240309D01*
X109970960Y-84227842D01*
X109953824Y-84201548D01*
X109943678Y-84183963D01*
X109942489Y-84180743D01*
X109953396Y-84179666D01*
X109984589Y-84178665D01*
X110033777Y-84177765D01*
X110098667Y-84176990D01*
X110176970Y-84176363D01*
X110266393Y-84175909D01*
X110364644Y-84175651D01*
X110433555Y-84175600D01*
X110538548Y-84175820D01*
X110635390Y-84176452D01*
X110721893Y-84177451D01*
X110795868Y-84178773D01*
X110855126Y-84180374D01*
X110897480Y-84182209D01*
X110920740Y-84184235D01*
X110924622Y-84185507D01*
X110916924Y-84200409D01*
X110908926Y-84208440D01*
X110895754Y-84225566D01*
X110878515Y-84255817D01*
X110866593Y-84280378D01*
X110839955Y-84339289D01*
X110836880Y-85516155D01*
X110833805Y-86693022D01*
X110388147Y-86693022D01*
X110290330Y-86692858D01*
X110199936Y-86692389D01*
X110119370Y-86691653D01*
X110051038Y-86690684D01*
X109997344Y-86689520D01*
X109960695Y-86688197D01*
X109943496Y-86686751D01*
X109942489Y-86686298D01*
X108931483Y-86686298D01*
X108946730Y-86705278D01*
X109020910Y-86797463D01*
X109092931Y-86886796D01*
X109161431Y-86971576D01*
X109225045Y-87050102D01*
X109282412Y-87120674D01*
X109332167Y-87181591D01*
X109372948Y-87231153D01*
X109390112Y-87251822D01*
X109476404Y-87352484D01*
X109553003Y-87435741D01*
X109621817Y-87503562D01*
X109684752Y-87557911D01*
X109694133Y-87565278D01*
X109733644Y-87595883D01*
X108601884Y-87596133D01*
X108607173Y-87548156D01*
X108603870Y-87490812D01*
X108582339Y-87422537D01*
X108542365Y-87342788D01*
X108497057Y-87270505D01*
X108480839Y-87247860D01*
X108452786Y-87210304D01*
X108414570Y-87159979D01*
X108367863Y-87099027D01*
X108314339Y-87029589D01*
X108255669Y-86953806D01*
X108193525Y-86873820D01*
X108129579Y-86791772D01*
X108065505Y-86709804D01*
X108002973Y-86630057D01*
X107943657Y-86554673D01*
X107889229Y-86485793D01*
X107841361Y-86425558D01*
X107801725Y-86376111D01*
X107771994Y-86339592D01*
X107753839Y-86318142D01*
X107750780Y-86314844D01*
X107747921Y-86322851D01*
X107745707Y-86353145D01*
X107744143Y-86405444D01*
X107743233Y-86479469D01*
X107742980Y-86574937D01*
X107743387Y-86691566D01*
X107744296Y-86811555D01*
X107745618Y-86943667D01*
X107747143Y-87055406D01*
X107749119Y-87148975D01*
X107751794Y-87226581D01*
X107755418Y-87290426D01*
X107760239Y-87342717D01*
X107766506Y-87385656D01*
X107774468Y-87421449D01*
X107784373Y-87452300D01*
X107796469Y-87480414D01*
X107811007Y-87507995D01*
X107825689Y-87533034D01*
X107863686Y-87596133D01*
X106803803Y-87596133D01*
X106500966Y-87596133D01*
X106500999Y-87602383D01*
X106501805Y-87704456D01*
X106502830Y-87793367D01*
X106504100Y-87870059D01*
X106505640Y-87935473D01*
X106507476Y-87990551D01*
X106509633Y-88036235D01*
X106512137Y-88073466D01*
X106515013Y-88103187D01*
X106518287Y-88126338D01*
X106521985Y-88143861D01*
X106526131Y-88156699D01*
X106530753Y-88165792D01*
X106535874Y-88172082D01*
X106541522Y-88176512D01*
X106547721Y-88180022D01*
X106554496Y-88183555D01*
X106560492Y-88187124D01*
X106565725Y-88189700D01*
X106573901Y-88192028D01*
X106586114Y-88194122D01*
X106603459Y-88195993D01*
X106627031Y-88197653D01*
X106657923Y-88199116D01*
X106697232Y-88200392D01*
X106746050Y-88201496D01*
X106805473Y-88202439D01*
X106876596Y-88203233D01*
X106960512Y-88203891D01*
X107058317Y-88204425D01*
X107171106Y-88204847D01*
X107299971Y-88205171D01*
X107446009Y-88205408D01*
X107610314Y-88205570D01*
X107793980Y-88205670D01*
X107998103Y-88205720D01*
X108209247Y-88205733D01*
X109829600Y-88205733D01*
X109829600Y-88108946D01*
G37*
X109829600Y-88108946D02*
X109840465Y-87995007D01*
X109872082Y-87887384D01*
X109922985Y-87788385D01*
X109991707Y-87700316D01*
X110076781Y-87625484D01*
X110173768Y-87567616D01*
X110280036Y-87527995D01*
X110387050Y-87509427D01*
X110492700Y-87510566D01*
X110594875Y-87530070D01*
X110691466Y-87566594D01*
X110780362Y-87618795D01*
X110859454Y-87685327D01*
X110926631Y-87764848D01*
X110979783Y-87856013D01*
X111016801Y-87957477D01*
X111035573Y-88067898D01*
X111037511Y-88117794D01*
X111037511Y-88205733D01*
X111089440Y-88205733D01*
X111125747Y-88202889D01*
X111152645Y-88191089D01*
X111179751Y-88167351D01*
X111218133Y-88128969D01*
X111218133Y-85937398D01*
X111218124Y-85675261D01*
X111218092Y-85434759D01*
X111218028Y-85214952D01*
X111217924Y-85014899D01*
X111217773Y-84833656D01*
X111217566Y-84670284D01*
X111217294Y-84523840D01*
X111216950Y-84393383D01*
X111216526Y-84277971D01*
X111216013Y-84176662D01*
X111215403Y-84088516D01*
X111214688Y-84012590D01*
X111213860Y-83947943D01*
X111212911Y-83893633D01*
X111211833Y-83848720D01*
X111210617Y-83812260D01*
X111209255Y-83783313D01*
X111207739Y-83760937D01*
X111206062Y-83744191D01*
X111204214Y-83732132D01*
X111202187Y-83723820D01*
X111199975Y-83718313D01*
X111198892Y-83716463D01*
X111194729Y-83709451D01*
X111191195Y-83703004D01*
X111187365Y-83697100D01*
X111182318Y-83691714D01*
X111175129Y-83686822D01*
X111164877Y-83682402D01*
X111150636Y-83678428D01*
X111131486Y-83674879D01*
X111106501Y-83671730D01*
X111074760Y-83668958D01*
X111035338Y-83666539D01*
X110987314Y-83664449D01*
X110929763Y-83662665D01*
X110861763Y-83661163D01*
X110782390Y-83659920D01*
X110690721Y-83658911D01*
X110585834Y-83658115D01*
X110466804Y-83657506D01*
X110332710Y-83657061D01*
X110182627Y-83656757D01*
X110015633Y-83656570D01*
X109830804Y-83656476D01*
X109627217Y-83656452D01*
X109403950Y-83656475D01*
X109160078Y-83656520D01*
X108894679Y-83656563D01*
X108856296Y-83656568D01*
X108589318Y-83656611D01*
X108343998Y-83656682D01*
X108119417Y-83656787D01*
X107914655Y-83656934D01*
X107728794Y-83657131D01*
X107560912Y-83657384D01*
X107410092Y-83657700D01*
X107275413Y-83658087D01*
X107155956Y-83658553D01*
X107050801Y-83659103D01*
X106959029Y-83659747D01*
X106879721Y-83660489D01*
X106811957Y-83661339D01*
X106754818Y-83662303D01*
X106707383Y-83663389D01*
X106668734Y-83664603D01*
X106637951Y-83665953D01*
X106614115Y-83667445D01*
X106596306Y-83669089D01*
X106583605Y-83670889D01*
X106575092Y-83672855D01*
X106570734Y-83674523D01*
X106562272Y-83678094D01*
X106554503Y-83680730D01*
X106547398Y-83683366D01*
X106540927Y-83686938D01*
X106535061Y-83692379D01*
X106529771Y-83700625D01*
X106525026Y-83712610D01*
X106520798Y-83729269D01*
X106517057Y-83751537D01*
X106513773Y-83780348D01*
X106510917Y-83816637D01*
X106508460Y-83861339D01*
X106506371Y-83915389D01*
X106504622Y-83979721D01*
X106503183Y-84055270D01*
X106502024Y-84142970D01*
X106501117Y-84243757D01*
X106500431Y-84358566D01*
X106499937Y-84488330D01*
X106499605Y-84633985D01*
X106499407Y-84796465D01*
X106499313Y-84976705D01*
X106499292Y-85175640D01*
X106499315Y-85394204D01*
X106499354Y-85633332D01*
X106499378Y-85893960D01*
X106499378Y-85936111D01*
X106499364Y-86199008D01*
X106499339Y-86440268D01*
X106499329Y-86660835D01*
X106499358Y-86861648D01*
X106499452Y-87043651D01*
X106499638Y-87207784D01*
X106499941Y-87354989D01*
X106500386Y-87486208D01*
X106500966Y-87596133D01*
X106803803Y-87596133D01*
X106843593Y-87538289D01*
X106854764Y-87522521D01*
X106864834Y-87508559D01*
X106873862Y-87495216D01*
X106881903Y-87481307D01*
X106889014Y-87465644D01*
X106895253Y-87447042D01*
X106900675Y-87424314D01*
X106905338Y-87396273D01*
X106909299Y-87361733D01*
X106912615Y-87319508D01*
X106915341Y-87268411D01*
X106917536Y-87207256D01*
X106919255Y-87134856D01*
X106920556Y-87050025D01*
X106921495Y-86951578D01*
X106922130Y-86838326D01*
X106922516Y-86709084D01*
X106922712Y-86562666D01*
X106922773Y-86397884D01*
X106922757Y-86213553D01*
X106922720Y-86008487D01*
X106922711Y-85885867D01*
X106922735Y-85668918D01*
X106922769Y-85473358D01*
X106922757Y-85298001D01*
X106922642Y-85141659D01*
X106922370Y-85003143D01*
X106921882Y-84881266D01*
X106921124Y-84774840D01*
X106920038Y-84682678D01*
X106918569Y-84603591D01*
X106916660Y-84536392D01*
X106914256Y-84479893D01*
X106911299Y-84432907D01*
X106907734Y-84394245D01*
X106903505Y-84362720D01*
X106898554Y-84337145D01*
X106892827Y-84316330D01*
X106886267Y-84299089D01*
X106878817Y-84284235D01*
X106870421Y-84270578D01*
X106861024Y-84256931D01*
X106850568Y-84242107D01*
X106844477Y-84233217D01*
X106805704Y-84175600D01*
X107337268Y-84175600D01*
X107460517Y-84175635D01*
X107563013Y-84175785D01*
X107646580Y-84176122D01*
X107713044Y-84176714D01*
X107764229Y-84177633D01*
X107801959Y-84178949D01*
X107828060Y-84180731D01*
X107844356Y-84183049D01*
X107852672Y-84185974D01*
X107854832Y-84189576D01*
X107852661Y-84193925D01*
X107851465Y-84195355D01*
X107826315Y-84232427D01*
X107800417Y-84285228D01*
X107776808Y-84347230D01*
X107768539Y-84373643D01*
X107763922Y-84391584D01*
X107760021Y-84412645D01*
X107756752Y-84438911D01*
X107754034Y-84472468D01*
X107751785Y-84515401D01*
X107749923Y-84569796D01*
X107748364Y-84637738D01*
X107747028Y-84721312D01*
X107745831Y-84822605D01*
X107744692Y-84943700D01*
X107744315Y-84988400D01*
X107743298Y-85113551D01*
X107742540Y-85217918D01*
X107742097Y-85303293D01*
X107742030Y-85371467D01*
X107742395Y-85424235D01*
X107743252Y-85463386D01*
X107744659Y-85490715D01*
X107746675Y-85508014D01*
X107749357Y-85517074D01*
X107752764Y-85519688D01*
X107756956Y-85517649D01*
X107761429Y-85513333D01*
X107771784Y-85500398D01*
X107793842Y-85471324D01*
X107826043Y-85428241D01*
X107866826Y-85373282D01*
X107914630Y-85308577D01*
X107967895Y-85236258D01*
X108025060Y-85158456D01*
X108084563Y-85077302D01*
X108144845Y-84994928D01*
X108204345Y-84913464D01*
X108261502Y-84835043D01*
X108314755Y-84761796D01*
X108362543Y-84695853D01*
X108403307Y-84639346D01*
X108435484Y-84594407D01*
X108457515Y-84563166D01*
X108462083Y-84556534D01*
X108485004Y-84519631D01*
X108511812Y-84471641D01*
X108537211Y-84422103D01*
X108540432Y-84415423D01*
X108562110Y-84367228D01*
X108574696Y-84329666D01*
X108580426Y-84293840D01*
X108581544Y-84251800D01*
X108580910Y-84175600D01*
X109735349Y-84175600D01*
X109644185Y-84269331D01*
X109597388Y-84319225D01*
X109547101Y-84375705D01*
X109501056Y-84429974D01*
X109480631Y-84455327D01*
X109450193Y-84494872D01*
X109410138Y-84548084D01*
X109361639Y-84613333D01*
X109305865Y-84688989D01*
X109243989Y-84773423D01*
X109177181Y-84865006D01*
X109106613Y-84962108D01*
X109033455Y-85063099D01*
X108958879Y-85166350D01*
X108884056Y-85270232D01*
X108810157Y-85373115D01*
X108738354Y-85473369D01*
X108669816Y-85569364D01*
X108605716Y-85659473D01*
X108547225Y-85742064D01*
X108495514Y-85815508D01*
X108451753Y-85878176D01*
X108417115Y-85928439D01*
X108392770Y-85964666D01*
X108379889Y-85985229D01*
X108378131Y-85989332D01*
X108386090Y-86000658D01*
X108406885Y-86027838D01*
X108439153Y-86069171D01*
X108481530Y-86122956D01*
X108532653Y-86187494D01*
X108591159Y-86261082D01*
X108655686Y-86342022D01*
X108724869Y-86428612D01*
X108797347Y-86519152D01*
X108871754Y-86611940D01*
X108931483Y-86686298D01*
X109942489Y-86686298D01*
X109948398Y-86673341D01*
X109962728Y-86651092D01*
X109963775Y-86649609D01*
X109982562Y-86619456D01*
X110002209Y-86582625D01*
X110006108Y-86574489D01*
X110009644Y-86566060D01*
X110012770Y-86555941D01*
X110015514Y-86542740D01*
X110017908Y-86525062D01*
X110019981Y-86501516D01*
X110021765Y-86470707D01*
X110023288Y-86431243D01*
X110024581Y-86381731D01*
X110025674Y-86320777D01*
X110026597Y-86246989D01*
X110027381Y-86158972D01*
X110028055Y-86055335D01*
X110028650Y-85934684D01*
X110029195Y-85795626D01*
X110029721Y-85636768D01*
X110030255Y-85457911D01*
X110030794Y-85272793D01*
X110031228Y-85108855D01*
X110031491Y-84964697D01*
X110031516Y-84838921D01*
X110031235Y-84730129D01*
X110030581Y-84636923D01*
X110029486Y-84557903D01*
X110027882Y-84491672D01*
X110025703Y-84436830D01*
X110022881Y-84391979D01*
X110019349Y-84355722D01*
X110015039Y-84326659D01*
X110009883Y-84303391D01*
X110003815Y-84284521D01*
X109996767Y-84268649D01*
X109988671Y-84254378D01*
X109979460Y-84240309D01*
X109970960Y-84227842D01*
X109953824Y-84201548D01*
X109943678Y-84183963D01*
X109942489Y-84180743D01*
X109953396Y-84179666D01*
X109984589Y-84178665D01*
X110033777Y-84177765D01*
X110098667Y-84176990D01*
X110176970Y-84176363D01*
X110266393Y-84175909D01*
X110364644Y-84175651D01*
X110433555Y-84175600D01*
X110538548Y-84175820D01*
X110635390Y-84176452D01*
X110721893Y-84177451D01*
X110795868Y-84178773D01*
X110855126Y-84180374D01*
X110897480Y-84182209D01*
X110920740Y-84184235D01*
X110924622Y-84185507D01*
X110916924Y-84200409D01*
X110908926Y-84208440D01*
X110895754Y-84225566D01*
X110878515Y-84255817D01*
X110866593Y-84280378D01*
X110839955Y-84339289D01*
X110836880Y-85516155D01*
X110833805Y-86693022D01*
X110388147Y-86693022D01*
X110290330Y-86692858D01*
X110199936Y-86692389D01*
X110119370Y-86691653D01*
X110051038Y-86690684D01*
X109997344Y-86689520D01*
X109960695Y-86688197D01*
X109943496Y-86686751D01*
X109942489Y-86686298D01*
X108931483Y-86686298D01*
X108946730Y-86705278D01*
X109020910Y-86797463D01*
X109092931Y-86886796D01*
X109161431Y-86971576D01*
X109225045Y-87050102D01*
X109282412Y-87120674D01*
X109332167Y-87181591D01*
X109372948Y-87231153D01*
X109390112Y-87251822D01*
X109476404Y-87352484D01*
X109553003Y-87435741D01*
X109621817Y-87503562D01*
X109684752Y-87557911D01*
X109694133Y-87565278D01*
X109733644Y-87595883D01*
X108601884Y-87596133D01*
X108607173Y-87548156D01*
X108603870Y-87490812D01*
X108582339Y-87422537D01*
X108542365Y-87342788D01*
X108497057Y-87270505D01*
X108480839Y-87247860D01*
X108452786Y-87210304D01*
X108414570Y-87159979D01*
X108367863Y-87099027D01*
X108314339Y-87029589D01*
X108255669Y-86953806D01*
X108193525Y-86873820D01*
X108129579Y-86791772D01*
X108065505Y-86709804D01*
X108002973Y-86630057D01*
X107943657Y-86554673D01*
X107889229Y-86485793D01*
X107841361Y-86425558D01*
X107801725Y-86376111D01*
X107771994Y-86339592D01*
X107753839Y-86318142D01*
X107750780Y-86314844D01*
X107747921Y-86322851D01*
X107745707Y-86353145D01*
X107744143Y-86405444D01*
X107743233Y-86479469D01*
X107742980Y-86574937D01*
X107743387Y-86691566D01*
X107744296Y-86811555D01*
X107745618Y-86943667D01*
X107747143Y-87055406D01*
X107749119Y-87148975D01*
X107751794Y-87226581D01*
X107755418Y-87290426D01*
X107760239Y-87342717D01*
X107766506Y-87385656D01*
X107774468Y-87421449D01*
X107784373Y-87452300D01*
X107796469Y-87480414D01*
X107811007Y-87507995D01*
X107825689Y-87533034D01*
X107863686Y-87596133D01*
X106803803Y-87596133D01*
X106500966Y-87596133D01*
X106500999Y-87602383D01*
X106501805Y-87704456D01*
X106502830Y-87793367D01*
X106504100Y-87870059D01*
X106505640Y-87935473D01*
X106507476Y-87990551D01*
X106509633Y-88036235D01*
X106512137Y-88073466D01*
X106515013Y-88103187D01*
X106518287Y-88126338D01*
X106521985Y-88143861D01*
X106526131Y-88156699D01*
X106530753Y-88165792D01*
X106535874Y-88172082D01*
X106541522Y-88176512D01*
X106547721Y-88180022D01*
X106554496Y-88183555D01*
X106560492Y-88187124D01*
X106565725Y-88189700D01*
X106573901Y-88192028D01*
X106586114Y-88194122D01*
X106603459Y-88195993D01*
X106627031Y-88197653D01*
X106657923Y-88199116D01*
X106697232Y-88200392D01*
X106746050Y-88201496D01*
X106805473Y-88202439D01*
X106876596Y-88203233D01*
X106960512Y-88203891D01*
X107058317Y-88204425D01*
X107171106Y-88204847D01*
X107299971Y-88205171D01*
X107446009Y-88205408D01*
X107610314Y-88205570D01*
X107793980Y-88205670D01*
X107998103Y-88205720D01*
X108209247Y-88205733D01*
X109829600Y-88205733D01*
X109829600Y-88108946D01*
G36*
X113104429Y-87648929D02*
G01*
X113264570Y-87627755D01*
X113428510Y-87587615D01*
X113598313Y-87528111D01*
X113776043Y-87448846D01*
X113787310Y-87443301D01*
X113845005Y-87415275D01*
X113896552Y-87391198D01*
X113938191Y-87372751D01*
X113966162Y-87361614D01*
X113975733Y-87359067D01*
X113994950Y-87354059D01*
X113999561Y-87349853D01*
X113994458Y-87339420D01*
X113978418Y-87313132D01*
X113953288Y-87273743D01*
X113920914Y-87224009D01*
X113883143Y-87166685D01*
X113841822Y-87104524D01*
X113798798Y-87040282D01*
X113755917Y-86976715D01*
X113715026Y-86916575D01*
X113677971Y-86862620D01*
X113646600Y-86817603D01*
X113622759Y-86784279D01*
X113608294Y-86765403D01*
X113606309Y-86763213D01*
X113596191Y-86767862D01*
X113573850Y-86785038D01*
X113543280Y-86811560D01*
X113527536Y-86826036D01*
X113431047Y-86901318D01*
X113324336Y-86956759D01*
X113208832Y-86991859D01*
X113085962Y-87006120D01*
X113016561Y-87004949D01*
X112895423Y-86987788D01*
X112786205Y-86951906D01*
X112688582Y-86897041D01*
X112602228Y-86822930D01*
X112526815Y-86729312D01*
X112462018Y-86615924D01*
X112424601Y-86529333D01*
X112380748Y-86393634D01*
X112348428Y-86246150D01*
X112327557Y-86090686D01*
X112318051Y-85931044D01*
X112319827Y-85771027D01*
X112332803Y-85614439D01*
X112356894Y-85465082D01*
X112392018Y-85326760D01*
X112438092Y-85203276D01*
X112454373Y-85169022D01*
X112522620Y-85054936D01*
X112603079Y-84958443D01*
X112694570Y-84880330D01*
X112795911Y-84821383D01*
X112905920Y-84782388D01*
X113023415Y-84764132D01*
X113064883Y-84762789D01*
X113186441Y-84773710D01*
X113306878Y-84806526D01*
X113424666Y-84860561D01*
X113538277Y-84935135D01*
X113629685Y-85013461D01*
X113676215Y-85057992D01*
X113857483Y-84760729D01*
X113902580Y-84686567D01*
X113943819Y-84618354D01*
X113979735Y-84558541D01*
X114008866Y-84509580D01*
X114029750Y-84473921D01*
X114040924Y-84454016D01*
X114042375Y-84450921D01*
X114034146Y-84441282D01*
X114008567Y-84424001D01*
X113968873Y-84400717D01*
X113918297Y-84373066D01*
X113860074Y-84342685D01*
X113797437Y-84311210D01*
X113733621Y-84280278D01*
X113671860Y-84251527D01*
X113615388Y-84226592D01*
X113567438Y-84207111D01*
X113543986Y-84198682D01*
X113410221Y-84160867D01*
X113272327Y-84135864D01*
X113124622Y-84122860D01*
X112997833Y-84120532D01*
X112929878Y-84121627D01*
X112864277Y-84123725D01*
X112806847Y-84126566D01*
X112763403Y-84129894D01*
X112749298Y-84131578D01*
X112610284Y-84160413D01*
X112468757Y-84205532D01*
X112331275Y-84264250D01*
X112204394Y-84333880D01*
X112126889Y-84386559D01*
X111999481Y-84494761D01*
X111881178Y-84621329D01*
X111774172Y-84763134D01*
X111680652Y-84917049D01*
X111602810Y-85079947D01*
X111558956Y-85197244D01*
X111508708Y-85380872D01*
X111475209Y-85575419D01*
X111458449Y-85776675D01*
X111458416Y-85980432D01*
X111475101Y-86182479D01*
X111508493Y-86378608D01*
X111558580Y-86564609D01*
X111562397Y-86576197D01*
X111625281Y-86738250D01*
X111702028Y-86886168D01*
X111795242Y-87024135D01*
X111907527Y-87156339D01*
X111951392Y-87201601D01*
X112087534Y-87325543D01*
X112227491Y-87428085D01*
X112373411Y-87510344D01*
X112527442Y-87573436D01*
X112691732Y-87618477D01*
X112787289Y-87635967D01*
X112946023Y-87651534D01*
X113104429Y-87648929D01*
G37*
X113104429Y-87648929D02*
X113264570Y-87627755D01*
X113428510Y-87587615D01*
X113598313Y-87528111D01*
X113776043Y-87448846D01*
X113787310Y-87443301D01*
X113845005Y-87415275D01*
X113896552Y-87391198D01*
X113938191Y-87372751D01*
X113966162Y-87361614D01*
X113975733Y-87359067D01*
X113994950Y-87354059D01*
X113999561Y-87349853D01*
X113994458Y-87339420D01*
X113978418Y-87313132D01*
X113953288Y-87273743D01*
X113920914Y-87224009D01*
X113883143Y-87166685D01*
X113841822Y-87104524D01*
X113798798Y-87040282D01*
X113755917Y-86976715D01*
X113715026Y-86916575D01*
X113677971Y-86862620D01*
X113646600Y-86817603D01*
X113622759Y-86784279D01*
X113608294Y-86765403D01*
X113606309Y-86763213D01*
X113596191Y-86767862D01*
X113573850Y-86785038D01*
X113543280Y-86811560D01*
X113527536Y-86826036D01*
X113431047Y-86901318D01*
X113324336Y-86956759D01*
X113208832Y-86991859D01*
X113085962Y-87006120D01*
X113016561Y-87004949D01*
X112895423Y-86987788D01*
X112786205Y-86951906D01*
X112688582Y-86897041D01*
X112602228Y-86822930D01*
X112526815Y-86729312D01*
X112462018Y-86615924D01*
X112424601Y-86529333D01*
X112380748Y-86393634D01*
X112348428Y-86246150D01*
X112327557Y-86090686D01*
X112318051Y-85931044D01*
X112319827Y-85771027D01*
X112332803Y-85614439D01*
X112356894Y-85465082D01*
X112392018Y-85326760D01*
X112438092Y-85203276D01*
X112454373Y-85169022D01*
X112522620Y-85054936D01*
X112603079Y-84958443D01*
X112694570Y-84880330D01*
X112795911Y-84821383D01*
X112905920Y-84782388D01*
X113023415Y-84764132D01*
X113064883Y-84762789D01*
X113186441Y-84773710D01*
X113306878Y-84806526D01*
X113424666Y-84860561D01*
X113538277Y-84935135D01*
X113629685Y-85013461D01*
X113676215Y-85057992D01*
X113857483Y-84760729D01*
X113902580Y-84686567D01*
X113943819Y-84618354D01*
X113979735Y-84558541D01*
X114008866Y-84509580D01*
X114029750Y-84473921D01*
X114040924Y-84454016D01*
X114042375Y-84450921D01*
X114034146Y-84441282D01*
X114008567Y-84424001D01*
X113968873Y-84400717D01*
X113918297Y-84373066D01*
X113860074Y-84342685D01*
X113797437Y-84311210D01*
X113733621Y-84280278D01*
X113671860Y-84251527D01*
X113615388Y-84226592D01*
X113567438Y-84207111D01*
X113543986Y-84198682D01*
X113410221Y-84160867D01*
X113272327Y-84135864D01*
X113124622Y-84122860D01*
X112997833Y-84120532D01*
X112929878Y-84121627D01*
X112864277Y-84123725D01*
X112806847Y-84126566D01*
X112763403Y-84129894D01*
X112749298Y-84131578D01*
X112610284Y-84160413D01*
X112468757Y-84205532D01*
X112331275Y-84264250D01*
X112204394Y-84333880D01*
X112126889Y-84386559D01*
X111999481Y-84494761D01*
X111881178Y-84621329D01*
X111774172Y-84763134D01*
X111680652Y-84917049D01*
X111602810Y-85079947D01*
X111558956Y-85197244D01*
X111508708Y-85380872D01*
X111475209Y-85575419D01*
X111458449Y-85776675D01*
X111458416Y-85980432D01*
X111475101Y-86182479D01*
X111508493Y-86378608D01*
X111558580Y-86564609D01*
X111562397Y-86576197D01*
X111625281Y-86738250D01*
X111702028Y-86886168D01*
X111795242Y-87024135D01*
X111907527Y-87156339D01*
X111951392Y-87201601D01*
X112087534Y-87325543D01*
X112227491Y-87428085D01*
X112373411Y-87510344D01*
X112527442Y-87573436D01*
X112691732Y-87618477D01*
X112787289Y-87635967D01*
X112946023Y-87651534D01*
X113104429Y-87648929D01*
G36*
X115449574Y-86731448D02*
G01*
X115601492Y-86711433D01*
X115736756Y-86677798D01*
X115856239Y-86630275D01*
X115960815Y-86568595D01*
X116038424Y-86505035D01*
X116107265Y-86430901D01*
X116161006Y-86351129D01*
X116203910Y-86258909D01*
X116219384Y-86215839D01*
X116232244Y-86176858D01*
X116243446Y-86140711D01*
X116253120Y-86105566D01*
X116261396Y-86069590D01*
X116268403Y-86030950D01*
X116274272Y-85987815D01*
X116279131Y-85938351D01*
X116283110Y-85880727D01*
X116286340Y-85813109D01*
X116288949Y-85733666D01*
X116291067Y-85640564D01*
X116292824Y-85531973D01*
X116294349Y-85406058D01*
X116295772Y-85260988D01*
X116297025Y-85118222D01*
X116298351Y-84962032D01*
X116299556Y-84826761D01*
X116300766Y-84710754D01*
X116302106Y-84612355D01*
X116303700Y-84529907D01*
X116305675Y-84461754D01*
X116308156Y-84406240D01*
X116311269Y-84361708D01*
X116315138Y-84326502D01*
X116319889Y-84298966D01*
X116325648Y-84277444D01*
X116332539Y-84260278D01*
X116340689Y-84245814D01*
X116350223Y-84232394D01*
X116361266Y-84218362D01*
X116365566Y-84212929D01*
X116381386Y-84190090D01*
X116388422Y-84174537D01*
X116388444Y-84174078D01*
X116377567Y-84171879D01*
X116346582Y-84169853D01*
X116297957Y-84168058D01*
X116234163Y-84166549D01*
X116157669Y-84165384D01*
X116070944Y-84164620D01*
X115976457Y-84164314D01*
X115965550Y-84164311D01*
X115542657Y-84164311D01*
X115539395Y-84260378D01*
X115536133Y-84356444D01*
X115474044Y-84305457D01*
X115376714Y-84237943D01*
X115266813Y-84183251D01*
X115180349Y-84153022D01*
X115111278Y-84138334D01*
X115027925Y-84128341D01*
X114938159Y-84123354D01*
X114849845Y-84123687D01*
X114770851Y-84129649D01*
X114734622Y-84135362D01*
X114594603Y-84173224D01*
X114468178Y-84228068D01*
X114356260Y-84299076D01*
X114259762Y-84385432D01*
X114179600Y-84486321D01*
X114116687Y-84600924D01*
X114072312Y-84727016D01*
X114059978Y-84783599D01*
X114052368Y-84845798D01*
X114048739Y-84920637D01*
X114048245Y-84954533D01*
X114048310Y-84957718D01*
X114808248Y-84957718D01*
X114817541Y-84882667D01*
X114845728Y-84818840D01*
X114894197Y-84763202D01*
X114899254Y-84758789D01*
X114947548Y-84723963D01*
X114999257Y-84701380D01*
X115059989Y-84689460D01*
X115135352Y-84686617D01*
X115153459Y-84687022D01*
X115207278Y-84689675D01*
X115247308Y-84695091D01*
X115282324Y-84705255D01*
X115321103Y-84722150D01*
X115331745Y-84727328D01*
X115392396Y-84763156D01*
X115439215Y-84805788D01*
X115451952Y-84821027D01*
X115496622Y-84877538D01*
X115496622Y-85073414D01*
X115496086Y-85152061D01*
X115494396Y-85210012D01*
X115491428Y-85249125D01*
X115487057Y-85271259D01*
X115482972Y-85277726D01*
X115467047Y-85280889D01*
X115433264Y-85283512D01*
X115386340Y-85285345D01*
X115330993Y-85286143D01*
X115322106Y-85286158D01*
X115201330Y-85280904D01*
X115098660Y-85264737D01*
X115012106Y-85237039D01*
X114939681Y-85197192D01*
X114884751Y-85150242D01*
X114840204Y-85092355D01*
X114815480Y-85029307D01*
X114808248Y-84957718D01*
X114048310Y-84957718D01*
X114050178Y-85048288D01*
X114058522Y-85127188D01*
X114074768Y-85198410D01*
X114100405Y-85269136D01*
X114124401Y-85321507D01*
X114183020Y-85416804D01*
X114261117Y-85504830D01*
X114356315Y-85583983D01*
X114466238Y-85652660D01*
X114588510Y-85709259D01*
X114720755Y-85752179D01*
X114785422Y-85767118D01*
X114921604Y-85789223D01*
X115070049Y-85803806D01*
X115221505Y-85810187D01*
X115348064Y-85808555D01*
X115509950Y-85801776D01*
X115502530Y-85860755D01*
X115483238Y-85959908D01*
X115452104Y-86040628D01*
X115408269Y-86103534D01*
X115350871Y-86149244D01*
X115279048Y-86178378D01*
X115191941Y-86191553D01*
X115088686Y-86189389D01*
X115050711Y-86185388D01*
X114909520Y-86160220D01*
X114772707Y-86119186D01*
X114678178Y-86081185D01*
X114633018Y-86061810D01*
X114594585Y-86046240D01*
X114568234Y-86036595D01*
X114560546Y-86034548D01*
X114550802Y-86043626D01*
X114534083Y-86072595D01*
X114510232Y-86121783D01*
X114479093Y-86191516D01*
X114440507Y-86282121D01*
X114433910Y-86297911D01*
X114403853Y-86370228D01*
X114376874Y-86435575D01*
X114354136Y-86491094D01*
X114336806Y-86533928D01*
X114326048Y-86561219D01*
X114322941Y-86570058D01*
X114332940Y-86574813D01*
X114359217Y-86580090D01*
X114387489Y-86583769D01*
X114417646Y-86588526D01*
X114465433Y-86597972D01*
X114526612Y-86611180D01*
X114596946Y-86627224D01*
X114672194Y-86645180D01*
X114700755Y-86652203D01*
X114805816Y-86677791D01*
X114893480Y-86697853D01*
X114968068Y-86713031D01*
X115033903Y-86723965D01*
X115095307Y-86731296D01*
X115156602Y-86735665D01*
X115222110Y-86737713D01*
X115280128Y-86738111D01*
X115449574Y-86731448D01*
G37*
X115449574Y-86731448D02*
X115601492Y-86711433D01*
X115736756Y-86677798D01*
X115856239Y-86630275D01*
X115960815Y-86568595D01*
X116038424Y-86505035D01*
X116107265Y-86430901D01*
X116161006Y-86351129D01*
X116203910Y-86258909D01*
X116219384Y-86215839D01*
X116232244Y-86176858D01*
X116243446Y-86140711D01*
X116253120Y-86105566D01*
X116261396Y-86069590D01*
X116268403Y-86030950D01*
X116274272Y-85987815D01*
X116279131Y-85938351D01*
X116283110Y-85880727D01*
X116286340Y-85813109D01*
X116288949Y-85733666D01*
X116291067Y-85640564D01*
X116292824Y-85531973D01*
X116294349Y-85406058D01*
X116295772Y-85260988D01*
X116297025Y-85118222D01*
X116298351Y-84962032D01*
X116299556Y-84826761D01*
X116300766Y-84710754D01*
X116302106Y-84612355D01*
X116303700Y-84529907D01*
X116305675Y-84461754D01*
X116308156Y-84406240D01*
X116311269Y-84361708D01*
X116315138Y-84326502D01*
X116319889Y-84298966D01*
X116325648Y-84277444D01*
X116332539Y-84260278D01*
X116340689Y-84245814D01*
X116350223Y-84232394D01*
X116361266Y-84218362D01*
X116365566Y-84212929D01*
X116381386Y-84190090D01*
X116388422Y-84174537D01*
X116388444Y-84174078D01*
X116377567Y-84171879D01*
X116346582Y-84169853D01*
X116297957Y-84168058D01*
X116234163Y-84166549D01*
X116157669Y-84165384D01*
X116070944Y-84164620D01*
X115976457Y-84164314D01*
X115965550Y-84164311D01*
X115542657Y-84164311D01*
X115539395Y-84260378D01*
X115536133Y-84356444D01*
X115474044Y-84305457D01*
X115376714Y-84237943D01*
X115266813Y-84183251D01*
X115180349Y-84153022D01*
X115111278Y-84138334D01*
X115027925Y-84128341D01*
X114938159Y-84123354D01*
X114849845Y-84123687D01*
X114770851Y-84129649D01*
X114734622Y-84135362D01*
X114594603Y-84173224D01*
X114468178Y-84228068D01*
X114356260Y-84299076D01*
X114259762Y-84385432D01*
X114179600Y-84486321D01*
X114116687Y-84600924D01*
X114072312Y-84727016D01*
X114059978Y-84783599D01*
X114052368Y-84845798D01*
X114048739Y-84920637D01*
X114048245Y-84954533D01*
X114048310Y-84957718D01*
X114808248Y-84957718D01*
X114817541Y-84882667D01*
X114845728Y-84818840D01*
X114894197Y-84763202D01*
X114899254Y-84758789D01*
X114947548Y-84723963D01*
X114999257Y-84701380D01*
X115059989Y-84689460D01*
X115135352Y-84686617D01*
X115153459Y-84687022D01*
X115207278Y-84689675D01*
X115247308Y-84695091D01*
X115282324Y-84705255D01*
X115321103Y-84722150D01*
X115331745Y-84727328D01*
X115392396Y-84763156D01*
X115439215Y-84805788D01*
X115451952Y-84821027D01*
X115496622Y-84877538D01*
X115496622Y-85073414D01*
X115496086Y-85152061D01*
X115494396Y-85210012D01*
X115491428Y-85249125D01*
X115487057Y-85271259D01*
X115482972Y-85277726D01*
X115467047Y-85280889D01*
X115433264Y-85283512D01*
X115386340Y-85285345D01*
X115330993Y-85286143D01*
X115322106Y-85286158D01*
X115201330Y-85280904D01*
X115098660Y-85264737D01*
X115012106Y-85237039D01*
X114939681Y-85197192D01*
X114884751Y-85150242D01*
X114840204Y-85092355D01*
X114815480Y-85029307D01*
X114808248Y-84957718D01*
X114048310Y-84957718D01*
X114050178Y-85048288D01*
X114058522Y-85127188D01*
X114074768Y-85198410D01*
X114100405Y-85269136D01*
X114124401Y-85321507D01*
X114183020Y-85416804D01*
X114261117Y-85504830D01*
X114356315Y-85583983D01*
X114466238Y-85652660D01*
X114588510Y-85709259D01*
X114720755Y-85752179D01*
X114785422Y-85767118D01*
X114921604Y-85789223D01*
X115070049Y-85803806D01*
X115221505Y-85810187D01*
X115348064Y-85808555D01*
X115509950Y-85801776D01*
X115502530Y-85860755D01*
X115483238Y-85959908D01*
X115452104Y-86040628D01*
X115408269Y-86103534D01*
X115350871Y-86149244D01*
X115279048Y-86178378D01*
X115191941Y-86191553D01*
X115088686Y-86189389D01*
X115050711Y-86185388D01*
X114909520Y-86160220D01*
X114772707Y-86119186D01*
X114678178Y-86081185D01*
X114633018Y-86061810D01*
X114594585Y-86046240D01*
X114568234Y-86036595D01*
X114560546Y-86034548D01*
X114550802Y-86043626D01*
X114534083Y-86072595D01*
X114510232Y-86121783D01*
X114479093Y-86191516D01*
X114440507Y-86282121D01*
X114433910Y-86297911D01*
X114403853Y-86370228D01*
X114376874Y-86435575D01*
X114354136Y-86491094D01*
X114336806Y-86533928D01*
X114326048Y-86561219D01*
X114322941Y-86570058D01*
X114332940Y-86574813D01*
X114359217Y-86580090D01*
X114387489Y-86583769D01*
X114417646Y-86588526D01*
X114465433Y-86597972D01*
X114526612Y-86611180D01*
X114596946Y-86627224D01*
X114672194Y-86645180D01*
X114700755Y-86652203D01*
X114805816Y-86677791D01*
X114893480Y-86697853D01*
X114968068Y-86713031D01*
X115033903Y-86723965D01*
X115095307Y-86731296D01*
X115156602Y-86735665D01*
X115222110Y-86737713D01*
X115280128Y-86738111D01*
X115449574Y-86731448D01*
G36*
X118962507Y-86125755D02*
G01*
X118962526Y-85891338D01*
X118962552Y-85678397D01*
X118962625Y-85485832D01*
X118962782Y-85312541D01*
X118963064Y-85157424D01*
X118963509Y-85019380D01*
X118964156Y-84897308D01*
X118965045Y-84790106D01*
X118966213Y-84696674D01*
X118967701Y-84615910D01*
X118969546Y-84546714D01*
X118971789Y-84487985D01*
X118974469Y-84438621D01*
X118977623Y-84397522D01*
X118981292Y-84363587D01*
X118985513Y-84335714D01*
X118990327Y-84312802D01*
X118995773Y-84293751D01*
X119001888Y-84277460D01*
X119008712Y-84262827D01*
X119016285Y-84248751D01*
X119024645Y-84234132D01*
X119029839Y-84225026D01*
X119064104Y-84164311D01*
X118205955Y-84164311D01*
X118205955Y-84260267D01*
X118205224Y-84303630D01*
X118203272Y-84336795D01*
X118200463Y-84354576D01*
X118199221Y-84356222D01*
X118187799Y-84349338D01*
X118165084Y-84331495D01*
X118142385Y-84312121D01*
X118087800Y-84271386D01*
X118018321Y-84230383D01*
X117941270Y-84192877D01*
X117863965Y-84162636D01*
X117833113Y-84152988D01*
X117764616Y-84138422D01*
X117681764Y-84128461D01*
X117592371Y-84123417D01*
X117504248Y-84123604D01*
X117425207Y-84129334D01*
X117387511Y-84135142D01*
X117249414Y-84173203D01*
X117122113Y-84230927D01*
X117006292Y-84307789D01*
X116902637Y-84403261D01*
X116811833Y-84516821D01*
X116745031Y-84627619D01*
X116690164Y-84744375D01*
X116648163Y-84863724D01*
X116618167Y-84989717D01*
X116599311Y-85126406D01*
X116590732Y-85277842D01*
X116590006Y-85355289D01*
X116592100Y-85412066D01*
X117421217Y-85412066D01*
X117421424Y-85318998D01*
X117424337Y-85231308D01*
X117430000Y-85154228D01*
X117438455Y-85092991D01*
X117441038Y-85080650D01*
X117472840Y-84973367D01*
X117514498Y-84886342D01*
X117566363Y-84819358D01*
X117628781Y-84772195D01*
X117702100Y-84744635D01*
X117786669Y-84736459D01*
X117882835Y-84747449D01*
X117946311Y-84763171D01*
X117995454Y-84781361D01*
X118049583Y-84807209D01*
X118090244Y-84830911D01*
X118160800Y-84877279D01*
X118160800Y-86027470D01*
X118093392Y-86071038D01*
X118014867Y-86111960D01*
X117930681Y-86138611D01*
X117845557Y-86150535D01*
X117764216Y-86147278D01*
X117691380Y-86128385D01*
X117659426Y-86112816D01*
X117601501Y-86069819D01*
X117552544Y-86013047D01*
X117511390Y-85940425D01*
X117476874Y-85849879D01*
X117447833Y-85739334D01*
X117446552Y-85733467D01*
X117436381Y-85671212D01*
X117428739Y-85593406D01*
X117423670Y-85505280D01*
X117421217Y-85412066D01*
X116592100Y-85412066D01*
X116597857Y-85568105D01*
X116619802Y-85763941D01*
X116655786Y-85942668D01*
X116705759Y-86104155D01*
X116769668Y-86248274D01*
X116847462Y-86374894D01*
X116939089Y-86483885D01*
X117044497Y-86575117D01*
X117089662Y-86606068D01*
X117190611Y-86662215D01*
X117293901Y-86701826D01*
X117403989Y-86725986D01*
X117525330Y-86735781D01*
X117617836Y-86734735D01*
X117747490Y-86723769D01*
X117860084Y-86701954D01*
X117958875Y-86668286D01*
X118047121Y-86621764D01*
X118095986Y-86587552D01*
X118125353Y-86565638D01*
X118147043Y-86550667D01*
X118155253Y-86546267D01*
X118156868Y-86557096D01*
X118158159Y-86587749D01*
X118159138Y-86635474D01*
X118159817Y-86697521D01*
X118160210Y-86771138D01*
X118160330Y-86853573D01*
X118160188Y-86942075D01*
X118159797Y-87033893D01*
X118159171Y-87126276D01*
X118158320Y-87216472D01*
X118157260Y-87301729D01*
X118156001Y-87379297D01*
X118154556Y-87446424D01*
X118152938Y-87500359D01*
X118151161Y-87538350D01*
X118150669Y-87545333D01*
X118143092Y-87615749D01*
X118131531Y-87670898D01*
X118113792Y-87718019D01*
X118087682Y-87764353D01*
X118081415Y-87773933D01*
X118056983Y-87810622D01*
X118962311Y-87810622D01*
X118962507Y-86125755D01*
G37*
X118962507Y-86125755D02*
X118962526Y-85891338D01*
X118962552Y-85678397D01*
X118962625Y-85485832D01*
X118962782Y-85312541D01*
X118963064Y-85157424D01*
X118963509Y-85019380D01*
X118964156Y-84897308D01*
X118965045Y-84790106D01*
X118966213Y-84696674D01*
X118967701Y-84615910D01*
X118969546Y-84546714D01*
X118971789Y-84487985D01*
X118974469Y-84438621D01*
X118977623Y-84397522D01*
X118981292Y-84363587D01*
X118985513Y-84335714D01*
X118990327Y-84312802D01*
X118995773Y-84293751D01*
X119001888Y-84277460D01*
X119008712Y-84262827D01*
X119016285Y-84248751D01*
X119024645Y-84234132D01*
X119029839Y-84225026D01*
X119064104Y-84164311D01*
X118205955Y-84164311D01*
X118205955Y-84260267D01*
X118205224Y-84303630D01*
X118203272Y-84336795D01*
X118200463Y-84354576D01*
X118199221Y-84356222D01*
X118187799Y-84349338D01*
X118165084Y-84331495D01*
X118142385Y-84312121D01*
X118087800Y-84271386D01*
X118018321Y-84230383D01*
X117941270Y-84192877D01*
X117863965Y-84162636D01*
X117833113Y-84152988D01*
X117764616Y-84138422D01*
X117681764Y-84128461D01*
X117592371Y-84123417D01*
X117504248Y-84123604D01*
X117425207Y-84129334D01*
X117387511Y-84135142D01*
X117249414Y-84173203D01*
X117122113Y-84230927D01*
X117006292Y-84307789D01*
X116902637Y-84403261D01*
X116811833Y-84516821D01*
X116745031Y-84627619D01*
X116690164Y-84744375D01*
X116648163Y-84863724D01*
X116618167Y-84989717D01*
X116599311Y-85126406D01*
X116590732Y-85277842D01*
X116590006Y-85355289D01*
X116592100Y-85412066D01*
X117421217Y-85412066D01*
X117421424Y-85318998D01*
X117424337Y-85231308D01*
X117430000Y-85154228D01*
X117438455Y-85092991D01*
X117441038Y-85080650D01*
X117472840Y-84973367D01*
X117514498Y-84886342D01*
X117566363Y-84819358D01*
X117628781Y-84772195D01*
X117702100Y-84744635D01*
X117786669Y-84736459D01*
X117882835Y-84747449D01*
X117946311Y-84763171D01*
X117995454Y-84781361D01*
X118049583Y-84807209D01*
X118090244Y-84830911D01*
X118160800Y-84877279D01*
X118160800Y-86027470D01*
X118093392Y-86071038D01*
X118014867Y-86111960D01*
X117930681Y-86138611D01*
X117845557Y-86150535D01*
X117764216Y-86147278D01*
X117691380Y-86128385D01*
X117659426Y-86112816D01*
X117601501Y-86069819D01*
X117552544Y-86013047D01*
X117511390Y-85940425D01*
X117476874Y-85849879D01*
X117447833Y-85739334D01*
X117446552Y-85733467D01*
X117436381Y-85671212D01*
X117428739Y-85593406D01*
X117423670Y-85505280D01*
X117421217Y-85412066D01*
X116592100Y-85412066D01*
X116597857Y-85568105D01*
X116619802Y-85763941D01*
X116655786Y-85942668D01*
X116705759Y-86104155D01*
X116769668Y-86248274D01*
X116847462Y-86374894D01*
X116939089Y-86483885D01*
X117044497Y-86575117D01*
X117089662Y-86606068D01*
X117190611Y-86662215D01*
X117293901Y-86701826D01*
X117403989Y-86725986D01*
X117525330Y-86735781D01*
X117617836Y-86734735D01*
X117747490Y-86723769D01*
X117860084Y-86701954D01*
X117958875Y-86668286D01*
X118047121Y-86621764D01*
X118095986Y-86587552D01*
X118125353Y-86565638D01*
X118147043Y-86550667D01*
X118155253Y-86546267D01*
X118156868Y-86557096D01*
X118158159Y-86587749D01*
X118159138Y-86635474D01*
X118159817Y-86697521D01*
X118160210Y-86771138D01*
X118160330Y-86853573D01*
X118160188Y-86942075D01*
X118159797Y-87033893D01*
X118159171Y-87126276D01*
X118158320Y-87216472D01*
X118157260Y-87301729D01*
X118156001Y-87379297D01*
X118154556Y-87446424D01*
X118152938Y-87500359D01*
X118151161Y-87538350D01*
X118150669Y-87545333D01*
X118143092Y-87615749D01*
X118131531Y-87670898D01*
X118113792Y-87718019D01*
X118087682Y-87764353D01*
X118081415Y-87773933D01*
X118056983Y-87810622D01*
X118962311Y-87810622D01*
X118962507Y-86125755D01*
G36*
X110502957Y-88571429D02*
G01*
X110599232Y-88547191D01*
X110685816Y-88504359D01*
X110760627Y-88444581D01*
X110821582Y-88369506D01*
X110866601Y-88280780D01*
X110892864Y-88184470D01*
X110898714Y-88087205D01*
X110883860Y-87993346D01*
X110850160Y-87905489D01*
X110799472Y-87826230D01*
X110733655Y-87758164D01*
X110654566Y-87703888D01*
X110564066Y-87665998D01*
X110512800Y-87653574D01*
X110468302Y-87646053D01*
X110434001Y-87643081D01*
X110401040Y-87644906D01*
X110360566Y-87651775D01*
X110327469Y-87658750D01*
X110234053Y-87690259D01*
X110150381Y-87741383D01*
X110078335Y-87810571D01*
X110019800Y-87896272D01*
X110005852Y-87923511D01*
X109989414Y-87959878D01*
X109979106Y-87990418D01*
X109973540Y-88022550D01*
X109971331Y-88063693D01*
X109971052Y-88109778D01*
X109975139Y-88194135D01*
X109988554Y-88263414D01*
X110013744Y-88324039D01*
X110053154Y-88382433D01*
X110091702Y-88426698D01*
X110163594Y-88492516D01*
X110238687Y-88537947D01*
X110321438Y-88565150D01*
X110399072Y-88575424D01*
X110502957Y-88571429D01*
G37*
X110502957Y-88571429D02*
X110599232Y-88547191D01*
X110685816Y-88504359D01*
X110760627Y-88444581D01*
X110821582Y-88369506D01*
X110866601Y-88280780D01*
X110892864Y-88184470D01*
X110898714Y-88087205D01*
X110883860Y-87993346D01*
X110850160Y-87905489D01*
X110799472Y-87826230D01*
X110733655Y-87758164D01*
X110654566Y-87703888D01*
X110564066Y-87665998D01*
X110512800Y-87653574D01*
X110468302Y-87646053D01*
X110434001Y-87643081D01*
X110401040Y-87644906D01*
X110360566Y-87651775D01*
X110327469Y-87658750D01*
X110234053Y-87690259D01*
X110150381Y-87741383D01*
X110078335Y-87810571D01*
X110019800Y-87896272D01*
X110005852Y-87923511D01*
X109989414Y-87959878D01*
X109979106Y-87990418D01*
X109973540Y-88022550D01*
X109971331Y-88063693D01*
X109971052Y-88109778D01*
X109975139Y-88194135D01*
X109988554Y-88263414D01*
X110013744Y-88324039D01*
X110053154Y-88382433D01*
X110091702Y-88426698D01*
X110163594Y-88492516D01*
X110238687Y-88537947D01*
X110321438Y-88565150D01*
X110399072Y-88575424D01*
X110502957Y-88571429D01*
G36*
X106654629Y-83328934D02*
G01*
X106694111Y-83328533D01*
X106809800Y-83325741D01*
X106906689Y-83317450D01*
X106988081Y-83302768D01*
X107057277Y-83280807D01*
X107117580Y-83250678D01*
X107172292Y-83211490D01*
X107191833Y-83194468D01*
X107224250Y-83154637D01*
X107253480Y-83100587D01*
X107276009Y-83040677D01*
X107288321Y-82983261D01*
X107289600Y-82962044D01*
X107281583Y-82903231D01*
X107260101Y-82838987D01*
X107229001Y-82778179D01*
X107192134Y-82729670D01*
X107186146Y-82723818D01*
X107135421Y-82682679D01*
X107079875Y-82650565D01*
X107016304Y-82626635D01*
X106941506Y-82610047D01*
X106852278Y-82599959D01*
X106745418Y-82595531D01*
X106696472Y-82595155D01*
X106634238Y-82595455D01*
X106590472Y-82596708D01*
X106561069Y-82599446D01*
X106541921Y-82604199D01*
X106528923Y-82611499D01*
X106521955Y-82617733D01*
X106515374Y-82625306D01*
X106510212Y-82635076D01*
X106506297Y-82649660D01*
X106503457Y-82671674D01*
X106501520Y-82703736D01*
X106500316Y-82748464D01*
X106499672Y-82808474D01*
X106499417Y-82886383D01*
X106499378Y-82962044D01*
X106499130Y-83062959D01*
X106499183Y-83143573D01*
X106500143Y-83182178D01*
X106646133Y-83182178D01*
X106646133Y-82741911D01*
X106739266Y-82741996D01*
X106795307Y-82743604D01*
X106854001Y-82747744D01*
X106902972Y-82753536D01*
X106904462Y-82753774D01*
X106983608Y-82772910D01*
X107044998Y-82802713D01*
X107091695Y-82845122D01*
X107121365Y-82891039D01*
X107139647Y-82941974D01*
X107138229Y-82989800D01*
X107117012Y-83041067D01*
X107075511Y-83094101D01*
X107018002Y-83133400D01*
X106943250Y-83159669D01*
X106893292Y-83168965D01*
X106836584Y-83175493D01*
X106776481Y-83180218D01*
X106725361Y-83182183D01*
X106722333Y-83182192D01*
X106646133Y-83182178D01*
X106500143Y-83182178D01*
X106500740Y-83206149D01*
X106505002Y-83252945D01*
X106513170Y-83286222D01*
X106526444Y-83308241D01*
X106546026Y-83321261D01*
X106573117Y-83327543D01*
X106608918Y-83329347D01*
X106654629Y-83328934D01*
G37*
X106654629Y-83328934D02*
X106694111Y-83328533D01*
X106809800Y-83325741D01*
X106906689Y-83317450D01*
X106988081Y-83302768D01*
X107057277Y-83280807D01*
X107117580Y-83250678D01*
X107172292Y-83211490D01*
X107191833Y-83194468D01*
X107224250Y-83154637D01*
X107253480Y-83100587D01*
X107276009Y-83040677D01*
X107288321Y-82983261D01*
X107289600Y-82962044D01*
X107281583Y-82903231D01*
X107260101Y-82838987D01*
X107229001Y-82778179D01*
X107192134Y-82729670D01*
X107186146Y-82723818D01*
X107135421Y-82682679D01*
X107079875Y-82650565D01*
X107016304Y-82626635D01*
X106941506Y-82610047D01*
X106852278Y-82599959D01*
X106745418Y-82595531D01*
X106696472Y-82595155D01*
X106634238Y-82595455D01*
X106590472Y-82596708D01*
X106561069Y-82599446D01*
X106541921Y-82604199D01*
X106528923Y-82611499D01*
X106521955Y-82617733D01*
X106515374Y-82625306D01*
X106510212Y-82635076D01*
X106506297Y-82649660D01*
X106503457Y-82671674D01*
X106501520Y-82703736D01*
X106500316Y-82748464D01*
X106499672Y-82808474D01*
X106499417Y-82886383D01*
X106499378Y-82962044D01*
X106499130Y-83062959D01*
X106499183Y-83143573D01*
X106500143Y-83182178D01*
X106646133Y-83182178D01*
X106646133Y-82741911D01*
X106739266Y-82741996D01*
X106795307Y-82743604D01*
X106854001Y-82747744D01*
X106902972Y-82753536D01*
X106904462Y-82753774D01*
X106983608Y-82772910D01*
X107044998Y-82802713D01*
X107091695Y-82845122D01*
X107121365Y-82891039D01*
X107139647Y-82941974D01*
X107138229Y-82989800D01*
X107117012Y-83041067D01*
X107075511Y-83094101D01*
X107018002Y-83133400D01*
X106943250Y-83159669D01*
X106893292Y-83168965D01*
X106836584Y-83175493D01*
X106776481Y-83180218D01*
X106725361Y-83182183D01*
X106722333Y-83182192D01*
X106646133Y-83182178D01*
X106500143Y-83182178D01*
X106500740Y-83206149D01*
X106505002Y-83252945D01*
X106513170Y-83286222D01*
X106526444Y-83308241D01*
X106546026Y-83321261D01*
X106573117Y-83327543D01*
X106608918Y-83329347D01*
X106654629Y-83328934D01*
G36*
X108063206Y-83328854D02*
G01*
X108132614Y-83328482D01*
X108185003Y-83327615D01*
X108223153Y-83326054D01*
X108249841Y-83323597D01*
X108267847Y-83320043D01*
X108279951Y-83315190D01*
X108288931Y-83308839D01*
X108292182Y-83305916D01*
X108311957Y-83274858D01*
X108315518Y-83239172D01*
X108302509Y-83207490D01*
X108296494Y-83201087D01*
X108286765Y-83194879D01*
X108271099Y-83190090D01*
X108246592Y-83186486D01*
X108210339Y-83183836D01*
X108159435Y-83181905D01*
X108090974Y-83180461D01*
X108028383Y-83179582D01*
X107780666Y-83176533D01*
X107777281Y-83111622D01*
X107773895Y-83046711D01*
X107942042Y-83046711D01*
X108015041Y-83046081D01*
X108068483Y-83043447D01*
X108105372Y-83037691D01*
X108128712Y-83027696D01*
X108141506Y-83012344D01*
X108146758Y-82990518D01*
X108147555Y-82970262D01*
X108145077Y-82945408D01*
X108135723Y-82927094D01*
X108116617Y-82914363D01*
X108084882Y-82906259D01*
X108037641Y-82901824D01*
X107972017Y-82900101D01*
X107936199Y-82899955D01*
X107775022Y-82899955D01*
X107775022Y-82741911D01*
X108023378Y-82741911D01*
X108104787Y-82741798D01*
X108166658Y-82741288D01*
X108212032Y-82740130D01*
X108243946Y-82738070D01*
X108265441Y-82734854D01*
X108279557Y-82730228D01*
X108289332Y-82723941D01*
X108294311Y-82719333D01*
X108311390Y-82692440D01*
X108316889Y-82668533D01*
X108309037Y-82639333D01*
X108294311Y-82617733D01*
X108286454Y-82610934D01*
X108276312Y-82605654D01*
X108261156Y-82601702D01*
X108238259Y-82598887D01*
X108204891Y-82597018D01*
X108158325Y-82595902D01*
X108095833Y-82595349D01*
X108014686Y-82595167D01*
X107972578Y-82595155D01*
X107882402Y-82595235D01*
X107812076Y-82595602D01*
X107758871Y-82596448D01*
X107720060Y-82597964D01*
X107692913Y-82600341D01*
X107674702Y-82603771D01*
X107662700Y-82608446D01*
X107654178Y-82614556D01*
X107650844Y-82617733D01*
X107644245Y-82625330D01*
X107639073Y-82635130D01*
X107635154Y-82649761D01*
X107632316Y-82671848D01*
X107630385Y-82704018D01*
X107629188Y-82748897D01*
X107628552Y-82809111D01*
X107628303Y-82887287D01*
X107628266Y-82960077D01*
X107628300Y-83053293D01*
X107628535Y-83126569D01*
X107629170Y-83182542D01*
X107630406Y-83223849D01*
X107632444Y-83253128D01*
X107635483Y-83273016D01*
X107639723Y-83286150D01*
X107645365Y-83295168D01*
X107652609Y-83302707D01*
X107654394Y-83304388D01*
X107663055Y-83311828D01*
X107673118Y-83317591D01*
X107687375Y-83321888D01*
X107708617Y-83324936D01*
X107739636Y-83326949D01*
X107783223Y-83328140D01*
X107842169Y-83328725D01*
X107919266Y-83328917D01*
X107973999Y-83328933D01*
X108063206Y-83328854D01*
G37*
X108063206Y-83328854D02*
X108132614Y-83328482D01*
X108185003Y-83327615D01*
X108223153Y-83326054D01*
X108249841Y-83323597D01*
X108267847Y-83320043D01*
X108279951Y-83315190D01*
X108288931Y-83308839D01*
X108292182Y-83305916D01*
X108311957Y-83274858D01*
X108315518Y-83239172D01*
X108302509Y-83207490D01*
X108296494Y-83201087D01*
X108286765Y-83194879D01*
X108271099Y-83190090D01*
X108246592Y-83186486D01*
X108210339Y-83183836D01*
X108159435Y-83181905D01*
X108090974Y-83180461D01*
X108028383Y-83179582D01*
X107780666Y-83176533D01*
X107777281Y-83111622D01*
X107773895Y-83046711D01*
X107942042Y-83046711D01*
X108015041Y-83046081D01*
X108068483Y-83043447D01*
X108105372Y-83037691D01*
X108128712Y-83027696D01*
X108141506Y-83012344D01*
X108146758Y-82990518D01*
X108147555Y-82970262D01*
X108145077Y-82945408D01*
X108135723Y-82927094D01*
X108116617Y-82914363D01*
X108084882Y-82906259D01*
X108037641Y-82901824D01*
X107972017Y-82900101D01*
X107936199Y-82899955D01*
X107775022Y-82899955D01*
X107775022Y-82741911D01*
X108023378Y-82741911D01*
X108104787Y-82741798D01*
X108166658Y-82741288D01*
X108212032Y-82740130D01*
X108243946Y-82738070D01*
X108265441Y-82734854D01*
X108279557Y-82730228D01*
X108289332Y-82723941D01*
X108294311Y-82719333D01*
X108311390Y-82692440D01*
X108316889Y-82668533D01*
X108309037Y-82639333D01*
X108294311Y-82617733D01*
X108286454Y-82610934D01*
X108276312Y-82605654D01*
X108261156Y-82601702D01*
X108238259Y-82598887D01*
X108204891Y-82597018D01*
X108158325Y-82595902D01*
X108095833Y-82595349D01*
X108014686Y-82595167D01*
X107972578Y-82595155D01*
X107882402Y-82595235D01*
X107812076Y-82595602D01*
X107758871Y-82596448D01*
X107720060Y-82597964D01*
X107692913Y-82600341D01*
X107674702Y-82603771D01*
X107662700Y-82608446D01*
X107654178Y-82614556D01*
X107650844Y-82617733D01*
X107644245Y-82625330D01*
X107639073Y-82635130D01*
X107635154Y-82649761D01*
X107632316Y-82671848D01*
X107630385Y-82704018D01*
X107629188Y-82748897D01*
X107628552Y-82809111D01*
X107628303Y-82887287D01*
X107628266Y-82960077D01*
X107628300Y-83053293D01*
X107628535Y-83126569D01*
X107629170Y-83182542D01*
X107630406Y-83223849D01*
X107632444Y-83253128D01*
X107635483Y-83273016D01*
X107639723Y-83286150D01*
X107645365Y-83295168D01*
X107652609Y-83302707D01*
X107654394Y-83304388D01*
X107663055Y-83311828D01*
X107673118Y-83317591D01*
X107687375Y-83321888D01*
X107708617Y-83324936D01*
X107739636Y-83326949D01*
X107783223Y-83328140D01*
X107842169Y-83328725D01*
X107919266Y-83328917D01*
X107973999Y-83328933D01*
X108063206Y-83328854D01*
G36*
X109084297Y-83327649D02*
G01*
X109159112Y-83322419D01*
X109228694Y-83314250D01*
X109288998Y-83303450D01*
X109335980Y-83290327D01*
X109365594Y-83275187D01*
X109370140Y-83270731D01*
X109385946Y-83236150D01*
X109381153Y-83200649D01*
X109356636Y-83170275D01*
X109355466Y-83169404D01*
X109341046Y-83160046D01*
X109325992Y-83155124D01*
X109304995Y-83154527D01*
X109272743Y-83158139D01*
X109223927Y-83165846D01*
X109220000Y-83166495D01*
X109147261Y-83175431D01*
X109068783Y-83179839D01*
X108990073Y-83179881D01*
X108916639Y-83175721D01*
X108853989Y-83167521D01*
X108807630Y-83155443D01*
X108804584Y-83154229D01*
X108770952Y-83135385D01*
X108759136Y-83116315D01*
X108768386Y-83097561D01*
X108797953Y-83079663D01*
X108847089Y-83063163D01*
X108915043Y-83048604D01*
X108960355Y-83041594D01*
X109054544Y-83028111D01*
X109129456Y-83015786D01*
X109188283Y-83003551D01*
X109234215Y-82990339D01*
X109270445Y-82975083D01*
X109300162Y-82956715D01*
X109326558Y-82934169D01*
X109347770Y-82912029D01*
X109372935Y-82881181D01*
X109385319Y-82854655D01*
X109389192Y-82821974D01*
X109389333Y-82810005D01*
X109386424Y-82770288D01*
X109374798Y-82740741D01*
X109354677Y-82714514D01*
X109313784Y-82674424D01*
X109268183Y-82643851D01*
X109214487Y-82621797D01*
X109149308Y-82607265D01*
X109069256Y-82599259D01*
X108970943Y-82596782D01*
X108954711Y-82596823D01*
X108889151Y-82598182D01*
X108824134Y-82601270D01*
X108766748Y-82605644D01*
X108724078Y-82610860D01*
X108720628Y-82611459D01*
X108678204Y-82621509D01*
X108642220Y-82634204D01*
X108621850Y-82645810D01*
X108602893Y-82676428D01*
X108601573Y-82712082D01*
X108617915Y-82743856D01*
X108621571Y-82747449D01*
X108636685Y-82758124D01*
X108655585Y-82762724D01*
X108684838Y-82761941D01*
X108720349Y-82757873D01*
X108760030Y-82754238D01*
X108815655Y-82751172D01*
X108880594Y-82748947D01*
X108948215Y-82747836D01*
X108966000Y-82747763D01*
X109033872Y-82748036D01*
X109083546Y-82749354D01*
X109119390Y-82752173D01*
X109145776Y-82756950D01*
X109167074Y-82764143D01*
X109179874Y-82770133D01*
X109208000Y-82786767D01*
X109225932Y-82801832D01*
X109228553Y-82806103D01*
X109223024Y-82823737D01*
X109196740Y-82840808D01*
X109151522Y-82856542D01*
X109089192Y-82870162D01*
X109070829Y-82873196D01*
X108974910Y-82888262D01*
X108898359Y-82900854D01*
X108838220Y-82911889D01*
X108791540Y-82922280D01*
X108755363Y-82932944D01*
X108726735Y-82944795D01*
X108702702Y-82958749D01*
X108680308Y-82975719D01*
X108656598Y-82996622D01*
X108648620Y-83003951D01*
X108620647Y-83031301D01*
X108605840Y-83052971D01*
X108600048Y-83077768D01*
X108599111Y-83109017D01*
X108609425Y-83170295D01*
X108640248Y-83222360D01*
X108691405Y-83265042D01*
X108762717Y-83298175D01*
X108813600Y-83313036D01*
X108868900Y-83322634D01*
X108935147Y-83328064D01*
X109008294Y-83329633D01*
X109084297Y-83327649D01*
G37*
X109084297Y-83327649D02*
X109159112Y-83322419D01*
X109228694Y-83314250D01*
X109288998Y-83303450D01*
X109335980Y-83290327D01*
X109365594Y-83275187D01*
X109370140Y-83270731D01*
X109385946Y-83236150D01*
X109381153Y-83200649D01*
X109356636Y-83170275D01*
X109355466Y-83169404D01*
X109341046Y-83160046D01*
X109325992Y-83155124D01*
X109304995Y-83154527D01*
X109272743Y-83158139D01*
X109223927Y-83165846D01*
X109220000Y-83166495D01*
X109147261Y-83175431D01*
X109068783Y-83179839D01*
X108990073Y-83179881D01*
X108916639Y-83175721D01*
X108853989Y-83167521D01*
X108807630Y-83155443D01*
X108804584Y-83154229D01*
X108770952Y-83135385D01*
X108759136Y-83116315D01*
X108768386Y-83097561D01*
X108797953Y-83079663D01*
X108847089Y-83063163D01*
X108915043Y-83048604D01*
X108960355Y-83041594D01*
X109054544Y-83028111D01*
X109129456Y-83015786D01*
X109188283Y-83003551D01*
X109234215Y-82990339D01*
X109270445Y-82975083D01*
X109300162Y-82956715D01*
X109326558Y-82934169D01*
X109347770Y-82912029D01*
X109372935Y-82881181D01*
X109385319Y-82854655D01*
X109389192Y-82821974D01*
X109389333Y-82810005D01*
X109386424Y-82770288D01*
X109374798Y-82740741D01*
X109354677Y-82714514D01*
X109313784Y-82674424D01*
X109268183Y-82643851D01*
X109214487Y-82621797D01*
X109149308Y-82607265D01*
X109069256Y-82599259D01*
X108970943Y-82596782D01*
X108954711Y-82596823D01*
X108889151Y-82598182D01*
X108824134Y-82601270D01*
X108766748Y-82605644D01*
X108724078Y-82610860D01*
X108720628Y-82611459D01*
X108678204Y-82621509D01*
X108642220Y-82634204D01*
X108621850Y-82645810D01*
X108602893Y-82676428D01*
X108601573Y-82712082D01*
X108617915Y-82743856D01*
X108621571Y-82747449D01*
X108636685Y-82758124D01*
X108655585Y-82762724D01*
X108684838Y-82761941D01*
X108720349Y-82757873D01*
X108760030Y-82754238D01*
X108815655Y-82751172D01*
X108880594Y-82748947D01*
X108948215Y-82747836D01*
X108966000Y-82747763D01*
X109033872Y-82748036D01*
X109083546Y-82749354D01*
X109119390Y-82752173D01*
X109145776Y-82756950D01*
X109167074Y-82764143D01*
X109179874Y-82770133D01*
X109208000Y-82786767D01*
X109225932Y-82801832D01*
X109228553Y-82806103D01*
X109223024Y-82823737D01*
X109196740Y-82840808D01*
X109151522Y-82856542D01*
X109089192Y-82870162D01*
X109070829Y-82873196D01*
X108974910Y-82888262D01*
X108898359Y-82900854D01*
X108838220Y-82911889D01*
X108791540Y-82922280D01*
X108755363Y-82932944D01*
X108726735Y-82944795D01*
X108702702Y-82958749D01*
X108680308Y-82975719D01*
X108656598Y-82996622D01*
X108648620Y-83003951D01*
X108620647Y-83031301D01*
X108605840Y-83052971D01*
X108600048Y-83077768D01*
X108599111Y-83109017D01*
X108609425Y-83170295D01*
X108640248Y-83222360D01*
X108691405Y-83265042D01*
X108762717Y-83298175D01*
X108813600Y-83313036D01*
X108868900Y-83322634D01*
X108935147Y-83328064D01*
X109008294Y-83329633D01*
X109084297Y-83327649D01*
G36*
X109852178Y-83306355D02*
G01*
X109858758Y-83298782D01*
X109863921Y-83289013D01*
X109867836Y-83274429D01*
X109870676Y-83252415D01*
X109872613Y-83220352D01*
X109873817Y-83175625D01*
X109874461Y-83115615D01*
X109874716Y-83037706D01*
X109874755Y-82962044D01*
X109874686Y-82868198D01*
X109874362Y-82794311D01*
X109873614Y-82737768D01*
X109872268Y-82695951D01*
X109870154Y-82666243D01*
X109867100Y-82646027D01*
X109862934Y-82632686D01*
X109857484Y-82623602D01*
X109852178Y-82617733D01*
X109819174Y-82598053D01*
X109784009Y-82599819D01*
X109752545Y-82621283D01*
X109745316Y-82629663D01*
X109739666Y-82639386D01*
X109735401Y-82653139D01*
X109732327Y-82673611D01*
X109730248Y-82703488D01*
X109728970Y-82745459D01*
X109728299Y-82802211D01*
X109728041Y-82876433D01*
X109728000Y-82960463D01*
X109728000Y-83273515D01*
X109755709Y-83301224D01*
X109789863Y-83324537D01*
X109822994Y-83325377D01*
X109852178Y-83306355D01*
G37*
X109852178Y-83306355D02*
X109858758Y-83298782D01*
X109863921Y-83289013D01*
X109867836Y-83274429D01*
X109870676Y-83252415D01*
X109872613Y-83220352D01*
X109873817Y-83175625D01*
X109874461Y-83115615D01*
X109874716Y-83037706D01*
X109874755Y-82962044D01*
X109874686Y-82868198D01*
X109874362Y-82794311D01*
X109873614Y-82737768D01*
X109872268Y-82695951D01*
X109870154Y-82666243D01*
X109867100Y-82646027D01*
X109862934Y-82632686D01*
X109857484Y-82623602D01*
X109852178Y-82617733D01*
X109819174Y-82598053D01*
X109784009Y-82599819D01*
X109752545Y-82621283D01*
X109745316Y-82629663D01*
X109739666Y-82639386D01*
X109735401Y-82653139D01*
X109732327Y-82673611D01*
X109730248Y-82703488D01*
X109728970Y-82745459D01*
X109728299Y-82802211D01*
X109728041Y-82876433D01*
X109728000Y-82960463D01*
X109728000Y-83273515D01*
X109755709Y-83301224D01*
X109789863Y-83324537D01*
X109822994Y-83325377D01*
X109852178Y-83306355D01*
G36*
X110825919Y-83323401D02*
G01*
X110894435Y-83311905D01*
X110947057Y-83294033D01*
X110981292Y-83270501D01*
X110990621Y-83257076D01*
X111000107Y-83225852D01*
X110993723Y-83197605D01*
X110973570Y-83170818D01*
X110942255Y-83158287D01*
X110896817Y-83159304D01*
X110861674Y-83166094D01*
X110783581Y-83179029D01*
X110703774Y-83180258D01*
X110614445Y-83169759D01*
X110589771Y-83165310D01*
X110506709Y-83141892D01*
X110441727Y-83107055D01*
X110395539Y-83061396D01*
X110368855Y-83005506D01*
X110363337Y-82976612D01*
X110366949Y-82917988D01*
X110390271Y-82866121D01*
X110431176Y-82822022D01*
X110487541Y-82786701D01*
X110557240Y-82761171D01*
X110638148Y-82746441D01*
X110728140Y-82743522D01*
X110825090Y-82753425D01*
X110830564Y-82754359D01*
X110869125Y-82761541D01*
X110890506Y-82768479D01*
X110899773Y-82778773D01*
X110901994Y-82796024D01*
X110902044Y-82805159D01*
X110902044Y-82843511D01*
X110833569Y-82843511D01*
X110773100Y-82847653D01*
X110731835Y-82860853D01*
X110707825Y-82884270D01*
X110699123Y-82919064D01*
X110699017Y-82923606D01*
X110704108Y-82953346D01*
X110721567Y-82974581D01*
X110754061Y-82988634D01*
X110804257Y-82996827D01*
X110852877Y-82999839D01*
X110923544Y-83001567D01*
X110974802Y-82998930D01*
X111009761Y-82989200D01*
X111031530Y-82969647D01*
X111043220Y-82937544D01*
X111047940Y-82890162D01*
X111048800Y-82827929D01*
X111047391Y-82758465D01*
X111043152Y-82711214D01*
X111036064Y-82685988D01*
X111034689Y-82684012D01*
X110995772Y-82652492D01*
X110938714Y-82627530D01*
X110867131Y-82609660D01*
X110784642Y-82599414D01*
X110694861Y-82597327D01*
X110601408Y-82603932D01*
X110546444Y-82612044D01*
X110460234Y-82636446D01*
X110380108Y-82676338D01*
X110313023Y-82728113D01*
X110302827Y-82738461D01*
X110269698Y-82781965D01*
X110239806Y-82835882D01*
X110216643Y-82892408D01*
X110203702Y-82943741D01*
X110202142Y-82963456D01*
X110208782Y-83004581D01*
X110226432Y-83055748D01*
X110251703Y-83109606D01*
X110281211Y-83158805D01*
X110307281Y-83191666D01*
X110368235Y-83240548D01*
X110447031Y-83279455D01*
X110540843Y-83307506D01*
X110646850Y-83323821D01*
X110744000Y-83327808D01*
X110825919Y-83323401D01*
G37*
X110825919Y-83323401D02*
X110894435Y-83311905D01*
X110947057Y-83294033D01*
X110981292Y-83270501D01*
X110990621Y-83257076D01*
X111000107Y-83225852D01*
X110993723Y-83197605D01*
X110973570Y-83170818D01*
X110942255Y-83158287D01*
X110896817Y-83159304D01*
X110861674Y-83166094D01*
X110783581Y-83179029D01*
X110703774Y-83180258D01*
X110614445Y-83169759D01*
X110589771Y-83165310D01*
X110506709Y-83141892D01*
X110441727Y-83107055D01*
X110395539Y-83061396D01*
X110368855Y-83005506D01*
X110363337Y-82976612D01*
X110366949Y-82917988D01*
X110390271Y-82866121D01*
X110431176Y-82822022D01*
X110487541Y-82786701D01*
X110557240Y-82761171D01*
X110638148Y-82746441D01*
X110728140Y-82743522D01*
X110825090Y-82753425D01*
X110830564Y-82754359D01*
X110869125Y-82761541D01*
X110890506Y-82768479D01*
X110899773Y-82778773D01*
X110901994Y-82796024D01*
X110902044Y-82805159D01*
X110902044Y-82843511D01*
X110833569Y-82843511D01*
X110773100Y-82847653D01*
X110731835Y-82860853D01*
X110707825Y-82884270D01*
X110699123Y-82919064D01*
X110699017Y-82923606D01*
X110704108Y-82953346D01*
X110721567Y-82974581D01*
X110754061Y-82988634D01*
X110804257Y-82996827D01*
X110852877Y-82999839D01*
X110923544Y-83001567D01*
X110974802Y-82998930D01*
X111009761Y-82989200D01*
X111031530Y-82969647D01*
X111043220Y-82937544D01*
X111047940Y-82890162D01*
X111048800Y-82827929D01*
X111047391Y-82758465D01*
X111043152Y-82711214D01*
X111036064Y-82685988D01*
X111034689Y-82684012D01*
X110995772Y-82652492D01*
X110938714Y-82627530D01*
X110867131Y-82609660D01*
X110784642Y-82599414D01*
X110694861Y-82597327D01*
X110601408Y-82603932D01*
X110546444Y-82612044D01*
X110460234Y-82636446D01*
X110380108Y-82676338D01*
X110313023Y-82728113D01*
X110302827Y-82738461D01*
X110269698Y-82781965D01*
X110239806Y-82835882D01*
X110216643Y-82892408D01*
X110203702Y-82943741D01*
X110202142Y-82963456D01*
X110208782Y-83004581D01*
X110226432Y-83055748D01*
X110251703Y-83109606D01*
X110281211Y-83158805D01*
X110307281Y-83191666D01*
X110368235Y-83240548D01*
X110447031Y-83279455D01*
X110540843Y-83307506D01*
X110646850Y-83323821D01*
X110744000Y-83327808D01*
X110825919Y-83323401D01*
G36*
X111475886Y-83324552D02*
G01*
X111499452Y-83310727D01*
X111530265Y-83288119D01*
X111569922Y-83255662D01*
X111620020Y-83212292D01*
X111682157Y-83156942D01*
X111757928Y-83088549D01*
X111844666Y-83009916D01*
X112025289Y-82846122D01*
X112030933Y-83065971D01*
X112032971Y-83141649D01*
X112034937Y-83198006D01*
X112037266Y-83238294D01*
X112040394Y-83265765D01*
X112044755Y-83283671D01*
X112050784Y-83295263D01*
X112058916Y-83303792D01*
X112063228Y-83307377D01*
X112097759Y-83326330D01*
X112130617Y-83323559D01*
X112156682Y-83307367D01*
X112183333Y-83285801D01*
X112186648Y-82970849D01*
X112187565Y-82878221D01*
X112188032Y-82805456D01*
X112187887Y-82749839D01*
X112186968Y-82708658D01*
X112185113Y-82679197D01*
X112182161Y-82658745D01*
X112177950Y-82644587D01*
X112172318Y-82634009D01*
X112166073Y-82625526D01*
X112152561Y-82609793D01*
X112139117Y-82599364D01*
X112123876Y-82595361D01*
X112104974Y-82598906D01*
X112080545Y-82611121D01*
X112048727Y-82633129D01*
X112007652Y-82666051D01*
X111955458Y-82711009D01*
X111890278Y-82769125D01*
X111816444Y-82835901D01*
X111551155Y-83076542D01*
X111545511Y-82857411D01*
X111543469Y-82781872D01*
X111541498Y-82725646D01*
X111539161Y-82685476D01*
X111536019Y-82658104D01*
X111531636Y-82640272D01*
X111525576Y-82628721D01*
X111517400Y-82620193D01*
X111513216Y-82616718D01*
X111476235Y-82597628D01*
X111441292Y-82600507D01*
X111410864Y-82624900D01*
X111403903Y-82634714D01*
X111398477Y-82646174D01*
X111394397Y-82662032D01*
X111391471Y-82685037D01*
X111389508Y-82717938D01*
X111388317Y-82763484D01*
X111387708Y-82824427D01*
X111387489Y-82903514D01*
X111387466Y-82962044D01*
X111387540Y-83053593D01*
X111387887Y-83125313D01*
X111388699Y-83179955D01*
X111390167Y-83220268D01*
X111392481Y-83249002D01*
X111395833Y-83268907D01*
X111400412Y-83282732D01*
X111406411Y-83293228D01*
X111410864Y-83299189D01*
X111422150Y-83313309D01*
X111432699Y-83323971D01*
X111444107Y-83330108D01*
X111457970Y-83330657D01*
X111475886Y-83324552D01*
G37*
X111475886Y-83324552D02*
X111499452Y-83310727D01*
X111530265Y-83288119D01*
X111569922Y-83255662D01*
X111620020Y-83212292D01*
X111682157Y-83156942D01*
X111757928Y-83088549D01*
X111844666Y-83009916D01*
X112025289Y-82846122D01*
X112030933Y-83065971D01*
X112032971Y-83141649D01*
X112034937Y-83198006D01*
X112037266Y-83238294D01*
X112040394Y-83265765D01*
X112044755Y-83283671D01*
X112050784Y-83295263D01*
X112058916Y-83303792D01*
X112063228Y-83307377D01*
X112097759Y-83326330D01*
X112130617Y-83323559D01*
X112156682Y-83307367D01*
X112183333Y-83285801D01*
X112186648Y-82970849D01*
X112187565Y-82878221D01*
X112188032Y-82805456D01*
X112187887Y-82749839D01*
X112186968Y-82708658D01*
X112185113Y-82679197D01*
X112182161Y-82658745D01*
X112177950Y-82644587D01*
X112172318Y-82634009D01*
X112166073Y-82625526D01*
X112152561Y-82609793D01*
X112139117Y-82599364D01*
X112123876Y-82595361D01*
X112104974Y-82598906D01*
X112080545Y-82611121D01*
X112048727Y-82633129D01*
X112007652Y-82666051D01*
X111955458Y-82711009D01*
X111890278Y-82769125D01*
X111816444Y-82835901D01*
X111551155Y-83076542D01*
X111545511Y-82857411D01*
X111543469Y-82781872D01*
X111541498Y-82725646D01*
X111539161Y-82685476D01*
X111536019Y-82658104D01*
X111531636Y-82640272D01*
X111525576Y-82628721D01*
X111517400Y-82620193D01*
X111513216Y-82616718D01*
X111476235Y-82597628D01*
X111441292Y-82600507D01*
X111410864Y-82624900D01*
X111403903Y-82634714D01*
X111398477Y-82646174D01*
X111394397Y-82662032D01*
X111391471Y-82685037D01*
X111389508Y-82717938D01*
X111388317Y-82763484D01*
X111387708Y-82824427D01*
X111387489Y-82903514D01*
X111387466Y-82962044D01*
X111387540Y-83053593D01*
X111387887Y-83125313D01*
X111388699Y-83179955D01*
X111390167Y-83220268D01*
X111392481Y-83249002D01*
X111395833Y-83268907D01*
X111400412Y-83282732D01*
X111406411Y-83293228D01*
X111410864Y-83299189D01*
X111422150Y-83313309D01*
X111432699Y-83323971D01*
X111444107Y-83330108D01*
X111457970Y-83330657D01*
X111475886Y-83324552D01*
G36*
X113006343Y-83328740D02*
G01*
X113082701Y-83327826D01*
X113141217Y-83325689D01*
X113184255Y-83321825D01*
X113214183Y-83315733D01*
X113233368Y-83306910D01*
X113244176Y-83294854D01*
X113248973Y-83279061D01*
X113250127Y-83259030D01*
X113250133Y-83256665D01*
X113249131Y-83234008D01*
X113244396Y-83216497D01*
X113233333Y-83203426D01*
X113213348Y-83194087D01*
X113181846Y-83187773D01*
X113136232Y-83183778D01*
X113073913Y-83181394D01*
X112992293Y-83179914D01*
X112967277Y-83179586D01*
X112725200Y-83176533D01*
X112721814Y-83111622D01*
X112718429Y-83046711D01*
X112886576Y-83046711D01*
X112952266Y-83046469D01*
X112999172Y-83045444D01*
X113031083Y-83043189D01*
X113051791Y-83039258D01*
X113065084Y-83033202D01*
X113074755Y-83024576D01*
X113074817Y-83024507D01*
X113092356Y-82990888D01*
X113091722Y-82954552D01*
X113073314Y-82923577D01*
X113069671Y-82920393D01*
X113056741Y-82912188D01*
X113039024Y-82906479D01*
X113012570Y-82902838D01*
X112973432Y-82900833D01*
X112917662Y-82900036D01*
X112881994Y-82899955D01*
X112719555Y-82899955D01*
X112719555Y-82741911D01*
X112966161Y-82741911D01*
X113047580Y-82741769D01*
X113109410Y-82741186D01*
X113154637Y-82739932D01*
X113186248Y-82737773D01*
X113207231Y-82734477D01*
X113220573Y-82729811D01*
X113229261Y-82723543D01*
X113231450Y-82721267D01*
X113247614Y-82689720D01*
X113248797Y-82653832D01*
X113235536Y-82622715D01*
X113225043Y-82612729D01*
X113214129Y-82607231D01*
X113197217Y-82602978D01*
X113171633Y-82599820D01*
X113134701Y-82597608D01*
X113083746Y-82596194D01*
X113016094Y-82595428D01*
X112929069Y-82595162D01*
X112909394Y-82595155D01*
X112820911Y-82595213D01*
X112752227Y-82595533D01*
X112700564Y-82596333D01*
X112663145Y-82597833D01*
X112637190Y-82600251D01*
X112619922Y-82603806D01*
X112608562Y-82608718D01*
X112600332Y-82615205D01*
X112595817Y-82619862D01*
X112589021Y-82628111D01*
X112583712Y-82638331D01*
X112579706Y-82653200D01*
X112576821Y-82675398D01*
X112574874Y-82707607D01*
X112573681Y-82752504D01*
X112573061Y-82812772D01*
X112572829Y-82891089D01*
X112572800Y-82957006D01*
X112572871Y-83049372D01*
X112573208Y-83121883D01*
X112573998Y-83177263D01*
X112575426Y-83218235D01*
X112577679Y-83247522D01*
X112580943Y-83267847D01*
X112585404Y-83281934D01*
X112591248Y-83292505D01*
X112596197Y-83299189D01*
X112619594Y-83328933D01*
X112909774Y-83328933D01*
X113006343Y-83328740D01*
G37*
X113006343Y-83328740D02*
X113082701Y-83327826D01*
X113141217Y-83325689D01*
X113184255Y-83321825D01*
X113214183Y-83315733D01*
X113233368Y-83306910D01*
X113244176Y-83294854D01*
X113248973Y-83279061D01*
X113250127Y-83259030D01*
X113250133Y-83256665D01*
X113249131Y-83234008D01*
X113244396Y-83216497D01*
X113233333Y-83203426D01*
X113213348Y-83194087D01*
X113181846Y-83187773D01*
X113136232Y-83183778D01*
X113073913Y-83181394D01*
X112992293Y-83179914D01*
X112967277Y-83179586D01*
X112725200Y-83176533D01*
X112721814Y-83111622D01*
X112718429Y-83046711D01*
X112886576Y-83046711D01*
X112952266Y-83046469D01*
X112999172Y-83045444D01*
X113031083Y-83043189D01*
X113051791Y-83039258D01*
X113065084Y-83033202D01*
X113074755Y-83024576D01*
X113074817Y-83024507D01*
X113092356Y-82990888D01*
X113091722Y-82954552D01*
X113073314Y-82923577D01*
X113069671Y-82920393D01*
X113056741Y-82912188D01*
X113039024Y-82906479D01*
X113012570Y-82902838D01*
X112973432Y-82900833D01*
X112917662Y-82900036D01*
X112881994Y-82899955D01*
X112719555Y-82899955D01*
X112719555Y-82741911D01*
X112966161Y-82741911D01*
X113047580Y-82741769D01*
X113109410Y-82741186D01*
X113154637Y-82739932D01*
X113186248Y-82737773D01*
X113207231Y-82734477D01*
X113220573Y-82729811D01*
X113229261Y-82723543D01*
X113231450Y-82721267D01*
X113247614Y-82689720D01*
X113248797Y-82653832D01*
X113235536Y-82622715D01*
X113225043Y-82612729D01*
X113214129Y-82607231D01*
X113197217Y-82602978D01*
X113171633Y-82599820D01*
X113134701Y-82597608D01*
X113083746Y-82596194D01*
X113016094Y-82595428D01*
X112929069Y-82595162D01*
X112909394Y-82595155D01*
X112820911Y-82595213D01*
X112752227Y-82595533D01*
X112700564Y-82596333D01*
X112663145Y-82597833D01*
X112637190Y-82600251D01*
X112619922Y-82603806D01*
X112608562Y-82608718D01*
X112600332Y-82615205D01*
X112595817Y-82619862D01*
X112589021Y-82628111D01*
X112583712Y-82638331D01*
X112579706Y-82653200D01*
X112576821Y-82675398D01*
X112574874Y-82707607D01*
X112573681Y-82752504D01*
X112573061Y-82812772D01*
X112572829Y-82891089D01*
X112572800Y-82957006D01*
X112572871Y-83049372D01*
X112573208Y-83121883D01*
X112573998Y-83177263D01*
X112575426Y-83218235D01*
X112577679Y-83247522D01*
X112580943Y-83267847D01*
X112585404Y-83281934D01*
X112591248Y-83292505D01*
X112596197Y-83299189D01*
X112619594Y-83328933D01*
X112909774Y-83328933D01*
X113006343Y-83328740D01*
G36*
X113794309Y-83328725D02*
G01*
X113923288Y-83324364D01*
X114032991Y-83311139D01*
X114125226Y-83288259D01*
X114201802Y-83254930D01*
X114264527Y-83210362D01*
X114315212Y-83153764D01*
X114355663Y-83084342D01*
X114356459Y-83082649D01*
X114380601Y-83020517D01*
X114389203Y-82965491D01*
X114382231Y-82910113D01*
X114359654Y-82846927D01*
X114355372Y-82837311D01*
X114326172Y-82781034D01*
X114293356Y-82737549D01*
X114251002Y-82700583D01*
X114193190Y-82663865D01*
X114189831Y-82661948D01*
X114139504Y-82637773D01*
X114082621Y-82619718D01*
X114015527Y-82607161D01*
X113934565Y-82599478D01*
X113836082Y-82596047D01*
X113801286Y-82595749D01*
X113635594Y-82595155D01*
X113612197Y-82624900D01*
X113605257Y-82634681D01*
X113599842Y-82646103D01*
X113595765Y-82661905D01*
X113592837Y-82684825D01*
X113590867Y-82717604D01*
X113590225Y-82741911D01*
X113746844Y-82741911D01*
X113840726Y-82741911D01*
X113895664Y-82743517D01*
X113952060Y-82747745D01*
X113998345Y-82753708D01*
X114001139Y-82754210D01*
X114083348Y-82776264D01*
X114147114Y-82809400D01*
X114194452Y-82855153D01*
X114227382Y-82915061D01*
X114233108Y-82930939D01*
X114238721Y-82955667D01*
X114236291Y-82980098D01*
X114224467Y-83012600D01*
X114217340Y-83028566D01*
X114194000Y-83070994D01*
X114165880Y-83100760D01*
X114134940Y-83121489D01*
X114072966Y-83148463D01*
X113993651Y-83168002D01*
X113901253Y-83179254D01*
X113834333Y-83181730D01*
X113746844Y-83182178D01*
X113746844Y-82741911D01*
X113590225Y-82741911D01*
X113589668Y-82762979D01*
X113589050Y-82823689D01*
X113588825Y-82902474D01*
X113588800Y-82964080D01*
X113588800Y-83273515D01*
X113616509Y-83301224D01*
X113628806Y-83312456D01*
X113642103Y-83320147D01*
X113660672Y-83324960D01*
X113688786Y-83327554D01*
X113730717Y-83328590D01*
X113790737Y-83328730D01*
X113794309Y-83328725D01*
G37*
X113794309Y-83328725D02*
X113923288Y-83324364D01*
X114032991Y-83311139D01*
X114125226Y-83288259D01*
X114201802Y-83254930D01*
X114264527Y-83210362D01*
X114315212Y-83153764D01*
X114355663Y-83084342D01*
X114356459Y-83082649D01*
X114380601Y-83020517D01*
X114389203Y-82965491D01*
X114382231Y-82910113D01*
X114359654Y-82846927D01*
X114355372Y-82837311D01*
X114326172Y-82781034D01*
X114293356Y-82737549D01*
X114251002Y-82700583D01*
X114193190Y-82663865D01*
X114189831Y-82661948D01*
X114139504Y-82637773D01*
X114082621Y-82619718D01*
X114015527Y-82607161D01*
X113934565Y-82599478D01*
X113836082Y-82596047D01*
X113801286Y-82595749D01*
X113635594Y-82595155D01*
X113612197Y-82624900D01*
X113605257Y-82634681D01*
X113599842Y-82646103D01*
X113595765Y-82661905D01*
X113592837Y-82684825D01*
X113590867Y-82717604D01*
X113590225Y-82741911D01*
X113746844Y-82741911D01*
X113840726Y-82741911D01*
X113895664Y-82743517D01*
X113952060Y-82747745D01*
X113998345Y-82753708D01*
X114001139Y-82754210D01*
X114083348Y-82776264D01*
X114147114Y-82809400D01*
X114194452Y-82855153D01*
X114227382Y-82915061D01*
X114233108Y-82930939D01*
X114238721Y-82955667D01*
X114236291Y-82980098D01*
X114224467Y-83012600D01*
X114217340Y-83028566D01*
X114194000Y-83070994D01*
X114165880Y-83100760D01*
X114134940Y-83121489D01*
X114072966Y-83148463D01*
X113993651Y-83168002D01*
X113901253Y-83179254D01*
X113834333Y-83181730D01*
X113746844Y-83182178D01*
X113746844Y-82741911D01*
X113590225Y-82741911D01*
X113589668Y-82762979D01*
X113589050Y-82823689D01*
X113588825Y-82902474D01*
X113588800Y-82964080D01*
X113588800Y-83273515D01*
X113616509Y-83301224D01*
X113628806Y-83312456D01*
X113642103Y-83320147D01*
X113660672Y-83324960D01*
X113688786Y-83327554D01*
X113730717Y-83328590D01*
X113790737Y-83328730D01*
X113794309Y-83328725D01*
G36*
X116520665Y-83326966D02*
G01*
X116540255Y-83319965D01*
X116541010Y-83319623D01*
X116567613Y-83299322D01*
X116582270Y-83278439D01*
X116585138Y-83268648D01*
X116584996Y-83255639D01*
X116580961Y-83237105D01*
X116572146Y-83210743D01*
X116557669Y-83174248D01*
X116536645Y-83125313D01*
X116508188Y-83061635D01*
X116471415Y-82980907D01*
X116451175Y-82936784D01*
X116414625Y-82858015D01*
X116380315Y-82785577D01*
X116349552Y-82722120D01*
X116323648Y-82670292D01*
X116303910Y-82632741D01*
X116291650Y-82612116D01*
X116289224Y-82609267D01*
X116258183Y-82596698D01*
X116223121Y-82598381D01*
X116195000Y-82613668D01*
X116193854Y-82614911D01*
X116182668Y-82631846D01*
X116163904Y-82664830D01*
X116139875Y-82709620D01*
X116112897Y-82761968D01*
X116103201Y-82781258D01*
X116030014Y-82927850D01*
X115950240Y-82768607D01*
X115921767Y-82713585D01*
X115895350Y-82665868D01*
X115873148Y-82629107D01*
X115857319Y-82606956D01*
X115851954Y-82602259D01*
X115810257Y-82595898D01*
X115775849Y-82609267D01*
X115765728Y-82623554D01*
X115748214Y-82655308D01*
X115724735Y-82701403D01*
X115696720Y-82758715D01*
X115665599Y-82824120D01*
X115632799Y-82894493D01*
X115599750Y-82966709D01*
X115567881Y-83037645D01*
X115538619Y-83104175D01*
X115513395Y-83163174D01*
X115493636Y-83211519D01*
X115480772Y-83246085D01*
X115476231Y-83263747D01*
X115476277Y-83264387D01*
X115487326Y-83286612D01*
X115509410Y-83309247D01*
X115510710Y-83310232D01*
X115537853Y-83325575D01*
X115562958Y-83325426D01*
X115572368Y-83322534D01*
X115583834Y-83316282D01*
X115596010Y-83303986D01*
X115610357Y-83283092D01*
X115628336Y-83251051D01*
X115651407Y-83205312D01*
X115681030Y-83143323D01*
X115707745Y-83086102D01*
X115738480Y-83019774D01*
X115766021Y-82960126D01*
X115788938Y-82910275D01*
X115805798Y-82873336D01*
X115815173Y-82852427D01*
X115816540Y-82849155D01*
X115822689Y-82854503D01*
X115836822Y-82876891D01*
X115857057Y-82913054D01*
X115881515Y-82959723D01*
X115891248Y-82978978D01*
X115924217Y-83043996D01*
X115949643Y-83091346D01*
X115969612Y-83123781D01*
X115986210Y-83144054D01*
X116001524Y-83154918D01*
X116017640Y-83159125D01*
X116028143Y-83159600D01*
X116046670Y-83157958D01*
X116062904Y-83151169D01*
X116079035Y-83136434D01*
X116097251Y-83110956D01*
X116119739Y-83071939D01*
X116148689Y-83016586D01*
X116164662Y-82985097D01*
X116190570Y-82934913D01*
X116213167Y-82893296D01*
X116230458Y-82863758D01*
X116240450Y-82849811D01*
X116241809Y-82849230D01*
X116248261Y-82860207D01*
X116262708Y-82888710D01*
X116283703Y-82931756D01*
X116309797Y-82986362D01*
X116339546Y-83049546D01*
X116354180Y-83080929D01*
X116392250Y-83161922D01*
X116422905Y-83224244D01*
X116447737Y-83269929D01*
X116468337Y-83301011D01*
X116486298Y-83319522D01*
X116503210Y-83327496D01*
X116520665Y-83326966D01*
G37*
X116520665Y-83326966D02*
X116540255Y-83319965D01*
X116541010Y-83319623D01*
X116567613Y-83299322D01*
X116582270Y-83278439D01*
X116585138Y-83268648D01*
X116584996Y-83255639D01*
X116580961Y-83237105D01*
X116572146Y-83210743D01*
X116557669Y-83174248D01*
X116536645Y-83125313D01*
X116508188Y-83061635D01*
X116471415Y-82980907D01*
X116451175Y-82936784D01*
X116414625Y-82858015D01*
X116380315Y-82785577D01*
X116349552Y-82722120D01*
X116323648Y-82670292D01*
X116303910Y-82632741D01*
X116291650Y-82612116D01*
X116289224Y-82609267D01*
X116258183Y-82596698D01*
X116223121Y-82598381D01*
X116195000Y-82613668D01*
X116193854Y-82614911D01*
X116182668Y-82631846D01*
X116163904Y-82664830D01*
X116139875Y-82709620D01*
X116112897Y-82761968D01*
X116103201Y-82781258D01*
X116030014Y-82927850D01*
X115950240Y-82768607D01*
X115921767Y-82713585D01*
X115895350Y-82665868D01*
X115873148Y-82629107D01*
X115857319Y-82606956D01*
X115851954Y-82602259D01*
X115810257Y-82595898D01*
X115775849Y-82609267D01*
X115765728Y-82623554D01*
X115748214Y-82655308D01*
X115724735Y-82701403D01*
X115696720Y-82758715D01*
X115665599Y-82824120D01*
X115632799Y-82894493D01*
X115599750Y-82966709D01*
X115567881Y-83037645D01*
X115538619Y-83104175D01*
X115513395Y-83163174D01*
X115493636Y-83211519D01*
X115480772Y-83246085D01*
X115476231Y-83263747D01*
X115476277Y-83264387D01*
X115487326Y-83286612D01*
X115509410Y-83309247D01*
X115510710Y-83310232D01*
X115537853Y-83325575D01*
X115562958Y-83325426D01*
X115572368Y-83322534D01*
X115583834Y-83316282D01*
X115596010Y-83303986D01*
X115610357Y-83283092D01*
X115628336Y-83251051D01*
X115651407Y-83205312D01*
X115681030Y-83143323D01*
X115707745Y-83086102D01*
X115738480Y-83019774D01*
X115766021Y-82960126D01*
X115788938Y-82910275D01*
X115805798Y-82873336D01*
X115815173Y-82852427D01*
X115816540Y-82849155D01*
X115822689Y-82854503D01*
X115836822Y-82876891D01*
X115857057Y-82913054D01*
X115881515Y-82959723D01*
X115891248Y-82978978D01*
X115924217Y-83043996D01*
X115949643Y-83091346D01*
X115969612Y-83123781D01*
X115986210Y-83144054D01*
X116001524Y-83154918D01*
X116017640Y-83159125D01*
X116028143Y-83159600D01*
X116046670Y-83157958D01*
X116062904Y-83151169D01*
X116079035Y-83136434D01*
X116097251Y-83110956D01*
X116119739Y-83071939D01*
X116148689Y-83016586D01*
X116164662Y-82985097D01*
X116190570Y-82934913D01*
X116213167Y-82893296D01*
X116230458Y-82863758D01*
X116240450Y-82849811D01*
X116241809Y-82849230D01*
X116248261Y-82860207D01*
X116262708Y-82888710D01*
X116283703Y-82931756D01*
X116309797Y-82986362D01*
X116339546Y-83049546D01*
X116354180Y-83080929D01*
X116392250Y-83161922D01*
X116422905Y-83224244D01*
X116447737Y-83269929D01*
X116468337Y-83301011D01*
X116486298Y-83319522D01*
X116503210Y-83327496D01*
X116520665Y-83326966D01*
G36*
X116964614Y-83322123D02*
G01*
X116988327Y-83307353D01*
X117014978Y-83285773D01*
X117014978Y-82964227D01*
X117014893Y-82870170D01*
X117014529Y-82796068D01*
X117013724Y-82739296D01*
X117012313Y-82697232D01*
X117010133Y-82667252D01*
X117007021Y-82646733D01*
X117002814Y-82633051D01*
X116997348Y-82623584D01*
X116993472Y-82618918D01*
X116962034Y-82598425D01*
X116926233Y-82599261D01*
X116894873Y-82616736D01*
X116868222Y-82638316D01*
X116868222Y-83285773D01*
X116894873Y-83307353D01*
X116920594Y-83323051D01*
X116941600Y-83328933D01*
X116964614Y-83322123D01*
G37*
X116964614Y-83322123D02*
X116988327Y-83307353D01*
X117014978Y-83285773D01*
X117014978Y-82964227D01*
X117014893Y-82870170D01*
X117014529Y-82796068D01*
X117013724Y-82739296D01*
X117012313Y-82697232D01*
X117010133Y-82667252D01*
X117007021Y-82646733D01*
X117002814Y-82633051D01*
X116997348Y-82623584D01*
X116993472Y-82618918D01*
X116962034Y-82598425D01*
X116926233Y-82599261D01*
X116894873Y-82616736D01*
X116868222Y-82638316D01*
X116868222Y-83285773D01*
X116894873Y-83307353D01*
X116920594Y-83323051D01*
X116941600Y-83328933D01*
X116964614Y-83322123D01*
G36*
X117739065Y-83328837D02*
G01*
X117817772Y-83328458D01*
X117878863Y-83327667D01*
X117924817Y-83326330D01*
X117958114Y-83324317D01*
X117981236Y-83321494D01*
X117996662Y-83317731D01*
X118006871Y-83312895D01*
X118011813Y-83309178D01*
X118037457Y-83276642D01*
X118040559Y-83242862D01*
X118024711Y-83212174D01*
X118014348Y-83199911D01*
X118003196Y-83191550D01*
X117987035Y-83186343D01*
X117961642Y-83183543D01*
X117922798Y-83182404D01*
X117866280Y-83182179D01*
X117855180Y-83182178D01*
X117709244Y-83182178D01*
X117709244Y-82911244D01*
X117709148Y-82825846D01*
X117708711Y-82760136D01*
X117707712Y-82711226D01*
X117705928Y-82676227D01*
X117703137Y-82652251D01*
X117699117Y-82636407D01*
X117693645Y-82625809D01*
X117686666Y-82617733D01*
X117653734Y-82597888D01*
X117619354Y-82599452D01*
X117588176Y-82622094D01*
X117585886Y-82624900D01*
X117578429Y-82635508D01*
X117572747Y-82647919D01*
X117568601Y-82665150D01*
X117565750Y-82690216D01*
X117563954Y-82726133D01*
X117562972Y-82775917D01*
X117562564Y-82842583D01*
X117562489Y-82918411D01*
X117562489Y-83182178D01*
X117423127Y-83182178D01*
X117363322Y-83182582D01*
X117321918Y-83184160D01*
X117294748Y-83187453D01*
X117277646Y-83193008D01*
X117266443Y-83201369D01*
X117265083Y-83202822D01*
X117248725Y-83236061D01*
X117250172Y-83273638D01*
X117268978Y-83306355D01*
X117276250Y-83312702D01*
X117285627Y-83317734D01*
X117299609Y-83321604D01*
X117320696Y-83324463D01*
X117351389Y-83326465D01*
X117394189Y-83327761D01*
X117451595Y-83328502D01*
X117526110Y-83328842D01*
X117620233Y-83328932D01*
X117640260Y-83328933D01*
X117739065Y-83328837D01*
G37*
X117739065Y-83328837D02*
X117817772Y-83328458D01*
X117878863Y-83327667D01*
X117924817Y-83326330D01*
X117958114Y-83324317D01*
X117981236Y-83321494D01*
X117996662Y-83317731D01*
X118006871Y-83312895D01*
X118011813Y-83309178D01*
X118037457Y-83276642D01*
X118040559Y-83242862D01*
X118024711Y-83212174D01*
X118014348Y-83199911D01*
X118003196Y-83191550D01*
X117987035Y-83186343D01*
X117961642Y-83183543D01*
X117922798Y-83182404D01*
X117866280Y-83182179D01*
X117855180Y-83182178D01*
X117709244Y-83182178D01*
X117709244Y-82911244D01*
X117709148Y-82825846D01*
X117708711Y-82760136D01*
X117707712Y-82711226D01*
X117705928Y-82676227D01*
X117703137Y-82652251D01*
X117699117Y-82636407D01*
X117693645Y-82625809D01*
X117686666Y-82617733D01*
X117653734Y-82597888D01*
X117619354Y-82599452D01*
X117588176Y-82622094D01*
X117585886Y-82624900D01*
X117578429Y-82635508D01*
X117572747Y-82647919D01*
X117568601Y-82665150D01*
X117565750Y-82690216D01*
X117563954Y-82726133D01*
X117562972Y-82775917D01*
X117562564Y-82842583D01*
X117562489Y-82918411D01*
X117562489Y-83182178D01*
X117423127Y-83182178D01*
X117363322Y-83182582D01*
X117321918Y-83184160D01*
X117294748Y-83187453D01*
X117277646Y-83193008D01*
X117266443Y-83201369D01*
X117265083Y-83202822D01*
X117248725Y-83236061D01*
X117250172Y-83273638D01*
X117268978Y-83306355D01*
X117276250Y-83312702D01*
X117285627Y-83317734D01*
X117299609Y-83321604D01*
X117320696Y-83324463D01*
X117351389Y-83326465D01*
X117394189Y-83327761D01*
X117451595Y-83328502D01*
X117526110Y-83328842D01*
X117620233Y-83328932D01*
X117640260Y-83328933D01*
X117739065Y-83328837D01*
G36*
X119004823Y-83323467D02*
G01*
X119036202Y-83301224D01*
X119063911Y-83273515D01*
X119063911Y-82964080D01*
X119063838Y-82872201D01*
X119063495Y-82800160D01*
X119062692Y-82745220D01*
X119061241Y-82704640D01*
X119058952Y-82675683D01*
X119055636Y-82655609D01*
X119051105Y-82641679D01*
X119045169Y-82631155D01*
X119040514Y-82624900D01*
X119009783Y-82600327D01*
X118974496Y-82597659D01*
X118942245Y-82612729D01*
X118931588Y-82621626D01*
X118924464Y-82633443D01*
X118920167Y-82652474D01*
X118917991Y-82683008D01*
X118917228Y-82729338D01*
X118917155Y-82765129D01*
X118917155Y-82899955D01*
X118420444Y-82899955D01*
X118420444Y-82777300D01*
X118419931Y-82721213D01*
X118417876Y-82682667D01*
X118413508Y-82656639D01*
X118406056Y-82638103D01*
X118397047Y-82624900D01*
X118366144Y-82600396D01*
X118331196Y-82597494D01*
X118297738Y-82614911D01*
X118288604Y-82624041D01*
X118282152Y-82636145D01*
X118277897Y-82654999D01*
X118275352Y-82684380D01*
X118274029Y-82728063D01*
X118273443Y-82789825D01*
X118273375Y-82804000D01*
X118272891Y-82920369D01*
X118272641Y-83016273D01*
X118272723Y-83093823D01*
X118273231Y-83155131D01*
X118274262Y-83202310D01*
X118275913Y-83237470D01*
X118278279Y-83262724D01*
X118281457Y-83280183D01*
X118285544Y-83291959D01*
X118290634Y-83300165D01*
X118296266Y-83306355D01*
X118328128Y-83326156D01*
X118361357Y-83323467D01*
X118392735Y-83301224D01*
X118405433Y-83286874D01*
X118413526Y-83271022D01*
X118418042Y-83248446D01*
X118420006Y-83213922D01*
X118420444Y-83162224D01*
X118420444Y-83046711D01*
X118917155Y-83046711D01*
X118917155Y-83165244D01*
X118917662Y-83219852D01*
X118919698Y-83256725D01*
X118924035Y-83280693D01*
X118931447Y-83296585D01*
X118939733Y-83306355D01*
X118971594Y-83326156D01*
X119004823Y-83323467D01*
G37*
X119004823Y-83323467D02*
X119036202Y-83301224D01*
X119063911Y-83273515D01*
X119063911Y-82964080D01*
X119063838Y-82872201D01*
X119063495Y-82800160D01*
X119062692Y-82745220D01*
X119061241Y-82704640D01*
X119058952Y-82675683D01*
X119055636Y-82655609D01*
X119051105Y-82641679D01*
X119045169Y-82631155D01*
X119040514Y-82624900D01*
X119009783Y-82600327D01*
X118974496Y-82597659D01*
X118942245Y-82612729D01*
X118931588Y-82621626D01*
X118924464Y-82633443D01*
X118920167Y-82652474D01*
X118917991Y-82683008D01*
X118917228Y-82729338D01*
X118917155Y-82765129D01*
X118917155Y-82899955D01*
X118420444Y-82899955D01*
X118420444Y-82777300D01*
X118419931Y-82721213D01*
X118417876Y-82682667D01*
X118413508Y-82656639D01*
X118406056Y-82638103D01*
X118397047Y-82624900D01*
X118366144Y-82600396D01*
X118331196Y-82597494D01*
X118297738Y-82614911D01*
X118288604Y-82624041D01*
X118282152Y-82636145D01*
X118277897Y-82654999D01*
X118275352Y-82684380D01*
X118274029Y-82728063D01*
X118273443Y-82789825D01*
X118273375Y-82804000D01*
X118272891Y-82920369D01*
X118272641Y-83016273D01*
X118272723Y-83093823D01*
X118273231Y-83155131D01*
X118274262Y-83202310D01*
X118275913Y-83237470D01*
X118278279Y-83262724D01*
X118281457Y-83280183D01*
X118285544Y-83291959D01*
X118290634Y-83300165D01*
X118296266Y-83306355D01*
X118328128Y-83326156D01*
X118361357Y-83323467D01*
X118392735Y-83301224D01*
X118405433Y-83286874D01*
X118413526Y-83271022D01*
X118418042Y-83248446D01*
X118420006Y-83213922D01*
X118420444Y-83162224D01*
X118420444Y-83046711D01*
X118917155Y-83046711D01*
X118917155Y-83165244D01*
X118917662Y-83219852D01*
X118919698Y-83256725D01*
X118924035Y-83280693D01*
X118931447Y-83296585D01*
X118939733Y-83306355D01*
X118971594Y-83326156D01*
X119004823Y-83323467D01*
G36*
X136521241Y-78032816D02*
G01*
X136547753Y-78019718D01*
X136580447Y-77996894D01*
X136604275Y-77972004D01*
X136620594Y-77940751D01*
X136630760Y-77898834D01*
X136636128Y-77841956D01*
X136638056Y-77765816D01*
X136638169Y-77733083D01*
X136637839Y-77661344D01*
X136636473Y-77610073D01*
X136633500Y-77574596D01*
X136628351Y-77550237D01*
X136620457Y-77532320D01*
X136612243Y-77520098D01*
X136559813Y-77468095D01*
X136498070Y-77436816D01*
X136431464Y-77427408D01*
X136364442Y-77441020D01*
X136343208Y-77450646D01*
X136292376Y-77477141D01*
X136292376Y-77061948D01*
X136329475Y-77081132D01*
X136378357Y-77095975D01*
X136438439Y-77099778D01*
X136498436Y-77092757D01*
X136543744Y-77076987D01*
X136581325Y-77046953D01*
X136613436Y-77003976D01*
X136615850Y-76999564D01*
X136626033Y-76978779D01*
X136633470Y-76957830D01*
X136638589Y-76932452D01*
X136641819Y-76898382D01*
X136643587Y-76851359D01*
X136644323Y-76787118D01*
X136644456Y-76714824D01*
X136644456Y-76484178D01*
X136506139Y-76484178D01*
X136506139Y-76909467D01*
X136467451Y-76942021D01*
X136427262Y-76968060D01*
X136389203Y-76972795D01*
X136350934Y-76960611D01*
X136330538Y-76948680D01*
X136315358Y-76931687D01*
X136304562Y-76906005D01*
X136297317Y-76868009D01*
X136292792Y-76814074D01*
X136290156Y-76740575D01*
X136289228Y-76691653D01*
X136286089Y-76490465D01*
X136220074Y-76486664D01*
X136154060Y-76482864D01*
X136154060Y-77731350D01*
X136292376Y-77731350D01*
X136295903Y-77661746D01*
X136307785Y-77613431D01*
X136329980Y-77583369D01*
X136364441Y-77568529D01*
X136399258Y-77565564D01*
X136438671Y-77568972D01*
X136464829Y-77582383D01*
X136481186Y-77600104D01*
X136494063Y-77619165D01*
X136501728Y-77640399D01*
X136505139Y-77670151D01*
X136505251Y-77714764D01*
X136504103Y-77752120D01*
X136501468Y-77808396D01*
X136497544Y-77845342D01*
X136490937Y-77868777D01*
X136480251Y-77884520D01*
X136470167Y-77893620D01*
X136428030Y-77913463D01*
X136378160Y-77916668D01*
X136349524Y-77909832D01*
X136321172Y-77885536D01*
X136302391Y-77838272D01*
X136293288Y-77768376D01*
X136292376Y-77731350D01*
X136154060Y-77731350D01*
X136154060Y-78043386D01*
X136223218Y-78043386D01*
X136264740Y-78041744D01*
X136286162Y-78035913D01*
X136292374Y-78024539D01*
X136292376Y-78024202D01*
X136295258Y-78013062D01*
X136307970Y-78014327D01*
X136333243Y-78026567D01*
X136392131Y-78045293D01*
X136458385Y-78047261D01*
X136521241Y-78032816D01*
G37*
X136521241Y-78032816D02*
X136547753Y-78019718D01*
X136580447Y-77996894D01*
X136604275Y-77972004D01*
X136620594Y-77940751D01*
X136630760Y-77898834D01*
X136636128Y-77841956D01*
X136638056Y-77765816D01*
X136638169Y-77733083D01*
X136637839Y-77661344D01*
X136636473Y-77610073D01*
X136633500Y-77574596D01*
X136628351Y-77550237D01*
X136620457Y-77532320D01*
X136612243Y-77520098D01*
X136559813Y-77468095D01*
X136498070Y-77436816D01*
X136431464Y-77427408D01*
X136364442Y-77441020D01*
X136343208Y-77450646D01*
X136292376Y-77477141D01*
X136292376Y-77061948D01*
X136329475Y-77081132D01*
X136378357Y-77095975D01*
X136438439Y-77099778D01*
X136498436Y-77092757D01*
X136543744Y-77076987D01*
X136581325Y-77046953D01*
X136613436Y-77003976D01*
X136615850Y-76999564D01*
X136626033Y-76978779D01*
X136633470Y-76957830D01*
X136638589Y-76932452D01*
X136641819Y-76898382D01*
X136643587Y-76851359D01*
X136644323Y-76787118D01*
X136644456Y-76714824D01*
X136644456Y-76484178D01*
X136506139Y-76484178D01*
X136506139Y-76909467D01*
X136467451Y-76942021D01*
X136427262Y-76968060D01*
X136389203Y-76972795D01*
X136350934Y-76960611D01*
X136330538Y-76948680D01*
X136315358Y-76931687D01*
X136304562Y-76906005D01*
X136297317Y-76868009D01*
X136292792Y-76814074D01*
X136290156Y-76740575D01*
X136289228Y-76691653D01*
X136286089Y-76490465D01*
X136220074Y-76486664D01*
X136154060Y-76482864D01*
X136154060Y-77731350D01*
X136292376Y-77731350D01*
X136295903Y-77661746D01*
X136307785Y-77613431D01*
X136329980Y-77583369D01*
X136364441Y-77568529D01*
X136399258Y-77565564D01*
X136438671Y-77568972D01*
X136464829Y-77582383D01*
X136481186Y-77600104D01*
X136494063Y-77619165D01*
X136501728Y-77640399D01*
X136505139Y-77670151D01*
X136505251Y-77714764D01*
X136504103Y-77752120D01*
X136501468Y-77808396D01*
X136497544Y-77845342D01*
X136490937Y-77868777D01*
X136480251Y-77884520D01*
X136470167Y-77893620D01*
X136428030Y-77913463D01*
X136378160Y-77916668D01*
X136349524Y-77909832D01*
X136321172Y-77885536D01*
X136302391Y-77838272D01*
X136293288Y-77768376D01*
X136292376Y-77731350D01*
X136154060Y-77731350D01*
X136154060Y-78043386D01*
X136223218Y-78043386D01*
X136264740Y-78041744D01*
X136286162Y-78035913D01*
X136292374Y-78024539D01*
X136292376Y-78024202D01*
X136295258Y-78013062D01*
X136307970Y-78014327D01*
X136333243Y-78026567D01*
X136392131Y-78045293D01*
X136458385Y-78047261D01*
X136521241Y-78032816D01*
G36*
X137045790Y-77095445D02*
G01*
X137104945Y-77079661D01*
X137149977Y-77051052D01*
X137181754Y-77013581D01*
X137191634Y-76997589D01*
X137198927Y-76980837D01*
X137204026Y-76959408D01*
X137207321Y-76929384D01*
X137209203Y-76886846D01*
X137210063Y-76827878D01*
X137210293Y-76748560D01*
X137210297Y-76727516D01*
X137210297Y-76484178D01*
X137149941Y-76484178D01*
X137111443Y-76486874D01*
X137082977Y-76493705D01*
X137075845Y-76497917D01*
X137056348Y-76505187D01*
X137036434Y-76497917D01*
X137003647Y-76488840D01*
X136956022Y-76485187D01*
X136903236Y-76486772D01*
X136854964Y-76493411D01*
X136826782Y-76501928D01*
X136772247Y-76536937D01*
X136738165Y-76585521D01*
X136722843Y-76650118D01*
X136722701Y-76651777D01*
X136724045Y-76680434D01*
X136845644Y-76680434D01*
X136856274Y-76647839D01*
X136873590Y-76629495D01*
X136908348Y-76615621D01*
X136954227Y-76610083D01*
X137001012Y-76612809D01*
X137038486Y-76623726D01*
X137048985Y-76630731D01*
X137067332Y-76663096D01*
X137071980Y-76699889D01*
X137071980Y-76748237D01*
X137002418Y-76748237D01*
X136936333Y-76743150D01*
X136886236Y-76728737D01*
X136855071Y-76706271D01*
X136845644Y-76680434D01*
X136724045Y-76680434D01*
X136726013Y-76722353D01*
X136749290Y-76778155D01*
X136793052Y-76820353D01*
X136799101Y-76824192D01*
X136825093Y-76836691D01*
X136857265Y-76844260D01*
X136902240Y-76847939D01*
X136955669Y-76848784D01*
X137071980Y-76848831D01*
X137071980Y-76897589D01*
X137067047Y-76935419D01*
X137054457Y-76960764D01*
X137052983Y-76962113D01*
X137024966Y-76973200D01*
X136982674Y-76977497D01*
X136935936Y-76975385D01*
X136894582Y-76967244D01*
X136870043Y-76955035D01*
X136856747Y-76945254D01*
X136842706Y-76943387D01*
X136823329Y-76951400D01*
X136794024Y-76971261D01*
X136750197Y-77004937D01*
X136746175Y-77008091D01*
X136748236Y-77019764D01*
X136765432Y-77039178D01*
X136791567Y-77060752D01*
X136820448Y-77078904D01*
X136829522Y-77083191D01*
X136862620Y-77091744D01*
X136911120Y-77097845D01*
X136965305Y-77100292D01*
X136967839Y-77100297D01*
X137045790Y-77095445D01*
G37*
X137045790Y-77095445D02*
X137104945Y-77079661D01*
X137149977Y-77051052D01*
X137181754Y-77013581D01*
X137191634Y-76997589D01*
X137198927Y-76980837D01*
X137204026Y-76959408D01*
X137207321Y-76929384D01*
X137209203Y-76886846D01*
X137210063Y-76827878D01*
X137210293Y-76748560D01*
X137210297Y-76727516D01*
X137210297Y-76484178D01*
X137149941Y-76484178D01*
X137111443Y-76486874D01*
X137082977Y-76493705D01*
X137075845Y-76497917D01*
X137056348Y-76505187D01*
X137036434Y-76497917D01*
X137003647Y-76488840D01*
X136956022Y-76485187D01*
X136903236Y-76486772D01*
X136854964Y-76493411D01*
X136826782Y-76501928D01*
X136772247Y-76536937D01*
X136738165Y-76585521D01*
X136722843Y-76650118D01*
X136722701Y-76651777D01*
X136724045Y-76680434D01*
X136845644Y-76680434D01*
X136856274Y-76647839D01*
X136873590Y-76629495D01*
X136908348Y-76615621D01*
X136954227Y-76610083D01*
X137001012Y-76612809D01*
X137038486Y-76623726D01*
X137048985Y-76630731D01*
X137067332Y-76663096D01*
X137071980Y-76699889D01*
X137071980Y-76748237D01*
X137002418Y-76748237D01*
X136936333Y-76743150D01*
X136886236Y-76728737D01*
X136855071Y-76706271D01*
X136845644Y-76680434D01*
X136724045Y-76680434D01*
X136726013Y-76722353D01*
X136749290Y-76778155D01*
X136793052Y-76820353D01*
X136799101Y-76824192D01*
X136825093Y-76836691D01*
X136857265Y-76844260D01*
X136902240Y-76847939D01*
X136955669Y-76848784D01*
X137071980Y-76848831D01*
X137071980Y-76897589D01*
X137067047Y-76935419D01*
X137054457Y-76960764D01*
X137052983Y-76962113D01*
X137024966Y-76973200D01*
X136982674Y-76977497D01*
X136935936Y-76975385D01*
X136894582Y-76967244D01*
X136870043Y-76955035D01*
X136856747Y-76945254D01*
X136842706Y-76943387D01*
X136823329Y-76951400D01*
X136794024Y-76971261D01*
X136750197Y-77004937D01*
X136746175Y-77008091D01*
X136748236Y-77019764D01*
X136765432Y-77039178D01*
X136791567Y-77060752D01*
X136820448Y-77078904D01*
X136829522Y-77083191D01*
X136862620Y-77091744D01*
X136911120Y-77097845D01*
X136965305Y-77100292D01*
X136967839Y-77100297D01*
X137045790Y-77095445D01*
G36*
X137436644Y-77098980D02*
G01*
X137455461Y-77093340D01*
X137461527Y-77080947D01*
X137461782Y-77075353D01*
X137462871Y-77059770D01*
X137470368Y-77057324D01*
X137490619Y-77068007D01*
X137502649Y-77075306D01*
X137540600Y-77090937D01*
X137585928Y-77098666D01*
X137633456Y-77099260D01*
X137678005Y-77093487D01*
X137714398Y-77082116D01*
X137737457Y-77065912D01*
X137742004Y-77045645D01*
X137739709Y-77040157D01*
X137722980Y-77017374D01*
X137697037Y-76989353D01*
X137692345Y-76984823D01*
X137667617Y-76963995D01*
X137646282Y-76957265D01*
X137616445Y-76961962D01*
X137604492Y-76965083D01*
X137567295Y-76972579D01*
X137541141Y-76969208D01*
X137519054Y-76957319D01*
X137498822Y-76941365D01*
X137483921Y-76921300D01*
X137473566Y-76893298D01*
X137466971Y-76853533D01*
X137463351Y-76798177D01*
X137461922Y-76723406D01*
X137461782Y-76678260D01*
X137461782Y-76484178D01*
X137336040Y-76484178D01*
X137336040Y-77100317D01*
X137398911Y-77100317D01*
X137436644Y-77098980D01*
G37*
X137436644Y-77098980D02*
X137455461Y-77093340D01*
X137461527Y-77080947D01*
X137461782Y-77075353D01*
X137462871Y-77059770D01*
X137470368Y-77057324D01*
X137490619Y-77068007D01*
X137502649Y-77075306D01*
X137540600Y-77090937D01*
X137585928Y-77098666D01*
X137633456Y-77099260D01*
X137678005Y-77093487D01*
X137714398Y-77082116D01*
X137737457Y-77065912D01*
X137742004Y-77045645D01*
X137739709Y-77040157D01*
X137722980Y-77017374D01*
X137697037Y-76989353D01*
X137692345Y-76984823D01*
X137667617Y-76963995D01*
X137646282Y-76957265D01*
X137616445Y-76961962D01*
X137604492Y-76965083D01*
X137567295Y-76972579D01*
X137541141Y-76969208D01*
X137519054Y-76957319D01*
X137498822Y-76941365D01*
X137483921Y-76921300D01*
X137473566Y-76893298D01*
X137466971Y-76853533D01*
X137463351Y-76798177D01*
X137461922Y-76723406D01*
X137461782Y-76678260D01*
X137461782Y-76484178D01*
X137336040Y-76484178D01*
X137336040Y-77100317D01*
X137398911Y-77100317D01*
X137436644Y-77098980D01*
G36*
X138228812Y-76484178D02*
G01*
X138159654Y-76484178D01*
X138119512Y-76485355D01*
X138098606Y-76490228D01*
X138091078Y-76500814D01*
X138090495Y-76507971D01*
X138089226Y-76522324D01*
X138081221Y-76525077D01*
X138060185Y-76516229D01*
X138043827Y-76507971D01*
X137981023Y-76488403D01*
X137912752Y-76487271D01*
X137857248Y-76501865D01*
X137805562Y-76537123D01*
X137766162Y-76589165D01*
X137744587Y-76650550D01*
X137744038Y-76653982D01*
X137740833Y-76691429D01*
X137739239Y-76745187D01*
X137739367Y-76785845D01*
X137876721Y-76785845D01*
X137879903Y-76731806D01*
X137887141Y-76687265D01*
X137896940Y-76662112D01*
X137934011Y-76627740D01*
X137978026Y-76615418D01*
X138023416Y-76625382D01*
X138062203Y-76655105D01*
X138076892Y-76675095D01*
X138085481Y-76698950D01*
X138089504Y-76733770D01*
X138090495Y-76786070D01*
X138088722Y-76837861D01*
X138084037Y-76883366D01*
X138077397Y-76913819D01*
X138076290Y-76916548D01*
X138049509Y-76949000D01*
X138010421Y-76966817D01*
X137966685Y-76969694D01*
X137925962Y-76957326D01*
X137895913Y-76929407D01*
X137892796Y-76923852D01*
X137883039Y-76889978D01*
X137877723Y-76841272D01*
X137876721Y-76785845D01*
X137739367Y-76785845D01*
X137739432Y-76806460D01*
X137740336Y-76839437D01*
X137746486Y-76921019D01*
X137759267Y-76982270D01*
X137780529Y-77027551D01*
X137812122Y-77061221D01*
X137842793Y-77080986D01*
X137885646Y-77094880D01*
X137938944Y-77099646D01*
X137993520Y-77095764D01*
X138040208Y-77083718D01*
X138064876Y-77069307D01*
X138090495Y-77046122D01*
X138090495Y-77339227D01*
X138228812Y-77339227D01*
X138228812Y-76484178D01*
G37*
X138228812Y-76484178D02*
X138159654Y-76484178D01*
X138119512Y-76485355D01*
X138098606Y-76490228D01*
X138091078Y-76500814D01*
X138090495Y-76507971D01*
X138089226Y-76522324D01*
X138081221Y-76525077D01*
X138060185Y-76516229D01*
X138043827Y-76507971D01*
X137981023Y-76488403D01*
X137912752Y-76487271D01*
X137857248Y-76501865D01*
X137805562Y-76537123D01*
X137766162Y-76589165D01*
X137744587Y-76650550D01*
X137744038Y-76653982D01*
X137740833Y-76691429D01*
X137739239Y-76745187D01*
X137739367Y-76785845D01*
X137876721Y-76785845D01*
X137879903Y-76731806D01*
X137887141Y-76687265D01*
X137896940Y-76662112D01*
X137934011Y-76627740D01*
X137978026Y-76615418D01*
X138023416Y-76625382D01*
X138062203Y-76655105D01*
X138076892Y-76675095D01*
X138085481Y-76698950D01*
X138089504Y-76733770D01*
X138090495Y-76786070D01*
X138088722Y-76837861D01*
X138084037Y-76883366D01*
X138077397Y-76913819D01*
X138076290Y-76916548D01*
X138049509Y-76949000D01*
X138010421Y-76966817D01*
X137966685Y-76969694D01*
X137925962Y-76957326D01*
X137895913Y-76929407D01*
X137892796Y-76923852D01*
X137883039Y-76889978D01*
X137877723Y-76841272D01*
X137876721Y-76785845D01*
X137739367Y-76785845D01*
X137739432Y-76806460D01*
X137740336Y-76839437D01*
X137746486Y-76921019D01*
X137759267Y-76982270D01*
X137780529Y-77027551D01*
X137812122Y-77061221D01*
X137842793Y-77080986D01*
X137885646Y-77094880D01*
X137938944Y-77099646D01*
X137993520Y-77095764D01*
X138040208Y-77083718D01*
X138064876Y-77069307D01*
X138090495Y-77046122D01*
X138090495Y-77339227D01*
X138228812Y-77339227D01*
X138228812Y-76484178D01*
G36*
X138711524Y-77097763D02*
G01*
X138761255Y-77094029D01*
X138891291Y-76704227D01*
X138911678Y-76773386D01*
X138923946Y-76816126D01*
X138940085Y-76873885D01*
X138957512Y-76937375D01*
X138966726Y-76971430D01*
X139001388Y-77100317D01*
X139144391Y-77100317D01*
X139101646Y-76965143D01*
X139080596Y-76898658D01*
X139055167Y-76818461D01*
X139028610Y-76734807D01*
X139004902Y-76660218D01*
X138950902Y-76490465D01*
X138892598Y-76486672D01*
X138834295Y-76482878D01*
X138802679Y-76587266D01*
X138783182Y-76652111D01*
X138761904Y-76723600D01*
X138743308Y-76786737D01*
X138742574Y-76789250D01*
X138728684Y-76832031D01*
X138716429Y-76861221D01*
X138707846Y-76872259D01*
X138706082Y-76870982D01*
X138699891Y-76853870D01*
X138688128Y-76817213D01*
X138672225Y-76765622D01*
X138653614Y-76703706D01*
X138643543Y-76669648D01*
X138589007Y-76484178D01*
X138473264Y-76484178D01*
X138380737Y-76776529D01*
X138354744Y-76858538D01*
X138331066Y-76933013D01*
X138310820Y-76996456D01*
X138295126Y-77045368D01*
X138285102Y-77076251D01*
X138282055Y-77085274D01*
X138284467Y-77094513D01*
X138303408Y-77098559D01*
X138342823Y-77098154D01*
X138348993Y-77097848D01*
X138422086Y-77094029D01*
X138469957Y-76917990D01*
X138487553Y-76853789D01*
X138503277Y-76797351D01*
X138515746Y-76753578D01*
X138523574Y-76727370D01*
X138525020Y-76723097D01*
X138531014Y-76728010D01*
X138543101Y-76753468D01*
X138559893Y-76796003D01*
X138580003Y-76852150D01*
X138597003Y-76902870D01*
X138661794Y-77101496D01*
X138711524Y-77097763D01*
G37*
X138711524Y-77097763D02*
X138761255Y-77094029D01*
X138891291Y-76704227D01*
X138911678Y-76773386D01*
X138923946Y-76816126D01*
X138940085Y-76873885D01*
X138957512Y-76937375D01*
X138966726Y-76971430D01*
X139001388Y-77100317D01*
X139144391Y-77100317D01*
X139101646Y-76965143D01*
X139080596Y-76898658D01*
X139055167Y-76818461D01*
X139028610Y-76734807D01*
X139004902Y-76660218D01*
X138950902Y-76490465D01*
X138892598Y-76486672D01*
X138834295Y-76482878D01*
X138802679Y-76587266D01*
X138783182Y-76652111D01*
X138761904Y-76723600D01*
X138743308Y-76786737D01*
X138742574Y-76789250D01*
X138728684Y-76832031D01*
X138716429Y-76861221D01*
X138707846Y-76872259D01*
X138706082Y-76870982D01*
X138699891Y-76853870D01*
X138688128Y-76817213D01*
X138672225Y-76765622D01*
X138653614Y-76703706D01*
X138643543Y-76669648D01*
X138589007Y-76484178D01*
X138473264Y-76484178D01*
X138380737Y-76776529D01*
X138354744Y-76858538D01*
X138331066Y-76933013D01*
X138310820Y-76996456D01*
X138295126Y-77045368D01*
X138285102Y-77076251D01*
X138282055Y-77085274D01*
X138284467Y-77094513D01*
X138303408Y-77098559D01*
X138342823Y-77098154D01*
X138348993Y-77097848D01*
X138422086Y-77094029D01*
X138469957Y-76917990D01*
X138487553Y-76853789D01*
X138503277Y-76797351D01*
X138515746Y-76753578D01*
X138523574Y-76727370D01*
X138525020Y-76723097D01*
X138531014Y-76728010D01*
X138543101Y-76753468D01*
X138559893Y-76796003D01*
X138580003Y-76852150D01*
X138597003Y-76902870D01*
X138661794Y-77101496D01*
X138711524Y-77097763D01*
G36*
X139468411Y-77096583D02*
G01*
X139521411Y-77083710D01*
X139536731Y-77076890D01*
X139566428Y-77059026D01*
X139589220Y-77038907D01*
X139606083Y-77013038D01*
X139617998Y-76977927D01*
X139625942Y-76930080D01*
X139630894Y-76866004D01*
X139633831Y-76782206D01*
X139634947Y-76726232D01*
X139639052Y-76484178D01*
X139568932Y-76484178D01*
X139526393Y-76485962D01*
X139504476Y-76492058D01*
X139498812Y-76502294D01*
X139495821Y-76513363D01*
X139482451Y-76511246D01*
X139464233Y-76502371D01*
X139418624Y-76488767D01*
X139360007Y-76485101D01*
X139298354Y-76491097D01*
X139243638Y-76506479D01*
X139238730Y-76508614D01*
X139188723Y-76543745D01*
X139155756Y-76592581D01*
X139140587Y-76649667D01*
X139141746Y-76670176D01*
X139265508Y-76670176D01*
X139276413Y-76642575D01*
X139308745Y-76622796D01*
X139360910Y-76612181D01*
X139388787Y-76610772D01*
X139435247Y-76614380D01*
X139466129Y-76628403D01*
X139473664Y-76635069D01*
X139494076Y-76671334D01*
X139498812Y-76704227D01*
X139498812Y-76748237D01*
X139437513Y-76748237D01*
X139366256Y-76744605D01*
X139316276Y-76733182D01*
X139284696Y-76713176D01*
X139277626Y-76704257D01*
X139265508Y-76670176D01*
X139141746Y-76670176D01*
X139143971Y-76709544D01*
X139166663Y-76766756D01*
X139197624Y-76805420D01*
X139216376Y-76822136D01*
X139234733Y-76833122D01*
X139258619Y-76839820D01*
X139293957Y-76843674D01*
X139346669Y-76846127D01*
X139367577Y-76846832D01*
X139498812Y-76851121D01*
X139498620Y-76890842D01*
X139493537Y-76932595D01*
X139475162Y-76957842D01*
X139438039Y-76973970D01*
X139437043Y-76974258D01*
X139384410Y-76980600D01*
X139332906Y-76972316D01*
X139294630Y-76952173D01*
X139279272Y-76942227D01*
X139262730Y-76943603D01*
X139237275Y-76958013D01*
X139222328Y-76968183D01*
X139193091Y-76989912D01*
X139174980Y-77006200D01*
X139172074Y-77010863D01*
X139184040Y-77034995D01*
X139219396Y-77063815D01*
X139234753Y-77073539D01*
X139278901Y-77090286D01*
X139338398Y-77099773D01*
X139404487Y-77101905D01*
X139468411Y-77096583D01*
G37*
X139468411Y-77096583D02*
X139521411Y-77083710D01*
X139536731Y-77076890D01*
X139566428Y-77059026D01*
X139589220Y-77038907D01*
X139606083Y-77013038D01*
X139617998Y-76977927D01*
X139625942Y-76930080D01*
X139630894Y-76866004D01*
X139633831Y-76782206D01*
X139634947Y-76726232D01*
X139639052Y-76484178D01*
X139568932Y-76484178D01*
X139526393Y-76485962D01*
X139504476Y-76492058D01*
X139498812Y-76502294D01*
X139495821Y-76513363D01*
X139482451Y-76511246D01*
X139464233Y-76502371D01*
X139418624Y-76488767D01*
X139360007Y-76485101D01*
X139298354Y-76491097D01*
X139243638Y-76506479D01*
X139238730Y-76508614D01*
X139188723Y-76543745D01*
X139155756Y-76592581D01*
X139140587Y-76649667D01*
X139141746Y-76670176D01*
X139265508Y-76670176D01*
X139276413Y-76642575D01*
X139308745Y-76622796D01*
X139360910Y-76612181D01*
X139388787Y-76610772D01*
X139435247Y-76614380D01*
X139466129Y-76628403D01*
X139473664Y-76635069D01*
X139494076Y-76671334D01*
X139498812Y-76704227D01*
X139498812Y-76748237D01*
X139437513Y-76748237D01*
X139366256Y-76744605D01*
X139316276Y-76733182D01*
X139284696Y-76713176D01*
X139277626Y-76704257D01*
X139265508Y-76670176D01*
X139141746Y-76670176D01*
X139143971Y-76709544D01*
X139166663Y-76766756D01*
X139197624Y-76805420D01*
X139216376Y-76822136D01*
X139234733Y-76833122D01*
X139258619Y-76839820D01*
X139293957Y-76843674D01*
X139346669Y-76846127D01*
X139367577Y-76846832D01*
X139498812Y-76851121D01*
X139498620Y-76890842D01*
X139493537Y-76932595D01*
X139475162Y-76957842D01*
X139438039Y-76973970D01*
X139437043Y-76974258D01*
X139384410Y-76980600D01*
X139332906Y-76972316D01*
X139294630Y-76952173D01*
X139279272Y-76942227D01*
X139262730Y-76943603D01*
X139237275Y-76958013D01*
X139222328Y-76968183D01*
X139193091Y-76989912D01*
X139174980Y-77006200D01*
X139172074Y-77010863D01*
X139184040Y-77034995D01*
X139219396Y-77063815D01*
X139234753Y-77073539D01*
X139278901Y-77090286D01*
X139338398Y-77099773D01*
X139404487Y-77101905D01*
X139468411Y-77096583D01*
G36*
X140065255Y-77100514D02*
G01*
X140113595Y-77090985D01*
X140141114Y-77076875D01*
X140170064Y-77053432D01*
X140128876Y-77001429D01*
X140103482Y-76969936D01*
X140086238Y-76954572D01*
X140069102Y-76952224D01*
X140044027Y-76959783D01*
X140032257Y-76964059D01*
X139984270Y-76970369D01*
X139940324Y-76956844D01*
X139908060Y-76926290D01*
X139902819Y-76916548D01*
X139897112Y-76890742D01*
X139892706Y-76843183D01*
X139889811Y-76777242D01*
X139888631Y-76696290D01*
X139888614Y-76684774D01*
X139888614Y-76484178D01*
X139750297Y-76484178D01*
X139750297Y-77100317D01*
X139819456Y-77100317D01*
X139859333Y-77099275D01*
X139880107Y-77094642D01*
X139887789Y-77084151D01*
X139888614Y-77074255D01*
X139888614Y-77048194D01*
X139921745Y-77074255D01*
X139959735Y-77092035D01*
X140010770Y-77100826D01*
X140065255Y-77100514D01*
G37*
X140065255Y-77100514D02*
X140113595Y-77090985D01*
X140141114Y-77076875D01*
X140170064Y-77053432D01*
X140128876Y-77001429D01*
X140103482Y-76969936D01*
X140086238Y-76954572D01*
X140069102Y-76952224D01*
X140044027Y-76959783D01*
X140032257Y-76964059D01*
X139984270Y-76970369D01*
X139940324Y-76956844D01*
X139908060Y-76926290D01*
X139902819Y-76916548D01*
X139897112Y-76890742D01*
X139892706Y-76843183D01*
X139889811Y-76777242D01*
X139888631Y-76696290D01*
X139888614Y-76684774D01*
X139888614Y-76484178D01*
X139750297Y-76484178D01*
X139750297Y-77100317D01*
X139819456Y-77100317D01*
X139859333Y-77099275D01*
X139880107Y-77094642D01*
X139887789Y-77084151D01*
X139888614Y-77074255D01*
X139888614Y-77048194D01*
X139921745Y-77074255D01*
X139959735Y-77092035D01*
X140010770Y-77100826D01*
X140065255Y-77100514D01*
G36*
X140462581Y-77097030D02*
G01*
X140522685Y-77081403D01*
X140573021Y-77049152D01*
X140597393Y-77025060D01*
X140637345Y-76968105D01*
X140660242Y-76902035D01*
X140668108Y-76820818D01*
X140668148Y-76814252D01*
X140668218Y-76748237D01*
X140288264Y-76748237D01*
X140296363Y-76713658D01*
X140310987Y-76682341D01*
X140336581Y-76649709D01*
X140341935Y-76644500D01*
X140387943Y-76616306D01*
X140440410Y-76611525D01*
X140500803Y-76630074D01*
X140511040Y-76635069D01*
X140542439Y-76650255D01*
X140563470Y-76658906D01*
X140567139Y-76659707D01*
X140579948Y-76651937D01*
X140604378Y-76632928D01*
X140616779Y-76622540D01*
X140642476Y-76598679D01*
X140650915Y-76582923D01*
X140645058Y-76568429D01*
X140641928Y-76564466D01*
X140620725Y-76547121D01*
X140585738Y-76526041D01*
X140561337Y-76513735D01*
X140492072Y-76492054D01*
X140415388Y-76485029D01*
X140342765Y-76493353D01*
X140322426Y-76499314D01*
X140259476Y-76533048D01*
X140212815Y-76584955D01*
X140182173Y-76655541D01*
X140167282Y-76745308D01*
X140165647Y-76792247D01*
X140170421Y-76860587D01*
X140290990Y-76860587D01*
X140302652Y-76855535D01*
X140333998Y-76851571D01*
X140379571Y-76849232D01*
X140410446Y-76848831D01*
X140465981Y-76849217D01*
X140501033Y-76851025D01*
X140520262Y-76855227D01*
X140528330Y-76862797D01*
X140529901Y-76873782D01*
X140519121Y-76907619D01*
X140491980Y-76941060D01*
X140456277Y-76966728D01*
X140420560Y-76977228D01*
X140372048Y-76967914D01*
X140330053Y-76940987D01*
X140300936Y-76902173D01*
X140290990Y-76860587D01*
X140170421Y-76860587D01*
X140172599Y-76891764D01*
X140194055Y-76971051D01*
X140230470Y-77030737D01*
X140282297Y-77071451D01*
X140349990Y-77093821D01*
X140386662Y-77098129D01*
X140462581Y-77097030D01*
G37*
X140462581Y-77097030D02*
X140522685Y-77081403D01*
X140573021Y-77049152D01*
X140597393Y-77025060D01*
X140637345Y-76968105D01*
X140660242Y-76902035D01*
X140668108Y-76820818D01*
X140668148Y-76814252D01*
X140668218Y-76748237D01*
X140288264Y-76748237D01*
X140296363Y-76713658D01*
X140310987Y-76682341D01*
X140336581Y-76649709D01*
X140341935Y-76644500D01*
X140387943Y-76616306D01*
X140440410Y-76611525D01*
X140500803Y-76630074D01*
X140511040Y-76635069D01*
X140542439Y-76650255D01*
X140563470Y-76658906D01*
X140567139Y-76659707D01*
X140579948Y-76651937D01*
X140604378Y-76632928D01*
X140616779Y-76622540D01*
X140642476Y-76598679D01*
X140650915Y-76582923D01*
X140645058Y-76568429D01*
X140641928Y-76564466D01*
X140620725Y-76547121D01*
X140585738Y-76526041D01*
X140561337Y-76513735D01*
X140492072Y-76492054D01*
X140415388Y-76485029D01*
X140342765Y-76493353D01*
X140322426Y-76499314D01*
X140259476Y-76533048D01*
X140212815Y-76584955D01*
X140182173Y-76655541D01*
X140167282Y-76745308D01*
X140165647Y-76792247D01*
X140170421Y-76860587D01*
X140290990Y-76860587D01*
X140302652Y-76855535D01*
X140333998Y-76851571D01*
X140379571Y-76849232D01*
X140410446Y-76848831D01*
X140465981Y-76849217D01*
X140501033Y-76851025D01*
X140520262Y-76855227D01*
X140528330Y-76862797D01*
X140529901Y-76873782D01*
X140519121Y-76907619D01*
X140491980Y-76941060D01*
X140456277Y-76966728D01*
X140420560Y-76977228D01*
X140372048Y-76967914D01*
X140330053Y-76940987D01*
X140300936Y-76902173D01*
X140290990Y-76860587D01*
X140170421Y-76860587D01*
X140172599Y-76891764D01*
X140194055Y-76971051D01*
X140230470Y-77030737D01*
X140282297Y-77071451D01*
X140349990Y-77093821D01*
X140386662Y-77098129D01*
X140462581Y-77097030D01*
G36*
X135891739Y-78036852D02*
G01*
X135957521Y-78007769D01*
X136007460Y-77959207D01*
X136041626Y-77891092D01*
X136060093Y-77803349D01*
X136061417Y-77789649D01*
X136062454Y-77693061D01*
X136049007Y-77608398D01*
X136021892Y-77539779D01*
X136007373Y-77517706D01*
X135956799Y-77470989D01*
X135892391Y-77440732D01*
X135820334Y-77428176D01*
X135746815Y-77434561D01*
X135690928Y-77454228D01*
X135642868Y-77487371D01*
X135603588Y-77530825D01*
X135602908Y-77531842D01*
X135586956Y-77558662D01*
X135576590Y-77585632D01*
X135570312Y-77619668D01*
X135566627Y-77667690D01*
X135565003Y-77707069D01*
X135564328Y-77742781D01*
X135690045Y-77742781D01*
X135691274Y-77707230D01*
X135695734Y-77659906D01*
X135703603Y-77629535D01*
X135717793Y-77607928D01*
X135731083Y-77595306D01*
X135778198Y-77568878D01*
X135827495Y-77565347D01*
X135873407Y-77584361D01*
X135896362Y-77605669D01*
X135912904Y-77627141D01*
X135922579Y-77647687D01*
X135926826Y-77674426D01*
X135927080Y-77714477D01*
X135925772Y-77751362D01*
X135922957Y-77804053D01*
X135918495Y-77838228D01*
X135910452Y-77860520D01*
X135896897Y-77877558D01*
X135886155Y-77887297D01*
X135841223Y-77912877D01*
X135792751Y-77914153D01*
X135752106Y-77899001D01*
X135717433Y-77867358D01*
X135696776Y-77815380D01*
X135690045Y-77742781D01*
X135564328Y-77742781D01*
X135563521Y-77785379D01*
X135566052Y-77843944D01*
X135573638Y-77887993D01*
X135587319Y-77922752D01*
X135608135Y-77953449D01*
X135615853Y-77962564D01*
X135664111Y-78007979D01*
X135715872Y-78034507D01*
X135779172Y-78045621D01*
X135810039Y-78046529D01*
X135891739Y-78036852D01*
G37*
X135891739Y-78036852D02*
X135957521Y-78007769D01*
X136007460Y-77959207D01*
X136041626Y-77891092D01*
X136060093Y-77803349D01*
X136061417Y-77789649D01*
X136062454Y-77693061D01*
X136049007Y-77608398D01*
X136021892Y-77539779D01*
X136007373Y-77517706D01*
X135956799Y-77470989D01*
X135892391Y-77440732D01*
X135820334Y-77428176D01*
X135746815Y-77434561D01*
X135690928Y-77454228D01*
X135642868Y-77487371D01*
X135603588Y-77530825D01*
X135602908Y-77531842D01*
X135586956Y-77558662D01*
X135576590Y-77585632D01*
X135570312Y-77619668D01*
X135566627Y-77667690D01*
X135565003Y-77707069D01*
X135564328Y-77742781D01*
X135690045Y-77742781D01*
X135691274Y-77707230D01*
X135695734Y-77659906D01*
X135703603Y-77629535D01*
X135717793Y-77607928D01*
X135731083Y-77595306D01*
X135778198Y-77568878D01*
X135827495Y-77565347D01*
X135873407Y-77584361D01*
X135896362Y-77605669D01*
X135912904Y-77627141D01*
X135922579Y-77647687D01*
X135926826Y-77674426D01*
X135927080Y-77714477D01*
X135925772Y-77751362D01*
X135922957Y-77804053D01*
X135918495Y-77838228D01*
X135910452Y-77860520D01*
X135896897Y-77877558D01*
X135886155Y-77887297D01*
X135841223Y-77912877D01*
X135792751Y-77914153D01*
X135752106Y-77899001D01*
X135717433Y-77867358D01*
X135696776Y-77815380D01*
X135690045Y-77742781D01*
X135564328Y-77742781D01*
X135563521Y-77785379D01*
X135566052Y-77843944D01*
X135573638Y-77887993D01*
X135587319Y-77922752D01*
X135608135Y-77953449D01*
X135615853Y-77962564D01*
X135664111Y-78007979D01*
X135715872Y-78034507D01*
X135779172Y-78045621D01*
X135810039Y-78046529D01*
X135891739Y-78036852D01*
G36*
X137073301Y-78029386D02*
G01*
X137085832Y-78023486D01*
X137129201Y-77991717D01*
X137170210Y-77945354D01*
X137200832Y-77894304D01*
X137209541Y-77870834D01*
X137217488Y-77828909D01*
X137222226Y-77778243D01*
X137222801Y-77757321D01*
X137222871Y-77691307D01*
X136842917Y-77691307D01*
X136851017Y-77656727D01*
X136870896Y-77615830D01*
X136905653Y-77580486D01*
X136947002Y-77557718D01*
X136973351Y-77552990D01*
X137009084Y-77558727D01*
X137051718Y-77573118D01*
X137066201Y-77579738D01*
X137119760Y-77606487D01*
X137165467Y-77571624D01*
X137191842Y-77548045D01*
X137205876Y-77528583D01*
X137206586Y-77522871D01*
X137194049Y-77509027D01*
X137166572Y-77487988D01*
X137141634Y-77471575D01*
X137074336Y-77442070D01*
X136998890Y-77428716D01*
X136924112Y-77432188D01*
X136864505Y-77450337D01*
X136803059Y-77489216D01*
X136759392Y-77540405D01*
X136732074Y-77606633D01*
X136719678Y-77690629D01*
X136718579Y-77729064D01*
X136722978Y-77817139D01*
X136723518Y-77819701D01*
X136849418Y-77819701D01*
X136852885Y-77811442D01*
X136867137Y-77806887D01*
X136896530Y-77804935D01*
X136945425Y-77804483D01*
X136964252Y-77804475D01*
X137021533Y-77805157D01*
X137057859Y-77807636D01*
X137077396Y-77812557D01*
X137084310Y-77820566D01*
X137084555Y-77823138D01*
X137076664Y-77843577D01*
X137056915Y-77872211D01*
X137048425Y-77882237D01*
X137016906Y-77910592D01*
X136984051Y-77921741D01*
X136966349Y-77922673D01*
X136918461Y-77911019D01*
X136878301Y-77879715D01*
X136852827Y-77834248D01*
X136852375Y-77832767D01*
X136849418Y-77819701D01*
X136723518Y-77819701D01*
X136737608Y-77886490D01*
X136763962Y-77941975D01*
X136796193Y-77981361D01*
X136855783Y-78024069D01*
X136925832Y-78046891D01*
X137000339Y-78048954D01*
X137073301Y-78029386D01*
G37*
X137073301Y-78029386D02*
X137085832Y-78023486D01*
X137129201Y-77991717D01*
X137170210Y-77945354D01*
X137200832Y-77894304D01*
X137209541Y-77870834D01*
X137217488Y-77828909D01*
X137222226Y-77778243D01*
X137222801Y-77757321D01*
X137222871Y-77691307D01*
X136842917Y-77691307D01*
X136851017Y-77656727D01*
X136870896Y-77615830D01*
X136905653Y-77580486D01*
X136947002Y-77557718D01*
X136973351Y-77552990D01*
X137009084Y-77558727D01*
X137051718Y-77573118D01*
X137066201Y-77579738D01*
X137119760Y-77606487D01*
X137165467Y-77571624D01*
X137191842Y-77548045D01*
X137205876Y-77528583D01*
X137206586Y-77522871D01*
X137194049Y-77509027D01*
X137166572Y-77487988D01*
X137141634Y-77471575D01*
X137074336Y-77442070D01*
X136998890Y-77428716D01*
X136924112Y-77432188D01*
X136864505Y-77450337D01*
X136803059Y-77489216D01*
X136759392Y-77540405D01*
X136732074Y-77606633D01*
X136719678Y-77690629D01*
X136718579Y-77729064D01*
X136722978Y-77817139D01*
X136723518Y-77819701D01*
X136849418Y-77819701D01*
X136852885Y-77811442D01*
X136867137Y-77806887D01*
X136896530Y-77804935D01*
X136945425Y-77804483D01*
X136964252Y-77804475D01*
X137021533Y-77805157D01*
X137057859Y-77807636D01*
X137077396Y-77812557D01*
X137084310Y-77820566D01*
X137084555Y-77823138D01*
X137076664Y-77843577D01*
X137056915Y-77872211D01*
X137048425Y-77882237D01*
X137016906Y-77910592D01*
X136984051Y-77921741D01*
X136966349Y-77922673D01*
X136918461Y-77911019D01*
X136878301Y-77879715D01*
X136852827Y-77834248D01*
X136852375Y-77832767D01*
X136849418Y-77819701D01*
X136723518Y-77819701D01*
X136737608Y-77886490D01*
X136763962Y-77941975D01*
X136796193Y-77981361D01*
X136855783Y-78024069D01*
X136925832Y-78046891D01*
X137000339Y-78048954D01*
X137073301Y-78029386D01*
G36*
X138444017Y-78045548D02*
G01*
X138491634Y-78036518D01*
X138541034Y-78017630D01*
X138546312Y-78015223D01*
X138583774Y-77995524D01*
X138609717Y-77977219D01*
X138618103Y-77965492D01*
X138610117Y-77946368D01*
X138590720Y-77918150D01*
X138582110Y-77907616D01*
X138546628Y-77866153D01*
X138500885Y-77893142D01*
X138457350Y-77911122D01*
X138407050Y-77920733D01*
X138358812Y-77921340D01*
X138321467Y-77912309D01*
X138312505Y-77906673D01*
X138295437Y-77880829D01*
X138293363Y-77851059D01*
X138306134Y-77827803D01*
X138313688Y-77823292D01*
X138336325Y-77817691D01*
X138376115Y-77811108D01*
X138425166Y-77804817D01*
X138434215Y-77803830D01*
X138512996Y-77790202D01*
X138570136Y-77767054D01*
X138608030Y-77732248D01*
X138629079Y-77683646D01*
X138635635Y-77624282D01*
X138626577Y-77556802D01*
X138597164Y-77503812D01*
X138547278Y-77465217D01*
X138476800Y-77440919D01*
X138398565Y-77431333D01*
X138334766Y-77431448D01*
X138283016Y-77440155D01*
X138247673Y-77452175D01*
X138203017Y-77473120D01*
X138161747Y-77497426D01*
X138147079Y-77508124D01*
X138109357Y-77538916D01*
X138154852Y-77584951D01*
X138200347Y-77630987D01*
X138252072Y-77596757D01*
X138303952Y-77571048D01*
X138359351Y-77557601D01*
X138412605Y-77556182D01*
X138458049Y-77566557D01*
X138490016Y-77588493D01*
X138500338Y-77607002D01*
X138498789Y-77636686D01*
X138473140Y-77659385D01*
X138423460Y-77675060D01*
X138369031Y-77682305D01*
X138285264Y-77696127D01*
X138223033Y-77722204D01*
X138181507Y-77761301D01*
X138159853Y-77814180D01*
X138156853Y-77876874D01*
X138171671Y-77942358D01*
X138205454Y-77991856D01*
X138258505Y-78025592D01*
X138331126Y-78043793D01*
X138384928Y-78047361D01*
X138444017Y-78045548D01*
G37*
X138444017Y-78045548D02*
X138491634Y-78036518D01*
X138541034Y-78017630D01*
X138546312Y-78015223D01*
X138583774Y-77995524D01*
X138609717Y-77977219D01*
X138618103Y-77965492D01*
X138610117Y-77946368D01*
X138590720Y-77918150D01*
X138582110Y-77907616D01*
X138546628Y-77866153D01*
X138500885Y-77893142D01*
X138457350Y-77911122D01*
X138407050Y-77920733D01*
X138358812Y-77921340D01*
X138321467Y-77912309D01*
X138312505Y-77906673D01*
X138295437Y-77880829D01*
X138293363Y-77851059D01*
X138306134Y-77827803D01*
X138313688Y-77823292D01*
X138336325Y-77817691D01*
X138376115Y-77811108D01*
X138425166Y-77804817D01*
X138434215Y-77803830D01*
X138512996Y-77790202D01*
X138570136Y-77767054D01*
X138608030Y-77732248D01*
X138629079Y-77683646D01*
X138635635Y-77624282D01*
X138626577Y-77556802D01*
X138597164Y-77503812D01*
X138547278Y-77465217D01*
X138476800Y-77440919D01*
X138398565Y-77431333D01*
X138334766Y-77431448D01*
X138283016Y-77440155D01*
X138247673Y-77452175D01*
X138203017Y-77473120D01*
X138161747Y-77497426D01*
X138147079Y-77508124D01*
X138109357Y-77538916D01*
X138154852Y-77584951D01*
X138200347Y-77630987D01*
X138252072Y-77596757D01*
X138303952Y-77571048D01*
X138359351Y-77557601D01*
X138412605Y-77556182D01*
X138458049Y-77566557D01*
X138490016Y-77588493D01*
X138500338Y-77607002D01*
X138498789Y-77636686D01*
X138473140Y-77659385D01*
X138423460Y-77675060D01*
X138369031Y-77682305D01*
X138285264Y-77696127D01*
X138223033Y-77722204D01*
X138181507Y-77761301D01*
X138159853Y-77814180D01*
X138156853Y-77876874D01*
X138171671Y-77942358D01*
X138205454Y-77991856D01*
X138258505Y-78025592D01*
X138331126Y-78043793D01*
X138384928Y-78047361D01*
X138444017Y-78045548D01*
G36*
X139040762Y-78035945D02*
G01*
X139104363Y-78001308D01*
X139154123Y-77946628D01*
X139177568Y-77902158D01*
X139187634Y-77862879D01*
X139194156Y-77806884D01*
X139196951Y-77742379D01*
X139195836Y-77677571D01*
X139190626Y-77620666D01*
X139184541Y-77590273D01*
X139164014Y-77548694D01*
X139128463Y-77504532D01*
X139085619Y-77465913D01*
X139043211Y-77440966D01*
X139042177Y-77440570D01*
X138989553Y-77429669D01*
X138927188Y-77429399D01*
X138867924Y-77439324D01*
X138845040Y-77447278D01*
X138786102Y-77480700D01*
X138743890Y-77524489D01*
X138716156Y-77582462D01*
X138700651Y-77658435D01*
X138697143Y-77698229D01*
X138697590Y-77748234D01*
X138832376Y-77748234D01*
X138836917Y-77675268D01*
X138849986Y-77619666D01*
X138870756Y-77584139D01*
X138885552Y-77573980D01*
X138923464Y-77566896D01*
X138968527Y-77568993D01*
X139007487Y-77579188D01*
X139017704Y-77584796D01*
X139044659Y-77617462D01*
X139062451Y-77667455D01*
X139070024Y-77728295D01*
X139066325Y-77793503D01*
X139058057Y-77832747D01*
X139034320Y-77878195D01*
X138996849Y-77906604D01*
X138951720Y-77916427D01*
X138905011Y-77906113D01*
X138869132Y-77880888D01*
X138850277Y-77860075D01*
X138839272Y-77839561D01*
X138834026Y-77811797D01*
X138832449Y-77769238D01*
X138832376Y-77748234D01*
X138697590Y-77748234D01*
X138698094Y-77804420D01*
X138715388Y-77891499D01*
X138749029Y-77959470D01*
X138799018Y-78008336D01*
X138865356Y-78038101D01*
X138879601Y-78041552D01*
X138965210Y-78049655D01*
X139040762Y-78035945D01*
G37*
X139040762Y-78035945D02*
X139104363Y-78001308D01*
X139154123Y-77946628D01*
X139177568Y-77902158D01*
X139187634Y-77862879D01*
X139194156Y-77806884D01*
X139196951Y-77742379D01*
X139195836Y-77677571D01*
X139190626Y-77620666D01*
X139184541Y-77590273D01*
X139164014Y-77548694D01*
X139128463Y-77504532D01*
X139085619Y-77465913D01*
X139043211Y-77440966D01*
X139042177Y-77440570D01*
X138989553Y-77429669D01*
X138927188Y-77429399D01*
X138867924Y-77439324D01*
X138845040Y-77447278D01*
X138786102Y-77480700D01*
X138743890Y-77524489D01*
X138716156Y-77582462D01*
X138700651Y-77658435D01*
X138697143Y-77698229D01*
X138697590Y-77748234D01*
X138832376Y-77748234D01*
X138836917Y-77675268D01*
X138849986Y-77619666D01*
X138870756Y-77584139D01*
X138885552Y-77573980D01*
X138923464Y-77566896D01*
X138968527Y-77568993D01*
X139007487Y-77579188D01*
X139017704Y-77584796D01*
X139044659Y-77617462D01*
X139062451Y-77667455D01*
X139070024Y-77728295D01*
X139066325Y-77793503D01*
X139058057Y-77832747D01*
X139034320Y-77878195D01*
X138996849Y-77906604D01*
X138951720Y-77916427D01*
X138905011Y-77906113D01*
X138869132Y-77880888D01*
X138850277Y-77860075D01*
X138839272Y-77839561D01*
X138834026Y-77811797D01*
X138832449Y-77769238D01*
X138832376Y-77748234D01*
X138697590Y-77748234D01*
X138698094Y-77804420D01*
X138715388Y-77891499D01*
X138749029Y-77959470D01*
X138799018Y-78008336D01*
X138865356Y-78038101D01*
X138879601Y-78041552D01*
X138965210Y-78049655D01*
X139040762Y-78035945D01*
G36*
X139423367Y-77847658D02*
G01*
X139424555Y-77755437D01*
X139428897Y-77685390D01*
X139437558Y-77634619D01*
X139451704Y-77600228D01*
X139472500Y-77579321D01*
X139501110Y-77569000D01*
X139536535Y-77566364D01*
X139573636Y-77569318D01*
X139601818Y-77580111D01*
X139622243Y-77601640D01*
X139636079Y-77636801D01*
X139644491Y-77688490D01*
X139648643Y-77759606D01*
X139649703Y-77847658D01*
X139649703Y-78043386D01*
X139788020Y-78043386D01*
X139788020Y-77439821D01*
X139718862Y-77439821D01*
X139677170Y-77441511D01*
X139655701Y-77447444D01*
X139649703Y-77458707D01*
X139646091Y-77468739D01*
X139631714Y-77466617D01*
X139602736Y-77452420D01*
X139536319Y-77430520D01*
X139465875Y-77432072D01*
X139398377Y-77455853D01*
X139366233Y-77474638D01*
X139341715Y-77494978D01*
X139323804Y-77520427D01*
X139311479Y-77554542D01*
X139303723Y-77600879D01*
X139299516Y-77662993D01*
X139297840Y-77744439D01*
X139297624Y-77807422D01*
X139297624Y-78043386D01*
X139423367Y-78043386D01*
X139423367Y-77847658D01*
G37*
X139423367Y-77847658D02*
X139424555Y-77755437D01*
X139428897Y-77685390D01*
X139437558Y-77634619D01*
X139451704Y-77600228D01*
X139472500Y-77579321D01*
X139501110Y-77569000D01*
X139536535Y-77566364D01*
X139573636Y-77569318D01*
X139601818Y-77580111D01*
X139622243Y-77601640D01*
X139636079Y-77636801D01*
X139644491Y-77688490D01*
X139648643Y-77759606D01*
X139649703Y-77847658D01*
X139649703Y-78043386D01*
X139788020Y-78043386D01*
X139788020Y-77439821D01*
X139718862Y-77439821D01*
X139677170Y-77441511D01*
X139655701Y-77447444D01*
X139649703Y-77458707D01*
X139646091Y-77468739D01*
X139631714Y-77466617D01*
X139602736Y-77452420D01*
X139536319Y-77430520D01*
X139465875Y-77432072D01*
X139398377Y-77455853D01*
X139366233Y-77474638D01*
X139341715Y-77494978D01*
X139323804Y-77520427D01*
X139311479Y-77554542D01*
X139303723Y-77600879D01*
X139299516Y-77662993D01*
X139297840Y-77744439D01*
X139297624Y-77807422D01*
X139297624Y-78043386D01*
X139423367Y-78043386D01*
X139423367Y-77847658D01*
G36*
X140647226Y-78038120D02*
G01*
X140720080Y-78007170D01*
X140743027Y-77992105D01*
X140772354Y-77968952D01*
X140790764Y-77950747D01*
X140793961Y-77944817D01*
X140784935Y-77931660D01*
X140761837Y-77909333D01*
X140743344Y-77893750D01*
X140692728Y-77853074D01*
X140652760Y-77886705D01*
X140621874Y-77908416D01*
X140591759Y-77915910D01*
X140557292Y-77914080D01*
X140502561Y-77900472D01*
X140464886Y-77872228D01*
X140441991Y-77826567D01*
X140431597Y-77760711D01*
X140431595Y-77760669D01*
X140432494Y-77687061D01*
X140446463Y-77633054D01*
X140474328Y-77596284D01*
X140493325Y-77583832D01*
X140543776Y-77568327D01*
X140597663Y-77568317D01*
X140644546Y-77583362D01*
X140655644Y-77590713D01*
X140683476Y-77609489D01*
X140705236Y-77612566D01*
X140728704Y-77598591D01*
X140754649Y-77573490D01*
X140795716Y-77531120D01*
X140750121Y-77493536D01*
X140679674Y-77451118D01*
X140600233Y-77430215D01*
X140517215Y-77431728D01*
X140462694Y-77445589D01*
X140398970Y-77479865D01*
X140348005Y-77533788D01*
X140324851Y-77571851D01*
X140306099Y-77626464D01*
X140296715Y-77695631D01*
X140296643Y-77770593D01*
X140305824Y-77842591D01*
X140324199Y-77902863D01*
X140327093Y-77909042D01*
X140369952Y-77969649D01*
X140427979Y-78013776D01*
X140496591Y-78040507D01*
X140571201Y-78048927D01*
X140647226Y-78038120D01*
G37*
X140647226Y-78038120D02*
X140720080Y-78007170D01*
X140743027Y-77992105D01*
X140772354Y-77968952D01*
X140790764Y-77950747D01*
X140793961Y-77944817D01*
X140784935Y-77931660D01*
X140761837Y-77909333D01*
X140743344Y-77893750D01*
X140692728Y-77853074D01*
X140652760Y-77886705D01*
X140621874Y-77908416D01*
X140591759Y-77915910D01*
X140557292Y-77914080D01*
X140502561Y-77900472D01*
X140464886Y-77872228D01*
X140441991Y-77826567D01*
X140431597Y-77760711D01*
X140431595Y-77760669D01*
X140432494Y-77687061D01*
X140446463Y-77633054D01*
X140474328Y-77596284D01*
X140493325Y-77583832D01*
X140543776Y-77568327D01*
X140597663Y-77568317D01*
X140644546Y-77583362D01*
X140655644Y-77590713D01*
X140683476Y-77609489D01*
X140705236Y-77612566D01*
X140728704Y-77598591D01*
X140754649Y-77573490D01*
X140795716Y-77531120D01*
X140750121Y-77493536D01*
X140679674Y-77451118D01*
X140600233Y-77430215D01*
X140517215Y-77431728D01*
X140462694Y-77445589D01*
X140398970Y-77479865D01*
X140348005Y-77533788D01*
X140324851Y-77571851D01*
X140306099Y-77626464D01*
X140296715Y-77695631D01*
X140296643Y-77770593D01*
X140305824Y-77842591D01*
X140324199Y-77902863D01*
X140327093Y-77909042D01*
X140369952Y-77969649D01*
X140427979Y-78013776D01*
X140496591Y-78040507D01*
X140571201Y-78048927D01*
X140647226Y-78038120D01*
G36*
X141107898Y-78045543D02*
G01*
X141140096Y-78037721D01*
X141201825Y-78009079D01*
X141254610Y-77965333D01*
X141291141Y-77912883D01*
X141296160Y-77901107D01*
X141303045Y-77870260D01*
X141307864Y-77824629D01*
X141309505Y-77778508D01*
X141309505Y-77691307D01*
X141127178Y-77691307D01*
X141051979Y-77691022D01*
X140999003Y-77689296D01*
X140965325Y-77684819D01*
X140948020Y-77676280D01*
X140944163Y-77662370D01*
X140950829Y-77641778D01*
X140962770Y-77617685D01*
X140996080Y-77577475D01*
X141042368Y-77557442D01*
X141098944Y-77558095D01*
X141163031Y-77579899D01*
X141218417Y-77606807D01*
X141264375Y-77570468D01*
X141310333Y-77534128D01*
X141267096Y-77494181D01*
X141209374Y-77456437D01*
X141138386Y-77433680D01*
X141062029Y-77427312D01*
X140988199Y-77438732D01*
X140976287Y-77442607D01*
X140911399Y-77476494D01*
X140863130Y-77527014D01*
X140830465Y-77595675D01*
X140812385Y-77683986D01*
X140812175Y-77685879D01*
X140810556Y-77782122D01*
X140817100Y-77816458D01*
X140944852Y-77816458D01*
X140956584Y-77811178D01*
X140988438Y-77807133D01*
X141035397Y-77804824D01*
X141065154Y-77804475D01*
X141120648Y-77804694D01*
X141155346Y-77806084D01*
X141173601Y-77809749D01*
X141179766Y-77816790D01*
X141178195Y-77828310D01*
X141176878Y-77832767D01*
X141154382Y-77874645D01*
X141119003Y-77908396D01*
X141087780Y-77923227D01*
X141046301Y-77922332D01*
X141004269Y-77903836D01*
X140969012Y-77873214D01*
X140947854Y-77835938D01*
X140944852Y-77816458D01*
X140817100Y-77816458D01*
X140826690Y-77866771D01*
X140858698Y-77937809D01*
X140904701Y-77993221D01*
X140962821Y-78030991D01*
X141031180Y-78049104D01*
X141107898Y-78045543D01*
G37*
X141107898Y-78045543D02*
X141140096Y-78037721D01*
X141201825Y-78009079D01*
X141254610Y-77965333D01*
X141291141Y-77912883D01*
X141296160Y-77901107D01*
X141303045Y-77870260D01*
X141307864Y-77824629D01*
X141309505Y-77778508D01*
X141309505Y-77691307D01*
X141127178Y-77691307D01*
X141051979Y-77691022D01*
X140999003Y-77689296D01*
X140965325Y-77684819D01*
X140948020Y-77676280D01*
X140944163Y-77662370D01*
X140950829Y-77641778D01*
X140962770Y-77617685D01*
X140996080Y-77577475D01*
X141042368Y-77557442D01*
X141098944Y-77558095D01*
X141163031Y-77579899D01*
X141218417Y-77606807D01*
X141264375Y-77570468D01*
X141310333Y-77534128D01*
X141267096Y-77494181D01*
X141209374Y-77456437D01*
X141138386Y-77433680D01*
X141062029Y-77427312D01*
X140988199Y-77438732D01*
X140976287Y-77442607D01*
X140911399Y-77476494D01*
X140863130Y-77527014D01*
X140830465Y-77595675D01*
X140812385Y-77683986D01*
X140812175Y-77685879D01*
X140810556Y-77782122D01*
X140817100Y-77816458D01*
X140944852Y-77816458D01*
X140956584Y-77811178D01*
X140988438Y-77807133D01*
X141035397Y-77804824D01*
X141065154Y-77804475D01*
X141120648Y-77804694D01*
X141155346Y-77806084D01*
X141173601Y-77809749D01*
X141179766Y-77816790D01*
X141178195Y-77828310D01*
X141176878Y-77832767D01*
X141154382Y-77874645D01*
X141119003Y-77908396D01*
X141087780Y-77923227D01*
X141046301Y-77922332D01*
X141004269Y-77903836D01*
X140969012Y-77873214D01*
X140947854Y-77835938D01*
X140944852Y-77816458D01*
X140817100Y-77816458D01*
X140826690Y-77866771D01*
X140858698Y-77937809D01*
X140904701Y-77993221D01*
X140962821Y-78030991D01*
X141031180Y-78049104D01*
X141107898Y-78045543D01*
G36*
X137675988Y-78032998D02*
G01*
X137707283Y-78018050D01*
X137737591Y-77996459D01*
X137760682Y-77971609D01*
X137777500Y-77939913D01*
X137788994Y-77897786D01*
X137796109Y-77841642D01*
X137799793Y-77767894D01*
X137800992Y-77672956D01*
X137801011Y-77663015D01*
X137801287Y-77439821D01*
X137662970Y-77439821D01*
X137662970Y-77645582D01*
X137662872Y-77721811D01*
X137662191Y-77777061D01*
X137660349Y-77815499D01*
X137656767Y-77841294D01*
X137650868Y-77858616D01*
X137642073Y-77871632D01*
X137629820Y-77884493D01*
X137586953Y-77912127D01*
X137540157Y-77917255D01*
X137495576Y-77899783D01*
X137480072Y-77886779D01*
X137468690Y-77874553D01*
X137460519Y-77861460D01*
X137455026Y-77843385D01*
X137451680Y-77816213D01*
X137449949Y-77775830D01*
X137449303Y-77718121D01*
X137449208Y-77647868D01*
X137449208Y-77439821D01*
X137310891Y-77439821D01*
X137310891Y-78043386D01*
X137380050Y-78043386D01*
X137421572Y-78041744D01*
X137442994Y-78035913D01*
X137449205Y-78024539D01*
X137449208Y-78024202D01*
X137452090Y-78013062D01*
X137464801Y-78014326D01*
X137490074Y-78026566D01*
X137547395Y-78044576D01*
X137612963Y-78046579D01*
X137675988Y-78032998D01*
G37*
X137675988Y-78032998D02*
X137707283Y-78018050D01*
X137737591Y-77996459D01*
X137760682Y-77971609D01*
X137777500Y-77939913D01*
X137788994Y-77897786D01*
X137796109Y-77841642D01*
X137799793Y-77767894D01*
X137800992Y-77672956D01*
X137801011Y-77663015D01*
X137801287Y-77439821D01*
X137662970Y-77439821D01*
X137662970Y-77645582D01*
X137662872Y-77721811D01*
X137662191Y-77777061D01*
X137660349Y-77815499D01*
X137656767Y-77841294D01*
X137650868Y-77858616D01*
X137642073Y-77871632D01*
X137629820Y-77884493D01*
X137586953Y-77912127D01*
X137540157Y-77917255D01*
X137495576Y-77899783D01*
X137480072Y-77886779D01*
X137468690Y-77874553D01*
X137460519Y-77861460D01*
X137455026Y-77843385D01*
X137451680Y-77816213D01*
X137449949Y-77775830D01*
X137449303Y-77718121D01*
X137449208Y-77647868D01*
X137449208Y-77439821D01*
X137310891Y-77439821D01*
X137310891Y-78043386D01*
X137380050Y-78043386D01*
X137421572Y-78041744D01*
X137442994Y-78035913D01*
X137449205Y-78024539D01*
X137449208Y-78024202D01*
X137452090Y-78013062D01*
X137464801Y-78014326D01*
X137490074Y-78026566D01*
X137547395Y-78044576D01*
X137612963Y-78046579D01*
X137675988Y-78032998D01*
G36*
X140229460Y-78043970D02*
G01*
X140272711Y-78030755D01*
X140300558Y-78014059D01*
X140309629Y-78000855D01*
X140307132Y-77985203D01*
X140290931Y-77960615D01*
X140277232Y-77943200D01*
X140248992Y-77911717D01*
X140227775Y-77898471D01*
X140209688Y-77899336D01*
X140156035Y-77912990D01*
X140116630Y-77912370D01*
X140084632Y-77896896D01*
X140073890Y-77887839D01*
X140039505Y-77855973D01*
X140039505Y-77439821D01*
X139901188Y-77439821D01*
X139901188Y-78043386D01*
X139970347Y-78043386D01*
X140011869Y-78041744D01*
X140033291Y-78035913D01*
X140039502Y-78024539D01*
X140039505Y-78024202D01*
X140042439Y-78012287D01*
X140055704Y-78013841D01*
X140074084Y-78022437D01*
X140112046Y-78038432D01*
X140142872Y-78048055D01*
X140182536Y-78050522D01*
X140229460Y-78043970D01*
G37*
X140229460Y-78043970D02*
X140272711Y-78030755D01*
X140300558Y-78014059D01*
X140309629Y-78000855D01*
X140307132Y-77985203D01*
X140290931Y-77960615D01*
X140277232Y-77943200D01*
X140248992Y-77911717D01*
X140227775Y-77898471D01*
X140209688Y-77899336D01*
X140156035Y-77912990D01*
X140116630Y-77912370D01*
X140084632Y-77896896D01*
X140073890Y-77887839D01*
X140039505Y-77855973D01*
X140039505Y-77439821D01*
X139901188Y-77439821D01*
X139901188Y-78043386D01*
X139970347Y-78043386D01*
X140011869Y-78041744D01*
X140033291Y-78035913D01*
X140039502Y-78024539D01*
X140039505Y-78024202D01*
X140042439Y-78012287D01*
X140055704Y-78013841D01*
X140074084Y-78022437D01*
X140112046Y-78038432D01*
X140142872Y-78048055D01*
X140182536Y-78050522D01*
X140229460Y-78043970D01*
G36*
X138806964Y-82211982D02*
G01*
X138863812Y-81910430D01*
X139283338Y-81737488D01*
X139534984Y-81908605D01*
X139605458Y-81956250D01*
X139669163Y-81998790D01*
X139723126Y-82034285D01*
X139764373Y-82060790D01*
X139789934Y-82076364D01*
X139796895Y-82079722D01*
X139809435Y-82071086D01*
X139836231Y-82047208D01*
X139874280Y-82011141D01*
X139920579Y-81965933D01*
X139972123Y-81914636D01*
X140025909Y-81860299D01*
X140078935Y-81805972D01*
X140128195Y-81754705D01*
X140170687Y-81709549D01*
X140203407Y-81673554D01*
X140223351Y-81649770D01*
X140228119Y-81641810D01*
X140221257Y-81627135D01*
X140202020Y-81594986D01*
X140172430Y-81548508D01*
X140134510Y-81490844D01*
X140090282Y-81425140D01*
X140064654Y-81387664D01*
X140017941Y-81319232D01*
X139976432Y-81257480D01*
X139942140Y-81205481D01*
X139917080Y-81166308D01*
X139903264Y-81143035D01*
X139901188Y-81138145D01*
X139905895Y-81124245D01*
X139918723Y-81091850D01*
X139937738Y-81045515D01*
X139961003Y-80989794D01*
X139986584Y-80929242D01*
X140012545Y-80868414D01*
X140036950Y-80811864D01*
X140057863Y-80764148D01*
X140073349Y-80729819D01*
X140081472Y-80713432D01*
X140081952Y-80712788D01*
X140094707Y-80709659D01*
X140128677Y-80702679D01*
X140180340Y-80692533D01*
X140246176Y-80679908D01*
X140322664Y-80665491D01*
X140367290Y-80657177D01*
X140449021Y-80641616D01*
X140522843Y-80626808D01*
X140585021Y-80613564D01*
X140631822Y-80602695D01*
X140659509Y-80595011D01*
X140665074Y-80592573D01*
X140670526Y-80576070D01*
X140674924Y-80538800D01*
X140678272Y-80485120D01*
X140680574Y-80419388D01*
X140681832Y-80345963D01*
X140682048Y-80269204D01*
X140681227Y-80193468D01*
X140679371Y-80123114D01*
X140676482Y-80062500D01*
X140672565Y-80015984D01*
X140667622Y-79987925D01*
X140664657Y-79982084D01*
X140646934Y-79975083D01*
X140609381Y-79965073D01*
X140556964Y-79953231D01*
X140494652Y-79940733D01*
X140472900Y-79936690D01*
X140368024Y-79917480D01*
X140285180Y-79902009D01*
X140221630Y-79889663D01*
X140174637Y-79879827D01*
X140141463Y-79871886D01*
X140119371Y-79865224D01*
X140105624Y-79859227D01*
X140097484Y-79853281D01*
X140096345Y-79852106D01*
X140084977Y-79833174D01*
X140067635Y-79796331D01*
X140046050Y-79746087D01*
X140021954Y-79686954D01*
X139997079Y-79623444D01*
X139973157Y-79560068D01*
X139951919Y-79501338D01*
X139935097Y-79451765D01*
X139924422Y-79415861D01*
X139921627Y-79398138D01*
X139921860Y-79397517D01*
X139931331Y-79383030D01*
X139952818Y-79351156D01*
X139984063Y-79305211D01*
X140022807Y-79248515D01*
X140066793Y-79184383D01*
X140079319Y-79166158D01*
X140123984Y-79100086D01*
X140163288Y-79039800D01*
X140195088Y-78988765D01*
X140217245Y-78950440D01*
X140227617Y-78928289D01*
X140228119Y-78925568D01*
X140219405Y-78911264D01*
X140195325Y-78882928D01*
X140158976Y-78843604D01*
X140113453Y-78796339D01*
X140061852Y-78744177D01*
X140007267Y-78690165D01*
X139952794Y-78637347D01*
X139901529Y-78588769D01*
X139856567Y-78547477D01*
X139821004Y-78516515D01*
X139797935Y-78498930D01*
X139791554Y-78496059D01*
X139776699Y-78502822D01*
X139746286Y-78521061D01*
X139705268Y-78547703D01*
X139673709Y-78569148D01*
X139616525Y-78608497D01*
X139548806Y-78654829D01*
X139480880Y-78701087D01*
X139444361Y-78725845D01*
X139320752Y-78809453D01*
X139216991Y-78753350D01*
X139169720Y-78728772D01*
X139129523Y-78709669D01*
X139102326Y-78698773D01*
X139095402Y-78697257D01*
X139087077Y-78708451D01*
X139070654Y-78740083D01*
X139047357Y-78789235D01*
X139018414Y-78852990D01*
X138985050Y-78928429D01*
X138948491Y-79012636D01*
X138909964Y-79102692D01*
X138870694Y-79195679D01*
X138831908Y-79288680D01*
X138794830Y-79378777D01*
X138760689Y-79463052D01*
X138730708Y-79538587D01*
X138706116Y-79602466D01*
X138688136Y-79651769D01*
X138677997Y-79683579D01*
X138676366Y-79694504D01*
X138689291Y-79708439D01*
X138717589Y-79731060D01*
X138755346Y-79757667D01*
X138758515Y-79759772D01*
X138856100Y-79837886D01*
X138934786Y-79929018D01*
X138993891Y-80030255D01*
X139032732Y-80138682D01*
X139050628Y-80251386D01*
X139046897Y-80365452D01*
X139020857Y-80477966D01*
X138971825Y-80586015D01*
X138957400Y-80609655D01*
X138882369Y-80705113D01*
X138793730Y-80781768D01*
X138694549Y-80839220D01*
X138587895Y-80877071D01*
X138476836Y-80894922D01*
X138364439Y-80892375D01*
X138253773Y-80869030D01*
X138147906Y-80824490D01*
X138049905Y-80758355D01*
X138019590Y-80731513D01*
X137942438Y-80647488D01*
X137886218Y-80559034D01*
X137847653Y-80459885D01*
X137826174Y-80361697D01*
X137820872Y-80251303D01*
X137838552Y-80140360D01*
X137877419Y-80032619D01*
X137935677Y-79931831D01*
X138011531Y-79841744D01*
X138103183Y-79766108D01*
X138115228Y-79758136D01*
X138153389Y-79732026D01*
X138182399Y-79709405D01*
X138196268Y-79694961D01*
X138196469Y-79694504D01*
X138193492Y-79678879D01*
X138181689Y-79643418D01*
X138162286Y-79591038D01*
X138136512Y-79524655D01*
X138105591Y-79447186D01*
X138070751Y-79361550D01*
X138033217Y-79270663D01*
X137994217Y-79177441D01*
X137954977Y-79084803D01*
X137916724Y-78995665D01*
X137880683Y-78912945D01*
X137848083Y-78839559D01*
X137820148Y-78778425D01*
X137798105Y-78732459D01*
X137783182Y-78704579D01*
X137777172Y-78697257D01*
X137758809Y-78702959D01*
X137724448Y-78718251D01*
X137680016Y-78740401D01*
X137655583Y-78753350D01*
X137551822Y-78809453D01*
X137428213Y-78725845D01*
X137365114Y-78683013D01*
X137296030Y-78635878D01*
X137231293Y-78591497D01*
X137198866Y-78569148D01*
X137153259Y-78538523D01*
X137114640Y-78514253D01*
X137088048Y-78499413D01*
X137079410Y-78496276D01*
X137066839Y-78504739D01*
X137039016Y-78528364D01*
X136998639Y-78564698D01*
X136948405Y-78611289D01*
X136891012Y-78665683D01*
X136854714Y-78700608D01*
X136791210Y-78763004D01*
X136736327Y-78818812D01*
X136692286Y-78865646D01*
X136661305Y-78901118D01*
X136645602Y-78922839D01*
X136644095Y-78927248D01*
X136651086Y-78944015D01*
X136670406Y-78977918D01*
X136699909Y-79025524D01*
X136737455Y-79083401D01*
X136780900Y-79148116D01*
X136793255Y-79166158D01*
X136838273Y-79231733D01*
X136878660Y-79290772D01*
X136912160Y-79339958D01*
X136936514Y-79375972D01*
X136949464Y-79395498D01*
X136950715Y-79397517D01*
X136948844Y-79413078D01*
X136938913Y-79447291D01*
X136922653Y-79495645D01*
X136901795Y-79553629D01*
X136878073Y-79616730D01*
X136853216Y-79680437D01*
X136828958Y-79740239D01*
X136807029Y-79791624D01*
X136789162Y-79830081D01*
X136777087Y-79851098D01*
X136776229Y-79852106D01*
X136768846Y-79858112D01*
X136756375Y-79864052D01*
X136736080Y-79870540D01*
X136705222Y-79878191D01*
X136661066Y-79887620D01*
X136600874Y-79899441D01*
X136521907Y-79914271D01*
X136421430Y-79932723D01*
X136399675Y-79936690D01*
X136335198Y-79949147D01*
X136278989Y-79961334D01*
X136236013Y-79972074D01*
X136211240Y-79980191D01*
X136207918Y-79982084D01*
X136202444Y-79998862D01*
X136197994Y-80036355D01*
X136194572Y-80090206D01*
X136192181Y-80156056D01*
X136190823Y-80229547D01*
X136190501Y-80306320D01*
X136191219Y-80382017D01*
X136192979Y-80452280D01*
X136195784Y-80512750D01*
X136199638Y-80559070D01*
X136204543Y-80586881D01*
X136207500Y-80592573D01*
X136223963Y-80598314D01*
X136261449Y-80607655D01*
X136316225Y-80619785D01*
X136384555Y-80633893D01*
X136462706Y-80649170D01*
X136505284Y-80657177D01*
X136586071Y-80672279D01*
X136658113Y-80685960D01*
X136717889Y-80697533D01*
X136761879Y-80706313D01*
X136786561Y-80711613D01*
X136790623Y-80712788D01*
X136797489Y-80726035D01*
X136812002Y-80757943D01*
X136832229Y-80803953D01*
X136856234Y-80859508D01*
X136882082Y-80920047D01*
X136907840Y-80981014D01*
X136931573Y-81037849D01*
X136951346Y-81085994D01*
X136965224Y-81120890D01*
X136971274Y-81137979D01*
X136971386Y-81138726D01*
X136964528Y-81152207D01*
X136945302Y-81183230D01*
X136915728Y-81228711D01*
X136877827Y-81285568D01*
X136833620Y-81350717D01*
X136807921Y-81388138D01*
X136761093Y-81456753D01*
X136719501Y-81519048D01*
X136685175Y-81571871D01*
X136660143Y-81612073D01*
X136646435Y-81636500D01*
X136644456Y-81641976D01*
X136652966Y-81654722D01*
X136676493Y-81681937D01*
X136712032Y-81720572D01*
X136756577Y-81767577D01*
X136807123Y-81819905D01*
X136860664Y-81874505D01*
X136914195Y-81928330D01*
X136964711Y-81978330D01*
X137009206Y-82021457D01*
X137044675Y-82054661D01*
X137068113Y-82074894D01*
X137075954Y-82079722D01*
X137088720Y-82072933D01*
X137119256Y-82053858D01*
X137164590Y-82024439D01*
X137221756Y-81986619D01*
X137287784Y-81942339D01*
X137337590Y-81908605D01*
X137589236Y-81737488D01*
X137798999Y-81823959D01*
X138008763Y-81910430D01*
X138065611Y-82211982D01*
X138122460Y-82513534D01*
X138750115Y-82513534D01*
X138806964Y-82211982D01*
G37*
X138806964Y-82211982D02*
X138863812Y-81910430D01*
X139283338Y-81737488D01*
X139534984Y-81908605D01*
X139605458Y-81956250D01*
X139669163Y-81998790D01*
X139723126Y-82034285D01*
X139764373Y-82060790D01*
X139789934Y-82076364D01*
X139796895Y-82079722D01*
X139809435Y-82071086D01*
X139836231Y-82047208D01*
X139874280Y-82011141D01*
X139920579Y-81965933D01*
X139972123Y-81914636D01*
X140025909Y-81860299D01*
X140078935Y-81805972D01*
X140128195Y-81754705D01*
X140170687Y-81709549D01*
X140203407Y-81673554D01*
X140223351Y-81649770D01*
X140228119Y-81641810D01*
X140221257Y-81627135D01*
X140202020Y-81594986D01*
X140172430Y-81548508D01*
X140134510Y-81490844D01*
X140090282Y-81425140D01*
X140064654Y-81387664D01*
X140017941Y-81319232D01*
X139976432Y-81257480D01*
X139942140Y-81205481D01*
X139917080Y-81166308D01*
X139903264Y-81143035D01*
X139901188Y-81138145D01*
X139905895Y-81124245D01*
X139918723Y-81091850D01*
X139937738Y-81045515D01*
X139961003Y-80989794D01*
X139986584Y-80929242D01*
X140012545Y-80868414D01*
X140036950Y-80811864D01*
X140057863Y-80764148D01*
X140073349Y-80729819D01*
X140081472Y-80713432D01*
X140081952Y-80712788D01*
X140094707Y-80709659D01*
X140128677Y-80702679D01*
X140180340Y-80692533D01*
X140246176Y-80679908D01*
X140322664Y-80665491D01*
X140367290Y-80657177D01*
X140449021Y-80641616D01*
X140522843Y-80626808D01*
X140585021Y-80613564D01*
X140631822Y-80602695D01*
X140659509Y-80595011D01*
X140665074Y-80592573D01*
X140670526Y-80576070D01*
X140674924Y-80538800D01*
X140678272Y-80485120D01*
X140680574Y-80419388D01*
X140681832Y-80345963D01*
X140682048Y-80269204D01*
X140681227Y-80193468D01*
X140679371Y-80123114D01*
X140676482Y-80062500D01*
X140672565Y-80015984D01*
X140667622Y-79987925D01*
X140664657Y-79982084D01*
X140646934Y-79975083D01*
X140609381Y-79965073D01*
X140556964Y-79953231D01*
X140494652Y-79940733D01*
X140472900Y-79936690D01*
X140368024Y-79917480D01*
X140285180Y-79902009D01*
X140221630Y-79889663D01*
X140174637Y-79879827D01*
X140141463Y-79871886D01*
X140119371Y-79865224D01*
X140105624Y-79859227D01*
X140097484Y-79853281D01*
X140096345Y-79852106D01*
X140084977Y-79833174D01*
X140067635Y-79796331D01*
X140046050Y-79746087D01*
X140021954Y-79686954D01*
X139997079Y-79623444D01*
X139973157Y-79560068D01*
X139951919Y-79501338D01*
X139935097Y-79451765D01*
X139924422Y-79415861D01*
X139921627Y-79398138D01*
X139921860Y-79397517D01*
X139931331Y-79383030D01*
X139952818Y-79351156D01*
X139984063Y-79305211D01*
X140022807Y-79248515D01*
X140066793Y-79184383D01*
X140079319Y-79166158D01*
X140123984Y-79100086D01*
X140163288Y-79039800D01*
X140195088Y-78988765D01*
X140217245Y-78950440D01*
X140227617Y-78928289D01*
X140228119Y-78925568D01*
X140219405Y-78911264D01*
X140195325Y-78882928D01*
X140158976Y-78843604D01*
X140113453Y-78796339D01*
X140061852Y-78744177D01*
X140007267Y-78690165D01*
X139952794Y-78637347D01*
X139901529Y-78588769D01*
X139856567Y-78547477D01*
X139821004Y-78516515D01*
X139797935Y-78498930D01*
X139791554Y-78496059D01*
X139776699Y-78502822D01*
X139746286Y-78521061D01*
X139705268Y-78547703D01*
X139673709Y-78569148D01*
X139616525Y-78608497D01*
X139548806Y-78654829D01*
X139480880Y-78701087D01*
X139444361Y-78725845D01*
X139320752Y-78809453D01*
X139216991Y-78753350D01*
X139169720Y-78728772D01*
X139129523Y-78709669D01*
X139102326Y-78698773D01*
X139095402Y-78697257D01*
X139087077Y-78708451D01*
X139070654Y-78740083D01*
X139047357Y-78789235D01*
X139018414Y-78852990D01*
X138985050Y-78928429D01*
X138948491Y-79012636D01*
X138909964Y-79102692D01*
X138870694Y-79195679D01*
X138831908Y-79288680D01*
X138794830Y-79378777D01*
X138760689Y-79463052D01*
X138730708Y-79538587D01*
X138706116Y-79602466D01*
X138688136Y-79651769D01*
X138677997Y-79683579D01*
X138676366Y-79694504D01*
X138689291Y-79708439D01*
X138717589Y-79731060D01*
X138755346Y-79757667D01*
X138758515Y-79759772D01*
X138856100Y-79837886D01*
X138934786Y-79929018D01*
X138993891Y-80030255D01*
X139032732Y-80138682D01*
X139050628Y-80251386D01*
X139046897Y-80365452D01*
X139020857Y-80477966D01*
X138971825Y-80586015D01*
X138957400Y-80609655D01*
X138882369Y-80705113D01*
X138793730Y-80781768D01*
X138694549Y-80839220D01*
X138587895Y-80877071D01*
X138476836Y-80894922D01*
X138364439Y-80892375D01*
X138253773Y-80869030D01*
X138147906Y-80824490D01*
X138049905Y-80758355D01*
X138019590Y-80731513D01*
X137942438Y-80647488D01*
X137886218Y-80559034D01*
X137847653Y-80459885D01*
X137826174Y-80361697D01*
X137820872Y-80251303D01*
X137838552Y-80140360D01*
X137877419Y-80032619D01*
X137935677Y-79931831D01*
X138011531Y-79841744D01*
X138103183Y-79766108D01*
X138115228Y-79758136D01*
X138153389Y-79732026D01*
X138182399Y-79709405D01*
X138196268Y-79694961D01*
X138196469Y-79694504D01*
X138193492Y-79678879D01*
X138181689Y-79643418D01*
X138162286Y-79591038D01*
X138136512Y-79524655D01*
X138105591Y-79447186D01*
X138070751Y-79361550D01*
X138033217Y-79270663D01*
X137994217Y-79177441D01*
X137954977Y-79084803D01*
X137916724Y-78995665D01*
X137880683Y-78912945D01*
X137848083Y-78839559D01*
X137820148Y-78778425D01*
X137798105Y-78732459D01*
X137783182Y-78704579D01*
X137777172Y-78697257D01*
X137758809Y-78702959D01*
X137724448Y-78718251D01*
X137680016Y-78740401D01*
X137655583Y-78753350D01*
X137551822Y-78809453D01*
X137428213Y-78725845D01*
X137365114Y-78683013D01*
X137296030Y-78635878D01*
X137231293Y-78591497D01*
X137198866Y-78569148D01*
X137153259Y-78538523D01*
X137114640Y-78514253D01*
X137088048Y-78499413D01*
X137079410Y-78496276D01*
X137066839Y-78504739D01*
X137039016Y-78528364D01*
X136998639Y-78564698D01*
X136948405Y-78611289D01*
X136891012Y-78665683D01*
X136854714Y-78700608D01*
X136791210Y-78763004D01*
X136736327Y-78818812D01*
X136692286Y-78865646D01*
X136661305Y-78901118D01*
X136645602Y-78922839D01*
X136644095Y-78927248D01*
X136651086Y-78944015D01*
X136670406Y-78977918D01*
X136699909Y-79025524D01*
X136737455Y-79083401D01*
X136780900Y-79148116D01*
X136793255Y-79166158D01*
X136838273Y-79231733D01*
X136878660Y-79290772D01*
X136912160Y-79339958D01*
X136936514Y-79375972D01*
X136949464Y-79395498D01*
X136950715Y-79397517D01*
X136948844Y-79413078D01*
X136938913Y-79447291D01*
X136922653Y-79495645D01*
X136901795Y-79553629D01*
X136878073Y-79616730D01*
X136853216Y-79680437D01*
X136828958Y-79740239D01*
X136807029Y-79791624D01*
X136789162Y-79830081D01*
X136777087Y-79851098D01*
X136776229Y-79852106D01*
X136768846Y-79858112D01*
X136756375Y-79864052D01*
X136736080Y-79870540D01*
X136705222Y-79878191D01*
X136661066Y-79887620D01*
X136600874Y-79899441D01*
X136521907Y-79914271D01*
X136421430Y-79932723D01*
X136399675Y-79936690D01*
X136335198Y-79949147D01*
X136278989Y-79961334D01*
X136236013Y-79972074D01*
X136211240Y-79980191D01*
X136207918Y-79982084D01*
X136202444Y-79998862D01*
X136197994Y-80036355D01*
X136194572Y-80090206D01*
X136192181Y-80156056D01*
X136190823Y-80229547D01*
X136190501Y-80306320D01*
X136191219Y-80382017D01*
X136192979Y-80452280D01*
X136195784Y-80512750D01*
X136199638Y-80559070D01*
X136204543Y-80586881D01*
X136207500Y-80592573D01*
X136223963Y-80598314D01*
X136261449Y-80607655D01*
X136316225Y-80619785D01*
X136384555Y-80633893D01*
X136462706Y-80649170D01*
X136505284Y-80657177D01*
X136586071Y-80672279D01*
X136658113Y-80685960D01*
X136717889Y-80697533D01*
X136761879Y-80706313D01*
X136786561Y-80711613D01*
X136790623Y-80712788D01*
X136797489Y-80726035D01*
X136812002Y-80757943D01*
X136832229Y-80803953D01*
X136856234Y-80859508D01*
X136882082Y-80920047D01*
X136907840Y-80981014D01*
X136931573Y-81037849D01*
X136951346Y-81085994D01*
X136965224Y-81120890D01*
X136971274Y-81137979D01*
X136971386Y-81138726D01*
X136964528Y-81152207D01*
X136945302Y-81183230D01*
X136915728Y-81228711D01*
X136877827Y-81285568D01*
X136833620Y-81350717D01*
X136807921Y-81388138D01*
X136761093Y-81456753D01*
X136719501Y-81519048D01*
X136685175Y-81571871D01*
X136660143Y-81612073D01*
X136646435Y-81636500D01*
X136644456Y-81641976D01*
X136652966Y-81654722D01*
X136676493Y-81681937D01*
X136712032Y-81720572D01*
X136756577Y-81767577D01*
X136807123Y-81819905D01*
X136860664Y-81874505D01*
X136914195Y-81928330D01*
X136964711Y-81978330D01*
X137009206Y-82021457D01*
X137044675Y-82054661D01*
X137068113Y-82074894D01*
X137075954Y-82079722D01*
X137088720Y-82072933D01*
X137119256Y-82053858D01*
X137164590Y-82024439D01*
X137221756Y-81986619D01*
X137287784Y-81942339D01*
X137337590Y-81908605D01*
X137589236Y-81737488D01*
X137798999Y-81823959D01*
X138008763Y-81910430D01*
X138065611Y-82211982D01*
X138122460Y-82513534D01*
X138750115Y-82513534D01*
X138806964Y-82211982D01*
%TD*%
M02*
