%TF.GenerationSoftware,KiCad,Pcbnew,5.0.2*%
%TF.CreationDate,2019-02-13T10:06:58+08:00*%
%TF.ProjectId,ice40up5k-qfn48,69636534-3075-4703-956b-2d71666e3438,rev?*%
%TF.SameCoordinates,Original*%
%TF.FileFunction,Copper,L2,Bot*%
%TF.FilePolarity,Positive*%
%FSLAX46Y46*%
G04 Gerber Fmt 4.6, Leading zero omitted, Abs format (unit mm)*
G04 Created by KiCad (PCBNEW 5.0.2) date 2019年02月13日 星期三 10时06分58秒*
%MOMM*%
%LPD*%
G01*
G04 APERTURE LIST*
%ADD10R,1.700000X1.700000*%
%ADD11O,1.700000X1.700000*%
%ADD12R,3.500000X3.500000*%
%ADD13C,0.350000*%
%ADD14C,3.000000*%
%ADD15C,3.500000*%
%ADD16C,0.800000*%
%ADD17C,4.200000*%
%ADD18C,0.600000*%
%ADD19C,0.300000*%
%ADD20C,0.200000*%
%ADD21C,0.254000*%
%ADD22C,0.350000*%
%ADD23C,0.300000*%
%ADD24O,1.000000X3.000000*%
%ADD25O,3.000000X1.000000*%
G04 APERTURE END LIST*
D10*
X118364000Y-78613000D03*
D11*
X120904000Y-78613000D03*
X123444000Y-78613000D03*
X125984000Y-78613000D03*
X128524000Y-78613000D03*
X131064000Y-78613000D03*
X133604000Y-78613000D03*
D10*
X151765000Y-44450000D03*
D11*
X151765000Y-46990000D03*
X151765000Y-49530000D03*
X151765000Y-52070000D03*
X151765000Y-54610000D03*
X151765000Y-57150000D03*
X151765000Y-59690000D03*
X151765000Y-62230000D03*
X151765000Y-64770000D03*
X151765000Y-67310000D03*
X151765000Y-69850000D03*
X151765000Y-72390000D03*
X151765000Y-74930000D03*
D10*
X120142000Y-41783000D03*
D11*
X122682000Y-41783000D03*
X125222000Y-41783000D03*
X127762000Y-41783000D03*
X130302000Y-41783000D03*
X132842000Y-41783000D03*
X135382000Y-41783000D03*
X137922000Y-41783000D03*
X140462000Y-41783000D03*
X143002000Y-41783000D03*
D10*
X103124000Y-72644000D03*
D11*
X103124000Y-70104000D03*
X105664000Y-72644000D03*
X105664000Y-70104000D03*
X108204000Y-72644000D03*
X108204000Y-70104000D03*
X110744000Y-72644000D03*
X110744000Y-70104000D03*
X113284000Y-72644000D03*
X113284000Y-70104000D03*
D12*
X107315000Y-52197000D03*
D13*
G36*
X102138513Y-50450611D02*
X102211318Y-50461411D01*
X102282714Y-50479295D01*
X102352013Y-50504090D01*
X102418548Y-50535559D01*
X102481678Y-50573398D01*
X102540795Y-50617242D01*
X102595330Y-50666670D01*
X102644758Y-50721205D01*
X102688602Y-50780322D01*
X102726441Y-50843452D01*
X102757910Y-50909987D01*
X102782705Y-50979286D01*
X102800589Y-51050682D01*
X102811389Y-51123487D01*
X102815000Y-51197000D01*
X102815000Y-53197000D01*
X102811389Y-53270513D01*
X102800589Y-53343318D01*
X102782705Y-53414714D01*
X102757910Y-53484013D01*
X102726441Y-53550548D01*
X102688602Y-53613678D01*
X102644758Y-53672795D01*
X102595330Y-53727330D01*
X102540795Y-53776758D01*
X102481678Y-53820602D01*
X102418548Y-53858441D01*
X102352013Y-53889910D01*
X102282714Y-53914705D01*
X102211318Y-53932589D01*
X102138513Y-53943389D01*
X102065000Y-53947000D01*
X100565000Y-53947000D01*
X100491487Y-53943389D01*
X100418682Y-53932589D01*
X100347286Y-53914705D01*
X100277987Y-53889910D01*
X100211452Y-53858441D01*
X100148322Y-53820602D01*
X100089205Y-53776758D01*
X100034670Y-53727330D01*
X99985242Y-53672795D01*
X99941398Y-53613678D01*
X99903559Y-53550548D01*
X99872090Y-53484013D01*
X99847295Y-53414714D01*
X99829411Y-53343318D01*
X99818611Y-53270513D01*
X99815000Y-53197000D01*
X99815000Y-51197000D01*
X99818611Y-51123487D01*
X99829411Y-51050682D01*
X99847295Y-50979286D01*
X99872090Y-50909987D01*
X99903559Y-50843452D01*
X99941398Y-50780322D01*
X99985242Y-50721205D01*
X100034670Y-50666670D01*
X100089205Y-50617242D01*
X100148322Y-50573398D01*
X100211452Y-50535559D01*
X100277987Y-50504090D01*
X100347286Y-50479295D01*
X100418682Y-50461411D01*
X100491487Y-50450611D01*
X100565000Y-50447000D01*
X102065000Y-50447000D01*
X102138513Y-50450611D01*
X102138513Y-50450611D01*
G37*
D14*
X101315000Y-52197000D03*
D13*
G36*
X105275765Y-55151213D02*
X105360704Y-55163813D01*
X105443999Y-55184677D01*
X105524848Y-55213605D01*
X105602472Y-55250319D01*
X105676124Y-55294464D01*
X105745094Y-55345616D01*
X105808718Y-55403282D01*
X105866384Y-55466906D01*
X105917536Y-55535876D01*
X105961681Y-55609528D01*
X105998395Y-55687152D01*
X106027323Y-55768001D01*
X106048187Y-55851296D01*
X106060787Y-55936235D01*
X106065000Y-56022000D01*
X106065000Y-57772000D01*
X106060787Y-57857765D01*
X106048187Y-57942704D01*
X106027323Y-58025999D01*
X105998395Y-58106848D01*
X105961681Y-58184472D01*
X105917536Y-58258124D01*
X105866384Y-58327094D01*
X105808718Y-58390718D01*
X105745094Y-58448384D01*
X105676124Y-58499536D01*
X105602472Y-58543681D01*
X105524848Y-58580395D01*
X105443999Y-58609323D01*
X105360704Y-58630187D01*
X105275765Y-58642787D01*
X105190000Y-58647000D01*
X103440000Y-58647000D01*
X103354235Y-58642787D01*
X103269296Y-58630187D01*
X103186001Y-58609323D01*
X103105152Y-58580395D01*
X103027528Y-58543681D01*
X102953876Y-58499536D01*
X102884906Y-58448384D01*
X102821282Y-58390718D01*
X102763616Y-58327094D01*
X102712464Y-58258124D01*
X102668319Y-58184472D01*
X102631605Y-58106848D01*
X102602677Y-58025999D01*
X102581813Y-57942704D01*
X102569213Y-57857765D01*
X102565000Y-57772000D01*
X102565000Y-56022000D01*
X102569213Y-55936235D01*
X102581813Y-55851296D01*
X102602677Y-55768001D01*
X102631605Y-55687152D01*
X102668319Y-55609528D01*
X102712464Y-55535876D01*
X102763616Y-55466906D01*
X102821282Y-55403282D01*
X102884906Y-55345616D01*
X102953876Y-55294464D01*
X103027528Y-55250319D01*
X103105152Y-55213605D01*
X103186001Y-55184677D01*
X103269296Y-55163813D01*
X103354235Y-55151213D01*
X103440000Y-55147000D01*
X105190000Y-55147000D01*
X105275765Y-55151213D01*
X105275765Y-55151213D01*
G37*
D15*
X104315000Y-56897000D03*
D16*
X136652000Y-47244000D03*
X130810000Y-74422000D03*
X140710901Y-55371996D03*
X145033998Y-62865000D03*
X124460000Y-74390000D03*
X119634000Y-70612000D03*
X120142000Y-58293000D03*
X113002705Y-66445021D03*
X128132917Y-55001083D03*
X124788612Y-55901424D03*
X136874160Y-50505158D03*
D17*
X132080000Y-58674000D03*
D16*
X114808000Y-61722000D03*
X113538000Y-56388000D03*
X114300000Y-51816000D03*
X114046000Y-46736000D03*
X121920000Y-54610000D03*
X138430000Y-66294000D03*
X144526000Y-61722000D03*
X146049998Y-55245000D03*
X126111000Y-67310000D03*
X132080000Y-72644000D03*
X103505000Y-66040000D03*
X136017000Y-65913000D03*
X124968000Y-56896000D03*
X117348000Y-55880000D03*
X141986000Y-49530000D03*
X144526000Y-58928000D03*
X127381000Y-49657000D03*
D18*
X128270000Y-68834000D03*
X120561603Y-68813192D03*
X130769990Y-63774455D03*
X130683000Y-71120000D03*
X121285000Y-72771000D03*
X119936517Y-65483491D03*
X121158000Y-64008000D03*
D16*
X110775266Y-67468266D03*
X112903000Y-67945000D03*
X120529130Y-72066354D03*
X119277021Y-69462514D03*
D18*
X129286000Y-48895000D03*
X129419811Y-50547313D03*
X128270000Y-48768000D03*
X128270000Y-50799998D03*
X138794217Y-62019066D03*
X146887836Y-65584000D03*
X138808858Y-61241747D03*
X147447000Y-65024000D03*
X138867355Y-60484000D03*
X146826131Y-64408701D03*
X139573000Y-60071000D03*
X146383160Y-63791142D03*
X138492522Y-57974522D03*
X145788594Y-63317756D03*
X131890000Y-53224483D03*
X135763000Y-48641000D03*
X119380000Y-74422000D03*
X123798060Y-61972966D03*
X123687792Y-62964481D03*
X120650000Y-74295000D03*
X121158000Y-68274000D03*
X121158000Y-69723000D03*
X123998722Y-63657980D03*
X122492259Y-72583228D03*
X125103997Y-68072000D03*
X126131997Y-69977000D03*
X124460000Y-64262000D03*
X126492000Y-71755000D03*
X126865888Y-68274000D03*
X128812256Y-72198784D03*
X126892000Y-69977000D03*
X127149020Y-64538020D03*
D19*
X130244315Y-74422000D02*
X130810000Y-74422000D01*
X122926344Y-74422000D02*
X130244315Y-74422000D01*
X140710901Y-55371996D02*
X140710901Y-59107588D01*
X144468313Y-62865000D02*
X145033998Y-62865000D01*
X140710901Y-59107588D02*
X144468313Y-62865000D01*
X123894315Y-74390000D02*
X124460000Y-74390000D01*
X122958344Y-74390000D02*
X123894315Y-74390000D01*
X122926344Y-74422000D02*
X122958344Y-74390000D01*
X113002705Y-65432295D02*
X113002705Y-65879336D01*
X120142000Y-58293000D02*
X113002705Y-65432295D01*
X113002705Y-65879336D02*
X113002705Y-66445021D01*
X121836402Y-74422000D02*
X119634000Y-72219598D01*
X119634000Y-71177685D02*
X119634000Y-70612000D01*
X122926344Y-74422000D02*
X121836402Y-74422000D01*
X119634000Y-72219598D02*
X119634000Y-71177685D01*
X125188611Y-55501425D02*
X124788612Y-55901424D01*
X125688953Y-55001083D02*
X125188611Y-55501425D01*
X128132917Y-55001083D02*
X125688953Y-55001083D01*
X136652000Y-47244000D02*
X136652000Y-50282998D01*
X136652000Y-50282998D02*
X136874160Y-50505158D01*
X140710901Y-54341899D02*
X136874160Y-50505158D01*
X140710901Y-55371996D02*
X140710901Y-54341899D01*
X141986000Y-49530000D02*
X141986000Y-56388000D01*
X141986000Y-56388000D02*
X144526000Y-58928000D01*
X117747999Y-56279999D02*
X117348000Y-55880000D01*
X124968000Y-56896000D02*
X118364000Y-56896000D01*
X118364000Y-56896000D02*
X117747999Y-56279999D01*
X124402315Y-56896000D02*
X124058610Y-56552295D01*
X124058610Y-52979390D02*
X126981001Y-50056999D01*
X124058610Y-56552295D02*
X124058610Y-52979390D01*
X124968000Y-56896000D02*
X124402315Y-56896000D01*
X126981001Y-50056999D02*
X127381000Y-49657000D01*
D20*
X120582411Y-68834000D02*
X120561603Y-68813192D01*
X128270000Y-68834000D02*
X120582411Y-68834000D01*
X128270000Y-68834000D02*
X130769990Y-66334010D01*
X130769990Y-66334010D02*
X130769990Y-64198719D01*
X130769990Y-64198719D02*
X130769990Y-63774455D01*
X130683000Y-71120000D02*
X128605001Y-73197999D01*
X128605001Y-73197999D02*
X121711999Y-73197999D01*
X121584999Y-73070999D02*
X121285000Y-72771000D01*
X121711999Y-73197999D02*
X121584999Y-73070999D01*
X119936517Y-65483491D02*
X121158000Y-64262008D01*
X121158000Y-64262008D02*
X121158000Y-64008000D01*
D19*
X110775266Y-67468266D02*
X112426266Y-67468266D01*
X112426266Y-67468266D02*
X112903000Y-67945000D01*
X119842706Y-69462514D02*
X119277021Y-69462514D01*
X120529130Y-70148938D02*
X119842706Y-69462514D01*
X120529130Y-72066354D02*
X120529130Y-70148938D01*
D20*
X129286000Y-48895000D02*
X129286000Y-50413502D01*
X129286000Y-50413502D02*
X129419811Y-50547313D01*
X128270000Y-48768000D02*
X128270000Y-50799998D01*
X138794217Y-62019066D02*
X142359151Y-65584000D01*
X142359151Y-65584000D02*
X146887836Y-65584000D01*
X138808858Y-61241747D02*
X142591111Y-65024000D01*
X142591111Y-65024000D02*
X147447000Y-65024000D01*
X139167354Y-60783999D02*
X139269999Y-60783999D01*
X138867355Y-60484000D02*
X139167354Y-60783999D01*
X139269999Y-60783999D02*
X142894701Y-64408701D01*
X142894701Y-64408701D02*
X146826131Y-64408701D01*
X139573000Y-60071000D02*
X143516771Y-64014771D01*
X146159531Y-64014771D02*
X146383160Y-63791142D01*
X143516771Y-64014771D02*
X146159531Y-64014771D01*
X138492522Y-57974522D02*
X144063001Y-63545001D01*
X145561349Y-63545001D02*
X145788594Y-63317756D01*
X144063001Y-63545001D02*
X145561349Y-63545001D01*
X131890000Y-53224483D02*
X131890000Y-52514000D01*
X131890000Y-52514000D02*
X135763000Y-48641000D01*
X119380000Y-74422000D02*
X118237000Y-73279000D01*
X122364232Y-61972966D02*
X123373796Y-61972966D01*
X123373796Y-61972966D02*
X123798060Y-61972966D01*
X118237000Y-66100198D02*
X122364232Y-61972966D01*
X118237000Y-73279000D02*
X118237000Y-66100198D01*
X123687792Y-62964481D02*
X118597011Y-68055262D01*
X118597011Y-72242011D02*
X120350001Y-73995001D01*
X118597011Y-68055262D02*
X118597011Y-72242011D01*
X120350001Y-73995001D02*
X120650000Y-74295000D01*
X121158000Y-68274000D02*
X121158000Y-66675000D01*
X124079000Y-63754000D02*
X123998722Y-63673722D01*
X121158000Y-66675000D02*
X123779001Y-64053999D01*
X123779001Y-64053999D02*
X124079000Y-63754000D01*
X123998722Y-63673722D02*
X123998722Y-63657980D01*
X122192260Y-72283229D02*
X122492259Y-72583228D01*
X121158000Y-71248969D02*
X122192260Y-72283229D01*
X121158000Y-69723000D02*
X121158000Y-71248969D01*
X124759999Y-64561999D02*
X124460000Y-64262000D01*
X124079000Y-65242998D02*
X124759999Y-64561999D01*
X125103997Y-68072000D02*
X124079000Y-67047003D01*
X124079000Y-67047003D02*
X124079000Y-65242998D01*
X126131997Y-69977000D02*
X126131997Y-71394997D01*
X126131997Y-71394997D02*
X126192001Y-71455001D01*
X126192001Y-71455001D02*
X126492000Y-71755000D01*
X128812256Y-71897256D02*
X128812256Y-72198784D01*
X127149020Y-64538020D02*
X127149020Y-67990868D01*
X127149020Y-67990868D02*
X126865888Y-68274000D01*
X126892000Y-69977000D02*
X128812256Y-71897256D01*
D21*
G36*
X118644560Y-40933000D02*
X118644560Y-42633000D01*
X118693843Y-42880765D01*
X118834191Y-43090809D01*
X119044235Y-43231157D01*
X119292000Y-43280440D01*
X120992000Y-43280440D01*
X121239765Y-43231157D01*
X121449809Y-43090809D01*
X121590157Y-42880765D01*
X121599184Y-42835381D01*
X121611375Y-42853625D01*
X122102582Y-43181839D01*
X122535744Y-43268000D01*
X122828256Y-43268000D01*
X123261418Y-43181839D01*
X123752625Y-42853625D01*
X123952000Y-42555239D01*
X124151375Y-42853625D01*
X124642582Y-43181839D01*
X125075744Y-43268000D01*
X125368256Y-43268000D01*
X125801418Y-43181839D01*
X126292625Y-42853625D01*
X126492000Y-42555239D01*
X126691375Y-42853625D01*
X127182582Y-43181839D01*
X127615744Y-43268000D01*
X127908256Y-43268000D01*
X128341418Y-43181839D01*
X128832625Y-42853625D01*
X129032000Y-42555239D01*
X129231375Y-42853625D01*
X129722582Y-43181839D01*
X130155744Y-43268000D01*
X130448256Y-43268000D01*
X130881418Y-43181839D01*
X131372625Y-42853625D01*
X131572000Y-42555239D01*
X131771375Y-42853625D01*
X132262582Y-43181839D01*
X132695744Y-43268000D01*
X132988256Y-43268000D01*
X133421418Y-43181839D01*
X133912625Y-42853625D01*
X134112000Y-42555239D01*
X134311375Y-42853625D01*
X134802582Y-43181839D01*
X135235744Y-43268000D01*
X135528256Y-43268000D01*
X135961418Y-43181839D01*
X136452625Y-42853625D01*
X136652000Y-42555239D01*
X136851375Y-42853625D01*
X137342582Y-43181839D01*
X137775744Y-43268000D01*
X138068256Y-43268000D01*
X138501418Y-43181839D01*
X138992625Y-42853625D01*
X139192000Y-42555239D01*
X139391375Y-42853625D01*
X139882582Y-43181839D01*
X140315744Y-43268000D01*
X140608256Y-43268000D01*
X141041418Y-43181839D01*
X141532625Y-42853625D01*
X141745843Y-42534522D01*
X141806817Y-42664358D01*
X142235076Y-43054645D01*
X142645110Y-43224476D01*
X142875000Y-43103155D01*
X142875000Y-41910000D01*
X143129000Y-41910000D01*
X143129000Y-43103155D01*
X143358890Y-43224476D01*
X143768924Y-43054645D01*
X144197183Y-42664358D01*
X144443486Y-42139892D01*
X144322819Y-41910000D01*
X143129000Y-41910000D01*
X142875000Y-41910000D01*
X142855000Y-41910000D01*
X142855000Y-41656000D01*
X142875000Y-41656000D01*
X142875000Y-41636000D01*
X143129000Y-41636000D01*
X143129000Y-41656000D01*
X144322819Y-41656000D01*
X144443486Y-41426108D01*
X144197183Y-40901642D01*
X143992382Y-40715000D01*
X152960000Y-40715000D01*
X152960000Y-43066814D01*
X152862765Y-43001843D01*
X152615000Y-42952560D01*
X150915000Y-42952560D01*
X150667235Y-43001843D01*
X150457191Y-43142191D01*
X150316843Y-43352235D01*
X150267560Y-43600000D01*
X150267560Y-45300000D01*
X150316843Y-45547765D01*
X150457191Y-45757809D01*
X150667235Y-45898157D01*
X150712619Y-45907184D01*
X150694375Y-45919375D01*
X150366161Y-46410582D01*
X150250908Y-46990000D01*
X150366161Y-47569418D01*
X150694375Y-48060625D01*
X150992761Y-48260000D01*
X150694375Y-48459375D01*
X150366161Y-48950582D01*
X150250908Y-49530000D01*
X150366161Y-50109418D01*
X150694375Y-50600625D01*
X150992761Y-50800000D01*
X150694375Y-50999375D01*
X150366161Y-51490582D01*
X150250908Y-52070000D01*
X150366161Y-52649418D01*
X150694375Y-53140625D01*
X150992761Y-53340000D01*
X150694375Y-53539375D01*
X150366161Y-54030582D01*
X150250908Y-54610000D01*
X150366161Y-55189418D01*
X150694375Y-55680625D01*
X150992761Y-55880000D01*
X150694375Y-56079375D01*
X150366161Y-56570582D01*
X150250908Y-57150000D01*
X150366161Y-57729418D01*
X150694375Y-58220625D01*
X150992761Y-58420000D01*
X150694375Y-58619375D01*
X150366161Y-59110582D01*
X150250908Y-59690000D01*
X150366161Y-60269418D01*
X150694375Y-60760625D01*
X150992761Y-60960000D01*
X150694375Y-61159375D01*
X150366161Y-61650582D01*
X150250908Y-62230000D01*
X150366161Y-62809418D01*
X150694375Y-63300625D01*
X150992761Y-63500000D01*
X150694375Y-63699375D01*
X150366161Y-64190582D01*
X150250908Y-64770000D01*
X150366161Y-65349418D01*
X150694375Y-65840625D01*
X150992761Y-66040000D01*
X150694375Y-66239375D01*
X150366161Y-66730582D01*
X150250908Y-67310000D01*
X150366161Y-67889418D01*
X150694375Y-68380625D01*
X150992761Y-68580000D01*
X150694375Y-68779375D01*
X150366161Y-69270582D01*
X150250908Y-69850000D01*
X150366161Y-70429418D01*
X150694375Y-70920625D01*
X150992761Y-71120000D01*
X150694375Y-71319375D01*
X150366161Y-71810582D01*
X150250908Y-72390000D01*
X150366161Y-72969418D01*
X150694375Y-73460625D01*
X151013478Y-73673843D01*
X150883642Y-73734817D01*
X150493355Y-74163076D01*
X150323524Y-74573110D01*
X150444845Y-74803000D01*
X151638000Y-74803000D01*
X151638000Y-74783000D01*
X151892000Y-74783000D01*
X151892000Y-74803000D01*
X151912000Y-74803000D01*
X151912000Y-75057000D01*
X151892000Y-75057000D01*
X151892000Y-76250819D01*
X152121892Y-76371486D01*
X152646358Y-76125183D01*
X152960001Y-75781025D01*
X152960001Y-79681000D01*
X134676379Y-79681000D01*
X135002839Y-79192418D01*
X135118092Y-78613000D01*
X135002839Y-78033582D01*
X134674625Y-77542375D01*
X134183418Y-77214161D01*
X133750256Y-77128000D01*
X133457744Y-77128000D01*
X133024582Y-77214161D01*
X132533375Y-77542375D01*
X132334000Y-77840761D01*
X132134625Y-77542375D01*
X131643418Y-77214161D01*
X131210256Y-77128000D01*
X130917744Y-77128000D01*
X130484582Y-77214161D01*
X129993375Y-77542375D01*
X129794000Y-77840761D01*
X129594625Y-77542375D01*
X129103418Y-77214161D01*
X128670256Y-77128000D01*
X128377744Y-77128000D01*
X127944582Y-77214161D01*
X127453375Y-77542375D01*
X127254000Y-77840761D01*
X127054625Y-77542375D01*
X126563418Y-77214161D01*
X126130256Y-77128000D01*
X125837744Y-77128000D01*
X125404582Y-77214161D01*
X124913375Y-77542375D01*
X124714000Y-77840761D01*
X124514625Y-77542375D01*
X124023418Y-77214161D01*
X123590256Y-77128000D01*
X123297744Y-77128000D01*
X122864582Y-77214161D01*
X122373375Y-77542375D01*
X122174000Y-77840761D01*
X121974625Y-77542375D01*
X121483418Y-77214161D01*
X121050256Y-77128000D01*
X120757744Y-77128000D01*
X120324582Y-77214161D01*
X119833375Y-77542375D01*
X119818904Y-77564033D01*
X119752327Y-77403302D01*
X119573699Y-77224673D01*
X119340310Y-77128000D01*
X118649750Y-77128000D01*
X118491000Y-77286750D01*
X118491000Y-78486000D01*
X118511000Y-78486000D01*
X118511000Y-78740000D01*
X118491000Y-78740000D01*
X118491000Y-78760000D01*
X118237000Y-78760000D01*
X118237000Y-78740000D01*
X117037750Y-78740000D01*
X116879000Y-78898750D01*
X116879000Y-79589309D01*
X116916980Y-79681000D01*
X97865000Y-79681000D01*
X97865000Y-77636691D01*
X116879000Y-77636691D01*
X116879000Y-78327250D01*
X117037750Y-78486000D01*
X118237000Y-78486000D01*
X118237000Y-77286750D01*
X118078250Y-77128000D01*
X117387690Y-77128000D01*
X117154301Y-77224673D01*
X116975673Y-77403302D01*
X116879000Y-77636691D01*
X97865000Y-77636691D01*
X97865000Y-71794000D01*
X101626560Y-71794000D01*
X101626560Y-73494000D01*
X101675843Y-73741765D01*
X101816191Y-73951809D01*
X102026235Y-74092157D01*
X102274000Y-74141440D01*
X103974000Y-74141440D01*
X104221765Y-74092157D01*
X104431809Y-73951809D01*
X104572157Y-73741765D01*
X104581184Y-73696381D01*
X104593375Y-73714625D01*
X105084582Y-74042839D01*
X105517744Y-74129000D01*
X105810256Y-74129000D01*
X106243418Y-74042839D01*
X106734625Y-73714625D01*
X106934000Y-73416239D01*
X107133375Y-73714625D01*
X107624582Y-74042839D01*
X108057744Y-74129000D01*
X108350256Y-74129000D01*
X108783418Y-74042839D01*
X109274625Y-73714625D01*
X109474000Y-73416239D01*
X109673375Y-73714625D01*
X110164582Y-74042839D01*
X110597744Y-74129000D01*
X110890256Y-74129000D01*
X111323418Y-74042839D01*
X111814625Y-73714625D01*
X112014000Y-73416239D01*
X112213375Y-73714625D01*
X112704582Y-74042839D01*
X113137744Y-74129000D01*
X113430256Y-74129000D01*
X113863418Y-74042839D01*
X114354625Y-73714625D01*
X114682839Y-73223418D01*
X114798092Y-72644000D01*
X114682839Y-72064582D01*
X114354625Y-71573375D01*
X114054214Y-71372647D01*
X114479183Y-70985358D01*
X114725486Y-70460892D01*
X114604819Y-70231000D01*
X113411000Y-70231000D01*
X113411000Y-70251000D01*
X113157000Y-70251000D01*
X113157000Y-70231000D01*
X113137000Y-70231000D01*
X113137000Y-69977000D01*
X113157000Y-69977000D01*
X113157000Y-69957000D01*
X113411000Y-69957000D01*
X113411000Y-69977000D01*
X114604819Y-69977000D01*
X114725486Y-69747108D01*
X114479183Y-69222642D01*
X114050924Y-68832355D01*
X113646757Y-68664954D01*
X113780431Y-68531280D01*
X113938000Y-68150874D01*
X113938000Y-67739126D01*
X113780431Y-67358720D01*
X113666574Y-67244863D01*
X113880136Y-67031301D01*
X114037705Y-66650895D01*
X114037705Y-66239147D01*
X113980151Y-66100198D01*
X117487602Y-66100198D01*
X117502001Y-66172587D01*
X117502000Y-73206616D01*
X117487602Y-73279000D01*
X117502000Y-73351384D01*
X117502000Y-73351387D01*
X117544646Y-73565782D01*
X117707095Y-73808905D01*
X117768465Y-73849911D01*
X118445000Y-74526447D01*
X118445000Y-74607983D01*
X118587345Y-74951635D01*
X118850365Y-75214655D01*
X119194017Y-75357000D01*
X119565983Y-75357000D01*
X119909635Y-75214655D01*
X120078500Y-75045790D01*
X120120365Y-75087655D01*
X120464017Y-75230000D01*
X120835983Y-75230000D01*
X121179635Y-75087655D01*
X121275777Y-74991513D01*
X121530110Y-75161454D01*
X121759086Y-75207000D01*
X121759090Y-75207000D01*
X121836402Y-75222378D01*
X121913714Y-75207000D01*
X122849032Y-75207000D01*
X122926344Y-75222378D01*
X123003656Y-75207000D01*
X123813289Y-75207000D01*
X123873720Y-75267431D01*
X124254126Y-75425000D01*
X124665874Y-75425000D01*
X125046280Y-75267431D01*
X125106711Y-75207000D01*
X130131289Y-75207000D01*
X130223720Y-75299431D01*
X130604126Y-75457000D01*
X131015874Y-75457000D01*
X131396280Y-75299431D01*
X131408821Y-75286890D01*
X150323524Y-75286890D01*
X150493355Y-75696924D01*
X150883642Y-76125183D01*
X151408108Y-76371486D01*
X151638000Y-76250819D01*
X151638000Y-75057000D01*
X150444845Y-75057000D01*
X150323524Y-75286890D01*
X131408821Y-75286890D01*
X131687431Y-75008280D01*
X131845000Y-74627874D01*
X131845000Y-74216126D01*
X131687431Y-73835720D01*
X131396280Y-73544569D01*
X131015874Y-73387000D01*
X130604126Y-73387000D01*
X130223720Y-73544569D01*
X130131289Y-73637000D01*
X129205446Y-73637000D01*
X130787447Y-72055000D01*
X130868983Y-72055000D01*
X131212635Y-71912655D01*
X131475655Y-71649635D01*
X131618000Y-71305983D01*
X131618000Y-70934017D01*
X131475655Y-70590365D01*
X131212635Y-70327345D01*
X130868983Y-70185000D01*
X130497017Y-70185000D01*
X130153365Y-70327345D01*
X129890345Y-70590365D01*
X129748000Y-70934017D01*
X129748000Y-71015553D01*
X129363807Y-71399746D01*
X129342161Y-71367351D01*
X129280794Y-71326347D01*
X127827000Y-69872554D01*
X127827000Y-69791017D01*
X127762762Y-69635932D01*
X128084017Y-69769000D01*
X128455983Y-69769000D01*
X128799635Y-69626655D01*
X129062655Y-69363635D01*
X129205000Y-69019983D01*
X129205000Y-68938446D01*
X131238528Y-66904919D01*
X131299895Y-66863915D01*
X131462344Y-66620793D01*
X131504990Y-66406398D01*
X131504990Y-66406397D01*
X131519389Y-66334010D01*
X131504990Y-66261622D01*
X131504990Y-64361745D01*
X131562645Y-64304090D01*
X131704990Y-63960438D01*
X131704990Y-63588472D01*
X131562645Y-63244820D01*
X131299625Y-62981800D01*
X130955973Y-62839455D01*
X130584007Y-62839455D01*
X130240355Y-62981800D01*
X129977335Y-63244820D01*
X129834990Y-63588472D01*
X129834990Y-63960438D01*
X129977335Y-64304090D01*
X130034991Y-64361746D01*
X130034990Y-66029563D01*
X128165554Y-67899000D01*
X128084017Y-67899000D01*
X127895663Y-67977019D01*
X127884020Y-67918485D01*
X127884020Y-65125310D01*
X127941675Y-65067655D01*
X128084020Y-64724003D01*
X128084020Y-64352037D01*
X127941675Y-64008385D01*
X127678655Y-63745365D01*
X127335003Y-63603020D01*
X126963037Y-63603020D01*
X126619385Y-63745365D01*
X126356365Y-64008385D01*
X126214020Y-64352037D01*
X126214020Y-64724003D01*
X126356365Y-65067655D01*
X126414020Y-65125310D01*
X126414021Y-67449133D01*
X126336253Y-67481345D01*
X126073233Y-67744365D01*
X126026778Y-67856518D01*
X125896652Y-67542365D01*
X125633632Y-67279345D01*
X125289980Y-67137000D01*
X125208444Y-67137000D01*
X124814000Y-66742557D01*
X124814000Y-65547444D01*
X125228537Y-65132908D01*
X125289904Y-65091904D01*
X125364936Y-64979610D01*
X125452353Y-64848782D01*
X125468024Y-64770000D01*
X125509398Y-64561999D01*
X125452353Y-64275217D01*
X125395000Y-64189382D01*
X125395000Y-64076017D01*
X125252655Y-63732365D01*
X124989635Y-63469345D01*
X124920816Y-63440839D01*
X124791377Y-63128345D01*
X124622792Y-62959760D01*
X124622792Y-62778498D01*
X124532589Y-62560727D01*
X124590715Y-62502601D01*
X124733060Y-62158949D01*
X124733060Y-61786983D01*
X124590715Y-61443331D01*
X124327695Y-61180311D01*
X123984043Y-61037966D01*
X123612077Y-61037966D01*
X123268425Y-61180311D01*
X123210770Y-61237966D01*
X122436615Y-61237966D01*
X122364231Y-61223568D01*
X122291847Y-61237966D01*
X122291844Y-61237966D01*
X122077449Y-61280612D01*
X121834327Y-61443061D01*
X121793323Y-61504428D01*
X117768463Y-65529289D01*
X117707096Y-65570293D01*
X117666092Y-65631660D01*
X117666091Y-65631661D01*
X117544646Y-65813416D01*
X117487602Y-66100198D01*
X113980151Y-66100198D01*
X113880136Y-65858741D01*
X113787705Y-65766310D01*
X113787705Y-65757452D01*
X120217158Y-59328000D01*
X120347874Y-59328000D01*
X120728280Y-59170431D01*
X121019431Y-58879280D01*
X121177000Y-58498874D01*
X121177000Y-58087126D01*
X121019431Y-57706720D01*
X120993711Y-57681000D01*
X124289289Y-57681000D01*
X124381720Y-57773431D01*
X124762126Y-57931000D01*
X125173874Y-57931000D01*
X125554280Y-57773431D01*
X125845431Y-57482280D01*
X126003000Y-57101874D01*
X126003000Y-56690126D01*
X125845431Y-56309720D01*
X125770715Y-56235004D01*
X125823612Y-56107298D01*
X125823612Y-55976581D01*
X126014110Y-55786083D01*
X127454206Y-55786083D01*
X127546637Y-55878514D01*
X127927043Y-56036083D01*
X128338791Y-56036083D01*
X128719197Y-55878514D01*
X129010348Y-55587363D01*
X129167917Y-55206957D01*
X129167917Y-54795209D01*
X129010348Y-54414803D01*
X128719197Y-54123652D01*
X128338791Y-53966083D01*
X127927043Y-53966083D01*
X127546637Y-54123652D01*
X127454206Y-54216083D01*
X125766263Y-54216083D01*
X125688952Y-54200705D01*
X125611641Y-54216083D01*
X125611637Y-54216083D01*
X125382661Y-54261629D01*
X125123000Y-54435130D01*
X125079204Y-54500675D01*
X124843610Y-54736269D01*
X124843610Y-53304547D01*
X125109657Y-53038500D01*
X130955000Y-53038500D01*
X130955000Y-53410466D01*
X131097345Y-53754118D01*
X131360365Y-54017138D01*
X131704017Y-54159483D01*
X132075983Y-54159483D01*
X132419635Y-54017138D01*
X132682655Y-53754118D01*
X132825000Y-53410466D01*
X132825000Y-53038500D01*
X132701969Y-52741477D01*
X135867001Y-49576446D01*
X135867001Y-50205681D01*
X135856903Y-50256449D01*
X135839160Y-50299284D01*
X135839160Y-50711032D01*
X135996729Y-51091438D01*
X136287880Y-51382589D01*
X136668286Y-51540158D01*
X136799003Y-51540158D01*
X139925902Y-54667058D01*
X139925902Y-54693284D01*
X139833470Y-54785716D01*
X139675901Y-55166122D01*
X139675901Y-55577870D01*
X139833470Y-55958276D01*
X139925901Y-56050707D01*
X139925902Y-58368456D01*
X139427522Y-57870076D01*
X139427522Y-57788539D01*
X139285177Y-57444887D01*
X139022157Y-57181867D01*
X138678505Y-57039522D01*
X138306539Y-57039522D01*
X137962887Y-57181867D01*
X137699867Y-57444887D01*
X137557522Y-57788539D01*
X137557522Y-58160505D01*
X137699867Y-58504157D01*
X137962887Y-58767177D01*
X138306539Y-58909522D01*
X138388076Y-58909522D01*
X138900132Y-59421578D01*
X138780345Y-59541365D01*
X138777182Y-59549000D01*
X138681372Y-59549000D01*
X138337720Y-59691345D01*
X138074700Y-59954365D01*
X137932355Y-60298017D01*
X137932355Y-60669983D01*
X137983004Y-60792261D01*
X137873858Y-61055764D01*
X137873858Y-61427730D01*
X137950489Y-61612733D01*
X137859217Y-61833083D01*
X137859217Y-62205049D01*
X138001562Y-62548701D01*
X138264582Y-62811721D01*
X138608234Y-62954066D01*
X138689771Y-62954066D01*
X141788242Y-66052538D01*
X141829246Y-66113905D01*
X142072368Y-66276354D01*
X142286763Y-66319000D01*
X142286766Y-66319000D01*
X142359150Y-66333398D01*
X142431534Y-66319000D01*
X146300546Y-66319000D01*
X146358201Y-66376655D01*
X146701853Y-66519000D01*
X147073819Y-66519000D01*
X147417471Y-66376655D01*
X147680491Y-66113635D01*
X147767647Y-65903220D01*
X147976635Y-65816655D01*
X148239655Y-65553635D01*
X148382000Y-65209983D01*
X148382000Y-64838017D01*
X148239655Y-64494365D01*
X147976635Y-64231345D01*
X147720812Y-64125380D01*
X147618786Y-63879066D01*
X147355766Y-63616046D01*
X147315815Y-63599498D01*
X147175815Y-63261507D01*
X146912795Y-62998487D01*
X146617767Y-62876283D01*
X146581249Y-62788121D01*
X146318229Y-62525101D01*
X145974577Y-62382756D01*
X145954522Y-62382756D01*
X145911429Y-62278720D01*
X145620278Y-61987569D01*
X145239872Y-61830000D01*
X144828124Y-61830000D01*
X144626844Y-61913373D01*
X141495901Y-58782431D01*
X141495901Y-57008058D01*
X143491000Y-59003158D01*
X143491000Y-59133874D01*
X143648569Y-59514280D01*
X143939720Y-59805431D01*
X144320126Y-59963000D01*
X144731874Y-59963000D01*
X145112280Y-59805431D01*
X145403431Y-59514280D01*
X145561000Y-59133874D01*
X145561000Y-58722126D01*
X145403431Y-58341720D01*
X145112280Y-58050569D01*
X144731874Y-57893000D01*
X144601158Y-57893000D01*
X142771000Y-56062843D01*
X142771000Y-50208711D01*
X142863431Y-50116280D01*
X143021000Y-49735874D01*
X143021000Y-49324126D01*
X142863431Y-48943720D01*
X142572280Y-48652569D01*
X142191874Y-48495000D01*
X141780126Y-48495000D01*
X141399720Y-48652569D01*
X141108569Y-48943720D01*
X140951000Y-49324126D01*
X140951000Y-49735874D01*
X141108569Y-50116280D01*
X141201000Y-50208711D01*
X141201001Y-53721841D01*
X137909160Y-50430001D01*
X137909160Y-50299284D01*
X137751591Y-49918878D01*
X137460440Y-49627727D01*
X137437000Y-49618018D01*
X137437000Y-47922711D01*
X137529431Y-47830280D01*
X137687000Y-47449874D01*
X137687000Y-47038126D01*
X137529431Y-46657720D01*
X137238280Y-46366569D01*
X136857874Y-46209000D01*
X136446126Y-46209000D01*
X136065720Y-46366569D01*
X135774569Y-46657720D01*
X135617000Y-47038126D01*
X135617000Y-47449874D01*
X135723091Y-47706000D01*
X135577017Y-47706000D01*
X135233365Y-47848345D01*
X134970345Y-48111365D01*
X134828000Y-48455017D01*
X134828000Y-48536553D01*
X131421463Y-51943091D01*
X131360096Y-51984095D01*
X131319092Y-52045462D01*
X131319091Y-52045463D01*
X131197646Y-52227218D01*
X131185261Y-52289483D01*
X131155000Y-52441612D01*
X131155000Y-52441616D01*
X131140602Y-52514000D01*
X131155000Y-52586384D01*
X131155000Y-52637193D01*
X131097345Y-52694848D01*
X130955000Y-53038500D01*
X125109657Y-53038500D01*
X127335000Y-50813158D01*
X127335000Y-50985981D01*
X127477345Y-51329633D01*
X127740365Y-51592653D01*
X128084017Y-51734998D01*
X128455983Y-51734998D01*
X128799635Y-51592653D01*
X129004829Y-51387459D01*
X129233828Y-51482313D01*
X129605794Y-51482313D01*
X129949446Y-51339968D01*
X130212466Y-51076948D01*
X130354811Y-50733296D01*
X130354811Y-50361330D01*
X130212466Y-50017678D01*
X130021000Y-49826212D01*
X130021000Y-49482290D01*
X130078655Y-49424635D01*
X130221000Y-49080983D01*
X130221000Y-48709017D01*
X130078655Y-48365365D01*
X129815635Y-48102345D01*
X129471983Y-47960000D01*
X129100017Y-47960000D01*
X128876764Y-48052474D01*
X128799635Y-47975345D01*
X128455983Y-47833000D01*
X128084017Y-47833000D01*
X127740365Y-47975345D01*
X127477345Y-48238365D01*
X127335000Y-48582017D01*
X127335000Y-48622000D01*
X127175126Y-48622000D01*
X126794720Y-48779569D01*
X126503569Y-49070720D01*
X126346000Y-49451126D01*
X126346000Y-49581842D01*
X123558200Y-52369643D01*
X123492658Y-52413437D01*
X123448864Y-52478979D01*
X123448861Y-52478982D01*
X123319156Y-52673099D01*
X123258232Y-52979390D01*
X123273611Y-53056707D01*
X123273610Y-56111000D01*
X118689158Y-56111000D01*
X118383000Y-55804843D01*
X118383000Y-55674126D01*
X118225431Y-55293720D01*
X117934280Y-55002569D01*
X117553874Y-54845000D01*
X117142126Y-54845000D01*
X116761720Y-55002569D01*
X116470569Y-55293720D01*
X116313000Y-55674126D01*
X116313000Y-56085874D01*
X116470569Y-56466280D01*
X116761720Y-56757431D01*
X117142126Y-56915000D01*
X117272843Y-56915000D01*
X117754253Y-57396410D01*
X117798047Y-57461953D01*
X117863589Y-57505747D01*
X117863591Y-57505749D01*
X118057707Y-57635453D01*
X118057708Y-57635454D01*
X118286684Y-57681000D01*
X118286688Y-57681000D01*
X118364000Y-57696378D01*
X118441312Y-57681000D01*
X119290289Y-57681000D01*
X119264569Y-57706720D01*
X119107000Y-58087126D01*
X119107000Y-58217842D01*
X112502297Y-64822546D01*
X112436752Y-64866342D01*
X112392956Y-64931887D01*
X112339822Y-65011407D01*
X112263251Y-65126004D01*
X112217705Y-65354980D01*
X112217705Y-65354983D01*
X112202327Y-65432295D01*
X112217705Y-65509607D01*
X112217705Y-65766310D01*
X112125274Y-65858741D01*
X111967705Y-66239147D01*
X111967705Y-66650895D01*
X111981113Y-66683266D01*
X111453977Y-66683266D01*
X111361546Y-66590835D01*
X110981140Y-66433266D01*
X110569392Y-66433266D01*
X110188986Y-66590835D01*
X109897835Y-66881986D01*
X109740266Y-67262392D01*
X109740266Y-67674140D01*
X109897835Y-68054546D01*
X110188986Y-68345697D01*
X110569392Y-68503266D01*
X110981140Y-68503266D01*
X111361546Y-68345697D01*
X111453977Y-68253266D01*
X111910412Y-68253266D01*
X112025569Y-68531280D01*
X112316720Y-68822431D01*
X112461955Y-68882589D01*
X112088817Y-69222642D01*
X112027843Y-69352478D01*
X111814625Y-69033375D01*
X111323418Y-68705161D01*
X110890256Y-68619000D01*
X110597744Y-68619000D01*
X110164582Y-68705161D01*
X109673375Y-69033375D01*
X109474000Y-69331761D01*
X109274625Y-69033375D01*
X108783418Y-68705161D01*
X108350256Y-68619000D01*
X108057744Y-68619000D01*
X107624582Y-68705161D01*
X107133375Y-69033375D01*
X106934000Y-69331761D01*
X106734625Y-69033375D01*
X106243418Y-68705161D01*
X105810256Y-68619000D01*
X105517744Y-68619000D01*
X105084582Y-68705161D01*
X104593375Y-69033375D01*
X104380157Y-69352478D01*
X104319183Y-69222642D01*
X103890924Y-68832355D01*
X103480890Y-68662524D01*
X103251000Y-68783845D01*
X103251000Y-69977000D01*
X103271000Y-69977000D01*
X103271000Y-70231000D01*
X103251000Y-70231000D01*
X103251000Y-70251000D01*
X102997000Y-70251000D01*
X102997000Y-70231000D01*
X101803181Y-70231000D01*
X101682514Y-70460892D01*
X101928817Y-70985358D01*
X102135855Y-71174039D01*
X102026235Y-71195843D01*
X101816191Y-71336191D01*
X101675843Y-71546235D01*
X101626560Y-71794000D01*
X97865000Y-71794000D01*
X97865000Y-69747108D01*
X101682514Y-69747108D01*
X101803181Y-69977000D01*
X102997000Y-69977000D01*
X102997000Y-68783845D01*
X102767110Y-68662524D01*
X102357076Y-68832355D01*
X101928817Y-69222642D01*
X101682514Y-69747108D01*
X97865000Y-69747108D01*
X97865000Y-56022000D01*
X101917560Y-56022000D01*
X101917560Y-57772000D01*
X102033449Y-58354613D01*
X102363472Y-58848528D01*
X102857387Y-59178551D01*
X103440000Y-59294440D01*
X105190000Y-59294440D01*
X105772613Y-59178551D01*
X106266528Y-58848528D01*
X106596551Y-58354613D01*
X106712440Y-57772000D01*
X106712440Y-56022000D01*
X106596551Y-55439387D01*
X106266528Y-54945472D01*
X105772613Y-54615449D01*
X105666994Y-54594440D01*
X109065000Y-54594440D01*
X109312765Y-54545157D01*
X109522809Y-54404809D01*
X109663157Y-54194765D01*
X109712440Y-53947000D01*
X109712440Y-50447000D01*
X109663157Y-50199235D01*
X109522809Y-49989191D01*
X109312765Y-49848843D01*
X109065000Y-49799560D01*
X105565000Y-49799560D01*
X105317235Y-49848843D01*
X105107191Y-49989191D01*
X104966843Y-50199235D01*
X104917560Y-50447000D01*
X104917560Y-53947000D01*
X104966843Y-54194765D01*
X105107191Y-54404809D01*
X105274001Y-54516269D01*
X105190000Y-54499560D01*
X103440000Y-54499560D01*
X102857387Y-54615449D01*
X102363472Y-54945472D01*
X102033449Y-55439387D01*
X101917560Y-56022000D01*
X97865000Y-56022000D01*
X97865000Y-52482750D01*
X99180000Y-52482750D01*
X99180000Y-54073310D01*
X99276673Y-54306699D01*
X99455302Y-54485327D01*
X99688691Y-54582000D01*
X101029250Y-54582000D01*
X101188000Y-54423250D01*
X101188000Y-52324000D01*
X101442000Y-52324000D01*
X101442000Y-54423250D01*
X101600750Y-54582000D01*
X102941309Y-54582000D01*
X103174698Y-54485327D01*
X103353327Y-54306699D01*
X103450000Y-54073310D01*
X103450000Y-52482750D01*
X103291250Y-52324000D01*
X101442000Y-52324000D01*
X101188000Y-52324000D01*
X99338750Y-52324000D01*
X99180000Y-52482750D01*
X97865000Y-52482750D01*
X97865000Y-50320690D01*
X99180000Y-50320690D01*
X99180000Y-51911250D01*
X99338750Y-52070000D01*
X101188000Y-52070000D01*
X101188000Y-49970750D01*
X101442000Y-49970750D01*
X101442000Y-52070000D01*
X103291250Y-52070000D01*
X103450000Y-51911250D01*
X103450000Y-50320690D01*
X103353327Y-50087301D01*
X103174698Y-49908673D01*
X102941309Y-49812000D01*
X101600750Y-49812000D01*
X101442000Y-49970750D01*
X101188000Y-49970750D01*
X101029250Y-49812000D01*
X99688691Y-49812000D01*
X99455302Y-49908673D01*
X99276673Y-50087301D01*
X99180000Y-50320690D01*
X97865000Y-50320690D01*
X97865000Y-40715000D01*
X118687922Y-40715000D01*
X118644560Y-40933000D01*
X118644560Y-40933000D01*
G37*
X118644560Y-40933000D02*
X118644560Y-42633000D01*
X118693843Y-42880765D01*
X118834191Y-43090809D01*
X119044235Y-43231157D01*
X119292000Y-43280440D01*
X120992000Y-43280440D01*
X121239765Y-43231157D01*
X121449809Y-43090809D01*
X121590157Y-42880765D01*
X121599184Y-42835381D01*
X121611375Y-42853625D01*
X122102582Y-43181839D01*
X122535744Y-43268000D01*
X122828256Y-43268000D01*
X123261418Y-43181839D01*
X123752625Y-42853625D01*
X123952000Y-42555239D01*
X124151375Y-42853625D01*
X124642582Y-43181839D01*
X125075744Y-43268000D01*
X125368256Y-43268000D01*
X125801418Y-43181839D01*
X126292625Y-42853625D01*
X126492000Y-42555239D01*
X126691375Y-42853625D01*
X127182582Y-43181839D01*
X127615744Y-43268000D01*
X127908256Y-43268000D01*
X128341418Y-43181839D01*
X128832625Y-42853625D01*
X129032000Y-42555239D01*
X129231375Y-42853625D01*
X129722582Y-43181839D01*
X130155744Y-43268000D01*
X130448256Y-43268000D01*
X130881418Y-43181839D01*
X131372625Y-42853625D01*
X131572000Y-42555239D01*
X131771375Y-42853625D01*
X132262582Y-43181839D01*
X132695744Y-43268000D01*
X132988256Y-43268000D01*
X133421418Y-43181839D01*
X133912625Y-42853625D01*
X134112000Y-42555239D01*
X134311375Y-42853625D01*
X134802582Y-43181839D01*
X135235744Y-43268000D01*
X135528256Y-43268000D01*
X135961418Y-43181839D01*
X136452625Y-42853625D01*
X136652000Y-42555239D01*
X136851375Y-42853625D01*
X137342582Y-43181839D01*
X137775744Y-43268000D01*
X138068256Y-43268000D01*
X138501418Y-43181839D01*
X138992625Y-42853625D01*
X139192000Y-42555239D01*
X139391375Y-42853625D01*
X139882582Y-43181839D01*
X140315744Y-43268000D01*
X140608256Y-43268000D01*
X141041418Y-43181839D01*
X141532625Y-42853625D01*
X141745843Y-42534522D01*
X141806817Y-42664358D01*
X142235076Y-43054645D01*
X142645110Y-43224476D01*
X142875000Y-43103155D01*
X142875000Y-41910000D01*
X143129000Y-41910000D01*
X143129000Y-43103155D01*
X143358890Y-43224476D01*
X143768924Y-43054645D01*
X144197183Y-42664358D01*
X144443486Y-42139892D01*
X144322819Y-41910000D01*
X143129000Y-41910000D01*
X142875000Y-41910000D01*
X142855000Y-41910000D01*
X142855000Y-41656000D01*
X142875000Y-41656000D01*
X142875000Y-41636000D01*
X143129000Y-41636000D01*
X143129000Y-41656000D01*
X144322819Y-41656000D01*
X144443486Y-41426108D01*
X144197183Y-40901642D01*
X143992382Y-40715000D01*
X152960000Y-40715000D01*
X152960000Y-43066814D01*
X152862765Y-43001843D01*
X152615000Y-42952560D01*
X150915000Y-42952560D01*
X150667235Y-43001843D01*
X150457191Y-43142191D01*
X150316843Y-43352235D01*
X150267560Y-43600000D01*
X150267560Y-45300000D01*
X150316843Y-45547765D01*
X150457191Y-45757809D01*
X150667235Y-45898157D01*
X150712619Y-45907184D01*
X150694375Y-45919375D01*
X150366161Y-46410582D01*
X150250908Y-46990000D01*
X150366161Y-47569418D01*
X150694375Y-48060625D01*
X150992761Y-48260000D01*
X150694375Y-48459375D01*
X150366161Y-48950582D01*
X150250908Y-49530000D01*
X150366161Y-50109418D01*
X150694375Y-50600625D01*
X150992761Y-50800000D01*
X150694375Y-50999375D01*
X150366161Y-51490582D01*
X150250908Y-52070000D01*
X150366161Y-52649418D01*
X150694375Y-53140625D01*
X150992761Y-53340000D01*
X150694375Y-53539375D01*
X150366161Y-54030582D01*
X150250908Y-54610000D01*
X150366161Y-55189418D01*
X150694375Y-55680625D01*
X150992761Y-55880000D01*
X150694375Y-56079375D01*
X150366161Y-56570582D01*
X150250908Y-57150000D01*
X150366161Y-57729418D01*
X150694375Y-58220625D01*
X150992761Y-58420000D01*
X150694375Y-58619375D01*
X150366161Y-59110582D01*
X150250908Y-59690000D01*
X150366161Y-60269418D01*
X150694375Y-60760625D01*
X150992761Y-60960000D01*
X150694375Y-61159375D01*
X150366161Y-61650582D01*
X150250908Y-62230000D01*
X150366161Y-62809418D01*
X150694375Y-63300625D01*
X150992761Y-63500000D01*
X150694375Y-63699375D01*
X150366161Y-64190582D01*
X150250908Y-64770000D01*
X150366161Y-65349418D01*
X150694375Y-65840625D01*
X150992761Y-66040000D01*
X150694375Y-66239375D01*
X150366161Y-66730582D01*
X150250908Y-67310000D01*
X150366161Y-67889418D01*
X150694375Y-68380625D01*
X150992761Y-68580000D01*
X150694375Y-68779375D01*
X150366161Y-69270582D01*
X150250908Y-69850000D01*
X150366161Y-70429418D01*
X150694375Y-70920625D01*
X150992761Y-71120000D01*
X150694375Y-71319375D01*
X150366161Y-71810582D01*
X150250908Y-72390000D01*
X150366161Y-72969418D01*
X150694375Y-73460625D01*
X151013478Y-73673843D01*
X150883642Y-73734817D01*
X150493355Y-74163076D01*
X150323524Y-74573110D01*
X150444845Y-74803000D01*
X151638000Y-74803000D01*
X151638000Y-74783000D01*
X151892000Y-74783000D01*
X151892000Y-74803000D01*
X151912000Y-74803000D01*
X151912000Y-75057000D01*
X151892000Y-75057000D01*
X151892000Y-76250819D01*
X152121892Y-76371486D01*
X152646358Y-76125183D01*
X152960001Y-75781025D01*
X152960001Y-79681000D01*
X134676379Y-79681000D01*
X135002839Y-79192418D01*
X135118092Y-78613000D01*
X135002839Y-78033582D01*
X134674625Y-77542375D01*
X134183418Y-77214161D01*
X133750256Y-77128000D01*
X133457744Y-77128000D01*
X133024582Y-77214161D01*
X132533375Y-77542375D01*
X132334000Y-77840761D01*
X132134625Y-77542375D01*
X131643418Y-77214161D01*
X131210256Y-77128000D01*
X130917744Y-77128000D01*
X130484582Y-77214161D01*
X129993375Y-77542375D01*
X129794000Y-77840761D01*
X129594625Y-77542375D01*
X129103418Y-77214161D01*
X128670256Y-77128000D01*
X128377744Y-77128000D01*
X127944582Y-77214161D01*
X127453375Y-77542375D01*
X127254000Y-77840761D01*
X127054625Y-77542375D01*
X126563418Y-77214161D01*
X126130256Y-77128000D01*
X125837744Y-77128000D01*
X125404582Y-77214161D01*
X124913375Y-77542375D01*
X124714000Y-77840761D01*
X124514625Y-77542375D01*
X124023418Y-77214161D01*
X123590256Y-77128000D01*
X123297744Y-77128000D01*
X122864582Y-77214161D01*
X122373375Y-77542375D01*
X122174000Y-77840761D01*
X121974625Y-77542375D01*
X121483418Y-77214161D01*
X121050256Y-77128000D01*
X120757744Y-77128000D01*
X120324582Y-77214161D01*
X119833375Y-77542375D01*
X119818904Y-77564033D01*
X119752327Y-77403302D01*
X119573699Y-77224673D01*
X119340310Y-77128000D01*
X118649750Y-77128000D01*
X118491000Y-77286750D01*
X118491000Y-78486000D01*
X118511000Y-78486000D01*
X118511000Y-78740000D01*
X118491000Y-78740000D01*
X118491000Y-78760000D01*
X118237000Y-78760000D01*
X118237000Y-78740000D01*
X117037750Y-78740000D01*
X116879000Y-78898750D01*
X116879000Y-79589309D01*
X116916980Y-79681000D01*
X97865000Y-79681000D01*
X97865000Y-77636691D01*
X116879000Y-77636691D01*
X116879000Y-78327250D01*
X117037750Y-78486000D01*
X118237000Y-78486000D01*
X118237000Y-77286750D01*
X118078250Y-77128000D01*
X117387690Y-77128000D01*
X117154301Y-77224673D01*
X116975673Y-77403302D01*
X116879000Y-77636691D01*
X97865000Y-77636691D01*
X97865000Y-71794000D01*
X101626560Y-71794000D01*
X101626560Y-73494000D01*
X101675843Y-73741765D01*
X101816191Y-73951809D01*
X102026235Y-74092157D01*
X102274000Y-74141440D01*
X103974000Y-74141440D01*
X104221765Y-74092157D01*
X104431809Y-73951809D01*
X104572157Y-73741765D01*
X104581184Y-73696381D01*
X104593375Y-73714625D01*
X105084582Y-74042839D01*
X105517744Y-74129000D01*
X105810256Y-74129000D01*
X106243418Y-74042839D01*
X106734625Y-73714625D01*
X106934000Y-73416239D01*
X107133375Y-73714625D01*
X107624582Y-74042839D01*
X108057744Y-74129000D01*
X108350256Y-74129000D01*
X108783418Y-74042839D01*
X109274625Y-73714625D01*
X109474000Y-73416239D01*
X109673375Y-73714625D01*
X110164582Y-74042839D01*
X110597744Y-74129000D01*
X110890256Y-74129000D01*
X111323418Y-74042839D01*
X111814625Y-73714625D01*
X112014000Y-73416239D01*
X112213375Y-73714625D01*
X112704582Y-74042839D01*
X113137744Y-74129000D01*
X113430256Y-74129000D01*
X113863418Y-74042839D01*
X114354625Y-73714625D01*
X114682839Y-73223418D01*
X114798092Y-72644000D01*
X114682839Y-72064582D01*
X114354625Y-71573375D01*
X114054214Y-71372647D01*
X114479183Y-70985358D01*
X114725486Y-70460892D01*
X114604819Y-70231000D01*
X113411000Y-70231000D01*
X113411000Y-70251000D01*
X113157000Y-70251000D01*
X113157000Y-70231000D01*
X113137000Y-70231000D01*
X113137000Y-69977000D01*
X113157000Y-69977000D01*
X113157000Y-69957000D01*
X113411000Y-69957000D01*
X113411000Y-69977000D01*
X114604819Y-69977000D01*
X114725486Y-69747108D01*
X114479183Y-69222642D01*
X114050924Y-68832355D01*
X113646757Y-68664954D01*
X113780431Y-68531280D01*
X113938000Y-68150874D01*
X113938000Y-67739126D01*
X113780431Y-67358720D01*
X113666574Y-67244863D01*
X113880136Y-67031301D01*
X114037705Y-66650895D01*
X114037705Y-66239147D01*
X113980151Y-66100198D01*
X117487602Y-66100198D01*
X117502001Y-66172587D01*
X117502000Y-73206616D01*
X117487602Y-73279000D01*
X117502000Y-73351384D01*
X117502000Y-73351387D01*
X117544646Y-73565782D01*
X117707095Y-73808905D01*
X117768465Y-73849911D01*
X118445000Y-74526447D01*
X118445000Y-74607983D01*
X118587345Y-74951635D01*
X118850365Y-75214655D01*
X119194017Y-75357000D01*
X119565983Y-75357000D01*
X119909635Y-75214655D01*
X120078500Y-75045790D01*
X120120365Y-75087655D01*
X120464017Y-75230000D01*
X120835983Y-75230000D01*
X121179635Y-75087655D01*
X121275777Y-74991513D01*
X121530110Y-75161454D01*
X121759086Y-75207000D01*
X121759090Y-75207000D01*
X121836402Y-75222378D01*
X121913714Y-75207000D01*
X122849032Y-75207000D01*
X122926344Y-75222378D01*
X123003656Y-75207000D01*
X123813289Y-75207000D01*
X123873720Y-75267431D01*
X124254126Y-75425000D01*
X124665874Y-75425000D01*
X125046280Y-75267431D01*
X125106711Y-75207000D01*
X130131289Y-75207000D01*
X130223720Y-75299431D01*
X130604126Y-75457000D01*
X131015874Y-75457000D01*
X131396280Y-75299431D01*
X131408821Y-75286890D01*
X150323524Y-75286890D01*
X150493355Y-75696924D01*
X150883642Y-76125183D01*
X151408108Y-76371486D01*
X151638000Y-76250819D01*
X151638000Y-75057000D01*
X150444845Y-75057000D01*
X150323524Y-75286890D01*
X131408821Y-75286890D01*
X131687431Y-75008280D01*
X131845000Y-74627874D01*
X131845000Y-74216126D01*
X131687431Y-73835720D01*
X131396280Y-73544569D01*
X131015874Y-73387000D01*
X130604126Y-73387000D01*
X130223720Y-73544569D01*
X130131289Y-73637000D01*
X129205446Y-73637000D01*
X130787447Y-72055000D01*
X130868983Y-72055000D01*
X131212635Y-71912655D01*
X131475655Y-71649635D01*
X131618000Y-71305983D01*
X131618000Y-70934017D01*
X131475655Y-70590365D01*
X131212635Y-70327345D01*
X130868983Y-70185000D01*
X130497017Y-70185000D01*
X130153365Y-70327345D01*
X129890345Y-70590365D01*
X129748000Y-70934017D01*
X129748000Y-71015553D01*
X129363807Y-71399746D01*
X129342161Y-71367351D01*
X129280794Y-71326347D01*
X127827000Y-69872554D01*
X127827000Y-69791017D01*
X127762762Y-69635932D01*
X128084017Y-69769000D01*
X128455983Y-69769000D01*
X128799635Y-69626655D01*
X129062655Y-69363635D01*
X129205000Y-69019983D01*
X129205000Y-68938446D01*
X131238528Y-66904919D01*
X131299895Y-66863915D01*
X131462344Y-66620793D01*
X131504990Y-66406398D01*
X131504990Y-66406397D01*
X131519389Y-66334010D01*
X131504990Y-66261622D01*
X131504990Y-64361745D01*
X131562645Y-64304090D01*
X131704990Y-63960438D01*
X131704990Y-63588472D01*
X131562645Y-63244820D01*
X131299625Y-62981800D01*
X130955973Y-62839455D01*
X130584007Y-62839455D01*
X130240355Y-62981800D01*
X129977335Y-63244820D01*
X129834990Y-63588472D01*
X129834990Y-63960438D01*
X129977335Y-64304090D01*
X130034991Y-64361746D01*
X130034990Y-66029563D01*
X128165554Y-67899000D01*
X128084017Y-67899000D01*
X127895663Y-67977019D01*
X127884020Y-67918485D01*
X127884020Y-65125310D01*
X127941675Y-65067655D01*
X128084020Y-64724003D01*
X128084020Y-64352037D01*
X127941675Y-64008385D01*
X127678655Y-63745365D01*
X127335003Y-63603020D01*
X126963037Y-63603020D01*
X126619385Y-63745365D01*
X126356365Y-64008385D01*
X126214020Y-64352037D01*
X126214020Y-64724003D01*
X126356365Y-65067655D01*
X126414020Y-65125310D01*
X126414021Y-67449133D01*
X126336253Y-67481345D01*
X126073233Y-67744365D01*
X126026778Y-67856518D01*
X125896652Y-67542365D01*
X125633632Y-67279345D01*
X125289980Y-67137000D01*
X125208444Y-67137000D01*
X124814000Y-66742557D01*
X124814000Y-65547444D01*
X125228537Y-65132908D01*
X125289904Y-65091904D01*
X125364936Y-64979610D01*
X125452353Y-64848782D01*
X125468024Y-64770000D01*
X125509398Y-64561999D01*
X125452353Y-64275217D01*
X125395000Y-64189382D01*
X125395000Y-64076017D01*
X125252655Y-63732365D01*
X124989635Y-63469345D01*
X124920816Y-63440839D01*
X124791377Y-63128345D01*
X124622792Y-62959760D01*
X124622792Y-62778498D01*
X124532589Y-62560727D01*
X124590715Y-62502601D01*
X124733060Y-62158949D01*
X124733060Y-61786983D01*
X124590715Y-61443331D01*
X124327695Y-61180311D01*
X123984043Y-61037966D01*
X123612077Y-61037966D01*
X123268425Y-61180311D01*
X123210770Y-61237966D01*
X122436615Y-61237966D01*
X122364231Y-61223568D01*
X122291847Y-61237966D01*
X122291844Y-61237966D01*
X122077449Y-61280612D01*
X121834327Y-61443061D01*
X121793323Y-61504428D01*
X117768463Y-65529289D01*
X117707096Y-65570293D01*
X117666092Y-65631660D01*
X117666091Y-65631661D01*
X117544646Y-65813416D01*
X117487602Y-66100198D01*
X113980151Y-66100198D01*
X113880136Y-65858741D01*
X113787705Y-65766310D01*
X113787705Y-65757452D01*
X120217158Y-59328000D01*
X120347874Y-59328000D01*
X120728280Y-59170431D01*
X121019431Y-58879280D01*
X121177000Y-58498874D01*
X121177000Y-58087126D01*
X121019431Y-57706720D01*
X120993711Y-57681000D01*
X124289289Y-57681000D01*
X124381720Y-57773431D01*
X124762126Y-57931000D01*
X125173874Y-57931000D01*
X125554280Y-57773431D01*
X125845431Y-57482280D01*
X126003000Y-57101874D01*
X126003000Y-56690126D01*
X125845431Y-56309720D01*
X125770715Y-56235004D01*
X125823612Y-56107298D01*
X125823612Y-55976581D01*
X126014110Y-55786083D01*
X127454206Y-55786083D01*
X127546637Y-55878514D01*
X127927043Y-56036083D01*
X128338791Y-56036083D01*
X128719197Y-55878514D01*
X129010348Y-55587363D01*
X129167917Y-55206957D01*
X129167917Y-54795209D01*
X129010348Y-54414803D01*
X128719197Y-54123652D01*
X128338791Y-53966083D01*
X127927043Y-53966083D01*
X127546637Y-54123652D01*
X127454206Y-54216083D01*
X125766263Y-54216083D01*
X125688952Y-54200705D01*
X125611641Y-54216083D01*
X125611637Y-54216083D01*
X125382661Y-54261629D01*
X125123000Y-54435130D01*
X125079204Y-54500675D01*
X124843610Y-54736269D01*
X124843610Y-53304547D01*
X125109657Y-53038500D01*
X130955000Y-53038500D01*
X130955000Y-53410466D01*
X131097345Y-53754118D01*
X131360365Y-54017138D01*
X131704017Y-54159483D01*
X132075983Y-54159483D01*
X132419635Y-54017138D01*
X132682655Y-53754118D01*
X132825000Y-53410466D01*
X132825000Y-53038500D01*
X132701969Y-52741477D01*
X135867001Y-49576446D01*
X135867001Y-50205681D01*
X135856903Y-50256449D01*
X135839160Y-50299284D01*
X135839160Y-50711032D01*
X135996729Y-51091438D01*
X136287880Y-51382589D01*
X136668286Y-51540158D01*
X136799003Y-51540158D01*
X139925902Y-54667058D01*
X139925902Y-54693284D01*
X139833470Y-54785716D01*
X139675901Y-55166122D01*
X139675901Y-55577870D01*
X139833470Y-55958276D01*
X139925901Y-56050707D01*
X139925902Y-58368456D01*
X139427522Y-57870076D01*
X139427522Y-57788539D01*
X139285177Y-57444887D01*
X139022157Y-57181867D01*
X138678505Y-57039522D01*
X138306539Y-57039522D01*
X137962887Y-57181867D01*
X137699867Y-57444887D01*
X137557522Y-57788539D01*
X137557522Y-58160505D01*
X137699867Y-58504157D01*
X137962887Y-58767177D01*
X138306539Y-58909522D01*
X138388076Y-58909522D01*
X138900132Y-59421578D01*
X138780345Y-59541365D01*
X138777182Y-59549000D01*
X138681372Y-59549000D01*
X138337720Y-59691345D01*
X138074700Y-59954365D01*
X137932355Y-60298017D01*
X137932355Y-60669983D01*
X137983004Y-60792261D01*
X137873858Y-61055764D01*
X137873858Y-61427730D01*
X137950489Y-61612733D01*
X137859217Y-61833083D01*
X137859217Y-62205049D01*
X138001562Y-62548701D01*
X138264582Y-62811721D01*
X138608234Y-62954066D01*
X138689771Y-62954066D01*
X141788242Y-66052538D01*
X141829246Y-66113905D01*
X142072368Y-66276354D01*
X142286763Y-66319000D01*
X142286766Y-66319000D01*
X142359150Y-66333398D01*
X142431534Y-66319000D01*
X146300546Y-66319000D01*
X146358201Y-66376655D01*
X146701853Y-66519000D01*
X147073819Y-66519000D01*
X147417471Y-66376655D01*
X147680491Y-66113635D01*
X147767647Y-65903220D01*
X147976635Y-65816655D01*
X148239655Y-65553635D01*
X148382000Y-65209983D01*
X148382000Y-64838017D01*
X148239655Y-64494365D01*
X147976635Y-64231345D01*
X147720812Y-64125380D01*
X147618786Y-63879066D01*
X147355766Y-63616046D01*
X147315815Y-63599498D01*
X147175815Y-63261507D01*
X146912795Y-62998487D01*
X146617767Y-62876283D01*
X146581249Y-62788121D01*
X146318229Y-62525101D01*
X145974577Y-62382756D01*
X145954522Y-62382756D01*
X145911429Y-62278720D01*
X145620278Y-61987569D01*
X145239872Y-61830000D01*
X144828124Y-61830000D01*
X144626844Y-61913373D01*
X141495901Y-58782431D01*
X141495901Y-57008058D01*
X143491000Y-59003158D01*
X143491000Y-59133874D01*
X143648569Y-59514280D01*
X143939720Y-59805431D01*
X144320126Y-59963000D01*
X144731874Y-59963000D01*
X145112280Y-59805431D01*
X145403431Y-59514280D01*
X145561000Y-59133874D01*
X145561000Y-58722126D01*
X145403431Y-58341720D01*
X145112280Y-58050569D01*
X144731874Y-57893000D01*
X144601158Y-57893000D01*
X142771000Y-56062843D01*
X142771000Y-50208711D01*
X142863431Y-50116280D01*
X143021000Y-49735874D01*
X143021000Y-49324126D01*
X142863431Y-48943720D01*
X142572280Y-48652569D01*
X142191874Y-48495000D01*
X141780126Y-48495000D01*
X141399720Y-48652569D01*
X141108569Y-48943720D01*
X140951000Y-49324126D01*
X140951000Y-49735874D01*
X141108569Y-50116280D01*
X141201000Y-50208711D01*
X141201001Y-53721841D01*
X137909160Y-50430001D01*
X137909160Y-50299284D01*
X137751591Y-49918878D01*
X137460440Y-49627727D01*
X137437000Y-49618018D01*
X137437000Y-47922711D01*
X137529431Y-47830280D01*
X137687000Y-47449874D01*
X137687000Y-47038126D01*
X137529431Y-46657720D01*
X137238280Y-46366569D01*
X136857874Y-46209000D01*
X136446126Y-46209000D01*
X136065720Y-46366569D01*
X135774569Y-46657720D01*
X135617000Y-47038126D01*
X135617000Y-47449874D01*
X135723091Y-47706000D01*
X135577017Y-47706000D01*
X135233365Y-47848345D01*
X134970345Y-48111365D01*
X134828000Y-48455017D01*
X134828000Y-48536553D01*
X131421463Y-51943091D01*
X131360096Y-51984095D01*
X131319092Y-52045462D01*
X131319091Y-52045463D01*
X131197646Y-52227218D01*
X131185261Y-52289483D01*
X131155000Y-52441612D01*
X131155000Y-52441616D01*
X131140602Y-52514000D01*
X131155000Y-52586384D01*
X131155000Y-52637193D01*
X131097345Y-52694848D01*
X130955000Y-53038500D01*
X125109657Y-53038500D01*
X127335000Y-50813158D01*
X127335000Y-50985981D01*
X127477345Y-51329633D01*
X127740365Y-51592653D01*
X128084017Y-51734998D01*
X128455983Y-51734998D01*
X128799635Y-51592653D01*
X129004829Y-51387459D01*
X129233828Y-51482313D01*
X129605794Y-51482313D01*
X129949446Y-51339968D01*
X130212466Y-51076948D01*
X130354811Y-50733296D01*
X130354811Y-50361330D01*
X130212466Y-50017678D01*
X130021000Y-49826212D01*
X130021000Y-49482290D01*
X130078655Y-49424635D01*
X130221000Y-49080983D01*
X130221000Y-48709017D01*
X130078655Y-48365365D01*
X129815635Y-48102345D01*
X129471983Y-47960000D01*
X129100017Y-47960000D01*
X128876764Y-48052474D01*
X128799635Y-47975345D01*
X128455983Y-47833000D01*
X128084017Y-47833000D01*
X127740365Y-47975345D01*
X127477345Y-48238365D01*
X127335000Y-48582017D01*
X127335000Y-48622000D01*
X127175126Y-48622000D01*
X126794720Y-48779569D01*
X126503569Y-49070720D01*
X126346000Y-49451126D01*
X126346000Y-49581842D01*
X123558200Y-52369643D01*
X123492658Y-52413437D01*
X123448864Y-52478979D01*
X123448861Y-52478982D01*
X123319156Y-52673099D01*
X123258232Y-52979390D01*
X123273611Y-53056707D01*
X123273610Y-56111000D01*
X118689158Y-56111000D01*
X118383000Y-55804843D01*
X118383000Y-55674126D01*
X118225431Y-55293720D01*
X117934280Y-55002569D01*
X117553874Y-54845000D01*
X117142126Y-54845000D01*
X116761720Y-55002569D01*
X116470569Y-55293720D01*
X116313000Y-55674126D01*
X116313000Y-56085874D01*
X116470569Y-56466280D01*
X116761720Y-56757431D01*
X117142126Y-56915000D01*
X117272843Y-56915000D01*
X117754253Y-57396410D01*
X117798047Y-57461953D01*
X117863589Y-57505747D01*
X117863591Y-57505749D01*
X118057707Y-57635453D01*
X118057708Y-57635454D01*
X118286684Y-57681000D01*
X118286688Y-57681000D01*
X118364000Y-57696378D01*
X118441312Y-57681000D01*
X119290289Y-57681000D01*
X119264569Y-57706720D01*
X119107000Y-58087126D01*
X119107000Y-58217842D01*
X112502297Y-64822546D01*
X112436752Y-64866342D01*
X112392956Y-64931887D01*
X112339822Y-65011407D01*
X112263251Y-65126004D01*
X112217705Y-65354980D01*
X112217705Y-65354983D01*
X112202327Y-65432295D01*
X112217705Y-65509607D01*
X112217705Y-65766310D01*
X112125274Y-65858741D01*
X111967705Y-66239147D01*
X111967705Y-66650895D01*
X111981113Y-66683266D01*
X111453977Y-66683266D01*
X111361546Y-66590835D01*
X110981140Y-66433266D01*
X110569392Y-66433266D01*
X110188986Y-66590835D01*
X109897835Y-66881986D01*
X109740266Y-67262392D01*
X109740266Y-67674140D01*
X109897835Y-68054546D01*
X110188986Y-68345697D01*
X110569392Y-68503266D01*
X110981140Y-68503266D01*
X111361546Y-68345697D01*
X111453977Y-68253266D01*
X111910412Y-68253266D01*
X112025569Y-68531280D01*
X112316720Y-68822431D01*
X112461955Y-68882589D01*
X112088817Y-69222642D01*
X112027843Y-69352478D01*
X111814625Y-69033375D01*
X111323418Y-68705161D01*
X110890256Y-68619000D01*
X110597744Y-68619000D01*
X110164582Y-68705161D01*
X109673375Y-69033375D01*
X109474000Y-69331761D01*
X109274625Y-69033375D01*
X108783418Y-68705161D01*
X108350256Y-68619000D01*
X108057744Y-68619000D01*
X107624582Y-68705161D01*
X107133375Y-69033375D01*
X106934000Y-69331761D01*
X106734625Y-69033375D01*
X106243418Y-68705161D01*
X105810256Y-68619000D01*
X105517744Y-68619000D01*
X105084582Y-68705161D01*
X104593375Y-69033375D01*
X104380157Y-69352478D01*
X104319183Y-69222642D01*
X103890924Y-68832355D01*
X103480890Y-68662524D01*
X103251000Y-68783845D01*
X103251000Y-69977000D01*
X103271000Y-69977000D01*
X103271000Y-70231000D01*
X103251000Y-70231000D01*
X103251000Y-70251000D01*
X102997000Y-70251000D01*
X102997000Y-70231000D01*
X101803181Y-70231000D01*
X101682514Y-70460892D01*
X101928817Y-70985358D01*
X102135855Y-71174039D01*
X102026235Y-71195843D01*
X101816191Y-71336191D01*
X101675843Y-71546235D01*
X101626560Y-71794000D01*
X97865000Y-71794000D01*
X97865000Y-69747108D01*
X101682514Y-69747108D01*
X101803181Y-69977000D01*
X102997000Y-69977000D01*
X102997000Y-68783845D01*
X102767110Y-68662524D01*
X102357076Y-68832355D01*
X101928817Y-69222642D01*
X101682514Y-69747108D01*
X97865000Y-69747108D01*
X97865000Y-56022000D01*
X101917560Y-56022000D01*
X101917560Y-57772000D01*
X102033449Y-58354613D01*
X102363472Y-58848528D01*
X102857387Y-59178551D01*
X103440000Y-59294440D01*
X105190000Y-59294440D01*
X105772613Y-59178551D01*
X106266528Y-58848528D01*
X106596551Y-58354613D01*
X106712440Y-57772000D01*
X106712440Y-56022000D01*
X106596551Y-55439387D01*
X106266528Y-54945472D01*
X105772613Y-54615449D01*
X105666994Y-54594440D01*
X109065000Y-54594440D01*
X109312765Y-54545157D01*
X109522809Y-54404809D01*
X109663157Y-54194765D01*
X109712440Y-53947000D01*
X109712440Y-50447000D01*
X109663157Y-50199235D01*
X109522809Y-49989191D01*
X109312765Y-49848843D01*
X109065000Y-49799560D01*
X105565000Y-49799560D01*
X105317235Y-49848843D01*
X105107191Y-49989191D01*
X104966843Y-50199235D01*
X104917560Y-50447000D01*
X104917560Y-53947000D01*
X104966843Y-54194765D01*
X105107191Y-54404809D01*
X105274001Y-54516269D01*
X105190000Y-54499560D01*
X103440000Y-54499560D01*
X102857387Y-54615449D01*
X102363472Y-54945472D01*
X102033449Y-55439387D01*
X101917560Y-56022000D01*
X97865000Y-56022000D01*
X97865000Y-52482750D01*
X99180000Y-52482750D01*
X99180000Y-54073310D01*
X99276673Y-54306699D01*
X99455302Y-54485327D01*
X99688691Y-54582000D01*
X101029250Y-54582000D01*
X101188000Y-54423250D01*
X101188000Y-52324000D01*
X101442000Y-52324000D01*
X101442000Y-54423250D01*
X101600750Y-54582000D01*
X102941309Y-54582000D01*
X103174698Y-54485327D01*
X103353327Y-54306699D01*
X103450000Y-54073310D01*
X103450000Y-52482750D01*
X103291250Y-52324000D01*
X101442000Y-52324000D01*
X101188000Y-52324000D01*
X99338750Y-52324000D01*
X99180000Y-52482750D01*
X97865000Y-52482750D01*
X97865000Y-50320690D01*
X99180000Y-50320690D01*
X99180000Y-51911250D01*
X99338750Y-52070000D01*
X101188000Y-52070000D01*
X101188000Y-49970750D01*
X101442000Y-49970750D01*
X101442000Y-52070000D01*
X103291250Y-52070000D01*
X103450000Y-51911250D01*
X103450000Y-50320690D01*
X103353327Y-50087301D01*
X103174698Y-49908673D01*
X102941309Y-49812000D01*
X101600750Y-49812000D01*
X101442000Y-49970750D01*
X101188000Y-49970750D01*
X101029250Y-49812000D01*
X99688691Y-49812000D01*
X99455302Y-49908673D01*
X99276673Y-50087301D01*
X99180000Y-50320690D01*
X97865000Y-50320690D01*
X97865000Y-40715000D01*
X118687922Y-40715000D01*
X118644560Y-40933000D01*
D22*
X136652000Y-47244000D03*
X130810000Y-74422000D03*
X140710901Y-55371996D03*
X145033998Y-62865000D03*
X124460000Y-74390000D03*
X119634000Y-70612000D03*
X120142000Y-58293000D03*
X113002705Y-66445021D03*
X128132917Y-55001083D03*
X124788612Y-55901424D03*
X136874160Y-50505158D03*
X132080000Y-58674000D03*
X114808000Y-61722000D03*
X113538000Y-56388000D03*
X114300000Y-51816000D03*
X114046000Y-46736000D03*
X121920000Y-54610000D03*
X138430000Y-66294000D03*
X144526000Y-61722000D03*
X146049998Y-55245000D03*
X126111000Y-67310000D03*
X132080000Y-72644000D03*
X103505000Y-66040000D03*
X136017000Y-65913000D03*
X124968000Y-56896000D03*
X117348000Y-55880000D03*
X141986000Y-49530000D03*
X144526000Y-58928000D03*
X127381000Y-49657000D03*
D23*
X128270000Y-68834000D03*
X120561603Y-68813192D03*
X130769990Y-63774455D03*
X130683000Y-71120000D03*
X121285000Y-72771000D03*
X119936517Y-65483491D03*
X121158000Y-64008000D03*
D22*
X110775266Y-67468266D03*
X112903000Y-67945000D03*
X120529130Y-72066354D03*
X119277021Y-69462514D03*
D23*
X129286000Y-48895000D03*
X129419811Y-50547313D03*
X128270000Y-48768000D03*
X128270000Y-50799998D03*
X138794217Y-62019066D03*
X146887836Y-65584000D03*
X138808858Y-61241747D03*
X147447000Y-65024000D03*
X138867355Y-60484000D03*
X146826131Y-64408701D03*
X139573000Y-60071000D03*
X146383160Y-63791142D03*
X138492522Y-57974522D03*
X145788594Y-63317756D03*
X131890000Y-53224483D03*
X135763000Y-48641000D03*
X119380000Y-74422000D03*
X123798060Y-61972966D03*
X123687792Y-62964481D03*
X120650000Y-74295000D03*
X121158000Y-68274000D03*
X121158000Y-69723000D03*
X123998722Y-63657980D03*
X122492259Y-72583228D03*
X125103997Y-68072000D03*
X126131997Y-69977000D03*
X124460000Y-64262000D03*
X126492000Y-71755000D03*
X126865888Y-68274000D03*
X128812256Y-72198784D03*
X126892000Y-69977000D03*
X127149020Y-64538020D03*
D22*
X118364000Y-78613000D03*
X120904000Y-78613000D03*
X123444000Y-78613000D03*
X125984000Y-78613000D03*
X128524000Y-78613000D03*
X131064000Y-78613000D03*
X133604000Y-78613000D03*
X151765000Y-44450000D03*
X151765000Y-46990000D03*
X151765000Y-49530000D03*
X151765000Y-52070000D03*
X151765000Y-54610000D03*
X151765000Y-57150000D03*
X151765000Y-59690000D03*
X151765000Y-62230000D03*
X151765000Y-64770000D03*
X151765000Y-67310000D03*
X151765000Y-69850000D03*
X151765000Y-72390000D03*
X151765000Y-74930000D03*
X120142000Y-41783000D03*
X122682000Y-41783000D03*
X125222000Y-41783000D03*
X127762000Y-41783000D03*
X130302000Y-41783000D03*
X132842000Y-41783000D03*
X135382000Y-41783000D03*
X137922000Y-41783000D03*
X140462000Y-41783000D03*
X143002000Y-41783000D03*
X103124000Y-72644000D03*
X103124000Y-70104000D03*
X105664000Y-72644000D03*
X105664000Y-70104000D03*
X108204000Y-72644000D03*
X108204000Y-70104000D03*
X110744000Y-72644000D03*
X110744000Y-70104000D03*
X113284000Y-72644000D03*
X113284000Y-70104000D03*
D24*
X107315000Y-52197000D03*
X101315000Y-52197000D03*
D25*
X104315000Y-56897000D03*
M02*
