M48
;DRILL file {KiCad 5.0.2} date 2019年02月13日 星期三 10时06分58秒
;FORMAT={-:-/ absolute / metric / decimal}
FMAT,2
METRIC,TZ
T1C0.300
T2C0.400
T3C1.000
T4C2.100
%
G90
G05
T1
X119.38Y-74.422
X119.937Y-65.483
X120.562Y-68.813
X120.65Y-74.295
X121.158Y-64.008
X121.158Y-68.274
X121.158Y-69.723
X121.285Y-72.771
X122.492Y-72.583
X123.688Y-62.964
X123.798Y-61.973
X123.999Y-63.658
X124.46Y-64.262
X125.104Y-68.072
X126.132Y-69.977
X126.492Y-71.755
X126.866Y-68.274
X126.892Y-69.977
X127.149Y-64.538
X128.27Y-48.768
X128.27Y-50.8
X128.27Y-68.834
X128.812Y-72.199
X129.286Y-48.895
X129.42Y-50.547
X130.683Y-71.12
X130.77Y-63.774
X131.89Y-53.224
X135.763Y-48.641
X138.493Y-57.975
X138.794Y-62.019
X138.809Y-61.242
X138.867Y-60.484
X139.573Y-60.071
X145.789Y-63.318
X146.383Y-63.791
X146.826Y-64.409
X146.888Y-65.584
X147.447Y-65.024
T2
X103.505Y-66.04
X110.775Y-67.468
X112.903Y-67.945
X113.003Y-66.445
X113.538Y-56.388
X114.046Y-46.736
X114.3Y-51.816
X114.808Y-61.722
X117.348Y-55.88
X119.277Y-69.463
X119.634Y-70.612
X120.142Y-58.293
X120.529Y-72.066
X121.92Y-54.61
X124.46Y-74.39
X124.789Y-55.901
X124.968Y-56.896
X126.111Y-67.31
X127.381Y-49.657
X128.133Y-55.001
X130.81Y-74.422
X132.08Y-72.644
X136.017Y-65.913
X136.652Y-47.244
X136.874Y-50.505
X138.43Y-66.294
X140.711Y-55.372
X141.986Y-49.53
X144.526Y-58.928
X144.526Y-61.722
X145.034Y-62.865
X146.05Y-55.245
T3
X103.124Y-70.104
X103.124Y-72.644
X105.664Y-70.104
X105.664Y-72.644
X108.204Y-70.104
X108.204Y-72.644
X110.744Y-70.104
X110.744Y-72.644
X113.284Y-70.104
X113.284Y-72.644
X118.364Y-78.613
X120.904Y-78.613
X123.444Y-78.613
X125.984Y-78.613
X128.524Y-78.613
X131.064Y-78.613
X133.604Y-78.613
X120.142Y-41.783
X122.682Y-41.783
X125.222Y-41.783
X127.762Y-41.783
X130.302Y-41.783
X132.842Y-41.783
X135.382Y-41.783
X137.922Y-41.783
X140.462Y-41.783
X143.002Y-41.783
X151.765Y-44.45
X151.765Y-46.99
X151.765Y-49.53
X151.765Y-52.07
X151.765Y-54.61
X151.765Y-57.15
X151.765Y-59.69
X151.765Y-62.23
X151.765Y-64.77
X151.765Y-67.31
X151.765Y-69.85
X151.765Y-72.39
X151.765Y-74.93
T4
X132.08Y-58.674
T3
X101.315Y-51.197
X101.315Y-51.597
X101.315Y-51.997
X101.315Y-52.397
X101.315Y-52.797
X101.315Y-53.197
X103.315Y-56.897
X103.715Y-56.897
X104.115Y-56.897
X104.515Y-56.897
X104.915Y-56.897
X105.315Y-56.897
X107.315Y-51.197
X107.315Y-51.597
X107.315Y-51.997
X107.315Y-52.397
X107.315Y-52.797
X107.315Y-53.197
T0
M30
