%TF.GenerationSoftware,KiCad,Pcbnew,5.0.2*%
%TF.CreationDate,2019-02-13T10:06:58+08:00*%
%TF.ProjectId,ice40up5k-qfn48,69636534-3075-4703-956b-2d71666e3438,rev?*%
%TF.SameCoordinates,Original*%
%TF.FileFunction,Soldermask,Bot*%
%TF.FilePolarity,Negative*%
%FSLAX46Y46*%
G04 Gerber Fmt 4.6, Leading zero omitted, Abs format (unit mm)*
G04 Created by KiCad (PCBNEW 5.0.2) date 2019年02月13日 星期三 10时06分58秒*
%MOMM*%
%LPD*%
G01*
G04 APERTURE LIST*
%ADD10C,2.100000*%
%ADD11C,0.500000*%
%ADD12C,0.350000*%
G04 APERTURE END LIST*
D10*
X133130000Y-58674000D02*
G75*
G03X133130000Y-58674000I-1050000J0D01*
G01*
D11*
X147716047Y-71036761D02*
X147716047Y-69703428D01*
X147716047Y-69036761D02*
X147811285Y-69132000D01*
X147716047Y-69227238D01*
X147620809Y-69132000D01*
X147716047Y-69036761D01*
X147716047Y-69227238D01*
X145620809Y-70846285D02*
X145716047Y-70941523D01*
X146001761Y-71036761D01*
X146192238Y-71036761D01*
X146477952Y-70941523D01*
X146668428Y-70751047D01*
X146763666Y-70560571D01*
X146858904Y-70179619D01*
X146858904Y-69893904D01*
X146763666Y-69512952D01*
X146668428Y-69322476D01*
X146477952Y-69132000D01*
X146192238Y-69036761D01*
X146001761Y-69036761D01*
X145716047Y-69132000D01*
X145620809Y-69227238D01*
X144763666Y-69989142D02*
X144097000Y-69989142D01*
X143811285Y-71036761D02*
X144763666Y-71036761D01*
X144763666Y-69036761D01*
X143811285Y-69036761D01*
X141811285Y-70846285D02*
X141906523Y-70941523D01*
X142192238Y-71036761D01*
X142382714Y-71036761D01*
X142668428Y-70941523D01*
X142858904Y-70751047D01*
X142954142Y-70560571D01*
X143049380Y-70179619D01*
X143049380Y-69893904D01*
X142954142Y-69512952D01*
X142858904Y-69322476D01*
X142668428Y-69132000D01*
X142382714Y-69036761D01*
X142192238Y-69036761D01*
X141906523Y-69132000D01*
X141811285Y-69227238D01*
X140954142Y-71036761D02*
X140954142Y-69703428D01*
X140954142Y-70084380D02*
X140858904Y-69893904D01*
X140763666Y-69798666D01*
X140573190Y-69703428D01*
X140382714Y-69703428D01*
X138954142Y-70941523D02*
X139144619Y-71036761D01*
X139525571Y-71036761D01*
X139716047Y-70941523D01*
X139811285Y-70751047D01*
X139811285Y-69989142D01*
X139716047Y-69798666D01*
X139525571Y-69703428D01*
X139144619Y-69703428D01*
X138954142Y-69798666D01*
X138858904Y-69989142D01*
X138858904Y-70179619D01*
X139811285Y-70370095D01*
X137144619Y-71036761D02*
X137144619Y-69989142D01*
X137239857Y-69798666D01*
X137430333Y-69703428D01*
X137811285Y-69703428D01*
X138001761Y-69798666D01*
X137144619Y-70941523D02*
X137335095Y-71036761D01*
X137811285Y-71036761D01*
X138001761Y-70941523D01*
X138097000Y-70751047D01*
X138097000Y-70560571D01*
X138001761Y-70370095D01*
X137811285Y-70274857D01*
X137335095Y-70274857D01*
X137144619Y-70179619D01*
X136192238Y-71036761D02*
X136192238Y-69703428D01*
X136192238Y-69893904D02*
X136097000Y-69798666D01*
X135906523Y-69703428D01*
X135620809Y-69703428D01*
X135430333Y-69798666D01*
X135335095Y-69989142D01*
X135335095Y-71036761D01*
X135335095Y-69989142D02*
X135239857Y-69798666D01*
X135049380Y-69703428D01*
X134763666Y-69703428D01*
X134573190Y-69798666D01*
X134477952Y-69989142D01*
X134477952Y-71036761D01*
X148858904Y-74536761D02*
X148858904Y-72536761D01*
X148858904Y-73298666D02*
X148668428Y-73203428D01*
X148287476Y-73203428D01*
X148097000Y-73298666D01*
X148001761Y-73393904D01*
X147906523Y-73584380D01*
X147906523Y-74155809D01*
X148001761Y-74346285D01*
X148097000Y-74441523D01*
X148287476Y-74536761D01*
X148668428Y-74536761D01*
X148858904Y-74441523D01*
X147239857Y-73203428D02*
X146763666Y-74536761D01*
X146287476Y-73203428D02*
X146763666Y-74536761D01*
X146954142Y-75012952D01*
X147049380Y-75108190D01*
X147239857Y-75203428D01*
X144001761Y-74536761D02*
X144001761Y-72536761D01*
X142192238Y-74441523D02*
X142382714Y-74536761D01*
X142763666Y-74536761D01*
X142954142Y-74441523D01*
X143049380Y-74346285D01*
X143144619Y-74155809D01*
X143144619Y-73584380D01*
X143049380Y-73393904D01*
X142954142Y-73298666D01*
X142763666Y-73203428D01*
X142382714Y-73203428D01*
X142192238Y-73298666D01*
X140573190Y-74441523D02*
X140763666Y-74536761D01*
X141144619Y-74536761D01*
X141335095Y-74441523D01*
X141430333Y-74251047D01*
X141430333Y-73489142D01*
X141335095Y-73298666D01*
X141144619Y-73203428D01*
X140763666Y-73203428D01*
X140573190Y-73298666D01*
X140477952Y-73489142D01*
X140477952Y-73679619D01*
X141430333Y-73870095D01*
X139620809Y-73203428D02*
X139620809Y-74536761D01*
X139620809Y-73393904D02*
X139525571Y-73298666D01*
X139335095Y-73203428D01*
X139049380Y-73203428D01*
X138858904Y-73298666D01*
X138763666Y-73489142D01*
X138763666Y-74536761D01*
X137525571Y-74536761D02*
X137716047Y-74441523D01*
X137811285Y-74346285D01*
X137906523Y-74155809D01*
X137906523Y-73584380D01*
X137811285Y-73393904D01*
X137716047Y-73298666D01*
X137525571Y-73203428D01*
X137239857Y-73203428D01*
X137049380Y-73298666D01*
X136954142Y-73393904D01*
X136858904Y-73584380D01*
X136858904Y-74155809D01*
X136954142Y-74346285D01*
X137049380Y-74441523D01*
X137239857Y-74536761D01*
X137525571Y-74536761D01*
X136192238Y-73203428D02*
X135811285Y-74536761D01*
X135430333Y-73584380D01*
X135049380Y-74536761D01*
X134668428Y-73203428D01*
X134097000Y-73203428D02*
X133620809Y-74536761D01*
X133144619Y-73203428D02*
X133620809Y-74536761D01*
X133811285Y-75012952D01*
X133906523Y-75108190D01*
X134097000Y-75203428D01*
D12*
G36*
X133714443Y-77718519D02*
X133780627Y-77725037D01*
X133893853Y-77759384D01*
X133950467Y-77776557D01*
X134089087Y-77850652D01*
X134106991Y-77860222D01*
X134142729Y-77889552D01*
X134244186Y-77972814D01*
X134327448Y-78074271D01*
X134356778Y-78110009D01*
X134356779Y-78110011D01*
X134440443Y-78266533D01*
X134440443Y-78266534D01*
X134491963Y-78436373D01*
X134509359Y-78613000D01*
X134491963Y-78789627D01*
X134457616Y-78902853D01*
X134440443Y-78959467D01*
X134366348Y-79098087D01*
X134356778Y-79115991D01*
X134327448Y-79151729D01*
X134244186Y-79253186D01*
X134142729Y-79336448D01*
X134106991Y-79365778D01*
X134106989Y-79365779D01*
X133950467Y-79449443D01*
X133893853Y-79466616D01*
X133780627Y-79500963D01*
X133714443Y-79507481D01*
X133648260Y-79514000D01*
X133559740Y-79514000D01*
X133493557Y-79507481D01*
X133427373Y-79500963D01*
X133314147Y-79466616D01*
X133257533Y-79449443D01*
X133101011Y-79365779D01*
X133101009Y-79365778D01*
X133065271Y-79336448D01*
X132963814Y-79253186D01*
X132880552Y-79151729D01*
X132851222Y-79115991D01*
X132841652Y-79098087D01*
X132767557Y-78959467D01*
X132750384Y-78902853D01*
X132716037Y-78789627D01*
X132698641Y-78613000D01*
X132716037Y-78436373D01*
X132767557Y-78266534D01*
X132767557Y-78266533D01*
X132851221Y-78110011D01*
X132851222Y-78110009D01*
X132880552Y-78074271D01*
X132963814Y-77972814D01*
X133065271Y-77889552D01*
X133101009Y-77860222D01*
X133118913Y-77850652D01*
X133257533Y-77776557D01*
X133314147Y-77759384D01*
X133427373Y-77725037D01*
X133493557Y-77718519D01*
X133559740Y-77712000D01*
X133648260Y-77712000D01*
X133714443Y-77718519D01*
X133714443Y-77718519D01*
G37*
G36*
X131174443Y-77718519D02*
X131240627Y-77725037D01*
X131353853Y-77759384D01*
X131410467Y-77776557D01*
X131549087Y-77850652D01*
X131566991Y-77860222D01*
X131602729Y-77889552D01*
X131704186Y-77972814D01*
X131787448Y-78074271D01*
X131816778Y-78110009D01*
X131816779Y-78110011D01*
X131900443Y-78266533D01*
X131900443Y-78266534D01*
X131951963Y-78436373D01*
X131969359Y-78613000D01*
X131951963Y-78789627D01*
X131917616Y-78902853D01*
X131900443Y-78959467D01*
X131826348Y-79098087D01*
X131816778Y-79115991D01*
X131787448Y-79151729D01*
X131704186Y-79253186D01*
X131602729Y-79336448D01*
X131566991Y-79365778D01*
X131566989Y-79365779D01*
X131410467Y-79449443D01*
X131353853Y-79466616D01*
X131240627Y-79500963D01*
X131174443Y-79507481D01*
X131108260Y-79514000D01*
X131019740Y-79514000D01*
X130953557Y-79507481D01*
X130887373Y-79500963D01*
X130774147Y-79466616D01*
X130717533Y-79449443D01*
X130561011Y-79365779D01*
X130561009Y-79365778D01*
X130525271Y-79336448D01*
X130423814Y-79253186D01*
X130340552Y-79151729D01*
X130311222Y-79115991D01*
X130301652Y-79098087D01*
X130227557Y-78959467D01*
X130210384Y-78902853D01*
X130176037Y-78789627D01*
X130158641Y-78613000D01*
X130176037Y-78436373D01*
X130227557Y-78266534D01*
X130227557Y-78266533D01*
X130311221Y-78110011D01*
X130311222Y-78110009D01*
X130340552Y-78074271D01*
X130423814Y-77972814D01*
X130525271Y-77889552D01*
X130561009Y-77860222D01*
X130578913Y-77850652D01*
X130717533Y-77776557D01*
X130774147Y-77759384D01*
X130887373Y-77725037D01*
X130953557Y-77718519D01*
X131019740Y-77712000D01*
X131108260Y-77712000D01*
X131174443Y-77718519D01*
X131174443Y-77718519D01*
G37*
G36*
X119265000Y-79514000D02*
X117463000Y-79514000D01*
X117463000Y-77712000D01*
X119265000Y-77712000D01*
X119265000Y-79514000D01*
X119265000Y-79514000D01*
G37*
G36*
X121014443Y-77718519D02*
X121080627Y-77725037D01*
X121193853Y-77759384D01*
X121250467Y-77776557D01*
X121389087Y-77850652D01*
X121406991Y-77860222D01*
X121442729Y-77889552D01*
X121544186Y-77972814D01*
X121627448Y-78074271D01*
X121656778Y-78110009D01*
X121656779Y-78110011D01*
X121740443Y-78266533D01*
X121740443Y-78266534D01*
X121791963Y-78436373D01*
X121809359Y-78613000D01*
X121791963Y-78789627D01*
X121757616Y-78902853D01*
X121740443Y-78959467D01*
X121666348Y-79098087D01*
X121656778Y-79115991D01*
X121627448Y-79151729D01*
X121544186Y-79253186D01*
X121442729Y-79336448D01*
X121406991Y-79365778D01*
X121406989Y-79365779D01*
X121250467Y-79449443D01*
X121193853Y-79466616D01*
X121080627Y-79500963D01*
X121014443Y-79507481D01*
X120948260Y-79514000D01*
X120859740Y-79514000D01*
X120793557Y-79507481D01*
X120727373Y-79500963D01*
X120614147Y-79466616D01*
X120557533Y-79449443D01*
X120401011Y-79365779D01*
X120401009Y-79365778D01*
X120365271Y-79336448D01*
X120263814Y-79253186D01*
X120180552Y-79151729D01*
X120151222Y-79115991D01*
X120141652Y-79098087D01*
X120067557Y-78959467D01*
X120050384Y-78902853D01*
X120016037Y-78789627D01*
X119998641Y-78613000D01*
X120016037Y-78436373D01*
X120067557Y-78266534D01*
X120067557Y-78266533D01*
X120151221Y-78110011D01*
X120151222Y-78110009D01*
X120180552Y-78074271D01*
X120263814Y-77972814D01*
X120365271Y-77889552D01*
X120401009Y-77860222D01*
X120418913Y-77850652D01*
X120557533Y-77776557D01*
X120614147Y-77759384D01*
X120727373Y-77725037D01*
X120793557Y-77718519D01*
X120859740Y-77712000D01*
X120948260Y-77712000D01*
X121014443Y-77718519D01*
X121014443Y-77718519D01*
G37*
G36*
X126094443Y-77718519D02*
X126160627Y-77725037D01*
X126273853Y-77759384D01*
X126330467Y-77776557D01*
X126469087Y-77850652D01*
X126486991Y-77860222D01*
X126522729Y-77889552D01*
X126624186Y-77972814D01*
X126707448Y-78074271D01*
X126736778Y-78110009D01*
X126736779Y-78110011D01*
X126820443Y-78266533D01*
X126820443Y-78266534D01*
X126871963Y-78436373D01*
X126889359Y-78613000D01*
X126871963Y-78789627D01*
X126837616Y-78902853D01*
X126820443Y-78959467D01*
X126746348Y-79098087D01*
X126736778Y-79115991D01*
X126707448Y-79151729D01*
X126624186Y-79253186D01*
X126522729Y-79336448D01*
X126486991Y-79365778D01*
X126486989Y-79365779D01*
X126330467Y-79449443D01*
X126273853Y-79466616D01*
X126160627Y-79500963D01*
X126094443Y-79507481D01*
X126028260Y-79514000D01*
X125939740Y-79514000D01*
X125873557Y-79507481D01*
X125807373Y-79500963D01*
X125694147Y-79466616D01*
X125637533Y-79449443D01*
X125481011Y-79365779D01*
X125481009Y-79365778D01*
X125445271Y-79336448D01*
X125343814Y-79253186D01*
X125260552Y-79151729D01*
X125231222Y-79115991D01*
X125221652Y-79098087D01*
X125147557Y-78959467D01*
X125130384Y-78902853D01*
X125096037Y-78789627D01*
X125078641Y-78613000D01*
X125096037Y-78436373D01*
X125147557Y-78266534D01*
X125147557Y-78266533D01*
X125231221Y-78110011D01*
X125231222Y-78110009D01*
X125260552Y-78074271D01*
X125343814Y-77972814D01*
X125445271Y-77889552D01*
X125481009Y-77860222D01*
X125498913Y-77850652D01*
X125637533Y-77776557D01*
X125694147Y-77759384D01*
X125807373Y-77725037D01*
X125873557Y-77718519D01*
X125939740Y-77712000D01*
X126028260Y-77712000D01*
X126094443Y-77718519D01*
X126094443Y-77718519D01*
G37*
G36*
X128634443Y-77718519D02*
X128700627Y-77725037D01*
X128813853Y-77759384D01*
X128870467Y-77776557D01*
X129009087Y-77850652D01*
X129026991Y-77860222D01*
X129062729Y-77889552D01*
X129164186Y-77972814D01*
X129247448Y-78074271D01*
X129276778Y-78110009D01*
X129276779Y-78110011D01*
X129360443Y-78266533D01*
X129360443Y-78266534D01*
X129411963Y-78436373D01*
X129429359Y-78613000D01*
X129411963Y-78789627D01*
X129377616Y-78902853D01*
X129360443Y-78959467D01*
X129286348Y-79098087D01*
X129276778Y-79115991D01*
X129247448Y-79151729D01*
X129164186Y-79253186D01*
X129062729Y-79336448D01*
X129026991Y-79365778D01*
X129026989Y-79365779D01*
X128870467Y-79449443D01*
X128813853Y-79466616D01*
X128700627Y-79500963D01*
X128634443Y-79507481D01*
X128568260Y-79514000D01*
X128479740Y-79514000D01*
X128413557Y-79507481D01*
X128347373Y-79500963D01*
X128234147Y-79466616D01*
X128177533Y-79449443D01*
X128021011Y-79365779D01*
X128021009Y-79365778D01*
X127985271Y-79336448D01*
X127883814Y-79253186D01*
X127800552Y-79151729D01*
X127771222Y-79115991D01*
X127761652Y-79098087D01*
X127687557Y-78959467D01*
X127670384Y-78902853D01*
X127636037Y-78789627D01*
X127618641Y-78613000D01*
X127636037Y-78436373D01*
X127687557Y-78266534D01*
X127687557Y-78266533D01*
X127771221Y-78110011D01*
X127771222Y-78110009D01*
X127800552Y-78074271D01*
X127883814Y-77972814D01*
X127985271Y-77889552D01*
X128021009Y-77860222D01*
X128038913Y-77850652D01*
X128177533Y-77776557D01*
X128234147Y-77759384D01*
X128347373Y-77725037D01*
X128413557Y-77718519D01*
X128479740Y-77712000D01*
X128568260Y-77712000D01*
X128634443Y-77718519D01*
X128634443Y-77718519D01*
G37*
G36*
X123554443Y-77718519D02*
X123620627Y-77725037D01*
X123733853Y-77759384D01*
X123790467Y-77776557D01*
X123929087Y-77850652D01*
X123946991Y-77860222D01*
X123982729Y-77889552D01*
X124084186Y-77972814D01*
X124167448Y-78074271D01*
X124196778Y-78110009D01*
X124196779Y-78110011D01*
X124280443Y-78266533D01*
X124280443Y-78266534D01*
X124331963Y-78436373D01*
X124349359Y-78613000D01*
X124331963Y-78789627D01*
X124297616Y-78902853D01*
X124280443Y-78959467D01*
X124206348Y-79098087D01*
X124196778Y-79115991D01*
X124167448Y-79151729D01*
X124084186Y-79253186D01*
X123982729Y-79336448D01*
X123946991Y-79365778D01*
X123946989Y-79365779D01*
X123790467Y-79449443D01*
X123733853Y-79466616D01*
X123620627Y-79500963D01*
X123554443Y-79507481D01*
X123488260Y-79514000D01*
X123399740Y-79514000D01*
X123333557Y-79507481D01*
X123267373Y-79500963D01*
X123154147Y-79466616D01*
X123097533Y-79449443D01*
X122941011Y-79365779D01*
X122941009Y-79365778D01*
X122905271Y-79336448D01*
X122803814Y-79253186D01*
X122720552Y-79151729D01*
X122691222Y-79115991D01*
X122681652Y-79098087D01*
X122607557Y-78959467D01*
X122590384Y-78902853D01*
X122556037Y-78789627D01*
X122538641Y-78613000D01*
X122556037Y-78436373D01*
X122607557Y-78266534D01*
X122607557Y-78266533D01*
X122691221Y-78110011D01*
X122691222Y-78110009D01*
X122720552Y-78074271D01*
X122803814Y-77972814D01*
X122905271Y-77889552D01*
X122941009Y-77860222D01*
X122958913Y-77850652D01*
X123097533Y-77776557D01*
X123154147Y-77759384D01*
X123267373Y-77725037D01*
X123333557Y-77718519D01*
X123399740Y-77712000D01*
X123488260Y-77712000D01*
X123554443Y-77718519D01*
X123554443Y-77718519D01*
G37*
G36*
X151875442Y-74035518D02*
X151941627Y-74042037D01*
X152054853Y-74076384D01*
X152111467Y-74093557D01*
X152250087Y-74167652D01*
X152267991Y-74177222D01*
X152303729Y-74206552D01*
X152405186Y-74289814D01*
X152488448Y-74391271D01*
X152517778Y-74427009D01*
X152517779Y-74427011D01*
X152601443Y-74583533D01*
X152601443Y-74583534D01*
X152652963Y-74753373D01*
X152670359Y-74930000D01*
X152652963Y-75106627D01*
X152618616Y-75219853D01*
X152601443Y-75276467D01*
X152527348Y-75415087D01*
X152517778Y-75432991D01*
X152488448Y-75468729D01*
X152405186Y-75570186D01*
X152303729Y-75653448D01*
X152267991Y-75682778D01*
X152267989Y-75682779D01*
X152111467Y-75766443D01*
X152054853Y-75783616D01*
X151941627Y-75817963D01*
X151875442Y-75824482D01*
X151809260Y-75831000D01*
X151720740Y-75831000D01*
X151654558Y-75824482D01*
X151588373Y-75817963D01*
X151475147Y-75783616D01*
X151418533Y-75766443D01*
X151262011Y-75682779D01*
X151262009Y-75682778D01*
X151226271Y-75653448D01*
X151124814Y-75570186D01*
X151041552Y-75468729D01*
X151012222Y-75432991D01*
X151002652Y-75415087D01*
X150928557Y-75276467D01*
X150911384Y-75219853D01*
X150877037Y-75106627D01*
X150859641Y-74930000D01*
X150877037Y-74753373D01*
X150928557Y-74583534D01*
X150928557Y-74583533D01*
X151012221Y-74427011D01*
X151012222Y-74427009D01*
X151041552Y-74391271D01*
X151124814Y-74289814D01*
X151226271Y-74206552D01*
X151262009Y-74177222D01*
X151279913Y-74167652D01*
X151418533Y-74093557D01*
X151475147Y-74076384D01*
X151588373Y-74042037D01*
X151654558Y-74035518D01*
X151720740Y-74029000D01*
X151809260Y-74029000D01*
X151875442Y-74035518D01*
X151875442Y-74035518D01*
G37*
G36*
X110854442Y-71749518D02*
X110920627Y-71756037D01*
X111033853Y-71790384D01*
X111090467Y-71807557D01*
X111229087Y-71881652D01*
X111246991Y-71891222D01*
X111282729Y-71920552D01*
X111384186Y-72003814D01*
X111467448Y-72105271D01*
X111496778Y-72141009D01*
X111496779Y-72141011D01*
X111580443Y-72297533D01*
X111580443Y-72297534D01*
X111631963Y-72467373D01*
X111649359Y-72644000D01*
X111631963Y-72820627D01*
X111597616Y-72933853D01*
X111580443Y-72990467D01*
X111559213Y-73030185D01*
X111496778Y-73146991D01*
X111467448Y-73182729D01*
X111384186Y-73284186D01*
X111282729Y-73367448D01*
X111246991Y-73396778D01*
X111246989Y-73396779D01*
X111090467Y-73480443D01*
X111033853Y-73497616D01*
X110920627Y-73531963D01*
X110854442Y-73538482D01*
X110788260Y-73545000D01*
X110699740Y-73545000D01*
X110633558Y-73538482D01*
X110567373Y-73531963D01*
X110454147Y-73497616D01*
X110397533Y-73480443D01*
X110241011Y-73396779D01*
X110241009Y-73396778D01*
X110205271Y-73367448D01*
X110103814Y-73284186D01*
X110020552Y-73182729D01*
X109991222Y-73146991D01*
X109928787Y-73030185D01*
X109907557Y-72990467D01*
X109890384Y-72933853D01*
X109856037Y-72820627D01*
X109838641Y-72644000D01*
X109856037Y-72467373D01*
X109907557Y-72297534D01*
X109907557Y-72297533D01*
X109991221Y-72141011D01*
X109991222Y-72141009D01*
X110020552Y-72105271D01*
X110103814Y-72003814D01*
X110205271Y-71920552D01*
X110241009Y-71891222D01*
X110258913Y-71881652D01*
X110397533Y-71807557D01*
X110454147Y-71790384D01*
X110567373Y-71756037D01*
X110633558Y-71749518D01*
X110699740Y-71743000D01*
X110788260Y-71743000D01*
X110854442Y-71749518D01*
X110854442Y-71749518D01*
G37*
G36*
X113394442Y-71749518D02*
X113460627Y-71756037D01*
X113573853Y-71790384D01*
X113630467Y-71807557D01*
X113769087Y-71881652D01*
X113786991Y-71891222D01*
X113822729Y-71920552D01*
X113924186Y-72003814D01*
X114007448Y-72105271D01*
X114036778Y-72141009D01*
X114036779Y-72141011D01*
X114120443Y-72297533D01*
X114120443Y-72297534D01*
X114171963Y-72467373D01*
X114189359Y-72644000D01*
X114171963Y-72820627D01*
X114137616Y-72933853D01*
X114120443Y-72990467D01*
X114099213Y-73030185D01*
X114036778Y-73146991D01*
X114007448Y-73182729D01*
X113924186Y-73284186D01*
X113822729Y-73367448D01*
X113786991Y-73396778D01*
X113786989Y-73396779D01*
X113630467Y-73480443D01*
X113573853Y-73497616D01*
X113460627Y-73531963D01*
X113394442Y-73538482D01*
X113328260Y-73545000D01*
X113239740Y-73545000D01*
X113173558Y-73538482D01*
X113107373Y-73531963D01*
X112994147Y-73497616D01*
X112937533Y-73480443D01*
X112781011Y-73396779D01*
X112781009Y-73396778D01*
X112745271Y-73367448D01*
X112643814Y-73284186D01*
X112560552Y-73182729D01*
X112531222Y-73146991D01*
X112468787Y-73030185D01*
X112447557Y-72990467D01*
X112430384Y-72933853D01*
X112396037Y-72820627D01*
X112378641Y-72644000D01*
X112396037Y-72467373D01*
X112447557Y-72297534D01*
X112447557Y-72297533D01*
X112531221Y-72141011D01*
X112531222Y-72141009D01*
X112560552Y-72105271D01*
X112643814Y-72003814D01*
X112745271Y-71920552D01*
X112781009Y-71891222D01*
X112798913Y-71881652D01*
X112937533Y-71807557D01*
X112994147Y-71790384D01*
X113107373Y-71756037D01*
X113173558Y-71749518D01*
X113239740Y-71743000D01*
X113328260Y-71743000D01*
X113394442Y-71749518D01*
X113394442Y-71749518D01*
G37*
G36*
X108314442Y-71749518D02*
X108380627Y-71756037D01*
X108493853Y-71790384D01*
X108550467Y-71807557D01*
X108689087Y-71881652D01*
X108706991Y-71891222D01*
X108742729Y-71920552D01*
X108844186Y-72003814D01*
X108927448Y-72105271D01*
X108956778Y-72141009D01*
X108956779Y-72141011D01*
X109040443Y-72297533D01*
X109040443Y-72297534D01*
X109091963Y-72467373D01*
X109109359Y-72644000D01*
X109091963Y-72820627D01*
X109057616Y-72933853D01*
X109040443Y-72990467D01*
X109019213Y-73030185D01*
X108956778Y-73146991D01*
X108927448Y-73182729D01*
X108844186Y-73284186D01*
X108742729Y-73367448D01*
X108706991Y-73396778D01*
X108706989Y-73396779D01*
X108550467Y-73480443D01*
X108493853Y-73497616D01*
X108380627Y-73531963D01*
X108314442Y-73538482D01*
X108248260Y-73545000D01*
X108159740Y-73545000D01*
X108093558Y-73538482D01*
X108027373Y-73531963D01*
X107914147Y-73497616D01*
X107857533Y-73480443D01*
X107701011Y-73396779D01*
X107701009Y-73396778D01*
X107665271Y-73367448D01*
X107563814Y-73284186D01*
X107480552Y-73182729D01*
X107451222Y-73146991D01*
X107388787Y-73030185D01*
X107367557Y-72990467D01*
X107350384Y-72933853D01*
X107316037Y-72820627D01*
X107298641Y-72644000D01*
X107316037Y-72467373D01*
X107367557Y-72297534D01*
X107367557Y-72297533D01*
X107451221Y-72141011D01*
X107451222Y-72141009D01*
X107480552Y-72105271D01*
X107563814Y-72003814D01*
X107665271Y-71920552D01*
X107701009Y-71891222D01*
X107718913Y-71881652D01*
X107857533Y-71807557D01*
X107914147Y-71790384D01*
X108027373Y-71756037D01*
X108093558Y-71749518D01*
X108159740Y-71743000D01*
X108248260Y-71743000D01*
X108314442Y-71749518D01*
X108314442Y-71749518D01*
G37*
G36*
X105774442Y-71749518D02*
X105840627Y-71756037D01*
X105953853Y-71790384D01*
X106010467Y-71807557D01*
X106149087Y-71881652D01*
X106166991Y-71891222D01*
X106202729Y-71920552D01*
X106304186Y-72003814D01*
X106387448Y-72105271D01*
X106416778Y-72141009D01*
X106416779Y-72141011D01*
X106500443Y-72297533D01*
X106500443Y-72297534D01*
X106551963Y-72467373D01*
X106569359Y-72644000D01*
X106551963Y-72820627D01*
X106517616Y-72933853D01*
X106500443Y-72990467D01*
X106479213Y-73030185D01*
X106416778Y-73146991D01*
X106387448Y-73182729D01*
X106304186Y-73284186D01*
X106202729Y-73367448D01*
X106166991Y-73396778D01*
X106166989Y-73396779D01*
X106010467Y-73480443D01*
X105953853Y-73497616D01*
X105840627Y-73531963D01*
X105774442Y-73538482D01*
X105708260Y-73545000D01*
X105619740Y-73545000D01*
X105553558Y-73538482D01*
X105487373Y-73531963D01*
X105374147Y-73497616D01*
X105317533Y-73480443D01*
X105161011Y-73396779D01*
X105161009Y-73396778D01*
X105125271Y-73367448D01*
X105023814Y-73284186D01*
X104940552Y-73182729D01*
X104911222Y-73146991D01*
X104848787Y-73030185D01*
X104827557Y-72990467D01*
X104810384Y-72933853D01*
X104776037Y-72820627D01*
X104758641Y-72644000D01*
X104776037Y-72467373D01*
X104827557Y-72297534D01*
X104827557Y-72297533D01*
X104911221Y-72141011D01*
X104911222Y-72141009D01*
X104940552Y-72105271D01*
X105023814Y-72003814D01*
X105125271Y-71920552D01*
X105161009Y-71891222D01*
X105178913Y-71881652D01*
X105317533Y-71807557D01*
X105374147Y-71790384D01*
X105487373Y-71756037D01*
X105553558Y-71749518D01*
X105619740Y-71743000D01*
X105708260Y-71743000D01*
X105774442Y-71749518D01*
X105774442Y-71749518D01*
G37*
G36*
X104025000Y-73545000D02*
X102223000Y-73545000D01*
X102223000Y-71743000D01*
X104025000Y-71743000D01*
X104025000Y-73545000D01*
X104025000Y-73545000D01*
G37*
G36*
X151875443Y-71495519D02*
X151941627Y-71502037D01*
X152054853Y-71536384D01*
X152111467Y-71553557D01*
X152250087Y-71627652D01*
X152267991Y-71637222D01*
X152303729Y-71666552D01*
X152405186Y-71749814D01*
X152488448Y-71851271D01*
X152517778Y-71887009D01*
X152517779Y-71887011D01*
X152601443Y-72043533D01*
X152601443Y-72043534D01*
X152652963Y-72213373D01*
X152670359Y-72390000D01*
X152652963Y-72566627D01*
X152629492Y-72644000D01*
X152601443Y-72736467D01*
X152556459Y-72820625D01*
X152517778Y-72892991D01*
X152488448Y-72928729D01*
X152405186Y-73030186D01*
X152303729Y-73113448D01*
X152267991Y-73142778D01*
X152267989Y-73142779D01*
X152111467Y-73226443D01*
X152054853Y-73243616D01*
X151941627Y-73277963D01*
X151878453Y-73284185D01*
X151809260Y-73291000D01*
X151720740Y-73291000D01*
X151651547Y-73284185D01*
X151588373Y-73277963D01*
X151475147Y-73243616D01*
X151418533Y-73226443D01*
X151262011Y-73142779D01*
X151262009Y-73142778D01*
X151226271Y-73113448D01*
X151124814Y-73030186D01*
X151041552Y-72928729D01*
X151012222Y-72892991D01*
X150973541Y-72820625D01*
X150928557Y-72736467D01*
X150900508Y-72644000D01*
X150877037Y-72566627D01*
X150859641Y-72390000D01*
X150877037Y-72213373D01*
X150928557Y-72043534D01*
X150928557Y-72043533D01*
X151012221Y-71887011D01*
X151012222Y-71887009D01*
X151041552Y-71851271D01*
X151124814Y-71749814D01*
X151226271Y-71666552D01*
X151262009Y-71637222D01*
X151279913Y-71627652D01*
X151418533Y-71553557D01*
X151475147Y-71536384D01*
X151588373Y-71502037D01*
X151654557Y-71495519D01*
X151720740Y-71489000D01*
X151809260Y-71489000D01*
X151875443Y-71495519D01*
X151875443Y-71495519D01*
G37*
G36*
X113394443Y-69209519D02*
X113460627Y-69216037D01*
X113573853Y-69250384D01*
X113630467Y-69267557D01*
X113769087Y-69341652D01*
X113786991Y-69351222D01*
X113822729Y-69380552D01*
X113924186Y-69463814D01*
X114007448Y-69565271D01*
X114036778Y-69601009D01*
X114036779Y-69601011D01*
X114120443Y-69757533D01*
X114120443Y-69757534D01*
X114171963Y-69927373D01*
X114189359Y-70104000D01*
X114171963Y-70280627D01*
X114137616Y-70393853D01*
X114120443Y-70450467D01*
X114099213Y-70490185D01*
X114036778Y-70606991D01*
X114007448Y-70642729D01*
X113924186Y-70744186D01*
X113822729Y-70827448D01*
X113786991Y-70856778D01*
X113786989Y-70856779D01*
X113630467Y-70940443D01*
X113573853Y-70957616D01*
X113460627Y-70991963D01*
X113394443Y-70998481D01*
X113328260Y-71005000D01*
X113239740Y-71005000D01*
X113173557Y-70998481D01*
X113107373Y-70991963D01*
X112994147Y-70957616D01*
X112937533Y-70940443D01*
X112781011Y-70856779D01*
X112781009Y-70856778D01*
X112745271Y-70827448D01*
X112643814Y-70744186D01*
X112560552Y-70642729D01*
X112531222Y-70606991D01*
X112468787Y-70490185D01*
X112447557Y-70450467D01*
X112430384Y-70393853D01*
X112396037Y-70280627D01*
X112378641Y-70104000D01*
X112396037Y-69927373D01*
X112447557Y-69757534D01*
X112447557Y-69757533D01*
X112531221Y-69601011D01*
X112531222Y-69601009D01*
X112560552Y-69565271D01*
X112643814Y-69463814D01*
X112745271Y-69380552D01*
X112781009Y-69351222D01*
X112798913Y-69341652D01*
X112937533Y-69267557D01*
X112994147Y-69250384D01*
X113107373Y-69216037D01*
X113173557Y-69209519D01*
X113239740Y-69203000D01*
X113328260Y-69203000D01*
X113394443Y-69209519D01*
X113394443Y-69209519D01*
G37*
G36*
X108314443Y-69209519D02*
X108380627Y-69216037D01*
X108493853Y-69250384D01*
X108550467Y-69267557D01*
X108689087Y-69341652D01*
X108706991Y-69351222D01*
X108742729Y-69380552D01*
X108844186Y-69463814D01*
X108927448Y-69565271D01*
X108956778Y-69601009D01*
X108956779Y-69601011D01*
X109040443Y-69757533D01*
X109040443Y-69757534D01*
X109091963Y-69927373D01*
X109109359Y-70104000D01*
X109091963Y-70280627D01*
X109057616Y-70393853D01*
X109040443Y-70450467D01*
X109019213Y-70490185D01*
X108956778Y-70606991D01*
X108927448Y-70642729D01*
X108844186Y-70744186D01*
X108742729Y-70827448D01*
X108706991Y-70856778D01*
X108706989Y-70856779D01*
X108550467Y-70940443D01*
X108493853Y-70957616D01*
X108380627Y-70991963D01*
X108314443Y-70998481D01*
X108248260Y-71005000D01*
X108159740Y-71005000D01*
X108093557Y-70998481D01*
X108027373Y-70991963D01*
X107914147Y-70957616D01*
X107857533Y-70940443D01*
X107701011Y-70856779D01*
X107701009Y-70856778D01*
X107665271Y-70827448D01*
X107563814Y-70744186D01*
X107480552Y-70642729D01*
X107451222Y-70606991D01*
X107388787Y-70490185D01*
X107367557Y-70450467D01*
X107350384Y-70393853D01*
X107316037Y-70280627D01*
X107298641Y-70104000D01*
X107316037Y-69927373D01*
X107367557Y-69757534D01*
X107367557Y-69757533D01*
X107451221Y-69601011D01*
X107451222Y-69601009D01*
X107480552Y-69565271D01*
X107563814Y-69463814D01*
X107665271Y-69380552D01*
X107701009Y-69351222D01*
X107718913Y-69341652D01*
X107857533Y-69267557D01*
X107914147Y-69250384D01*
X108027373Y-69216037D01*
X108093557Y-69209519D01*
X108159740Y-69203000D01*
X108248260Y-69203000D01*
X108314443Y-69209519D01*
X108314443Y-69209519D01*
G37*
G36*
X105774443Y-69209519D02*
X105840627Y-69216037D01*
X105953853Y-69250384D01*
X106010467Y-69267557D01*
X106149087Y-69341652D01*
X106166991Y-69351222D01*
X106202729Y-69380552D01*
X106304186Y-69463814D01*
X106387448Y-69565271D01*
X106416778Y-69601009D01*
X106416779Y-69601011D01*
X106500443Y-69757533D01*
X106500443Y-69757534D01*
X106551963Y-69927373D01*
X106569359Y-70104000D01*
X106551963Y-70280627D01*
X106517616Y-70393853D01*
X106500443Y-70450467D01*
X106479213Y-70490185D01*
X106416778Y-70606991D01*
X106387448Y-70642729D01*
X106304186Y-70744186D01*
X106202729Y-70827448D01*
X106166991Y-70856778D01*
X106166989Y-70856779D01*
X106010467Y-70940443D01*
X105953853Y-70957616D01*
X105840627Y-70991963D01*
X105774443Y-70998481D01*
X105708260Y-71005000D01*
X105619740Y-71005000D01*
X105553557Y-70998481D01*
X105487373Y-70991963D01*
X105374147Y-70957616D01*
X105317533Y-70940443D01*
X105161011Y-70856779D01*
X105161009Y-70856778D01*
X105125271Y-70827448D01*
X105023814Y-70744186D01*
X104940552Y-70642729D01*
X104911222Y-70606991D01*
X104848787Y-70490185D01*
X104827557Y-70450467D01*
X104810384Y-70393853D01*
X104776037Y-70280627D01*
X104758641Y-70104000D01*
X104776037Y-69927373D01*
X104827557Y-69757534D01*
X104827557Y-69757533D01*
X104911221Y-69601011D01*
X104911222Y-69601009D01*
X104940552Y-69565271D01*
X105023814Y-69463814D01*
X105125271Y-69380552D01*
X105161009Y-69351222D01*
X105178913Y-69341652D01*
X105317533Y-69267557D01*
X105374147Y-69250384D01*
X105487373Y-69216037D01*
X105553557Y-69209519D01*
X105619740Y-69203000D01*
X105708260Y-69203000D01*
X105774443Y-69209519D01*
X105774443Y-69209519D01*
G37*
G36*
X103234443Y-69209519D02*
X103300627Y-69216037D01*
X103413853Y-69250384D01*
X103470467Y-69267557D01*
X103609087Y-69341652D01*
X103626991Y-69351222D01*
X103662729Y-69380552D01*
X103764186Y-69463814D01*
X103847448Y-69565271D01*
X103876778Y-69601009D01*
X103876779Y-69601011D01*
X103960443Y-69757533D01*
X103960443Y-69757534D01*
X104011963Y-69927373D01*
X104029359Y-70104000D01*
X104011963Y-70280627D01*
X103977616Y-70393853D01*
X103960443Y-70450467D01*
X103939213Y-70490185D01*
X103876778Y-70606991D01*
X103847448Y-70642729D01*
X103764186Y-70744186D01*
X103662729Y-70827448D01*
X103626991Y-70856778D01*
X103626989Y-70856779D01*
X103470467Y-70940443D01*
X103413853Y-70957616D01*
X103300627Y-70991963D01*
X103234443Y-70998481D01*
X103168260Y-71005000D01*
X103079740Y-71005000D01*
X103013557Y-70998481D01*
X102947373Y-70991963D01*
X102834147Y-70957616D01*
X102777533Y-70940443D01*
X102621011Y-70856779D01*
X102621009Y-70856778D01*
X102585271Y-70827448D01*
X102483814Y-70744186D01*
X102400552Y-70642729D01*
X102371222Y-70606991D01*
X102308787Y-70490185D01*
X102287557Y-70450467D01*
X102270384Y-70393853D01*
X102236037Y-70280627D01*
X102218641Y-70104000D01*
X102236037Y-69927373D01*
X102287557Y-69757534D01*
X102287557Y-69757533D01*
X102371221Y-69601011D01*
X102371222Y-69601009D01*
X102400552Y-69565271D01*
X102483814Y-69463814D01*
X102585271Y-69380552D01*
X102621009Y-69351222D01*
X102638913Y-69341652D01*
X102777533Y-69267557D01*
X102834147Y-69250384D01*
X102947373Y-69216037D01*
X103013557Y-69209519D01*
X103079740Y-69203000D01*
X103168260Y-69203000D01*
X103234443Y-69209519D01*
X103234443Y-69209519D01*
G37*
G36*
X110854443Y-69209519D02*
X110920627Y-69216037D01*
X111033853Y-69250384D01*
X111090467Y-69267557D01*
X111229087Y-69341652D01*
X111246991Y-69351222D01*
X111282729Y-69380552D01*
X111384186Y-69463814D01*
X111467448Y-69565271D01*
X111496778Y-69601009D01*
X111496779Y-69601011D01*
X111580443Y-69757533D01*
X111580443Y-69757534D01*
X111631963Y-69927373D01*
X111649359Y-70104000D01*
X111631963Y-70280627D01*
X111597616Y-70393853D01*
X111580443Y-70450467D01*
X111559213Y-70490185D01*
X111496778Y-70606991D01*
X111467448Y-70642729D01*
X111384186Y-70744186D01*
X111282729Y-70827448D01*
X111246991Y-70856778D01*
X111246989Y-70856779D01*
X111090467Y-70940443D01*
X111033853Y-70957616D01*
X110920627Y-70991963D01*
X110854443Y-70998481D01*
X110788260Y-71005000D01*
X110699740Y-71005000D01*
X110633557Y-70998481D01*
X110567373Y-70991963D01*
X110454147Y-70957616D01*
X110397533Y-70940443D01*
X110241011Y-70856779D01*
X110241009Y-70856778D01*
X110205271Y-70827448D01*
X110103814Y-70744186D01*
X110020552Y-70642729D01*
X109991222Y-70606991D01*
X109928787Y-70490185D01*
X109907557Y-70450467D01*
X109890384Y-70393853D01*
X109856037Y-70280627D01*
X109838641Y-70104000D01*
X109856037Y-69927373D01*
X109907557Y-69757534D01*
X109907557Y-69757533D01*
X109991221Y-69601011D01*
X109991222Y-69601009D01*
X110020552Y-69565271D01*
X110103814Y-69463814D01*
X110205271Y-69380552D01*
X110241009Y-69351222D01*
X110258913Y-69341652D01*
X110397533Y-69267557D01*
X110454147Y-69250384D01*
X110567373Y-69216037D01*
X110633557Y-69209519D01*
X110699740Y-69203000D01*
X110788260Y-69203000D01*
X110854443Y-69209519D01*
X110854443Y-69209519D01*
G37*
G36*
X151875443Y-68955519D02*
X151941627Y-68962037D01*
X152054853Y-68996384D01*
X152111467Y-69013557D01*
X152250087Y-69087652D01*
X152267991Y-69097222D01*
X152303729Y-69126552D01*
X152405186Y-69209814D01*
X152488448Y-69311271D01*
X152517778Y-69347009D01*
X152517779Y-69347011D01*
X152601443Y-69503533D01*
X152601443Y-69503534D01*
X152652963Y-69673373D01*
X152670359Y-69850000D01*
X152652963Y-70026627D01*
X152629492Y-70104000D01*
X152601443Y-70196467D01*
X152556459Y-70280625D01*
X152517778Y-70352991D01*
X152488448Y-70388729D01*
X152405186Y-70490186D01*
X152303729Y-70573448D01*
X152267991Y-70602778D01*
X152267989Y-70602779D01*
X152111467Y-70686443D01*
X152054853Y-70703616D01*
X151941627Y-70737963D01*
X151878453Y-70744185D01*
X151809260Y-70751000D01*
X151720740Y-70751000D01*
X151651547Y-70744185D01*
X151588373Y-70737963D01*
X151475147Y-70703616D01*
X151418533Y-70686443D01*
X151262011Y-70602779D01*
X151262009Y-70602778D01*
X151226271Y-70573448D01*
X151124814Y-70490186D01*
X151041552Y-70388729D01*
X151012222Y-70352991D01*
X150973541Y-70280625D01*
X150928557Y-70196467D01*
X150900508Y-70104000D01*
X150877037Y-70026627D01*
X150859641Y-69850000D01*
X150877037Y-69673373D01*
X150928557Y-69503534D01*
X150928557Y-69503533D01*
X151012221Y-69347011D01*
X151012222Y-69347009D01*
X151041552Y-69311271D01*
X151124814Y-69209814D01*
X151226271Y-69126552D01*
X151262009Y-69097222D01*
X151279913Y-69087652D01*
X151418533Y-69013557D01*
X151475147Y-68996384D01*
X151588373Y-68962037D01*
X151654557Y-68955519D01*
X151720740Y-68949000D01*
X151809260Y-68949000D01*
X151875443Y-68955519D01*
X151875443Y-68955519D01*
G37*
G36*
X151875443Y-66415519D02*
X151941627Y-66422037D01*
X152054853Y-66456384D01*
X152111467Y-66473557D01*
X152250087Y-66547652D01*
X152267991Y-66557222D01*
X152303729Y-66586552D01*
X152405186Y-66669814D01*
X152488448Y-66771271D01*
X152517778Y-66807009D01*
X152517779Y-66807011D01*
X152601443Y-66963533D01*
X152601443Y-66963534D01*
X152652963Y-67133373D01*
X152670359Y-67310000D01*
X152652963Y-67486627D01*
X152618616Y-67599853D01*
X152601443Y-67656467D01*
X152527348Y-67795087D01*
X152517778Y-67812991D01*
X152488448Y-67848729D01*
X152405186Y-67950186D01*
X152303729Y-68033448D01*
X152267991Y-68062778D01*
X152267989Y-68062779D01*
X152111467Y-68146443D01*
X152054853Y-68163616D01*
X151941627Y-68197963D01*
X151875443Y-68204481D01*
X151809260Y-68211000D01*
X151720740Y-68211000D01*
X151654557Y-68204481D01*
X151588373Y-68197963D01*
X151475147Y-68163616D01*
X151418533Y-68146443D01*
X151262011Y-68062779D01*
X151262009Y-68062778D01*
X151226271Y-68033448D01*
X151124814Y-67950186D01*
X151041552Y-67848729D01*
X151012222Y-67812991D01*
X151002652Y-67795087D01*
X150928557Y-67656467D01*
X150911384Y-67599853D01*
X150877037Y-67486627D01*
X150859641Y-67310000D01*
X150877037Y-67133373D01*
X150928557Y-66963534D01*
X150928557Y-66963533D01*
X151012221Y-66807011D01*
X151012222Y-66807009D01*
X151041552Y-66771271D01*
X151124814Y-66669814D01*
X151226271Y-66586552D01*
X151262009Y-66557222D01*
X151279913Y-66547652D01*
X151418533Y-66473557D01*
X151475147Y-66456384D01*
X151588373Y-66422037D01*
X151654557Y-66415519D01*
X151720740Y-66409000D01*
X151809260Y-66409000D01*
X151875443Y-66415519D01*
X151875443Y-66415519D01*
G37*
G36*
X151875442Y-63875518D02*
X151941627Y-63882037D01*
X152054853Y-63916384D01*
X152111467Y-63933557D01*
X152250087Y-64007652D01*
X152267991Y-64017222D01*
X152303729Y-64046552D01*
X152405186Y-64129814D01*
X152488448Y-64231271D01*
X152517778Y-64267009D01*
X152517779Y-64267011D01*
X152601443Y-64423533D01*
X152601443Y-64423534D01*
X152652963Y-64593373D01*
X152670359Y-64770000D01*
X152652963Y-64946627D01*
X152618616Y-65059853D01*
X152601443Y-65116467D01*
X152527348Y-65255087D01*
X152517778Y-65272991D01*
X152488448Y-65308729D01*
X152405186Y-65410186D01*
X152303729Y-65493448D01*
X152267991Y-65522778D01*
X152267989Y-65522779D01*
X152111467Y-65606443D01*
X152054853Y-65623616D01*
X151941627Y-65657963D01*
X151875442Y-65664482D01*
X151809260Y-65671000D01*
X151720740Y-65671000D01*
X151654558Y-65664482D01*
X151588373Y-65657963D01*
X151475147Y-65623616D01*
X151418533Y-65606443D01*
X151262011Y-65522779D01*
X151262009Y-65522778D01*
X151226271Y-65493448D01*
X151124814Y-65410186D01*
X151041552Y-65308729D01*
X151012222Y-65272991D01*
X151002652Y-65255087D01*
X150928557Y-65116467D01*
X150911384Y-65059853D01*
X150877037Y-64946627D01*
X150859641Y-64770000D01*
X150877037Y-64593373D01*
X150928557Y-64423534D01*
X150928557Y-64423533D01*
X151012221Y-64267011D01*
X151012222Y-64267009D01*
X151041552Y-64231271D01*
X151124814Y-64129814D01*
X151226271Y-64046552D01*
X151262009Y-64017222D01*
X151279913Y-64007652D01*
X151418533Y-63933557D01*
X151475147Y-63916384D01*
X151588373Y-63882037D01*
X151654558Y-63875518D01*
X151720740Y-63869000D01*
X151809260Y-63869000D01*
X151875442Y-63875518D01*
X151875442Y-63875518D01*
G37*
G36*
X151875443Y-61335519D02*
X151941627Y-61342037D01*
X152054853Y-61376384D01*
X152111467Y-61393557D01*
X152250087Y-61467652D01*
X152267991Y-61477222D01*
X152303729Y-61506552D01*
X152405186Y-61589814D01*
X152488448Y-61691271D01*
X152517778Y-61727009D01*
X152517779Y-61727011D01*
X152601443Y-61883533D01*
X152601443Y-61883534D01*
X152652963Y-62053373D01*
X152670359Y-62230000D01*
X152652963Y-62406627D01*
X152618616Y-62519853D01*
X152601443Y-62576467D01*
X152527348Y-62715087D01*
X152517778Y-62732991D01*
X152488448Y-62768729D01*
X152405186Y-62870186D01*
X152303729Y-62953448D01*
X152267991Y-62982778D01*
X152267989Y-62982779D01*
X152111467Y-63066443D01*
X152054853Y-63083616D01*
X151941627Y-63117963D01*
X151875443Y-63124481D01*
X151809260Y-63131000D01*
X151720740Y-63131000D01*
X151654557Y-63124481D01*
X151588373Y-63117963D01*
X151475147Y-63083616D01*
X151418533Y-63066443D01*
X151262011Y-62982779D01*
X151262009Y-62982778D01*
X151226271Y-62953448D01*
X151124814Y-62870186D01*
X151041552Y-62768729D01*
X151012222Y-62732991D01*
X151002652Y-62715087D01*
X150928557Y-62576467D01*
X150911384Y-62519853D01*
X150877037Y-62406627D01*
X150859641Y-62230000D01*
X150877037Y-62053373D01*
X150928557Y-61883534D01*
X150928557Y-61883533D01*
X151012221Y-61727011D01*
X151012222Y-61727009D01*
X151041552Y-61691271D01*
X151124814Y-61589814D01*
X151226271Y-61506552D01*
X151262009Y-61477222D01*
X151279913Y-61467652D01*
X151418533Y-61393557D01*
X151475147Y-61376384D01*
X151588373Y-61342037D01*
X151654557Y-61335519D01*
X151720740Y-61329000D01*
X151809260Y-61329000D01*
X151875443Y-61335519D01*
X151875443Y-61335519D01*
G37*
G36*
X151875442Y-58795518D02*
X151941627Y-58802037D01*
X152054853Y-58836384D01*
X152111467Y-58853557D01*
X152250087Y-58927652D01*
X152267991Y-58937222D01*
X152303729Y-58966552D01*
X152405186Y-59049814D01*
X152488448Y-59151271D01*
X152517778Y-59187009D01*
X152517779Y-59187011D01*
X152601443Y-59343533D01*
X152601443Y-59343534D01*
X152652963Y-59513373D01*
X152670359Y-59690000D01*
X152652963Y-59866627D01*
X152618616Y-59979853D01*
X152601443Y-60036467D01*
X152527348Y-60175087D01*
X152517778Y-60192991D01*
X152488448Y-60228729D01*
X152405186Y-60330186D01*
X152303729Y-60413448D01*
X152267991Y-60442778D01*
X152267989Y-60442779D01*
X152111467Y-60526443D01*
X152054853Y-60543616D01*
X151941627Y-60577963D01*
X151875443Y-60584481D01*
X151809260Y-60591000D01*
X151720740Y-60591000D01*
X151654557Y-60584481D01*
X151588373Y-60577963D01*
X151475147Y-60543616D01*
X151418533Y-60526443D01*
X151262011Y-60442779D01*
X151262009Y-60442778D01*
X151226271Y-60413448D01*
X151124814Y-60330186D01*
X151041552Y-60228729D01*
X151012222Y-60192991D01*
X151002652Y-60175087D01*
X150928557Y-60036467D01*
X150911384Y-59979853D01*
X150877037Y-59866627D01*
X150859641Y-59690000D01*
X150877037Y-59513373D01*
X150928557Y-59343534D01*
X150928557Y-59343533D01*
X151012221Y-59187011D01*
X151012222Y-59187009D01*
X151041552Y-59151271D01*
X151124814Y-59049814D01*
X151226271Y-58966552D01*
X151262009Y-58937222D01*
X151279913Y-58927652D01*
X151418533Y-58853557D01*
X151475147Y-58836384D01*
X151588373Y-58802037D01*
X151654558Y-58795518D01*
X151720740Y-58789000D01*
X151809260Y-58789000D01*
X151875442Y-58795518D01*
X151875442Y-58795518D01*
G37*
G36*
X105441366Y-55112695D02*
X105598458Y-55160348D01*
X105743230Y-55237731D01*
X105870128Y-55341872D01*
X105974269Y-55468770D01*
X106051652Y-55613542D01*
X106099305Y-55770634D01*
X106116000Y-55940140D01*
X106116000Y-57853860D01*
X106099305Y-58023366D01*
X106051652Y-58180458D01*
X105974269Y-58325230D01*
X105870128Y-58452128D01*
X105743230Y-58556269D01*
X105598458Y-58633652D01*
X105441366Y-58681305D01*
X105271860Y-58698000D01*
X103358140Y-58698000D01*
X103188634Y-58681305D01*
X103031542Y-58633652D01*
X102886770Y-58556269D01*
X102759872Y-58452128D01*
X102655731Y-58325230D01*
X102578348Y-58180458D01*
X102530695Y-58023366D01*
X102514000Y-57853860D01*
X102514000Y-55940140D01*
X102530695Y-55770634D01*
X102578348Y-55613542D01*
X102655731Y-55468770D01*
X102759872Y-55341872D01*
X102886770Y-55237731D01*
X103031542Y-55160348D01*
X103188634Y-55112695D01*
X103358140Y-55096000D01*
X105271860Y-55096000D01*
X105441366Y-55112695D01*
X105441366Y-55112695D01*
G37*
G36*
X151875443Y-56255519D02*
X151941627Y-56262037D01*
X152054853Y-56296384D01*
X152111467Y-56313557D01*
X152250087Y-56387652D01*
X152267991Y-56397222D01*
X152303729Y-56426552D01*
X152405186Y-56509814D01*
X152488448Y-56611271D01*
X152517778Y-56647009D01*
X152517779Y-56647011D01*
X152601443Y-56803533D01*
X152601443Y-56803534D01*
X152652963Y-56973373D01*
X152670359Y-57150000D01*
X152652963Y-57326627D01*
X152618616Y-57439853D01*
X152601443Y-57496467D01*
X152527348Y-57635087D01*
X152517778Y-57652991D01*
X152488448Y-57688729D01*
X152405186Y-57790186D01*
X152303729Y-57873448D01*
X152267991Y-57902778D01*
X152267989Y-57902779D01*
X152111467Y-57986443D01*
X152054853Y-58003616D01*
X151941627Y-58037963D01*
X151875442Y-58044482D01*
X151809260Y-58051000D01*
X151720740Y-58051000D01*
X151654558Y-58044482D01*
X151588373Y-58037963D01*
X151475147Y-58003616D01*
X151418533Y-57986443D01*
X151262011Y-57902779D01*
X151262009Y-57902778D01*
X151226271Y-57873448D01*
X151124814Y-57790186D01*
X151041552Y-57688729D01*
X151012222Y-57652991D01*
X151002652Y-57635087D01*
X150928557Y-57496467D01*
X150911384Y-57439853D01*
X150877037Y-57326627D01*
X150859641Y-57150000D01*
X150877037Y-56973373D01*
X150928557Y-56803534D01*
X150928557Y-56803533D01*
X151012221Y-56647011D01*
X151012222Y-56647009D01*
X151041552Y-56611271D01*
X151124814Y-56509814D01*
X151226271Y-56426552D01*
X151262009Y-56397222D01*
X151279913Y-56387652D01*
X151418533Y-56313557D01*
X151475147Y-56296384D01*
X151588373Y-56262037D01*
X151654557Y-56255519D01*
X151720740Y-56249000D01*
X151809260Y-56249000D01*
X151875443Y-56255519D01*
X151875443Y-56255519D01*
G37*
G36*
X151875442Y-53715518D02*
X151941627Y-53722037D01*
X152054853Y-53756384D01*
X152111467Y-53773557D01*
X152250087Y-53847652D01*
X152267991Y-53857222D01*
X152280277Y-53867305D01*
X152405186Y-53969814D01*
X152488448Y-54071271D01*
X152517778Y-54107009D01*
X152517779Y-54107011D01*
X152601443Y-54263533D01*
X152601443Y-54263534D01*
X152652963Y-54433373D01*
X152670359Y-54610000D01*
X152652963Y-54786627D01*
X152618616Y-54899853D01*
X152601443Y-54956467D01*
X152527348Y-55095087D01*
X152517778Y-55112991D01*
X152488448Y-55148729D01*
X152405186Y-55250186D01*
X152303729Y-55333448D01*
X152267991Y-55362778D01*
X152267989Y-55362779D01*
X152111467Y-55446443D01*
X152054853Y-55463616D01*
X151941627Y-55497963D01*
X151875442Y-55504482D01*
X151809260Y-55511000D01*
X151720740Y-55511000D01*
X151654558Y-55504482D01*
X151588373Y-55497963D01*
X151475147Y-55463616D01*
X151418533Y-55446443D01*
X151262011Y-55362779D01*
X151262009Y-55362778D01*
X151226271Y-55333448D01*
X151124814Y-55250186D01*
X151041552Y-55148729D01*
X151012222Y-55112991D01*
X151002652Y-55095087D01*
X150928557Y-54956467D01*
X150911384Y-54899853D01*
X150877037Y-54786627D01*
X150859641Y-54610000D01*
X150877037Y-54433373D01*
X150928557Y-54263534D01*
X150928557Y-54263533D01*
X151012221Y-54107011D01*
X151012222Y-54107009D01*
X151041552Y-54071271D01*
X151124814Y-53969814D01*
X151249723Y-53867305D01*
X151262009Y-53857222D01*
X151279913Y-53847652D01*
X151418533Y-53773557D01*
X151475147Y-53756384D01*
X151588373Y-53722037D01*
X151654558Y-53715518D01*
X151720740Y-53709000D01*
X151809260Y-53709000D01*
X151875442Y-53715518D01*
X151875442Y-53715518D01*
G37*
G36*
X109116000Y-53998000D02*
X105514000Y-53998000D01*
X105514000Y-50396000D01*
X109116000Y-50396000D01*
X109116000Y-53998000D01*
X109116000Y-53998000D01*
G37*
G36*
X102291978Y-50410293D02*
X102425627Y-50450835D01*
X102548782Y-50516662D01*
X102656739Y-50605261D01*
X102745338Y-50713218D01*
X102811165Y-50836373D01*
X102851707Y-50970022D01*
X102866000Y-51115140D01*
X102866000Y-53278860D01*
X102851707Y-53423978D01*
X102811165Y-53557627D01*
X102745338Y-53680782D01*
X102656739Y-53788739D01*
X102548782Y-53877338D01*
X102425627Y-53943165D01*
X102291978Y-53983707D01*
X102146860Y-53998000D01*
X100483140Y-53998000D01*
X100338022Y-53983707D01*
X100204373Y-53943165D01*
X100081218Y-53877338D01*
X99973261Y-53788739D01*
X99884662Y-53680782D01*
X99818835Y-53557627D01*
X99778293Y-53423978D01*
X99764000Y-53278860D01*
X99764000Y-51115140D01*
X99778293Y-50970022D01*
X99818835Y-50836373D01*
X99884662Y-50713218D01*
X99973261Y-50605261D01*
X100081218Y-50516662D01*
X100204373Y-50450835D01*
X100338022Y-50410293D01*
X100483140Y-50396000D01*
X102146860Y-50396000D01*
X102291978Y-50410293D01*
X102291978Y-50410293D01*
G37*
G36*
X151875443Y-51175519D02*
X151941627Y-51182037D01*
X152054853Y-51216384D01*
X152111467Y-51233557D01*
X152250087Y-51307652D01*
X152267991Y-51317222D01*
X152303729Y-51346552D01*
X152405186Y-51429814D01*
X152488448Y-51531271D01*
X152517778Y-51567009D01*
X152517779Y-51567011D01*
X152601443Y-51723533D01*
X152601443Y-51723534D01*
X152652963Y-51893373D01*
X152670359Y-52070000D01*
X152652963Y-52246627D01*
X152618616Y-52359853D01*
X152601443Y-52416467D01*
X152527348Y-52555087D01*
X152517778Y-52572991D01*
X152488448Y-52608729D01*
X152405186Y-52710186D01*
X152303729Y-52793448D01*
X152267991Y-52822778D01*
X152267989Y-52822779D01*
X152111467Y-52906443D01*
X152054853Y-52923616D01*
X151941627Y-52957963D01*
X151875442Y-52964482D01*
X151809260Y-52971000D01*
X151720740Y-52971000D01*
X151654558Y-52964482D01*
X151588373Y-52957963D01*
X151475147Y-52923616D01*
X151418533Y-52906443D01*
X151262011Y-52822779D01*
X151262009Y-52822778D01*
X151226271Y-52793448D01*
X151124814Y-52710186D01*
X151041552Y-52608729D01*
X151012222Y-52572991D01*
X151002652Y-52555087D01*
X150928557Y-52416467D01*
X150911384Y-52359853D01*
X150877037Y-52246627D01*
X150859641Y-52070000D01*
X150877037Y-51893373D01*
X150928557Y-51723534D01*
X150928557Y-51723533D01*
X151012221Y-51567011D01*
X151012222Y-51567009D01*
X151041552Y-51531271D01*
X151124814Y-51429814D01*
X151226271Y-51346552D01*
X151262009Y-51317222D01*
X151279913Y-51307652D01*
X151418533Y-51233557D01*
X151475147Y-51216384D01*
X151588373Y-51182037D01*
X151654557Y-51175519D01*
X151720740Y-51169000D01*
X151809260Y-51169000D01*
X151875443Y-51175519D01*
X151875443Y-51175519D01*
G37*
G36*
X151875443Y-48635519D02*
X151941627Y-48642037D01*
X152054853Y-48676384D01*
X152111467Y-48693557D01*
X152250087Y-48767652D01*
X152267991Y-48777222D01*
X152303729Y-48806552D01*
X152405186Y-48889814D01*
X152488448Y-48991271D01*
X152517778Y-49027009D01*
X152517779Y-49027011D01*
X152601443Y-49183533D01*
X152601443Y-49183534D01*
X152652963Y-49353373D01*
X152670359Y-49530000D01*
X152652963Y-49706627D01*
X152618616Y-49819853D01*
X152601443Y-49876467D01*
X152527348Y-50015087D01*
X152517778Y-50032991D01*
X152488448Y-50068729D01*
X152405186Y-50170186D01*
X152303729Y-50253448D01*
X152267991Y-50282778D01*
X152267989Y-50282779D01*
X152111467Y-50366443D01*
X152054853Y-50383616D01*
X151941627Y-50417963D01*
X151875443Y-50424481D01*
X151809260Y-50431000D01*
X151720740Y-50431000D01*
X151654558Y-50424482D01*
X151588373Y-50417963D01*
X151475147Y-50383616D01*
X151418533Y-50366443D01*
X151262011Y-50282779D01*
X151262009Y-50282778D01*
X151226271Y-50253448D01*
X151124814Y-50170186D01*
X151041552Y-50068729D01*
X151012222Y-50032991D01*
X151002652Y-50015087D01*
X150928557Y-49876467D01*
X150911384Y-49819853D01*
X150877037Y-49706627D01*
X150859641Y-49530000D01*
X150877037Y-49353373D01*
X150928557Y-49183534D01*
X150928557Y-49183533D01*
X151012221Y-49027011D01*
X151012222Y-49027009D01*
X151041552Y-48991271D01*
X151124814Y-48889814D01*
X151226271Y-48806552D01*
X151262009Y-48777222D01*
X151279913Y-48767652D01*
X151418533Y-48693557D01*
X151475147Y-48676384D01*
X151588373Y-48642037D01*
X151654557Y-48635519D01*
X151720740Y-48629000D01*
X151809260Y-48629000D01*
X151875443Y-48635519D01*
X151875443Y-48635519D01*
G37*
G36*
X151875442Y-46095518D02*
X151941627Y-46102037D01*
X152054853Y-46136384D01*
X152111467Y-46153557D01*
X152250087Y-46227652D01*
X152267991Y-46237222D01*
X152303729Y-46266552D01*
X152405186Y-46349814D01*
X152488448Y-46451271D01*
X152517778Y-46487009D01*
X152517779Y-46487011D01*
X152601443Y-46643533D01*
X152601443Y-46643534D01*
X152652963Y-46813373D01*
X152670359Y-46990000D01*
X152652963Y-47166627D01*
X152618616Y-47279853D01*
X152601443Y-47336467D01*
X152527348Y-47475087D01*
X152517778Y-47492991D01*
X152488448Y-47528729D01*
X152405186Y-47630186D01*
X152303729Y-47713448D01*
X152267991Y-47742778D01*
X152267989Y-47742779D01*
X152111467Y-47826443D01*
X152054853Y-47843616D01*
X151941627Y-47877963D01*
X151875443Y-47884481D01*
X151809260Y-47891000D01*
X151720740Y-47891000D01*
X151654557Y-47884481D01*
X151588373Y-47877963D01*
X151475147Y-47843616D01*
X151418533Y-47826443D01*
X151262011Y-47742779D01*
X151262009Y-47742778D01*
X151226271Y-47713448D01*
X151124814Y-47630186D01*
X151041552Y-47528729D01*
X151012222Y-47492991D01*
X151002652Y-47475087D01*
X150928557Y-47336467D01*
X150911384Y-47279853D01*
X150877037Y-47166627D01*
X150859641Y-46990000D01*
X150877037Y-46813373D01*
X150928557Y-46643534D01*
X150928557Y-46643533D01*
X151012221Y-46487011D01*
X151012222Y-46487009D01*
X151041552Y-46451271D01*
X151124814Y-46349814D01*
X151226271Y-46266552D01*
X151262009Y-46237222D01*
X151279913Y-46227652D01*
X151418533Y-46153557D01*
X151475147Y-46136384D01*
X151588373Y-46102037D01*
X151654558Y-46095518D01*
X151720740Y-46089000D01*
X151809260Y-46089000D01*
X151875442Y-46095518D01*
X151875442Y-46095518D01*
G37*
G36*
X152666000Y-45351000D02*
X150864000Y-45351000D01*
X150864000Y-43549000D01*
X152666000Y-43549000D01*
X152666000Y-45351000D01*
X152666000Y-45351000D01*
G37*
G36*
X122792442Y-40888518D02*
X122858627Y-40895037D01*
X122971853Y-40929384D01*
X123028467Y-40946557D01*
X123167087Y-41020652D01*
X123184991Y-41030222D01*
X123220729Y-41059552D01*
X123322186Y-41142814D01*
X123405448Y-41244271D01*
X123434778Y-41280009D01*
X123434779Y-41280011D01*
X123518443Y-41436533D01*
X123518443Y-41436534D01*
X123569963Y-41606373D01*
X123587359Y-41783000D01*
X123569963Y-41959627D01*
X123535616Y-42072853D01*
X123518443Y-42129467D01*
X123444348Y-42268087D01*
X123434778Y-42285991D01*
X123405448Y-42321729D01*
X123322186Y-42423186D01*
X123220729Y-42506448D01*
X123184991Y-42535778D01*
X123184989Y-42535779D01*
X123028467Y-42619443D01*
X122971853Y-42636616D01*
X122858627Y-42670963D01*
X122792442Y-42677482D01*
X122726260Y-42684000D01*
X122637740Y-42684000D01*
X122571558Y-42677482D01*
X122505373Y-42670963D01*
X122392147Y-42636616D01*
X122335533Y-42619443D01*
X122179011Y-42535779D01*
X122179009Y-42535778D01*
X122143271Y-42506448D01*
X122041814Y-42423186D01*
X121958552Y-42321729D01*
X121929222Y-42285991D01*
X121919652Y-42268087D01*
X121845557Y-42129467D01*
X121828384Y-42072853D01*
X121794037Y-41959627D01*
X121776641Y-41783000D01*
X121794037Y-41606373D01*
X121845557Y-41436534D01*
X121845557Y-41436533D01*
X121929221Y-41280011D01*
X121929222Y-41280009D01*
X121958552Y-41244271D01*
X122041814Y-41142814D01*
X122143271Y-41059552D01*
X122179009Y-41030222D01*
X122196913Y-41020652D01*
X122335533Y-40946557D01*
X122392147Y-40929384D01*
X122505373Y-40895037D01*
X122571557Y-40888519D01*
X122637740Y-40882000D01*
X122726260Y-40882000D01*
X122792442Y-40888518D01*
X122792442Y-40888518D01*
G37*
G36*
X121043000Y-42684000D02*
X119241000Y-42684000D01*
X119241000Y-40882000D01*
X121043000Y-40882000D01*
X121043000Y-42684000D01*
X121043000Y-42684000D01*
G37*
G36*
X125332442Y-40888518D02*
X125398627Y-40895037D01*
X125511853Y-40929384D01*
X125568467Y-40946557D01*
X125707087Y-41020652D01*
X125724991Y-41030222D01*
X125760729Y-41059552D01*
X125862186Y-41142814D01*
X125945448Y-41244271D01*
X125974778Y-41280009D01*
X125974779Y-41280011D01*
X126058443Y-41436533D01*
X126058443Y-41436534D01*
X126109963Y-41606373D01*
X126127359Y-41783000D01*
X126109963Y-41959627D01*
X126075616Y-42072853D01*
X126058443Y-42129467D01*
X125984348Y-42268087D01*
X125974778Y-42285991D01*
X125945448Y-42321729D01*
X125862186Y-42423186D01*
X125760729Y-42506448D01*
X125724991Y-42535778D01*
X125724989Y-42535779D01*
X125568467Y-42619443D01*
X125511853Y-42636616D01*
X125398627Y-42670963D01*
X125332442Y-42677482D01*
X125266260Y-42684000D01*
X125177740Y-42684000D01*
X125111558Y-42677482D01*
X125045373Y-42670963D01*
X124932147Y-42636616D01*
X124875533Y-42619443D01*
X124719011Y-42535779D01*
X124719009Y-42535778D01*
X124683271Y-42506448D01*
X124581814Y-42423186D01*
X124498552Y-42321729D01*
X124469222Y-42285991D01*
X124459652Y-42268087D01*
X124385557Y-42129467D01*
X124368384Y-42072853D01*
X124334037Y-41959627D01*
X124316641Y-41783000D01*
X124334037Y-41606373D01*
X124385557Y-41436534D01*
X124385557Y-41436533D01*
X124469221Y-41280011D01*
X124469222Y-41280009D01*
X124498552Y-41244271D01*
X124581814Y-41142814D01*
X124683271Y-41059552D01*
X124719009Y-41030222D01*
X124736913Y-41020652D01*
X124875533Y-40946557D01*
X124932147Y-40929384D01*
X125045373Y-40895037D01*
X125111557Y-40888519D01*
X125177740Y-40882000D01*
X125266260Y-40882000D01*
X125332442Y-40888518D01*
X125332442Y-40888518D01*
G37*
G36*
X127872442Y-40888518D02*
X127938627Y-40895037D01*
X128051853Y-40929384D01*
X128108467Y-40946557D01*
X128247087Y-41020652D01*
X128264991Y-41030222D01*
X128300729Y-41059552D01*
X128402186Y-41142814D01*
X128485448Y-41244271D01*
X128514778Y-41280009D01*
X128514779Y-41280011D01*
X128598443Y-41436533D01*
X128598443Y-41436534D01*
X128649963Y-41606373D01*
X128667359Y-41783000D01*
X128649963Y-41959627D01*
X128615616Y-42072853D01*
X128598443Y-42129467D01*
X128524348Y-42268087D01*
X128514778Y-42285991D01*
X128485448Y-42321729D01*
X128402186Y-42423186D01*
X128300729Y-42506448D01*
X128264991Y-42535778D01*
X128264989Y-42535779D01*
X128108467Y-42619443D01*
X128051853Y-42636616D01*
X127938627Y-42670963D01*
X127872442Y-42677482D01*
X127806260Y-42684000D01*
X127717740Y-42684000D01*
X127651558Y-42677482D01*
X127585373Y-42670963D01*
X127472147Y-42636616D01*
X127415533Y-42619443D01*
X127259011Y-42535779D01*
X127259009Y-42535778D01*
X127223271Y-42506448D01*
X127121814Y-42423186D01*
X127038552Y-42321729D01*
X127009222Y-42285991D01*
X126999652Y-42268087D01*
X126925557Y-42129467D01*
X126908384Y-42072853D01*
X126874037Y-41959627D01*
X126856641Y-41783000D01*
X126874037Y-41606373D01*
X126925557Y-41436534D01*
X126925557Y-41436533D01*
X127009221Y-41280011D01*
X127009222Y-41280009D01*
X127038552Y-41244271D01*
X127121814Y-41142814D01*
X127223271Y-41059552D01*
X127259009Y-41030222D01*
X127276913Y-41020652D01*
X127415533Y-40946557D01*
X127472147Y-40929384D01*
X127585373Y-40895037D01*
X127651557Y-40888519D01*
X127717740Y-40882000D01*
X127806260Y-40882000D01*
X127872442Y-40888518D01*
X127872442Y-40888518D01*
G37*
G36*
X130412442Y-40888518D02*
X130478627Y-40895037D01*
X130591853Y-40929384D01*
X130648467Y-40946557D01*
X130787087Y-41020652D01*
X130804991Y-41030222D01*
X130840729Y-41059552D01*
X130942186Y-41142814D01*
X131025448Y-41244271D01*
X131054778Y-41280009D01*
X131054779Y-41280011D01*
X131138443Y-41436533D01*
X131138443Y-41436534D01*
X131189963Y-41606373D01*
X131207359Y-41783000D01*
X131189963Y-41959627D01*
X131155616Y-42072853D01*
X131138443Y-42129467D01*
X131064348Y-42268087D01*
X131054778Y-42285991D01*
X131025448Y-42321729D01*
X130942186Y-42423186D01*
X130840729Y-42506448D01*
X130804991Y-42535778D01*
X130804989Y-42535779D01*
X130648467Y-42619443D01*
X130591853Y-42636616D01*
X130478627Y-42670963D01*
X130412442Y-42677482D01*
X130346260Y-42684000D01*
X130257740Y-42684000D01*
X130191558Y-42677482D01*
X130125373Y-42670963D01*
X130012147Y-42636616D01*
X129955533Y-42619443D01*
X129799011Y-42535779D01*
X129799009Y-42535778D01*
X129763271Y-42506448D01*
X129661814Y-42423186D01*
X129578552Y-42321729D01*
X129549222Y-42285991D01*
X129539652Y-42268087D01*
X129465557Y-42129467D01*
X129448384Y-42072853D01*
X129414037Y-41959627D01*
X129396641Y-41783000D01*
X129414037Y-41606373D01*
X129465557Y-41436534D01*
X129465557Y-41436533D01*
X129549221Y-41280011D01*
X129549222Y-41280009D01*
X129578552Y-41244271D01*
X129661814Y-41142814D01*
X129763271Y-41059552D01*
X129799009Y-41030222D01*
X129816913Y-41020652D01*
X129955533Y-40946557D01*
X130012147Y-40929384D01*
X130125373Y-40895037D01*
X130191557Y-40888519D01*
X130257740Y-40882000D01*
X130346260Y-40882000D01*
X130412442Y-40888518D01*
X130412442Y-40888518D01*
G37*
G36*
X132952442Y-40888518D02*
X133018627Y-40895037D01*
X133131853Y-40929384D01*
X133188467Y-40946557D01*
X133327087Y-41020652D01*
X133344991Y-41030222D01*
X133380729Y-41059552D01*
X133482186Y-41142814D01*
X133565448Y-41244271D01*
X133594778Y-41280009D01*
X133594779Y-41280011D01*
X133678443Y-41436533D01*
X133678443Y-41436534D01*
X133729963Y-41606373D01*
X133747359Y-41783000D01*
X133729963Y-41959627D01*
X133695616Y-42072853D01*
X133678443Y-42129467D01*
X133604348Y-42268087D01*
X133594778Y-42285991D01*
X133565448Y-42321729D01*
X133482186Y-42423186D01*
X133380729Y-42506448D01*
X133344991Y-42535778D01*
X133344989Y-42535779D01*
X133188467Y-42619443D01*
X133131853Y-42636616D01*
X133018627Y-42670963D01*
X132952442Y-42677482D01*
X132886260Y-42684000D01*
X132797740Y-42684000D01*
X132731558Y-42677482D01*
X132665373Y-42670963D01*
X132552147Y-42636616D01*
X132495533Y-42619443D01*
X132339011Y-42535779D01*
X132339009Y-42535778D01*
X132303271Y-42506448D01*
X132201814Y-42423186D01*
X132118552Y-42321729D01*
X132089222Y-42285991D01*
X132079652Y-42268087D01*
X132005557Y-42129467D01*
X131988384Y-42072853D01*
X131954037Y-41959627D01*
X131936641Y-41783000D01*
X131954037Y-41606373D01*
X132005557Y-41436534D01*
X132005557Y-41436533D01*
X132089221Y-41280011D01*
X132089222Y-41280009D01*
X132118552Y-41244271D01*
X132201814Y-41142814D01*
X132303271Y-41059552D01*
X132339009Y-41030222D01*
X132356913Y-41020652D01*
X132495533Y-40946557D01*
X132552147Y-40929384D01*
X132665373Y-40895037D01*
X132731557Y-40888519D01*
X132797740Y-40882000D01*
X132886260Y-40882000D01*
X132952442Y-40888518D01*
X132952442Y-40888518D01*
G37*
G36*
X135492442Y-40888518D02*
X135558627Y-40895037D01*
X135671853Y-40929384D01*
X135728467Y-40946557D01*
X135867087Y-41020652D01*
X135884991Y-41030222D01*
X135920729Y-41059552D01*
X136022186Y-41142814D01*
X136105448Y-41244271D01*
X136134778Y-41280009D01*
X136134779Y-41280011D01*
X136218443Y-41436533D01*
X136218443Y-41436534D01*
X136269963Y-41606373D01*
X136287359Y-41783000D01*
X136269963Y-41959627D01*
X136235616Y-42072853D01*
X136218443Y-42129467D01*
X136144348Y-42268087D01*
X136134778Y-42285991D01*
X136105448Y-42321729D01*
X136022186Y-42423186D01*
X135920729Y-42506448D01*
X135884991Y-42535778D01*
X135884989Y-42535779D01*
X135728467Y-42619443D01*
X135671853Y-42636616D01*
X135558627Y-42670963D01*
X135492442Y-42677482D01*
X135426260Y-42684000D01*
X135337740Y-42684000D01*
X135271558Y-42677482D01*
X135205373Y-42670963D01*
X135092147Y-42636616D01*
X135035533Y-42619443D01*
X134879011Y-42535779D01*
X134879009Y-42535778D01*
X134843271Y-42506448D01*
X134741814Y-42423186D01*
X134658552Y-42321729D01*
X134629222Y-42285991D01*
X134619652Y-42268087D01*
X134545557Y-42129467D01*
X134528384Y-42072853D01*
X134494037Y-41959627D01*
X134476641Y-41783000D01*
X134494037Y-41606373D01*
X134545557Y-41436534D01*
X134545557Y-41436533D01*
X134629221Y-41280011D01*
X134629222Y-41280009D01*
X134658552Y-41244271D01*
X134741814Y-41142814D01*
X134843271Y-41059552D01*
X134879009Y-41030222D01*
X134896913Y-41020652D01*
X135035533Y-40946557D01*
X135092147Y-40929384D01*
X135205373Y-40895037D01*
X135271557Y-40888519D01*
X135337740Y-40882000D01*
X135426260Y-40882000D01*
X135492442Y-40888518D01*
X135492442Y-40888518D01*
G37*
G36*
X138032442Y-40888518D02*
X138098627Y-40895037D01*
X138211853Y-40929384D01*
X138268467Y-40946557D01*
X138407087Y-41020652D01*
X138424991Y-41030222D01*
X138460729Y-41059552D01*
X138562186Y-41142814D01*
X138645448Y-41244271D01*
X138674778Y-41280009D01*
X138674779Y-41280011D01*
X138758443Y-41436533D01*
X138758443Y-41436534D01*
X138809963Y-41606373D01*
X138827359Y-41783000D01*
X138809963Y-41959627D01*
X138775616Y-42072853D01*
X138758443Y-42129467D01*
X138684348Y-42268087D01*
X138674778Y-42285991D01*
X138645448Y-42321729D01*
X138562186Y-42423186D01*
X138460729Y-42506448D01*
X138424991Y-42535778D01*
X138424989Y-42535779D01*
X138268467Y-42619443D01*
X138211853Y-42636616D01*
X138098627Y-42670963D01*
X138032442Y-42677482D01*
X137966260Y-42684000D01*
X137877740Y-42684000D01*
X137811558Y-42677482D01*
X137745373Y-42670963D01*
X137632147Y-42636616D01*
X137575533Y-42619443D01*
X137419011Y-42535779D01*
X137419009Y-42535778D01*
X137383271Y-42506448D01*
X137281814Y-42423186D01*
X137198552Y-42321729D01*
X137169222Y-42285991D01*
X137159652Y-42268087D01*
X137085557Y-42129467D01*
X137068384Y-42072853D01*
X137034037Y-41959627D01*
X137016641Y-41783000D01*
X137034037Y-41606373D01*
X137085557Y-41436534D01*
X137085557Y-41436533D01*
X137169221Y-41280011D01*
X137169222Y-41280009D01*
X137198552Y-41244271D01*
X137281814Y-41142814D01*
X137383271Y-41059552D01*
X137419009Y-41030222D01*
X137436913Y-41020652D01*
X137575533Y-40946557D01*
X137632147Y-40929384D01*
X137745373Y-40895037D01*
X137811557Y-40888519D01*
X137877740Y-40882000D01*
X137966260Y-40882000D01*
X138032442Y-40888518D01*
X138032442Y-40888518D01*
G37*
G36*
X143112442Y-40888518D02*
X143178627Y-40895037D01*
X143291853Y-40929384D01*
X143348467Y-40946557D01*
X143487087Y-41020652D01*
X143504991Y-41030222D01*
X143540729Y-41059552D01*
X143642186Y-41142814D01*
X143725448Y-41244271D01*
X143754778Y-41280009D01*
X143754779Y-41280011D01*
X143838443Y-41436533D01*
X143838443Y-41436534D01*
X143889963Y-41606373D01*
X143907359Y-41783000D01*
X143889963Y-41959627D01*
X143855616Y-42072853D01*
X143838443Y-42129467D01*
X143764348Y-42268087D01*
X143754778Y-42285991D01*
X143725448Y-42321729D01*
X143642186Y-42423186D01*
X143540729Y-42506448D01*
X143504991Y-42535778D01*
X143504989Y-42535779D01*
X143348467Y-42619443D01*
X143291853Y-42636616D01*
X143178627Y-42670963D01*
X143112442Y-42677482D01*
X143046260Y-42684000D01*
X142957740Y-42684000D01*
X142891558Y-42677482D01*
X142825373Y-42670963D01*
X142712147Y-42636616D01*
X142655533Y-42619443D01*
X142499011Y-42535779D01*
X142499009Y-42535778D01*
X142463271Y-42506448D01*
X142361814Y-42423186D01*
X142278552Y-42321729D01*
X142249222Y-42285991D01*
X142239652Y-42268087D01*
X142165557Y-42129467D01*
X142148384Y-42072853D01*
X142114037Y-41959627D01*
X142096641Y-41783000D01*
X142114037Y-41606373D01*
X142165557Y-41436534D01*
X142165557Y-41436533D01*
X142249221Y-41280011D01*
X142249222Y-41280009D01*
X142278552Y-41244271D01*
X142361814Y-41142814D01*
X142463271Y-41059552D01*
X142499009Y-41030222D01*
X142516913Y-41020652D01*
X142655533Y-40946557D01*
X142712147Y-40929384D01*
X142825373Y-40895037D01*
X142891557Y-40888519D01*
X142957740Y-40882000D01*
X143046260Y-40882000D01*
X143112442Y-40888518D01*
X143112442Y-40888518D01*
G37*
G36*
X140572442Y-40888518D02*
X140638627Y-40895037D01*
X140751853Y-40929384D01*
X140808467Y-40946557D01*
X140947087Y-41020652D01*
X140964991Y-41030222D01*
X141000729Y-41059552D01*
X141102186Y-41142814D01*
X141185448Y-41244271D01*
X141214778Y-41280009D01*
X141214779Y-41280011D01*
X141298443Y-41436533D01*
X141298443Y-41436534D01*
X141349963Y-41606373D01*
X141367359Y-41783000D01*
X141349963Y-41959627D01*
X141315616Y-42072853D01*
X141298443Y-42129467D01*
X141224348Y-42268087D01*
X141214778Y-42285991D01*
X141185448Y-42321729D01*
X141102186Y-42423186D01*
X141000729Y-42506448D01*
X140964991Y-42535778D01*
X140964989Y-42535779D01*
X140808467Y-42619443D01*
X140751853Y-42636616D01*
X140638627Y-42670963D01*
X140572442Y-42677482D01*
X140506260Y-42684000D01*
X140417740Y-42684000D01*
X140351558Y-42677482D01*
X140285373Y-42670963D01*
X140172147Y-42636616D01*
X140115533Y-42619443D01*
X139959011Y-42535779D01*
X139959009Y-42535778D01*
X139923271Y-42506448D01*
X139821814Y-42423186D01*
X139738552Y-42321729D01*
X139709222Y-42285991D01*
X139699652Y-42268087D01*
X139625557Y-42129467D01*
X139608384Y-42072853D01*
X139574037Y-41959627D01*
X139556641Y-41783000D01*
X139574037Y-41606373D01*
X139625557Y-41436534D01*
X139625557Y-41436533D01*
X139709221Y-41280011D01*
X139709222Y-41280009D01*
X139738552Y-41244271D01*
X139821814Y-41142814D01*
X139923271Y-41059552D01*
X139959009Y-41030222D01*
X139976913Y-41020652D01*
X140115533Y-40946557D01*
X140172147Y-40929384D01*
X140285373Y-40895037D01*
X140351557Y-40888519D01*
X140417740Y-40882000D01*
X140506260Y-40882000D01*
X140572442Y-40888518D01*
X140572442Y-40888518D01*
G37*
M02*
