%TF.GenerationSoftware,KiCad,Pcbnew,5.0.2*%
%TF.CreationDate,2019-02-13T10:06:58+08:00*%
%TF.ProjectId,ice40up5k-qfn48,69636534-3075-4703-956b-2d71666e3438,rev?*%
%TF.SameCoordinates,Original*%
%TF.FileFunction,Paste,Top*%
%TF.FilePolarity,Positive*%
%FSLAX46Y46*%
G04 Gerber Fmt 4.6, Leading zero omitted, Abs format (unit mm)*
G04 Created by KiCad (PCBNEW 5.0.2) date 2019年02月13日 星期三 10时06分58秒*
%MOMM*%
%LPD*%
G01*
G04 APERTURE LIST*
%ADD10C,0.350000*%
%ADD11C,0.875000*%
%ADD12R,1.700000X1.000000*%
%ADD13R,1.100000X1.300000*%
%ADD14R,0.600000X0.450000*%
%ADD15R,1.100000X2.000000*%
%ADD16C,1.130000*%
%ADD17C,0.250000*%
%ADD18R,1.700000X0.650000*%
%ADD19R,2.000000X1.500000*%
%ADD20R,2.000000X3.800000*%
G04 APERTURE END LIST*
D10*
G36*
X141184691Y-62518053D02*
X141205926Y-62521203D01*
X141226750Y-62526419D01*
X141246962Y-62533651D01*
X141266368Y-62542830D01*
X141284781Y-62553866D01*
X141302024Y-62566654D01*
X141317930Y-62581070D01*
X141332346Y-62596976D01*
X141345134Y-62614219D01*
X141356170Y-62632632D01*
X141365349Y-62652038D01*
X141372581Y-62672250D01*
X141377797Y-62693074D01*
X141380947Y-62714309D01*
X141382000Y-62735750D01*
X141382000Y-63248250D01*
X141380947Y-63269691D01*
X141377797Y-63290926D01*
X141372581Y-63311750D01*
X141365349Y-63331962D01*
X141356170Y-63351368D01*
X141345134Y-63369781D01*
X141332346Y-63387024D01*
X141317930Y-63402930D01*
X141302024Y-63417346D01*
X141284781Y-63430134D01*
X141266368Y-63441170D01*
X141246962Y-63450349D01*
X141226750Y-63457581D01*
X141205926Y-63462797D01*
X141184691Y-63465947D01*
X141163250Y-63467000D01*
X140725750Y-63467000D01*
X140704309Y-63465947D01*
X140683074Y-63462797D01*
X140662250Y-63457581D01*
X140642038Y-63450349D01*
X140622632Y-63441170D01*
X140604219Y-63430134D01*
X140586976Y-63417346D01*
X140571070Y-63402930D01*
X140556654Y-63387024D01*
X140543866Y-63369781D01*
X140532830Y-63351368D01*
X140523651Y-63331962D01*
X140516419Y-63311750D01*
X140511203Y-63290926D01*
X140508053Y-63269691D01*
X140507000Y-63248250D01*
X140507000Y-62735750D01*
X140508053Y-62714309D01*
X140511203Y-62693074D01*
X140516419Y-62672250D01*
X140523651Y-62652038D01*
X140532830Y-62632632D01*
X140543866Y-62614219D01*
X140556654Y-62596976D01*
X140571070Y-62581070D01*
X140586976Y-62566654D01*
X140604219Y-62553866D01*
X140622632Y-62542830D01*
X140642038Y-62533651D01*
X140662250Y-62526419D01*
X140683074Y-62521203D01*
X140704309Y-62518053D01*
X140725750Y-62517000D01*
X141163250Y-62517000D01*
X141184691Y-62518053D01*
X141184691Y-62518053D01*
G37*
D11*
X140944500Y-62992000D03*
D10*
G36*
X142759691Y-62518053D02*
X142780926Y-62521203D01*
X142801750Y-62526419D01*
X142821962Y-62533651D01*
X142841368Y-62542830D01*
X142859781Y-62553866D01*
X142877024Y-62566654D01*
X142892930Y-62581070D01*
X142907346Y-62596976D01*
X142920134Y-62614219D01*
X142931170Y-62632632D01*
X142940349Y-62652038D01*
X142947581Y-62672250D01*
X142952797Y-62693074D01*
X142955947Y-62714309D01*
X142957000Y-62735750D01*
X142957000Y-63248250D01*
X142955947Y-63269691D01*
X142952797Y-63290926D01*
X142947581Y-63311750D01*
X142940349Y-63331962D01*
X142931170Y-63351368D01*
X142920134Y-63369781D01*
X142907346Y-63387024D01*
X142892930Y-63402930D01*
X142877024Y-63417346D01*
X142859781Y-63430134D01*
X142841368Y-63441170D01*
X142821962Y-63450349D01*
X142801750Y-63457581D01*
X142780926Y-63462797D01*
X142759691Y-63465947D01*
X142738250Y-63467000D01*
X142300750Y-63467000D01*
X142279309Y-63465947D01*
X142258074Y-63462797D01*
X142237250Y-63457581D01*
X142217038Y-63450349D01*
X142197632Y-63441170D01*
X142179219Y-63430134D01*
X142161976Y-63417346D01*
X142146070Y-63402930D01*
X142131654Y-63387024D01*
X142118866Y-63369781D01*
X142107830Y-63351368D01*
X142098651Y-63331962D01*
X142091419Y-63311750D01*
X142086203Y-63290926D01*
X142083053Y-63269691D01*
X142082000Y-63248250D01*
X142082000Y-62735750D01*
X142083053Y-62714309D01*
X142086203Y-62693074D01*
X142091419Y-62672250D01*
X142098651Y-62652038D01*
X142107830Y-62632632D01*
X142118866Y-62614219D01*
X142131654Y-62596976D01*
X142146070Y-62581070D01*
X142161976Y-62566654D01*
X142179219Y-62553866D01*
X142197632Y-62542830D01*
X142217038Y-62533651D01*
X142237250Y-62526419D01*
X142258074Y-62521203D01*
X142279309Y-62518053D01*
X142300750Y-62517000D01*
X142738250Y-62517000D01*
X142759691Y-62518053D01*
X142759691Y-62518053D01*
G37*
D11*
X142519500Y-62992000D03*
D12*
X100228000Y-60457000D03*
X106528000Y-60457000D03*
X100228000Y-64257000D03*
X106528000Y-64257000D03*
D13*
X134606800Y-69198200D03*
X134606800Y-67098200D03*
X132956800Y-67098200D03*
X132956800Y-69198200D03*
D10*
G36*
X117613691Y-53374053D02*
X117634926Y-53377203D01*
X117655750Y-53382419D01*
X117675962Y-53389651D01*
X117695368Y-53398830D01*
X117713781Y-53409866D01*
X117731024Y-53422654D01*
X117746930Y-53437070D01*
X117761346Y-53452976D01*
X117774134Y-53470219D01*
X117785170Y-53488632D01*
X117794349Y-53508038D01*
X117801581Y-53528250D01*
X117806797Y-53549074D01*
X117809947Y-53570309D01*
X117811000Y-53591750D01*
X117811000Y-54104250D01*
X117809947Y-54125691D01*
X117806797Y-54146926D01*
X117801581Y-54167750D01*
X117794349Y-54187962D01*
X117785170Y-54207368D01*
X117774134Y-54225781D01*
X117761346Y-54243024D01*
X117746930Y-54258930D01*
X117731024Y-54273346D01*
X117713781Y-54286134D01*
X117695368Y-54297170D01*
X117675962Y-54306349D01*
X117655750Y-54313581D01*
X117634926Y-54318797D01*
X117613691Y-54321947D01*
X117592250Y-54323000D01*
X117154750Y-54323000D01*
X117133309Y-54321947D01*
X117112074Y-54318797D01*
X117091250Y-54313581D01*
X117071038Y-54306349D01*
X117051632Y-54297170D01*
X117033219Y-54286134D01*
X117015976Y-54273346D01*
X117000070Y-54258930D01*
X116985654Y-54243024D01*
X116972866Y-54225781D01*
X116961830Y-54207368D01*
X116952651Y-54187962D01*
X116945419Y-54167750D01*
X116940203Y-54146926D01*
X116937053Y-54125691D01*
X116936000Y-54104250D01*
X116936000Y-53591750D01*
X116937053Y-53570309D01*
X116940203Y-53549074D01*
X116945419Y-53528250D01*
X116952651Y-53508038D01*
X116961830Y-53488632D01*
X116972866Y-53470219D01*
X116985654Y-53452976D01*
X117000070Y-53437070D01*
X117015976Y-53422654D01*
X117033219Y-53409866D01*
X117051632Y-53398830D01*
X117071038Y-53389651D01*
X117091250Y-53382419D01*
X117112074Y-53377203D01*
X117133309Y-53374053D01*
X117154750Y-53373000D01*
X117592250Y-53373000D01*
X117613691Y-53374053D01*
X117613691Y-53374053D01*
G37*
D11*
X117373500Y-53848000D03*
D10*
G36*
X116038691Y-53374053D02*
X116059926Y-53377203D01*
X116080750Y-53382419D01*
X116100962Y-53389651D01*
X116120368Y-53398830D01*
X116138781Y-53409866D01*
X116156024Y-53422654D01*
X116171930Y-53437070D01*
X116186346Y-53452976D01*
X116199134Y-53470219D01*
X116210170Y-53488632D01*
X116219349Y-53508038D01*
X116226581Y-53528250D01*
X116231797Y-53549074D01*
X116234947Y-53570309D01*
X116236000Y-53591750D01*
X116236000Y-54104250D01*
X116234947Y-54125691D01*
X116231797Y-54146926D01*
X116226581Y-54167750D01*
X116219349Y-54187962D01*
X116210170Y-54207368D01*
X116199134Y-54225781D01*
X116186346Y-54243024D01*
X116171930Y-54258930D01*
X116156024Y-54273346D01*
X116138781Y-54286134D01*
X116120368Y-54297170D01*
X116100962Y-54306349D01*
X116080750Y-54313581D01*
X116059926Y-54318797D01*
X116038691Y-54321947D01*
X116017250Y-54323000D01*
X115579750Y-54323000D01*
X115558309Y-54321947D01*
X115537074Y-54318797D01*
X115516250Y-54313581D01*
X115496038Y-54306349D01*
X115476632Y-54297170D01*
X115458219Y-54286134D01*
X115440976Y-54273346D01*
X115425070Y-54258930D01*
X115410654Y-54243024D01*
X115397866Y-54225781D01*
X115386830Y-54207368D01*
X115377651Y-54187962D01*
X115370419Y-54167750D01*
X115365203Y-54146926D01*
X115362053Y-54125691D01*
X115361000Y-54104250D01*
X115361000Y-53591750D01*
X115362053Y-53570309D01*
X115365203Y-53549074D01*
X115370419Y-53528250D01*
X115377651Y-53508038D01*
X115386830Y-53488632D01*
X115397866Y-53470219D01*
X115410654Y-53452976D01*
X115425070Y-53437070D01*
X115440976Y-53422654D01*
X115458219Y-53409866D01*
X115476632Y-53398830D01*
X115496038Y-53389651D01*
X115516250Y-53382419D01*
X115537074Y-53377203D01*
X115558309Y-53374053D01*
X115579750Y-53373000D01*
X116017250Y-53373000D01*
X116038691Y-53374053D01*
X116038691Y-53374053D01*
G37*
D11*
X115798500Y-53848000D03*
D10*
G36*
X116038691Y-63026053D02*
X116059926Y-63029203D01*
X116080750Y-63034419D01*
X116100962Y-63041651D01*
X116120368Y-63050830D01*
X116138781Y-63061866D01*
X116156024Y-63074654D01*
X116171930Y-63089070D01*
X116186346Y-63104976D01*
X116199134Y-63122219D01*
X116210170Y-63140632D01*
X116219349Y-63160038D01*
X116226581Y-63180250D01*
X116231797Y-63201074D01*
X116234947Y-63222309D01*
X116236000Y-63243750D01*
X116236000Y-63756250D01*
X116234947Y-63777691D01*
X116231797Y-63798926D01*
X116226581Y-63819750D01*
X116219349Y-63839962D01*
X116210170Y-63859368D01*
X116199134Y-63877781D01*
X116186346Y-63895024D01*
X116171930Y-63910930D01*
X116156024Y-63925346D01*
X116138781Y-63938134D01*
X116120368Y-63949170D01*
X116100962Y-63958349D01*
X116080750Y-63965581D01*
X116059926Y-63970797D01*
X116038691Y-63973947D01*
X116017250Y-63975000D01*
X115579750Y-63975000D01*
X115558309Y-63973947D01*
X115537074Y-63970797D01*
X115516250Y-63965581D01*
X115496038Y-63958349D01*
X115476632Y-63949170D01*
X115458219Y-63938134D01*
X115440976Y-63925346D01*
X115425070Y-63910930D01*
X115410654Y-63895024D01*
X115397866Y-63877781D01*
X115386830Y-63859368D01*
X115377651Y-63839962D01*
X115370419Y-63819750D01*
X115365203Y-63798926D01*
X115362053Y-63777691D01*
X115361000Y-63756250D01*
X115361000Y-63243750D01*
X115362053Y-63222309D01*
X115365203Y-63201074D01*
X115370419Y-63180250D01*
X115377651Y-63160038D01*
X115386830Y-63140632D01*
X115397866Y-63122219D01*
X115410654Y-63104976D01*
X115425070Y-63089070D01*
X115440976Y-63074654D01*
X115458219Y-63061866D01*
X115476632Y-63050830D01*
X115496038Y-63041651D01*
X115516250Y-63034419D01*
X115537074Y-63029203D01*
X115558309Y-63026053D01*
X115579750Y-63025000D01*
X116017250Y-63025000D01*
X116038691Y-63026053D01*
X116038691Y-63026053D01*
G37*
D11*
X115798500Y-63500000D03*
D10*
G36*
X117613691Y-63026053D02*
X117634926Y-63029203D01*
X117655750Y-63034419D01*
X117675962Y-63041651D01*
X117695368Y-63050830D01*
X117713781Y-63061866D01*
X117731024Y-63074654D01*
X117746930Y-63089070D01*
X117761346Y-63104976D01*
X117774134Y-63122219D01*
X117785170Y-63140632D01*
X117794349Y-63160038D01*
X117801581Y-63180250D01*
X117806797Y-63201074D01*
X117809947Y-63222309D01*
X117811000Y-63243750D01*
X117811000Y-63756250D01*
X117809947Y-63777691D01*
X117806797Y-63798926D01*
X117801581Y-63819750D01*
X117794349Y-63839962D01*
X117785170Y-63859368D01*
X117774134Y-63877781D01*
X117761346Y-63895024D01*
X117746930Y-63910930D01*
X117731024Y-63925346D01*
X117713781Y-63938134D01*
X117695368Y-63949170D01*
X117675962Y-63958349D01*
X117655750Y-63965581D01*
X117634926Y-63970797D01*
X117613691Y-63973947D01*
X117592250Y-63975000D01*
X117154750Y-63975000D01*
X117133309Y-63973947D01*
X117112074Y-63970797D01*
X117091250Y-63965581D01*
X117071038Y-63958349D01*
X117051632Y-63949170D01*
X117033219Y-63938134D01*
X117015976Y-63925346D01*
X117000070Y-63910930D01*
X116985654Y-63895024D01*
X116972866Y-63877781D01*
X116961830Y-63859368D01*
X116952651Y-63839962D01*
X116945419Y-63819750D01*
X116940203Y-63798926D01*
X116937053Y-63777691D01*
X116936000Y-63756250D01*
X116936000Y-63243750D01*
X116937053Y-63222309D01*
X116940203Y-63201074D01*
X116945419Y-63180250D01*
X116952651Y-63160038D01*
X116961830Y-63140632D01*
X116972866Y-63122219D01*
X116985654Y-63104976D01*
X117000070Y-63089070D01*
X117015976Y-63074654D01*
X117033219Y-63061866D01*
X117051632Y-63050830D01*
X117071038Y-63041651D01*
X117091250Y-63034419D01*
X117112074Y-63029203D01*
X117133309Y-63026053D01*
X117154750Y-63025000D01*
X117592250Y-63025000D01*
X117613691Y-63026053D01*
X117613691Y-63026053D01*
G37*
D11*
X117373500Y-63500000D03*
D10*
G36*
X142962691Y-54898053D02*
X142983926Y-54901203D01*
X143004750Y-54906419D01*
X143024962Y-54913651D01*
X143044368Y-54922830D01*
X143062781Y-54933866D01*
X143080024Y-54946654D01*
X143095930Y-54961070D01*
X143110346Y-54976976D01*
X143123134Y-54994219D01*
X143134170Y-55012632D01*
X143143349Y-55032038D01*
X143150581Y-55052250D01*
X143155797Y-55073074D01*
X143158947Y-55094309D01*
X143160000Y-55115750D01*
X143160000Y-55628250D01*
X143158947Y-55649691D01*
X143155797Y-55670926D01*
X143150581Y-55691750D01*
X143143349Y-55711962D01*
X143134170Y-55731368D01*
X143123134Y-55749781D01*
X143110346Y-55767024D01*
X143095930Y-55782930D01*
X143080024Y-55797346D01*
X143062781Y-55810134D01*
X143044368Y-55821170D01*
X143024962Y-55830349D01*
X143004750Y-55837581D01*
X142983926Y-55842797D01*
X142962691Y-55845947D01*
X142941250Y-55847000D01*
X142503750Y-55847000D01*
X142482309Y-55845947D01*
X142461074Y-55842797D01*
X142440250Y-55837581D01*
X142420038Y-55830349D01*
X142400632Y-55821170D01*
X142382219Y-55810134D01*
X142364976Y-55797346D01*
X142349070Y-55782930D01*
X142334654Y-55767024D01*
X142321866Y-55749781D01*
X142310830Y-55731368D01*
X142301651Y-55711962D01*
X142294419Y-55691750D01*
X142289203Y-55670926D01*
X142286053Y-55649691D01*
X142285000Y-55628250D01*
X142285000Y-55115750D01*
X142286053Y-55094309D01*
X142289203Y-55073074D01*
X142294419Y-55052250D01*
X142301651Y-55032038D01*
X142310830Y-55012632D01*
X142321866Y-54994219D01*
X142334654Y-54976976D01*
X142349070Y-54961070D01*
X142364976Y-54946654D01*
X142382219Y-54933866D01*
X142400632Y-54922830D01*
X142420038Y-54913651D01*
X142440250Y-54906419D01*
X142461074Y-54901203D01*
X142482309Y-54898053D01*
X142503750Y-54897000D01*
X142941250Y-54897000D01*
X142962691Y-54898053D01*
X142962691Y-54898053D01*
G37*
D11*
X142722500Y-55372000D03*
D10*
G36*
X144537691Y-54898053D02*
X144558926Y-54901203D01*
X144579750Y-54906419D01*
X144599962Y-54913651D01*
X144619368Y-54922830D01*
X144637781Y-54933866D01*
X144655024Y-54946654D01*
X144670930Y-54961070D01*
X144685346Y-54976976D01*
X144698134Y-54994219D01*
X144709170Y-55012632D01*
X144718349Y-55032038D01*
X144725581Y-55052250D01*
X144730797Y-55073074D01*
X144733947Y-55094309D01*
X144735000Y-55115750D01*
X144735000Y-55628250D01*
X144733947Y-55649691D01*
X144730797Y-55670926D01*
X144725581Y-55691750D01*
X144718349Y-55711962D01*
X144709170Y-55731368D01*
X144698134Y-55749781D01*
X144685346Y-55767024D01*
X144670930Y-55782930D01*
X144655024Y-55797346D01*
X144637781Y-55810134D01*
X144619368Y-55821170D01*
X144599962Y-55830349D01*
X144579750Y-55837581D01*
X144558926Y-55842797D01*
X144537691Y-55845947D01*
X144516250Y-55847000D01*
X144078750Y-55847000D01*
X144057309Y-55845947D01*
X144036074Y-55842797D01*
X144015250Y-55837581D01*
X143995038Y-55830349D01*
X143975632Y-55821170D01*
X143957219Y-55810134D01*
X143939976Y-55797346D01*
X143924070Y-55782930D01*
X143909654Y-55767024D01*
X143896866Y-55749781D01*
X143885830Y-55731368D01*
X143876651Y-55711962D01*
X143869419Y-55691750D01*
X143864203Y-55670926D01*
X143861053Y-55649691D01*
X143860000Y-55628250D01*
X143860000Y-55115750D01*
X143861053Y-55094309D01*
X143864203Y-55073074D01*
X143869419Y-55052250D01*
X143876651Y-55032038D01*
X143885830Y-55012632D01*
X143896866Y-54994219D01*
X143909654Y-54976976D01*
X143924070Y-54961070D01*
X143939976Y-54946654D01*
X143957219Y-54933866D01*
X143975632Y-54922830D01*
X143995038Y-54913651D01*
X144015250Y-54906419D01*
X144036074Y-54901203D01*
X144057309Y-54898053D01*
X144078750Y-54897000D01*
X144516250Y-54897000D01*
X144537691Y-54898053D01*
X144537691Y-54898053D01*
G37*
D11*
X144297500Y-55372000D03*
D10*
G36*
X113295691Y-63026053D02*
X113316926Y-63029203D01*
X113337750Y-63034419D01*
X113357962Y-63041651D01*
X113377368Y-63050830D01*
X113395781Y-63061866D01*
X113413024Y-63074654D01*
X113428930Y-63089070D01*
X113443346Y-63104976D01*
X113456134Y-63122219D01*
X113467170Y-63140632D01*
X113476349Y-63160038D01*
X113483581Y-63180250D01*
X113488797Y-63201074D01*
X113491947Y-63222309D01*
X113493000Y-63243750D01*
X113493000Y-63756250D01*
X113491947Y-63777691D01*
X113488797Y-63798926D01*
X113483581Y-63819750D01*
X113476349Y-63839962D01*
X113467170Y-63859368D01*
X113456134Y-63877781D01*
X113443346Y-63895024D01*
X113428930Y-63910930D01*
X113413024Y-63925346D01*
X113395781Y-63938134D01*
X113377368Y-63949170D01*
X113357962Y-63958349D01*
X113337750Y-63965581D01*
X113316926Y-63970797D01*
X113295691Y-63973947D01*
X113274250Y-63975000D01*
X112836750Y-63975000D01*
X112815309Y-63973947D01*
X112794074Y-63970797D01*
X112773250Y-63965581D01*
X112753038Y-63958349D01*
X112733632Y-63949170D01*
X112715219Y-63938134D01*
X112697976Y-63925346D01*
X112682070Y-63910930D01*
X112667654Y-63895024D01*
X112654866Y-63877781D01*
X112643830Y-63859368D01*
X112634651Y-63839962D01*
X112627419Y-63819750D01*
X112622203Y-63798926D01*
X112619053Y-63777691D01*
X112618000Y-63756250D01*
X112618000Y-63243750D01*
X112619053Y-63222309D01*
X112622203Y-63201074D01*
X112627419Y-63180250D01*
X112634651Y-63160038D01*
X112643830Y-63140632D01*
X112654866Y-63122219D01*
X112667654Y-63104976D01*
X112682070Y-63089070D01*
X112697976Y-63074654D01*
X112715219Y-63061866D01*
X112733632Y-63050830D01*
X112753038Y-63041651D01*
X112773250Y-63034419D01*
X112794074Y-63029203D01*
X112815309Y-63026053D01*
X112836750Y-63025000D01*
X113274250Y-63025000D01*
X113295691Y-63026053D01*
X113295691Y-63026053D01*
G37*
D11*
X113055500Y-63500000D03*
D10*
G36*
X111720691Y-63026053D02*
X111741926Y-63029203D01*
X111762750Y-63034419D01*
X111782962Y-63041651D01*
X111802368Y-63050830D01*
X111820781Y-63061866D01*
X111838024Y-63074654D01*
X111853930Y-63089070D01*
X111868346Y-63104976D01*
X111881134Y-63122219D01*
X111892170Y-63140632D01*
X111901349Y-63160038D01*
X111908581Y-63180250D01*
X111913797Y-63201074D01*
X111916947Y-63222309D01*
X111918000Y-63243750D01*
X111918000Y-63756250D01*
X111916947Y-63777691D01*
X111913797Y-63798926D01*
X111908581Y-63819750D01*
X111901349Y-63839962D01*
X111892170Y-63859368D01*
X111881134Y-63877781D01*
X111868346Y-63895024D01*
X111853930Y-63910930D01*
X111838024Y-63925346D01*
X111820781Y-63938134D01*
X111802368Y-63949170D01*
X111782962Y-63958349D01*
X111762750Y-63965581D01*
X111741926Y-63970797D01*
X111720691Y-63973947D01*
X111699250Y-63975000D01*
X111261750Y-63975000D01*
X111240309Y-63973947D01*
X111219074Y-63970797D01*
X111198250Y-63965581D01*
X111178038Y-63958349D01*
X111158632Y-63949170D01*
X111140219Y-63938134D01*
X111122976Y-63925346D01*
X111107070Y-63910930D01*
X111092654Y-63895024D01*
X111079866Y-63877781D01*
X111068830Y-63859368D01*
X111059651Y-63839962D01*
X111052419Y-63819750D01*
X111047203Y-63798926D01*
X111044053Y-63777691D01*
X111043000Y-63756250D01*
X111043000Y-63243750D01*
X111044053Y-63222309D01*
X111047203Y-63201074D01*
X111052419Y-63180250D01*
X111059651Y-63160038D01*
X111068830Y-63140632D01*
X111079866Y-63122219D01*
X111092654Y-63104976D01*
X111107070Y-63089070D01*
X111122976Y-63074654D01*
X111140219Y-63061866D01*
X111158632Y-63050830D01*
X111178038Y-63041651D01*
X111198250Y-63034419D01*
X111219074Y-63029203D01*
X111240309Y-63026053D01*
X111261750Y-63025000D01*
X111699250Y-63025000D01*
X111720691Y-63026053D01*
X111720691Y-63026053D01*
G37*
D11*
X111480500Y-63500000D03*
D10*
G36*
X144537691Y-56422053D02*
X144558926Y-56425203D01*
X144579750Y-56430419D01*
X144599962Y-56437651D01*
X144619368Y-56446830D01*
X144637781Y-56457866D01*
X144655024Y-56470654D01*
X144670930Y-56485070D01*
X144685346Y-56500976D01*
X144698134Y-56518219D01*
X144709170Y-56536632D01*
X144718349Y-56556038D01*
X144725581Y-56576250D01*
X144730797Y-56597074D01*
X144733947Y-56618309D01*
X144735000Y-56639750D01*
X144735000Y-57152250D01*
X144733947Y-57173691D01*
X144730797Y-57194926D01*
X144725581Y-57215750D01*
X144718349Y-57235962D01*
X144709170Y-57255368D01*
X144698134Y-57273781D01*
X144685346Y-57291024D01*
X144670930Y-57306930D01*
X144655024Y-57321346D01*
X144637781Y-57334134D01*
X144619368Y-57345170D01*
X144599962Y-57354349D01*
X144579750Y-57361581D01*
X144558926Y-57366797D01*
X144537691Y-57369947D01*
X144516250Y-57371000D01*
X144078750Y-57371000D01*
X144057309Y-57369947D01*
X144036074Y-57366797D01*
X144015250Y-57361581D01*
X143995038Y-57354349D01*
X143975632Y-57345170D01*
X143957219Y-57334134D01*
X143939976Y-57321346D01*
X143924070Y-57306930D01*
X143909654Y-57291024D01*
X143896866Y-57273781D01*
X143885830Y-57255368D01*
X143876651Y-57235962D01*
X143869419Y-57215750D01*
X143864203Y-57194926D01*
X143861053Y-57173691D01*
X143860000Y-57152250D01*
X143860000Y-56639750D01*
X143861053Y-56618309D01*
X143864203Y-56597074D01*
X143869419Y-56576250D01*
X143876651Y-56556038D01*
X143885830Y-56536632D01*
X143896866Y-56518219D01*
X143909654Y-56500976D01*
X143924070Y-56485070D01*
X143939976Y-56470654D01*
X143957219Y-56457866D01*
X143975632Y-56446830D01*
X143995038Y-56437651D01*
X144015250Y-56430419D01*
X144036074Y-56425203D01*
X144057309Y-56422053D01*
X144078750Y-56421000D01*
X144516250Y-56421000D01*
X144537691Y-56422053D01*
X144537691Y-56422053D01*
G37*
D11*
X144297500Y-56896000D03*
D10*
G36*
X142962691Y-56422053D02*
X142983926Y-56425203D01*
X143004750Y-56430419D01*
X143024962Y-56437651D01*
X143044368Y-56446830D01*
X143062781Y-56457866D01*
X143080024Y-56470654D01*
X143095930Y-56485070D01*
X143110346Y-56500976D01*
X143123134Y-56518219D01*
X143134170Y-56536632D01*
X143143349Y-56556038D01*
X143150581Y-56576250D01*
X143155797Y-56597074D01*
X143158947Y-56618309D01*
X143160000Y-56639750D01*
X143160000Y-57152250D01*
X143158947Y-57173691D01*
X143155797Y-57194926D01*
X143150581Y-57215750D01*
X143143349Y-57235962D01*
X143134170Y-57255368D01*
X143123134Y-57273781D01*
X143110346Y-57291024D01*
X143095930Y-57306930D01*
X143080024Y-57321346D01*
X143062781Y-57334134D01*
X143044368Y-57345170D01*
X143024962Y-57354349D01*
X143004750Y-57361581D01*
X142983926Y-57366797D01*
X142962691Y-57369947D01*
X142941250Y-57371000D01*
X142503750Y-57371000D01*
X142482309Y-57369947D01*
X142461074Y-57366797D01*
X142440250Y-57361581D01*
X142420038Y-57354349D01*
X142400632Y-57345170D01*
X142382219Y-57334134D01*
X142364976Y-57321346D01*
X142349070Y-57306930D01*
X142334654Y-57291024D01*
X142321866Y-57273781D01*
X142310830Y-57255368D01*
X142301651Y-57235962D01*
X142294419Y-57215750D01*
X142289203Y-57194926D01*
X142286053Y-57173691D01*
X142285000Y-57152250D01*
X142285000Y-56639750D01*
X142286053Y-56618309D01*
X142289203Y-56597074D01*
X142294419Y-56576250D01*
X142301651Y-56556038D01*
X142310830Y-56536632D01*
X142321866Y-56518219D01*
X142334654Y-56500976D01*
X142349070Y-56485070D01*
X142364976Y-56470654D01*
X142382219Y-56457866D01*
X142400632Y-56446830D01*
X142420038Y-56437651D01*
X142440250Y-56430419D01*
X142461074Y-56425203D01*
X142482309Y-56422053D01*
X142503750Y-56421000D01*
X142941250Y-56421000D01*
X142962691Y-56422053D01*
X142962691Y-56422053D01*
G37*
D11*
X142722500Y-56896000D03*
D10*
G36*
X141184691Y-59470053D02*
X141205926Y-59473203D01*
X141226750Y-59478419D01*
X141246962Y-59485651D01*
X141266368Y-59494830D01*
X141284781Y-59505866D01*
X141302024Y-59518654D01*
X141317930Y-59533070D01*
X141332346Y-59548976D01*
X141345134Y-59566219D01*
X141356170Y-59584632D01*
X141365349Y-59604038D01*
X141372581Y-59624250D01*
X141377797Y-59645074D01*
X141380947Y-59666309D01*
X141382000Y-59687750D01*
X141382000Y-60200250D01*
X141380947Y-60221691D01*
X141377797Y-60242926D01*
X141372581Y-60263750D01*
X141365349Y-60283962D01*
X141356170Y-60303368D01*
X141345134Y-60321781D01*
X141332346Y-60339024D01*
X141317930Y-60354930D01*
X141302024Y-60369346D01*
X141284781Y-60382134D01*
X141266368Y-60393170D01*
X141246962Y-60402349D01*
X141226750Y-60409581D01*
X141205926Y-60414797D01*
X141184691Y-60417947D01*
X141163250Y-60419000D01*
X140725750Y-60419000D01*
X140704309Y-60417947D01*
X140683074Y-60414797D01*
X140662250Y-60409581D01*
X140642038Y-60402349D01*
X140622632Y-60393170D01*
X140604219Y-60382134D01*
X140586976Y-60369346D01*
X140571070Y-60354930D01*
X140556654Y-60339024D01*
X140543866Y-60321781D01*
X140532830Y-60303368D01*
X140523651Y-60283962D01*
X140516419Y-60263750D01*
X140511203Y-60242926D01*
X140508053Y-60221691D01*
X140507000Y-60200250D01*
X140507000Y-59687750D01*
X140508053Y-59666309D01*
X140511203Y-59645074D01*
X140516419Y-59624250D01*
X140523651Y-59604038D01*
X140532830Y-59584632D01*
X140543866Y-59566219D01*
X140556654Y-59548976D01*
X140571070Y-59533070D01*
X140586976Y-59518654D01*
X140604219Y-59505866D01*
X140622632Y-59494830D01*
X140642038Y-59485651D01*
X140662250Y-59478419D01*
X140683074Y-59473203D01*
X140704309Y-59470053D01*
X140725750Y-59469000D01*
X141163250Y-59469000D01*
X141184691Y-59470053D01*
X141184691Y-59470053D01*
G37*
D11*
X140944500Y-59944000D03*
D10*
G36*
X142759691Y-59470053D02*
X142780926Y-59473203D01*
X142801750Y-59478419D01*
X142821962Y-59485651D01*
X142841368Y-59494830D01*
X142859781Y-59505866D01*
X142877024Y-59518654D01*
X142892930Y-59533070D01*
X142907346Y-59548976D01*
X142920134Y-59566219D01*
X142931170Y-59584632D01*
X142940349Y-59604038D01*
X142947581Y-59624250D01*
X142952797Y-59645074D01*
X142955947Y-59666309D01*
X142957000Y-59687750D01*
X142957000Y-60200250D01*
X142955947Y-60221691D01*
X142952797Y-60242926D01*
X142947581Y-60263750D01*
X142940349Y-60283962D01*
X142931170Y-60303368D01*
X142920134Y-60321781D01*
X142907346Y-60339024D01*
X142892930Y-60354930D01*
X142877024Y-60369346D01*
X142859781Y-60382134D01*
X142841368Y-60393170D01*
X142821962Y-60402349D01*
X142801750Y-60409581D01*
X142780926Y-60414797D01*
X142759691Y-60417947D01*
X142738250Y-60419000D01*
X142300750Y-60419000D01*
X142279309Y-60417947D01*
X142258074Y-60414797D01*
X142237250Y-60409581D01*
X142217038Y-60402349D01*
X142197632Y-60393170D01*
X142179219Y-60382134D01*
X142161976Y-60369346D01*
X142146070Y-60354930D01*
X142131654Y-60339024D01*
X142118866Y-60321781D01*
X142107830Y-60303368D01*
X142098651Y-60283962D01*
X142091419Y-60263750D01*
X142086203Y-60242926D01*
X142083053Y-60221691D01*
X142082000Y-60200250D01*
X142082000Y-59687750D01*
X142083053Y-59666309D01*
X142086203Y-59645074D01*
X142091419Y-59624250D01*
X142098651Y-59604038D01*
X142107830Y-59584632D01*
X142118866Y-59566219D01*
X142131654Y-59548976D01*
X142146070Y-59533070D01*
X142161976Y-59518654D01*
X142179219Y-59505866D01*
X142197632Y-59494830D01*
X142217038Y-59485651D01*
X142237250Y-59478419D01*
X142258074Y-59473203D01*
X142279309Y-59470053D01*
X142300750Y-59469000D01*
X142738250Y-59469000D01*
X142759691Y-59470053D01*
X142759691Y-59470053D01*
G37*
D11*
X142519500Y-59944000D03*
D10*
G36*
X142759691Y-60994053D02*
X142780926Y-60997203D01*
X142801750Y-61002419D01*
X142821962Y-61009651D01*
X142841368Y-61018830D01*
X142859781Y-61029866D01*
X142877024Y-61042654D01*
X142892930Y-61057070D01*
X142907346Y-61072976D01*
X142920134Y-61090219D01*
X142931170Y-61108632D01*
X142940349Y-61128038D01*
X142947581Y-61148250D01*
X142952797Y-61169074D01*
X142955947Y-61190309D01*
X142957000Y-61211750D01*
X142957000Y-61724250D01*
X142955947Y-61745691D01*
X142952797Y-61766926D01*
X142947581Y-61787750D01*
X142940349Y-61807962D01*
X142931170Y-61827368D01*
X142920134Y-61845781D01*
X142907346Y-61863024D01*
X142892930Y-61878930D01*
X142877024Y-61893346D01*
X142859781Y-61906134D01*
X142841368Y-61917170D01*
X142821962Y-61926349D01*
X142801750Y-61933581D01*
X142780926Y-61938797D01*
X142759691Y-61941947D01*
X142738250Y-61943000D01*
X142300750Y-61943000D01*
X142279309Y-61941947D01*
X142258074Y-61938797D01*
X142237250Y-61933581D01*
X142217038Y-61926349D01*
X142197632Y-61917170D01*
X142179219Y-61906134D01*
X142161976Y-61893346D01*
X142146070Y-61878930D01*
X142131654Y-61863024D01*
X142118866Y-61845781D01*
X142107830Y-61827368D01*
X142098651Y-61807962D01*
X142091419Y-61787750D01*
X142086203Y-61766926D01*
X142083053Y-61745691D01*
X142082000Y-61724250D01*
X142082000Y-61211750D01*
X142083053Y-61190309D01*
X142086203Y-61169074D01*
X142091419Y-61148250D01*
X142098651Y-61128038D01*
X142107830Y-61108632D01*
X142118866Y-61090219D01*
X142131654Y-61072976D01*
X142146070Y-61057070D01*
X142161976Y-61042654D01*
X142179219Y-61029866D01*
X142197632Y-61018830D01*
X142217038Y-61009651D01*
X142237250Y-61002419D01*
X142258074Y-60997203D01*
X142279309Y-60994053D01*
X142300750Y-60993000D01*
X142738250Y-60993000D01*
X142759691Y-60994053D01*
X142759691Y-60994053D01*
G37*
D11*
X142519500Y-61468000D03*
D10*
G36*
X141184691Y-60994053D02*
X141205926Y-60997203D01*
X141226750Y-61002419D01*
X141246962Y-61009651D01*
X141266368Y-61018830D01*
X141284781Y-61029866D01*
X141302024Y-61042654D01*
X141317930Y-61057070D01*
X141332346Y-61072976D01*
X141345134Y-61090219D01*
X141356170Y-61108632D01*
X141365349Y-61128038D01*
X141372581Y-61148250D01*
X141377797Y-61169074D01*
X141380947Y-61190309D01*
X141382000Y-61211750D01*
X141382000Y-61724250D01*
X141380947Y-61745691D01*
X141377797Y-61766926D01*
X141372581Y-61787750D01*
X141365349Y-61807962D01*
X141356170Y-61827368D01*
X141345134Y-61845781D01*
X141332346Y-61863024D01*
X141317930Y-61878930D01*
X141302024Y-61893346D01*
X141284781Y-61906134D01*
X141266368Y-61917170D01*
X141246962Y-61926349D01*
X141226750Y-61933581D01*
X141205926Y-61938797D01*
X141184691Y-61941947D01*
X141163250Y-61943000D01*
X140725750Y-61943000D01*
X140704309Y-61941947D01*
X140683074Y-61938797D01*
X140662250Y-61933581D01*
X140642038Y-61926349D01*
X140622632Y-61917170D01*
X140604219Y-61906134D01*
X140586976Y-61893346D01*
X140571070Y-61878930D01*
X140556654Y-61863024D01*
X140543866Y-61845781D01*
X140532830Y-61827368D01*
X140523651Y-61807962D01*
X140516419Y-61787750D01*
X140511203Y-61766926D01*
X140508053Y-61745691D01*
X140507000Y-61724250D01*
X140507000Y-61211750D01*
X140508053Y-61190309D01*
X140511203Y-61169074D01*
X140516419Y-61148250D01*
X140523651Y-61128038D01*
X140532830Y-61108632D01*
X140543866Y-61090219D01*
X140556654Y-61072976D01*
X140571070Y-61057070D01*
X140586976Y-61042654D01*
X140604219Y-61029866D01*
X140622632Y-61018830D01*
X140642038Y-61009651D01*
X140662250Y-61002419D01*
X140683074Y-60997203D01*
X140704309Y-60994053D01*
X140725750Y-60993000D01*
X141163250Y-60993000D01*
X141184691Y-60994053D01*
X141184691Y-60994053D01*
G37*
D11*
X140944500Y-61468000D03*
D10*
G36*
X123455691Y-57184053D02*
X123476926Y-57187203D01*
X123497750Y-57192419D01*
X123517962Y-57199651D01*
X123537368Y-57208830D01*
X123555781Y-57219866D01*
X123573024Y-57232654D01*
X123588930Y-57247070D01*
X123603346Y-57262976D01*
X123616134Y-57280219D01*
X123627170Y-57298632D01*
X123636349Y-57318038D01*
X123643581Y-57338250D01*
X123648797Y-57359074D01*
X123651947Y-57380309D01*
X123653000Y-57401750D01*
X123653000Y-57914250D01*
X123651947Y-57935691D01*
X123648797Y-57956926D01*
X123643581Y-57977750D01*
X123636349Y-57997962D01*
X123627170Y-58017368D01*
X123616134Y-58035781D01*
X123603346Y-58053024D01*
X123588930Y-58068930D01*
X123573024Y-58083346D01*
X123555781Y-58096134D01*
X123537368Y-58107170D01*
X123517962Y-58116349D01*
X123497750Y-58123581D01*
X123476926Y-58128797D01*
X123455691Y-58131947D01*
X123434250Y-58133000D01*
X122996750Y-58133000D01*
X122975309Y-58131947D01*
X122954074Y-58128797D01*
X122933250Y-58123581D01*
X122913038Y-58116349D01*
X122893632Y-58107170D01*
X122875219Y-58096134D01*
X122857976Y-58083346D01*
X122842070Y-58068930D01*
X122827654Y-58053024D01*
X122814866Y-58035781D01*
X122803830Y-58017368D01*
X122794651Y-57997962D01*
X122787419Y-57977750D01*
X122782203Y-57956926D01*
X122779053Y-57935691D01*
X122778000Y-57914250D01*
X122778000Y-57401750D01*
X122779053Y-57380309D01*
X122782203Y-57359074D01*
X122787419Y-57338250D01*
X122794651Y-57318038D01*
X122803830Y-57298632D01*
X122814866Y-57280219D01*
X122827654Y-57262976D01*
X122842070Y-57247070D01*
X122857976Y-57232654D01*
X122875219Y-57219866D01*
X122893632Y-57208830D01*
X122913038Y-57199651D01*
X122933250Y-57192419D01*
X122954074Y-57187203D01*
X122975309Y-57184053D01*
X122996750Y-57183000D01*
X123434250Y-57183000D01*
X123455691Y-57184053D01*
X123455691Y-57184053D01*
G37*
D11*
X123215500Y-57658000D03*
D10*
G36*
X121880691Y-57184053D02*
X121901926Y-57187203D01*
X121922750Y-57192419D01*
X121942962Y-57199651D01*
X121962368Y-57208830D01*
X121980781Y-57219866D01*
X121998024Y-57232654D01*
X122013930Y-57247070D01*
X122028346Y-57262976D01*
X122041134Y-57280219D01*
X122052170Y-57298632D01*
X122061349Y-57318038D01*
X122068581Y-57338250D01*
X122073797Y-57359074D01*
X122076947Y-57380309D01*
X122078000Y-57401750D01*
X122078000Y-57914250D01*
X122076947Y-57935691D01*
X122073797Y-57956926D01*
X122068581Y-57977750D01*
X122061349Y-57997962D01*
X122052170Y-58017368D01*
X122041134Y-58035781D01*
X122028346Y-58053024D01*
X122013930Y-58068930D01*
X121998024Y-58083346D01*
X121980781Y-58096134D01*
X121962368Y-58107170D01*
X121942962Y-58116349D01*
X121922750Y-58123581D01*
X121901926Y-58128797D01*
X121880691Y-58131947D01*
X121859250Y-58133000D01*
X121421750Y-58133000D01*
X121400309Y-58131947D01*
X121379074Y-58128797D01*
X121358250Y-58123581D01*
X121338038Y-58116349D01*
X121318632Y-58107170D01*
X121300219Y-58096134D01*
X121282976Y-58083346D01*
X121267070Y-58068930D01*
X121252654Y-58053024D01*
X121239866Y-58035781D01*
X121228830Y-58017368D01*
X121219651Y-57997962D01*
X121212419Y-57977750D01*
X121207203Y-57956926D01*
X121204053Y-57935691D01*
X121203000Y-57914250D01*
X121203000Y-57401750D01*
X121204053Y-57380309D01*
X121207203Y-57359074D01*
X121212419Y-57338250D01*
X121219651Y-57318038D01*
X121228830Y-57298632D01*
X121239866Y-57280219D01*
X121252654Y-57262976D01*
X121267070Y-57247070D01*
X121282976Y-57232654D01*
X121300219Y-57219866D01*
X121318632Y-57208830D01*
X121338038Y-57199651D01*
X121358250Y-57192419D01*
X121379074Y-57187203D01*
X121400309Y-57184053D01*
X121421750Y-57183000D01*
X121859250Y-57183000D01*
X121880691Y-57184053D01*
X121880691Y-57184053D01*
G37*
D11*
X121640500Y-57658000D03*
D10*
G36*
X137615491Y-68499253D02*
X137636726Y-68502403D01*
X137657550Y-68507619D01*
X137677762Y-68514851D01*
X137697168Y-68524030D01*
X137715581Y-68535066D01*
X137732824Y-68547854D01*
X137748730Y-68562270D01*
X137763146Y-68578176D01*
X137775934Y-68595419D01*
X137786970Y-68613832D01*
X137796149Y-68633238D01*
X137803381Y-68653450D01*
X137808597Y-68674274D01*
X137811747Y-68695509D01*
X137812800Y-68716950D01*
X137812800Y-69154450D01*
X137811747Y-69175891D01*
X137808597Y-69197126D01*
X137803381Y-69217950D01*
X137796149Y-69238162D01*
X137786970Y-69257568D01*
X137775934Y-69275981D01*
X137763146Y-69293224D01*
X137748730Y-69309130D01*
X137732824Y-69323546D01*
X137715581Y-69336334D01*
X137697168Y-69347370D01*
X137677762Y-69356549D01*
X137657550Y-69363781D01*
X137636726Y-69368997D01*
X137615491Y-69372147D01*
X137594050Y-69373200D01*
X137081550Y-69373200D01*
X137060109Y-69372147D01*
X137038874Y-69368997D01*
X137018050Y-69363781D01*
X136997838Y-69356549D01*
X136978432Y-69347370D01*
X136960019Y-69336334D01*
X136942776Y-69323546D01*
X136926870Y-69309130D01*
X136912454Y-69293224D01*
X136899666Y-69275981D01*
X136888630Y-69257568D01*
X136879451Y-69238162D01*
X136872219Y-69217950D01*
X136867003Y-69197126D01*
X136863853Y-69175891D01*
X136862800Y-69154450D01*
X136862800Y-68716950D01*
X136863853Y-68695509D01*
X136867003Y-68674274D01*
X136872219Y-68653450D01*
X136879451Y-68633238D01*
X136888630Y-68613832D01*
X136899666Y-68595419D01*
X136912454Y-68578176D01*
X136926870Y-68562270D01*
X136942776Y-68547854D01*
X136960019Y-68535066D01*
X136978432Y-68524030D01*
X136997838Y-68514851D01*
X137018050Y-68507619D01*
X137038874Y-68502403D01*
X137060109Y-68499253D01*
X137081550Y-68498200D01*
X137594050Y-68498200D01*
X137615491Y-68499253D01*
X137615491Y-68499253D01*
G37*
D11*
X137337800Y-68935700D03*
D10*
G36*
X137615491Y-66924253D02*
X137636726Y-66927403D01*
X137657550Y-66932619D01*
X137677762Y-66939851D01*
X137697168Y-66949030D01*
X137715581Y-66960066D01*
X137732824Y-66972854D01*
X137748730Y-66987270D01*
X137763146Y-67003176D01*
X137775934Y-67020419D01*
X137786970Y-67038832D01*
X137796149Y-67058238D01*
X137803381Y-67078450D01*
X137808597Y-67099274D01*
X137811747Y-67120509D01*
X137812800Y-67141950D01*
X137812800Y-67579450D01*
X137811747Y-67600891D01*
X137808597Y-67622126D01*
X137803381Y-67642950D01*
X137796149Y-67663162D01*
X137786970Y-67682568D01*
X137775934Y-67700981D01*
X137763146Y-67718224D01*
X137748730Y-67734130D01*
X137732824Y-67748546D01*
X137715581Y-67761334D01*
X137697168Y-67772370D01*
X137677762Y-67781549D01*
X137657550Y-67788781D01*
X137636726Y-67793997D01*
X137615491Y-67797147D01*
X137594050Y-67798200D01*
X137081550Y-67798200D01*
X137060109Y-67797147D01*
X137038874Y-67793997D01*
X137018050Y-67788781D01*
X136997838Y-67781549D01*
X136978432Y-67772370D01*
X136960019Y-67761334D01*
X136942776Y-67748546D01*
X136926870Y-67734130D01*
X136912454Y-67718224D01*
X136899666Y-67700981D01*
X136888630Y-67682568D01*
X136879451Y-67663162D01*
X136872219Y-67642950D01*
X136867003Y-67622126D01*
X136863853Y-67600891D01*
X136862800Y-67579450D01*
X136862800Y-67141950D01*
X136863853Y-67120509D01*
X136867003Y-67099274D01*
X136872219Y-67078450D01*
X136879451Y-67058238D01*
X136888630Y-67038832D01*
X136899666Y-67020419D01*
X136912454Y-67003176D01*
X136926870Y-66987270D01*
X136942776Y-66972854D01*
X136960019Y-66960066D01*
X136978432Y-66949030D01*
X136997838Y-66939851D01*
X137018050Y-66932619D01*
X137038874Y-66927403D01*
X137060109Y-66924253D01*
X137081550Y-66923200D01*
X137594050Y-66923200D01*
X137615491Y-66924253D01*
X137615491Y-66924253D01*
G37*
D11*
X137337800Y-67360700D03*
D10*
G36*
X129424691Y-70687709D02*
X129445926Y-70690859D01*
X129466750Y-70696075D01*
X129486962Y-70703307D01*
X129506368Y-70712486D01*
X129524781Y-70723522D01*
X129542024Y-70736310D01*
X129557930Y-70750726D01*
X129572346Y-70766632D01*
X129585134Y-70783875D01*
X129596170Y-70802288D01*
X129605349Y-70821694D01*
X129612581Y-70841906D01*
X129617797Y-70862730D01*
X129620947Y-70883965D01*
X129622000Y-70905406D01*
X129622000Y-71417906D01*
X129620947Y-71439347D01*
X129617797Y-71460582D01*
X129612581Y-71481406D01*
X129605349Y-71501618D01*
X129596170Y-71521024D01*
X129585134Y-71539437D01*
X129572346Y-71556680D01*
X129557930Y-71572586D01*
X129542024Y-71587002D01*
X129524781Y-71599790D01*
X129506368Y-71610826D01*
X129486962Y-71620005D01*
X129466750Y-71627237D01*
X129445926Y-71632453D01*
X129424691Y-71635603D01*
X129403250Y-71636656D01*
X128965750Y-71636656D01*
X128944309Y-71635603D01*
X128923074Y-71632453D01*
X128902250Y-71627237D01*
X128882038Y-71620005D01*
X128862632Y-71610826D01*
X128844219Y-71599790D01*
X128826976Y-71587002D01*
X128811070Y-71572586D01*
X128796654Y-71556680D01*
X128783866Y-71539437D01*
X128772830Y-71521024D01*
X128763651Y-71501618D01*
X128756419Y-71481406D01*
X128751203Y-71460582D01*
X128748053Y-71439347D01*
X128747000Y-71417906D01*
X128747000Y-70905406D01*
X128748053Y-70883965D01*
X128751203Y-70862730D01*
X128756419Y-70841906D01*
X128763651Y-70821694D01*
X128772830Y-70802288D01*
X128783866Y-70783875D01*
X128796654Y-70766632D01*
X128811070Y-70750726D01*
X128826976Y-70736310D01*
X128844219Y-70723522D01*
X128862632Y-70712486D01*
X128882038Y-70703307D01*
X128902250Y-70696075D01*
X128923074Y-70690859D01*
X128944309Y-70687709D01*
X128965750Y-70686656D01*
X129403250Y-70686656D01*
X129424691Y-70687709D01*
X129424691Y-70687709D01*
G37*
D11*
X129184500Y-71161656D03*
D10*
G36*
X127849691Y-70687709D02*
X127870926Y-70690859D01*
X127891750Y-70696075D01*
X127911962Y-70703307D01*
X127931368Y-70712486D01*
X127949781Y-70723522D01*
X127967024Y-70736310D01*
X127982930Y-70750726D01*
X127997346Y-70766632D01*
X128010134Y-70783875D01*
X128021170Y-70802288D01*
X128030349Y-70821694D01*
X128037581Y-70841906D01*
X128042797Y-70862730D01*
X128045947Y-70883965D01*
X128047000Y-70905406D01*
X128047000Y-71417906D01*
X128045947Y-71439347D01*
X128042797Y-71460582D01*
X128037581Y-71481406D01*
X128030349Y-71501618D01*
X128021170Y-71521024D01*
X128010134Y-71539437D01*
X127997346Y-71556680D01*
X127982930Y-71572586D01*
X127967024Y-71587002D01*
X127949781Y-71599790D01*
X127931368Y-71610826D01*
X127911962Y-71620005D01*
X127891750Y-71627237D01*
X127870926Y-71632453D01*
X127849691Y-71635603D01*
X127828250Y-71636656D01*
X127390750Y-71636656D01*
X127369309Y-71635603D01*
X127348074Y-71632453D01*
X127327250Y-71627237D01*
X127307038Y-71620005D01*
X127287632Y-71610826D01*
X127269219Y-71599790D01*
X127251976Y-71587002D01*
X127236070Y-71572586D01*
X127221654Y-71556680D01*
X127208866Y-71539437D01*
X127197830Y-71521024D01*
X127188651Y-71501618D01*
X127181419Y-71481406D01*
X127176203Y-71460582D01*
X127173053Y-71439347D01*
X127172000Y-71417906D01*
X127172000Y-70905406D01*
X127173053Y-70883965D01*
X127176203Y-70862730D01*
X127181419Y-70841906D01*
X127188651Y-70821694D01*
X127197830Y-70802288D01*
X127208866Y-70783875D01*
X127221654Y-70766632D01*
X127236070Y-70750726D01*
X127251976Y-70736310D01*
X127269219Y-70723522D01*
X127287632Y-70712486D01*
X127307038Y-70703307D01*
X127327250Y-70696075D01*
X127348074Y-70690859D01*
X127369309Y-70687709D01*
X127390750Y-70686656D01*
X127828250Y-70686656D01*
X127849691Y-70687709D01*
X127849691Y-70687709D01*
G37*
D11*
X127609500Y-71161656D03*
D10*
G36*
X123455691Y-55660053D02*
X123476926Y-55663203D01*
X123497750Y-55668419D01*
X123517962Y-55675651D01*
X123537368Y-55684830D01*
X123555781Y-55695866D01*
X123573024Y-55708654D01*
X123588930Y-55723070D01*
X123603346Y-55738976D01*
X123616134Y-55756219D01*
X123627170Y-55774632D01*
X123636349Y-55794038D01*
X123643581Y-55814250D01*
X123648797Y-55835074D01*
X123651947Y-55856309D01*
X123653000Y-55877750D01*
X123653000Y-56390250D01*
X123651947Y-56411691D01*
X123648797Y-56432926D01*
X123643581Y-56453750D01*
X123636349Y-56473962D01*
X123627170Y-56493368D01*
X123616134Y-56511781D01*
X123603346Y-56529024D01*
X123588930Y-56544930D01*
X123573024Y-56559346D01*
X123555781Y-56572134D01*
X123537368Y-56583170D01*
X123517962Y-56592349D01*
X123497750Y-56599581D01*
X123476926Y-56604797D01*
X123455691Y-56607947D01*
X123434250Y-56609000D01*
X122996750Y-56609000D01*
X122975309Y-56607947D01*
X122954074Y-56604797D01*
X122933250Y-56599581D01*
X122913038Y-56592349D01*
X122893632Y-56583170D01*
X122875219Y-56572134D01*
X122857976Y-56559346D01*
X122842070Y-56544930D01*
X122827654Y-56529024D01*
X122814866Y-56511781D01*
X122803830Y-56493368D01*
X122794651Y-56473962D01*
X122787419Y-56453750D01*
X122782203Y-56432926D01*
X122779053Y-56411691D01*
X122778000Y-56390250D01*
X122778000Y-55877750D01*
X122779053Y-55856309D01*
X122782203Y-55835074D01*
X122787419Y-55814250D01*
X122794651Y-55794038D01*
X122803830Y-55774632D01*
X122814866Y-55756219D01*
X122827654Y-55738976D01*
X122842070Y-55723070D01*
X122857976Y-55708654D01*
X122875219Y-55695866D01*
X122893632Y-55684830D01*
X122913038Y-55675651D01*
X122933250Y-55668419D01*
X122954074Y-55663203D01*
X122975309Y-55660053D01*
X122996750Y-55659000D01*
X123434250Y-55659000D01*
X123455691Y-55660053D01*
X123455691Y-55660053D01*
G37*
D11*
X123215500Y-56134000D03*
D10*
G36*
X121880691Y-55660053D02*
X121901926Y-55663203D01*
X121922750Y-55668419D01*
X121942962Y-55675651D01*
X121962368Y-55684830D01*
X121980781Y-55695866D01*
X121998024Y-55708654D01*
X122013930Y-55723070D01*
X122028346Y-55738976D01*
X122041134Y-55756219D01*
X122052170Y-55774632D01*
X122061349Y-55794038D01*
X122068581Y-55814250D01*
X122073797Y-55835074D01*
X122076947Y-55856309D01*
X122078000Y-55877750D01*
X122078000Y-56390250D01*
X122076947Y-56411691D01*
X122073797Y-56432926D01*
X122068581Y-56453750D01*
X122061349Y-56473962D01*
X122052170Y-56493368D01*
X122041134Y-56511781D01*
X122028346Y-56529024D01*
X122013930Y-56544930D01*
X121998024Y-56559346D01*
X121980781Y-56572134D01*
X121962368Y-56583170D01*
X121942962Y-56592349D01*
X121922750Y-56599581D01*
X121901926Y-56604797D01*
X121880691Y-56607947D01*
X121859250Y-56609000D01*
X121421750Y-56609000D01*
X121400309Y-56607947D01*
X121379074Y-56604797D01*
X121358250Y-56599581D01*
X121338038Y-56592349D01*
X121318632Y-56583170D01*
X121300219Y-56572134D01*
X121282976Y-56559346D01*
X121267070Y-56544930D01*
X121252654Y-56529024D01*
X121239866Y-56511781D01*
X121228830Y-56493368D01*
X121219651Y-56473962D01*
X121212419Y-56453750D01*
X121207203Y-56432926D01*
X121204053Y-56411691D01*
X121203000Y-56390250D01*
X121203000Y-55877750D01*
X121204053Y-55856309D01*
X121207203Y-55835074D01*
X121212419Y-55814250D01*
X121219651Y-55794038D01*
X121228830Y-55774632D01*
X121239866Y-55756219D01*
X121252654Y-55738976D01*
X121267070Y-55723070D01*
X121282976Y-55708654D01*
X121300219Y-55695866D01*
X121318632Y-55684830D01*
X121338038Y-55675651D01*
X121358250Y-55668419D01*
X121379074Y-55663203D01*
X121400309Y-55660053D01*
X121421750Y-55659000D01*
X121859250Y-55659000D01*
X121880691Y-55660053D01*
X121880691Y-55660053D01*
G37*
D11*
X121640500Y-56134000D03*
D10*
G36*
X113295691Y-53374053D02*
X113316926Y-53377203D01*
X113337750Y-53382419D01*
X113357962Y-53389651D01*
X113377368Y-53398830D01*
X113395781Y-53409866D01*
X113413024Y-53422654D01*
X113428930Y-53437070D01*
X113443346Y-53452976D01*
X113456134Y-53470219D01*
X113467170Y-53488632D01*
X113476349Y-53508038D01*
X113483581Y-53528250D01*
X113488797Y-53549074D01*
X113491947Y-53570309D01*
X113493000Y-53591750D01*
X113493000Y-54104250D01*
X113491947Y-54125691D01*
X113488797Y-54146926D01*
X113483581Y-54167750D01*
X113476349Y-54187962D01*
X113467170Y-54207368D01*
X113456134Y-54225781D01*
X113443346Y-54243024D01*
X113428930Y-54258930D01*
X113413024Y-54273346D01*
X113395781Y-54286134D01*
X113377368Y-54297170D01*
X113357962Y-54306349D01*
X113337750Y-54313581D01*
X113316926Y-54318797D01*
X113295691Y-54321947D01*
X113274250Y-54323000D01*
X112836750Y-54323000D01*
X112815309Y-54321947D01*
X112794074Y-54318797D01*
X112773250Y-54313581D01*
X112753038Y-54306349D01*
X112733632Y-54297170D01*
X112715219Y-54286134D01*
X112697976Y-54273346D01*
X112682070Y-54258930D01*
X112667654Y-54243024D01*
X112654866Y-54225781D01*
X112643830Y-54207368D01*
X112634651Y-54187962D01*
X112627419Y-54167750D01*
X112622203Y-54146926D01*
X112619053Y-54125691D01*
X112618000Y-54104250D01*
X112618000Y-53591750D01*
X112619053Y-53570309D01*
X112622203Y-53549074D01*
X112627419Y-53528250D01*
X112634651Y-53508038D01*
X112643830Y-53488632D01*
X112654866Y-53470219D01*
X112667654Y-53452976D01*
X112682070Y-53437070D01*
X112697976Y-53422654D01*
X112715219Y-53409866D01*
X112733632Y-53398830D01*
X112753038Y-53389651D01*
X112773250Y-53382419D01*
X112794074Y-53377203D01*
X112815309Y-53374053D01*
X112836750Y-53373000D01*
X113274250Y-53373000D01*
X113295691Y-53374053D01*
X113295691Y-53374053D01*
G37*
D11*
X113055500Y-53848000D03*
D10*
G36*
X111720691Y-53374053D02*
X111741926Y-53377203D01*
X111762750Y-53382419D01*
X111782962Y-53389651D01*
X111802368Y-53398830D01*
X111820781Y-53409866D01*
X111838024Y-53422654D01*
X111853930Y-53437070D01*
X111868346Y-53452976D01*
X111881134Y-53470219D01*
X111892170Y-53488632D01*
X111901349Y-53508038D01*
X111908581Y-53528250D01*
X111913797Y-53549074D01*
X111916947Y-53570309D01*
X111918000Y-53591750D01*
X111918000Y-54104250D01*
X111916947Y-54125691D01*
X111913797Y-54146926D01*
X111908581Y-54167750D01*
X111901349Y-54187962D01*
X111892170Y-54207368D01*
X111881134Y-54225781D01*
X111868346Y-54243024D01*
X111853930Y-54258930D01*
X111838024Y-54273346D01*
X111820781Y-54286134D01*
X111802368Y-54297170D01*
X111782962Y-54306349D01*
X111762750Y-54313581D01*
X111741926Y-54318797D01*
X111720691Y-54321947D01*
X111699250Y-54323000D01*
X111261750Y-54323000D01*
X111240309Y-54321947D01*
X111219074Y-54318797D01*
X111198250Y-54313581D01*
X111178038Y-54306349D01*
X111158632Y-54297170D01*
X111140219Y-54286134D01*
X111122976Y-54273346D01*
X111107070Y-54258930D01*
X111092654Y-54243024D01*
X111079866Y-54225781D01*
X111068830Y-54207368D01*
X111059651Y-54187962D01*
X111052419Y-54167750D01*
X111047203Y-54146926D01*
X111044053Y-54125691D01*
X111043000Y-54104250D01*
X111043000Y-53591750D01*
X111044053Y-53570309D01*
X111047203Y-53549074D01*
X111052419Y-53528250D01*
X111059651Y-53508038D01*
X111068830Y-53488632D01*
X111079866Y-53470219D01*
X111092654Y-53452976D01*
X111107070Y-53437070D01*
X111122976Y-53422654D01*
X111140219Y-53409866D01*
X111158632Y-53398830D01*
X111178038Y-53389651D01*
X111198250Y-53382419D01*
X111219074Y-53377203D01*
X111240309Y-53374053D01*
X111261750Y-53373000D01*
X111699250Y-53373000D01*
X111720691Y-53374053D01*
X111720691Y-53374053D01*
G37*
D11*
X111480500Y-53848000D03*
D10*
G36*
X134885691Y-64423053D02*
X134906926Y-64426203D01*
X134927750Y-64431419D01*
X134947962Y-64438651D01*
X134967368Y-64447830D01*
X134985781Y-64458866D01*
X135003024Y-64471654D01*
X135018930Y-64486070D01*
X135033346Y-64501976D01*
X135046134Y-64519219D01*
X135057170Y-64537632D01*
X135066349Y-64557038D01*
X135073581Y-64577250D01*
X135078797Y-64598074D01*
X135081947Y-64619309D01*
X135083000Y-64640750D01*
X135083000Y-65153250D01*
X135081947Y-65174691D01*
X135078797Y-65195926D01*
X135073581Y-65216750D01*
X135066349Y-65236962D01*
X135057170Y-65256368D01*
X135046134Y-65274781D01*
X135033346Y-65292024D01*
X135018930Y-65307930D01*
X135003024Y-65322346D01*
X134985781Y-65335134D01*
X134967368Y-65346170D01*
X134947962Y-65355349D01*
X134927750Y-65362581D01*
X134906926Y-65367797D01*
X134885691Y-65370947D01*
X134864250Y-65372000D01*
X134426750Y-65372000D01*
X134405309Y-65370947D01*
X134384074Y-65367797D01*
X134363250Y-65362581D01*
X134343038Y-65355349D01*
X134323632Y-65346170D01*
X134305219Y-65335134D01*
X134287976Y-65322346D01*
X134272070Y-65307930D01*
X134257654Y-65292024D01*
X134244866Y-65274781D01*
X134233830Y-65256368D01*
X134224651Y-65236962D01*
X134217419Y-65216750D01*
X134212203Y-65195926D01*
X134209053Y-65174691D01*
X134208000Y-65153250D01*
X134208000Y-64640750D01*
X134209053Y-64619309D01*
X134212203Y-64598074D01*
X134217419Y-64577250D01*
X134224651Y-64557038D01*
X134233830Y-64537632D01*
X134244866Y-64519219D01*
X134257654Y-64501976D01*
X134272070Y-64486070D01*
X134287976Y-64471654D01*
X134305219Y-64458866D01*
X134323632Y-64447830D01*
X134343038Y-64438651D01*
X134363250Y-64431419D01*
X134384074Y-64426203D01*
X134405309Y-64423053D01*
X134426750Y-64422000D01*
X134864250Y-64422000D01*
X134885691Y-64423053D01*
X134885691Y-64423053D01*
G37*
D11*
X134645500Y-64897000D03*
D10*
G36*
X133310691Y-64423053D02*
X133331926Y-64426203D01*
X133352750Y-64431419D01*
X133372962Y-64438651D01*
X133392368Y-64447830D01*
X133410781Y-64458866D01*
X133428024Y-64471654D01*
X133443930Y-64486070D01*
X133458346Y-64501976D01*
X133471134Y-64519219D01*
X133482170Y-64537632D01*
X133491349Y-64557038D01*
X133498581Y-64577250D01*
X133503797Y-64598074D01*
X133506947Y-64619309D01*
X133508000Y-64640750D01*
X133508000Y-65153250D01*
X133506947Y-65174691D01*
X133503797Y-65195926D01*
X133498581Y-65216750D01*
X133491349Y-65236962D01*
X133482170Y-65256368D01*
X133471134Y-65274781D01*
X133458346Y-65292024D01*
X133443930Y-65307930D01*
X133428024Y-65322346D01*
X133410781Y-65335134D01*
X133392368Y-65346170D01*
X133372962Y-65355349D01*
X133352750Y-65362581D01*
X133331926Y-65367797D01*
X133310691Y-65370947D01*
X133289250Y-65372000D01*
X132851750Y-65372000D01*
X132830309Y-65370947D01*
X132809074Y-65367797D01*
X132788250Y-65362581D01*
X132768038Y-65355349D01*
X132748632Y-65346170D01*
X132730219Y-65335134D01*
X132712976Y-65322346D01*
X132697070Y-65307930D01*
X132682654Y-65292024D01*
X132669866Y-65274781D01*
X132658830Y-65256368D01*
X132649651Y-65236962D01*
X132642419Y-65216750D01*
X132637203Y-65195926D01*
X132634053Y-65174691D01*
X132633000Y-65153250D01*
X132633000Y-64640750D01*
X132634053Y-64619309D01*
X132637203Y-64598074D01*
X132642419Y-64577250D01*
X132649651Y-64557038D01*
X132658830Y-64537632D01*
X132669866Y-64519219D01*
X132682654Y-64501976D01*
X132697070Y-64486070D01*
X132712976Y-64471654D01*
X132730219Y-64458866D01*
X132748632Y-64447830D01*
X132768038Y-64438651D01*
X132788250Y-64431419D01*
X132809074Y-64426203D01*
X132830309Y-64423053D01*
X132851750Y-64422000D01*
X133289250Y-64422000D01*
X133310691Y-64423053D01*
X133310691Y-64423053D01*
G37*
D11*
X133070500Y-64897000D03*
D14*
X125569000Y-73193656D03*
X127669000Y-73193656D03*
X136872000Y-64008000D03*
X138972000Y-64008000D03*
D10*
G36*
X142759691Y-57946053D02*
X142780926Y-57949203D01*
X142801750Y-57954419D01*
X142821962Y-57961651D01*
X142841368Y-57970830D01*
X142859781Y-57981866D01*
X142877024Y-57994654D01*
X142892930Y-58009070D01*
X142907346Y-58024976D01*
X142920134Y-58042219D01*
X142931170Y-58060632D01*
X142940349Y-58080038D01*
X142947581Y-58100250D01*
X142952797Y-58121074D01*
X142955947Y-58142309D01*
X142957000Y-58163750D01*
X142957000Y-58676250D01*
X142955947Y-58697691D01*
X142952797Y-58718926D01*
X142947581Y-58739750D01*
X142940349Y-58759962D01*
X142931170Y-58779368D01*
X142920134Y-58797781D01*
X142907346Y-58815024D01*
X142892930Y-58830930D01*
X142877024Y-58845346D01*
X142859781Y-58858134D01*
X142841368Y-58869170D01*
X142821962Y-58878349D01*
X142801750Y-58885581D01*
X142780926Y-58890797D01*
X142759691Y-58893947D01*
X142738250Y-58895000D01*
X142300750Y-58895000D01*
X142279309Y-58893947D01*
X142258074Y-58890797D01*
X142237250Y-58885581D01*
X142217038Y-58878349D01*
X142197632Y-58869170D01*
X142179219Y-58858134D01*
X142161976Y-58845346D01*
X142146070Y-58830930D01*
X142131654Y-58815024D01*
X142118866Y-58797781D01*
X142107830Y-58779368D01*
X142098651Y-58759962D01*
X142091419Y-58739750D01*
X142086203Y-58718926D01*
X142083053Y-58697691D01*
X142082000Y-58676250D01*
X142082000Y-58163750D01*
X142083053Y-58142309D01*
X142086203Y-58121074D01*
X142091419Y-58100250D01*
X142098651Y-58080038D01*
X142107830Y-58060632D01*
X142118866Y-58042219D01*
X142131654Y-58024976D01*
X142146070Y-58009070D01*
X142161976Y-57994654D01*
X142179219Y-57981866D01*
X142197632Y-57970830D01*
X142217038Y-57961651D01*
X142237250Y-57954419D01*
X142258074Y-57949203D01*
X142279309Y-57946053D01*
X142300750Y-57945000D01*
X142738250Y-57945000D01*
X142759691Y-57946053D01*
X142759691Y-57946053D01*
G37*
D11*
X142519500Y-58420000D03*
D10*
G36*
X141184691Y-57946053D02*
X141205926Y-57949203D01*
X141226750Y-57954419D01*
X141246962Y-57961651D01*
X141266368Y-57970830D01*
X141284781Y-57981866D01*
X141302024Y-57994654D01*
X141317930Y-58009070D01*
X141332346Y-58024976D01*
X141345134Y-58042219D01*
X141356170Y-58060632D01*
X141365349Y-58080038D01*
X141372581Y-58100250D01*
X141377797Y-58121074D01*
X141380947Y-58142309D01*
X141382000Y-58163750D01*
X141382000Y-58676250D01*
X141380947Y-58697691D01*
X141377797Y-58718926D01*
X141372581Y-58739750D01*
X141365349Y-58759962D01*
X141356170Y-58779368D01*
X141345134Y-58797781D01*
X141332346Y-58815024D01*
X141317930Y-58830930D01*
X141302024Y-58845346D01*
X141284781Y-58858134D01*
X141266368Y-58869170D01*
X141246962Y-58878349D01*
X141226750Y-58885581D01*
X141205926Y-58890797D01*
X141184691Y-58893947D01*
X141163250Y-58895000D01*
X140725750Y-58895000D01*
X140704309Y-58893947D01*
X140683074Y-58890797D01*
X140662250Y-58885581D01*
X140642038Y-58878349D01*
X140622632Y-58869170D01*
X140604219Y-58858134D01*
X140586976Y-58845346D01*
X140571070Y-58830930D01*
X140556654Y-58815024D01*
X140543866Y-58797781D01*
X140532830Y-58779368D01*
X140523651Y-58759962D01*
X140516419Y-58739750D01*
X140511203Y-58718926D01*
X140508053Y-58697691D01*
X140507000Y-58676250D01*
X140507000Y-58163750D01*
X140508053Y-58142309D01*
X140511203Y-58121074D01*
X140516419Y-58100250D01*
X140523651Y-58080038D01*
X140532830Y-58060632D01*
X140543866Y-58042219D01*
X140556654Y-58024976D01*
X140571070Y-58009070D01*
X140586976Y-57994654D01*
X140604219Y-57981866D01*
X140622632Y-57970830D01*
X140642038Y-57961651D01*
X140662250Y-57954419D01*
X140683074Y-57949203D01*
X140704309Y-57946053D01*
X140725750Y-57945000D01*
X141163250Y-57945000D01*
X141184691Y-57946053D01*
X141184691Y-57946053D01*
G37*
D11*
X140944500Y-58420000D03*
D10*
G36*
X123455691Y-58708053D02*
X123476926Y-58711203D01*
X123497750Y-58716419D01*
X123517962Y-58723651D01*
X123537368Y-58732830D01*
X123555781Y-58743866D01*
X123573024Y-58756654D01*
X123588930Y-58771070D01*
X123603346Y-58786976D01*
X123616134Y-58804219D01*
X123627170Y-58822632D01*
X123636349Y-58842038D01*
X123643581Y-58862250D01*
X123648797Y-58883074D01*
X123651947Y-58904309D01*
X123653000Y-58925750D01*
X123653000Y-59438250D01*
X123651947Y-59459691D01*
X123648797Y-59480926D01*
X123643581Y-59501750D01*
X123636349Y-59521962D01*
X123627170Y-59541368D01*
X123616134Y-59559781D01*
X123603346Y-59577024D01*
X123588930Y-59592930D01*
X123573024Y-59607346D01*
X123555781Y-59620134D01*
X123537368Y-59631170D01*
X123517962Y-59640349D01*
X123497750Y-59647581D01*
X123476926Y-59652797D01*
X123455691Y-59655947D01*
X123434250Y-59657000D01*
X122996750Y-59657000D01*
X122975309Y-59655947D01*
X122954074Y-59652797D01*
X122933250Y-59647581D01*
X122913038Y-59640349D01*
X122893632Y-59631170D01*
X122875219Y-59620134D01*
X122857976Y-59607346D01*
X122842070Y-59592930D01*
X122827654Y-59577024D01*
X122814866Y-59559781D01*
X122803830Y-59541368D01*
X122794651Y-59521962D01*
X122787419Y-59501750D01*
X122782203Y-59480926D01*
X122779053Y-59459691D01*
X122778000Y-59438250D01*
X122778000Y-58925750D01*
X122779053Y-58904309D01*
X122782203Y-58883074D01*
X122787419Y-58862250D01*
X122794651Y-58842038D01*
X122803830Y-58822632D01*
X122814866Y-58804219D01*
X122827654Y-58786976D01*
X122842070Y-58771070D01*
X122857976Y-58756654D01*
X122875219Y-58743866D01*
X122893632Y-58732830D01*
X122913038Y-58723651D01*
X122933250Y-58716419D01*
X122954074Y-58711203D01*
X122975309Y-58708053D01*
X122996750Y-58707000D01*
X123434250Y-58707000D01*
X123455691Y-58708053D01*
X123455691Y-58708053D01*
G37*
D11*
X123215500Y-59182000D03*
D10*
G36*
X121880691Y-58708053D02*
X121901926Y-58711203D01*
X121922750Y-58716419D01*
X121942962Y-58723651D01*
X121962368Y-58732830D01*
X121980781Y-58743866D01*
X121998024Y-58756654D01*
X122013930Y-58771070D01*
X122028346Y-58786976D01*
X122041134Y-58804219D01*
X122052170Y-58822632D01*
X122061349Y-58842038D01*
X122068581Y-58862250D01*
X122073797Y-58883074D01*
X122076947Y-58904309D01*
X122078000Y-58925750D01*
X122078000Y-59438250D01*
X122076947Y-59459691D01*
X122073797Y-59480926D01*
X122068581Y-59501750D01*
X122061349Y-59521962D01*
X122052170Y-59541368D01*
X122041134Y-59559781D01*
X122028346Y-59577024D01*
X122013930Y-59592930D01*
X121998024Y-59607346D01*
X121980781Y-59620134D01*
X121962368Y-59631170D01*
X121942962Y-59640349D01*
X121922750Y-59647581D01*
X121901926Y-59652797D01*
X121880691Y-59655947D01*
X121859250Y-59657000D01*
X121421750Y-59657000D01*
X121400309Y-59655947D01*
X121379074Y-59652797D01*
X121358250Y-59647581D01*
X121338038Y-59640349D01*
X121318632Y-59631170D01*
X121300219Y-59620134D01*
X121282976Y-59607346D01*
X121267070Y-59592930D01*
X121252654Y-59577024D01*
X121239866Y-59559781D01*
X121228830Y-59541368D01*
X121219651Y-59521962D01*
X121212419Y-59501750D01*
X121207203Y-59480926D01*
X121204053Y-59459691D01*
X121203000Y-59438250D01*
X121203000Y-58925750D01*
X121204053Y-58904309D01*
X121207203Y-58883074D01*
X121212419Y-58862250D01*
X121219651Y-58842038D01*
X121228830Y-58822632D01*
X121239866Y-58804219D01*
X121252654Y-58786976D01*
X121267070Y-58771070D01*
X121282976Y-58756654D01*
X121300219Y-58743866D01*
X121318632Y-58732830D01*
X121338038Y-58723651D01*
X121358250Y-58716419D01*
X121379074Y-58711203D01*
X121400309Y-58708053D01*
X121421750Y-58707000D01*
X121859250Y-58707000D01*
X121880691Y-58708053D01*
X121880691Y-58708053D01*
G37*
D11*
X121640500Y-59182000D03*
D10*
G36*
X121880691Y-60232053D02*
X121901926Y-60235203D01*
X121922750Y-60240419D01*
X121942962Y-60247651D01*
X121962368Y-60256830D01*
X121980781Y-60267866D01*
X121998024Y-60280654D01*
X122013930Y-60295070D01*
X122028346Y-60310976D01*
X122041134Y-60328219D01*
X122052170Y-60346632D01*
X122061349Y-60366038D01*
X122068581Y-60386250D01*
X122073797Y-60407074D01*
X122076947Y-60428309D01*
X122078000Y-60449750D01*
X122078000Y-60962250D01*
X122076947Y-60983691D01*
X122073797Y-61004926D01*
X122068581Y-61025750D01*
X122061349Y-61045962D01*
X122052170Y-61065368D01*
X122041134Y-61083781D01*
X122028346Y-61101024D01*
X122013930Y-61116930D01*
X121998024Y-61131346D01*
X121980781Y-61144134D01*
X121962368Y-61155170D01*
X121942962Y-61164349D01*
X121922750Y-61171581D01*
X121901926Y-61176797D01*
X121880691Y-61179947D01*
X121859250Y-61181000D01*
X121421750Y-61181000D01*
X121400309Y-61179947D01*
X121379074Y-61176797D01*
X121358250Y-61171581D01*
X121338038Y-61164349D01*
X121318632Y-61155170D01*
X121300219Y-61144134D01*
X121282976Y-61131346D01*
X121267070Y-61116930D01*
X121252654Y-61101024D01*
X121239866Y-61083781D01*
X121228830Y-61065368D01*
X121219651Y-61045962D01*
X121212419Y-61025750D01*
X121207203Y-61004926D01*
X121204053Y-60983691D01*
X121203000Y-60962250D01*
X121203000Y-60449750D01*
X121204053Y-60428309D01*
X121207203Y-60407074D01*
X121212419Y-60386250D01*
X121219651Y-60366038D01*
X121228830Y-60346632D01*
X121239866Y-60328219D01*
X121252654Y-60310976D01*
X121267070Y-60295070D01*
X121282976Y-60280654D01*
X121300219Y-60267866D01*
X121318632Y-60256830D01*
X121338038Y-60247651D01*
X121358250Y-60240419D01*
X121379074Y-60235203D01*
X121400309Y-60232053D01*
X121421750Y-60231000D01*
X121859250Y-60231000D01*
X121880691Y-60232053D01*
X121880691Y-60232053D01*
G37*
D11*
X121640500Y-60706000D03*
D10*
G36*
X123455691Y-60232053D02*
X123476926Y-60235203D01*
X123497750Y-60240419D01*
X123517962Y-60247651D01*
X123537368Y-60256830D01*
X123555781Y-60267866D01*
X123573024Y-60280654D01*
X123588930Y-60295070D01*
X123603346Y-60310976D01*
X123616134Y-60328219D01*
X123627170Y-60346632D01*
X123636349Y-60366038D01*
X123643581Y-60386250D01*
X123648797Y-60407074D01*
X123651947Y-60428309D01*
X123653000Y-60449750D01*
X123653000Y-60962250D01*
X123651947Y-60983691D01*
X123648797Y-61004926D01*
X123643581Y-61025750D01*
X123636349Y-61045962D01*
X123627170Y-61065368D01*
X123616134Y-61083781D01*
X123603346Y-61101024D01*
X123588930Y-61116930D01*
X123573024Y-61131346D01*
X123555781Y-61144134D01*
X123537368Y-61155170D01*
X123517962Y-61164349D01*
X123497750Y-61171581D01*
X123476926Y-61176797D01*
X123455691Y-61179947D01*
X123434250Y-61181000D01*
X122996750Y-61181000D01*
X122975309Y-61179947D01*
X122954074Y-61176797D01*
X122933250Y-61171581D01*
X122913038Y-61164349D01*
X122893632Y-61155170D01*
X122875219Y-61144134D01*
X122857976Y-61131346D01*
X122842070Y-61116930D01*
X122827654Y-61101024D01*
X122814866Y-61083781D01*
X122803830Y-61065368D01*
X122794651Y-61045962D01*
X122787419Y-61025750D01*
X122782203Y-61004926D01*
X122779053Y-60983691D01*
X122778000Y-60962250D01*
X122778000Y-60449750D01*
X122779053Y-60428309D01*
X122782203Y-60407074D01*
X122787419Y-60386250D01*
X122794651Y-60366038D01*
X122803830Y-60346632D01*
X122814866Y-60328219D01*
X122827654Y-60310976D01*
X122842070Y-60295070D01*
X122857976Y-60280654D01*
X122875219Y-60267866D01*
X122893632Y-60256830D01*
X122913038Y-60247651D01*
X122933250Y-60240419D01*
X122954074Y-60235203D01*
X122975309Y-60232053D01*
X122996750Y-60231000D01*
X123434250Y-60231000D01*
X123455691Y-60232053D01*
X123455691Y-60232053D01*
G37*
D11*
X123215500Y-60706000D03*
D10*
G36*
X100163691Y-65693053D02*
X100184926Y-65696203D01*
X100205750Y-65701419D01*
X100225962Y-65708651D01*
X100245368Y-65717830D01*
X100263781Y-65728866D01*
X100281024Y-65741654D01*
X100296930Y-65756070D01*
X100311346Y-65771976D01*
X100324134Y-65789219D01*
X100335170Y-65807632D01*
X100344349Y-65827038D01*
X100351581Y-65847250D01*
X100356797Y-65868074D01*
X100359947Y-65889309D01*
X100361000Y-65910750D01*
X100361000Y-66423250D01*
X100359947Y-66444691D01*
X100356797Y-66465926D01*
X100351581Y-66486750D01*
X100344349Y-66506962D01*
X100335170Y-66526368D01*
X100324134Y-66544781D01*
X100311346Y-66562024D01*
X100296930Y-66577930D01*
X100281024Y-66592346D01*
X100263781Y-66605134D01*
X100245368Y-66616170D01*
X100225962Y-66625349D01*
X100205750Y-66632581D01*
X100184926Y-66637797D01*
X100163691Y-66640947D01*
X100142250Y-66642000D01*
X99704750Y-66642000D01*
X99683309Y-66640947D01*
X99662074Y-66637797D01*
X99641250Y-66632581D01*
X99621038Y-66625349D01*
X99601632Y-66616170D01*
X99583219Y-66605134D01*
X99565976Y-66592346D01*
X99550070Y-66577930D01*
X99535654Y-66562024D01*
X99522866Y-66544781D01*
X99511830Y-66526368D01*
X99502651Y-66506962D01*
X99495419Y-66486750D01*
X99490203Y-66465926D01*
X99487053Y-66444691D01*
X99486000Y-66423250D01*
X99486000Y-65910750D01*
X99487053Y-65889309D01*
X99490203Y-65868074D01*
X99495419Y-65847250D01*
X99502651Y-65827038D01*
X99511830Y-65807632D01*
X99522866Y-65789219D01*
X99535654Y-65771976D01*
X99550070Y-65756070D01*
X99565976Y-65741654D01*
X99583219Y-65728866D01*
X99601632Y-65717830D01*
X99621038Y-65708651D01*
X99641250Y-65701419D01*
X99662074Y-65696203D01*
X99683309Y-65693053D01*
X99704750Y-65692000D01*
X100142250Y-65692000D01*
X100163691Y-65693053D01*
X100163691Y-65693053D01*
G37*
D11*
X99923500Y-66167000D03*
D10*
G36*
X101738691Y-65693053D02*
X101759926Y-65696203D01*
X101780750Y-65701419D01*
X101800962Y-65708651D01*
X101820368Y-65717830D01*
X101838781Y-65728866D01*
X101856024Y-65741654D01*
X101871930Y-65756070D01*
X101886346Y-65771976D01*
X101899134Y-65789219D01*
X101910170Y-65807632D01*
X101919349Y-65827038D01*
X101926581Y-65847250D01*
X101931797Y-65868074D01*
X101934947Y-65889309D01*
X101936000Y-65910750D01*
X101936000Y-66423250D01*
X101934947Y-66444691D01*
X101931797Y-66465926D01*
X101926581Y-66486750D01*
X101919349Y-66506962D01*
X101910170Y-66526368D01*
X101899134Y-66544781D01*
X101886346Y-66562024D01*
X101871930Y-66577930D01*
X101856024Y-66592346D01*
X101838781Y-66605134D01*
X101820368Y-66616170D01*
X101800962Y-66625349D01*
X101780750Y-66632581D01*
X101759926Y-66637797D01*
X101738691Y-66640947D01*
X101717250Y-66642000D01*
X101279750Y-66642000D01*
X101258309Y-66640947D01*
X101237074Y-66637797D01*
X101216250Y-66632581D01*
X101196038Y-66625349D01*
X101176632Y-66616170D01*
X101158219Y-66605134D01*
X101140976Y-66592346D01*
X101125070Y-66577930D01*
X101110654Y-66562024D01*
X101097866Y-66544781D01*
X101086830Y-66526368D01*
X101077651Y-66506962D01*
X101070419Y-66486750D01*
X101065203Y-66465926D01*
X101062053Y-66444691D01*
X101061000Y-66423250D01*
X101061000Y-65910750D01*
X101062053Y-65889309D01*
X101065203Y-65868074D01*
X101070419Y-65847250D01*
X101077651Y-65827038D01*
X101086830Y-65807632D01*
X101097866Y-65789219D01*
X101110654Y-65771976D01*
X101125070Y-65756070D01*
X101140976Y-65741654D01*
X101158219Y-65728866D01*
X101176632Y-65717830D01*
X101196038Y-65708651D01*
X101216250Y-65701419D01*
X101237074Y-65696203D01*
X101258309Y-65693053D01*
X101279750Y-65692000D01*
X101717250Y-65692000D01*
X101738691Y-65693053D01*
X101738691Y-65693053D01*
G37*
D11*
X101498500Y-66167000D03*
D10*
G36*
X125614691Y-70687709D02*
X125635926Y-70690859D01*
X125656750Y-70696075D01*
X125676962Y-70703307D01*
X125696368Y-70712486D01*
X125714781Y-70723522D01*
X125732024Y-70736310D01*
X125747930Y-70750726D01*
X125762346Y-70766632D01*
X125775134Y-70783875D01*
X125786170Y-70802288D01*
X125795349Y-70821694D01*
X125802581Y-70841906D01*
X125807797Y-70862730D01*
X125810947Y-70883965D01*
X125812000Y-70905406D01*
X125812000Y-71417906D01*
X125810947Y-71439347D01*
X125807797Y-71460582D01*
X125802581Y-71481406D01*
X125795349Y-71501618D01*
X125786170Y-71521024D01*
X125775134Y-71539437D01*
X125762346Y-71556680D01*
X125747930Y-71572586D01*
X125732024Y-71587002D01*
X125714781Y-71599790D01*
X125696368Y-71610826D01*
X125676962Y-71620005D01*
X125656750Y-71627237D01*
X125635926Y-71632453D01*
X125614691Y-71635603D01*
X125593250Y-71636656D01*
X125155750Y-71636656D01*
X125134309Y-71635603D01*
X125113074Y-71632453D01*
X125092250Y-71627237D01*
X125072038Y-71620005D01*
X125052632Y-71610826D01*
X125034219Y-71599790D01*
X125016976Y-71587002D01*
X125001070Y-71572586D01*
X124986654Y-71556680D01*
X124973866Y-71539437D01*
X124962830Y-71521024D01*
X124953651Y-71501618D01*
X124946419Y-71481406D01*
X124941203Y-71460582D01*
X124938053Y-71439347D01*
X124937000Y-71417906D01*
X124937000Y-70905406D01*
X124938053Y-70883965D01*
X124941203Y-70862730D01*
X124946419Y-70841906D01*
X124953651Y-70821694D01*
X124962830Y-70802288D01*
X124973866Y-70783875D01*
X124986654Y-70766632D01*
X125001070Y-70750726D01*
X125016976Y-70736310D01*
X125034219Y-70723522D01*
X125052632Y-70712486D01*
X125072038Y-70703307D01*
X125092250Y-70696075D01*
X125113074Y-70690859D01*
X125134309Y-70687709D01*
X125155750Y-70686656D01*
X125593250Y-70686656D01*
X125614691Y-70687709D01*
X125614691Y-70687709D01*
G37*
D11*
X125374500Y-71161656D03*
D10*
G36*
X124039691Y-70687709D02*
X124060926Y-70690859D01*
X124081750Y-70696075D01*
X124101962Y-70703307D01*
X124121368Y-70712486D01*
X124139781Y-70723522D01*
X124157024Y-70736310D01*
X124172930Y-70750726D01*
X124187346Y-70766632D01*
X124200134Y-70783875D01*
X124211170Y-70802288D01*
X124220349Y-70821694D01*
X124227581Y-70841906D01*
X124232797Y-70862730D01*
X124235947Y-70883965D01*
X124237000Y-70905406D01*
X124237000Y-71417906D01*
X124235947Y-71439347D01*
X124232797Y-71460582D01*
X124227581Y-71481406D01*
X124220349Y-71501618D01*
X124211170Y-71521024D01*
X124200134Y-71539437D01*
X124187346Y-71556680D01*
X124172930Y-71572586D01*
X124157024Y-71587002D01*
X124139781Y-71599790D01*
X124121368Y-71610826D01*
X124101962Y-71620005D01*
X124081750Y-71627237D01*
X124060926Y-71632453D01*
X124039691Y-71635603D01*
X124018250Y-71636656D01*
X123580750Y-71636656D01*
X123559309Y-71635603D01*
X123538074Y-71632453D01*
X123517250Y-71627237D01*
X123497038Y-71620005D01*
X123477632Y-71610826D01*
X123459219Y-71599790D01*
X123441976Y-71587002D01*
X123426070Y-71572586D01*
X123411654Y-71556680D01*
X123398866Y-71539437D01*
X123387830Y-71521024D01*
X123378651Y-71501618D01*
X123371419Y-71481406D01*
X123366203Y-71460582D01*
X123363053Y-71439347D01*
X123362000Y-71417906D01*
X123362000Y-70905406D01*
X123363053Y-70883965D01*
X123366203Y-70862730D01*
X123371419Y-70841906D01*
X123378651Y-70821694D01*
X123387830Y-70802288D01*
X123398866Y-70783875D01*
X123411654Y-70766632D01*
X123426070Y-70750726D01*
X123441976Y-70736310D01*
X123459219Y-70723522D01*
X123477632Y-70712486D01*
X123497038Y-70703307D01*
X123517250Y-70696075D01*
X123538074Y-70690859D01*
X123559309Y-70687709D01*
X123580750Y-70686656D01*
X124018250Y-70686656D01*
X124039691Y-70687709D01*
X124039691Y-70687709D01*
G37*
D11*
X123799500Y-71161656D03*
D15*
X131650000Y-51422000D03*
X133350000Y-51422000D03*
X135050000Y-51422000D03*
X135050000Y-46622000D03*
X133350000Y-46622000D03*
X131650000Y-46622000D03*
D10*
G36*
X130319504Y-56010204D02*
X130343773Y-56013804D01*
X130367571Y-56019765D01*
X130390671Y-56028030D01*
X130412849Y-56038520D01*
X130433893Y-56051133D01*
X130453598Y-56065747D01*
X130471777Y-56082223D01*
X130488253Y-56100402D01*
X130502867Y-56120107D01*
X130515480Y-56141151D01*
X130525970Y-56163329D01*
X130534235Y-56186429D01*
X130540196Y-56210227D01*
X130543796Y-56234496D01*
X130545000Y-56259000D01*
X130545000Y-56889000D01*
X130543796Y-56913504D01*
X130540196Y-56937773D01*
X130534235Y-56961571D01*
X130525970Y-56984671D01*
X130515480Y-57006849D01*
X130502867Y-57027893D01*
X130488253Y-57047598D01*
X130471777Y-57065777D01*
X130453598Y-57082253D01*
X130433893Y-57096867D01*
X130412849Y-57109480D01*
X130390671Y-57119970D01*
X130367571Y-57128235D01*
X130343773Y-57134196D01*
X130319504Y-57137796D01*
X130295000Y-57139000D01*
X129665000Y-57139000D01*
X129640496Y-57137796D01*
X129616227Y-57134196D01*
X129592429Y-57128235D01*
X129569329Y-57119970D01*
X129547151Y-57109480D01*
X129526107Y-57096867D01*
X129506402Y-57082253D01*
X129488223Y-57065777D01*
X129471747Y-57047598D01*
X129457133Y-57027893D01*
X129444520Y-57006849D01*
X129434030Y-56984671D01*
X129425765Y-56961571D01*
X129419804Y-56937773D01*
X129416204Y-56913504D01*
X129415000Y-56889000D01*
X129415000Y-56259000D01*
X129416204Y-56234496D01*
X129419804Y-56210227D01*
X129425765Y-56186429D01*
X129434030Y-56163329D01*
X129444520Y-56141151D01*
X129457133Y-56120107D01*
X129471747Y-56100402D01*
X129488223Y-56082223D01*
X129506402Y-56065747D01*
X129526107Y-56051133D01*
X129547151Y-56038520D01*
X129569329Y-56028030D01*
X129592429Y-56019765D01*
X129616227Y-56013804D01*
X129640496Y-56010204D01*
X129665000Y-56009000D01*
X130295000Y-56009000D01*
X130319504Y-56010204D01*
X130319504Y-56010204D01*
G37*
D16*
X129980000Y-56574000D03*
D10*
G36*
X130319504Y-57410204D02*
X130343773Y-57413804D01*
X130367571Y-57419765D01*
X130390671Y-57428030D01*
X130412849Y-57438520D01*
X130433893Y-57451133D01*
X130453598Y-57465747D01*
X130471777Y-57482223D01*
X130488253Y-57500402D01*
X130502867Y-57520107D01*
X130515480Y-57541151D01*
X130525970Y-57563329D01*
X130534235Y-57586429D01*
X130540196Y-57610227D01*
X130543796Y-57634496D01*
X130545000Y-57659000D01*
X130545000Y-58289000D01*
X130543796Y-58313504D01*
X130540196Y-58337773D01*
X130534235Y-58361571D01*
X130525970Y-58384671D01*
X130515480Y-58406849D01*
X130502867Y-58427893D01*
X130488253Y-58447598D01*
X130471777Y-58465777D01*
X130453598Y-58482253D01*
X130433893Y-58496867D01*
X130412849Y-58509480D01*
X130390671Y-58519970D01*
X130367571Y-58528235D01*
X130343773Y-58534196D01*
X130319504Y-58537796D01*
X130295000Y-58539000D01*
X129665000Y-58539000D01*
X129640496Y-58537796D01*
X129616227Y-58534196D01*
X129592429Y-58528235D01*
X129569329Y-58519970D01*
X129547151Y-58509480D01*
X129526107Y-58496867D01*
X129506402Y-58482253D01*
X129488223Y-58465777D01*
X129471747Y-58447598D01*
X129457133Y-58427893D01*
X129444520Y-58406849D01*
X129434030Y-58384671D01*
X129425765Y-58361571D01*
X129419804Y-58337773D01*
X129416204Y-58313504D01*
X129415000Y-58289000D01*
X129415000Y-57659000D01*
X129416204Y-57634496D01*
X129419804Y-57610227D01*
X129425765Y-57586429D01*
X129434030Y-57563329D01*
X129444520Y-57541151D01*
X129457133Y-57520107D01*
X129471747Y-57500402D01*
X129488223Y-57482223D01*
X129506402Y-57465747D01*
X129526107Y-57451133D01*
X129547151Y-57438520D01*
X129569329Y-57428030D01*
X129592429Y-57419765D01*
X129616227Y-57413804D01*
X129640496Y-57410204D01*
X129665000Y-57409000D01*
X130295000Y-57409000D01*
X130319504Y-57410204D01*
X130319504Y-57410204D01*
G37*
D16*
X129980000Y-57974000D03*
D10*
G36*
X130319504Y-58810204D02*
X130343773Y-58813804D01*
X130367571Y-58819765D01*
X130390671Y-58828030D01*
X130412849Y-58838520D01*
X130433893Y-58851133D01*
X130453598Y-58865747D01*
X130471777Y-58882223D01*
X130488253Y-58900402D01*
X130502867Y-58920107D01*
X130515480Y-58941151D01*
X130525970Y-58963329D01*
X130534235Y-58986429D01*
X130540196Y-59010227D01*
X130543796Y-59034496D01*
X130545000Y-59059000D01*
X130545000Y-59689000D01*
X130543796Y-59713504D01*
X130540196Y-59737773D01*
X130534235Y-59761571D01*
X130525970Y-59784671D01*
X130515480Y-59806849D01*
X130502867Y-59827893D01*
X130488253Y-59847598D01*
X130471777Y-59865777D01*
X130453598Y-59882253D01*
X130433893Y-59896867D01*
X130412849Y-59909480D01*
X130390671Y-59919970D01*
X130367571Y-59928235D01*
X130343773Y-59934196D01*
X130319504Y-59937796D01*
X130295000Y-59939000D01*
X129665000Y-59939000D01*
X129640496Y-59937796D01*
X129616227Y-59934196D01*
X129592429Y-59928235D01*
X129569329Y-59919970D01*
X129547151Y-59909480D01*
X129526107Y-59896867D01*
X129506402Y-59882253D01*
X129488223Y-59865777D01*
X129471747Y-59847598D01*
X129457133Y-59827893D01*
X129444520Y-59806849D01*
X129434030Y-59784671D01*
X129425765Y-59761571D01*
X129419804Y-59737773D01*
X129416204Y-59713504D01*
X129415000Y-59689000D01*
X129415000Y-59059000D01*
X129416204Y-59034496D01*
X129419804Y-59010227D01*
X129425765Y-58986429D01*
X129434030Y-58963329D01*
X129444520Y-58941151D01*
X129457133Y-58920107D01*
X129471747Y-58900402D01*
X129488223Y-58882223D01*
X129506402Y-58865747D01*
X129526107Y-58851133D01*
X129547151Y-58838520D01*
X129569329Y-58828030D01*
X129592429Y-58819765D01*
X129616227Y-58813804D01*
X129640496Y-58810204D01*
X129665000Y-58809000D01*
X130295000Y-58809000D01*
X130319504Y-58810204D01*
X130319504Y-58810204D01*
G37*
D16*
X129980000Y-59374000D03*
D10*
G36*
X130319504Y-60210204D02*
X130343773Y-60213804D01*
X130367571Y-60219765D01*
X130390671Y-60228030D01*
X130412849Y-60238520D01*
X130433893Y-60251133D01*
X130453598Y-60265747D01*
X130471777Y-60282223D01*
X130488253Y-60300402D01*
X130502867Y-60320107D01*
X130515480Y-60341151D01*
X130525970Y-60363329D01*
X130534235Y-60386429D01*
X130540196Y-60410227D01*
X130543796Y-60434496D01*
X130545000Y-60459000D01*
X130545000Y-61089000D01*
X130543796Y-61113504D01*
X130540196Y-61137773D01*
X130534235Y-61161571D01*
X130525970Y-61184671D01*
X130515480Y-61206849D01*
X130502867Y-61227893D01*
X130488253Y-61247598D01*
X130471777Y-61265777D01*
X130453598Y-61282253D01*
X130433893Y-61296867D01*
X130412849Y-61309480D01*
X130390671Y-61319970D01*
X130367571Y-61328235D01*
X130343773Y-61334196D01*
X130319504Y-61337796D01*
X130295000Y-61339000D01*
X129665000Y-61339000D01*
X129640496Y-61337796D01*
X129616227Y-61334196D01*
X129592429Y-61328235D01*
X129569329Y-61319970D01*
X129547151Y-61309480D01*
X129526107Y-61296867D01*
X129506402Y-61282253D01*
X129488223Y-61265777D01*
X129471747Y-61247598D01*
X129457133Y-61227893D01*
X129444520Y-61206849D01*
X129434030Y-61184671D01*
X129425765Y-61161571D01*
X129419804Y-61137773D01*
X129416204Y-61113504D01*
X129415000Y-61089000D01*
X129415000Y-60459000D01*
X129416204Y-60434496D01*
X129419804Y-60410227D01*
X129425765Y-60386429D01*
X129434030Y-60363329D01*
X129444520Y-60341151D01*
X129457133Y-60320107D01*
X129471747Y-60300402D01*
X129488223Y-60282223D01*
X129506402Y-60265747D01*
X129526107Y-60251133D01*
X129547151Y-60238520D01*
X129569329Y-60228030D01*
X129592429Y-60219765D01*
X129616227Y-60213804D01*
X129640496Y-60210204D01*
X129665000Y-60209000D01*
X130295000Y-60209000D01*
X130319504Y-60210204D01*
X130319504Y-60210204D01*
G37*
D16*
X129980000Y-60774000D03*
D10*
G36*
X131719504Y-56010204D02*
X131743773Y-56013804D01*
X131767571Y-56019765D01*
X131790671Y-56028030D01*
X131812849Y-56038520D01*
X131833893Y-56051133D01*
X131853598Y-56065747D01*
X131871777Y-56082223D01*
X131888253Y-56100402D01*
X131902867Y-56120107D01*
X131915480Y-56141151D01*
X131925970Y-56163329D01*
X131934235Y-56186429D01*
X131940196Y-56210227D01*
X131943796Y-56234496D01*
X131945000Y-56259000D01*
X131945000Y-56889000D01*
X131943796Y-56913504D01*
X131940196Y-56937773D01*
X131934235Y-56961571D01*
X131925970Y-56984671D01*
X131915480Y-57006849D01*
X131902867Y-57027893D01*
X131888253Y-57047598D01*
X131871777Y-57065777D01*
X131853598Y-57082253D01*
X131833893Y-57096867D01*
X131812849Y-57109480D01*
X131790671Y-57119970D01*
X131767571Y-57128235D01*
X131743773Y-57134196D01*
X131719504Y-57137796D01*
X131695000Y-57139000D01*
X131065000Y-57139000D01*
X131040496Y-57137796D01*
X131016227Y-57134196D01*
X130992429Y-57128235D01*
X130969329Y-57119970D01*
X130947151Y-57109480D01*
X130926107Y-57096867D01*
X130906402Y-57082253D01*
X130888223Y-57065777D01*
X130871747Y-57047598D01*
X130857133Y-57027893D01*
X130844520Y-57006849D01*
X130834030Y-56984671D01*
X130825765Y-56961571D01*
X130819804Y-56937773D01*
X130816204Y-56913504D01*
X130815000Y-56889000D01*
X130815000Y-56259000D01*
X130816204Y-56234496D01*
X130819804Y-56210227D01*
X130825765Y-56186429D01*
X130834030Y-56163329D01*
X130844520Y-56141151D01*
X130857133Y-56120107D01*
X130871747Y-56100402D01*
X130888223Y-56082223D01*
X130906402Y-56065747D01*
X130926107Y-56051133D01*
X130947151Y-56038520D01*
X130969329Y-56028030D01*
X130992429Y-56019765D01*
X131016227Y-56013804D01*
X131040496Y-56010204D01*
X131065000Y-56009000D01*
X131695000Y-56009000D01*
X131719504Y-56010204D01*
X131719504Y-56010204D01*
G37*
D16*
X131380000Y-56574000D03*
D10*
G36*
X131719504Y-57410204D02*
X131743773Y-57413804D01*
X131767571Y-57419765D01*
X131790671Y-57428030D01*
X131812849Y-57438520D01*
X131833893Y-57451133D01*
X131853598Y-57465747D01*
X131871777Y-57482223D01*
X131888253Y-57500402D01*
X131902867Y-57520107D01*
X131915480Y-57541151D01*
X131925970Y-57563329D01*
X131934235Y-57586429D01*
X131940196Y-57610227D01*
X131943796Y-57634496D01*
X131945000Y-57659000D01*
X131945000Y-58289000D01*
X131943796Y-58313504D01*
X131940196Y-58337773D01*
X131934235Y-58361571D01*
X131925970Y-58384671D01*
X131915480Y-58406849D01*
X131902867Y-58427893D01*
X131888253Y-58447598D01*
X131871777Y-58465777D01*
X131853598Y-58482253D01*
X131833893Y-58496867D01*
X131812849Y-58509480D01*
X131790671Y-58519970D01*
X131767571Y-58528235D01*
X131743773Y-58534196D01*
X131719504Y-58537796D01*
X131695000Y-58539000D01*
X131065000Y-58539000D01*
X131040496Y-58537796D01*
X131016227Y-58534196D01*
X130992429Y-58528235D01*
X130969329Y-58519970D01*
X130947151Y-58509480D01*
X130926107Y-58496867D01*
X130906402Y-58482253D01*
X130888223Y-58465777D01*
X130871747Y-58447598D01*
X130857133Y-58427893D01*
X130844520Y-58406849D01*
X130834030Y-58384671D01*
X130825765Y-58361571D01*
X130819804Y-58337773D01*
X130816204Y-58313504D01*
X130815000Y-58289000D01*
X130815000Y-57659000D01*
X130816204Y-57634496D01*
X130819804Y-57610227D01*
X130825765Y-57586429D01*
X130834030Y-57563329D01*
X130844520Y-57541151D01*
X130857133Y-57520107D01*
X130871747Y-57500402D01*
X130888223Y-57482223D01*
X130906402Y-57465747D01*
X130926107Y-57451133D01*
X130947151Y-57438520D01*
X130969329Y-57428030D01*
X130992429Y-57419765D01*
X131016227Y-57413804D01*
X131040496Y-57410204D01*
X131065000Y-57409000D01*
X131695000Y-57409000D01*
X131719504Y-57410204D01*
X131719504Y-57410204D01*
G37*
D16*
X131380000Y-57974000D03*
D10*
G36*
X131719504Y-58810204D02*
X131743773Y-58813804D01*
X131767571Y-58819765D01*
X131790671Y-58828030D01*
X131812849Y-58838520D01*
X131833893Y-58851133D01*
X131853598Y-58865747D01*
X131871777Y-58882223D01*
X131888253Y-58900402D01*
X131902867Y-58920107D01*
X131915480Y-58941151D01*
X131925970Y-58963329D01*
X131934235Y-58986429D01*
X131940196Y-59010227D01*
X131943796Y-59034496D01*
X131945000Y-59059000D01*
X131945000Y-59689000D01*
X131943796Y-59713504D01*
X131940196Y-59737773D01*
X131934235Y-59761571D01*
X131925970Y-59784671D01*
X131915480Y-59806849D01*
X131902867Y-59827893D01*
X131888253Y-59847598D01*
X131871777Y-59865777D01*
X131853598Y-59882253D01*
X131833893Y-59896867D01*
X131812849Y-59909480D01*
X131790671Y-59919970D01*
X131767571Y-59928235D01*
X131743773Y-59934196D01*
X131719504Y-59937796D01*
X131695000Y-59939000D01*
X131065000Y-59939000D01*
X131040496Y-59937796D01*
X131016227Y-59934196D01*
X130992429Y-59928235D01*
X130969329Y-59919970D01*
X130947151Y-59909480D01*
X130926107Y-59896867D01*
X130906402Y-59882253D01*
X130888223Y-59865777D01*
X130871747Y-59847598D01*
X130857133Y-59827893D01*
X130844520Y-59806849D01*
X130834030Y-59784671D01*
X130825765Y-59761571D01*
X130819804Y-59737773D01*
X130816204Y-59713504D01*
X130815000Y-59689000D01*
X130815000Y-59059000D01*
X130816204Y-59034496D01*
X130819804Y-59010227D01*
X130825765Y-58986429D01*
X130834030Y-58963329D01*
X130844520Y-58941151D01*
X130857133Y-58920107D01*
X130871747Y-58900402D01*
X130888223Y-58882223D01*
X130906402Y-58865747D01*
X130926107Y-58851133D01*
X130947151Y-58838520D01*
X130969329Y-58828030D01*
X130992429Y-58819765D01*
X131016227Y-58813804D01*
X131040496Y-58810204D01*
X131065000Y-58809000D01*
X131695000Y-58809000D01*
X131719504Y-58810204D01*
X131719504Y-58810204D01*
G37*
D16*
X131380000Y-59374000D03*
D10*
G36*
X131719504Y-60210204D02*
X131743773Y-60213804D01*
X131767571Y-60219765D01*
X131790671Y-60228030D01*
X131812849Y-60238520D01*
X131833893Y-60251133D01*
X131853598Y-60265747D01*
X131871777Y-60282223D01*
X131888253Y-60300402D01*
X131902867Y-60320107D01*
X131915480Y-60341151D01*
X131925970Y-60363329D01*
X131934235Y-60386429D01*
X131940196Y-60410227D01*
X131943796Y-60434496D01*
X131945000Y-60459000D01*
X131945000Y-61089000D01*
X131943796Y-61113504D01*
X131940196Y-61137773D01*
X131934235Y-61161571D01*
X131925970Y-61184671D01*
X131915480Y-61206849D01*
X131902867Y-61227893D01*
X131888253Y-61247598D01*
X131871777Y-61265777D01*
X131853598Y-61282253D01*
X131833893Y-61296867D01*
X131812849Y-61309480D01*
X131790671Y-61319970D01*
X131767571Y-61328235D01*
X131743773Y-61334196D01*
X131719504Y-61337796D01*
X131695000Y-61339000D01*
X131065000Y-61339000D01*
X131040496Y-61337796D01*
X131016227Y-61334196D01*
X130992429Y-61328235D01*
X130969329Y-61319970D01*
X130947151Y-61309480D01*
X130926107Y-61296867D01*
X130906402Y-61282253D01*
X130888223Y-61265777D01*
X130871747Y-61247598D01*
X130857133Y-61227893D01*
X130844520Y-61206849D01*
X130834030Y-61184671D01*
X130825765Y-61161571D01*
X130819804Y-61137773D01*
X130816204Y-61113504D01*
X130815000Y-61089000D01*
X130815000Y-60459000D01*
X130816204Y-60434496D01*
X130819804Y-60410227D01*
X130825765Y-60386429D01*
X130834030Y-60363329D01*
X130844520Y-60341151D01*
X130857133Y-60320107D01*
X130871747Y-60300402D01*
X130888223Y-60282223D01*
X130906402Y-60265747D01*
X130926107Y-60251133D01*
X130947151Y-60238520D01*
X130969329Y-60228030D01*
X130992429Y-60219765D01*
X131016227Y-60213804D01*
X131040496Y-60210204D01*
X131065000Y-60209000D01*
X131695000Y-60209000D01*
X131719504Y-60210204D01*
X131719504Y-60210204D01*
G37*
D16*
X131380000Y-60774000D03*
D10*
G36*
X133119504Y-56010204D02*
X133143773Y-56013804D01*
X133167571Y-56019765D01*
X133190671Y-56028030D01*
X133212849Y-56038520D01*
X133233893Y-56051133D01*
X133253598Y-56065747D01*
X133271777Y-56082223D01*
X133288253Y-56100402D01*
X133302867Y-56120107D01*
X133315480Y-56141151D01*
X133325970Y-56163329D01*
X133334235Y-56186429D01*
X133340196Y-56210227D01*
X133343796Y-56234496D01*
X133345000Y-56259000D01*
X133345000Y-56889000D01*
X133343796Y-56913504D01*
X133340196Y-56937773D01*
X133334235Y-56961571D01*
X133325970Y-56984671D01*
X133315480Y-57006849D01*
X133302867Y-57027893D01*
X133288253Y-57047598D01*
X133271777Y-57065777D01*
X133253598Y-57082253D01*
X133233893Y-57096867D01*
X133212849Y-57109480D01*
X133190671Y-57119970D01*
X133167571Y-57128235D01*
X133143773Y-57134196D01*
X133119504Y-57137796D01*
X133095000Y-57139000D01*
X132465000Y-57139000D01*
X132440496Y-57137796D01*
X132416227Y-57134196D01*
X132392429Y-57128235D01*
X132369329Y-57119970D01*
X132347151Y-57109480D01*
X132326107Y-57096867D01*
X132306402Y-57082253D01*
X132288223Y-57065777D01*
X132271747Y-57047598D01*
X132257133Y-57027893D01*
X132244520Y-57006849D01*
X132234030Y-56984671D01*
X132225765Y-56961571D01*
X132219804Y-56937773D01*
X132216204Y-56913504D01*
X132215000Y-56889000D01*
X132215000Y-56259000D01*
X132216204Y-56234496D01*
X132219804Y-56210227D01*
X132225765Y-56186429D01*
X132234030Y-56163329D01*
X132244520Y-56141151D01*
X132257133Y-56120107D01*
X132271747Y-56100402D01*
X132288223Y-56082223D01*
X132306402Y-56065747D01*
X132326107Y-56051133D01*
X132347151Y-56038520D01*
X132369329Y-56028030D01*
X132392429Y-56019765D01*
X132416227Y-56013804D01*
X132440496Y-56010204D01*
X132465000Y-56009000D01*
X133095000Y-56009000D01*
X133119504Y-56010204D01*
X133119504Y-56010204D01*
G37*
D16*
X132780000Y-56574000D03*
D10*
G36*
X133119504Y-57410204D02*
X133143773Y-57413804D01*
X133167571Y-57419765D01*
X133190671Y-57428030D01*
X133212849Y-57438520D01*
X133233893Y-57451133D01*
X133253598Y-57465747D01*
X133271777Y-57482223D01*
X133288253Y-57500402D01*
X133302867Y-57520107D01*
X133315480Y-57541151D01*
X133325970Y-57563329D01*
X133334235Y-57586429D01*
X133340196Y-57610227D01*
X133343796Y-57634496D01*
X133345000Y-57659000D01*
X133345000Y-58289000D01*
X133343796Y-58313504D01*
X133340196Y-58337773D01*
X133334235Y-58361571D01*
X133325970Y-58384671D01*
X133315480Y-58406849D01*
X133302867Y-58427893D01*
X133288253Y-58447598D01*
X133271777Y-58465777D01*
X133253598Y-58482253D01*
X133233893Y-58496867D01*
X133212849Y-58509480D01*
X133190671Y-58519970D01*
X133167571Y-58528235D01*
X133143773Y-58534196D01*
X133119504Y-58537796D01*
X133095000Y-58539000D01*
X132465000Y-58539000D01*
X132440496Y-58537796D01*
X132416227Y-58534196D01*
X132392429Y-58528235D01*
X132369329Y-58519970D01*
X132347151Y-58509480D01*
X132326107Y-58496867D01*
X132306402Y-58482253D01*
X132288223Y-58465777D01*
X132271747Y-58447598D01*
X132257133Y-58427893D01*
X132244520Y-58406849D01*
X132234030Y-58384671D01*
X132225765Y-58361571D01*
X132219804Y-58337773D01*
X132216204Y-58313504D01*
X132215000Y-58289000D01*
X132215000Y-57659000D01*
X132216204Y-57634496D01*
X132219804Y-57610227D01*
X132225765Y-57586429D01*
X132234030Y-57563329D01*
X132244520Y-57541151D01*
X132257133Y-57520107D01*
X132271747Y-57500402D01*
X132288223Y-57482223D01*
X132306402Y-57465747D01*
X132326107Y-57451133D01*
X132347151Y-57438520D01*
X132369329Y-57428030D01*
X132392429Y-57419765D01*
X132416227Y-57413804D01*
X132440496Y-57410204D01*
X132465000Y-57409000D01*
X133095000Y-57409000D01*
X133119504Y-57410204D01*
X133119504Y-57410204D01*
G37*
D16*
X132780000Y-57974000D03*
D10*
G36*
X133119504Y-58810204D02*
X133143773Y-58813804D01*
X133167571Y-58819765D01*
X133190671Y-58828030D01*
X133212849Y-58838520D01*
X133233893Y-58851133D01*
X133253598Y-58865747D01*
X133271777Y-58882223D01*
X133288253Y-58900402D01*
X133302867Y-58920107D01*
X133315480Y-58941151D01*
X133325970Y-58963329D01*
X133334235Y-58986429D01*
X133340196Y-59010227D01*
X133343796Y-59034496D01*
X133345000Y-59059000D01*
X133345000Y-59689000D01*
X133343796Y-59713504D01*
X133340196Y-59737773D01*
X133334235Y-59761571D01*
X133325970Y-59784671D01*
X133315480Y-59806849D01*
X133302867Y-59827893D01*
X133288253Y-59847598D01*
X133271777Y-59865777D01*
X133253598Y-59882253D01*
X133233893Y-59896867D01*
X133212849Y-59909480D01*
X133190671Y-59919970D01*
X133167571Y-59928235D01*
X133143773Y-59934196D01*
X133119504Y-59937796D01*
X133095000Y-59939000D01*
X132465000Y-59939000D01*
X132440496Y-59937796D01*
X132416227Y-59934196D01*
X132392429Y-59928235D01*
X132369329Y-59919970D01*
X132347151Y-59909480D01*
X132326107Y-59896867D01*
X132306402Y-59882253D01*
X132288223Y-59865777D01*
X132271747Y-59847598D01*
X132257133Y-59827893D01*
X132244520Y-59806849D01*
X132234030Y-59784671D01*
X132225765Y-59761571D01*
X132219804Y-59737773D01*
X132216204Y-59713504D01*
X132215000Y-59689000D01*
X132215000Y-59059000D01*
X132216204Y-59034496D01*
X132219804Y-59010227D01*
X132225765Y-58986429D01*
X132234030Y-58963329D01*
X132244520Y-58941151D01*
X132257133Y-58920107D01*
X132271747Y-58900402D01*
X132288223Y-58882223D01*
X132306402Y-58865747D01*
X132326107Y-58851133D01*
X132347151Y-58838520D01*
X132369329Y-58828030D01*
X132392429Y-58819765D01*
X132416227Y-58813804D01*
X132440496Y-58810204D01*
X132465000Y-58809000D01*
X133095000Y-58809000D01*
X133119504Y-58810204D01*
X133119504Y-58810204D01*
G37*
D16*
X132780000Y-59374000D03*
D10*
G36*
X133119504Y-60210204D02*
X133143773Y-60213804D01*
X133167571Y-60219765D01*
X133190671Y-60228030D01*
X133212849Y-60238520D01*
X133233893Y-60251133D01*
X133253598Y-60265747D01*
X133271777Y-60282223D01*
X133288253Y-60300402D01*
X133302867Y-60320107D01*
X133315480Y-60341151D01*
X133325970Y-60363329D01*
X133334235Y-60386429D01*
X133340196Y-60410227D01*
X133343796Y-60434496D01*
X133345000Y-60459000D01*
X133345000Y-61089000D01*
X133343796Y-61113504D01*
X133340196Y-61137773D01*
X133334235Y-61161571D01*
X133325970Y-61184671D01*
X133315480Y-61206849D01*
X133302867Y-61227893D01*
X133288253Y-61247598D01*
X133271777Y-61265777D01*
X133253598Y-61282253D01*
X133233893Y-61296867D01*
X133212849Y-61309480D01*
X133190671Y-61319970D01*
X133167571Y-61328235D01*
X133143773Y-61334196D01*
X133119504Y-61337796D01*
X133095000Y-61339000D01*
X132465000Y-61339000D01*
X132440496Y-61337796D01*
X132416227Y-61334196D01*
X132392429Y-61328235D01*
X132369329Y-61319970D01*
X132347151Y-61309480D01*
X132326107Y-61296867D01*
X132306402Y-61282253D01*
X132288223Y-61265777D01*
X132271747Y-61247598D01*
X132257133Y-61227893D01*
X132244520Y-61206849D01*
X132234030Y-61184671D01*
X132225765Y-61161571D01*
X132219804Y-61137773D01*
X132216204Y-61113504D01*
X132215000Y-61089000D01*
X132215000Y-60459000D01*
X132216204Y-60434496D01*
X132219804Y-60410227D01*
X132225765Y-60386429D01*
X132234030Y-60363329D01*
X132244520Y-60341151D01*
X132257133Y-60320107D01*
X132271747Y-60300402D01*
X132288223Y-60282223D01*
X132306402Y-60265747D01*
X132326107Y-60251133D01*
X132347151Y-60238520D01*
X132369329Y-60228030D01*
X132392429Y-60219765D01*
X132416227Y-60213804D01*
X132440496Y-60210204D01*
X132465000Y-60209000D01*
X133095000Y-60209000D01*
X133119504Y-60210204D01*
X133119504Y-60210204D01*
G37*
D16*
X132780000Y-60774000D03*
D10*
G36*
X134519504Y-56010204D02*
X134543773Y-56013804D01*
X134567571Y-56019765D01*
X134590671Y-56028030D01*
X134612849Y-56038520D01*
X134633893Y-56051133D01*
X134653598Y-56065747D01*
X134671777Y-56082223D01*
X134688253Y-56100402D01*
X134702867Y-56120107D01*
X134715480Y-56141151D01*
X134725970Y-56163329D01*
X134734235Y-56186429D01*
X134740196Y-56210227D01*
X134743796Y-56234496D01*
X134745000Y-56259000D01*
X134745000Y-56889000D01*
X134743796Y-56913504D01*
X134740196Y-56937773D01*
X134734235Y-56961571D01*
X134725970Y-56984671D01*
X134715480Y-57006849D01*
X134702867Y-57027893D01*
X134688253Y-57047598D01*
X134671777Y-57065777D01*
X134653598Y-57082253D01*
X134633893Y-57096867D01*
X134612849Y-57109480D01*
X134590671Y-57119970D01*
X134567571Y-57128235D01*
X134543773Y-57134196D01*
X134519504Y-57137796D01*
X134495000Y-57139000D01*
X133865000Y-57139000D01*
X133840496Y-57137796D01*
X133816227Y-57134196D01*
X133792429Y-57128235D01*
X133769329Y-57119970D01*
X133747151Y-57109480D01*
X133726107Y-57096867D01*
X133706402Y-57082253D01*
X133688223Y-57065777D01*
X133671747Y-57047598D01*
X133657133Y-57027893D01*
X133644520Y-57006849D01*
X133634030Y-56984671D01*
X133625765Y-56961571D01*
X133619804Y-56937773D01*
X133616204Y-56913504D01*
X133615000Y-56889000D01*
X133615000Y-56259000D01*
X133616204Y-56234496D01*
X133619804Y-56210227D01*
X133625765Y-56186429D01*
X133634030Y-56163329D01*
X133644520Y-56141151D01*
X133657133Y-56120107D01*
X133671747Y-56100402D01*
X133688223Y-56082223D01*
X133706402Y-56065747D01*
X133726107Y-56051133D01*
X133747151Y-56038520D01*
X133769329Y-56028030D01*
X133792429Y-56019765D01*
X133816227Y-56013804D01*
X133840496Y-56010204D01*
X133865000Y-56009000D01*
X134495000Y-56009000D01*
X134519504Y-56010204D01*
X134519504Y-56010204D01*
G37*
D16*
X134180000Y-56574000D03*
D10*
G36*
X134519504Y-57410204D02*
X134543773Y-57413804D01*
X134567571Y-57419765D01*
X134590671Y-57428030D01*
X134612849Y-57438520D01*
X134633893Y-57451133D01*
X134653598Y-57465747D01*
X134671777Y-57482223D01*
X134688253Y-57500402D01*
X134702867Y-57520107D01*
X134715480Y-57541151D01*
X134725970Y-57563329D01*
X134734235Y-57586429D01*
X134740196Y-57610227D01*
X134743796Y-57634496D01*
X134745000Y-57659000D01*
X134745000Y-58289000D01*
X134743796Y-58313504D01*
X134740196Y-58337773D01*
X134734235Y-58361571D01*
X134725970Y-58384671D01*
X134715480Y-58406849D01*
X134702867Y-58427893D01*
X134688253Y-58447598D01*
X134671777Y-58465777D01*
X134653598Y-58482253D01*
X134633893Y-58496867D01*
X134612849Y-58509480D01*
X134590671Y-58519970D01*
X134567571Y-58528235D01*
X134543773Y-58534196D01*
X134519504Y-58537796D01*
X134495000Y-58539000D01*
X133865000Y-58539000D01*
X133840496Y-58537796D01*
X133816227Y-58534196D01*
X133792429Y-58528235D01*
X133769329Y-58519970D01*
X133747151Y-58509480D01*
X133726107Y-58496867D01*
X133706402Y-58482253D01*
X133688223Y-58465777D01*
X133671747Y-58447598D01*
X133657133Y-58427893D01*
X133644520Y-58406849D01*
X133634030Y-58384671D01*
X133625765Y-58361571D01*
X133619804Y-58337773D01*
X133616204Y-58313504D01*
X133615000Y-58289000D01*
X133615000Y-57659000D01*
X133616204Y-57634496D01*
X133619804Y-57610227D01*
X133625765Y-57586429D01*
X133634030Y-57563329D01*
X133644520Y-57541151D01*
X133657133Y-57520107D01*
X133671747Y-57500402D01*
X133688223Y-57482223D01*
X133706402Y-57465747D01*
X133726107Y-57451133D01*
X133747151Y-57438520D01*
X133769329Y-57428030D01*
X133792429Y-57419765D01*
X133816227Y-57413804D01*
X133840496Y-57410204D01*
X133865000Y-57409000D01*
X134495000Y-57409000D01*
X134519504Y-57410204D01*
X134519504Y-57410204D01*
G37*
D16*
X134180000Y-57974000D03*
D10*
G36*
X134519504Y-58810204D02*
X134543773Y-58813804D01*
X134567571Y-58819765D01*
X134590671Y-58828030D01*
X134612849Y-58838520D01*
X134633893Y-58851133D01*
X134653598Y-58865747D01*
X134671777Y-58882223D01*
X134688253Y-58900402D01*
X134702867Y-58920107D01*
X134715480Y-58941151D01*
X134725970Y-58963329D01*
X134734235Y-58986429D01*
X134740196Y-59010227D01*
X134743796Y-59034496D01*
X134745000Y-59059000D01*
X134745000Y-59689000D01*
X134743796Y-59713504D01*
X134740196Y-59737773D01*
X134734235Y-59761571D01*
X134725970Y-59784671D01*
X134715480Y-59806849D01*
X134702867Y-59827893D01*
X134688253Y-59847598D01*
X134671777Y-59865777D01*
X134653598Y-59882253D01*
X134633893Y-59896867D01*
X134612849Y-59909480D01*
X134590671Y-59919970D01*
X134567571Y-59928235D01*
X134543773Y-59934196D01*
X134519504Y-59937796D01*
X134495000Y-59939000D01*
X133865000Y-59939000D01*
X133840496Y-59937796D01*
X133816227Y-59934196D01*
X133792429Y-59928235D01*
X133769329Y-59919970D01*
X133747151Y-59909480D01*
X133726107Y-59896867D01*
X133706402Y-59882253D01*
X133688223Y-59865777D01*
X133671747Y-59847598D01*
X133657133Y-59827893D01*
X133644520Y-59806849D01*
X133634030Y-59784671D01*
X133625765Y-59761571D01*
X133619804Y-59737773D01*
X133616204Y-59713504D01*
X133615000Y-59689000D01*
X133615000Y-59059000D01*
X133616204Y-59034496D01*
X133619804Y-59010227D01*
X133625765Y-58986429D01*
X133634030Y-58963329D01*
X133644520Y-58941151D01*
X133657133Y-58920107D01*
X133671747Y-58900402D01*
X133688223Y-58882223D01*
X133706402Y-58865747D01*
X133726107Y-58851133D01*
X133747151Y-58838520D01*
X133769329Y-58828030D01*
X133792429Y-58819765D01*
X133816227Y-58813804D01*
X133840496Y-58810204D01*
X133865000Y-58809000D01*
X134495000Y-58809000D01*
X134519504Y-58810204D01*
X134519504Y-58810204D01*
G37*
D16*
X134180000Y-59374000D03*
D10*
G36*
X134519504Y-60210204D02*
X134543773Y-60213804D01*
X134567571Y-60219765D01*
X134590671Y-60228030D01*
X134612849Y-60238520D01*
X134633893Y-60251133D01*
X134653598Y-60265747D01*
X134671777Y-60282223D01*
X134688253Y-60300402D01*
X134702867Y-60320107D01*
X134715480Y-60341151D01*
X134725970Y-60363329D01*
X134734235Y-60386429D01*
X134740196Y-60410227D01*
X134743796Y-60434496D01*
X134745000Y-60459000D01*
X134745000Y-61089000D01*
X134743796Y-61113504D01*
X134740196Y-61137773D01*
X134734235Y-61161571D01*
X134725970Y-61184671D01*
X134715480Y-61206849D01*
X134702867Y-61227893D01*
X134688253Y-61247598D01*
X134671777Y-61265777D01*
X134653598Y-61282253D01*
X134633893Y-61296867D01*
X134612849Y-61309480D01*
X134590671Y-61319970D01*
X134567571Y-61328235D01*
X134543773Y-61334196D01*
X134519504Y-61337796D01*
X134495000Y-61339000D01*
X133865000Y-61339000D01*
X133840496Y-61337796D01*
X133816227Y-61334196D01*
X133792429Y-61328235D01*
X133769329Y-61319970D01*
X133747151Y-61309480D01*
X133726107Y-61296867D01*
X133706402Y-61282253D01*
X133688223Y-61265777D01*
X133671747Y-61247598D01*
X133657133Y-61227893D01*
X133644520Y-61206849D01*
X133634030Y-61184671D01*
X133625765Y-61161571D01*
X133619804Y-61137773D01*
X133616204Y-61113504D01*
X133615000Y-61089000D01*
X133615000Y-60459000D01*
X133616204Y-60434496D01*
X133619804Y-60410227D01*
X133625765Y-60386429D01*
X133634030Y-60363329D01*
X133644520Y-60341151D01*
X133657133Y-60320107D01*
X133671747Y-60300402D01*
X133688223Y-60282223D01*
X133706402Y-60265747D01*
X133726107Y-60251133D01*
X133747151Y-60238520D01*
X133769329Y-60228030D01*
X133792429Y-60219765D01*
X133816227Y-60213804D01*
X133840496Y-60210204D01*
X133865000Y-60209000D01*
X134495000Y-60209000D01*
X134519504Y-60210204D01*
X134519504Y-60210204D01*
G37*
D16*
X134180000Y-60774000D03*
D10*
G36*
X129023626Y-55799301D02*
X129029693Y-55800201D01*
X129035643Y-55801691D01*
X129041418Y-55803758D01*
X129046962Y-55806380D01*
X129052223Y-55809533D01*
X129057150Y-55813187D01*
X129061694Y-55817306D01*
X129065813Y-55821850D01*
X129069467Y-55826777D01*
X129072620Y-55832038D01*
X129075242Y-55837582D01*
X129077309Y-55843357D01*
X129078799Y-55849307D01*
X129079699Y-55855374D01*
X129080000Y-55861500D01*
X129080000Y-55986500D01*
X129079699Y-55992626D01*
X129078799Y-55998693D01*
X129077309Y-56004643D01*
X129075242Y-56010418D01*
X129072620Y-56015962D01*
X129069467Y-56021223D01*
X129065813Y-56026150D01*
X129061694Y-56030694D01*
X129057150Y-56034813D01*
X129052223Y-56038467D01*
X129046962Y-56041620D01*
X129041418Y-56044242D01*
X129035643Y-56046309D01*
X129029693Y-56047799D01*
X129023626Y-56048699D01*
X129017500Y-56049000D01*
X128267500Y-56049000D01*
X128261374Y-56048699D01*
X128255307Y-56047799D01*
X128249357Y-56046309D01*
X128243582Y-56044242D01*
X128238038Y-56041620D01*
X128232777Y-56038467D01*
X128227850Y-56034813D01*
X128223306Y-56030694D01*
X128219187Y-56026150D01*
X128215533Y-56021223D01*
X128212380Y-56015962D01*
X128209758Y-56010418D01*
X128207691Y-56004643D01*
X128206201Y-55998693D01*
X128205301Y-55992626D01*
X128205000Y-55986500D01*
X128205000Y-55861500D01*
X128205301Y-55855374D01*
X128206201Y-55849307D01*
X128207691Y-55843357D01*
X128209758Y-55837582D01*
X128212380Y-55832038D01*
X128215533Y-55826777D01*
X128219187Y-55821850D01*
X128223306Y-55817306D01*
X128227850Y-55813187D01*
X128232777Y-55809533D01*
X128238038Y-55806380D01*
X128243582Y-55803758D01*
X128249357Y-55801691D01*
X128255307Y-55800201D01*
X128261374Y-55799301D01*
X128267500Y-55799000D01*
X129017500Y-55799000D01*
X129023626Y-55799301D01*
X129023626Y-55799301D01*
G37*
D17*
X128642500Y-55924000D03*
D10*
G36*
X129023626Y-56299301D02*
X129029693Y-56300201D01*
X129035643Y-56301691D01*
X129041418Y-56303758D01*
X129046962Y-56306380D01*
X129052223Y-56309533D01*
X129057150Y-56313187D01*
X129061694Y-56317306D01*
X129065813Y-56321850D01*
X129069467Y-56326777D01*
X129072620Y-56332038D01*
X129075242Y-56337582D01*
X129077309Y-56343357D01*
X129078799Y-56349307D01*
X129079699Y-56355374D01*
X129080000Y-56361500D01*
X129080000Y-56486500D01*
X129079699Y-56492626D01*
X129078799Y-56498693D01*
X129077309Y-56504643D01*
X129075242Y-56510418D01*
X129072620Y-56515962D01*
X129069467Y-56521223D01*
X129065813Y-56526150D01*
X129061694Y-56530694D01*
X129057150Y-56534813D01*
X129052223Y-56538467D01*
X129046962Y-56541620D01*
X129041418Y-56544242D01*
X129035643Y-56546309D01*
X129029693Y-56547799D01*
X129023626Y-56548699D01*
X129017500Y-56549000D01*
X128267500Y-56549000D01*
X128261374Y-56548699D01*
X128255307Y-56547799D01*
X128249357Y-56546309D01*
X128243582Y-56544242D01*
X128238038Y-56541620D01*
X128232777Y-56538467D01*
X128227850Y-56534813D01*
X128223306Y-56530694D01*
X128219187Y-56526150D01*
X128215533Y-56521223D01*
X128212380Y-56515962D01*
X128209758Y-56510418D01*
X128207691Y-56504643D01*
X128206201Y-56498693D01*
X128205301Y-56492626D01*
X128205000Y-56486500D01*
X128205000Y-56361500D01*
X128205301Y-56355374D01*
X128206201Y-56349307D01*
X128207691Y-56343357D01*
X128209758Y-56337582D01*
X128212380Y-56332038D01*
X128215533Y-56326777D01*
X128219187Y-56321850D01*
X128223306Y-56317306D01*
X128227850Y-56313187D01*
X128232777Y-56309533D01*
X128238038Y-56306380D01*
X128243582Y-56303758D01*
X128249357Y-56301691D01*
X128255307Y-56300201D01*
X128261374Y-56299301D01*
X128267500Y-56299000D01*
X129017500Y-56299000D01*
X129023626Y-56299301D01*
X129023626Y-56299301D01*
G37*
D17*
X128642500Y-56424000D03*
D10*
G36*
X129023626Y-56799301D02*
X129029693Y-56800201D01*
X129035643Y-56801691D01*
X129041418Y-56803758D01*
X129046962Y-56806380D01*
X129052223Y-56809533D01*
X129057150Y-56813187D01*
X129061694Y-56817306D01*
X129065813Y-56821850D01*
X129069467Y-56826777D01*
X129072620Y-56832038D01*
X129075242Y-56837582D01*
X129077309Y-56843357D01*
X129078799Y-56849307D01*
X129079699Y-56855374D01*
X129080000Y-56861500D01*
X129080000Y-56986500D01*
X129079699Y-56992626D01*
X129078799Y-56998693D01*
X129077309Y-57004643D01*
X129075242Y-57010418D01*
X129072620Y-57015962D01*
X129069467Y-57021223D01*
X129065813Y-57026150D01*
X129061694Y-57030694D01*
X129057150Y-57034813D01*
X129052223Y-57038467D01*
X129046962Y-57041620D01*
X129041418Y-57044242D01*
X129035643Y-57046309D01*
X129029693Y-57047799D01*
X129023626Y-57048699D01*
X129017500Y-57049000D01*
X128267500Y-57049000D01*
X128261374Y-57048699D01*
X128255307Y-57047799D01*
X128249357Y-57046309D01*
X128243582Y-57044242D01*
X128238038Y-57041620D01*
X128232777Y-57038467D01*
X128227850Y-57034813D01*
X128223306Y-57030694D01*
X128219187Y-57026150D01*
X128215533Y-57021223D01*
X128212380Y-57015962D01*
X128209758Y-57010418D01*
X128207691Y-57004643D01*
X128206201Y-56998693D01*
X128205301Y-56992626D01*
X128205000Y-56986500D01*
X128205000Y-56861500D01*
X128205301Y-56855374D01*
X128206201Y-56849307D01*
X128207691Y-56843357D01*
X128209758Y-56837582D01*
X128212380Y-56832038D01*
X128215533Y-56826777D01*
X128219187Y-56821850D01*
X128223306Y-56817306D01*
X128227850Y-56813187D01*
X128232777Y-56809533D01*
X128238038Y-56806380D01*
X128243582Y-56803758D01*
X128249357Y-56801691D01*
X128255307Y-56800201D01*
X128261374Y-56799301D01*
X128267500Y-56799000D01*
X129017500Y-56799000D01*
X129023626Y-56799301D01*
X129023626Y-56799301D01*
G37*
D17*
X128642500Y-56924000D03*
D10*
G36*
X129023626Y-57299301D02*
X129029693Y-57300201D01*
X129035643Y-57301691D01*
X129041418Y-57303758D01*
X129046962Y-57306380D01*
X129052223Y-57309533D01*
X129057150Y-57313187D01*
X129061694Y-57317306D01*
X129065813Y-57321850D01*
X129069467Y-57326777D01*
X129072620Y-57332038D01*
X129075242Y-57337582D01*
X129077309Y-57343357D01*
X129078799Y-57349307D01*
X129079699Y-57355374D01*
X129080000Y-57361500D01*
X129080000Y-57486500D01*
X129079699Y-57492626D01*
X129078799Y-57498693D01*
X129077309Y-57504643D01*
X129075242Y-57510418D01*
X129072620Y-57515962D01*
X129069467Y-57521223D01*
X129065813Y-57526150D01*
X129061694Y-57530694D01*
X129057150Y-57534813D01*
X129052223Y-57538467D01*
X129046962Y-57541620D01*
X129041418Y-57544242D01*
X129035643Y-57546309D01*
X129029693Y-57547799D01*
X129023626Y-57548699D01*
X129017500Y-57549000D01*
X128267500Y-57549000D01*
X128261374Y-57548699D01*
X128255307Y-57547799D01*
X128249357Y-57546309D01*
X128243582Y-57544242D01*
X128238038Y-57541620D01*
X128232777Y-57538467D01*
X128227850Y-57534813D01*
X128223306Y-57530694D01*
X128219187Y-57526150D01*
X128215533Y-57521223D01*
X128212380Y-57515962D01*
X128209758Y-57510418D01*
X128207691Y-57504643D01*
X128206201Y-57498693D01*
X128205301Y-57492626D01*
X128205000Y-57486500D01*
X128205000Y-57361500D01*
X128205301Y-57355374D01*
X128206201Y-57349307D01*
X128207691Y-57343357D01*
X128209758Y-57337582D01*
X128212380Y-57332038D01*
X128215533Y-57326777D01*
X128219187Y-57321850D01*
X128223306Y-57317306D01*
X128227850Y-57313187D01*
X128232777Y-57309533D01*
X128238038Y-57306380D01*
X128243582Y-57303758D01*
X128249357Y-57301691D01*
X128255307Y-57300201D01*
X128261374Y-57299301D01*
X128267500Y-57299000D01*
X129017500Y-57299000D01*
X129023626Y-57299301D01*
X129023626Y-57299301D01*
G37*
D17*
X128642500Y-57424000D03*
D10*
G36*
X129023626Y-57799301D02*
X129029693Y-57800201D01*
X129035643Y-57801691D01*
X129041418Y-57803758D01*
X129046962Y-57806380D01*
X129052223Y-57809533D01*
X129057150Y-57813187D01*
X129061694Y-57817306D01*
X129065813Y-57821850D01*
X129069467Y-57826777D01*
X129072620Y-57832038D01*
X129075242Y-57837582D01*
X129077309Y-57843357D01*
X129078799Y-57849307D01*
X129079699Y-57855374D01*
X129080000Y-57861500D01*
X129080000Y-57986500D01*
X129079699Y-57992626D01*
X129078799Y-57998693D01*
X129077309Y-58004643D01*
X129075242Y-58010418D01*
X129072620Y-58015962D01*
X129069467Y-58021223D01*
X129065813Y-58026150D01*
X129061694Y-58030694D01*
X129057150Y-58034813D01*
X129052223Y-58038467D01*
X129046962Y-58041620D01*
X129041418Y-58044242D01*
X129035643Y-58046309D01*
X129029693Y-58047799D01*
X129023626Y-58048699D01*
X129017500Y-58049000D01*
X128267500Y-58049000D01*
X128261374Y-58048699D01*
X128255307Y-58047799D01*
X128249357Y-58046309D01*
X128243582Y-58044242D01*
X128238038Y-58041620D01*
X128232777Y-58038467D01*
X128227850Y-58034813D01*
X128223306Y-58030694D01*
X128219187Y-58026150D01*
X128215533Y-58021223D01*
X128212380Y-58015962D01*
X128209758Y-58010418D01*
X128207691Y-58004643D01*
X128206201Y-57998693D01*
X128205301Y-57992626D01*
X128205000Y-57986500D01*
X128205000Y-57861500D01*
X128205301Y-57855374D01*
X128206201Y-57849307D01*
X128207691Y-57843357D01*
X128209758Y-57837582D01*
X128212380Y-57832038D01*
X128215533Y-57826777D01*
X128219187Y-57821850D01*
X128223306Y-57817306D01*
X128227850Y-57813187D01*
X128232777Y-57809533D01*
X128238038Y-57806380D01*
X128243582Y-57803758D01*
X128249357Y-57801691D01*
X128255307Y-57800201D01*
X128261374Y-57799301D01*
X128267500Y-57799000D01*
X129017500Y-57799000D01*
X129023626Y-57799301D01*
X129023626Y-57799301D01*
G37*
D17*
X128642500Y-57924000D03*
D10*
G36*
X129023626Y-58299301D02*
X129029693Y-58300201D01*
X129035643Y-58301691D01*
X129041418Y-58303758D01*
X129046962Y-58306380D01*
X129052223Y-58309533D01*
X129057150Y-58313187D01*
X129061694Y-58317306D01*
X129065813Y-58321850D01*
X129069467Y-58326777D01*
X129072620Y-58332038D01*
X129075242Y-58337582D01*
X129077309Y-58343357D01*
X129078799Y-58349307D01*
X129079699Y-58355374D01*
X129080000Y-58361500D01*
X129080000Y-58486500D01*
X129079699Y-58492626D01*
X129078799Y-58498693D01*
X129077309Y-58504643D01*
X129075242Y-58510418D01*
X129072620Y-58515962D01*
X129069467Y-58521223D01*
X129065813Y-58526150D01*
X129061694Y-58530694D01*
X129057150Y-58534813D01*
X129052223Y-58538467D01*
X129046962Y-58541620D01*
X129041418Y-58544242D01*
X129035643Y-58546309D01*
X129029693Y-58547799D01*
X129023626Y-58548699D01*
X129017500Y-58549000D01*
X128267500Y-58549000D01*
X128261374Y-58548699D01*
X128255307Y-58547799D01*
X128249357Y-58546309D01*
X128243582Y-58544242D01*
X128238038Y-58541620D01*
X128232777Y-58538467D01*
X128227850Y-58534813D01*
X128223306Y-58530694D01*
X128219187Y-58526150D01*
X128215533Y-58521223D01*
X128212380Y-58515962D01*
X128209758Y-58510418D01*
X128207691Y-58504643D01*
X128206201Y-58498693D01*
X128205301Y-58492626D01*
X128205000Y-58486500D01*
X128205000Y-58361500D01*
X128205301Y-58355374D01*
X128206201Y-58349307D01*
X128207691Y-58343357D01*
X128209758Y-58337582D01*
X128212380Y-58332038D01*
X128215533Y-58326777D01*
X128219187Y-58321850D01*
X128223306Y-58317306D01*
X128227850Y-58313187D01*
X128232777Y-58309533D01*
X128238038Y-58306380D01*
X128243582Y-58303758D01*
X128249357Y-58301691D01*
X128255307Y-58300201D01*
X128261374Y-58299301D01*
X128267500Y-58299000D01*
X129017500Y-58299000D01*
X129023626Y-58299301D01*
X129023626Y-58299301D01*
G37*
D17*
X128642500Y-58424000D03*
D10*
G36*
X129023626Y-58799301D02*
X129029693Y-58800201D01*
X129035643Y-58801691D01*
X129041418Y-58803758D01*
X129046962Y-58806380D01*
X129052223Y-58809533D01*
X129057150Y-58813187D01*
X129061694Y-58817306D01*
X129065813Y-58821850D01*
X129069467Y-58826777D01*
X129072620Y-58832038D01*
X129075242Y-58837582D01*
X129077309Y-58843357D01*
X129078799Y-58849307D01*
X129079699Y-58855374D01*
X129080000Y-58861500D01*
X129080000Y-58986500D01*
X129079699Y-58992626D01*
X129078799Y-58998693D01*
X129077309Y-59004643D01*
X129075242Y-59010418D01*
X129072620Y-59015962D01*
X129069467Y-59021223D01*
X129065813Y-59026150D01*
X129061694Y-59030694D01*
X129057150Y-59034813D01*
X129052223Y-59038467D01*
X129046962Y-59041620D01*
X129041418Y-59044242D01*
X129035643Y-59046309D01*
X129029693Y-59047799D01*
X129023626Y-59048699D01*
X129017500Y-59049000D01*
X128267500Y-59049000D01*
X128261374Y-59048699D01*
X128255307Y-59047799D01*
X128249357Y-59046309D01*
X128243582Y-59044242D01*
X128238038Y-59041620D01*
X128232777Y-59038467D01*
X128227850Y-59034813D01*
X128223306Y-59030694D01*
X128219187Y-59026150D01*
X128215533Y-59021223D01*
X128212380Y-59015962D01*
X128209758Y-59010418D01*
X128207691Y-59004643D01*
X128206201Y-58998693D01*
X128205301Y-58992626D01*
X128205000Y-58986500D01*
X128205000Y-58861500D01*
X128205301Y-58855374D01*
X128206201Y-58849307D01*
X128207691Y-58843357D01*
X128209758Y-58837582D01*
X128212380Y-58832038D01*
X128215533Y-58826777D01*
X128219187Y-58821850D01*
X128223306Y-58817306D01*
X128227850Y-58813187D01*
X128232777Y-58809533D01*
X128238038Y-58806380D01*
X128243582Y-58803758D01*
X128249357Y-58801691D01*
X128255307Y-58800201D01*
X128261374Y-58799301D01*
X128267500Y-58799000D01*
X129017500Y-58799000D01*
X129023626Y-58799301D01*
X129023626Y-58799301D01*
G37*
D17*
X128642500Y-58924000D03*
D10*
G36*
X129023626Y-59299301D02*
X129029693Y-59300201D01*
X129035643Y-59301691D01*
X129041418Y-59303758D01*
X129046962Y-59306380D01*
X129052223Y-59309533D01*
X129057150Y-59313187D01*
X129061694Y-59317306D01*
X129065813Y-59321850D01*
X129069467Y-59326777D01*
X129072620Y-59332038D01*
X129075242Y-59337582D01*
X129077309Y-59343357D01*
X129078799Y-59349307D01*
X129079699Y-59355374D01*
X129080000Y-59361500D01*
X129080000Y-59486500D01*
X129079699Y-59492626D01*
X129078799Y-59498693D01*
X129077309Y-59504643D01*
X129075242Y-59510418D01*
X129072620Y-59515962D01*
X129069467Y-59521223D01*
X129065813Y-59526150D01*
X129061694Y-59530694D01*
X129057150Y-59534813D01*
X129052223Y-59538467D01*
X129046962Y-59541620D01*
X129041418Y-59544242D01*
X129035643Y-59546309D01*
X129029693Y-59547799D01*
X129023626Y-59548699D01*
X129017500Y-59549000D01*
X128267500Y-59549000D01*
X128261374Y-59548699D01*
X128255307Y-59547799D01*
X128249357Y-59546309D01*
X128243582Y-59544242D01*
X128238038Y-59541620D01*
X128232777Y-59538467D01*
X128227850Y-59534813D01*
X128223306Y-59530694D01*
X128219187Y-59526150D01*
X128215533Y-59521223D01*
X128212380Y-59515962D01*
X128209758Y-59510418D01*
X128207691Y-59504643D01*
X128206201Y-59498693D01*
X128205301Y-59492626D01*
X128205000Y-59486500D01*
X128205000Y-59361500D01*
X128205301Y-59355374D01*
X128206201Y-59349307D01*
X128207691Y-59343357D01*
X128209758Y-59337582D01*
X128212380Y-59332038D01*
X128215533Y-59326777D01*
X128219187Y-59321850D01*
X128223306Y-59317306D01*
X128227850Y-59313187D01*
X128232777Y-59309533D01*
X128238038Y-59306380D01*
X128243582Y-59303758D01*
X128249357Y-59301691D01*
X128255307Y-59300201D01*
X128261374Y-59299301D01*
X128267500Y-59299000D01*
X129017500Y-59299000D01*
X129023626Y-59299301D01*
X129023626Y-59299301D01*
G37*
D17*
X128642500Y-59424000D03*
D10*
G36*
X129023626Y-59799301D02*
X129029693Y-59800201D01*
X129035643Y-59801691D01*
X129041418Y-59803758D01*
X129046962Y-59806380D01*
X129052223Y-59809533D01*
X129057150Y-59813187D01*
X129061694Y-59817306D01*
X129065813Y-59821850D01*
X129069467Y-59826777D01*
X129072620Y-59832038D01*
X129075242Y-59837582D01*
X129077309Y-59843357D01*
X129078799Y-59849307D01*
X129079699Y-59855374D01*
X129080000Y-59861500D01*
X129080000Y-59986500D01*
X129079699Y-59992626D01*
X129078799Y-59998693D01*
X129077309Y-60004643D01*
X129075242Y-60010418D01*
X129072620Y-60015962D01*
X129069467Y-60021223D01*
X129065813Y-60026150D01*
X129061694Y-60030694D01*
X129057150Y-60034813D01*
X129052223Y-60038467D01*
X129046962Y-60041620D01*
X129041418Y-60044242D01*
X129035643Y-60046309D01*
X129029693Y-60047799D01*
X129023626Y-60048699D01*
X129017500Y-60049000D01*
X128267500Y-60049000D01*
X128261374Y-60048699D01*
X128255307Y-60047799D01*
X128249357Y-60046309D01*
X128243582Y-60044242D01*
X128238038Y-60041620D01*
X128232777Y-60038467D01*
X128227850Y-60034813D01*
X128223306Y-60030694D01*
X128219187Y-60026150D01*
X128215533Y-60021223D01*
X128212380Y-60015962D01*
X128209758Y-60010418D01*
X128207691Y-60004643D01*
X128206201Y-59998693D01*
X128205301Y-59992626D01*
X128205000Y-59986500D01*
X128205000Y-59861500D01*
X128205301Y-59855374D01*
X128206201Y-59849307D01*
X128207691Y-59843357D01*
X128209758Y-59837582D01*
X128212380Y-59832038D01*
X128215533Y-59826777D01*
X128219187Y-59821850D01*
X128223306Y-59817306D01*
X128227850Y-59813187D01*
X128232777Y-59809533D01*
X128238038Y-59806380D01*
X128243582Y-59803758D01*
X128249357Y-59801691D01*
X128255307Y-59800201D01*
X128261374Y-59799301D01*
X128267500Y-59799000D01*
X129017500Y-59799000D01*
X129023626Y-59799301D01*
X129023626Y-59799301D01*
G37*
D17*
X128642500Y-59924000D03*
D10*
G36*
X129023626Y-60299301D02*
X129029693Y-60300201D01*
X129035643Y-60301691D01*
X129041418Y-60303758D01*
X129046962Y-60306380D01*
X129052223Y-60309533D01*
X129057150Y-60313187D01*
X129061694Y-60317306D01*
X129065813Y-60321850D01*
X129069467Y-60326777D01*
X129072620Y-60332038D01*
X129075242Y-60337582D01*
X129077309Y-60343357D01*
X129078799Y-60349307D01*
X129079699Y-60355374D01*
X129080000Y-60361500D01*
X129080000Y-60486500D01*
X129079699Y-60492626D01*
X129078799Y-60498693D01*
X129077309Y-60504643D01*
X129075242Y-60510418D01*
X129072620Y-60515962D01*
X129069467Y-60521223D01*
X129065813Y-60526150D01*
X129061694Y-60530694D01*
X129057150Y-60534813D01*
X129052223Y-60538467D01*
X129046962Y-60541620D01*
X129041418Y-60544242D01*
X129035643Y-60546309D01*
X129029693Y-60547799D01*
X129023626Y-60548699D01*
X129017500Y-60549000D01*
X128267500Y-60549000D01*
X128261374Y-60548699D01*
X128255307Y-60547799D01*
X128249357Y-60546309D01*
X128243582Y-60544242D01*
X128238038Y-60541620D01*
X128232777Y-60538467D01*
X128227850Y-60534813D01*
X128223306Y-60530694D01*
X128219187Y-60526150D01*
X128215533Y-60521223D01*
X128212380Y-60515962D01*
X128209758Y-60510418D01*
X128207691Y-60504643D01*
X128206201Y-60498693D01*
X128205301Y-60492626D01*
X128205000Y-60486500D01*
X128205000Y-60361500D01*
X128205301Y-60355374D01*
X128206201Y-60349307D01*
X128207691Y-60343357D01*
X128209758Y-60337582D01*
X128212380Y-60332038D01*
X128215533Y-60326777D01*
X128219187Y-60321850D01*
X128223306Y-60317306D01*
X128227850Y-60313187D01*
X128232777Y-60309533D01*
X128238038Y-60306380D01*
X128243582Y-60303758D01*
X128249357Y-60301691D01*
X128255307Y-60300201D01*
X128261374Y-60299301D01*
X128267500Y-60299000D01*
X129017500Y-60299000D01*
X129023626Y-60299301D01*
X129023626Y-60299301D01*
G37*
D17*
X128642500Y-60424000D03*
D10*
G36*
X129023626Y-60799301D02*
X129029693Y-60800201D01*
X129035643Y-60801691D01*
X129041418Y-60803758D01*
X129046962Y-60806380D01*
X129052223Y-60809533D01*
X129057150Y-60813187D01*
X129061694Y-60817306D01*
X129065813Y-60821850D01*
X129069467Y-60826777D01*
X129072620Y-60832038D01*
X129075242Y-60837582D01*
X129077309Y-60843357D01*
X129078799Y-60849307D01*
X129079699Y-60855374D01*
X129080000Y-60861500D01*
X129080000Y-60986500D01*
X129079699Y-60992626D01*
X129078799Y-60998693D01*
X129077309Y-61004643D01*
X129075242Y-61010418D01*
X129072620Y-61015962D01*
X129069467Y-61021223D01*
X129065813Y-61026150D01*
X129061694Y-61030694D01*
X129057150Y-61034813D01*
X129052223Y-61038467D01*
X129046962Y-61041620D01*
X129041418Y-61044242D01*
X129035643Y-61046309D01*
X129029693Y-61047799D01*
X129023626Y-61048699D01*
X129017500Y-61049000D01*
X128267500Y-61049000D01*
X128261374Y-61048699D01*
X128255307Y-61047799D01*
X128249357Y-61046309D01*
X128243582Y-61044242D01*
X128238038Y-61041620D01*
X128232777Y-61038467D01*
X128227850Y-61034813D01*
X128223306Y-61030694D01*
X128219187Y-61026150D01*
X128215533Y-61021223D01*
X128212380Y-61015962D01*
X128209758Y-61010418D01*
X128207691Y-61004643D01*
X128206201Y-60998693D01*
X128205301Y-60992626D01*
X128205000Y-60986500D01*
X128205000Y-60861500D01*
X128205301Y-60855374D01*
X128206201Y-60849307D01*
X128207691Y-60843357D01*
X128209758Y-60837582D01*
X128212380Y-60832038D01*
X128215533Y-60826777D01*
X128219187Y-60821850D01*
X128223306Y-60817306D01*
X128227850Y-60813187D01*
X128232777Y-60809533D01*
X128238038Y-60806380D01*
X128243582Y-60803758D01*
X128249357Y-60801691D01*
X128255307Y-60800201D01*
X128261374Y-60799301D01*
X128267500Y-60799000D01*
X129017500Y-60799000D01*
X129023626Y-60799301D01*
X129023626Y-60799301D01*
G37*
D17*
X128642500Y-60924000D03*
D10*
G36*
X129023626Y-61299301D02*
X129029693Y-61300201D01*
X129035643Y-61301691D01*
X129041418Y-61303758D01*
X129046962Y-61306380D01*
X129052223Y-61309533D01*
X129057150Y-61313187D01*
X129061694Y-61317306D01*
X129065813Y-61321850D01*
X129069467Y-61326777D01*
X129072620Y-61332038D01*
X129075242Y-61337582D01*
X129077309Y-61343357D01*
X129078799Y-61349307D01*
X129079699Y-61355374D01*
X129080000Y-61361500D01*
X129080000Y-61486500D01*
X129079699Y-61492626D01*
X129078799Y-61498693D01*
X129077309Y-61504643D01*
X129075242Y-61510418D01*
X129072620Y-61515962D01*
X129069467Y-61521223D01*
X129065813Y-61526150D01*
X129061694Y-61530694D01*
X129057150Y-61534813D01*
X129052223Y-61538467D01*
X129046962Y-61541620D01*
X129041418Y-61544242D01*
X129035643Y-61546309D01*
X129029693Y-61547799D01*
X129023626Y-61548699D01*
X129017500Y-61549000D01*
X128267500Y-61549000D01*
X128261374Y-61548699D01*
X128255307Y-61547799D01*
X128249357Y-61546309D01*
X128243582Y-61544242D01*
X128238038Y-61541620D01*
X128232777Y-61538467D01*
X128227850Y-61534813D01*
X128223306Y-61530694D01*
X128219187Y-61526150D01*
X128215533Y-61521223D01*
X128212380Y-61515962D01*
X128209758Y-61510418D01*
X128207691Y-61504643D01*
X128206201Y-61498693D01*
X128205301Y-61492626D01*
X128205000Y-61486500D01*
X128205000Y-61361500D01*
X128205301Y-61355374D01*
X128206201Y-61349307D01*
X128207691Y-61343357D01*
X128209758Y-61337582D01*
X128212380Y-61332038D01*
X128215533Y-61326777D01*
X128219187Y-61321850D01*
X128223306Y-61317306D01*
X128227850Y-61313187D01*
X128232777Y-61309533D01*
X128238038Y-61306380D01*
X128243582Y-61303758D01*
X128249357Y-61301691D01*
X128255307Y-61300201D01*
X128261374Y-61299301D01*
X128267500Y-61299000D01*
X129017500Y-61299000D01*
X129023626Y-61299301D01*
X129023626Y-61299301D01*
G37*
D17*
X128642500Y-61424000D03*
D10*
G36*
X129398626Y-61674301D02*
X129404693Y-61675201D01*
X129410643Y-61676691D01*
X129416418Y-61678758D01*
X129421962Y-61681380D01*
X129427223Y-61684533D01*
X129432150Y-61688187D01*
X129436694Y-61692306D01*
X129440813Y-61696850D01*
X129444467Y-61701777D01*
X129447620Y-61707038D01*
X129450242Y-61712582D01*
X129452309Y-61718357D01*
X129453799Y-61724307D01*
X129454699Y-61730374D01*
X129455000Y-61736500D01*
X129455000Y-62486500D01*
X129454699Y-62492626D01*
X129453799Y-62498693D01*
X129452309Y-62504643D01*
X129450242Y-62510418D01*
X129447620Y-62515962D01*
X129444467Y-62521223D01*
X129440813Y-62526150D01*
X129436694Y-62530694D01*
X129432150Y-62534813D01*
X129427223Y-62538467D01*
X129421962Y-62541620D01*
X129416418Y-62544242D01*
X129410643Y-62546309D01*
X129404693Y-62547799D01*
X129398626Y-62548699D01*
X129392500Y-62549000D01*
X129267500Y-62549000D01*
X129261374Y-62548699D01*
X129255307Y-62547799D01*
X129249357Y-62546309D01*
X129243582Y-62544242D01*
X129238038Y-62541620D01*
X129232777Y-62538467D01*
X129227850Y-62534813D01*
X129223306Y-62530694D01*
X129219187Y-62526150D01*
X129215533Y-62521223D01*
X129212380Y-62515962D01*
X129209758Y-62510418D01*
X129207691Y-62504643D01*
X129206201Y-62498693D01*
X129205301Y-62492626D01*
X129205000Y-62486500D01*
X129205000Y-61736500D01*
X129205301Y-61730374D01*
X129206201Y-61724307D01*
X129207691Y-61718357D01*
X129209758Y-61712582D01*
X129212380Y-61707038D01*
X129215533Y-61701777D01*
X129219187Y-61696850D01*
X129223306Y-61692306D01*
X129227850Y-61688187D01*
X129232777Y-61684533D01*
X129238038Y-61681380D01*
X129243582Y-61678758D01*
X129249357Y-61676691D01*
X129255307Y-61675201D01*
X129261374Y-61674301D01*
X129267500Y-61674000D01*
X129392500Y-61674000D01*
X129398626Y-61674301D01*
X129398626Y-61674301D01*
G37*
D17*
X129330000Y-62111500D03*
D10*
G36*
X129898626Y-61674301D02*
X129904693Y-61675201D01*
X129910643Y-61676691D01*
X129916418Y-61678758D01*
X129921962Y-61681380D01*
X129927223Y-61684533D01*
X129932150Y-61688187D01*
X129936694Y-61692306D01*
X129940813Y-61696850D01*
X129944467Y-61701777D01*
X129947620Y-61707038D01*
X129950242Y-61712582D01*
X129952309Y-61718357D01*
X129953799Y-61724307D01*
X129954699Y-61730374D01*
X129955000Y-61736500D01*
X129955000Y-62486500D01*
X129954699Y-62492626D01*
X129953799Y-62498693D01*
X129952309Y-62504643D01*
X129950242Y-62510418D01*
X129947620Y-62515962D01*
X129944467Y-62521223D01*
X129940813Y-62526150D01*
X129936694Y-62530694D01*
X129932150Y-62534813D01*
X129927223Y-62538467D01*
X129921962Y-62541620D01*
X129916418Y-62544242D01*
X129910643Y-62546309D01*
X129904693Y-62547799D01*
X129898626Y-62548699D01*
X129892500Y-62549000D01*
X129767500Y-62549000D01*
X129761374Y-62548699D01*
X129755307Y-62547799D01*
X129749357Y-62546309D01*
X129743582Y-62544242D01*
X129738038Y-62541620D01*
X129732777Y-62538467D01*
X129727850Y-62534813D01*
X129723306Y-62530694D01*
X129719187Y-62526150D01*
X129715533Y-62521223D01*
X129712380Y-62515962D01*
X129709758Y-62510418D01*
X129707691Y-62504643D01*
X129706201Y-62498693D01*
X129705301Y-62492626D01*
X129705000Y-62486500D01*
X129705000Y-61736500D01*
X129705301Y-61730374D01*
X129706201Y-61724307D01*
X129707691Y-61718357D01*
X129709758Y-61712582D01*
X129712380Y-61707038D01*
X129715533Y-61701777D01*
X129719187Y-61696850D01*
X129723306Y-61692306D01*
X129727850Y-61688187D01*
X129732777Y-61684533D01*
X129738038Y-61681380D01*
X129743582Y-61678758D01*
X129749357Y-61676691D01*
X129755307Y-61675201D01*
X129761374Y-61674301D01*
X129767500Y-61674000D01*
X129892500Y-61674000D01*
X129898626Y-61674301D01*
X129898626Y-61674301D01*
G37*
D17*
X129830000Y-62111500D03*
D10*
G36*
X130398626Y-61674301D02*
X130404693Y-61675201D01*
X130410643Y-61676691D01*
X130416418Y-61678758D01*
X130421962Y-61681380D01*
X130427223Y-61684533D01*
X130432150Y-61688187D01*
X130436694Y-61692306D01*
X130440813Y-61696850D01*
X130444467Y-61701777D01*
X130447620Y-61707038D01*
X130450242Y-61712582D01*
X130452309Y-61718357D01*
X130453799Y-61724307D01*
X130454699Y-61730374D01*
X130455000Y-61736500D01*
X130455000Y-62486500D01*
X130454699Y-62492626D01*
X130453799Y-62498693D01*
X130452309Y-62504643D01*
X130450242Y-62510418D01*
X130447620Y-62515962D01*
X130444467Y-62521223D01*
X130440813Y-62526150D01*
X130436694Y-62530694D01*
X130432150Y-62534813D01*
X130427223Y-62538467D01*
X130421962Y-62541620D01*
X130416418Y-62544242D01*
X130410643Y-62546309D01*
X130404693Y-62547799D01*
X130398626Y-62548699D01*
X130392500Y-62549000D01*
X130267500Y-62549000D01*
X130261374Y-62548699D01*
X130255307Y-62547799D01*
X130249357Y-62546309D01*
X130243582Y-62544242D01*
X130238038Y-62541620D01*
X130232777Y-62538467D01*
X130227850Y-62534813D01*
X130223306Y-62530694D01*
X130219187Y-62526150D01*
X130215533Y-62521223D01*
X130212380Y-62515962D01*
X130209758Y-62510418D01*
X130207691Y-62504643D01*
X130206201Y-62498693D01*
X130205301Y-62492626D01*
X130205000Y-62486500D01*
X130205000Y-61736500D01*
X130205301Y-61730374D01*
X130206201Y-61724307D01*
X130207691Y-61718357D01*
X130209758Y-61712582D01*
X130212380Y-61707038D01*
X130215533Y-61701777D01*
X130219187Y-61696850D01*
X130223306Y-61692306D01*
X130227850Y-61688187D01*
X130232777Y-61684533D01*
X130238038Y-61681380D01*
X130243582Y-61678758D01*
X130249357Y-61676691D01*
X130255307Y-61675201D01*
X130261374Y-61674301D01*
X130267500Y-61674000D01*
X130392500Y-61674000D01*
X130398626Y-61674301D01*
X130398626Y-61674301D01*
G37*
D17*
X130330000Y-62111500D03*
D10*
G36*
X130898626Y-61674301D02*
X130904693Y-61675201D01*
X130910643Y-61676691D01*
X130916418Y-61678758D01*
X130921962Y-61681380D01*
X130927223Y-61684533D01*
X130932150Y-61688187D01*
X130936694Y-61692306D01*
X130940813Y-61696850D01*
X130944467Y-61701777D01*
X130947620Y-61707038D01*
X130950242Y-61712582D01*
X130952309Y-61718357D01*
X130953799Y-61724307D01*
X130954699Y-61730374D01*
X130955000Y-61736500D01*
X130955000Y-62486500D01*
X130954699Y-62492626D01*
X130953799Y-62498693D01*
X130952309Y-62504643D01*
X130950242Y-62510418D01*
X130947620Y-62515962D01*
X130944467Y-62521223D01*
X130940813Y-62526150D01*
X130936694Y-62530694D01*
X130932150Y-62534813D01*
X130927223Y-62538467D01*
X130921962Y-62541620D01*
X130916418Y-62544242D01*
X130910643Y-62546309D01*
X130904693Y-62547799D01*
X130898626Y-62548699D01*
X130892500Y-62549000D01*
X130767500Y-62549000D01*
X130761374Y-62548699D01*
X130755307Y-62547799D01*
X130749357Y-62546309D01*
X130743582Y-62544242D01*
X130738038Y-62541620D01*
X130732777Y-62538467D01*
X130727850Y-62534813D01*
X130723306Y-62530694D01*
X130719187Y-62526150D01*
X130715533Y-62521223D01*
X130712380Y-62515962D01*
X130709758Y-62510418D01*
X130707691Y-62504643D01*
X130706201Y-62498693D01*
X130705301Y-62492626D01*
X130705000Y-62486500D01*
X130705000Y-61736500D01*
X130705301Y-61730374D01*
X130706201Y-61724307D01*
X130707691Y-61718357D01*
X130709758Y-61712582D01*
X130712380Y-61707038D01*
X130715533Y-61701777D01*
X130719187Y-61696850D01*
X130723306Y-61692306D01*
X130727850Y-61688187D01*
X130732777Y-61684533D01*
X130738038Y-61681380D01*
X130743582Y-61678758D01*
X130749357Y-61676691D01*
X130755307Y-61675201D01*
X130761374Y-61674301D01*
X130767500Y-61674000D01*
X130892500Y-61674000D01*
X130898626Y-61674301D01*
X130898626Y-61674301D01*
G37*
D17*
X130830000Y-62111500D03*
D10*
G36*
X131398626Y-61674301D02*
X131404693Y-61675201D01*
X131410643Y-61676691D01*
X131416418Y-61678758D01*
X131421962Y-61681380D01*
X131427223Y-61684533D01*
X131432150Y-61688187D01*
X131436694Y-61692306D01*
X131440813Y-61696850D01*
X131444467Y-61701777D01*
X131447620Y-61707038D01*
X131450242Y-61712582D01*
X131452309Y-61718357D01*
X131453799Y-61724307D01*
X131454699Y-61730374D01*
X131455000Y-61736500D01*
X131455000Y-62486500D01*
X131454699Y-62492626D01*
X131453799Y-62498693D01*
X131452309Y-62504643D01*
X131450242Y-62510418D01*
X131447620Y-62515962D01*
X131444467Y-62521223D01*
X131440813Y-62526150D01*
X131436694Y-62530694D01*
X131432150Y-62534813D01*
X131427223Y-62538467D01*
X131421962Y-62541620D01*
X131416418Y-62544242D01*
X131410643Y-62546309D01*
X131404693Y-62547799D01*
X131398626Y-62548699D01*
X131392500Y-62549000D01*
X131267500Y-62549000D01*
X131261374Y-62548699D01*
X131255307Y-62547799D01*
X131249357Y-62546309D01*
X131243582Y-62544242D01*
X131238038Y-62541620D01*
X131232777Y-62538467D01*
X131227850Y-62534813D01*
X131223306Y-62530694D01*
X131219187Y-62526150D01*
X131215533Y-62521223D01*
X131212380Y-62515962D01*
X131209758Y-62510418D01*
X131207691Y-62504643D01*
X131206201Y-62498693D01*
X131205301Y-62492626D01*
X131205000Y-62486500D01*
X131205000Y-61736500D01*
X131205301Y-61730374D01*
X131206201Y-61724307D01*
X131207691Y-61718357D01*
X131209758Y-61712582D01*
X131212380Y-61707038D01*
X131215533Y-61701777D01*
X131219187Y-61696850D01*
X131223306Y-61692306D01*
X131227850Y-61688187D01*
X131232777Y-61684533D01*
X131238038Y-61681380D01*
X131243582Y-61678758D01*
X131249357Y-61676691D01*
X131255307Y-61675201D01*
X131261374Y-61674301D01*
X131267500Y-61674000D01*
X131392500Y-61674000D01*
X131398626Y-61674301D01*
X131398626Y-61674301D01*
G37*
D17*
X131330000Y-62111500D03*
D10*
G36*
X131898626Y-61674301D02*
X131904693Y-61675201D01*
X131910643Y-61676691D01*
X131916418Y-61678758D01*
X131921962Y-61681380D01*
X131927223Y-61684533D01*
X131932150Y-61688187D01*
X131936694Y-61692306D01*
X131940813Y-61696850D01*
X131944467Y-61701777D01*
X131947620Y-61707038D01*
X131950242Y-61712582D01*
X131952309Y-61718357D01*
X131953799Y-61724307D01*
X131954699Y-61730374D01*
X131955000Y-61736500D01*
X131955000Y-62486500D01*
X131954699Y-62492626D01*
X131953799Y-62498693D01*
X131952309Y-62504643D01*
X131950242Y-62510418D01*
X131947620Y-62515962D01*
X131944467Y-62521223D01*
X131940813Y-62526150D01*
X131936694Y-62530694D01*
X131932150Y-62534813D01*
X131927223Y-62538467D01*
X131921962Y-62541620D01*
X131916418Y-62544242D01*
X131910643Y-62546309D01*
X131904693Y-62547799D01*
X131898626Y-62548699D01*
X131892500Y-62549000D01*
X131767500Y-62549000D01*
X131761374Y-62548699D01*
X131755307Y-62547799D01*
X131749357Y-62546309D01*
X131743582Y-62544242D01*
X131738038Y-62541620D01*
X131732777Y-62538467D01*
X131727850Y-62534813D01*
X131723306Y-62530694D01*
X131719187Y-62526150D01*
X131715533Y-62521223D01*
X131712380Y-62515962D01*
X131709758Y-62510418D01*
X131707691Y-62504643D01*
X131706201Y-62498693D01*
X131705301Y-62492626D01*
X131705000Y-62486500D01*
X131705000Y-61736500D01*
X131705301Y-61730374D01*
X131706201Y-61724307D01*
X131707691Y-61718357D01*
X131709758Y-61712582D01*
X131712380Y-61707038D01*
X131715533Y-61701777D01*
X131719187Y-61696850D01*
X131723306Y-61692306D01*
X131727850Y-61688187D01*
X131732777Y-61684533D01*
X131738038Y-61681380D01*
X131743582Y-61678758D01*
X131749357Y-61676691D01*
X131755307Y-61675201D01*
X131761374Y-61674301D01*
X131767500Y-61674000D01*
X131892500Y-61674000D01*
X131898626Y-61674301D01*
X131898626Y-61674301D01*
G37*
D17*
X131830000Y-62111500D03*
D10*
G36*
X132398626Y-61674301D02*
X132404693Y-61675201D01*
X132410643Y-61676691D01*
X132416418Y-61678758D01*
X132421962Y-61681380D01*
X132427223Y-61684533D01*
X132432150Y-61688187D01*
X132436694Y-61692306D01*
X132440813Y-61696850D01*
X132444467Y-61701777D01*
X132447620Y-61707038D01*
X132450242Y-61712582D01*
X132452309Y-61718357D01*
X132453799Y-61724307D01*
X132454699Y-61730374D01*
X132455000Y-61736500D01*
X132455000Y-62486500D01*
X132454699Y-62492626D01*
X132453799Y-62498693D01*
X132452309Y-62504643D01*
X132450242Y-62510418D01*
X132447620Y-62515962D01*
X132444467Y-62521223D01*
X132440813Y-62526150D01*
X132436694Y-62530694D01*
X132432150Y-62534813D01*
X132427223Y-62538467D01*
X132421962Y-62541620D01*
X132416418Y-62544242D01*
X132410643Y-62546309D01*
X132404693Y-62547799D01*
X132398626Y-62548699D01*
X132392500Y-62549000D01*
X132267500Y-62549000D01*
X132261374Y-62548699D01*
X132255307Y-62547799D01*
X132249357Y-62546309D01*
X132243582Y-62544242D01*
X132238038Y-62541620D01*
X132232777Y-62538467D01*
X132227850Y-62534813D01*
X132223306Y-62530694D01*
X132219187Y-62526150D01*
X132215533Y-62521223D01*
X132212380Y-62515962D01*
X132209758Y-62510418D01*
X132207691Y-62504643D01*
X132206201Y-62498693D01*
X132205301Y-62492626D01*
X132205000Y-62486500D01*
X132205000Y-61736500D01*
X132205301Y-61730374D01*
X132206201Y-61724307D01*
X132207691Y-61718357D01*
X132209758Y-61712582D01*
X132212380Y-61707038D01*
X132215533Y-61701777D01*
X132219187Y-61696850D01*
X132223306Y-61692306D01*
X132227850Y-61688187D01*
X132232777Y-61684533D01*
X132238038Y-61681380D01*
X132243582Y-61678758D01*
X132249357Y-61676691D01*
X132255307Y-61675201D01*
X132261374Y-61674301D01*
X132267500Y-61674000D01*
X132392500Y-61674000D01*
X132398626Y-61674301D01*
X132398626Y-61674301D01*
G37*
D17*
X132330000Y-62111500D03*
D10*
G36*
X132898626Y-61674301D02*
X132904693Y-61675201D01*
X132910643Y-61676691D01*
X132916418Y-61678758D01*
X132921962Y-61681380D01*
X132927223Y-61684533D01*
X132932150Y-61688187D01*
X132936694Y-61692306D01*
X132940813Y-61696850D01*
X132944467Y-61701777D01*
X132947620Y-61707038D01*
X132950242Y-61712582D01*
X132952309Y-61718357D01*
X132953799Y-61724307D01*
X132954699Y-61730374D01*
X132955000Y-61736500D01*
X132955000Y-62486500D01*
X132954699Y-62492626D01*
X132953799Y-62498693D01*
X132952309Y-62504643D01*
X132950242Y-62510418D01*
X132947620Y-62515962D01*
X132944467Y-62521223D01*
X132940813Y-62526150D01*
X132936694Y-62530694D01*
X132932150Y-62534813D01*
X132927223Y-62538467D01*
X132921962Y-62541620D01*
X132916418Y-62544242D01*
X132910643Y-62546309D01*
X132904693Y-62547799D01*
X132898626Y-62548699D01*
X132892500Y-62549000D01*
X132767500Y-62549000D01*
X132761374Y-62548699D01*
X132755307Y-62547799D01*
X132749357Y-62546309D01*
X132743582Y-62544242D01*
X132738038Y-62541620D01*
X132732777Y-62538467D01*
X132727850Y-62534813D01*
X132723306Y-62530694D01*
X132719187Y-62526150D01*
X132715533Y-62521223D01*
X132712380Y-62515962D01*
X132709758Y-62510418D01*
X132707691Y-62504643D01*
X132706201Y-62498693D01*
X132705301Y-62492626D01*
X132705000Y-62486500D01*
X132705000Y-61736500D01*
X132705301Y-61730374D01*
X132706201Y-61724307D01*
X132707691Y-61718357D01*
X132709758Y-61712582D01*
X132712380Y-61707038D01*
X132715533Y-61701777D01*
X132719187Y-61696850D01*
X132723306Y-61692306D01*
X132727850Y-61688187D01*
X132732777Y-61684533D01*
X132738038Y-61681380D01*
X132743582Y-61678758D01*
X132749357Y-61676691D01*
X132755307Y-61675201D01*
X132761374Y-61674301D01*
X132767500Y-61674000D01*
X132892500Y-61674000D01*
X132898626Y-61674301D01*
X132898626Y-61674301D01*
G37*
D17*
X132830000Y-62111500D03*
D10*
G36*
X133398626Y-61674301D02*
X133404693Y-61675201D01*
X133410643Y-61676691D01*
X133416418Y-61678758D01*
X133421962Y-61681380D01*
X133427223Y-61684533D01*
X133432150Y-61688187D01*
X133436694Y-61692306D01*
X133440813Y-61696850D01*
X133444467Y-61701777D01*
X133447620Y-61707038D01*
X133450242Y-61712582D01*
X133452309Y-61718357D01*
X133453799Y-61724307D01*
X133454699Y-61730374D01*
X133455000Y-61736500D01*
X133455000Y-62486500D01*
X133454699Y-62492626D01*
X133453799Y-62498693D01*
X133452309Y-62504643D01*
X133450242Y-62510418D01*
X133447620Y-62515962D01*
X133444467Y-62521223D01*
X133440813Y-62526150D01*
X133436694Y-62530694D01*
X133432150Y-62534813D01*
X133427223Y-62538467D01*
X133421962Y-62541620D01*
X133416418Y-62544242D01*
X133410643Y-62546309D01*
X133404693Y-62547799D01*
X133398626Y-62548699D01*
X133392500Y-62549000D01*
X133267500Y-62549000D01*
X133261374Y-62548699D01*
X133255307Y-62547799D01*
X133249357Y-62546309D01*
X133243582Y-62544242D01*
X133238038Y-62541620D01*
X133232777Y-62538467D01*
X133227850Y-62534813D01*
X133223306Y-62530694D01*
X133219187Y-62526150D01*
X133215533Y-62521223D01*
X133212380Y-62515962D01*
X133209758Y-62510418D01*
X133207691Y-62504643D01*
X133206201Y-62498693D01*
X133205301Y-62492626D01*
X133205000Y-62486500D01*
X133205000Y-61736500D01*
X133205301Y-61730374D01*
X133206201Y-61724307D01*
X133207691Y-61718357D01*
X133209758Y-61712582D01*
X133212380Y-61707038D01*
X133215533Y-61701777D01*
X133219187Y-61696850D01*
X133223306Y-61692306D01*
X133227850Y-61688187D01*
X133232777Y-61684533D01*
X133238038Y-61681380D01*
X133243582Y-61678758D01*
X133249357Y-61676691D01*
X133255307Y-61675201D01*
X133261374Y-61674301D01*
X133267500Y-61674000D01*
X133392500Y-61674000D01*
X133398626Y-61674301D01*
X133398626Y-61674301D01*
G37*
D17*
X133330000Y-62111500D03*
D10*
G36*
X133898626Y-61674301D02*
X133904693Y-61675201D01*
X133910643Y-61676691D01*
X133916418Y-61678758D01*
X133921962Y-61681380D01*
X133927223Y-61684533D01*
X133932150Y-61688187D01*
X133936694Y-61692306D01*
X133940813Y-61696850D01*
X133944467Y-61701777D01*
X133947620Y-61707038D01*
X133950242Y-61712582D01*
X133952309Y-61718357D01*
X133953799Y-61724307D01*
X133954699Y-61730374D01*
X133955000Y-61736500D01*
X133955000Y-62486500D01*
X133954699Y-62492626D01*
X133953799Y-62498693D01*
X133952309Y-62504643D01*
X133950242Y-62510418D01*
X133947620Y-62515962D01*
X133944467Y-62521223D01*
X133940813Y-62526150D01*
X133936694Y-62530694D01*
X133932150Y-62534813D01*
X133927223Y-62538467D01*
X133921962Y-62541620D01*
X133916418Y-62544242D01*
X133910643Y-62546309D01*
X133904693Y-62547799D01*
X133898626Y-62548699D01*
X133892500Y-62549000D01*
X133767500Y-62549000D01*
X133761374Y-62548699D01*
X133755307Y-62547799D01*
X133749357Y-62546309D01*
X133743582Y-62544242D01*
X133738038Y-62541620D01*
X133732777Y-62538467D01*
X133727850Y-62534813D01*
X133723306Y-62530694D01*
X133719187Y-62526150D01*
X133715533Y-62521223D01*
X133712380Y-62515962D01*
X133709758Y-62510418D01*
X133707691Y-62504643D01*
X133706201Y-62498693D01*
X133705301Y-62492626D01*
X133705000Y-62486500D01*
X133705000Y-61736500D01*
X133705301Y-61730374D01*
X133706201Y-61724307D01*
X133707691Y-61718357D01*
X133709758Y-61712582D01*
X133712380Y-61707038D01*
X133715533Y-61701777D01*
X133719187Y-61696850D01*
X133723306Y-61692306D01*
X133727850Y-61688187D01*
X133732777Y-61684533D01*
X133738038Y-61681380D01*
X133743582Y-61678758D01*
X133749357Y-61676691D01*
X133755307Y-61675201D01*
X133761374Y-61674301D01*
X133767500Y-61674000D01*
X133892500Y-61674000D01*
X133898626Y-61674301D01*
X133898626Y-61674301D01*
G37*
D17*
X133830000Y-62111500D03*
D10*
G36*
X134398626Y-61674301D02*
X134404693Y-61675201D01*
X134410643Y-61676691D01*
X134416418Y-61678758D01*
X134421962Y-61681380D01*
X134427223Y-61684533D01*
X134432150Y-61688187D01*
X134436694Y-61692306D01*
X134440813Y-61696850D01*
X134444467Y-61701777D01*
X134447620Y-61707038D01*
X134450242Y-61712582D01*
X134452309Y-61718357D01*
X134453799Y-61724307D01*
X134454699Y-61730374D01*
X134455000Y-61736500D01*
X134455000Y-62486500D01*
X134454699Y-62492626D01*
X134453799Y-62498693D01*
X134452309Y-62504643D01*
X134450242Y-62510418D01*
X134447620Y-62515962D01*
X134444467Y-62521223D01*
X134440813Y-62526150D01*
X134436694Y-62530694D01*
X134432150Y-62534813D01*
X134427223Y-62538467D01*
X134421962Y-62541620D01*
X134416418Y-62544242D01*
X134410643Y-62546309D01*
X134404693Y-62547799D01*
X134398626Y-62548699D01*
X134392500Y-62549000D01*
X134267500Y-62549000D01*
X134261374Y-62548699D01*
X134255307Y-62547799D01*
X134249357Y-62546309D01*
X134243582Y-62544242D01*
X134238038Y-62541620D01*
X134232777Y-62538467D01*
X134227850Y-62534813D01*
X134223306Y-62530694D01*
X134219187Y-62526150D01*
X134215533Y-62521223D01*
X134212380Y-62515962D01*
X134209758Y-62510418D01*
X134207691Y-62504643D01*
X134206201Y-62498693D01*
X134205301Y-62492626D01*
X134205000Y-62486500D01*
X134205000Y-61736500D01*
X134205301Y-61730374D01*
X134206201Y-61724307D01*
X134207691Y-61718357D01*
X134209758Y-61712582D01*
X134212380Y-61707038D01*
X134215533Y-61701777D01*
X134219187Y-61696850D01*
X134223306Y-61692306D01*
X134227850Y-61688187D01*
X134232777Y-61684533D01*
X134238038Y-61681380D01*
X134243582Y-61678758D01*
X134249357Y-61676691D01*
X134255307Y-61675201D01*
X134261374Y-61674301D01*
X134267500Y-61674000D01*
X134392500Y-61674000D01*
X134398626Y-61674301D01*
X134398626Y-61674301D01*
G37*
D17*
X134330000Y-62111500D03*
D10*
G36*
X134898626Y-61674301D02*
X134904693Y-61675201D01*
X134910643Y-61676691D01*
X134916418Y-61678758D01*
X134921962Y-61681380D01*
X134927223Y-61684533D01*
X134932150Y-61688187D01*
X134936694Y-61692306D01*
X134940813Y-61696850D01*
X134944467Y-61701777D01*
X134947620Y-61707038D01*
X134950242Y-61712582D01*
X134952309Y-61718357D01*
X134953799Y-61724307D01*
X134954699Y-61730374D01*
X134955000Y-61736500D01*
X134955000Y-62486500D01*
X134954699Y-62492626D01*
X134953799Y-62498693D01*
X134952309Y-62504643D01*
X134950242Y-62510418D01*
X134947620Y-62515962D01*
X134944467Y-62521223D01*
X134940813Y-62526150D01*
X134936694Y-62530694D01*
X134932150Y-62534813D01*
X134927223Y-62538467D01*
X134921962Y-62541620D01*
X134916418Y-62544242D01*
X134910643Y-62546309D01*
X134904693Y-62547799D01*
X134898626Y-62548699D01*
X134892500Y-62549000D01*
X134767500Y-62549000D01*
X134761374Y-62548699D01*
X134755307Y-62547799D01*
X134749357Y-62546309D01*
X134743582Y-62544242D01*
X134738038Y-62541620D01*
X134732777Y-62538467D01*
X134727850Y-62534813D01*
X134723306Y-62530694D01*
X134719187Y-62526150D01*
X134715533Y-62521223D01*
X134712380Y-62515962D01*
X134709758Y-62510418D01*
X134707691Y-62504643D01*
X134706201Y-62498693D01*
X134705301Y-62492626D01*
X134705000Y-62486500D01*
X134705000Y-61736500D01*
X134705301Y-61730374D01*
X134706201Y-61724307D01*
X134707691Y-61718357D01*
X134709758Y-61712582D01*
X134712380Y-61707038D01*
X134715533Y-61701777D01*
X134719187Y-61696850D01*
X134723306Y-61692306D01*
X134727850Y-61688187D01*
X134732777Y-61684533D01*
X134738038Y-61681380D01*
X134743582Y-61678758D01*
X134749357Y-61676691D01*
X134755307Y-61675201D01*
X134761374Y-61674301D01*
X134767500Y-61674000D01*
X134892500Y-61674000D01*
X134898626Y-61674301D01*
X134898626Y-61674301D01*
G37*
D17*
X134830000Y-62111500D03*
D10*
G36*
X135898626Y-61299301D02*
X135904693Y-61300201D01*
X135910643Y-61301691D01*
X135916418Y-61303758D01*
X135921962Y-61306380D01*
X135927223Y-61309533D01*
X135932150Y-61313187D01*
X135936694Y-61317306D01*
X135940813Y-61321850D01*
X135944467Y-61326777D01*
X135947620Y-61332038D01*
X135950242Y-61337582D01*
X135952309Y-61343357D01*
X135953799Y-61349307D01*
X135954699Y-61355374D01*
X135955000Y-61361500D01*
X135955000Y-61486500D01*
X135954699Y-61492626D01*
X135953799Y-61498693D01*
X135952309Y-61504643D01*
X135950242Y-61510418D01*
X135947620Y-61515962D01*
X135944467Y-61521223D01*
X135940813Y-61526150D01*
X135936694Y-61530694D01*
X135932150Y-61534813D01*
X135927223Y-61538467D01*
X135921962Y-61541620D01*
X135916418Y-61544242D01*
X135910643Y-61546309D01*
X135904693Y-61547799D01*
X135898626Y-61548699D01*
X135892500Y-61549000D01*
X135142500Y-61549000D01*
X135136374Y-61548699D01*
X135130307Y-61547799D01*
X135124357Y-61546309D01*
X135118582Y-61544242D01*
X135113038Y-61541620D01*
X135107777Y-61538467D01*
X135102850Y-61534813D01*
X135098306Y-61530694D01*
X135094187Y-61526150D01*
X135090533Y-61521223D01*
X135087380Y-61515962D01*
X135084758Y-61510418D01*
X135082691Y-61504643D01*
X135081201Y-61498693D01*
X135080301Y-61492626D01*
X135080000Y-61486500D01*
X135080000Y-61361500D01*
X135080301Y-61355374D01*
X135081201Y-61349307D01*
X135082691Y-61343357D01*
X135084758Y-61337582D01*
X135087380Y-61332038D01*
X135090533Y-61326777D01*
X135094187Y-61321850D01*
X135098306Y-61317306D01*
X135102850Y-61313187D01*
X135107777Y-61309533D01*
X135113038Y-61306380D01*
X135118582Y-61303758D01*
X135124357Y-61301691D01*
X135130307Y-61300201D01*
X135136374Y-61299301D01*
X135142500Y-61299000D01*
X135892500Y-61299000D01*
X135898626Y-61299301D01*
X135898626Y-61299301D01*
G37*
D17*
X135517500Y-61424000D03*
D10*
G36*
X135898626Y-60799301D02*
X135904693Y-60800201D01*
X135910643Y-60801691D01*
X135916418Y-60803758D01*
X135921962Y-60806380D01*
X135927223Y-60809533D01*
X135932150Y-60813187D01*
X135936694Y-60817306D01*
X135940813Y-60821850D01*
X135944467Y-60826777D01*
X135947620Y-60832038D01*
X135950242Y-60837582D01*
X135952309Y-60843357D01*
X135953799Y-60849307D01*
X135954699Y-60855374D01*
X135955000Y-60861500D01*
X135955000Y-60986500D01*
X135954699Y-60992626D01*
X135953799Y-60998693D01*
X135952309Y-61004643D01*
X135950242Y-61010418D01*
X135947620Y-61015962D01*
X135944467Y-61021223D01*
X135940813Y-61026150D01*
X135936694Y-61030694D01*
X135932150Y-61034813D01*
X135927223Y-61038467D01*
X135921962Y-61041620D01*
X135916418Y-61044242D01*
X135910643Y-61046309D01*
X135904693Y-61047799D01*
X135898626Y-61048699D01*
X135892500Y-61049000D01*
X135142500Y-61049000D01*
X135136374Y-61048699D01*
X135130307Y-61047799D01*
X135124357Y-61046309D01*
X135118582Y-61044242D01*
X135113038Y-61041620D01*
X135107777Y-61038467D01*
X135102850Y-61034813D01*
X135098306Y-61030694D01*
X135094187Y-61026150D01*
X135090533Y-61021223D01*
X135087380Y-61015962D01*
X135084758Y-61010418D01*
X135082691Y-61004643D01*
X135081201Y-60998693D01*
X135080301Y-60992626D01*
X135080000Y-60986500D01*
X135080000Y-60861500D01*
X135080301Y-60855374D01*
X135081201Y-60849307D01*
X135082691Y-60843357D01*
X135084758Y-60837582D01*
X135087380Y-60832038D01*
X135090533Y-60826777D01*
X135094187Y-60821850D01*
X135098306Y-60817306D01*
X135102850Y-60813187D01*
X135107777Y-60809533D01*
X135113038Y-60806380D01*
X135118582Y-60803758D01*
X135124357Y-60801691D01*
X135130307Y-60800201D01*
X135136374Y-60799301D01*
X135142500Y-60799000D01*
X135892500Y-60799000D01*
X135898626Y-60799301D01*
X135898626Y-60799301D01*
G37*
D17*
X135517500Y-60924000D03*
D10*
G36*
X135898626Y-60299301D02*
X135904693Y-60300201D01*
X135910643Y-60301691D01*
X135916418Y-60303758D01*
X135921962Y-60306380D01*
X135927223Y-60309533D01*
X135932150Y-60313187D01*
X135936694Y-60317306D01*
X135940813Y-60321850D01*
X135944467Y-60326777D01*
X135947620Y-60332038D01*
X135950242Y-60337582D01*
X135952309Y-60343357D01*
X135953799Y-60349307D01*
X135954699Y-60355374D01*
X135955000Y-60361500D01*
X135955000Y-60486500D01*
X135954699Y-60492626D01*
X135953799Y-60498693D01*
X135952309Y-60504643D01*
X135950242Y-60510418D01*
X135947620Y-60515962D01*
X135944467Y-60521223D01*
X135940813Y-60526150D01*
X135936694Y-60530694D01*
X135932150Y-60534813D01*
X135927223Y-60538467D01*
X135921962Y-60541620D01*
X135916418Y-60544242D01*
X135910643Y-60546309D01*
X135904693Y-60547799D01*
X135898626Y-60548699D01*
X135892500Y-60549000D01*
X135142500Y-60549000D01*
X135136374Y-60548699D01*
X135130307Y-60547799D01*
X135124357Y-60546309D01*
X135118582Y-60544242D01*
X135113038Y-60541620D01*
X135107777Y-60538467D01*
X135102850Y-60534813D01*
X135098306Y-60530694D01*
X135094187Y-60526150D01*
X135090533Y-60521223D01*
X135087380Y-60515962D01*
X135084758Y-60510418D01*
X135082691Y-60504643D01*
X135081201Y-60498693D01*
X135080301Y-60492626D01*
X135080000Y-60486500D01*
X135080000Y-60361500D01*
X135080301Y-60355374D01*
X135081201Y-60349307D01*
X135082691Y-60343357D01*
X135084758Y-60337582D01*
X135087380Y-60332038D01*
X135090533Y-60326777D01*
X135094187Y-60321850D01*
X135098306Y-60317306D01*
X135102850Y-60313187D01*
X135107777Y-60309533D01*
X135113038Y-60306380D01*
X135118582Y-60303758D01*
X135124357Y-60301691D01*
X135130307Y-60300201D01*
X135136374Y-60299301D01*
X135142500Y-60299000D01*
X135892500Y-60299000D01*
X135898626Y-60299301D01*
X135898626Y-60299301D01*
G37*
D17*
X135517500Y-60424000D03*
D10*
G36*
X135898626Y-59799301D02*
X135904693Y-59800201D01*
X135910643Y-59801691D01*
X135916418Y-59803758D01*
X135921962Y-59806380D01*
X135927223Y-59809533D01*
X135932150Y-59813187D01*
X135936694Y-59817306D01*
X135940813Y-59821850D01*
X135944467Y-59826777D01*
X135947620Y-59832038D01*
X135950242Y-59837582D01*
X135952309Y-59843357D01*
X135953799Y-59849307D01*
X135954699Y-59855374D01*
X135955000Y-59861500D01*
X135955000Y-59986500D01*
X135954699Y-59992626D01*
X135953799Y-59998693D01*
X135952309Y-60004643D01*
X135950242Y-60010418D01*
X135947620Y-60015962D01*
X135944467Y-60021223D01*
X135940813Y-60026150D01*
X135936694Y-60030694D01*
X135932150Y-60034813D01*
X135927223Y-60038467D01*
X135921962Y-60041620D01*
X135916418Y-60044242D01*
X135910643Y-60046309D01*
X135904693Y-60047799D01*
X135898626Y-60048699D01*
X135892500Y-60049000D01*
X135142500Y-60049000D01*
X135136374Y-60048699D01*
X135130307Y-60047799D01*
X135124357Y-60046309D01*
X135118582Y-60044242D01*
X135113038Y-60041620D01*
X135107777Y-60038467D01*
X135102850Y-60034813D01*
X135098306Y-60030694D01*
X135094187Y-60026150D01*
X135090533Y-60021223D01*
X135087380Y-60015962D01*
X135084758Y-60010418D01*
X135082691Y-60004643D01*
X135081201Y-59998693D01*
X135080301Y-59992626D01*
X135080000Y-59986500D01*
X135080000Y-59861500D01*
X135080301Y-59855374D01*
X135081201Y-59849307D01*
X135082691Y-59843357D01*
X135084758Y-59837582D01*
X135087380Y-59832038D01*
X135090533Y-59826777D01*
X135094187Y-59821850D01*
X135098306Y-59817306D01*
X135102850Y-59813187D01*
X135107777Y-59809533D01*
X135113038Y-59806380D01*
X135118582Y-59803758D01*
X135124357Y-59801691D01*
X135130307Y-59800201D01*
X135136374Y-59799301D01*
X135142500Y-59799000D01*
X135892500Y-59799000D01*
X135898626Y-59799301D01*
X135898626Y-59799301D01*
G37*
D17*
X135517500Y-59924000D03*
D10*
G36*
X135898626Y-59299301D02*
X135904693Y-59300201D01*
X135910643Y-59301691D01*
X135916418Y-59303758D01*
X135921962Y-59306380D01*
X135927223Y-59309533D01*
X135932150Y-59313187D01*
X135936694Y-59317306D01*
X135940813Y-59321850D01*
X135944467Y-59326777D01*
X135947620Y-59332038D01*
X135950242Y-59337582D01*
X135952309Y-59343357D01*
X135953799Y-59349307D01*
X135954699Y-59355374D01*
X135955000Y-59361500D01*
X135955000Y-59486500D01*
X135954699Y-59492626D01*
X135953799Y-59498693D01*
X135952309Y-59504643D01*
X135950242Y-59510418D01*
X135947620Y-59515962D01*
X135944467Y-59521223D01*
X135940813Y-59526150D01*
X135936694Y-59530694D01*
X135932150Y-59534813D01*
X135927223Y-59538467D01*
X135921962Y-59541620D01*
X135916418Y-59544242D01*
X135910643Y-59546309D01*
X135904693Y-59547799D01*
X135898626Y-59548699D01*
X135892500Y-59549000D01*
X135142500Y-59549000D01*
X135136374Y-59548699D01*
X135130307Y-59547799D01*
X135124357Y-59546309D01*
X135118582Y-59544242D01*
X135113038Y-59541620D01*
X135107777Y-59538467D01*
X135102850Y-59534813D01*
X135098306Y-59530694D01*
X135094187Y-59526150D01*
X135090533Y-59521223D01*
X135087380Y-59515962D01*
X135084758Y-59510418D01*
X135082691Y-59504643D01*
X135081201Y-59498693D01*
X135080301Y-59492626D01*
X135080000Y-59486500D01*
X135080000Y-59361500D01*
X135080301Y-59355374D01*
X135081201Y-59349307D01*
X135082691Y-59343357D01*
X135084758Y-59337582D01*
X135087380Y-59332038D01*
X135090533Y-59326777D01*
X135094187Y-59321850D01*
X135098306Y-59317306D01*
X135102850Y-59313187D01*
X135107777Y-59309533D01*
X135113038Y-59306380D01*
X135118582Y-59303758D01*
X135124357Y-59301691D01*
X135130307Y-59300201D01*
X135136374Y-59299301D01*
X135142500Y-59299000D01*
X135892500Y-59299000D01*
X135898626Y-59299301D01*
X135898626Y-59299301D01*
G37*
D17*
X135517500Y-59424000D03*
D10*
G36*
X135898626Y-58799301D02*
X135904693Y-58800201D01*
X135910643Y-58801691D01*
X135916418Y-58803758D01*
X135921962Y-58806380D01*
X135927223Y-58809533D01*
X135932150Y-58813187D01*
X135936694Y-58817306D01*
X135940813Y-58821850D01*
X135944467Y-58826777D01*
X135947620Y-58832038D01*
X135950242Y-58837582D01*
X135952309Y-58843357D01*
X135953799Y-58849307D01*
X135954699Y-58855374D01*
X135955000Y-58861500D01*
X135955000Y-58986500D01*
X135954699Y-58992626D01*
X135953799Y-58998693D01*
X135952309Y-59004643D01*
X135950242Y-59010418D01*
X135947620Y-59015962D01*
X135944467Y-59021223D01*
X135940813Y-59026150D01*
X135936694Y-59030694D01*
X135932150Y-59034813D01*
X135927223Y-59038467D01*
X135921962Y-59041620D01*
X135916418Y-59044242D01*
X135910643Y-59046309D01*
X135904693Y-59047799D01*
X135898626Y-59048699D01*
X135892500Y-59049000D01*
X135142500Y-59049000D01*
X135136374Y-59048699D01*
X135130307Y-59047799D01*
X135124357Y-59046309D01*
X135118582Y-59044242D01*
X135113038Y-59041620D01*
X135107777Y-59038467D01*
X135102850Y-59034813D01*
X135098306Y-59030694D01*
X135094187Y-59026150D01*
X135090533Y-59021223D01*
X135087380Y-59015962D01*
X135084758Y-59010418D01*
X135082691Y-59004643D01*
X135081201Y-58998693D01*
X135080301Y-58992626D01*
X135080000Y-58986500D01*
X135080000Y-58861500D01*
X135080301Y-58855374D01*
X135081201Y-58849307D01*
X135082691Y-58843357D01*
X135084758Y-58837582D01*
X135087380Y-58832038D01*
X135090533Y-58826777D01*
X135094187Y-58821850D01*
X135098306Y-58817306D01*
X135102850Y-58813187D01*
X135107777Y-58809533D01*
X135113038Y-58806380D01*
X135118582Y-58803758D01*
X135124357Y-58801691D01*
X135130307Y-58800201D01*
X135136374Y-58799301D01*
X135142500Y-58799000D01*
X135892500Y-58799000D01*
X135898626Y-58799301D01*
X135898626Y-58799301D01*
G37*
D17*
X135517500Y-58924000D03*
D10*
G36*
X135898626Y-58299301D02*
X135904693Y-58300201D01*
X135910643Y-58301691D01*
X135916418Y-58303758D01*
X135921962Y-58306380D01*
X135927223Y-58309533D01*
X135932150Y-58313187D01*
X135936694Y-58317306D01*
X135940813Y-58321850D01*
X135944467Y-58326777D01*
X135947620Y-58332038D01*
X135950242Y-58337582D01*
X135952309Y-58343357D01*
X135953799Y-58349307D01*
X135954699Y-58355374D01*
X135955000Y-58361500D01*
X135955000Y-58486500D01*
X135954699Y-58492626D01*
X135953799Y-58498693D01*
X135952309Y-58504643D01*
X135950242Y-58510418D01*
X135947620Y-58515962D01*
X135944467Y-58521223D01*
X135940813Y-58526150D01*
X135936694Y-58530694D01*
X135932150Y-58534813D01*
X135927223Y-58538467D01*
X135921962Y-58541620D01*
X135916418Y-58544242D01*
X135910643Y-58546309D01*
X135904693Y-58547799D01*
X135898626Y-58548699D01*
X135892500Y-58549000D01*
X135142500Y-58549000D01*
X135136374Y-58548699D01*
X135130307Y-58547799D01*
X135124357Y-58546309D01*
X135118582Y-58544242D01*
X135113038Y-58541620D01*
X135107777Y-58538467D01*
X135102850Y-58534813D01*
X135098306Y-58530694D01*
X135094187Y-58526150D01*
X135090533Y-58521223D01*
X135087380Y-58515962D01*
X135084758Y-58510418D01*
X135082691Y-58504643D01*
X135081201Y-58498693D01*
X135080301Y-58492626D01*
X135080000Y-58486500D01*
X135080000Y-58361500D01*
X135080301Y-58355374D01*
X135081201Y-58349307D01*
X135082691Y-58343357D01*
X135084758Y-58337582D01*
X135087380Y-58332038D01*
X135090533Y-58326777D01*
X135094187Y-58321850D01*
X135098306Y-58317306D01*
X135102850Y-58313187D01*
X135107777Y-58309533D01*
X135113038Y-58306380D01*
X135118582Y-58303758D01*
X135124357Y-58301691D01*
X135130307Y-58300201D01*
X135136374Y-58299301D01*
X135142500Y-58299000D01*
X135892500Y-58299000D01*
X135898626Y-58299301D01*
X135898626Y-58299301D01*
G37*
D17*
X135517500Y-58424000D03*
D10*
G36*
X135898626Y-57799301D02*
X135904693Y-57800201D01*
X135910643Y-57801691D01*
X135916418Y-57803758D01*
X135921962Y-57806380D01*
X135927223Y-57809533D01*
X135932150Y-57813187D01*
X135936694Y-57817306D01*
X135940813Y-57821850D01*
X135944467Y-57826777D01*
X135947620Y-57832038D01*
X135950242Y-57837582D01*
X135952309Y-57843357D01*
X135953799Y-57849307D01*
X135954699Y-57855374D01*
X135955000Y-57861500D01*
X135955000Y-57986500D01*
X135954699Y-57992626D01*
X135953799Y-57998693D01*
X135952309Y-58004643D01*
X135950242Y-58010418D01*
X135947620Y-58015962D01*
X135944467Y-58021223D01*
X135940813Y-58026150D01*
X135936694Y-58030694D01*
X135932150Y-58034813D01*
X135927223Y-58038467D01*
X135921962Y-58041620D01*
X135916418Y-58044242D01*
X135910643Y-58046309D01*
X135904693Y-58047799D01*
X135898626Y-58048699D01*
X135892500Y-58049000D01*
X135142500Y-58049000D01*
X135136374Y-58048699D01*
X135130307Y-58047799D01*
X135124357Y-58046309D01*
X135118582Y-58044242D01*
X135113038Y-58041620D01*
X135107777Y-58038467D01*
X135102850Y-58034813D01*
X135098306Y-58030694D01*
X135094187Y-58026150D01*
X135090533Y-58021223D01*
X135087380Y-58015962D01*
X135084758Y-58010418D01*
X135082691Y-58004643D01*
X135081201Y-57998693D01*
X135080301Y-57992626D01*
X135080000Y-57986500D01*
X135080000Y-57861500D01*
X135080301Y-57855374D01*
X135081201Y-57849307D01*
X135082691Y-57843357D01*
X135084758Y-57837582D01*
X135087380Y-57832038D01*
X135090533Y-57826777D01*
X135094187Y-57821850D01*
X135098306Y-57817306D01*
X135102850Y-57813187D01*
X135107777Y-57809533D01*
X135113038Y-57806380D01*
X135118582Y-57803758D01*
X135124357Y-57801691D01*
X135130307Y-57800201D01*
X135136374Y-57799301D01*
X135142500Y-57799000D01*
X135892500Y-57799000D01*
X135898626Y-57799301D01*
X135898626Y-57799301D01*
G37*
D17*
X135517500Y-57924000D03*
D10*
G36*
X135898626Y-57299301D02*
X135904693Y-57300201D01*
X135910643Y-57301691D01*
X135916418Y-57303758D01*
X135921962Y-57306380D01*
X135927223Y-57309533D01*
X135932150Y-57313187D01*
X135936694Y-57317306D01*
X135940813Y-57321850D01*
X135944467Y-57326777D01*
X135947620Y-57332038D01*
X135950242Y-57337582D01*
X135952309Y-57343357D01*
X135953799Y-57349307D01*
X135954699Y-57355374D01*
X135955000Y-57361500D01*
X135955000Y-57486500D01*
X135954699Y-57492626D01*
X135953799Y-57498693D01*
X135952309Y-57504643D01*
X135950242Y-57510418D01*
X135947620Y-57515962D01*
X135944467Y-57521223D01*
X135940813Y-57526150D01*
X135936694Y-57530694D01*
X135932150Y-57534813D01*
X135927223Y-57538467D01*
X135921962Y-57541620D01*
X135916418Y-57544242D01*
X135910643Y-57546309D01*
X135904693Y-57547799D01*
X135898626Y-57548699D01*
X135892500Y-57549000D01*
X135142500Y-57549000D01*
X135136374Y-57548699D01*
X135130307Y-57547799D01*
X135124357Y-57546309D01*
X135118582Y-57544242D01*
X135113038Y-57541620D01*
X135107777Y-57538467D01*
X135102850Y-57534813D01*
X135098306Y-57530694D01*
X135094187Y-57526150D01*
X135090533Y-57521223D01*
X135087380Y-57515962D01*
X135084758Y-57510418D01*
X135082691Y-57504643D01*
X135081201Y-57498693D01*
X135080301Y-57492626D01*
X135080000Y-57486500D01*
X135080000Y-57361500D01*
X135080301Y-57355374D01*
X135081201Y-57349307D01*
X135082691Y-57343357D01*
X135084758Y-57337582D01*
X135087380Y-57332038D01*
X135090533Y-57326777D01*
X135094187Y-57321850D01*
X135098306Y-57317306D01*
X135102850Y-57313187D01*
X135107777Y-57309533D01*
X135113038Y-57306380D01*
X135118582Y-57303758D01*
X135124357Y-57301691D01*
X135130307Y-57300201D01*
X135136374Y-57299301D01*
X135142500Y-57299000D01*
X135892500Y-57299000D01*
X135898626Y-57299301D01*
X135898626Y-57299301D01*
G37*
D17*
X135517500Y-57424000D03*
D10*
G36*
X135898626Y-56799301D02*
X135904693Y-56800201D01*
X135910643Y-56801691D01*
X135916418Y-56803758D01*
X135921962Y-56806380D01*
X135927223Y-56809533D01*
X135932150Y-56813187D01*
X135936694Y-56817306D01*
X135940813Y-56821850D01*
X135944467Y-56826777D01*
X135947620Y-56832038D01*
X135950242Y-56837582D01*
X135952309Y-56843357D01*
X135953799Y-56849307D01*
X135954699Y-56855374D01*
X135955000Y-56861500D01*
X135955000Y-56986500D01*
X135954699Y-56992626D01*
X135953799Y-56998693D01*
X135952309Y-57004643D01*
X135950242Y-57010418D01*
X135947620Y-57015962D01*
X135944467Y-57021223D01*
X135940813Y-57026150D01*
X135936694Y-57030694D01*
X135932150Y-57034813D01*
X135927223Y-57038467D01*
X135921962Y-57041620D01*
X135916418Y-57044242D01*
X135910643Y-57046309D01*
X135904693Y-57047799D01*
X135898626Y-57048699D01*
X135892500Y-57049000D01*
X135142500Y-57049000D01*
X135136374Y-57048699D01*
X135130307Y-57047799D01*
X135124357Y-57046309D01*
X135118582Y-57044242D01*
X135113038Y-57041620D01*
X135107777Y-57038467D01*
X135102850Y-57034813D01*
X135098306Y-57030694D01*
X135094187Y-57026150D01*
X135090533Y-57021223D01*
X135087380Y-57015962D01*
X135084758Y-57010418D01*
X135082691Y-57004643D01*
X135081201Y-56998693D01*
X135080301Y-56992626D01*
X135080000Y-56986500D01*
X135080000Y-56861500D01*
X135080301Y-56855374D01*
X135081201Y-56849307D01*
X135082691Y-56843357D01*
X135084758Y-56837582D01*
X135087380Y-56832038D01*
X135090533Y-56826777D01*
X135094187Y-56821850D01*
X135098306Y-56817306D01*
X135102850Y-56813187D01*
X135107777Y-56809533D01*
X135113038Y-56806380D01*
X135118582Y-56803758D01*
X135124357Y-56801691D01*
X135130307Y-56800201D01*
X135136374Y-56799301D01*
X135142500Y-56799000D01*
X135892500Y-56799000D01*
X135898626Y-56799301D01*
X135898626Y-56799301D01*
G37*
D17*
X135517500Y-56924000D03*
D10*
G36*
X135898626Y-56299301D02*
X135904693Y-56300201D01*
X135910643Y-56301691D01*
X135916418Y-56303758D01*
X135921962Y-56306380D01*
X135927223Y-56309533D01*
X135932150Y-56313187D01*
X135936694Y-56317306D01*
X135940813Y-56321850D01*
X135944467Y-56326777D01*
X135947620Y-56332038D01*
X135950242Y-56337582D01*
X135952309Y-56343357D01*
X135953799Y-56349307D01*
X135954699Y-56355374D01*
X135955000Y-56361500D01*
X135955000Y-56486500D01*
X135954699Y-56492626D01*
X135953799Y-56498693D01*
X135952309Y-56504643D01*
X135950242Y-56510418D01*
X135947620Y-56515962D01*
X135944467Y-56521223D01*
X135940813Y-56526150D01*
X135936694Y-56530694D01*
X135932150Y-56534813D01*
X135927223Y-56538467D01*
X135921962Y-56541620D01*
X135916418Y-56544242D01*
X135910643Y-56546309D01*
X135904693Y-56547799D01*
X135898626Y-56548699D01*
X135892500Y-56549000D01*
X135142500Y-56549000D01*
X135136374Y-56548699D01*
X135130307Y-56547799D01*
X135124357Y-56546309D01*
X135118582Y-56544242D01*
X135113038Y-56541620D01*
X135107777Y-56538467D01*
X135102850Y-56534813D01*
X135098306Y-56530694D01*
X135094187Y-56526150D01*
X135090533Y-56521223D01*
X135087380Y-56515962D01*
X135084758Y-56510418D01*
X135082691Y-56504643D01*
X135081201Y-56498693D01*
X135080301Y-56492626D01*
X135080000Y-56486500D01*
X135080000Y-56361500D01*
X135080301Y-56355374D01*
X135081201Y-56349307D01*
X135082691Y-56343357D01*
X135084758Y-56337582D01*
X135087380Y-56332038D01*
X135090533Y-56326777D01*
X135094187Y-56321850D01*
X135098306Y-56317306D01*
X135102850Y-56313187D01*
X135107777Y-56309533D01*
X135113038Y-56306380D01*
X135118582Y-56303758D01*
X135124357Y-56301691D01*
X135130307Y-56300201D01*
X135136374Y-56299301D01*
X135142500Y-56299000D01*
X135892500Y-56299000D01*
X135898626Y-56299301D01*
X135898626Y-56299301D01*
G37*
D17*
X135517500Y-56424000D03*
D10*
G36*
X135898626Y-55799301D02*
X135904693Y-55800201D01*
X135910643Y-55801691D01*
X135916418Y-55803758D01*
X135921962Y-55806380D01*
X135927223Y-55809533D01*
X135932150Y-55813187D01*
X135936694Y-55817306D01*
X135940813Y-55821850D01*
X135944467Y-55826777D01*
X135947620Y-55832038D01*
X135950242Y-55837582D01*
X135952309Y-55843357D01*
X135953799Y-55849307D01*
X135954699Y-55855374D01*
X135955000Y-55861500D01*
X135955000Y-55986500D01*
X135954699Y-55992626D01*
X135953799Y-55998693D01*
X135952309Y-56004643D01*
X135950242Y-56010418D01*
X135947620Y-56015962D01*
X135944467Y-56021223D01*
X135940813Y-56026150D01*
X135936694Y-56030694D01*
X135932150Y-56034813D01*
X135927223Y-56038467D01*
X135921962Y-56041620D01*
X135916418Y-56044242D01*
X135910643Y-56046309D01*
X135904693Y-56047799D01*
X135898626Y-56048699D01*
X135892500Y-56049000D01*
X135142500Y-56049000D01*
X135136374Y-56048699D01*
X135130307Y-56047799D01*
X135124357Y-56046309D01*
X135118582Y-56044242D01*
X135113038Y-56041620D01*
X135107777Y-56038467D01*
X135102850Y-56034813D01*
X135098306Y-56030694D01*
X135094187Y-56026150D01*
X135090533Y-56021223D01*
X135087380Y-56015962D01*
X135084758Y-56010418D01*
X135082691Y-56004643D01*
X135081201Y-55998693D01*
X135080301Y-55992626D01*
X135080000Y-55986500D01*
X135080000Y-55861500D01*
X135080301Y-55855374D01*
X135081201Y-55849307D01*
X135082691Y-55843357D01*
X135084758Y-55837582D01*
X135087380Y-55832038D01*
X135090533Y-55826777D01*
X135094187Y-55821850D01*
X135098306Y-55817306D01*
X135102850Y-55813187D01*
X135107777Y-55809533D01*
X135113038Y-55806380D01*
X135118582Y-55803758D01*
X135124357Y-55801691D01*
X135130307Y-55800201D01*
X135136374Y-55799301D01*
X135142500Y-55799000D01*
X135892500Y-55799000D01*
X135898626Y-55799301D01*
X135898626Y-55799301D01*
G37*
D17*
X135517500Y-55924000D03*
D10*
G36*
X134898626Y-54799301D02*
X134904693Y-54800201D01*
X134910643Y-54801691D01*
X134916418Y-54803758D01*
X134921962Y-54806380D01*
X134927223Y-54809533D01*
X134932150Y-54813187D01*
X134936694Y-54817306D01*
X134940813Y-54821850D01*
X134944467Y-54826777D01*
X134947620Y-54832038D01*
X134950242Y-54837582D01*
X134952309Y-54843357D01*
X134953799Y-54849307D01*
X134954699Y-54855374D01*
X134955000Y-54861500D01*
X134955000Y-55611500D01*
X134954699Y-55617626D01*
X134953799Y-55623693D01*
X134952309Y-55629643D01*
X134950242Y-55635418D01*
X134947620Y-55640962D01*
X134944467Y-55646223D01*
X134940813Y-55651150D01*
X134936694Y-55655694D01*
X134932150Y-55659813D01*
X134927223Y-55663467D01*
X134921962Y-55666620D01*
X134916418Y-55669242D01*
X134910643Y-55671309D01*
X134904693Y-55672799D01*
X134898626Y-55673699D01*
X134892500Y-55674000D01*
X134767500Y-55674000D01*
X134761374Y-55673699D01*
X134755307Y-55672799D01*
X134749357Y-55671309D01*
X134743582Y-55669242D01*
X134738038Y-55666620D01*
X134732777Y-55663467D01*
X134727850Y-55659813D01*
X134723306Y-55655694D01*
X134719187Y-55651150D01*
X134715533Y-55646223D01*
X134712380Y-55640962D01*
X134709758Y-55635418D01*
X134707691Y-55629643D01*
X134706201Y-55623693D01*
X134705301Y-55617626D01*
X134705000Y-55611500D01*
X134705000Y-54861500D01*
X134705301Y-54855374D01*
X134706201Y-54849307D01*
X134707691Y-54843357D01*
X134709758Y-54837582D01*
X134712380Y-54832038D01*
X134715533Y-54826777D01*
X134719187Y-54821850D01*
X134723306Y-54817306D01*
X134727850Y-54813187D01*
X134732777Y-54809533D01*
X134738038Y-54806380D01*
X134743582Y-54803758D01*
X134749357Y-54801691D01*
X134755307Y-54800201D01*
X134761374Y-54799301D01*
X134767500Y-54799000D01*
X134892500Y-54799000D01*
X134898626Y-54799301D01*
X134898626Y-54799301D01*
G37*
D17*
X134830000Y-55236500D03*
D10*
G36*
X134398626Y-54799301D02*
X134404693Y-54800201D01*
X134410643Y-54801691D01*
X134416418Y-54803758D01*
X134421962Y-54806380D01*
X134427223Y-54809533D01*
X134432150Y-54813187D01*
X134436694Y-54817306D01*
X134440813Y-54821850D01*
X134444467Y-54826777D01*
X134447620Y-54832038D01*
X134450242Y-54837582D01*
X134452309Y-54843357D01*
X134453799Y-54849307D01*
X134454699Y-54855374D01*
X134455000Y-54861500D01*
X134455000Y-55611500D01*
X134454699Y-55617626D01*
X134453799Y-55623693D01*
X134452309Y-55629643D01*
X134450242Y-55635418D01*
X134447620Y-55640962D01*
X134444467Y-55646223D01*
X134440813Y-55651150D01*
X134436694Y-55655694D01*
X134432150Y-55659813D01*
X134427223Y-55663467D01*
X134421962Y-55666620D01*
X134416418Y-55669242D01*
X134410643Y-55671309D01*
X134404693Y-55672799D01*
X134398626Y-55673699D01*
X134392500Y-55674000D01*
X134267500Y-55674000D01*
X134261374Y-55673699D01*
X134255307Y-55672799D01*
X134249357Y-55671309D01*
X134243582Y-55669242D01*
X134238038Y-55666620D01*
X134232777Y-55663467D01*
X134227850Y-55659813D01*
X134223306Y-55655694D01*
X134219187Y-55651150D01*
X134215533Y-55646223D01*
X134212380Y-55640962D01*
X134209758Y-55635418D01*
X134207691Y-55629643D01*
X134206201Y-55623693D01*
X134205301Y-55617626D01*
X134205000Y-55611500D01*
X134205000Y-54861500D01*
X134205301Y-54855374D01*
X134206201Y-54849307D01*
X134207691Y-54843357D01*
X134209758Y-54837582D01*
X134212380Y-54832038D01*
X134215533Y-54826777D01*
X134219187Y-54821850D01*
X134223306Y-54817306D01*
X134227850Y-54813187D01*
X134232777Y-54809533D01*
X134238038Y-54806380D01*
X134243582Y-54803758D01*
X134249357Y-54801691D01*
X134255307Y-54800201D01*
X134261374Y-54799301D01*
X134267500Y-54799000D01*
X134392500Y-54799000D01*
X134398626Y-54799301D01*
X134398626Y-54799301D01*
G37*
D17*
X134330000Y-55236500D03*
D10*
G36*
X133898626Y-54799301D02*
X133904693Y-54800201D01*
X133910643Y-54801691D01*
X133916418Y-54803758D01*
X133921962Y-54806380D01*
X133927223Y-54809533D01*
X133932150Y-54813187D01*
X133936694Y-54817306D01*
X133940813Y-54821850D01*
X133944467Y-54826777D01*
X133947620Y-54832038D01*
X133950242Y-54837582D01*
X133952309Y-54843357D01*
X133953799Y-54849307D01*
X133954699Y-54855374D01*
X133955000Y-54861500D01*
X133955000Y-55611500D01*
X133954699Y-55617626D01*
X133953799Y-55623693D01*
X133952309Y-55629643D01*
X133950242Y-55635418D01*
X133947620Y-55640962D01*
X133944467Y-55646223D01*
X133940813Y-55651150D01*
X133936694Y-55655694D01*
X133932150Y-55659813D01*
X133927223Y-55663467D01*
X133921962Y-55666620D01*
X133916418Y-55669242D01*
X133910643Y-55671309D01*
X133904693Y-55672799D01*
X133898626Y-55673699D01*
X133892500Y-55674000D01*
X133767500Y-55674000D01*
X133761374Y-55673699D01*
X133755307Y-55672799D01*
X133749357Y-55671309D01*
X133743582Y-55669242D01*
X133738038Y-55666620D01*
X133732777Y-55663467D01*
X133727850Y-55659813D01*
X133723306Y-55655694D01*
X133719187Y-55651150D01*
X133715533Y-55646223D01*
X133712380Y-55640962D01*
X133709758Y-55635418D01*
X133707691Y-55629643D01*
X133706201Y-55623693D01*
X133705301Y-55617626D01*
X133705000Y-55611500D01*
X133705000Y-54861500D01*
X133705301Y-54855374D01*
X133706201Y-54849307D01*
X133707691Y-54843357D01*
X133709758Y-54837582D01*
X133712380Y-54832038D01*
X133715533Y-54826777D01*
X133719187Y-54821850D01*
X133723306Y-54817306D01*
X133727850Y-54813187D01*
X133732777Y-54809533D01*
X133738038Y-54806380D01*
X133743582Y-54803758D01*
X133749357Y-54801691D01*
X133755307Y-54800201D01*
X133761374Y-54799301D01*
X133767500Y-54799000D01*
X133892500Y-54799000D01*
X133898626Y-54799301D01*
X133898626Y-54799301D01*
G37*
D17*
X133830000Y-55236500D03*
D10*
G36*
X133398626Y-54799301D02*
X133404693Y-54800201D01*
X133410643Y-54801691D01*
X133416418Y-54803758D01*
X133421962Y-54806380D01*
X133427223Y-54809533D01*
X133432150Y-54813187D01*
X133436694Y-54817306D01*
X133440813Y-54821850D01*
X133444467Y-54826777D01*
X133447620Y-54832038D01*
X133450242Y-54837582D01*
X133452309Y-54843357D01*
X133453799Y-54849307D01*
X133454699Y-54855374D01*
X133455000Y-54861500D01*
X133455000Y-55611500D01*
X133454699Y-55617626D01*
X133453799Y-55623693D01*
X133452309Y-55629643D01*
X133450242Y-55635418D01*
X133447620Y-55640962D01*
X133444467Y-55646223D01*
X133440813Y-55651150D01*
X133436694Y-55655694D01*
X133432150Y-55659813D01*
X133427223Y-55663467D01*
X133421962Y-55666620D01*
X133416418Y-55669242D01*
X133410643Y-55671309D01*
X133404693Y-55672799D01*
X133398626Y-55673699D01*
X133392500Y-55674000D01*
X133267500Y-55674000D01*
X133261374Y-55673699D01*
X133255307Y-55672799D01*
X133249357Y-55671309D01*
X133243582Y-55669242D01*
X133238038Y-55666620D01*
X133232777Y-55663467D01*
X133227850Y-55659813D01*
X133223306Y-55655694D01*
X133219187Y-55651150D01*
X133215533Y-55646223D01*
X133212380Y-55640962D01*
X133209758Y-55635418D01*
X133207691Y-55629643D01*
X133206201Y-55623693D01*
X133205301Y-55617626D01*
X133205000Y-55611500D01*
X133205000Y-54861500D01*
X133205301Y-54855374D01*
X133206201Y-54849307D01*
X133207691Y-54843357D01*
X133209758Y-54837582D01*
X133212380Y-54832038D01*
X133215533Y-54826777D01*
X133219187Y-54821850D01*
X133223306Y-54817306D01*
X133227850Y-54813187D01*
X133232777Y-54809533D01*
X133238038Y-54806380D01*
X133243582Y-54803758D01*
X133249357Y-54801691D01*
X133255307Y-54800201D01*
X133261374Y-54799301D01*
X133267500Y-54799000D01*
X133392500Y-54799000D01*
X133398626Y-54799301D01*
X133398626Y-54799301D01*
G37*
D17*
X133330000Y-55236500D03*
D10*
G36*
X132898626Y-54799301D02*
X132904693Y-54800201D01*
X132910643Y-54801691D01*
X132916418Y-54803758D01*
X132921962Y-54806380D01*
X132927223Y-54809533D01*
X132932150Y-54813187D01*
X132936694Y-54817306D01*
X132940813Y-54821850D01*
X132944467Y-54826777D01*
X132947620Y-54832038D01*
X132950242Y-54837582D01*
X132952309Y-54843357D01*
X132953799Y-54849307D01*
X132954699Y-54855374D01*
X132955000Y-54861500D01*
X132955000Y-55611500D01*
X132954699Y-55617626D01*
X132953799Y-55623693D01*
X132952309Y-55629643D01*
X132950242Y-55635418D01*
X132947620Y-55640962D01*
X132944467Y-55646223D01*
X132940813Y-55651150D01*
X132936694Y-55655694D01*
X132932150Y-55659813D01*
X132927223Y-55663467D01*
X132921962Y-55666620D01*
X132916418Y-55669242D01*
X132910643Y-55671309D01*
X132904693Y-55672799D01*
X132898626Y-55673699D01*
X132892500Y-55674000D01*
X132767500Y-55674000D01*
X132761374Y-55673699D01*
X132755307Y-55672799D01*
X132749357Y-55671309D01*
X132743582Y-55669242D01*
X132738038Y-55666620D01*
X132732777Y-55663467D01*
X132727850Y-55659813D01*
X132723306Y-55655694D01*
X132719187Y-55651150D01*
X132715533Y-55646223D01*
X132712380Y-55640962D01*
X132709758Y-55635418D01*
X132707691Y-55629643D01*
X132706201Y-55623693D01*
X132705301Y-55617626D01*
X132705000Y-55611500D01*
X132705000Y-54861500D01*
X132705301Y-54855374D01*
X132706201Y-54849307D01*
X132707691Y-54843357D01*
X132709758Y-54837582D01*
X132712380Y-54832038D01*
X132715533Y-54826777D01*
X132719187Y-54821850D01*
X132723306Y-54817306D01*
X132727850Y-54813187D01*
X132732777Y-54809533D01*
X132738038Y-54806380D01*
X132743582Y-54803758D01*
X132749357Y-54801691D01*
X132755307Y-54800201D01*
X132761374Y-54799301D01*
X132767500Y-54799000D01*
X132892500Y-54799000D01*
X132898626Y-54799301D01*
X132898626Y-54799301D01*
G37*
D17*
X132830000Y-55236500D03*
D10*
G36*
X132398626Y-54799301D02*
X132404693Y-54800201D01*
X132410643Y-54801691D01*
X132416418Y-54803758D01*
X132421962Y-54806380D01*
X132427223Y-54809533D01*
X132432150Y-54813187D01*
X132436694Y-54817306D01*
X132440813Y-54821850D01*
X132444467Y-54826777D01*
X132447620Y-54832038D01*
X132450242Y-54837582D01*
X132452309Y-54843357D01*
X132453799Y-54849307D01*
X132454699Y-54855374D01*
X132455000Y-54861500D01*
X132455000Y-55611500D01*
X132454699Y-55617626D01*
X132453799Y-55623693D01*
X132452309Y-55629643D01*
X132450242Y-55635418D01*
X132447620Y-55640962D01*
X132444467Y-55646223D01*
X132440813Y-55651150D01*
X132436694Y-55655694D01*
X132432150Y-55659813D01*
X132427223Y-55663467D01*
X132421962Y-55666620D01*
X132416418Y-55669242D01*
X132410643Y-55671309D01*
X132404693Y-55672799D01*
X132398626Y-55673699D01*
X132392500Y-55674000D01*
X132267500Y-55674000D01*
X132261374Y-55673699D01*
X132255307Y-55672799D01*
X132249357Y-55671309D01*
X132243582Y-55669242D01*
X132238038Y-55666620D01*
X132232777Y-55663467D01*
X132227850Y-55659813D01*
X132223306Y-55655694D01*
X132219187Y-55651150D01*
X132215533Y-55646223D01*
X132212380Y-55640962D01*
X132209758Y-55635418D01*
X132207691Y-55629643D01*
X132206201Y-55623693D01*
X132205301Y-55617626D01*
X132205000Y-55611500D01*
X132205000Y-54861500D01*
X132205301Y-54855374D01*
X132206201Y-54849307D01*
X132207691Y-54843357D01*
X132209758Y-54837582D01*
X132212380Y-54832038D01*
X132215533Y-54826777D01*
X132219187Y-54821850D01*
X132223306Y-54817306D01*
X132227850Y-54813187D01*
X132232777Y-54809533D01*
X132238038Y-54806380D01*
X132243582Y-54803758D01*
X132249357Y-54801691D01*
X132255307Y-54800201D01*
X132261374Y-54799301D01*
X132267500Y-54799000D01*
X132392500Y-54799000D01*
X132398626Y-54799301D01*
X132398626Y-54799301D01*
G37*
D17*
X132330000Y-55236500D03*
D10*
G36*
X131898626Y-54799301D02*
X131904693Y-54800201D01*
X131910643Y-54801691D01*
X131916418Y-54803758D01*
X131921962Y-54806380D01*
X131927223Y-54809533D01*
X131932150Y-54813187D01*
X131936694Y-54817306D01*
X131940813Y-54821850D01*
X131944467Y-54826777D01*
X131947620Y-54832038D01*
X131950242Y-54837582D01*
X131952309Y-54843357D01*
X131953799Y-54849307D01*
X131954699Y-54855374D01*
X131955000Y-54861500D01*
X131955000Y-55611500D01*
X131954699Y-55617626D01*
X131953799Y-55623693D01*
X131952309Y-55629643D01*
X131950242Y-55635418D01*
X131947620Y-55640962D01*
X131944467Y-55646223D01*
X131940813Y-55651150D01*
X131936694Y-55655694D01*
X131932150Y-55659813D01*
X131927223Y-55663467D01*
X131921962Y-55666620D01*
X131916418Y-55669242D01*
X131910643Y-55671309D01*
X131904693Y-55672799D01*
X131898626Y-55673699D01*
X131892500Y-55674000D01*
X131767500Y-55674000D01*
X131761374Y-55673699D01*
X131755307Y-55672799D01*
X131749357Y-55671309D01*
X131743582Y-55669242D01*
X131738038Y-55666620D01*
X131732777Y-55663467D01*
X131727850Y-55659813D01*
X131723306Y-55655694D01*
X131719187Y-55651150D01*
X131715533Y-55646223D01*
X131712380Y-55640962D01*
X131709758Y-55635418D01*
X131707691Y-55629643D01*
X131706201Y-55623693D01*
X131705301Y-55617626D01*
X131705000Y-55611500D01*
X131705000Y-54861500D01*
X131705301Y-54855374D01*
X131706201Y-54849307D01*
X131707691Y-54843357D01*
X131709758Y-54837582D01*
X131712380Y-54832038D01*
X131715533Y-54826777D01*
X131719187Y-54821850D01*
X131723306Y-54817306D01*
X131727850Y-54813187D01*
X131732777Y-54809533D01*
X131738038Y-54806380D01*
X131743582Y-54803758D01*
X131749357Y-54801691D01*
X131755307Y-54800201D01*
X131761374Y-54799301D01*
X131767500Y-54799000D01*
X131892500Y-54799000D01*
X131898626Y-54799301D01*
X131898626Y-54799301D01*
G37*
D17*
X131830000Y-55236500D03*
D10*
G36*
X131398626Y-54799301D02*
X131404693Y-54800201D01*
X131410643Y-54801691D01*
X131416418Y-54803758D01*
X131421962Y-54806380D01*
X131427223Y-54809533D01*
X131432150Y-54813187D01*
X131436694Y-54817306D01*
X131440813Y-54821850D01*
X131444467Y-54826777D01*
X131447620Y-54832038D01*
X131450242Y-54837582D01*
X131452309Y-54843357D01*
X131453799Y-54849307D01*
X131454699Y-54855374D01*
X131455000Y-54861500D01*
X131455000Y-55611500D01*
X131454699Y-55617626D01*
X131453799Y-55623693D01*
X131452309Y-55629643D01*
X131450242Y-55635418D01*
X131447620Y-55640962D01*
X131444467Y-55646223D01*
X131440813Y-55651150D01*
X131436694Y-55655694D01*
X131432150Y-55659813D01*
X131427223Y-55663467D01*
X131421962Y-55666620D01*
X131416418Y-55669242D01*
X131410643Y-55671309D01*
X131404693Y-55672799D01*
X131398626Y-55673699D01*
X131392500Y-55674000D01*
X131267500Y-55674000D01*
X131261374Y-55673699D01*
X131255307Y-55672799D01*
X131249357Y-55671309D01*
X131243582Y-55669242D01*
X131238038Y-55666620D01*
X131232777Y-55663467D01*
X131227850Y-55659813D01*
X131223306Y-55655694D01*
X131219187Y-55651150D01*
X131215533Y-55646223D01*
X131212380Y-55640962D01*
X131209758Y-55635418D01*
X131207691Y-55629643D01*
X131206201Y-55623693D01*
X131205301Y-55617626D01*
X131205000Y-55611500D01*
X131205000Y-54861500D01*
X131205301Y-54855374D01*
X131206201Y-54849307D01*
X131207691Y-54843357D01*
X131209758Y-54837582D01*
X131212380Y-54832038D01*
X131215533Y-54826777D01*
X131219187Y-54821850D01*
X131223306Y-54817306D01*
X131227850Y-54813187D01*
X131232777Y-54809533D01*
X131238038Y-54806380D01*
X131243582Y-54803758D01*
X131249357Y-54801691D01*
X131255307Y-54800201D01*
X131261374Y-54799301D01*
X131267500Y-54799000D01*
X131392500Y-54799000D01*
X131398626Y-54799301D01*
X131398626Y-54799301D01*
G37*
D17*
X131330000Y-55236500D03*
D10*
G36*
X130898626Y-54799301D02*
X130904693Y-54800201D01*
X130910643Y-54801691D01*
X130916418Y-54803758D01*
X130921962Y-54806380D01*
X130927223Y-54809533D01*
X130932150Y-54813187D01*
X130936694Y-54817306D01*
X130940813Y-54821850D01*
X130944467Y-54826777D01*
X130947620Y-54832038D01*
X130950242Y-54837582D01*
X130952309Y-54843357D01*
X130953799Y-54849307D01*
X130954699Y-54855374D01*
X130955000Y-54861500D01*
X130955000Y-55611500D01*
X130954699Y-55617626D01*
X130953799Y-55623693D01*
X130952309Y-55629643D01*
X130950242Y-55635418D01*
X130947620Y-55640962D01*
X130944467Y-55646223D01*
X130940813Y-55651150D01*
X130936694Y-55655694D01*
X130932150Y-55659813D01*
X130927223Y-55663467D01*
X130921962Y-55666620D01*
X130916418Y-55669242D01*
X130910643Y-55671309D01*
X130904693Y-55672799D01*
X130898626Y-55673699D01*
X130892500Y-55674000D01*
X130767500Y-55674000D01*
X130761374Y-55673699D01*
X130755307Y-55672799D01*
X130749357Y-55671309D01*
X130743582Y-55669242D01*
X130738038Y-55666620D01*
X130732777Y-55663467D01*
X130727850Y-55659813D01*
X130723306Y-55655694D01*
X130719187Y-55651150D01*
X130715533Y-55646223D01*
X130712380Y-55640962D01*
X130709758Y-55635418D01*
X130707691Y-55629643D01*
X130706201Y-55623693D01*
X130705301Y-55617626D01*
X130705000Y-55611500D01*
X130705000Y-54861500D01*
X130705301Y-54855374D01*
X130706201Y-54849307D01*
X130707691Y-54843357D01*
X130709758Y-54837582D01*
X130712380Y-54832038D01*
X130715533Y-54826777D01*
X130719187Y-54821850D01*
X130723306Y-54817306D01*
X130727850Y-54813187D01*
X130732777Y-54809533D01*
X130738038Y-54806380D01*
X130743582Y-54803758D01*
X130749357Y-54801691D01*
X130755307Y-54800201D01*
X130761374Y-54799301D01*
X130767500Y-54799000D01*
X130892500Y-54799000D01*
X130898626Y-54799301D01*
X130898626Y-54799301D01*
G37*
D17*
X130830000Y-55236500D03*
D10*
G36*
X130398626Y-54799301D02*
X130404693Y-54800201D01*
X130410643Y-54801691D01*
X130416418Y-54803758D01*
X130421962Y-54806380D01*
X130427223Y-54809533D01*
X130432150Y-54813187D01*
X130436694Y-54817306D01*
X130440813Y-54821850D01*
X130444467Y-54826777D01*
X130447620Y-54832038D01*
X130450242Y-54837582D01*
X130452309Y-54843357D01*
X130453799Y-54849307D01*
X130454699Y-54855374D01*
X130455000Y-54861500D01*
X130455000Y-55611500D01*
X130454699Y-55617626D01*
X130453799Y-55623693D01*
X130452309Y-55629643D01*
X130450242Y-55635418D01*
X130447620Y-55640962D01*
X130444467Y-55646223D01*
X130440813Y-55651150D01*
X130436694Y-55655694D01*
X130432150Y-55659813D01*
X130427223Y-55663467D01*
X130421962Y-55666620D01*
X130416418Y-55669242D01*
X130410643Y-55671309D01*
X130404693Y-55672799D01*
X130398626Y-55673699D01*
X130392500Y-55674000D01*
X130267500Y-55674000D01*
X130261374Y-55673699D01*
X130255307Y-55672799D01*
X130249357Y-55671309D01*
X130243582Y-55669242D01*
X130238038Y-55666620D01*
X130232777Y-55663467D01*
X130227850Y-55659813D01*
X130223306Y-55655694D01*
X130219187Y-55651150D01*
X130215533Y-55646223D01*
X130212380Y-55640962D01*
X130209758Y-55635418D01*
X130207691Y-55629643D01*
X130206201Y-55623693D01*
X130205301Y-55617626D01*
X130205000Y-55611500D01*
X130205000Y-54861500D01*
X130205301Y-54855374D01*
X130206201Y-54849307D01*
X130207691Y-54843357D01*
X130209758Y-54837582D01*
X130212380Y-54832038D01*
X130215533Y-54826777D01*
X130219187Y-54821850D01*
X130223306Y-54817306D01*
X130227850Y-54813187D01*
X130232777Y-54809533D01*
X130238038Y-54806380D01*
X130243582Y-54803758D01*
X130249357Y-54801691D01*
X130255307Y-54800201D01*
X130261374Y-54799301D01*
X130267500Y-54799000D01*
X130392500Y-54799000D01*
X130398626Y-54799301D01*
X130398626Y-54799301D01*
G37*
D17*
X130330000Y-55236500D03*
D10*
G36*
X129898626Y-54799301D02*
X129904693Y-54800201D01*
X129910643Y-54801691D01*
X129916418Y-54803758D01*
X129921962Y-54806380D01*
X129927223Y-54809533D01*
X129932150Y-54813187D01*
X129936694Y-54817306D01*
X129940813Y-54821850D01*
X129944467Y-54826777D01*
X129947620Y-54832038D01*
X129950242Y-54837582D01*
X129952309Y-54843357D01*
X129953799Y-54849307D01*
X129954699Y-54855374D01*
X129955000Y-54861500D01*
X129955000Y-55611500D01*
X129954699Y-55617626D01*
X129953799Y-55623693D01*
X129952309Y-55629643D01*
X129950242Y-55635418D01*
X129947620Y-55640962D01*
X129944467Y-55646223D01*
X129940813Y-55651150D01*
X129936694Y-55655694D01*
X129932150Y-55659813D01*
X129927223Y-55663467D01*
X129921962Y-55666620D01*
X129916418Y-55669242D01*
X129910643Y-55671309D01*
X129904693Y-55672799D01*
X129898626Y-55673699D01*
X129892500Y-55674000D01*
X129767500Y-55674000D01*
X129761374Y-55673699D01*
X129755307Y-55672799D01*
X129749357Y-55671309D01*
X129743582Y-55669242D01*
X129738038Y-55666620D01*
X129732777Y-55663467D01*
X129727850Y-55659813D01*
X129723306Y-55655694D01*
X129719187Y-55651150D01*
X129715533Y-55646223D01*
X129712380Y-55640962D01*
X129709758Y-55635418D01*
X129707691Y-55629643D01*
X129706201Y-55623693D01*
X129705301Y-55617626D01*
X129705000Y-55611500D01*
X129705000Y-54861500D01*
X129705301Y-54855374D01*
X129706201Y-54849307D01*
X129707691Y-54843357D01*
X129709758Y-54837582D01*
X129712380Y-54832038D01*
X129715533Y-54826777D01*
X129719187Y-54821850D01*
X129723306Y-54817306D01*
X129727850Y-54813187D01*
X129732777Y-54809533D01*
X129738038Y-54806380D01*
X129743582Y-54803758D01*
X129749357Y-54801691D01*
X129755307Y-54800201D01*
X129761374Y-54799301D01*
X129767500Y-54799000D01*
X129892500Y-54799000D01*
X129898626Y-54799301D01*
X129898626Y-54799301D01*
G37*
D17*
X129830000Y-55236500D03*
D10*
G36*
X129398626Y-54799301D02*
X129404693Y-54800201D01*
X129410643Y-54801691D01*
X129416418Y-54803758D01*
X129421962Y-54806380D01*
X129427223Y-54809533D01*
X129432150Y-54813187D01*
X129436694Y-54817306D01*
X129440813Y-54821850D01*
X129444467Y-54826777D01*
X129447620Y-54832038D01*
X129450242Y-54837582D01*
X129452309Y-54843357D01*
X129453799Y-54849307D01*
X129454699Y-54855374D01*
X129455000Y-54861500D01*
X129455000Y-55611500D01*
X129454699Y-55617626D01*
X129453799Y-55623693D01*
X129452309Y-55629643D01*
X129450242Y-55635418D01*
X129447620Y-55640962D01*
X129444467Y-55646223D01*
X129440813Y-55651150D01*
X129436694Y-55655694D01*
X129432150Y-55659813D01*
X129427223Y-55663467D01*
X129421962Y-55666620D01*
X129416418Y-55669242D01*
X129410643Y-55671309D01*
X129404693Y-55672799D01*
X129398626Y-55673699D01*
X129392500Y-55674000D01*
X129267500Y-55674000D01*
X129261374Y-55673699D01*
X129255307Y-55672799D01*
X129249357Y-55671309D01*
X129243582Y-55669242D01*
X129238038Y-55666620D01*
X129232777Y-55663467D01*
X129227850Y-55659813D01*
X129223306Y-55655694D01*
X129219187Y-55651150D01*
X129215533Y-55646223D01*
X129212380Y-55640962D01*
X129209758Y-55635418D01*
X129207691Y-55629643D01*
X129206201Y-55623693D01*
X129205301Y-55617626D01*
X129205000Y-55611500D01*
X129205000Y-54861500D01*
X129205301Y-54855374D01*
X129206201Y-54849307D01*
X129207691Y-54843357D01*
X129209758Y-54837582D01*
X129212380Y-54832038D01*
X129215533Y-54826777D01*
X129219187Y-54821850D01*
X129223306Y-54817306D01*
X129227850Y-54813187D01*
X129232777Y-54809533D01*
X129238038Y-54806380D01*
X129243582Y-54803758D01*
X129249357Y-54801691D01*
X129255307Y-54800201D01*
X129261374Y-54799301D01*
X129267500Y-54799000D01*
X129392500Y-54799000D01*
X129398626Y-54799301D01*
X129398626Y-54799301D01*
G37*
D17*
X129330000Y-55236500D03*
D18*
X130015000Y-69002656D03*
X130015000Y-67732656D03*
X130015000Y-66462656D03*
X130015000Y-65192656D03*
X122715000Y-65192656D03*
X122715000Y-66462656D03*
X122715000Y-67732656D03*
X122715000Y-69002656D03*
D19*
X111150000Y-56374000D03*
X111150000Y-60974000D03*
X111150000Y-58674000D03*
D20*
X117450000Y-58674000D03*
X117450000Y-49022000D03*
D19*
X111150000Y-49022000D03*
X111150000Y-51322000D03*
X111150000Y-46722000D03*
M02*
