%TF.GenerationSoftware,KiCad,Pcbnew,5.0.2*%
%TF.CreationDate,2019-02-13T10:06:58+08:00*%
%TF.ProjectId,ice40up5k-qfn48,69636534-3075-4703-956b-2d71666e3438,rev?*%
%TF.SameCoordinates,Original*%
%TF.FileFunction,Legend,Top*%
%TF.FilePolarity,Positive*%
%FSLAX46Y46*%
G04 Gerber Fmt 4.6, Leading zero omitted, Abs format (unit mm)*
G04 Created by KiCad (PCBNEW 5.0.2) date 2019年02月13日 星期三 10时06分58秒*
%MOMM*%
%LPD*%
G01*
G04 APERTURE LIST*
%ADD10C,0.150000*%
%ADD11C,0.175000*%
%ADD12C,0.200000*%
%ADD13C,0.250000*%
%ADD14C,0.120000*%
G04 APERTURE END LIST*
D10*
X113660714Y-66911571D02*
X113689285Y-66883000D01*
X113746428Y-66854428D01*
X113889285Y-66854428D01*
X113946428Y-66883000D01*
X113975000Y-66911571D01*
X114003571Y-66968714D01*
X114003571Y-67025857D01*
X113975000Y-67111571D01*
X113632142Y-67454428D01*
X114003571Y-67454428D01*
X114546428Y-66854428D02*
X114260714Y-66854428D01*
X114232142Y-67140142D01*
X114260714Y-67111571D01*
X114317857Y-67083000D01*
X114460714Y-67083000D01*
X114517857Y-67111571D01*
X114546428Y-67140142D01*
X114575000Y-67197285D01*
X114575000Y-67340142D01*
X114546428Y-67397285D01*
X114517857Y-67425857D01*
X114460714Y-67454428D01*
X114317857Y-67454428D01*
X114260714Y-67425857D01*
X114232142Y-67397285D01*
X115260714Y-67425857D02*
X115346428Y-67454428D01*
X115489285Y-67454428D01*
X115546428Y-67425857D01*
X115575000Y-67397285D01*
X115603571Y-67340142D01*
X115603571Y-67283000D01*
X115575000Y-67225857D01*
X115546428Y-67197285D01*
X115489285Y-67168714D01*
X115375000Y-67140142D01*
X115317857Y-67111571D01*
X115289285Y-67083000D01*
X115260714Y-67025857D01*
X115260714Y-66968714D01*
X115289285Y-66911571D01*
X115317857Y-66883000D01*
X115375000Y-66854428D01*
X115517857Y-66854428D01*
X115603571Y-66883000D01*
X115860714Y-67454428D02*
X115860714Y-66854428D01*
X116089285Y-66854428D01*
X116146428Y-66883000D01*
X116175000Y-66911571D01*
X116203571Y-66968714D01*
X116203571Y-67054428D01*
X116175000Y-67111571D01*
X116146428Y-67140142D01*
X116089285Y-67168714D01*
X115860714Y-67168714D01*
X116460714Y-67454428D02*
X116460714Y-66854428D01*
X117403571Y-67140142D02*
X117203571Y-67140142D01*
X117203571Y-67454428D02*
X117203571Y-66854428D01*
X117489285Y-66854428D01*
X117803571Y-67454428D02*
X117746428Y-67425857D01*
X117717857Y-67368714D01*
X117717857Y-66854428D01*
X118289285Y-67454428D02*
X118289285Y-67140142D01*
X118260714Y-67083000D01*
X118203571Y-67054428D01*
X118089285Y-67054428D01*
X118032142Y-67083000D01*
X118289285Y-67425857D02*
X118232142Y-67454428D01*
X118089285Y-67454428D01*
X118032142Y-67425857D01*
X118003571Y-67368714D01*
X118003571Y-67311571D01*
X118032142Y-67254428D01*
X118089285Y-67225857D01*
X118232142Y-67225857D01*
X118289285Y-67197285D01*
X118546428Y-67425857D02*
X118603571Y-67454428D01*
X118717857Y-67454428D01*
X118775000Y-67425857D01*
X118803571Y-67368714D01*
X118803571Y-67340142D01*
X118775000Y-67283000D01*
X118717857Y-67254428D01*
X118632142Y-67254428D01*
X118575000Y-67225857D01*
X118546428Y-67168714D01*
X118546428Y-67140142D01*
X118575000Y-67083000D01*
X118632142Y-67054428D01*
X118717857Y-67054428D01*
X118775000Y-67083000D01*
X119060714Y-67454428D02*
X119060714Y-66854428D01*
X119317857Y-67454428D02*
X119317857Y-67140142D01*
X119289285Y-67083000D01*
X119232142Y-67054428D01*
X119146428Y-67054428D01*
X119089285Y-67083000D01*
X119060714Y-67111571D01*
X120060714Y-67225857D02*
X120517857Y-67225857D01*
X120803571Y-67054428D02*
X121260714Y-67225857D01*
X120803571Y-67397285D01*
X126365428Y-62540857D02*
X125965428Y-62540857D01*
X125765428Y-62540857D02*
X125794000Y-62569428D01*
X125822571Y-62540857D01*
X125794000Y-62512285D01*
X125765428Y-62540857D01*
X125822571Y-62540857D01*
X126308285Y-61912285D02*
X126336857Y-61940857D01*
X126365428Y-62026571D01*
X126365428Y-62083714D01*
X126336857Y-62169428D01*
X126279714Y-62226571D01*
X126222571Y-62255142D01*
X126108285Y-62283714D01*
X126022571Y-62283714D01*
X125908285Y-62255142D01*
X125851142Y-62226571D01*
X125794000Y-62169428D01*
X125765428Y-62083714D01*
X125765428Y-62026571D01*
X125794000Y-61940857D01*
X125822571Y-61912285D01*
X126051142Y-61655142D02*
X126051142Y-61455142D01*
X126365428Y-61369428D02*
X126365428Y-61655142D01*
X125765428Y-61655142D01*
X125765428Y-61369428D01*
X125965428Y-60855142D02*
X126365428Y-60855142D01*
X125736857Y-60998000D02*
X126165428Y-61140857D01*
X126165428Y-60769428D01*
X125765428Y-60426571D02*
X125765428Y-60369428D01*
X125794000Y-60312285D01*
X125822571Y-60283714D01*
X125879714Y-60255142D01*
X125994000Y-60226571D01*
X126136857Y-60226571D01*
X126251142Y-60255142D01*
X126308285Y-60283714D01*
X126336857Y-60312285D01*
X126365428Y-60369428D01*
X126365428Y-60426571D01*
X126336857Y-60483714D01*
X126308285Y-60512285D01*
X126251142Y-60540857D01*
X126136857Y-60569428D01*
X125994000Y-60569428D01*
X125879714Y-60540857D01*
X125822571Y-60512285D01*
X125794000Y-60483714D01*
X125765428Y-60426571D01*
X125765428Y-59969428D02*
X126251142Y-59969428D01*
X126308285Y-59940857D01*
X126336857Y-59912285D01*
X126365428Y-59855142D01*
X126365428Y-59740857D01*
X126336857Y-59683714D01*
X126308285Y-59655142D01*
X126251142Y-59626571D01*
X125765428Y-59626571D01*
X126365428Y-59340857D02*
X125765428Y-59340857D01*
X125765428Y-59112285D01*
X125794000Y-59055142D01*
X125822571Y-59026571D01*
X125879714Y-58998000D01*
X125965428Y-58998000D01*
X126022571Y-59026571D01*
X126051142Y-59055142D01*
X126079714Y-59112285D01*
X126079714Y-59340857D01*
X125765428Y-58455142D02*
X125765428Y-58740857D01*
X126051142Y-58769428D01*
X126022571Y-58740857D01*
X125994000Y-58683714D01*
X125994000Y-58540857D01*
X126022571Y-58483714D01*
X126051142Y-58455142D01*
X126108285Y-58426571D01*
X126251142Y-58426571D01*
X126308285Y-58455142D01*
X126336857Y-58483714D01*
X126365428Y-58540857D01*
X126365428Y-58683714D01*
X126336857Y-58740857D01*
X126308285Y-58769428D01*
X126365428Y-58169428D02*
X125765428Y-58169428D01*
X126365428Y-57826571D02*
X126022571Y-58083714D01*
X125765428Y-57826571D02*
X126108285Y-58169428D01*
X127386857Y-61240857D02*
X127415428Y-61155142D01*
X127415428Y-61012285D01*
X127386857Y-60955142D01*
X127358285Y-60926571D01*
X127301142Y-60898000D01*
X127244000Y-60898000D01*
X127186857Y-60926571D01*
X127158285Y-60955142D01*
X127129714Y-61012285D01*
X127101142Y-61126571D01*
X127072571Y-61183714D01*
X127044000Y-61212285D01*
X126986857Y-61240857D01*
X126929714Y-61240857D01*
X126872571Y-61212285D01*
X126844000Y-61183714D01*
X126815428Y-61126571D01*
X126815428Y-60983714D01*
X126844000Y-60898000D01*
X126844000Y-60326571D02*
X126815428Y-60383714D01*
X126815428Y-60469428D01*
X126844000Y-60555142D01*
X126901142Y-60612285D01*
X126958285Y-60640857D01*
X127072571Y-60669428D01*
X127158285Y-60669428D01*
X127272571Y-60640857D01*
X127329714Y-60612285D01*
X127386857Y-60555142D01*
X127415428Y-60469428D01*
X127415428Y-60412285D01*
X127386857Y-60326571D01*
X127358285Y-60298000D01*
X127158285Y-60298000D01*
X127158285Y-60412285D01*
X127015428Y-59783714D02*
X127415428Y-59783714D01*
X126786857Y-59926571D02*
X127215428Y-60069428D01*
X127215428Y-59698000D01*
X127072571Y-59383714D02*
X127044000Y-59440857D01*
X127015428Y-59469428D01*
X126958285Y-59498000D01*
X126929714Y-59498000D01*
X126872571Y-59469428D01*
X126844000Y-59440857D01*
X126815428Y-59383714D01*
X126815428Y-59269428D01*
X126844000Y-59212285D01*
X126872571Y-59183714D01*
X126929714Y-59155142D01*
X126958285Y-59155142D01*
X127015428Y-59183714D01*
X127044000Y-59212285D01*
X127072571Y-59269428D01*
X127072571Y-59383714D01*
X127101142Y-59440857D01*
X127129714Y-59469428D01*
X127186857Y-59498000D01*
X127301142Y-59498000D01*
X127358285Y-59469428D01*
X127386857Y-59440857D01*
X127415428Y-59383714D01*
X127415428Y-59269428D01*
X127386857Y-59212285D01*
X127358285Y-59183714D01*
X127301142Y-59155142D01*
X127186857Y-59155142D01*
X127129714Y-59183714D01*
X127101142Y-59212285D01*
X127072571Y-59269428D01*
D11*
X140508333Y-70362000D02*
X140475000Y-70395333D01*
X140375000Y-70428666D01*
X140308333Y-70428666D01*
X140208333Y-70395333D01*
X140141666Y-70328666D01*
X140108333Y-70262000D01*
X140075000Y-70128666D01*
X140075000Y-70028666D01*
X140108333Y-69895333D01*
X140141666Y-69828666D01*
X140208333Y-69762000D01*
X140308333Y-69728666D01*
X140375000Y-69728666D01*
X140475000Y-69762000D01*
X140508333Y-69795333D01*
X140908333Y-70028666D02*
X140841666Y-69995333D01*
X140808333Y-69962000D01*
X140775000Y-69895333D01*
X140775000Y-69862000D01*
X140808333Y-69795333D01*
X140841666Y-69762000D01*
X140908333Y-69728666D01*
X141041666Y-69728666D01*
X141108333Y-69762000D01*
X141141666Y-69795333D01*
X141175000Y-69862000D01*
X141175000Y-69895333D01*
X141141666Y-69962000D01*
X141108333Y-69995333D01*
X141041666Y-70028666D01*
X140908333Y-70028666D01*
X140841666Y-70062000D01*
X140808333Y-70095333D01*
X140775000Y-70162000D01*
X140775000Y-70295333D01*
X140808333Y-70362000D01*
X140841666Y-70395333D01*
X140908333Y-70428666D01*
X141041666Y-70428666D01*
X141108333Y-70395333D01*
X141141666Y-70362000D01*
X141175000Y-70295333D01*
X141175000Y-70162000D01*
X141141666Y-70095333D01*
X141108333Y-70062000D01*
X141041666Y-70028666D01*
X142008333Y-70062000D02*
X142541666Y-70062000D01*
X142541666Y-70262000D02*
X142008333Y-70262000D01*
X143775000Y-70428666D02*
X143375000Y-70428666D01*
X143575000Y-70428666D02*
X143575000Y-69728666D01*
X143508333Y-69828666D01*
X143441666Y-69895333D01*
X143375000Y-69928666D01*
X144208333Y-69728666D02*
X144275000Y-69728666D01*
X144341666Y-69762000D01*
X144375000Y-69795333D01*
X144408333Y-69862000D01*
X144441666Y-69995333D01*
X144441666Y-70162000D01*
X144408333Y-70295333D01*
X144375000Y-70362000D01*
X144341666Y-70395333D01*
X144275000Y-70428666D01*
X144208333Y-70428666D01*
X144141666Y-70395333D01*
X144108333Y-70362000D01*
X144075000Y-70295333D01*
X144041666Y-70162000D01*
X144041666Y-69995333D01*
X144075000Y-69862000D01*
X144108333Y-69795333D01*
X144141666Y-69762000D01*
X144208333Y-69728666D01*
X145041666Y-69962000D02*
X145041666Y-70428666D01*
X144741666Y-69962000D02*
X144741666Y-70328666D01*
X144775000Y-70395333D01*
X144841666Y-70428666D01*
X144941666Y-70428666D01*
X145008333Y-70395333D01*
X145041666Y-70362000D01*
X145608333Y-70062000D02*
X145375000Y-70062000D01*
X145375000Y-70428666D02*
X145375000Y-69728666D01*
X145708333Y-69728666D01*
X138291666Y-70953666D02*
X138425000Y-70953666D01*
X138491666Y-70987000D01*
X138558333Y-71053666D01*
X138591666Y-71187000D01*
X138591666Y-71420333D01*
X138558333Y-71553666D01*
X138491666Y-71620333D01*
X138425000Y-71653666D01*
X138291666Y-71653666D01*
X138225000Y-71620333D01*
X138158333Y-71553666D01*
X138125000Y-71420333D01*
X138125000Y-71187000D01*
X138158333Y-71053666D01*
X138225000Y-70987000D01*
X138291666Y-70953666D01*
X138791666Y-71187000D02*
X139058333Y-71187000D01*
X138891666Y-70953666D02*
X138891666Y-71553666D01*
X138925000Y-71620333D01*
X138991666Y-71653666D01*
X139058333Y-71653666D01*
X139291666Y-71653666D02*
X139291666Y-70953666D01*
X139591666Y-71653666D02*
X139591666Y-71287000D01*
X139558333Y-71220333D01*
X139491666Y-71187000D01*
X139391666Y-71187000D01*
X139325000Y-71220333D01*
X139291666Y-71253666D01*
X140191666Y-71620333D02*
X140125000Y-71653666D01*
X139991666Y-71653666D01*
X139925000Y-71620333D01*
X139891666Y-71553666D01*
X139891666Y-71287000D01*
X139925000Y-71220333D01*
X139991666Y-71187000D01*
X140125000Y-71187000D01*
X140191666Y-71220333D01*
X140225000Y-71287000D01*
X140225000Y-71353666D01*
X139891666Y-71420333D01*
X140525000Y-71653666D02*
X140525000Y-71187000D01*
X140525000Y-71320333D02*
X140558333Y-71253666D01*
X140591666Y-71220333D01*
X140658333Y-71187000D01*
X140725000Y-71187000D01*
X141891666Y-71587000D02*
X141858333Y-71620333D01*
X141758333Y-71653666D01*
X141691666Y-71653666D01*
X141591666Y-71620333D01*
X141525000Y-71553666D01*
X141491666Y-71487000D01*
X141458333Y-71353666D01*
X141458333Y-71253666D01*
X141491666Y-71120333D01*
X141525000Y-71053666D01*
X141591666Y-70987000D01*
X141691666Y-70953666D01*
X141758333Y-70953666D01*
X141858333Y-70987000D01*
X141891666Y-71020333D01*
X142225000Y-70953666D02*
X142158333Y-71087000D01*
X142491666Y-71620333D02*
X142558333Y-71653666D01*
X142691666Y-71653666D01*
X142758333Y-71620333D01*
X142791666Y-71553666D01*
X142791666Y-71520333D01*
X142758333Y-71453666D01*
X142691666Y-71420333D01*
X142591666Y-71420333D01*
X142525000Y-71387000D01*
X142491666Y-71320333D01*
X142491666Y-71287000D01*
X142525000Y-71220333D01*
X142591666Y-71187000D01*
X142691666Y-71187000D01*
X142758333Y-71220333D01*
X143625000Y-71287000D02*
X144158333Y-71287000D01*
X144158333Y-71487000D02*
X143625000Y-71487000D01*
X145158333Y-70953666D02*
X145225000Y-70953666D01*
X145291666Y-70987000D01*
X145325000Y-71020333D01*
X145358333Y-71087000D01*
X145391666Y-71220333D01*
X145391666Y-71387000D01*
X145358333Y-71520333D01*
X145325000Y-71587000D01*
X145291666Y-71620333D01*
X145225000Y-71653666D01*
X145158333Y-71653666D01*
X145091666Y-71620333D01*
X145058333Y-71587000D01*
X145025000Y-71520333D01*
X144991666Y-71387000D01*
X144991666Y-71220333D01*
X145025000Y-71087000D01*
X145058333Y-71020333D01*
X145091666Y-70987000D01*
X145158333Y-70953666D01*
X145691666Y-71587000D02*
X145725000Y-71620333D01*
X145691666Y-71653666D01*
X145658333Y-71620333D01*
X145691666Y-71587000D01*
X145691666Y-71653666D01*
X146391666Y-71653666D02*
X145991666Y-71653666D01*
X146191666Y-71653666D02*
X146191666Y-70953666D01*
X146125000Y-71053666D01*
X146058333Y-71120333D01*
X145991666Y-71153666D01*
X146991666Y-71187000D02*
X146991666Y-71653666D01*
X146691666Y-71187000D02*
X146691666Y-71553666D01*
X146725000Y-71620333D01*
X146791666Y-71653666D01*
X146891666Y-71653666D01*
X146958333Y-71620333D01*
X146991666Y-71587000D01*
X147558333Y-71287000D02*
X147325000Y-71287000D01*
X147325000Y-71653666D02*
X147325000Y-70953666D01*
X147658333Y-70953666D01*
X140491666Y-72878666D02*
X140258333Y-72545333D01*
X140091666Y-72878666D02*
X140091666Y-72178666D01*
X140358333Y-72178666D01*
X140425000Y-72212000D01*
X140458333Y-72245333D01*
X140491666Y-72312000D01*
X140491666Y-72412000D01*
X140458333Y-72478666D01*
X140425000Y-72512000D01*
X140358333Y-72545333D01*
X140091666Y-72545333D01*
X141158333Y-72878666D02*
X140758333Y-72878666D01*
X140958333Y-72878666D02*
X140958333Y-72178666D01*
X140891666Y-72278666D01*
X140825000Y-72345333D01*
X140758333Y-72378666D01*
X141991666Y-72512000D02*
X142525000Y-72512000D01*
X142525000Y-72712000D02*
X141991666Y-72712000D01*
X143758333Y-72878666D02*
X143358333Y-72878666D01*
X143558333Y-72878666D02*
X143558333Y-72178666D01*
X143491666Y-72278666D01*
X143425000Y-72345333D01*
X143358333Y-72378666D01*
X144191666Y-72178666D02*
X144258333Y-72178666D01*
X144325000Y-72212000D01*
X144358333Y-72245333D01*
X144391666Y-72312000D01*
X144425000Y-72445333D01*
X144425000Y-72612000D01*
X144391666Y-72745333D01*
X144358333Y-72812000D01*
X144325000Y-72845333D01*
X144258333Y-72878666D01*
X144191666Y-72878666D01*
X144125000Y-72845333D01*
X144091666Y-72812000D01*
X144058333Y-72745333D01*
X144025000Y-72612000D01*
X144025000Y-72445333D01*
X144058333Y-72312000D01*
X144091666Y-72245333D01*
X144125000Y-72212000D01*
X144191666Y-72178666D01*
X144725000Y-72878666D02*
X144725000Y-72178666D01*
X144791666Y-72612000D02*
X144991666Y-72878666D01*
X144991666Y-72412000D02*
X144725000Y-72678666D01*
X145691666Y-72878666D02*
X145458333Y-72545333D01*
X145291666Y-72878666D02*
X145291666Y-72178666D01*
X145558333Y-72178666D01*
X145625000Y-72212000D01*
X145658333Y-72245333D01*
X145691666Y-72312000D01*
X145691666Y-72412000D01*
X145658333Y-72478666D01*
X145625000Y-72512000D01*
X145558333Y-72545333D01*
X145291666Y-72545333D01*
X140325000Y-74103666D02*
X140091666Y-73770333D01*
X139925000Y-74103666D02*
X139925000Y-73403666D01*
X140191666Y-73403666D01*
X140258333Y-73437000D01*
X140291666Y-73470333D01*
X140325000Y-73537000D01*
X140325000Y-73637000D01*
X140291666Y-73703666D01*
X140258333Y-73737000D01*
X140191666Y-73770333D01*
X139925000Y-73770333D01*
X140591666Y-73470333D02*
X140625000Y-73437000D01*
X140691666Y-73403666D01*
X140858333Y-73403666D01*
X140925000Y-73437000D01*
X140958333Y-73470333D01*
X140991666Y-73537000D01*
X140991666Y-73603666D01*
X140958333Y-73703666D01*
X140558333Y-74103666D01*
X140991666Y-74103666D01*
X141825000Y-73737000D02*
X142358333Y-73737000D01*
X142358333Y-73937000D02*
X141825000Y-73937000D01*
X143191666Y-73470333D02*
X143225000Y-73437000D01*
X143291666Y-73403666D01*
X143458333Y-73403666D01*
X143525000Y-73437000D01*
X143558333Y-73470333D01*
X143591666Y-73537000D01*
X143591666Y-73603666D01*
X143558333Y-73703666D01*
X143158333Y-74103666D01*
X143591666Y-74103666D01*
X143891666Y-74037000D02*
X143925000Y-74070333D01*
X143891666Y-74103666D01*
X143858333Y-74070333D01*
X143891666Y-74037000D01*
X143891666Y-74103666D01*
X144191666Y-73470333D02*
X144225000Y-73437000D01*
X144291666Y-73403666D01*
X144458333Y-73403666D01*
X144525000Y-73437000D01*
X144558333Y-73470333D01*
X144591666Y-73537000D01*
X144591666Y-73603666D01*
X144558333Y-73703666D01*
X144158333Y-74103666D01*
X144591666Y-74103666D01*
X144891666Y-74103666D02*
X144891666Y-73403666D01*
X144958333Y-73837000D02*
X145158333Y-74103666D01*
X145158333Y-73637000D02*
X144891666Y-73903666D01*
X145858333Y-74103666D02*
X145625000Y-73770333D01*
X145458333Y-74103666D02*
X145458333Y-73403666D01*
X145725000Y-73403666D01*
X145791666Y-73437000D01*
X145825000Y-73470333D01*
X145858333Y-73537000D01*
X145858333Y-73637000D01*
X145825000Y-73703666D01*
X145791666Y-73737000D01*
X145725000Y-73770333D01*
X145458333Y-73770333D01*
X140491666Y-75328666D02*
X140258333Y-74995333D01*
X140091666Y-75328666D02*
X140091666Y-74628666D01*
X140358333Y-74628666D01*
X140425000Y-74662000D01*
X140458333Y-74695333D01*
X140491666Y-74762000D01*
X140491666Y-74862000D01*
X140458333Y-74928666D01*
X140425000Y-74962000D01*
X140358333Y-74995333D01*
X140091666Y-74995333D01*
X140725000Y-74628666D02*
X141158333Y-74628666D01*
X140925000Y-74895333D01*
X141025000Y-74895333D01*
X141091666Y-74928666D01*
X141125000Y-74962000D01*
X141158333Y-75028666D01*
X141158333Y-75195333D01*
X141125000Y-75262000D01*
X141091666Y-75295333D01*
X141025000Y-75328666D01*
X140825000Y-75328666D01*
X140758333Y-75295333D01*
X140725000Y-75262000D01*
X141991666Y-74962000D02*
X142525000Y-74962000D01*
X142525000Y-75162000D02*
X141991666Y-75162000D01*
X143758333Y-75328666D02*
X143358333Y-75328666D01*
X143558333Y-75328666D02*
X143558333Y-74628666D01*
X143491666Y-74728666D01*
X143425000Y-74795333D01*
X143358333Y-74828666D01*
X144191666Y-74628666D02*
X144258333Y-74628666D01*
X144325000Y-74662000D01*
X144358333Y-74695333D01*
X144391666Y-74762000D01*
X144425000Y-74895333D01*
X144425000Y-75062000D01*
X144391666Y-75195333D01*
X144358333Y-75262000D01*
X144325000Y-75295333D01*
X144258333Y-75328666D01*
X144191666Y-75328666D01*
X144125000Y-75295333D01*
X144091666Y-75262000D01*
X144058333Y-75195333D01*
X144025000Y-75062000D01*
X144025000Y-74895333D01*
X144058333Y-74762000D01*
X144091666Y-74695333D01*
X144125000Y-74662000D01*
X144191666Y-74628666D01*
X144725000Y-75328666D02*
X144725000Y-74628666D01*
X144791666Y-75062000D02*
X144991666Y-75328666D01*
X144991666Y-74862000D02*
X144725000Y-75128666D01*
X145691666Y-75328666D02*
X145458333Y-74995333D01*
X145291666Y-75328666D02*
X145291666Y-74628666D01*
X145558333Y-74628666D01*
X145625000Y-74662000D01*
X145658333Y-74695333D01*
X145691666Y-74762000D01*
X145691666Y-74862000D01*
X145658333Y-74928666D01*
X145625000Y-74962000D01*
X145558333Y-74995333D01*
X145291666Y-74995333D01*
X140825000Y-76553666D02*
X140591666Y-76220333D01*
X140425000Y-76553666D02*
X140425000Y-75853666D01*
X140691666Y-75853666D01*
X140758333Y-75887000D01*
X140791666Y-75920333D01*
X140825000Y-75987000D01*
X140825000Y-76087000D01*
X140791666Y-76153666D01*
X140758333Y-76187000D01*
X140691666Y-76220333D01*
X140425000Y-76220333D01*
X141425000Y-76087000D02*
X141425000Y-76553666D01*
X141258333Y-75820333D02*
X141091666Y-76320333D01*
X141525000Y-76320333D01*
X142325000Y-76187000D02*
X142858333Y-76187000D01*
X142858333Y-76387000D02*
X142325000Y-76387000D01*
X144091666Y-76553666D02*
X143691666Y-76553666D01*
X143891666Y-76553666D02*
X143891666Y-75853666D01*
X143825000Y-75953666D01*
X143758333Y-76020333D01*
X143691666Y-76053666D01*
X144391666Y-76553666D02*
X144391666Y-75853666D01*
X144458333Y-76287000D02*
X144658333Y-76553666D01*
X144658333Y-76087000D02*
X144391666Y-76353666D01*
X145358333Y-76553666D02*
X145125000Y-76220333D01*
X144958333Y-76553666D02*
X144958333Y-75853666D01*
X145225000Y-75853666D01*
X145291666Y-75887000D01*
X145325000Y-75920333D01*
X145358333Y-75987000D01*
X145358333Y-76087000D01*
X145325000Y-76153666D01*
X145291666Y-76187000D01*
X145225000Y-76220333D01*
X144958333Y-76220333D01*
X138775000Y-77778666D02*
X138775000Y-77078666D01*
X138941666Y-77078666D01*
X139041666Y-77112000D01*
X139108333Y-77178666D01*
X139141666Y-77245333D01*
X139175000Y-77378666D01*
X139175000Y-77478666D01*
X139141666Y-77612000D01*
X139108333Y-77678666D01*
X139041666Y-77745333D01*
X138941666Y-77778666D01*
X138775000Y-77778666D01*
X139841666Y-77778666D02*
X139441666Y-77778666D01*
X139641666Y-77778666D02*
X139641666Y-77078666D01*
X139575000Y-77178666D01*
X139508333Y-77245333D01*
X139441666Y-77278666D01*
X140175000Y-77745333D02*
X140175000Y-77778666D01*
X140141666Y-77845333D01*
X140108333Y-77878666D01*
X141008333Y-77778666D02*
X141008333Y-77078666D01*
X141175000Y-77078666D01*
X141275000Y-77112000D01*
X141341666Y-77178666D01*
X141375000Y-77245333D01*
X141408333Y-77378666D01*
X141408333Y-77478666D01*
X141375000Y-77612000D01*
X141341666Y-77678666D01*
X141275000Y-77745333D01*
X141175000Y-77778666D01*
X141008333Y-77778666D01*
X141675000Y-77145333D02*
X141708333Y-77112000D01*
X141775000Y-77078666D01*
X141941666Y-77078666D01*
X142008333Y-77112000D01*
X142041666Y-77145333D01*
X142075000Y-77212000D01*
X142075000Y-77278666D01*
X142041666Y-77378666D01*
X141641666Y-77778666D01*
X142075000Y-77778666D01*
X142375000Y-77712000D02*
X142408333Y-77745333D01*
X142375000Y-77778666D01*
X142341666Y-77745333D01*
X142375000Y-77712000D01*
X142375000Y-77778666D01*
X142375000Y-77345333D02*
X142408333Y-77378666D01*
X142375000Y-77412000D01*
X142341666Y-77378666D01*
X142375000Y-77345333D01*
X142375000Y-77412000D01*
X143608333Y-77778666D02*
X143208333Y-77778666D01*
X143408333Y-77778666D02*
X143408333Y-77078666D01*
X143341666Y-77178666D01*
X143275000Y-77245333D01*
X143208333Y-77278666D01*
X143908333Y-77778666D02*
X143908333Y-77078666D01*
X144308333Y-77778666D01*
X144308333Y-77078666D01*
X144975000Y-77078666D02*
X144641666Y-77078666D01*
X144608333Y-77412000D01*
X144641666Y-77378666D01*
X144708333Y-77345333D01*
X144875000Y-77345333D01*
X144941666Y-77378666D01*
X144975000Y-77412000D01*
X145008333Y-77478666D01*
X145008333Y-77645333D01*
X144975000Y-77712000D01*
X144941666Y-77745333D01*
X144875000Y-77778666D01*
X144708333Y-77778666D01*
X144641666Y-77745333D01*
X144608333Y-77712000D01*
X145408333Y-77378666D02*
X145341666Y-77345333D01*
X145308333Y-77312000D01*
X145275000Y-77245333D01*
X145275000Y-77212000D01*
X145308333Y-77145333D01*
X145341666Y-77112000D01*
X145408333Y-77078666D01*
X145541666Y-77078666D01*
X145608333Y-77112000D01*
X145641666Y-77145333D01*
X145675000Y-77212000D01*
X145675000Y-77245333D01*
X145641666Y-77312000D01*
X145608333Y-77345333D01*
X145541666Y-77378666D01*
X145408333Y-77378666D01*
X145341666Y-77412000D01*
X145308333Y-77445333D01*
X145275000Y-77512000D01*
X145275000Y-77645333D01*
X145308333Y-77712000D01*
X145341666Y-77745333D01*
X145408333Y-77778666D01*
X145541666Y-77778666D01*
X145608333Y-77745333D01*
X145641666Y-77712000D01*
X145675000Y-77645333D01*
X145675000Y-77512000D01*
X145641666Y-77445333D01*
X145608333Y-77412000D01*
X145541666Y-77378666D01*
X146341666Y-77778666D02*
X145941666Y-77778666D01*
X146141666Y-77778666D02*
X146141666Y-77078666D01*
X146075000Y-77178666D01*
X146008333Y-77245333D01*
X145941666Y-77278666D01*
X146675000Y-77778666D02*
X146808333Y-77778666D01*
X146875000Y-77745333D01*
X146908333Y-77712000D01*
X146975000Y-77612000D01*
X147008333Y-77478666D01*
X147008333Y-77212000D01*
X146975000Y-77145333D01*
X146941666Y-77112000D01*
X146875000Y-77078666D01*
X146741666Y-77078666D01*
X146675000Y-77112000D01*
X146641666Y-77145333D01*
X146608333Y-77212000D01*
X146608333Y-77378666D01*
X146641666Y-77445333D01*
X146675000Y-77478666D01*
X146741666Y-77512000D01*
X146875000Y-77512000D01*
X146941666Y-77478666D01*
X146975000Y-77445333D01*
X147008333Y-77378666D01*
X119569666Y-61040666D02*
X119569666Y-61440666D01*
X119569666Y-61240666D02*
X118869666Y-61240666D01*
X118969666Y-61307333D01*
X119036333Y-61374000D01*
X119069666Y-61440666D01*
X119569666Y-60374000D02*
X119569666Y-60774000D01*
X119569666Y-60574000D02*
X118869666Y-60574000D01*
X118969666Y-60640666D01*
X119036333Y-60707333D01*
X119069666Y-60774000D01*
X119569666Y-59707333D02*
X119569666Y-60107333D01*
X119569666Y-59907333D02*
X118869666Y-59907333D01*
X118969666Y-59974000D01*
X119036333Y-60040666D01*
X119069666Y-60107333D01*
X118869666Y-59474000D02*
X118869666Y-59007333D01*
X119569666Y-59307333D01*
X119303000Y-58740666D02*
X119303000Y-58207333D01*
X119569666Y-57507333D02*
X119569666Y-57907333D01*
X119569666Y-57707333D02*
X118869666Y-57707333D01*
X118969666Y-57774000D01*
X119036333Y-57840666D01*
X119069666Y-57907333D01*
X119503000Y-57207333D02*
X119536333Y-57174000D01*
X119569666Y-57207333D01*
X119536333Y-57240666D01*
X119503000Y-57207333D01*
X119569666Y-57207333D01*
X118936333Y-56907333D02*
X118903000Y-56874000D01*
X118869666Y-56807333D01*
X118869666Y-56640666D01*
X118903000Y-56574000D01*
X118936333Y-56540666D01*
X119003000Y-56507333D01*
X119069666Y-56507333D01*
X119169666Y-56540666D01*
X119569666Y-56940666D01*
X119569666Y-56507333D01*
X118869666Y-56307333D02*
X119569666Y-56074000D01*
X118869666Y-55840666D01*
X119569666Y-51388666D02*
X119569666Y-51788666D01*
X119569666Y-51588666D02*
X118869666Y-51588666D01*
X118969666Y-51655333D01*
X119036333Y-51722000D01*
X119069666Y-51788666D01*
X119569666Y-50722000D02*
X119569666Y-51122000D01*
X119569666Y-50922000D02*
X118869666Y-50922000D01*
X118969666Y-50988666D01*
X119036333Y-51055333D01*
X119069666Y-51122000D01*
X119569666Y-50055333D02*
X119569666Y-50455333D01*
X119569666Y-50255333D02*
X118869666Y-50255333D01*
X118969666Y-50322000D01*
X119036333Y-50388666D01*
X119069666Y-50455333D01*
X118869666Y-49822000D02*
X118869666Y-49355333D01*
X119569666Y-49655333D01*
X119303000Y-49088666D02*
X119303000Y-48555333D01*
X118869666Y-48288666D02*
X118869666Y-47855333D01*
X119136333Y-48088666D01*
X119136333Y-47988666D01*
X119169666Y-47922000D01*
X119203000Y-47888666D01*
X119269666Y-47855333D01*
X119436333Y-47855333D01*
X119503000Y-47888666D01*
X119536333Y-47922000D01*
X119569666Y-47988666D01*
X119569666Y-48188666D01*
X119536333Y-48255333D01*
X119503000Y-48288666D01*
X119503000Y-47555333D02*
X119536333Y-47522000D01*
X119569666Y-47555333D01*
X119536333Y-47588666D01*
X119503000Y-47555333D01*
X119569666Y-47555333D01*
X118869666Y-47288666D02*
X118869666Y-46855333D01*
X119136333Y-47088666D01*
X119136333Y-46988666D01*
X119169666Y-46922000D01*
X119203000Y-46888666D01*
X119269666Y-46855333D01*
X119436333Y-46855333D01*
X119503000Y-46888666D01*
X119536333Y-46922000D01*
X119569666Y-46988666D01*
X119569666Y-47188666D01*
X119536333Y-47255333D01*
X119503000Y-47288666D01*
X118869666Y-46655333D02*
X119569666Y-46422000D01*
X118869666Y-46188666D01*
D12*
X127918981Y-53975000D02*
G75*
G03X127918981Y-53975000I-283981J0D01*
G01*
D13*
X100314428Y-46680428D02*
X101076333Y-46680428D01*
X100695380Y-47061380D02*
X100695380Y-46299476D01*
X102028714Y-46061380D02*
X101552523Y-46061380D01*
X101504904Y-46537571D01*
X101552523Y-46489952D01*
X101647761Y-46442333D01*
X101885857Y-46442333D01*
X101981095Y-46489952D01*
X102028714Y-46537571D01*
X102076333Y-46632809D01*
X102076333Y-46870904D01*
X102028714Y-46966142D01*
X101981095Y-47013761D01*
X101885857Y-47061380D01*
X101647761Y-47061380D01*
X101552523Y-47013761D01*
X101504904Y-46966142D01*
X102362047Y-46061380D02*
X102695380Y-47061380D01*
X103028714Y-46061380D01*
X104123952Y-47061380D02*
X104123952Y-46061380D01*
X104600142Y-47061380D02*
X104600142Y-46061380D01*
X105171571Y-47061380D01*
X105171571Y-46061380D01*
D12*
X106343666Y-75250857D02*
X106077000Y-75250857D01*
X106077000Y-75669904D02*
X106077000Y-74869904D01*
X106457952Y-74869904D01*
X106877000Y-75669904D02*
X106800809Y-75631809D01*
X106762714Y-75555619D01*
X106762714Y-74869904D01*
X107524619Y-75669904D02*
X107524619Y-75250857D01*
X107486523Y-75174666D01*
X107410333Y-75136571D01*
X107257952Y-75136571D01*
X107181761Y-75174666D01*
X107524619Y-75631809D02*
X107448428Y-75669904D01*
X107257952Y-75669904D01*
X107181761Y-75631809D01*
X107143666Y-75555619D01*
X107143666Y-75479428D01*
X107181761Y-75403238D01*
X107257952Y-75365142D01*
X107448428Y-75365142D01*
X107524619Y-75327047D01*
X107867476Y-75631809D02*
X107943666Y-75669904D01*
X108096047Y-75669904D01*
X108172238Y-75631809D01*
X108210333Y-75555619D01*
X108210333Y-75517523D01*
X108172238Y-75441333D01*
X108096047Y-75403238D01*
X107981761Y-75403238D01*
X107905571Y-75365142D01*
X107867476Y-75288952D01*
X107867476Y-75250857D01*
X107905571Y-75174666D01*
X107981761Y-75136571D01*
X108096047Y-75136571D01*
X108172238Y-75174666D01*
X108553190Y-75669904D02*
X108553190Y-74869904D01*
X108896047Y-75669904D02*
X108896047Y-75250857D01*
X108857952Y-75174666D01*
X108781761Y-75136571D01*
X108667476Y-75136571D01*
X108591285Y-75174666D01*
X108553190Y-75212761D01*
X109581761Y-75631809D02*
X109505571Y-75669904D01*
X109353190Y-75669904D01*
X109277000Y-75631809D01*
X109238904Y-75555619D01*
X109238904Y-75250857D01*
X109277000Y-75174666D01*
X109353190Y-75136571D01*
X109505571Y-75136571D01*
X109581761Y-75174666D01*
X109619857Y-75250857D01*
X109619857Y-75327047D01*
X109238904Y-75403238D01*
X109962714Y-75669904D02*
X109962714Y-75136571D01*
X109962714Y-75288952D02*
X110000809Y-75212761D01*
X110038904Y-75174666D01*
X110115095Y-75136571D01*
X110191285Y-75136571D01*
X104648428Y-76269904D02*
X104648428Y-76917523D01*
X104686523Y-76993714D01*
X104724619Y-77031809D01*
X104800809Y-77069904D01*
X104953190Y-77069904D01*
X105029380Y-77031809D01*
X105067476Y-76993714D01*
X105105571Y-76917523D01*
X105105571Y-76269904D01*
X105448428Y-77031809D02*
X105562714Y-77069904D01*
X105753190Y-77069904D01*
X105829380Y-77031809D01*
X105867476Y-76993714D01*
X105905571Y-76917523D01*
X105905571Y-76841333D01*
X105867476Y-76765142D01*
X105829380Y-76727047D01*
X105753190Y-76688952D01*
X105600809Y-76650857D01*
X105524619Y-76612761D01*
X105486523Y-76574666D01*
X105448428Y-76498476D01*
X105448428Y-76422285D01*
X105486523Y-76346095D01*
X105524619Y-76308000D01*
X105600809Y-76269904D01*
X105791285Y-76269904D01*
X105905571Y-76308000D01*
X106515095Y-76650857D02*
X106629380Y-76688952D01*
X106667476Y-76727047D01*
X106705571Y-76803238D01*
X106705571Y-76917523D01*
X106667476Y-76993714D01*
X106629380Y-77031809D01*
X106553190Y-77069904D01*
X106248428Y-77069904D01*
X106248428Y-76269904D01*
X106515095Y-76269904D01*
X106591285Y-76308000D01*
X106629380Y-76346095D01*
X106667476Y-76422285D01*
X106667476Y-76498476D01*
X106629380Y-76574666D01*
X106591285Y-76612761D01*
X106515095Y-76650857D01*
X106248428Y-76650857D01*
X107924619Y-76650857D02*
X108038904Y-76688952D01*
X108077000Y-76727047D01*
X108115095Y-76803238D01*
X108115095Y-76917523D01*
X108077000Y-76993714D01*
X108038904Y-77031809D01*
X107962714Y-77069904D01*
X107657952Y-77069904D01*
X107657952Y-76269904D01*
X107924619Y-76269904D01*
X108000809Y-76308000D01*
X108038904Y-76346095D01*
X108077000Y-76422285D01*
X108077000Y-76498476D01*
X108038904Y-76574666D01*
X108000809Y-76612761D01*
X107924619Y-76650857D01*
X107657952Y-76650857D01*
X108572238Y-77069904D02*
X108496047Y-77031809D01*
X108457952Y-76955619D01*
X108457952Y-76269904D01*
X109219857Y-77069904D02*
X109219857Y-76650857D01*
X109181761Y-76574666D01*
X109105571Y-76536571D01*
X108953190Y-76536571D01*
X108877000Y-76574666D01*
X109219857Y-77031809D02*
X109143666Y-77069904D01*
X108953190Y-77069904D01*
X108877000Y-77031809D01*
X108838904Y-76955619D01*
X108838904Y-76879428D01*
X108877000Y-76803238D01*
X108953190Y-76765142D01*
X109143666Y-76765142D01*
X109219857Y-76727047D01*
X109562714Y-77031809D02*
X109638904Y-77069904D01*
X109791285Y-77069904D01*
X109867476Y-77031809D01*
X109905571Y-76955619D01*
X109905571Y-76917523D01*
X109867476Y-76841333D01*
X109791285Y-76803238D01*
X109677000Y-76803238D01*
X109600809Y-76765142D01*
X109562714Y-76688952D01*
X109562714Y-76650857D01*
X109600809Y-76574666D01*
X109677000Y-76536571D01*
X109791285Y-76536571D01*
X109867476Y-76574666D01*
X110134142Y-76536571D02*
X110438904Y-76536571D01*
X110248428Y-76269904D02*
X110248428Y-76955619D01*
X110286523Y-77031809D01*
X110362714Y-77069904D01*
X110438904Y-77069904D01*
X111010333Y-77031809D02*
X110934142Y-77069904D01*
X110781761Y-77069904D01*
X110705571Y-77031809D01*
X110667476Y-76955619D01*
X110667476Y-76650857D01*
X110705571Y-76574666D01*
X110781761Y-76536571D01*
X110934142Y-76536571D01*
X111010333Y-76574666D01*
X111048428Y-76650857D01*
X111048428Y-76727047D01*
X110667476Y-76803238D01*
X111391285Y-77069904D02*
X111391285Y-76536571D01*
X111391285Y-76688952D02*
X111429380Y-76612761D01*
X111467476Y-76574666D01*
X111543666Y-76536571D01*
X111619857Y-76536571D01*
X104438904Y-78241333D02*
X104819857Y-78241333D01*
X104362714Y-78469904D02*
X104629380Y-77669904D01*
X104896047Y-78469904D01*
X105505571Y-78431809D02*
X105429380Y-78469904D01*
X105277000Y-78469904D01*
X105200809Y-78431809D01*
X105162714Y-78393714D01*
X105124619Y-78317523D01*
X105124619Y-78088952D01*
X105162714Y-78012761D01*
X105200809Y-77974666D01*
X105277000Y-77936571D01*
X105429380Y-77936571D01*
X105505571Y-77974666D01*
X105734142Y-77936571D02*
X106038904Y-77936571D01*
X105848428Y-77669904D02*
X105848428Y-78355619D01*
X105886523Y-78431809D01*
X105962714Y-78469904D01*
X106038904Y-78469904D01*
X106305571Y-78469904D02*
X106305571Y-77936571D01*
X106305571Y-77669904D02*
X106267476Y-77708000D01*
X106305571Y-77746095D01*
X106343666Y-77708000D01*
X106305571Y-77669904D01*
X106305571Y-77746095D01*
X106610333Y-77936571D02*
X106800809Y-78469904D01*
X106991285Y-77936571D01*
X107600809Y-78431809D02*
X107524619Y-78469904D01*
X107372238Y-78469904D01*
X107296047Y-78431809D01*
X107257952Y-78355619D01*
X107257952Y-78050857D01*
X107296047Y-77974666D01*
X107372238Y-77936571D01*
X107524619Y-77936571D01*
X107600809Y-77974666D01*
X107638904Y-78050857D01*
X107638904Y-78127047D01*
X107257952Y-78203238D01*
X108553190Y-78431809D02*
X108667476Y-78469904D01*
X108857952Y-78469904D01*
X108934142Y-78431809D01*
X108972238Y-78393714D01*
X109010333Y-78317523D01*
X109010333Y-78241333D01*
X108972238Y-78165142D01*
X108934142Y-78127047D01*
X108857952Y-78088952D01*
X108705571Y-78050857D01*
X108629380Y-78012761D01*
X108591285Y-77974666D01*
X108553190Y-77898476D01*
X108553190Y-77822285D01*
X108591285Y-77746095D01*
X108629380Y-77708000D01*
X108705571Y-77669904D01*
X108896047Y-77669904D01*
X109010333Y-77708000D01*
X109657952Y-78431809D02*
X109581761Y-78469904D01*
X109429380Y-78469904D01*
X109353190Y-78431809D01*
X109315095Y-78355619D01*
X109315095Y-78050857D01*
X109353190Y-77974666D01*
X109429380Y-77936571D01*
X109581761Y-77936571D01*
X109657952Y-77974666D01*
X109696047Y-78050857D01*
X109696047Y-78127047D01*
X109315095Y-78203238D01*
X110038904Y-78469904D02*
X110038904Y-77936571D01*
X110038904Y-78088952D02*
X110077000Y-78012761D01*
X110115095Y-77974666D01*
X110191285Y-77936571D01*
X110267476Y-77936571D01*
X110534142Y-78469904D02*
X110534142Y-77936571D01*
X110534142Y-77669904D02*
X110496047Y-77708000D01*
X110534142Y-77746095D01*
X110572238Y-77708000D01*
X110534142Y-77669904D01*
X110534142Y-77746095D01*
X111257952Y-78469904D02*
X111257952Y-78050857D01*
X111219857Y-77974666D01*
X111143666Y-77936571D01*
X110991285Y-77936571D01*
X110915095Y-77974666D01*
X111257952Y-78431809D02*
X111181761Y-78469904D01*
X110991285Y-78469904D01*
X110915095Y-78431809D01*
X110877000Y-78355619D01*
X110877000Y-78279428D01*
X110915095Y-78203238D01*
X110991285Y-78165142D01*
X111181761Y-78165142D01*
X111257952Y-78127047D01*
X111753190Y-78469904D02*
X111677000Y-78431809D01*
X111638904Y-78355619D01*
X111638904Y-77669904D01*
D13*
X108021619Y-66873380D02*
X107688285Y-66397190D01*
X107450190Y-66873380D02*
X107450190Y-65873380D01*
X107831142Y-65873380D01*
X107926380Y-65921000D01*
X107974000Y-65968619D01*
X108021619Y-66063857D01*
X108021619Y-66206714D01*
X107974000Y-66301952D01*
X107926380Y-66349571D01*
X107831142Y-66397190D01*
X107450190Y-66397190D01*
X108450190Y-66349571D02*
X108783523Y-66349571D01*
X108926380Y-66873380D02*
X108450190Y-66873380D01*
X108450190Y-65873380D01*
X108926380Y-65873380D01*
X109307333Y-66825761D02*
X109450190Y-66873380D01*
X109688285Y-66873380D01*
X109783523Y-66825761D01*
X109831142Y-66778142D01*
X109878761Y-66682904D01*
X109878761Y-66587666D01*
X109831142Y-66492428D01*
X109783523Y-66444809D01*
X109688285Y-66397190D01*
X109497809Y-66349571D01*
X109402571Y-66301952D01*
X109354952Y-66254333D01*
X109307333Y-66159095D01*
X109307333Y-66063857D01*
X109354952Y-65968619D01*
X109402571Y-65921000D01*
X109497809Y-65873380D01*
X109735904Y-65873380D01*
X109878761Y-65921000D01*
X110307333Y-66349571D02*
X110640666Y-66349571D01*
X110783523Y-66873380D02*
X110307333Y-66873380D01*
X110307333Y-65873380D01*
X110783523Y-65873380D01*
X111069238Y-65873380D02*
X111640666Y-65873380D01*
X111354952Y-66873380D02*
X111354952Y-65873380D01*
X115038238Y-78668571D02*
X115181095Y-78716190D01*
X115228714Y-78763809D01*
X115276333Y-78859047D01*
X115276333Y-79001904D01*
X115228714Y-79097142D01*
X115181095Y-79144761D01*
X115085857Y-79192380D01*
X114704904Y-79192380D01*
X114704904Y-78192380D01*
X115038238Y-78192380D01*
X115133476Y-78240000D01*
X115181095Y-78287619D01*
X115228714Y-78382857D01*
X115228714Y-78478095D01*
X115181095Y-78573333D01*
X115133476Y-78620952D01*
X115038238Y-78668571D01*
X114704904Y-78668571D01*
X116228714Y-79192380D02*
X115657285Y-79192380D01*
X115943000Y-79192380D02*
X115943000Y-78192380D01*
X115847761Y-78335238D01*
X115752523Y-78430476D01*
X115657285Y-78478095D01*
X132492904Y-75652380D02*
X133111952Y-75652380D01*
X132778619Y-76033333D01*
X132921476Y-76033333D01*
X133016714Y-76080952D01*
X133064333Y-76128571D01*
X133111952Y-76223809D01*
X133111952Y-76461904D01*
X133064333Y-76557142D01*
X133016714Y-76604761D01*
X132921476Y-76652380D01*
X132635761Y-76652380D01*
X132540523Y-76604761D01*
X132492904Y-76557142D01*
X133397666Y-75652380D02*
X133731000Y-76652380D01*
X134064333Y-75652380D01*
X134302428Y-75652380D02*
X134921476Y-75652380D01*
X134588142Y-76033333D01*
X134731000Y-76033333D01*
X134826238Y-76080952D01*
X134873857Y-76128571D01*
X134921476Y-76223809D01*
X134921476Y-76461904D01*
X134873857Y-76557142D01*
X134826238Y-76604761D01*
X134731000Y-76652380D01*
X134445285Y-76652380D01*
X134350047Y-76604761D01*
X134302428Y-76557142D01*
X130746523Y-76652380D02*
X130175095Y-76652380D01*
X130460809Y-76652380D02*
X130460809Y-75652380D01*
X130365571Y-75795238D01*
X130270333Y-75890476D01*
X130175095Y-75938095D01*
X131079857Y-75652380D02*
X131698904Y-75652380D01*
X131365571Y-76033333D01*
X131508428Y-76033333D01*
X131603666Y-76080952D01*
X131651285Y-76128571D01*
X131698904Y-76223809D01*
X131698904Y-76461904D01*
X131651285Y-76557142D01*
X131603666Y-76604761D01*
X131508428Y-76652380D01*
X131222714Y-76652380D01*
X131127476Y-76604761D01*
X131079857Y-76557142D01*
X128333523Y-76652380D02*
X127762095Y-76652380D01*
X128047809Y-76652380D02*
X128047809Y-75652380D01*
X127952571Y-75795238D01*
X127857333Y-75890476D01*
X127762095Y-75938095D01*
X128714476Y-75747619D02*
X128762095Y-75700000D01*
X128857333Y-75652380D01*
X129095428Y-75652380D01*
X129190666Y-75700000D01*
X129238285Y-75747619D01*
X129285904Y-75842857D01*
X129285904Y-75938095D01*
X129238285Y-76080952D01*
X128666857Y-76652380D01*
X129285904Y-76652380D01*
X125793523Y-76652380D02*
X125222095Y-76652380D01*
X125507809Y-76652380D02*
X125507809Y-75652380D01*
X125412571Y-75795238D01*
X125317333Y-75890476D01*
X125222095Y-75938095D01*
X126745904Y-76652380D02*
X126174476Y-76652380D01*
X126460190Y-76652380D02*
X126460190Y-75652380D01*
X126364952Y-75795238D01*
X126269714Y-75890476D01*
X126174476Y-75938095D01*
X123253523Y-76652380D02*
X122682095Y-76652380D01*
X122967809Y-76652380D02*
X122967809Y-75652380D01*
X122872571Y-75795238D01*
X122777333Y-75890476D01*
X122682095Y-75938095D01*
X123872571Y-75652380D02*
X123967809Y-75652380D01*
X124063047Y-75700000D01*
X124110666Y-75747619D01*
X124158285Y-75842857D01*
X124205904Y-76033333D01*
X124205904Y-76271428D01*
X124158285Y-76461904D01*
X124110666Y-76557142D01*
X124063047Y-76604761D01*
X123967809Y-76652380D01*
X123872571Y-76652380D01*
X123777333Y-76604761D01*
X123729714Y-76557142D01*
X123682095Y-76461904D01*
X123634476Y-76271428D01*
X123634476Y-76033333D01*
X123682095Y-75842857D01*
X123729714Y-75747619D01*
X123777333Y-75700000D01*
X123872571Y-75652380D01*
X120713523Y-76652380D02*
X120904000Y-76652380D01*
X120999238Y-76604761D01*
X121046857Y-76557142D01*
X121142095Y-76414285D01*
X121189714Y-76223809D01*
X121189714Y-75842857D01*
X121142095Y-75747619D01*
X121094476Y-75700000D01*
X120999238Y-75652380D01*
X120808761Y-75652380D01*
X120713523Y-75700000D01*
X120665904Y-75747619D01*
X120618285Y-75842857D01*
X120618285Y-76080952D01*
X120665904Y-76176190D01*
X120713523Y-76223809D01*
X120808761Y-76271428D01*
X120999238Y-76271428D01*
X121094476Y-76223809D01*
X121142095Y-76176190D01*
X121189714Y-76080952D01*
X117602095Y-75700000D02*
X117506857Y-75652380D01*
X117364000Y-75652380D01*
X117221142Y-75700000D01*
X117125904Y-75795238D01*
X117078285Y-75890476D01*
X117030666Y-76080952D01*
X117030666Y-76223809D01*
X117078285Y-76414285D01*
X117125904Y-76509523D01*
X117221142Y-76604761D01*
X117364000Y-76652380D01*
X117459238Y-76652380D01*
X117602095Y-76604761D01*
X117649714Y-76557142D01*
X117649714Y-76223809D01*
X117459238Y-76223809D01*
X118078285Y-76652380D02*
X118078285Y-75652380D01*
X118649714Y-76652380D01*
X118649714Y-75652380D01*
X119125904Y-76652380D02*
X119125904Y-75652380D01*
X119364000Y-75652380D01*
X119506857Y-75700000D01*
X119602095Y-75795238D01*
X119649714Y-75890476D01*
X119697333Y-76080952D01*
X119697333Y-76223809D01*
X119649714Y-76414285D01*
X119602095Y-76509523D01*
X119506857Y-76604761D01*
X119364000Y-76652380D01*
X119125904Y-76652380D01*
X151693571Y-78255761D02*
X151741190Y-78112904D01*
X151788809Y-78065285D01*
X151884047Y-78017666D01*
X152026904Y-78017666D01*
X152122142Y-78065285D01*
X152169761Y-78112904D01*
X152217380Y-78208142D01*
X152217380Y-78589095D01*
X151217380Y-78589095D01*
X151217380Y-78255761D01*
X151265000Y-78160523D01*
X151312619Y-78112904D01*
X151407857Y-78065285D01*
X151503095Y-78065285D01*
X151598333Y-78112904D01*
X151645952Y-78160523D01*
X151693571Y-78255761D01*
X151693571Y-78589095D01*
X151217380Y-77398619D02*
X151217380Y-77303380D01*
X151265000Y-77208142D01*
X151312619Y-77160523D01*
X151407857Y-77112904D01*
X151598333Y-77065285D01*
X151836428Y-77065285D01*
X152026904Y-77112904D01*
X152122142Y-77160523D01*
X152169761Y-77208142D01*
X152217380Y-77303380D01*
X152217380Y-77398619D01*
X152169761Y-77493857D01*
X152122142Y-77541476D01*
X152026904Y-77589095D01*
X151836428Y-77636714D01*
X151598333Y-77636714D01*
X151407857Y-77589095D01*
X151312619Y-77541476D01*
X151265000Y-77493857D01*
X151217380Y-77398619D01*
X148852000Y-75818904D02*
X148804380Y-75914142D01*
X148804380Y-76057000D01*
X148852000Y-76199857D01*
X148947238Y-76295095D01*
X149042476Y-76342714D01*
X149232952Y-76390333D01*
X149375809Y-76390333D01*
X149566285Y-76342714D01*
X149661523Y-76295095D01*
X149756761Y-76199857D01*
X149804380Y-76057000D01*
X149804380Y-75961761D01*
X149756761Y-75818904D01*
X149709142Y-75771285D01*
X149375809Y-75771285D01*
X149375809Y-75961761D01*
X149804380Y-75342714D02*
X148804380Y-75342714D01*
X149804380Y-74771285D01*
X148804380Y-74771285D01*
X149804380Y-74295095D02*
X148804380Y-74295095D01*
X148804380Y-74057000D01*
X148852000Y-73914142D01*
X148947238Y-73818904D01*
X149042476Y-73771285D01*
X149232952Y-73723666D01*
X149375809Y-73723666D01*
X149566285Y-73771285D01*
X149661523Y-73818904D01*
X149756761Y-73914142D01*
X149804380Y-74057000D01*
X149804380Y-74295095D01*
X148899619Y-73024904D02*
X148852000Y-72977285D01*
X148804380Y-72882047D01*
X148804380Y-72643952D01*
X148852000Y-72548714D01*
X148899619Y-72501095D01*
X148994857Y-72453476D01*
X149090095Y-72453476D01*
X149232952Y-72501095D01*
X149804380Y-73072523D01*
X149804380Y-72453476D01*
X148804380Y-71548714D02*
X148804380Y-72024904D01*
X149280571Y-72072523D01*
X149232952Y-72024904D01*
X149185333Y-71929666D01*
X149185333Y-71691571D01*
X149232952Y-71596333D01*
X149280571Y-71548714D01*
X149375809Y-71501095D01*
X149613904Y-71501095D01*
X149709142Y-71548714D01*
X149756761Y-71596333D01*
X149804380Y-71691571D01*
X149804380Y-71929666D01*
X149756761Y-72024904D01*
X149709142Y-72072523D01*
X148899619Y-70611904D02*
X148852000Y-70564285D01*
X148804380Y-70469047D01*
X148804380Y-70230952D01*
X148852000Y-70135714D01*
X148899619Y-70088095D01*
X148994857Y-70040476D01*
X149090095Y-70040476D01*
X149232952Y-70088095D01*
X149804380Y-70659523D01*
X149804380Y-70040476D01*
X148804380Y-69183333D02*
X148804380Y-69373809D01*
X148852000Y-69469047D01*
X148899619Y-69516666D01*
X149042476Y-69611904D01*
X149232952Y-69659523D01*
X149613904Y-69659523D01*
X149709142Y-69611904D01*
X149756761Y-69564285D01*
X149804380Y-69469047D01*
X149804380Y-69278571D01*
X149756761Y-69183333D01*
X149709142Y-69135714D01*
X149613904Y-69088095D01*
X149375809Y-69088095D01*
X149280571Y-69135714D01*
X149232952Y-69183333D01*
X149185333Y-69278571D01*
X149185333Y-69469047D01*
X149232952Y-69564285D01*
X149280571Y-69611904D01*
X149375809Y-69659523D01*
X148804380Y-62912523D02*
X148804380Y-62293476D01*
X149185333Y-62626809D01*
X149185333Y-62483952D01*
X149232952Y-62388714D01*
X149280571Y-62341095D01*
X149375809Y-62293476D01*
X149613904Y-62293476D01*
X149709142Y-62341095D01*
X149756761Y-62388714D01*
X149804380Y-62483952D01*
X149804380Y-62769666D01*
X149756761Y-62864904D01*
X149709142Y-62912523D01*
X148899619Y-61912523D02*
X148852000Y-61864904D01*
X148804380Y-61769666D01*
X148804380Y-61531571D01*
X148852000Y-61436333D01*
X148899619Y-61388714D01*
X148994857Y-61341095D01*
X149090095Y-61341095D01*
X149232952Y-61388714D01*
X149804380Y-61960142D01*
X149804380Y-61341095D01*
X148804380Y-60499523D02*
X148804380Y-59880476D01*
X149185333Y-60213809D01*
X149185333Y-60070952D01*
X149232952Y-59975714D01*
X149280571Y-59928095D01*
X149375809Y-59880476D01*
X149613904Y-59880476D01*
X149709142Y-59928095D01*
X149756761Y-59975714D01*
X149804380Y-60070952D01*
X149804380Y-60356666D01*
X149756761Y-60451904D01*
X149709142Y-60499523D01*
X149137714Y-59023333D02*
X149804380Y-59023333D01*
X148756761Y-59261428D02*
X149471047Y-59499523D01*
X149471047Y-58880476D01*
X148804380Y-57959523D02*
X148804380Y-57340476D01*
X149185333Y-57673809D01*
X149185333Y-57530952D01*
X149232952Y-57435714D01*
X149280571Y-57388095D01*
X149375809Y-57340476D01*
X149613904Y-57340476D01*
X149709142Y-57388095D01*
X149756761Y-57435714D01*
X149804380Y-57530952D01*
X149804380Y-57816666D01*
X149756761Y-57911904D01*
X149709142Y-57959523D01*
X148804380Y-56435714D02*
X148804380Y-56911904D01*
X149280571Y-56959523D01*
X149232952Y-56911904D01*
X149185333Y-56816666D01*
X149185333Y-56578571D01*
X149232952Y-56483333D01*
X149280571Y-56435714D01*
X149375809Y-56388095D01*
X149613904Y-56388095D01*
X149709142Y-56435714D01*
X149756761Y-56483333D01*
X149804380Y-56578571D01*
X149804380Y-56816666D01*
X149756761Y-56911904D01*
X149709142Y-56959523D01*
X148804380Y-55292523D02*
X148804380Y-54673476D01*
X149185333Y-55006809D01*
X149185333Y-54863952D01*
X149232952Y-54768714D01*
X149280571Y-54721095D01*
X149375809Y-54673476D01*
X149613904Y-54673476D01*
X149709142Y-54721095D01*
X149756761Y-54768714D01*
X149804380Y-54863952D01*
X149804380Y-55149666D01*
X149756761Y-55244904D01*
X149709142Y-55292523D01*
X148804380Y-53816333D02*
X148804380Y-54006809D01*
X148852000Y-54102047D01*
X148899619Y-54149666D01*
X149042476Y-54244904D01*
X149232952Y-54292523D01*
X149613904Y-54292523D01*
X149709142Y-54244904D01*
X149756761Y-54197285D01*
X149804380Y-54102047D01*
X149804380Y-53911571D01*
X149756761Y-53816333D01*
X149709142Y-53768714D01*
X149613904Y-53721095D01*
X149375809Y-53721095D01*
X149280571Y-53768714D01*
X149232952Y-53816333D01*
X149185333Y-53911571D01*
X149185333Y-54102047D01*
X149232952Y-54197285D01*
X149280571Y-54244904D01*
X149375809Y-54292523D01*
X148804380Y-52752523D02*
X148804380Y-52133476D01*
X149185333Y-52466809D01*
X149185333Y-52323952D01*
X149232952Y-52228714D01*
X149280571Y-52181095D01*
X149375809Y-52133476D01*
X149613904Y-52133476D01*
X149709142Y-52181095D01*
X149756761Y-52228714D01*
X149804380Y-52323952D01*
X149804380Y-52609666D01*
X149756761Y-52704904D01*
X149709142Y-52752523D01*
X148804380Y-51800142D02*
X148804380Y-51133476D01*
X149804380Y-51562047D01*
X148804380Y-50339523D02*
X148804380Y-49720476D01*
X149185333Y-50053809D01*
X149185333Y-49910952D01*
X149232952Y-49815714D01*
X149280571Y-49768095D01*
X149375809Y-49720476D01*
X149613904Y-49720476D01*
X149709142Y-49768095D01*
X149756761Y-49815714D01*
X149804380Y-49910952D01*
X149804380Y-50196666D01*
X149756761Y-50291904D01*
X149709142Y-50339523D01*
X149232952Y-49149047D02*
X149185333Y-49244285D01*
X149137714Y-49291904D01*
X149042476Y-49339523D01*
X148994857Y-49339523D01*
X148899619Y-49291904D01*
X148852000Y-49244285D01*
X148804380Y-49149047D01*
X148804380Y-48958571D01*
X148852000Y-48863333D01*
X148899619Y-48815714D01*
X148994857Y-48768095D01*
X149042476Y-48768095D01*
X149137714Y-48815714D01*
X149185333Y-48863333D01*
X149232952Y-48958571D01*
X149232952Y-49149047D01*
X149280571Y-49244285D01*
X149328190Y-49291904D01*
X149423428Y-49339523D01*
X149613904Y-49339523D01*
X149709142Y-49291904D01*
X149756761Y-49244285D01*
X149804380Y-49149047D01*
X149804380Y-48958571D01*
X149756761Y-48863333D01*
X149709142Y-48815714D01*
X149613904Y-48768095D01*
X149423428Y-48768095D01*
X149328190Y-48815714D01*
X149280571Y-48863333D01*
X149232952Y-48958571D01*
X149137714Y-47529714D02*
X149804380Y-47529714D01*
X148756761Y-47767809D02*
X149471047Y-48005904D01*
X149471047Y-47386857D01*
X148804380Y-47101142D02*
X148804380Y-46482095D01*
X149185333Y-46815428D01*
X149185333Y-46672571D01*
X149232952Y-46577333D01*
X149280571Y-46529714D01*
X149375809Y-46482095D01*
X149613904Y-46482095D01*
X149709142Y-46529714D01*
X149756761Y-46577333D01*
X149804380Y-46672571D01*
X149804380Y-46958285D01*
X149756761Y-47053523D01*
X149709142Y-47101142D01*
X148804380Y-45688095D02*
X148804380Y-45069047D01*
X149185333Y-45402380D01*
X149185333Y-45259523D01*
X149232952Y-45164285D01*
X149280571Y-45116666D01*
X149375809Y-45069047D01*
X149613904Y-45069047D01*
X149709142Y-45116666D01*
X149756761Y-45164285D01*
X149804380Y-45259523D01*
X149804380Y-45545238D01*
X149756761Y-45640476D01*
X149709142Y-45688095D01*
X148804380Y-44783333D02*
X149804380Y-44450000D01*
X148804380Y-44116666D01*
X148804380Y-43878571D02*
X148804380Y-43259523D01*
X149185333Y-43592857D01*
X149185333Y-43450000D01*
X149232952Y-43354761D01*
X149280571Y-43307142D01*
X149375809Y-43259523D01*
X149613904Y-43259523D01*
X149709142Y-43307142D01*
X149756761Y-43354761D01*
X149804380Y-43450000D01*
X149804380Y-43735714D01*
X149756761Y-43830952D01*
X149709142Y-43878571D01*
X148899619Y-68071904D02*
X148852000Y-68024285D01*
X148804380Y-67929047D01*
X148804380Y-67690952D01*
X148852000Y-67595714D01*
X148899619Y-67548095D01*
X148994857Y-67500476D01*
X149090095Y-67500476D01*
X149232952Y-67548095D01*
X149804380Y-68119523D01*
X149804380Y-67500476D01*
X148804380Y-67167142D02*
X148804380Y-66500476D01*
X149804380Y-66929047D01*
X148899619Y-65531904D02*
X148852000Y-65484285D01*
X148804380Y-65389047D01*
X148804380Y-65150952D01*
X148852000Y-65055714D01*
X148899619Y-65008095D01*
X148994857Y-64960476D01*
X149090095Y-64960476D01*
X149232952Y-65008095D01*
X149804380Y-65579523D01*
X149804380Y-64960476D01*
X149232952Y-64389047D02*
X149185333Y-64484285D01*
X149137714Y-64531904D01*
X149042476Y-64579523D01*
X148994857Y-64579523D01*
X148899619Y-64531904D01*
X148852000Y-64484285D01*
X148804380Y-64389047D01*
X148804380Y-64198571D01*
X148852000Y-64103333D01*
X148899619Y-64055714D01*
X148994857Y-64008095D01*
X149042476Y-64008095D01*
X149137714Y-64055714D01*
X149185333Y-64103333D01*
X149232952Y-64198571D01*
X149232952Y-64389047D01*
X149280571Y-64484285D01*
X149328190Y-64531904D01*
X149423428Y-64579523D01*
X149613904Y-64579523D01*
X149709142Y-64531904D01*
X149756761Y-64484285D01*
X149804380Y-64389047D01*
X149804380Y-64198571D01*
X149756761Y-64103333D01*
X149709142Y-64055714D01*
X149613904Y-64008095D01*
X149423428Y-64008095D01*
X149328190Y-64055714D01*
X149280571Y-64103333D01*
X149232952Y-64198571D01*
X146327761Y-41854428D02*
X146184904Y-41806809D01*
X146137285Y-41759190D01*
X146089666Y-41663952D01*
X146089666Y-41521095D01*
X146137285Y-41425857D01*
X146184904Y-41378238D01*
X146280142Y-41330619D01*
X146661095Y-41330619D01*
X146661095Y-42330619D01*
X146327761Y-42330619D01*
X146232523Y-42283000D01*
X146184904Y-42235380D01*
X146137285Y-42140142D01*
X146137285Y-42044904D01*
X146184904Y-41949666D01*
X146232523Y-41902047D01*
X146327761Y-41854428D01*
X146661095Y-41854428D01*
X145708714Y-42235380D02*
X145661095Y-42283000D01*
X145565857Y-42330619D01*
X145327761Y-42330619D01*
X145232523Y-42283000D01*
X145184904Y-42235380D01*
X145137285Y-42140142D01*
X145137285Y-42044904D01*
X145184904Y-41902047D01*
X145756333Y-41330619D01*
X145137285Y-41330619D01*
X143763904Y-44823000D02*
X143859142Y-44870619D01*
X144002000Y-44870619D01*
X144144857Y-44823000D01*
X144240095Y-44727761D01*
X144287714Y-44632523D01*
X144335333Y-44442047D01*
X144335333Y-44299190D01*
X144287714Y-44108714D01*
X144240095Y-44013476D01*
X144144857Y-43918238D01*
X144002000Y-43870619D01*
X143906761Y-43870619D01*
X143763904Y-43918238D01*
X143716285Y-43965857D01*
X143716285Y-44299190D01*
X143906761Y-44299190D01*
X143287714Y-43870619D02*
X143287714Y-44870619D01*
X142716285Y-43870619D01*
X142716285Y-44870619D01*
X142240095Y-43870619D02*
X142240095Y-44870619D01*
X142002000Y-44870619D01*
X141859142Y-44823000D01*
X141763904Y-44727761D01*
X141716285Y-44632523D01*
X141668666Y-44442047D01*
X141668666Y-44299190D01*
X141716285Y-44108714D01*
X141763904Y-44013476D01*
X141859142Y-43918238D01*
X142002000Y-43870619D01*
X142240095Y-43870619D01*
X140620714Y-44537285D02*
X140620714Y-43870619D01*
X140858809Y-44918238D02*
X141096904Y-44203952D01*
X140477857Y-44203952D01*
X139668333Y-44537285D02*
X139668333Y-43870619D01*
X139906428Y-44918238D02*
X140144523Y-44203952D01*
X139525476Y-44203952D01*
X138080714Y-44537285D02*
X138080714Y-43870619D01*
X138318809Y-44918238D02*
X138556904Y-44203952D01*
X137937857Y-44203952D01*
X137080714Y-44870619D02*
X137556904Y-44870619D01*
X137604523Y-44394428D01*
X137556904Y-44442047D01*
X137461666Y-44489666D01*
X137223571Y-44489666D01*
X137128333Y-44442047D01*
X137080714Y-44394428D01*
X137033095Y-44299190D01*
X137033095Y-44061095D01*
X137080714Y-43965857D01*
X137128333Y-43918238D01*
X137223571Y-43870619D01*
X137461666Y-43870619D01*
X137556904Y-43918238D01*
X137604523Y-43965857D01*
X135540714Y-44537285D02*
X135540714Y-43870619D01*
X135778809Y-44918238D02*
X136016904Y-44203952D01*
X135397857Y-44203952D01*
X134588333Y-44870619D02*
X134778809Y-44870619D01*
X134874047Y-44823000D01*
X134921666Y-44775380D01*
X135016904Y-44632523D01*
X135064523Y-44442047D01*
X135064523Y-44061095D01*
X135016904Y-43965857D01*
X134969285Y-43918238D01*
X134874047Y-43870619D01*
X134683571Y-43870619D01*
X134588333Y-43918238D01*
X134540714Y-43965857D01*
X134493095Y-44061095D01*
X134493095Y-44299190D01*
X134540714Y-44394428D01*
X134588333Y-44442047D01*
X134683571Y-44489666D01*
X134874047Y-44489666D01*
X134969285Y-44442047D01*
X135016904Y-44394428D01*
X135064523Y-44299190D01*
X133000714Y-44537285D02*
X133000714Y-43870619D01*
X133238809Y-44918238D02*
X133476904Y-44203952D01*
X132857857Y-44203952D01*
X132572142Y-44870619D02*
X131905476Y-44870619D01*
X132334047Y-43870619D01*
X130460714Y-44537285D02*
X130460714Y-43870619D01*
X130698809Y-44918238D02*
X130936904Y-44203952D01*
X130317857Y-44203952D01*
X129794047Y-44442047D02*
X129889285Y-44489666D01*
X129936904Y-44537285D01*
X129984523Y-44632523D01*
X129984523Y-44680142D01*
X129936904Y-44775380D01*
X129889285Y-44823000D01*
X129794047Y-44870619D01*
X129603571Y-44870619D01*
X129508333Y-44823000D01*
X129460714Y-44775380D01*
X129413095Y-44680142D01*
X129413095Y-44632523D01*
X129460714Y-44537285D01*
X129508333Y-44489666D01*
X129603571Y-44442047D01*
X129794047Y-44442047D01*
X129889285Y-44394428D01*
X129936904Y-44346809D01*
X129984523Y-44251571D01*
X129984523Y-44061095D01*
X129936904Y-43965857D01*
X129889285Y-43918238D01*
X129794047Y-43870619D01*
X129603571Y-43870619D01*
X129508333Y-43918238D01*
X129460714Y-43965857D01*
X129413095Y-44061095D01*
X129413095Y-44251571D01*
X129460714Y-44346809D01*
X129508333Y-44394428D01*
X129603571Y-44442047D01*
X127571523Y-44537285D02*
X127571523Y-43870619D01*
X127809619Y-44918238D02*
X128047714Y-44203952D01*
X127428666Y-44203952D01*
X125555333Y-44870619D02*
X124936285Y-44870619D01*
X125269619Y-44489666D01*
X125126761Y-44489666D01*
X125031523Y-44442047D01*
X124983904Y-44394428D01*
X124936285Y-44299190D01*
X124936285Y-44061095D01*
X124983904Y-43965857D01*
X125031523Y-43918238D01*
X125126761Y-43870619D01*
X125412476Y-43870619D01*
X125507714Y-43918238D01*
X125555333Y-43965857D01*
X122967714Y-44775380D02*
X122920095Y-44823000D01*
X122824857Y-44870619D01*
X122586761Y-44870619D01*
X122491523Y-44823000D01*
X122443904Y-44775380D01*
X122396285Y-44680142D01*
X122396285Y-44584904D01*
X122443904Y-44442047D01*
X123015333Y-43870619D01*
X122396285Y-43870619D01*
X121380095Y-44870619D02*
X120761047Y-44870619D01*
X121094380Y-44489666D01*
X120951523Y-44489666D01*
X120856285Y-44442047D01*
X120808666Y-44394428D01*
X120761047Y-44299190D01*
X120761047Y-44061095D01*
X120808666Y-43965857D01*
X120856285Y-43918238D01*
X120951523Y-43870619D01*
X121237238Y-43870619D01*
X121332476Y-43918238D01*
X121380095Y-43965857D01*
X120475333Y-44870619D02*
X120142000Y-43870619D01*
X119808666Y-44870619D01*
X119570571Y-44870619D02*
X118951523Y-44870619D01*
X119284857Y-44489666D01*
X119142000Y-44489666D01*
X119046761Y-44442047D01*
X118999142Y-44394428D01*
X118951523Y-44299190D01*
X118951523Y-44061095D01*
X118999142Y-43965857D01*
X119046761Y-43918238D01*
X119142000Y-43870619D01*
X119427714Y-43870619D01*
X119522952Y-43918238D01*
X119570571Y-43965857D01*
D12*
X139903238Y-64065142D02*
X140512761Y-64065142D01*
X140208000Y-64369904D02*
X140208000Y-63760380D01*
X123393238Y-73971142D02*
X124002761Y-73971142D01*
X123698000Y-74275904D02*
X123698000Y-73666380D01*
X130331981Y-52959000D02*
G75*
G03X130331981Y-52959000I-283981J0D01*
G01*
D14*
X141569221Y-62482000D02*
X141894779Y-62482000D01*
X141569221Y-63502000D02*
X141894779Y-63502000D01*
X101678000Y-64657000D02*
X102128000Y-65107000D01*
X105078000Y-64657000D02*
X104628000Y-65107000D01*
X105078000Y-60057000D02*
X104628000Y-59607000D01*
X101678000Y-60057000D02*
X102128000Y-59607000D01*
X106128000Y-61357000D02*
X106128000Y-63357000D01*
X102128000Y-65107000D02*
X104628000Y-65107000D01*
X100628000Y-61357000D02*
X100628000Y-63357000D01*
X102128000Y-59607000D02*
X104628000Y-59607000D01*
X132206800Y-70048200D02*
X135356800Y-70048200D01*
X135356800Y-70048200D02*
X135356800Y-66248200D01*
X116748779Y-54358000D02*
X116423221Y-54358000D01*
X116748779Y-53338000D02*
X116423221Y-53338000D01*
X116748779Y-62990000D02*
X116423221Y-62990000D01*
X116748779Y-64010000D02*
X116423221Y-64010000D01*
X143347221Y-54862000D02*
X143672779Y-54862000D01*
X143347221Y-55882000D02*
X143672779Y-55882000D01*
X112105221Y-64010000D02*
X112430779Y-64010000D01*
X112105221Y-62990000D02*
X112430779Y-62990000D01*
X143672779Y-57406000D02*
X143347221Y-57406000D01*
X143672779Y-56386000D02*
X143347221Y-56386000D01*
X141894779Y-59434000D02*
X141569221Y-59434000D01*
X141894779Y-60454000D02*
X141569221Y-60454000D01*
X141894779Y-61978000D02*
X141569221Y-61978000D01*
X141894779Y-60958000D02*
X141569221Y-60958000D01*
X122265221Y-58168000D02*
X122590779Y-58168000D01*
X122265221Y-57148000D02*
X122590779Y-57148000D01*
X136827800Y-68310979D02*
X136827800Y-67985421D01*
X137847800Y-68310979D02*
X137847800Y-67985421D01*
X128234221Y-71671656D02*
X128559779Y-71671656D01*
X128234221Y-70651656D02*
X128559779Y-70651656D01*
X122590779Y-56644000D02*
X122265221Y-56644000D01*
X122590779Y-55624000D02*
X122265221Y-55624000D01*
X112105221Y-54358000D02*
X112430779Y-54358000D01*
X112105221Y-53338000D02*
X112430779Y-53338000D01*
X134020779Y-65407000D02*
X133695221Y-65407000D01*
X134020779Y-64387000D02*
X133695221Y-64387000D01*
X128119000Y-74043656D02*
X125569000Y-74043656D01*
X128119000Y-72343656D02*
X125569000Y-72343656D01*
X128119000Y-74043656D02*
X128119000Y-72343656D01*
X136422000Y-63158000D02*
X136422000Y-64858000D01*
X136422000Y-64858000D02*
X138972000Y-64858000D01*
X136422000Y-63158000D02*
X138972000Y-63158000D01*
X141894779Y-58930000D02*
X141569221Y-58930000D01*
X141894779Y-57910000D02*
X141569221Y-57910000D01*
X122265221Y-59692000D02*
X122590779Y-59692000D01*
X122265221Y-58672000D02*
X122590779Y-58672000D01*
X122265221Y-60196000D02*
X122590779Y-60196000D01*
X122265221Y-61216000D02*
X122590779Y-61216000D01*
X100873779Y-65657000D02*
X100548221Y-65657000D01*
X100873779Y-66677000D02*
X100548221Y-66677000D01*
X124749779Y-71671656D02*
X124424221Y-71671656D01*
X124749779Y-70651656D02*
X124424221Y-70651656D01*
X134934000Y-79943000D02*
X134934000Y-77283000D01*
X119634000Y-79943000D02*
X134934000Y-79943000D01*
X119634000Y-77283000D02*
X134934000Y-77283000D01*
X119634000Y-79943000D02*
X119634000Y-77283000D01*
X118364000Y-79943000D02*
X117034000Y-79943000D01*
X117034000Y-79943000D02*
X117034000Y-78613000D01*
X150435000Y-76260000D02*
X153095000Y-76260000D01*
X150435000Y-45720000D02*
X150435000Y-76260000D01*
X153095000Y-45720000D02*
X153095000Y-76260000D01*
X150435000Y-45720000D02*
X153095000Y-45720000D01*
X150435000Y-44450000D02*
X150435000Y-43120000D01*
X150435000Y-43120000D02*
X151765000Y-43120000D01*
X144332000Y-43113000D02*
X144332000Y-40453000D01*
X121412000Y-43113000D02*
X144332000Y-43113000D01*
X121412000Y-40453000D02*
X144332000Y-40453000D01*
X121412000Y-43113000D02*
X121412000Y-40453000D01*
X120142000Y-43113000D02*
X118812000Y-43113000D01*
X118812000Y-43113000D02*
X118812000Y-41783000D01*
X114614000Y-73974000D02*
X114614000Y-68774000D01*
X104394000Y-73974000D02*
X114614000Y-73974000D01*
X101794000Y-68774000D02*
X114614000Y-68774000D01*
X104394000Y-73974000D02*
X104394000Y-71374000D01*
X104394000Y-71374000D02*
X101794000Y-71374000D01*
X101794000Y-71374000D02*
X101794000Y-68774000D01*
X103124000Y-73974000D02*
X101794000Y-73974000D01*
X101794000Y-73974000D02*
X101794000Y-72644000D01*
X108415000Y-48447000D02*
X108415000Y-47397000D01*
X107365000Y-47397000D02*
X108415000Y-47397000D01*
X102315000Y-56797000D02*
X93515000Y-56797000D01*
X93515000Y-56797000D02*
X93515000Y-47597000D01*
X108215000Y-54097000D02*
X108215000Y-56797000D01*
X108215000Y-56797000D02*
X106315000Y-56797000D01*
X93515000Y-47597000D02*
X108215000Y-47597000D01*
X108215000Y-47597000D02*
X108215000Y-50197000D01*
X130650000Y-52622000D02*
X130650000Y-46522000D01*
X131750000Y-52622000D02*
X130650000Y-52622000D01*
X136050000Y-46522000D02*
X136050000Y-51522000D01*
X135215000Y-55064000D02*
X135690000Y-55064000D01*
X135690000Y-55064000D02*
X135690000Y-55539000D01*
X128945000Y-62284000D02*
X128470000Y-62284000D01*
X128470000Y-62284000D02*
X128470000Y-61809000D01*
X135215000Y-62284000D02*
X135690000Y-62284000D01*
X135690000Y-62284000D02*
X135690000Y-61809000D01*
X128945000Y-55064000D02*
X128470000Y-55064000D01*
D10*
X129115000Y-69852656D02*
X129115000Y-69647656D01*
X123615000Y-69852656D02*
X123615000Y-69552656D01*
X123615000Y-64342656D02*
X123615000Y-64642656D01*
X129115000Y-64342656D02*
X129115000Y-64642656D01*
X129115000Y-69852656D02*
X123615000Y-69852656D01*
X129115000Y-64342656D02*
X123615000Y-64342656D01*
X129115000Y-69647656D02*
X130865000Y-69647656D01*
D14*
X110200000Y-55264000D02*
X116210000Y-55264000D01*
X112450000Y-62084000D02*
X116210000Y-62084000D01*
X116210000Y-55264000D02*
X116210000Y-56524000D01*
X116210000Y-62084000D02*
X116210000Y-60824000D01*
X116210000Y-52432000D02*
X116210000Y-51172000D01*
X116210000Y-45612000D02*
X116210000Y-46872000D01*
X112450000Y-52432000D02*
X116210000Y-52432000D01*
X110200000Y-45612000D02*
X116210000Y-45612000D01*
D10*
X141089142Y-66524142D02*
X141041523Y-66571761D01*
X140898666Y-66619380D01*
X140803428Y-66619380D01*
X140660571Y-66571761D01*
X140565333Y-66476523D01*
X140517714Y-66381285D01*
X140470095Y-66190809D01*
X140470095Y-66047952D01*
X140517714Y-65857476D01*
X140565333Y-65762238D01*
X140660571Y-65667000D01*
X140803428Y-65619380D01*
X140898666Y-65619380D01*
X141041523Y-65667000D01*
X141089142Y-65714619D01*
X142041523Y-66619380D02*
X141470095Y-66619380D01*
X141755809Y-66619380D02*
X141755809Y-65619380D01*
X141660571Y-65762238D01*
X141565333Y-65857476D01*
X141470095Y-65905095D01*
X142898666Y-65952714D02*
X142898666Y-66619380D01*
X142660571Y-65571761D02*
X142422476Y-66286047D01*
X143041523Y-66286047D01*
X102044666Y-59011761D02*
X102187523Y-59059380D01*
X102425619Y-59059380D01*
X102520857Y-59011761D01*
X102568476Y-58964142D01*
X102616095Y-58868904D01*
X102616095Y-58773666D01*
X102568476Y-58678428D01*
X102520857Y-58630809D01*
X102425619Y-58583190D01*
X102235142Y-58535571D01*
X102139904Y-58487952D01*
X102092285Y-58440333D01*
X102044666Y-58345095D01*
X102044666Y-58249857D01*
X102092285Y-58154619D01*
X102139904Y-58107000D01*
X102235142Y-58059380D01*
X102473238Y-58059380D01*
X102616095Y-58107000D01*
X102949428Y-58059380D02*
X103187523Y-59059380D01*
X103378000Y-58345095D01*
X103568476Y-59059380D01*
X103806571Y-58059380D01*
X104711333Y-59059380D02*
X104139904Y-59059380D01*
X104425619Y-59059380D02*
X104425619Y-58059380D01*
X104330380Y-58202238D01*
X104235142Y-58297476D01*
X104139904Y-58345095D01*
X130784180Y-68957723D02*
X131784180Y-68291057D01*
X130784180Y-68291057D02*
X131784180Y-68957723D01*
X131784180Y-67386295D02*
X131784180Y-67957723D01*
X131784180Y-67672009D02*
X130784180Y-67672009D01*
X130927038Y-67767247D01*
X131022276Y-67862485D01*
X131069895Y-67957723D01*
X122293142Y-53951142D02*
X122245523Y-53998761D01*
X122102666Y-54046380D01*
X122007428Y-54046380D01*
X121864571Y-53998761D01*
X121769333Y-53903523D01*
X121721714Y-53808285D01*
X121674095Y-53617809D01*
X121674095Y-53474952D01*
X121721714Y-53284476D01*
X121769333Y-53189238D01*
X121864571Y-53094000D01*
X122007428Y-53046380D01*
X122102666Y-53046380D01*
X122245523Y-53094000D01*
X122293142Y-53141619D01*
X123245523Y-54046380D02*
X122674095Y-54046380D01*
X122959809Y-54046380D02*
X122959809Y-53046380D01*
X122864571Y-53189238D01*
X122769333Y-53284476D01*
X122674095Y-53332095D01*
X123578857Y-53046380D02*
X124197904Y-53046380D01*
X123864571Y-53427333D01*
X124007428Y-53427333D01*
X124102666Y-53474952D01*
X124150285Y-53522571D01*
X124197904Y-53617809D01*
X124197904Y-53855904D01*
X124150285Y-53951142D01*
X124102666Y-53998761D01*
X124007428Y-54046380D01*
X123721714Y-54046380D01*
X123626476Y-53998761D01*
X123578857Y-53951142D01*
X115943142Y-65287142D02*
X115895523Y-65334761D01*
X115752666Y-65382380D01*
X115657428Y-65382380D01*
X115514571Y-65334761D01*
X115419333Y-65239523D01*
X115371714Y-65144285D01*
X115324095Y-64953809D01*
X115324095Y-64810952D01*
X115371714Y-64620476D01*
X115419333Y-64525238D01*
X115514571Y-64430000D01*
X115657428Y-64382380D01*
X115752666Y-64382380D01*
X115895523Y-64430000D01*
X115943142Y-64477619D01*
X116895523Y-65382380D02*
X116324095Y-65382380D01*
X116609809Y-65382380D02*
X116609809Y-64382380D01*
X116514571Y-64525238D01*
X116419333Y-64620476D01*
X116324095Y-64668095D01*
X117847904Y-65382380D02*
X117276476Y-65382380D01*
X117562190Y-65382380D02*
X117562190Y-64382380D01*
X117466952Y-64525238D01*
X117371714Y-64620476D01*
X117276476Y-64668095D01*
X143343333Y-54299142D02*
X143295714Y-54346761D01*
X143152857Y-54394380D01*
X143057619Y-54394380D01*
X142914761Y-54346761D01*
X142819523Y-54251523D01*
X142771904Y-54156285D01*
X142724285Y-53965809D01*
X142724285Y-53822952D01*
X142771904Y-53632476D01*
X142819523Y-53537238D01*
X142914761Y-53442000D01*
X143057619Y-53394380D01*
X143152857Y-53394380D01*
X143295714Y-53442000D01*
X143343333Y-53489619D01*
X144295714Y-54394380D02*
X143724285Y-54394380D01*
X144010000Y-54394380D02*
X144010000Y-53394380D01*
X143914761Y-53537238D01*
X143819523Y-53632476D01*
X143724285Y-53680095D01*
X108577142Y-63857142D02*
X108529523Y-63904761D01*
X108386666Y-63952380D01*
X108291428Y-63952380D01*
X108148571Y-63904761D01*
X108053333Y-63809523D01*
X108005714Y-63714285D01*
X107958095Y-63523809D01*
X107958095Y-63380952D01*
X108005714Y-63190476D01*
X108053333Y-63095238D01*
X108148571Y-63000000D01*
X108291428Y-62952380D01*
X108386666Y-62952380D01*
X108529523Y-63000000D01*
X108577142Y-63047619D01*
X109529523Y-63952380D02*
X108958095Y-63952380D01*
X109243809Y-63952380D02*
X109243809Y-62952380D01*
X109148571Y-63095238D01*
X109053333Y-63190476D01*
X108958095Y-63238095D01*
X110148571Y-62952380D02*
X110243809Y-62952380D01*
X110339047Y-63000000D01*
X110386666Y-63047619D01*
X110434285Y-63142857D01*
X110481904Y-63333333D01*
X110481904Y-63571428D01*
X110434285Y-63761904D01*
X110386666Y-63857142D01*
X110339047Y-63904761D01*
X110243809Y-63952380D01*
X110148571Y-63952380D01*
X110053333Y-63904761D01*
X110005714Y-63857142D01*
X109958095Y-63761904D01*
X109910476Y-63571428D01*
X109910476Y-63333333D01*
X109958095Y-63142857D01*
X110005714Y-63047619D01*
X110053333Y-63000000D01*
X110148571Y-62952380D01*
X146137333Y-57380142D02*
X146089714Y-57427761D01*
X145946857Y-57475380D01*
X145851619Y-57475380D01*
X145708761Y-57427761D01*
X145613523Y-57332523D01*
X145565904Y-57237285D01*
X145518285Y-57046809D01*
X145518285Y-56903952D01*
X145565904Y-56713476D01*
X145613523Y-56618238D01*
X145708761Y-56523000D01*
X145851619Y-56475380D01*
X145946857Y-56475380D01*
X146089714Y-56523000D01*
X146137333Y-56570619D01*
X146613523Y-57475380D02*
X146804000Y-57475380D01*
X146899238Y-57427761D01*
X146946857Y-57380142D01*
X147042095Y-57237285D01*
X147089714Y-57046809D01*
X147089714Y-56665857D01*
X147042095Y-56570619D01*
X146994476Y-56523000D01*
X146899238Y-56475380D01*
X146708761Y-56475380D01*
X146613523Y-56523000D01*
X146565904Y-56570619D01*
X146518285Y-56665857D01*
X146518285Y-56903952D01*
X146565904Y-56999190D01*
X146613523Y-57046809D01*
X146708761Y-57094428D01*
X146899238Y-57094428D01*
X146994476Y-57046809D01*
X147042095Y-56999190D01*
X147089714Y-56903952D01*
X144232333Y-60301142D02*
X144184714Y-60348761D01*
X144041857Y-60396380D01*
X143946619Y-60396380D01*
X143803761Y-60348761D01*
X143708523Y-60253523D01*
X143660904Y-60158285D01*
X143613285Y-59967809D01*
X143613285Y-59824952D01*
X143660904Y-59634476D01*
X143708523Y-59539238D01*
X143803761Y-59444000D01*
X143946619Y-59396380D01*
X144041857Y-59396380D01*
X144184714Y-59444000D01*
X144232333Y-59491619D01*
X144803761Y-59824952D02*
X144708523Y-59777333D01*
X144660904Y-59729714D01*
X144613285Y-59634476D01*
X144613285Y-59586857D01*
X144660904Y-59491619D01*
X144708523Y-59444000D01*
X144803761Y-59396380D01*
X144994238Y-59396380D01*
X145089476Y-59444000D01*
X145137095Y-59491619D01*
X145184714Y-59586857D01*
X145184714Y-59634476D01*
X145137095Y-59729714D01*
X145089476Y-59777333D01*
X144994238Y-59824952D01*
X144803761Y-59824952D01*
X144708523Y-59872571D01*
X144660904Y-59920190D01*
X144613285Y-60015428D01*
X144613285Y-60205904D01*
X144660904Y-60301142D01*
X144708523Y-60348761D01*
X144803761Y-60396380D01*
X144994238Y-60396380D01*
X145089476Y-60348761D01*
X145137095Y-60301142D01*
X145184714Y-60205904D01*
X145184714Y-60015428D01*
X145137095Y-59920190D01*
X145089476Y-59872571D01*
X144994238Y-59824952D01*
X141565333Y-64873142D02*
X141517714Y-64920761D01*
X141374857Y-64968380D01*
X141279619Y-64968380D01*
X141136761Y-64920761D01*
X141041523Y-64825523D01*
X140993904Y-64730285D01*
X140946285Y-64539809D01*
X140946285Y-64396952D01*
X140993904Y-64206476D01*
X141041523Y-64111238D01*
X141136761Y-64016000D01*
X141279619Y-63968380D01*
X141374857Y-63968380D01*
X141517714Y-64016000D01*
X141565333Y-64063619D01*
X141898666Y-63968380D02*
X142565333Y-63968380D01*
X142136761Y-64968380D01*
X122261333Y-56585142D02*
X122213714Y-56632761D01*
X122070857Y-56680380D01*
X121975619Y-56680380D01*
X121832761Y-56632761D01*
X121737523Y-56537523D01*
X121689904Y-56442285D01*
X121642285Y-56251809D01*
X121642285Y-56108952D01*
X121689904Y-55918476D01*
X121737523Y-55823238D01*
X121832761Y-55728000D01*
X121975619Y-55680380D01*
X122070857Y-55680380D01*
X122213714Y-55728000D01*
X122261333Y-55775619D01*
X123118476Y-55680380D02*
X122928000Y-55680380D01*
X122832761Y-55728000D01*
X122785142Y-55775619D01*
X122689904Y-55918476D01*
X122642285Y-56108952D01*
X122642285Y-56489904D01*
X122689904Y-56585142D01*
X122737523Y-56632761D01*
X122832761Y-56680380D01*
X123023238Y-56680380D01*
X123118476Y-56632761D01*
X123166095Y-56585142D01*
X123213714Y-56489904D01*
X123213714Y-56251809D01*
X123166095Y-56156571D01*
X123118476Y-56108952D01*
X123023238Y-56061333D01*
X122832761Y-56061333D01*
X122737523Y-56108952D01*
X122689904Y-56156571D01*
X122642285Y-56251809D01*
X139295142Y-68314866D02*
X139342761Y-68362485D01*
X139390380Y-68505342D01*
X139390380Y-68600580D01*
X139342761Y-68743438D01*
X139247523Y-68838676D01*
X139152285Y-68886295D01*
X138961809Y-68933914D01*
X138818952Y-68933914D01*
X138628476Y-68886295D01*
X138533238Y-68838676D01*
X138438000Y-68743438D01*
X138390380Y-68600580D01*
X138390380Y-68505342D01*
X138438000Y-68362485D01*
X138485619Y-68314866D01*
X138390380Y-67410104D02*
X138390380Y-67886295D01*
X138866571Y-67933914D01*
X138818952Y-67886295D01*
X138771333Y-67791057D01*
X138771333Y-67552961D01*
X138818952Y-67457723D01*
X138866571Y-67410104D01*
X138961809Y-67362485D01*
X139199904Y-67362485D01*
X139295142Y-67410104D01*
X139342761Y-67457723D01*
X139390380Y-67552961D01*
X139390380Y-67791057D01*
X139342761Y-67886295D01*
X139295142Y-67933914D01*
X130262333Y-73001142D02*
X130214714Y-73048761D01*
X130071857Y-73096380D01*
X129976619Y-73096380D01*
X129833761Y-73048761D01*
X129738523Y-72953523D01*
X129690904Y-72858285D01*
X129643285Y-72667809D01*
X129643285Y-72524952D01*
X129690904Y-72334476D01*
X129738523Y-72239238D01*
X129833761Y-72144000D01*
X129976619Y-72096380D01*
X130071857Y-72096380D01*
X130214714Y-72144000D01*
X130262333Y-72191619D01*
X131119476Y-72429714D02*
X131119476Y-73096380D01*
X130881380Y-72048761D02*
X130643285Y-72763047D01*
X131262333Y-72763047D01*
X122261333Y-57921142D02*
X122213714Y-57968761D01*
X122070857Y-58016380D01*
X121975619Y-58016380D01*
X121832761Y-57968761D01*
X121737523Y-57873523D01*
X121689904Y-57778285D01*
X121642285Y-57587809D01*
X121642285Y-57444952D01*
X121689904Y-57254476D01*
X121737523Y-57159238D01*
X121832761Y-57064000D01*
X121975619Y-57016380D01*
X122070857Y-57016380D01*
X122213714Y-57064000D01*
X122261333Y-57111619D01*
X122594666Y-57016380D02*
X123213714Y-57016380D01*
X122880380Y-57397333D01*
X123023238Y-57397333D01*
X123118476Y-57444952D01*
X123166095Y-57492571D01*
X123213714Y-57587809D01*
X123213714Y-57825904D01*
X123166095Y-57921142D01*
X123118476Y-57968761D01*
X123023238Y-58016380D01*
X122737523Y-58016380D01*
X122642285Y-57968761D01*
X122594666Y-57921142D01*
X119118142Y-53951142D02*
X119070523Y-53998761D01*
X118927666Y-54046380D01*
X118832428Y-54046380D01*
X118689571Y-53998761D01*
X118594333Y-53903523D01*
X118546714Y-53808285D01*
X118499095Y-53617809D01*
X118499095Y-53474952D01*
X118546714Y-53284476D01*
X118594333Y-53189238D01*
X118689571Y-53094000D01*
X118832428Y-53046380D01*
X118927666Y-53046380D01*
X119070523Y-53094000D01*
X119118142Y-53141619D01*
X120070523Y-54046380D02*
X119499095Y-54046380D01*
X119784809Y-54046380D02*
X119784809Y-53046380D01*
X119689571Y-53189238D01*
X119594333Y-53284476D01*
X119499095Y-53332095D01*
X120451476Y-53141619D02*
X120499095Y-53094000D01*
X120594333Y-53046380D01*
X120832428Y-53046380D01*
X120927666Y-53094000D01*
X120975285Y-53141619D01*
X121022904Y-53236857D01*
X121022904Y-53332095D01*
X120975285Y-53474952D01*
X120403857Y-54046380D01*
X121022904Y-54046380D01*
X135342333Y-66778142D02*
X135294714Y-66825761D01*
X135151857Y-66873380D01*
X135056619Y-66873380D01*
X134913761Y-66825761D01*
X134818523Y-66730523D01*
X134770904Y-66635285D01*
X134723285Y-66444809D01*
X134723285Y-66301952D01*
X134770904Y-66111476D01*
X134818523Y-66016238D01*
X134913761Y-65921000D01*
X135056619Y-65873380D01*
X135151857Y-65873380D01*
X135294714Y-65921000D01*
X135342333Y-65968619D01*
X135723285Y-65968619D02*
X135770904Y-65921000D01*
X135866142Y-65873380D01*
X136104238Y-65873380D01*
X136199476Y-65921000D01*
X136247095Y-65968619D01*
X136294714Y-66063857D01*
X136294714Y-66159095D01*
X136247095Y-66301952D01*
X135675666Y-66873380D01*
X136294714Y-66873380D01*
X128547904Y-74874380D02*
X128547904Y-73874380D01*
X128786000Y-73874380D01*
X128928857Y-73922000D01*
X129024095Y-74017238D01*
X129071714Y-74112476D01*
X129119333Y-74302952D01*
X129119333Y-74445809D01*
X129071714Y-74636285D01*
X129024095Y-74731523D01*
X128928857Y-74826761D01*
X128786000Y-74874380D01*
X128547904Y-74874380D01*
X129500285Y-73969619D02*
X129547904Y-73922000D01*
X129643142Y-73874380D01*
X129881238Y-73874380D01*
X129976476Y-73922000D01*
X130024095Y-73969619D01*
X130071714Y-74064857D01*
X130071714Y-74160095D01*
X130024095Y-74302952D01*
X129452666Y-74874380D01*
X130071714Y-74874380D01*
X136802904Y-62610380D02*
X136802904Y-61610380D01*
X137041000Y-61610380D01*
X137183857Y-61658000D01*
X137279095Y-61753238D01*
X137326714Y-61848476D01*
X137374333Y-62038952D01*
X137374333Y-62181809D01*
X137326714Y-62372285D01*
X137279095Y-62467523D01*
X137183857Y-62562761D01*
X137041000Y-62610380D01*
X136802904Y-62610380D01*
X138326714Y-62610380D02*
X137755285Y-62610380D01*
X138041000Y-62610380D02*
X138041000Y-61610380D01*
X137945761Y-61753238D01*
X137850523Y-61848476D01*
X137755285Y-61896095D01*
X137850666Y-58856571D02*
X137517333Y-58856571D01*
X137517333Y-59380380D02*
X137517333Y-58380380D01*
X137993523Y-58380380D01*
X138707809Y-58856571D02*
X138850666Y-58904190D01*
X138898285Y-58951809D01*
X138945904Y-59047047D01*
X138945904Y-59189904D01*
X138898285Y-59285142D01*
X138850666Y-59332761D01*
X138755428Y-59380380D01*
X138374476Y-59380380D01*
X138374476Y-58380380D01*
X138707809Y-58380380D01*
X138803047Y-58428000D01*
X138850666Y-58475619D01*
X138898285Y-58570857D01*
X138898285Y-58666095D01*
X138850666Y-58761333D01*
X138803047Y-58808952D01*
X138707809Y-58856571D01*
X138374476Y-58856571D01*
X139898285Y-59380380D02*
X139326857Y-59380380D01*
X139612571Y-59380380D02*
X139612571Y-58380380D01*
X139517333Y-58523238D01*
X139422095Y-58618476D01*
X139326857Y-58666095D01*
X122261333Y-58204380D02*
X121928000Y-57728190D01*
X121689904Y-58204380D02*
X121689904Y-57204380D01*
X122070857Y-57204380D01*
X122166095Y-57252000D01*
X122213714Y-57299619D01*
X122261333Y-57394857D01*
X122261333Y-57537714D01*
X122213714Y-57632952D01*
X122166095Y-57680571D01*
X122070857Y-57728190D01*
X121689904Y-57728190D01*
X122642285Y-57299619D02*
X122689904Y-57252000D01*
X122785142Y-57204380D01*
X123023238Y-57204380D01*
X123118476Y-57252000D01*
X123166095Y-57299619D01*
X123213714Y-57394857D01*
X123213714Y-57490095D01*
X123166095Y-57632952D01*
X122594666Y-58204380D01*
X123213714Y-58204380D01*
X122261333Y-59728380D02*
X121928000Y-59252190D01*
X121689904Y-59728380D02*
X121689904Y-58728380D01*
X122070857Y-58728380D01*
X122166095Y-58776000D01*
X122213714Y-58823619D01*
X122261333Y-58918857D01*
X122261333Y-59061714D01*
X122213714Y-59156952D01*
X122166095Y-59204571D01*
X122070857Y-59252190D01*
X121689904Y-59252190D01*
X123213714Y-59728380D02*
X122642285Y-59728380D01*
X122928000Y-59728380D02*
X122928000Y-58728380D01*
X122832761Y-58871238D01*
X122737523Y-58966476D01*
X122642285Y-59014095D01*
X100544333Y-68049380D02*
X100211000Y-67573190D01*
X99972904Y-68049380D02*
X99972904Y-67049380D01*
X100353857Y-67049380D01*
X100449095Y-67097000D01*
X100496714Y-67144619D01*
X100544333Y-67239857D01*
X100544333Y-67382714D01*
X100496714Y-67477952D01*
X100449095Y-67525571D01*
X100353857Y-67573190D01*
X99972904Y-67573190D01*
X101401476Y-67382714D02*
X101401476Y-68049380D01*
X101163380Y-67001761D02*
X100925285Y-67716047D01*
X101544333Y-67716047D01*
X123785333Y-73223380D02*
X123452000Y-72747190D01*
X123213904Y-73223380D02*
X123213904Y-72223380D01*
X123594857Y-72223380D01*
X123690095Y-72271000D01*
X123737714Y-72318619D01*
X123785333Y-72413857D01*
X123785333Y-72556714D01*
X123737714Y-72651952D01*
X123690095Y-72699571D01*
X123594857Y-72747190D01*
X123213904Y-72747190D01*
X124118666Y-72223380D02*
X124737714Y-72223380D01*
X124404380Y-72604333D01*
X124547238Y-72604333D01*
X124642476Y-72651952D01*
X124690095Y-72699571D01*
X124737714Y-72794809D01*
X124737714Y-73032904D01*
X124690095Y-73128142D01*
X124642476Y-73175761D01*
X124547238Y-73223380D01*
X124261523Y-73223380D01*
X124166285Y-73175761D01*
X124118666Y-73128142D01*
X135723380Y-78946333D02*
X136437666Y-78946333D01*
X136580523Y-78993952D01*
X136675761Y-79089190D01*
X136723380Y-79232047D01*
X136723380Y-79327285D01*
X135723380Y-77993952D02*
X135723380Y-78470142D01*
X136199571Y-78517761D01*
X136151952Y-78470142D01*
X136104333Y-78374904D01*
X136104333Y-78136809D01*
X136151952Y-78041571D01*
X136199571Y-77993952D01*
X136294809Y-77946333D01*
X136532904Y-77946333D01*
X136628142Y-77993952D01*
X136675761Y-78041571D01*
X136723380Y-78136809D01*
X136723380Y-78374904D01*
X136675761Y-78470142D01*
X136628142Y-78517761D01*
X151431666Y-41572380D02*
X151431666Y-42286666D01*
X151384047Y-42429523D01*
X151288809Y-42524761D01*
X151145952Y-42572380D01*
X151050714Y-42572380D01*
X152336428Y-41905714D02*
X152336428Y-42572380D01*
X152098333Y-41524761D02*
X151860238Y-42239047D01*
X152479285Y-42239047D01*
X117264380Y-42116333D02*
X117978666Y-42116333D01*
X118121523Y-42163952D01*
X118216761Y-42259190D01*
X118264380Y-42402047D01*
X118264380Y-42497285D01*
X117264380Y-41735380D02*
X117264380Y-41116333D01*
X117645333Y-41449666D01*
X117645333Y-41306809D01*
X117692952Y-41211571D01*
X117740571Y-41163952D01*
X117835809Y-41116333D01*
X118073904Y-41116333D01*
X118169142Y-41163952D01*
X118216761Y-41211571D01*
X118264380Y-41306809D01*
X118264380Y-41592523D01*
X118216761Y-41687761D01*
X118169142Y-41735380D01*
X100246380Y-71707333D02*
X100960666Y-71707333D01*
X101103523Y-71754952D01*
X101198761Y-71850190D01*
X101246380Y-71993047D01*
X101246380Y-72088285D01*
X100341619Y-71278761D02*
X100294000Y-71231142D01*
X100246380Y-71135904D01*
X100246380Y-70897809D01*
X100294000Y-70802571D01*
X100341619Y-70754952D01*
X100436857Y-70707333D01*
X100532095Y-70707333D01*
X100674952Y-70754952D01*
X101246380Y-71326380D01*
X101246380Y-70707333D01*
X98599666Y-55078380D02*
X98599666Y-55792666D01*
X98552047Y-55935523D01*
X98456809Y-56030761D01*
X98313952Y-56078380D01*
X98218714Y-56078380D01*
X99599666Y-56078380D02*
X99028238Y-56078380D01*
X99313952Y-56078380D02*
X99313952Y-55078380D01*
X99218714Y-55221238D01*
X99123476Y-55316476D01*
X99028238Y-55364095D01*
X130246380Y-48109095D02*
X129246380Y-48109095D01*
X129246380Y-47871000D01*
X129294000Y-47728142D01*
X129389238Y-47632904D01*
X129484476Y-47585285D01*
X129674952Y-47537666D01*
X129817809Y-47537666D01*
X130008285Y-47585285D01*
X130103523Y-47632904D01*
X130198761Y-47728142D01*
X130246380Y-47871000D01*
X130246380Y-48109095D01*
X129246380Y-47204333D02*
X129246380Y-46585285D01*
X129627333Y-46918619D01*
X129627333Y-46775761D01*
X129674952Y-46680523D01*
X129722571Y-46632904D01*
X129817809Y-46585285D01*
X130055904Y-46585285D01*
X130151142Y-46632904D01*
X130198761Y-46680523D01*
X130246380Y-46775761D01*
X130246380Y-47061476D01*
X130198761Y-47156714D01*
X130151142Y-47204333D01*
X124420380Y-60959904D02*
X125229904Y-60959904D01*
X125325142Y-60912285D01*
X125372761Y-60864666D01*
X125420380Y-60769428D01*
X125420380Y-60578952D01*
X125372761Y-60483714D01*
X125325142Y-60436095D01*
X125229904Y-60388476D01*
X124420380Y-60388476D01*
X125420380Y-59388476D02*
X125420380Y-59959904D01*
X125420380Y-59674190D02*
X124420380Y-59674190D01*
X124563238Y-59769428D01*
X124658476Y-59864666D01*
X124706095Y-59959904D01*
X116205095Y-67778380D02*
X116205095Y-68587904D01*
X116252714Y-68683142D01*
X116300333Y-68730761D01*
X116395571Y-68778380D01*
X116586047Y-68778380D01*
X116681285Y-68730761D01*
X116728904Y-68683142D01*
X116776523Y-68587904D01*
X116776523Y-67778380D01*
X117205095Y-67873619D02*
X117252714Y-67826000D01*
X117347952Y-67778380D01*
X117586047Y-67778380D01*
X117681285Y-67826000D01*
X117728904Y-67873619D01*
X117776523Y-67968857D01*
X117776523Y-68064095D01*
X117728904Y-68206952D01*
X117157476Y-68778380D01*
X117776523Y-68778380D01*
X108672380Y-59435904D02*
X109481904Y-59435904D01*
X109577142Y-59388285D01*
X109624761Y-59340666D01*
X109672380Y-59245428D01*
X109672380Y-59054952D01*
X109624761Y-58959714D01*
X109577142Y-58912095D01*
X109481904Y-58864476D01*
X108672380Y-58864476D01*
X108672380Y-58483523D02*
X108672380Y-57864476D01*
X109053333Y-58197809D01*
X109053333Y-58054952D01*
X109100952Y-57959714D01*
X109148571Y-57912095D01*
X109243809Y-57864476D01*
X109481904Y-57864476D01*
X109577142Y-57912095D01*
X109624761Y-57959714D01*
X109672380Y-58054952D01*
X109672380Y-58340666D01*
X109624761Y-58435904D01*
X109577142Y-58483523D01*
X113538095Y-43974380D02*
X113538095Y-44783904D01*
X113585714Y-44879142D01*
X113633333Y-44926761D01*
X113728571Y-44974380D01*
X113919047Y-44974380D01*
X114014285Y-44926761D01*
X114061904Y-44879142D01*
X114109523Y-44783904D01*
X114109523Y-43974380D01*
X115014285Y-44307714D02*
X115014285Y-44974380D01*
X114776190Y-43926761D02*
X114538095Y-44641047D01*
X115157142Y-44641047D01*
M02*
