M48
; DRILL file {KiCad 5.1.2} date 2019年09月03日 星期二 08时08分03秒
; FORMAT={-:-/ absolute / metric / decimal}
; #@! TF.CreationDate,2019-09-03T08:08:03+08:00
; #@! TF.GenerationSoftware,Kicad,Pcbnew,5.1.2
; #@! TF.FileFunction,Plated,1,2,PTH
FMAT,2
METRIC
T1C0.300
T2C0.400
T3C0.500
T4C0.550
T5C1.000
%
G90
G05
T1
X146.304Y-80.54
X149.733Y-75.057
X150.114Y-69.85
X155.382Y-70.658
X155.912Y-70.104
X156.442Y-69.364
X156.972Y-68.834
X157.099Y-63.627
X160.964Y-65.3
T2
X147.066Y-85.344
X151.638Y-81.534
X154.432Y-73.279
X159.004Y-75.438
X159.004Y-77.978
X162.814Y-84.836
T3
X157.988Y-65.786
X157.988Y-67.686
T5
X151.13Y-62.484
X153.67Y-62.484
X156.21Y-62.484
X158.75Y-62.484
X166.37Y-66.04
X166.37Y-68.58
X166.37Y-71.12
X166.37Y-73.66
X166.37Y-76.2
X166.37Y-78.74
X166.37Y-81.28
X166.37Y-83.82
X143.51Y-66.04
X143.51Y-68.58
X143.51Y-71.12
X143.51Y-73.66
X143.51Y-76.2
X143.51Y-78.74
X143.51Y-81.28
X143.51Y-83.82
X149.098Y-76.962
X151.638Y-76.962
X154.178Y-76.962
T3
G00X151.694Y-89.559
M15
G01X151.694Y-88.909
M16
G05
G00X158.694Y-89.559
M15
G01X158.694Y-88.909
M16
G05
T4
G00X152.544Y-86.534
M15
G01X152.844Y-86.534
M16
G05
G00X157.544Y-86.534
M15
G01X157.844Y-86.534
M16
G05
T0
M30
