%TF.GenerationSoftware,KiCad,Pcbnew,5.1.2*%
%TF.CreationDate,2019-09-03T08:08:03+08:00*%
%TF.ProjectId,stm32l011d4p6,73746d33-326c-4303-9131-643470362e6b,rev?*%
%TF.SameCoordinates,Original*%
%TF.FileFunction,Copper,L1,Top*%
%TF.FilePolarity,Positive*%
%FSLAX46Y46*%
G04 Gerber Fmt 4.6, Leading zero omitted, Abs format (unit mm)*
G04 Created by KiCad (PCBNEW 5.1.2) date 2019-09-03 08:08:03*
%MOMM*%
%LPD*%
G04 APERTURE LIST*
%ADD10C,1.000000*%
%ADD11R,0.800000X0.900000*%
%ADD12R,1.450000X0.450000*%
%ADD13R,1.500000X1.500000*%
%ADD14C,0.350000*%
%ADD15C,0.950000*%
%ADD16O,1.700000X1.700000*%
%ADD17R,1.700000X1.700000*%
%ADD18O,1.000000X1.550000*%
%ADD19O,1.250000X0.950000*%
%ADD20R,0.400000X1.350000*%
%ADD21C,0.800000*%
%ADD22C,0.600000*%
%ADD23C,0.200000*%
%ADD24C,0.160000*%
%ADD25C,0.254000*%
%ADD26C,0.350000*%
%ADD27C,0.300000*%
%ADD28O,0.500000X1.150000*%
%ADD29O,0.850000X0.550000*%
G04 APERTURE END LIST*
D10*
X157988000Y-67686000D03*
X157988000Y-65786000D03*
D11*
X161290000Y-78470000D03*
X160340000Y-76470000D03*
X162240000Y-76470000D03*
D12*
X157636000Y-70186000D03*
X157636000Y-70836000D03*
X157636000Y-71486000D03*
X157636000Y-72136000D03*
X157636000Y-72786000D03*
X157636000Y-73436000D03*
X157636000Y-74086000D03*
X151736000Y-74086000D03*
X151736000Y-73436000D03*
X151736000Y-72786000D03*
X151736000Y-72136000D03*
X151736000Y-71486000D03*
X151736000Y-70836000D03*
X151736000Y-70186000D03*
D13*
X159348000Y-83058000D03*
X151548000Y-83058000D03*
D14*
G36*
X156633779Y-79536144D02*
G01*
X156656834Y-79539563D01*
X156679443Y-79545227D01*
X156701387Y-79553079D01*
X156722457Y-79563044D01*
X156742448Y-79575026D01*
X156761168Y-79588910D01*
X156778438Y-79604562D01*
X156794090Y-79621832D01*
X156807974Y-79640552D01*
X156819956Y-79660543D01*
X156829921Y-79681613D01*
X156837773Y-79703557D01*
X156843437Y-79726166D01*
X156846856Y-79749221D01*
X156848000Y-79772500D01*
X156848000Y-80247500D01*
X156846856Y-80270779D01*
X156843437Y-80293834D01*
X156837773Y-80316443D01*
X156829921Y-80338387D01*
X156819956Y-80359457D01*
X156807974Y-80379448D01*
X156794090Y-80398168D01*
X156778438Y-80415438D01*
X156761168Y-80431090D01*
X156742448Y-80444974D01*
X156722457Y-80456956D01*
X156701387Y-80466921D01*
X156679443Y-80474773D01*
X156656834Y-80480437D01*
X156633779Y-80483856D01*
X156610500Y-80485000D01*
X156035500Y-80485000D01*
X156012221Y-80483856D01*
X155989166Y-80480437D01*
X155966557Y-80474773D01*
X155944613Y-80466921D01*
X155923543Y-80456956D01*
X155903552Y-80444974D01*
X155884832Y-80431090D01*
X155867562Y-80415438D01*
X155851910Y-80398168D01*
X155838026Y-80379448D01*
X155826044Y-80359457D01*
X155816079Y-80338387D01*
X155808227Y-80316443D01*
X155802563Y-80293834D01*
X155799144Y-80270779D01*
X155798000Y-80247500D01*
X155798000Y-79772500D01*
X155799144Y-79749221D01*
X155802563Y-79726166D01*
X155808227Y-79703557D01*
X155816079Y-79681613D01*
X155826044Y-79660543D01*
X155838026Y-79640552D01*
X155851910Y-79621832D01*
X155867562Y-79604562D01*
X155884832Y-79588910D01*
X155903552Y-79575026D01*
X155923543Y-79563044D01*
X155944613Y-79553079D01*
X155966557Y-79545227D01*
X155989166Y-79539563D01*
X156012221Y-79536144D01*
X156035500Y-79535000D01*
X156610500Y-79535000D01*
X156633779Y-79536144D01*
X156633779Y-79536144D01*
G37*
D15*
X156323000Y-80010000D03*
D14*
G36*
X154883779Y-79536144D02*
G01*
X154906834Y-79539563D01*
X154929443Y-79545227D01*
X154951387Y-79553079D01*
X154972457Y-79563044D01*
X154992448Y-79575026D01*
X155011168Y-79588910D01*
X155028438Y-79604562D01*
X155044090Y-79621832D01*
X155057974Y-79640552D01*
X155069956Y-79660543D01*
X155079921Y-79681613D01*
X155087773Y-79703557D01*
X155093437Y-79726166D01*
X155096856Y-79749221D01*
X155098000Y-79772500D01*
X155098000Y-80247500D01*
X155096856Y-80270779D01*
X155093437Y-80293834D01*
X155087773Y-80316443D01*
X155079921Y-80338387D01*
X155069956Y-80359457D01*
X155057974Y-80379448D01*
X155044090Y-80398168D01*
X155028438Y-80415438D01*
X155011168Y-80431090D01*
X154992448Y-80444974D01*
X154972457Y-80456956D01*
X154951387Y-80466921D01*
X154929443Y-80474773D01*
X154906834Y-80480437D01*
X154883779Y-80483856D01*
X154860500Y-80485000D01*
X154285500Y-80485000D01*
X154262221Y-80483856D01*
X154239166Y-80480437D01*
X154216557Y-80474773D01*
X154194613Y-80466921D01*
X154173543Y-80456956D01*
X154153552Y-80444974D01*
X154134832Y-80431090D01*
X154117562Y-80415438D01*
X154101910Y-80398168D01*
X154088026Y-80379448D01*
X154076044Y-80359457D01*
X154066079Y-80338387D01*
X154058227Y-80316443D01*
X154052563Y-80293834D01*
X154049144Y-80270779D01*
X154048000Y-80247500D01*
X154048000Y-79772500D01*
X154049144Y-79749221D01*
X154052563Y-79726166D01*
X154058227Y-79703557D01*
X154066079Y-79681613D01*
X154076044Y-79660543D01*
X154088026Y-79640552D01*
X154101910Y-79621832D01*
X154117562Y-79604562D01*
X154134832Y-79588910D01*
X154153552Y-79575026D01*
X154173543Y-79563044D01*
X154194613Y-79553079D01*
X154216557Y-79545227D01*
X154239166Y-79539563D01*
X154262221Y-79536144D01*
X154285500Y-79535000D01*
X154860500Y-79535000D01*
X154883779Y-79536144D01*
X154883779Y-79536144D01*
G37*
D15*
X154573000Y-80010000D03*
D14*
G36*
X151327779Y-79536144D02*
G01*
X151350834Y-79539563D01*
X151373443Y-79545227D01*
X151395387Y-79553079D01*
X151416457Y-79563044D01*
X151436448Y-79575026D01*
X151455168Y-79588910D01*
X151472438Y-79604562D01*
X151488090Y-79621832D01*
X151501974Y-79640552D01*
X151513956Y-79660543D01*
X151523921Y-79681613D01*
X151531773Y-79703557D01*
X151537437Y-79726166D01*
X151540856Y-79749221D01*
X151542000Y-79772500D01*
X151542000Y-80247500D01*
X151540856Y-80270779D01*
X151537437Y-80293834D01*
X151531773Y-80316443D01*
X151523921Y-80338387D01*
X151513956Y-80359457D01*
X151501974Y-80379448D01*
X151488090Y-80398168D01*
X151472438Y-80415438D01*
X151455168Y-80431090D01*
X151436448Y-80444974D01*
X151416457Y-80456956D01*
X151395387Y-80466921D01*
X151373443Y-80474773D01*
X151350834Y-80480437D01*
X151327779Y-80483856D01*
X151304500Y-80485000D01*
X150729500Y-80485000D01*
X150706221Y-80483856D01*
X150683166Y-80480437D01*
X150660557Y-80474773D01*
X150638613Y-80466921D01*
X150617543Y-80456956D01*
X150597552Y-80444974D01*
X150578832Y-80431090D01*
X150561562Y-80415438D01*
X150545910Y-80398168D01*
X150532026Y-80379448D01*
X150520044Y-80359457D01*
X150510079Y-80338387D01*
X150502227Y-80316443D01*
X150496563Y-80293834D01*
X150493144Y-80270779D01*
X150492000Y-80247500D01*
X150492000Y-79772500D01*
X150493144Y-79749221D01*
X150496563Y-79726166D01*
X150502227Y-79703557D01*
X150510079Y-79681613D01*
X150520044Y-79660543D01*
X150532026Y-79640552D01*
X150545910Y-79621832D01*
X150561562Y-79604562D01*
X150578832Y-79588910D01*
X150597552Y-79575026D01*
X150617543Y-79563044D01*
X150638613Y-79553079D01*
X150660557Y-79545227D01*
X150683166Y-79539563D01*
X150706221Y-79536144D01*
X150729500Y-79535000D01*
X151304500Y-79535000D01*
X151327779Y-79536144D01*
X151327779Y-79536144D01*
G37*
D15*
X151017000Y-80010000D03*
D14*
G36*
X153077779Y-79536144D02*
G01*
X153100834Y-79539563D01*
X153123443Y-79545227D01*
X153145387Y-79553079D01*
X153166457Y-79563044D01*
X153186448Y-79575026D01*
X153205168Y-79588910D01*
X153222438Y-79604562D01*
X153238090Y-79621832D01*
X153251974Y-79640552D01*
X153263956Y-79660543D01*
X153273921Y-79681613D01*
X153281773Y-79703557D01*
X153287437Y-79726166D01*
X153290856Y-79749221D01*
X153292000Y-79772500D01*
X153292000Y-80247500D01*
X153290856Y-80270779D01*
X153287437Y-80293834D01*
X153281773Y-80316443D01*
X153273921Y-80338387D01*
X153263956Y-80359457D01*
X153251974Y-80379448D01*
X153238090Y-80398168D01*
X153222438Y-80415438D01*
X153205168Y-80431090D01*
X153186448Y-80444974D01*
X153166457Y-80456956D01*
X153145387Y-80466921D01*
X153123443Y-80474773D01*
X153100834Y-80480437D01*
X153077779Y-80483856D01*
X153054500Y-80485000D01*
X152479500Y-80485000D01*
X152456221Y-80483856D01*
X152433166Y-80480437D01*
X152410557Y-80474773D01*
X152388613Y-80466921D01*
X152367543Y-80456956D01*
X152347552Y-80444974D01*
X152328832Y-80431090D01*
X152311562Y-80415438D01*
X152295910Y-80398168D01*
X152282026Y-80379448D01*
X152270044Y-80359457D01*
X152260079Y-80338387D01*
X152252227Y-80316443D01*
X152246563Y-80293834D01*
X152243144Y-80270779D01*
X152242000Y-80247500D01*
X152242000Y-79772500D01*
X152243144Y-79749221D01*
X152246563Y-79726166D01*
X152252227Y-79703557D01*
X152260079Y-79681613D01*
X152270044Y-79660543D01*
X152282026Y-79640552D01*
X152295910Y-79621832D01*
X152311562Y-79604562D01*
X152328832Y-79588910D01*
X152347552Y-79575026D01*
X152367543Y-79563044D01*
X152388613Y-79553079D01*
X152410557Y-79545227D01*
X152433166Y-79539563D01*
X152456221Y-79536144D01*
X152479500Y-79535000D01*
X153054500Y-79535000D01*
X153077779Y-79536144D01*
X153077779Y-79536144D01*
G37*
D15*
X152767000Y-80010000D03*
D14*
G36*
X149775779Y-83600144D02*
G01*
X149798834Y-83603563D01*
X149821443Y-83609227D01*
X149843387Y-83617079D01*
X149864457Y-83627044D01*
X149884448Y-83639026D01*
X149903168Y-83652910D01*
X149920438Y-83668562D01*
X149936090Y-83685832D01*
X149949974Y-83704552D01*
X149961956Y-83724543D01*
X149971921Y-83745613D01*
X149979773Y-83767557D01*
X149985437Y-83790166D01*
X149988856Y-83813221D01*
X149990000Y-83836500D01*
X149990000Y-84311500D01*
X149988856Y-84334779D01*
X149985437Y-84357834D01*
X149979773Y-84380443D01*
X149971921Y-84402387D01*
X149961956Y-84423457D01*
X149949974Y-84443448D01*
X149936090Y-84462168D01*
X149920438Y-84479438D01*
X149903168Y-84495090D01*
X149884448Y-84508974D01*
X149864457Y-84520956D01*
X149843387Y-84530921D01*
X149821443Y-84538773D01*
X149798834Y-84544437D01*
X149775779Y-84547856D01*
X149752500Y-84549000D01*
X149177500Y-84549000D01*
X149154221Y-84547856D01*
X149131166Y-84544437D01*
X149108557Y-84538773D01*
X149086613Y-84530921D01*
X149065543Y-84520956D01*
X149045552Y-84508974D01*
X149026832Y-84495090D01*
X149009562Y-84479438D01*
X148993910Y-84462168D01*
X148980026Y-84443448D01*
X148968044Y-84423457D01*
X148958079Y-84402387D01*
X148950227Y-84380443D01*
X148944563Y-84357834D01*
X148941144Y-84334779D01*
X148940000Y-84311500D01*
X148940000Y-83836500D01*
X148941144Y-83813221D01*
X148944563Y-83790166D01*
X148950227Y-83767557D01*
X148958079Y-83745613D01*
X148968044Y-83724543D01*
X148980026Y-83704552D01*
X148993910Y-83685832D01*
X149009562Y-83668562D01*
X149026832Y-83652910D01*
X149045552Y-83639026D01*
X149065543Y-83627044D01*
X149086613Y-83617079D01*
X149108557Y-83609227D01*
X149131166Y-83603563D01*
X149154221Y-83600144D01*
X149177500Y-83599000D01*
X149752500Y-83599000D01*
X149775779Y-83600144D01*
X149775779Y-83600144D01*
G37*
D15*
X149465000Y-84074000D03*
D14*
G36*
X148025779Y-83600144D02*
G01*
X148048834Y-83603563D01*
X148071443Y-83609227D01*
X148093387Y-83617079D01*
X148114457Y-83627044D01*
X148134448Y-83639026D01*
X148153168Y-83652910D01*
X148170438Y-83668562D01*
X148186090Y-83685832D01*
X148199974Y-83704552D01*
X148211956Y-83724543D01*
X148221921Y-83745613D01*
X148229773Y-83767557D01*
X148235437Y-83790166D01*
X148238856Y-83813221D01*
X148240000Y-83836500D01*
X148240000Y-84311500D01*
X148238856Y-84334779D01*
X148235437Y-84357834D01*
X148229773Y-84380443D01*
X148221921Y-84402387D01*
X148211956Y-84423457D01*
X148199974Y-84443448D01*
X148186090Y-84462168D01*
X148170438Y-84479438D01*
X148153168Y-84495090D01*
X148134448Y-84508974D01*
X148114457Y-84520956D01*
X148093387Y-84530921D01*
X148071443Y-84538773D01*
X148048834Y-84544437D01*
X148025779Y-84547856D01*
X148002500Y-84549000D01*
X147427500Y-84549000D01*
X147404221Y-84547856D01*
X147381166Y-84544437D01*
X147358557Y-84538773D01*
X147336613Y-84530921D01*
X147315543Y-84520956D01*
X147295552Y-84508974D01*
X147276832Y-84495090D01*
X147259562Y-84479438D01*
X147243910Y-84462168D01*
X147230026Y-84443448D01*
X147218044Y-84423457D01*
X147208079Y-84402387D01*
X147200227Y-84380443D01*
X147194563Y-84357834D01*
X147191144Y-84334779D01*
X147190000Y-84311500D01*
X147190000Y-83836500D01*
X147191144Y-83813221D01*
X147194563Y-83790166D01*
X147200227Y-83767557D01*
X147208079Y-83745613D01*
X147218044Y-83724543D01*
X147230026Y-83704552D01*
X147243910Y-83685832D01*
X147259562Y-83668562D01*
X147276832Y-83652910D01*
X147295552Y-83639026D01*
X147315543Y-83627044D01*
X147336613Y-83617079D01*
X147358557Y-83609227D01*
X147381166Y-83603563D01*
X147404221Y-83600144D01*
X147427500Y-83599000D01*
X148002500Y-83599000D01*
X148025779Y-83600144D01*
X148025779Y-83600144D01*
G37*
D15*
X147715000Y-84074000D03*
D14*
G36*
X157740779Y-77821144D02*
G01*
X157763834Y-77824563D01*
X157786443Y-77830227D01*
X157808387Y-77838079D01*
X157829457Y-77848044D01*
X157849448Y-77860026D01*
X157868168Y-77873910D01*
X157885438Y-77889562D01*
X157901090Y-77906832D01*
X157914974Y-77925552D01*
X157926956Y-77945543D01*
X157936921Y-77966613D01*
X157944773Y-77988557D01*
X157950437Y-78011166D01*
X157953856Y-78034221D01*
X157955000Y-78057500D01*
X157955000Y-78632500D01*
X157953856Y-78655779D01*
X157950437Y-78678834D01*
X157944773Y-78701443D01*
X157936921Y-78723387D01*
X157926956Y-78744457D01*
X157914974Y-78764448D01*
X157901090Y-78783168D01*
X157885438Y-78800438D01*
X157868168Y-78816090D01*
X157849448Y-78829974D01*
X157829457Y-78841956D01*
X157808387Y-78851921D01*
X157786443Y-78859773D01*
X157763834Y-78865437D01*
X157740779Y-78868856D01*
X157717500Y-78870000D01*
X157242500Y-78870000D01*
X157219221Y-78868856D01*
X157196166Y-78865437D01*
X157173557Y-78859773D01*
X157151613Y-78851921D01*
X157130543Y-78841956D01*
X157110552Y-78829974D01*
X157091832Y-78816090D01*
X157074562Y-78800438D01*
X157058910Y-78783168D01*
X157045026Y-78764448D01*
X157033044Y-78744457D01*
X157023079Y-78723387D01*
X157015227Y-78701443D01*
X157009563Y-78678834D01*
X157006144Y-78655779D01*
X157005000Y-78632500D01*
X157005000Y-78057500D01*
X157006144Y-78034221D01*
X157009563Y-78011166D01*
X157015227Y-77988557D01*
X157023079Y-77966613D01*
X157033044Y-77945543D01*
X157045026Y-77925552D01*
X157058910Y-77906832D01*
X157074562Y-77889562D01*
X157091832Y-77873910D01*
X157110552Y-77860026D01*
X157130543Y-77848044D01*
X157151613Y-77838079D01*
X157173557Y-77830227D01*
X157196166Y-77824563D01*
X157219221Y-77821144D01*
X157242500Y-77820000D01*
X157717500Y-77820000D01*
X157740779Y-77821144D01*
X157740779Y-77821144D01*
G37*
D15*
X157480000Y-78345000D03*
D14*
G36*
X157740779Y-76071144D02*
G01*
X157763834Y-76074563D01*
X157786443Y-76080227D01*
X157808387Y-76088079D01*
X157829457Y-76098044D01*
X157849448Y-76110026D01*
X157868168Y-76123910D01*
X157885438Y-76139562D01*
X157901090Y-76156832D01*
X157914974Y-76175552D01*
X157926956Y-76195543D01*
X157936921Y-76216613D01*
X157944773Y-76238557D01*
X157950437Y-76261166D01*
X157953856Y-76284221D01*
X157955000Y-76307500D01*
X157955000Y-76882500D01*
X157953856Y-76905779D01*
X157950437Y-76928834D01*
X157944773Y-76951443D01*
X157936921Y-76973387D01*
X157926956Y-76994457D01*
X157914974Y-77014448D01*
X157901090Y-77033168D01*
X157885438Y-77050438D01*
X157868168Y-77066090D01*
X157849448Y-77079974D01*
X157829457Y-77091956D01*
X157808387Y-77101921D01*
X157786443Y-77109773D01*
X157763834Y-77115437D01*
X157740779Y-77118856D01*
X157717500Y-77120000D01*
X157242500Y-77120000D01*
X157219221Y-77118856D01*
X157196166Y-77115437D01*
X157173557Y-77109773D01*
X157151613Y-77101921D01*
X157130543Y-77091956D01*
X157110552Y-77079974D01*
X157091832Y-77066090D01*
X157074562Y-77050438D01*
X157058910Y-77033168D01*
X157045026Y-77014448D01*
X157033044Y-76994457D01*
X157023079Y-76973387D01*
X157015227Y-76951443D01*
X157009563Y-76928834D01*
X157006144Y-76905779D01*
X157005000Y-76882500D01*
X157005000Y-76307500D01*
X157006144Y-76284221D01*
X157009563Y-76261166D01*
X157015227Y-76238557D01*
X157023079Y-76216613D01*
X157033044Y-76195543D01*
X157045026Y-76175552D01*
X157058910Y-76156832D01*
X157074562Y-76139562D01*
X157091832Y-76123910D01*
X157110552Y-76110026D01*
X157130543Y-76098044D01*
X157151613Y-76088079D01*
X157173557Y-76080227D01*
X157196166Y-76074563D01*
X157219221Y-76071144D01*
X157242500Y-76070000D01*
X157717500Y-76070000D01*
X157740779Y-76071144D01*
X157740779Y-76071144D01*
G37*
D15*
X157480000Y-76595000D03*
D16*
X166370000Y-83820000D03*
X166370000Y-81280000D03*
X166370000Y-78740000D03*
X166370000Y-76200000D03*
X166370000Y-73660000D03*
X166370000Y-71120000D03*
X166370000Y-68580000D03*
D17*
X166370000Y-66040000D03*
D16*
X158750000Y-62484000D03*
X156210000Y-62484000D03*
X153670000Y-62484000D03*
D17*
X151130000Y-62484000D03*
D16*
X143510000Y-83820000D03*
X143510000Y-81280000D03*
X143510000Y-78740000D03*
X143510000Y-76200000D03*
X143510000Y-73660000D03*
X143510000Y-71120000D03*
X143510000Y-68580000D03*
D17*
X143510000Y-66040000D03*
D16*
X154178000Y-76962000D03*
X151638000Y-76962000D03*
D17*
X149098000Y-76962000D03*
D18*
X158694000Y-89234000D03*
X151694000Y-89234000D03*
D19*
X157694000Y-86534000D03*
X152694000Y-86534000D03*
D20*
X156494000Y-86534000D03*
X155844000Y-86534000D03*
X155194000Y-86534000D03*
X154544000Y-86534000D03*
X153894000Y-86534000D03*
D14*
G36*
X158439779Y-79536144D02*
G01*
X158462834Y-79539563D01*
X158485443Y-79545227D01*
X158507387Y-79553079D01*
X158528457Y-79563044D01*
X158548448Y-79575026D01*
X158567168Y-79588910D01*
X158584438Y-79604562D01*
X158600090Y-79621832D01*
X158613974Y-79640552D01*
X158625956Y-79660543D01*
X158635921Y-79681613D01*
X158643773Y-79703557D01*
X158649437Y-79726166D01*
X158652856Y-79749221D01*
X158654000Y-79772500D01*
X158654000Y-80247500D01*
X158652856Y-80270779D01*
X158649437Y-80293834D01*
X158643773Y-80316443D01*
X158635921Y-80338387D01*
X158625956Y-80359457D01*
X158613974Y-80379448D01*
X158600090Y-80398168D01*
X158584438Y-80415438D01*
X158567168Y-80431090D01*
X158548448Y-80444974D01*
X158528457Y-80456956D01*
X158507387Y-80466921D01*
X158485443Y-80474773D01*
X158462834Y-80480437D01*
X158439779Y-80483856D01*
X158416500Y-80485000D01*
X157841500Y-80485000D01*
X157818221Y-80483856D01*
X157795166Y-80480437D01*
X157772557Y-80474773D01*
X157750613Y-80466921D01*
X157729543Y-80456956D01*
X157709552Y-80444974D01*
X157690832Y-80431090D01*
X157673562Y-80415438D01*
X157657910Y-80398168D01*
X157644026Y-80379448D01*
X157632044Y-80359457D01*
X157622079Y-80338387D01*
X157614227Y-80316443D01*
X157608563Y-80293834D01*
X157605144Y-80270779D01*
X157604000Y-80247500D01*
X157604000Y-79772500D01*
X157605144Y-79749221D01*
X157608563Y-79726166D01*
X157614227Y-79703557D01*
X157622079Y-79681613D01*
X157632044Y-79660543D01*
X157644026Y-79640552D01*
X157657910Y-79621832D01*
X157673562Y-79604562D01*
X157690832Y-79588910D01*
X157709552Y-79575026D01*
X157729543Y-79563044D01*
X157750613Y-79553079D01*
X157772557Y-79545227D01*
X157795166Y-79539563D01*
X157818221Y-79536144D01*
X157841500Y-79535000D01*
X158416500Y-79535000D01*
X158439779Y-79536144D01*
X158439779Y-79536144D01*
G37*
D15*
X158129000Y-80010000D03*
D14*
G36*
X160189779Y-79536144D02*
G01*
X160212834Y-79539563D01*
X160235443Y-79545227D01*
X160257387Y-79553079D01*
X160278457Y-79563044D01*
X160298448Y-79575026D01*
X160317168Y-79588910D01*
X160334438Y-79604562D01*
X160350090Y-79621832D01*
X160363974Y-79640552D01*
X160375956Y-79660543D01*
X160385921Y-79681613D01*
X160393773Y-79703557D01*
X160399437Y-79726166D01*
X160402856Y-79749221D01*
X160404000Y-79772500D01*
X160404000Y-80247500D01*
X160402856Y-80270779D01*
X160399437Y-80293834D01*
X160393773Y-80316443D01*
X160385921Y-80338387D01*
X160375956Y-80359457D01*
X160363974Y-80379448D01*
X160350090Y-80398168D01*
X160334438Y-80415438D01*
X160317168Y-80431090D01*
X160298448Y-80444974D01*
X160278457Y-80456956D01*
X160257387Y-80466921D01*
X160235443Y-80474773D01*
X160212834Y-80480437D01*
X160189779Y-80483856D01*
X160166500Y-80485000D01*
X159591500Y-80485000D01*
X159568221Y-80483856D01*
X159545166Y-80480437D01*
X159522557Y-80474773D01*
X159500613Y-80466921D01*
X159479543Y-80456956D01*
X159459552Y-80444974D01*
X159440832Y-80431090D01*
X159423562Y-80415438D01*
X159407910Y-80398168D01*
X159394026Y-80379448D01*
X159382044Y-80359457D01*
X159372079Y-80338387D01*
X159364227Y-80316443D01*
X159358563Y-80293834D01*
X159355144Y-80270779D01*
X159354000Y-80247500D01*
X159354000Y-79772500D01*
X159355144Y-79749221D01*
X159358563Y-79726166D01*
X159364227Y-79703557D01*
X159372079Y-79681613D01*
X159382044Y-79660543D01*
X159394026Y-79640552D01*
X159407910Y-79621832D01*
X159423562Y-79604562D01*
X159440832Y-79588910D01*
X159459552Y-79575026D01*
X159479543Y-79563044D01*
X159500613Y-79553079D01*
X159522557Y-79545227D01*
X159545166Y-79539563D01*
X159568221Y-79536144D01*
X159591500Y-79535000D01*
X160166500Y-79535000D01*
X160189779Y-79536144D01*
X160189779Y-79536144D01*
G37*
D15*
X159879000Y-80010000D03*
D14*
G36*
X149521779Y-79536144D02*
G01*
X149544834Y-79539563D01*
X149567443Y-79545227D01*
X149589387Y-79553079D01*
X149610457Y-79563044D01*
X149630448Y-79575026D01*
X149649168Y-79588910D01*
X149666438Y-79604562D01*
X149682090Y-79621832D01*
X149695974Y-79640552D01*
X149707956Y-79660543D01*
X149717921Y-79681613D01*
X149725773Y-79703557D01*
X149731437Y-79726166D01*
X149734856Y-79749221D01*
X149736000Y-79772500D01*
X149736000Y-80247500D01*
X149734856Y-80270779D01*
X149731437Y-80293834D01*
X149725773Y-80316443D01*
X149717921Y-80338387D01*
X149707956Y-80359457D01*
X149695974Y-80379448D01*
X149682090Y-80398168D01*
X149666438Y-80415438D01*
X149649168Y-80431090D01*
X149630448Y-80444974D01*
X149610457Y-80456956D01*
X149589387Y-80466921D01*
X149567443Y-80474773D01*
X149544834Y-80480437D01*
X149521779Y-80483856D01*
X149498500Y-80485000D01*
X148923500Y-80485000D01*
X148900221Y-80483856D01*
X148877166Y-80480437D01*
X148854557Y-80474773D01*
X148832613Y-80466921D01*
X148811543Y-80456956D01*
X148791552Y-80444974D01*
X148772832Y-80431090D01*
X148755562Y-80415438D01*
X148739910Y-80398168D01*
X148726026Y-80379448D01*
X148714044Y-80359457D01*
X148704079Y-80338387D01*
X148696227Y-80316443D01*
X148690563Y-80293834D01*
X148687144Y-80270779D01*
X148686000Y-80247500D01*
X148686000Y-79772500D01*
X148687144Y-79749221D01*
X148690563Y-79726166D01*
X148696227Y-79703557D01*
X148704079Y-79681613D01*
X148714044Y-79660543D01*
X148726026Y-79640552D01*
X148739910Y-79621832D01*
X148755562Y-79604562D01*
X148772832Y-79588910D01*
X148791552Y-79575026D01*
X148811543Y-79563044D01*
X148832613Y-79553079D01*
X148854557Y-79545227D01*
X148877166Y-79539563D01*
X148900221Y-79536144D01*
X148923500Y-79535000D01*
X149498500Y-79535000D01*
X149521779Y-79536144D01*
X149521779Y-79536144D01*
G37*
D15*
X149211000Y-80010000D03*
D14*
G36*
X147771779Y-79536144D02*
G01*
X147794834Y-79539563D01*
X147817443Y-79545227D01*
X147839387Y-79553079D01*
X147860457Y-79563044D01*
X147880448Y-79575026D01*
X147899168Y-79588910D01*
X147916438Y-79604562D01*
X147932090Y-79621832D01*
X147945974Y-79640552D01*
X147957956Y-79660543D01*
X147967921Y-79681613D01*
X147975773Y-79703557D01*
X147981437Y-79726166D01*
X147984856Y-79749221D01*
X147986000Y-79772500D01*
X147986000Y-80247500D01*
X147984856Y-80270779D01*
X147981437Y-80293834D01*
X147975773Y-80316443D01*
X147967921Y-80338387D01*
X147957956Y-80359457D01*
X147945974Y-80379448D01*
X147932090Y-80398168D01*
X147916438Y-80415438D01*
X147899168Y-80431090D01*
X147880448Y-80444974D01*
X147860457Y-80456956D01*
X147839387Y-80466921D01*
X147817443Y-80474773D01*
X147794834Y-80480437D01*
X147771779Y-80483856D01*
X147748500Y-80485000D01*
X147173500Y-80485000D01*
X147150221Y-80483856D01*
X147127166Y-80480437D01*
X147104557Y-80474773D01*
X147082613Y-80466921D01*
X147061543Y-80456956D01*
X147041552Y-80444974D01*
X147022832Y-80431090D01*
X147005562Y-80415438D01*
X146989910Y-80398168D01*
X146976026Y-80379448D01*
X146964044Y-80359457D01*
X146954079Y-80338387D01*
X146946227Y-80316443D01*
X146940563Y-80293834D01*
X146937144Y-80270779D01*
X146936000Y-80247500D01*
X146936000Y-79772500D01*
X146937144Y-79749221D01*
X146940563Y-79726166D01*
X146946227Y-79703557D01*
X146954079Y-79681613D01*
X146964044Y-79660543D01*
X146976026Y-79640552D01*
X146989910Y-79621832D01*
X147005562Y-79604562D01*
X147022832Y-79588910D01*
X147041552Y-79575026D01*
X147061543Y-79563044D01*
X147082613Y-79553079D01*
X147104557Y-79545227D01*
X147127166Y-79539563D01*
X147150221Y-79536144D01*
X147173500Y-79535000D01*
X147748500Y-79535000D01*
X147771779Y-79536144D01*
X147771779Y-79536144D01*
G37*
D15*
X147461000Y-80010000D03*
D14*
G36*
X162475779Y-74456144D02*
G01*
X162498834Y-74459563D01*
X162521443Y-74465227D01*
X162543387Y-74473079D01*
X162564457Y-74483044D01*
X162584448Y-74495026D01*
X162603168Y-74508910D01*
X162620438Y-74524562D01*
X162636090Y-74541832D01*
X162649974Y-74560552D01*
X162661956Y-74580543D01*
X162671921Y-74601613D01*
X162679773Y-74623557D01*
X162685437Y-74646166D01*
X162688856Y-74669221D01*
X162690000Y-74692500D01*
X162690000Y-75167500D01*
X162688856Y-75190779D01*
X162685437Y-75213834D01*
X162679773Y-75236443D01*
X162671921Y-75258387D01*
X162661956Y-75279457D01*
X162649974Y-75299448D01*
X162636090Y-75318168D01*
X162620438Y-75335438D01*
X162603168Y-75351090D01*
X162584448Y-75364974D01*
X162564457Y-75376956D01*
X162543387Y-75386921D01*
X162521443Y-75394773D01*
X162498834Y-75400437D01*
X162475779Y-75403856D01*
X162452500Y-75405000D01*
X161877500Y-75405000D01*
X161854221Y-75403856D01*
X161831166Y-75400437D01*
X161808557Y-75394773D01*
X161786613Y-75386921D01*
X161765543Y-75376956D01*
X161745552Y-75364974D01*
X161726832Y-75351090D01*
X161709562Y-75335438D01*
X161693910Y-75318168D01*
X161680026Y-75299448D01*
X161668044Y-75279457D01*
X161658079Y-75258387D01*
X161650227Y-75236443D01*
X161644563Y-75213834D01*
X161641144Y-75190779D01*
X161640000Y-75167500D01*
X161640000Y-74692500D01*
X161641144Y-74669221D01*
X161644563Y-74646166D01*
X161650227Y-74623557D01*
X161658079Y-74601613D01*
X161668044Y-74580543D01*
X161680026Y-74560552D01*
X161693910Y-74541832D01*
X161709562Y-74524562D01*
X161726832Y-74508910D01*
X161745552Y-74495026D01*
X161765543Y-74483044D01*
X161786613Y-74473079D01*
X161808557Y-74465227D01*
X161831166Y-74459563D01*
X161854221Y-74456144D01*
X161877500Y-74455000D01*
X162452500Y-74455000D01*
X162475779Y-74456144D01*
X162475779Y-74456144D01*
G37*
D15*
X162165000Y-74930000D03*
D14*
G36*
X160725779Y-74456144D02*
G01*
X160748834Y-74459563D01*
X160771443Y-74465227D01*
X160793387Y-74473079D01*
X160814457Y-74483044D01*
X160834448Y-74495026D01*
X160853168Y-74508910D01*
X160870438Y-74524562D01*
X160886090Y-74541832D01*
X160899974Y-74560552D01*
X160911956Y-74580543D01*
X160921921Y-74601613D01*
X160929773Y-74623557D01*
X160935437Y-74646166D01*
X160938856Y-74669221D01*
X160940000Y-74692500D01*
X160940000Y-75167500D01*
X160938856Y-75190779D01*
X160935437Y-75213834D01*
X160929773Y-75236443D01*
X160921921Y-75258387D01*
X160911956Y-75279457D01*
X160899974Y-75299448D01*
X160886090Y-75318168D01*
X160870438Y-75335438D01*
X160853168Y-75351090D01*
X160834448Y-75364974D01*
X160814457Y-75376956D01*
X160793387Y-75386921D01*
X160771443Y-75394773D01*
X160748834Y-75400437D01*
X160725779Y-75403856D01*
X160702500Y-75405000D01*
X160127500Y-75405000D01*
X160104221Y-75403856D01*
X160081166Y-75400437D01*
X160058557Y-75394773D01*
X160036613Y-75386921D01*
X160015543Y-75376956D01*
X159995552Y-75364974D01*
X159976832Y-75351090D01*
X159959562Y-75335438D01*
X159943910Y-75318168D01*
X159930026Y-75299448D01*
X159918044Y-75279457D01*
X159908079Y-75258387D01*
X159900227Y-75236443D01*
X159894563Y-75213834D01*
X159891144Y-75190779D01*
X159890000Y-75167500D01*
X159890000Y-74692500D01*
X159891144Y-74669221D01*
X159894563Y-74646166D01*
X159900227Y-74623557D01*
X159908079Y-74601613D01*
X159918044Y-74580543D01*
X159930026Y-74560552D01*
X159943910Y-74541832D01*
X159959562Y-74524562D01*
X159976832Y-74508910D01*
X159995552Y-74495026D01*
X160015543Y-74483044D01*
X160036613Y-74473079D01*
X160058557Y-74465227D01*
X160081166Y-74459563D01*
X160104221Y-74456144D01*
X160127500Y-74455000D01*
X160702500Y-74455000D01*
X160725779Y-74456144D01*
X160725779Y-74456144D01*
G37*
D15*
X160415000Y-74930000D03*
D14*
G36*
X162185779Y-79627144D02*
G01*
X162208834Y-79630563D01*
X162231443Y-79636227D01*
X162253387Y-79644079D01*
X162274457Y-79654044D01*
X162294448Y-79666026D01*
X162313168Y-79679910D01*
X162330438Y-79695562D01*
X162346090Y-79712832D01*
X162359974Y-79731552D01*
X162371956Y-79751543D01*
X162381921Y-79772613D01*
X162389773Y-79794557D01*
X162395437Y-79817166D01*
X162398856Y-79840221D01*
X162400000Y-79863500D01*
X162400000Y-80438500D01*
X162398856Y-80461779D01*
X162395437Y-80484834D01*
X162389773Y-80507443D01*
X162381921Y-80529387D01*
X162371956Y-80550457D01*
X162359974Y-80570448D01*
X162346090Y-80589168D01*
X162330438Y-80606438D01*
X162313168Y-80622090D01*
X162294448Y-80635974D01*
X162274457Y-80647956D01*
X162253387Y-80657921D01*
X162231443Y-80665773D01*
X162208834Y-80671437D01*
X162185779Y-80674856D01*
X162162500Y-80676000D01*
X161687500Y-80676000D01*
X161664221Y-80674856D01*
X161641166Y-80671437D01*
X161618557Y-80665773D01*
X161596613Y-80657921D01*
X161575543Y-80647956D01*
X161555552Y-80635974D01*
X161536832Y-80622090D01*
X161519562Y-80606438D01*
X161503910Y-80589168D01*
X161490026Y-80570448D01*
X161478044Y-80550457D01*
X161468079Y-80529387D01*
X161460227Y-80507443D01*
X161454563Y-80484834D01*
X161451144Y-80461779D01*
X161450000Y-80438500D01*
X161450000Y-79863500D01*
X161451144Y-79840221D01*
X161454563Y-79817166D01*
X161460227Y-79794557D01*
X161468079Y-79772613D01*
X161478044Y-79751543D01*
X161490026Y-79731552D01*
X161503910Y-79712832D01*
X161519562Y-79695562D01*
X161536832Y-79679910D01*
X161555552Y-79666026D01*
X161575543Y-79654044D01*
X161596613Y-79644079D01*
X161618557Y-79636227D01*
X161641166Y-79630563D01*
X161664221Y-79627144D01*
X161687500Y-79626000D01*
X162162500Y-79626000D01*
X162185779Y-79627144D01*
X162185779Y-79627144D01*
G37*
D15*
X161925000Y-80151000D03*
D14*
G36*
X162185779Y-81377144D02*
G01*
X162208834Y-81380563D01*
X162231443Y-81386227D01*
X162253387Y-81394079D01*
X162274457Y-81404044D01*
X162294448Y-81416026D01*
X162313168Y-81429910D01*
X162330438Y-81445562D01*
X162346090Y-81462832D01*
X162359974Y-81481552D01*
X162371956Y-81501543D01*
X162381921Y-81522613D01*
X162389773Y-81544557D01*
X162395437Y-81567166D01*
X162398856Y-81590221D01*
X162400000Y-81613500D01*
X162400000Y-82188500D01*
X162398856Y-82211779D01*
X162395437Y-82234834D01*
X162389773Y-82257443D01*
X162381921Y-82279387D01*
X162371956Y-82300457D01*
X162359974Y-82320448D01*
X162346090Y-82339168D01*
X162330438Y-82356438D01*
X162313168Y-82372090D01*
X162294448Y-82385974D01*
X162274457Y-82397956D01*
X162253387Y-82407921D01*
X162231443Y-82415773D01*
X162208834Y-82421437D01*
X162185779Y-82424856D01*
X162162500Y-82426000D01*
X161687500Y-82426000D01*
X161664221Y-82424856D01*
X161641166Y-82421437D01*
X161618557Y-82415773D01*
X161596613Y-82407921D01*
X161575543Y-82397956D01*
X161555552Y-82385974D01*
X161536832Y-82372090D01*
X161519562Y-82356438D01*
X161503910Y-82339168D01*
X161490026Y-82320448D01*
X161478044Y-82300457D01*
X161468079Y-82279387D01*
X161460227Y-82257443D01*
X161454563Y-82234834D01*
X161451144Y-82211779D01*
X161450000Y-82188500D01*
X161450000Y-81613500D01*
X161451144Y-81590221D01*
X161454563Y-81567166D01*
X161460227Y-81544557D01*
X161468079Y-81522613D01*
X161478044Y-81501543D01*
X161490026Y-81481552D01*
X161503910Y-81462832D01*
X161519562Y-81445562D01*
X161536832Y-81429910D01*
X161555552Y-81416026D01*
X161575543Y-81404044D01*
X161596613Y-81394079D01*
X161618557Y-81386227D01*
X161641166Y-81380563D01*
X161664221Y-81377144D01*
X161687500Y-81376000D01*
X162162500Y-81376000D01*
X162185779Y-81377144D01*
X162185779Y-81377144D01*
G37*
D15*
X161925000Y-81901000D03*
D14*
G36*
X148025779Y-81314144D02*
G01*
X148048834Y-81317563D01*
X148071443Y-81323227D01*
X148093387Y-81331079D01*
X148114457Y-81341044D01*
X148134448Y-81353026D01*
X148153168Y-81366910D01*
X148170438Y-81382562D01*
X148186090Y-81399832D01*
X148199974Y-81418552D01*
X148211956Y-81438543D01*
X148221921Y-81459613D01*
X148229773Y-81481557D01*
X148235437Y-81504166D01*
X148238856Y-81527221D01*
X148240000Y-81550500D01*
X148240000Y-82025500D01*
X148238856Y-82048779D01*
X148235437Y-82071834D01*
X148229773Y-82094443D01*
X148221921Y-82116387D01*
X148211956Y-82137457D01*
X148199974Y-82157448D01*
X148186090Y-82176168D01*
X148170438Y-82193438D01*
X148153168Y-82209090D01*
X148134448Y-82222974D01*
X148114457Y-82234956D01*
X148093387Y-82244921D01*
X148071443Y-82252773D01*
X148048834Y-82258437D01*
X148025779Y-82261856D01*
X148002500Y-82263000D01*
X147427500Y-82263000D01*
X147404221Y-82261856D01*
X147381166Y-82258437D01*
X147358557Y-82252773D01*
X147336613Y-82244921D01*
X147315543Y-82234956D01*
X147295552Y-82222974D01*
X147276832Y-82209090D01*
X147259562Y-82193438D01*
X147243910Y-82176168D01*
X147230026Y-82157448D01*
X147218044Y-82137457D01*
X147208079Y-82116387D01*
X147200227Y-82094443D01*
X147194563Y-82071834D01*
X147191144Y-82048779D01*
X147190000Y-82025500D01*
X147190000Y-81550500D01*
X147191144Y-81527221D01*
X147194563Y-81504166D01*
X147200227Y-81481557D01*
X147208079Y-81459613D01*
X147218044Y-81438543D01*
X147230026Y-81418552D01*
X147243910Y-81399832D01*
X147259562Y-81382562D01*
X147276832Y-81366910D01*
X147295552Y-81353026D01*
X147315543Y-81341044D01*
X147336613Y-81331079D01*
X147358557Y-81323227D01*
X147381166Y-81317563D01*
X147404221Y-81314144D01*
X147427500Y-81313000D01*
X148002500Y-81313000D01*
X148025779Y-81314144D01*
X148025779Y-81314144D01*
G37*
D15*
X147715000Y-81788000D03*
D14*
G36*
X149775779Y-81314144D02*
G01*
X149798834Y-81317563D01*
X149821443Y-81323227D01*
X149843387Y-81331079D01*
X149864457Y-81341044D01*
X149884448Y-81353026D01*
X149903168Y-81366910D01*
X149920438Y-81382562D01*
X149936090Y-81399832D01*
X149949974Y-81418552D01*
X149961956Y-81438543D01*
X149971921Y-81459613D01*
X149979773Y-81481557D01*
X149985437Y-81504166D01*
X149988856Y-81527221D01*
X149990000Y-81550500D01*
X149990000Y-82025500D01*
X149988856Y-82048779D01*
X149985437Y-82071834D01*
X149979773Y-82094443D01*
X149971921Y-82116387D01*
X149961956Y-82137457D01*
X149949974Y-82157448D01*
X149936090Y-82176168D01*
X149920438Y-82193438D01*
X149903168Y-82209090D01*
X149884448Y-82222974D01*
X149864457Y-82234956D01*
X149843387Y-82244921D01*
X149821443Y-82252773D01*
X149798834Y-82258437D01*
X149775779Y-82261856D01*
X149752500Y-82263000D01*
X149177500Y-82263000D01*
X149154221Y-82261856D01*
X149131166Y-82258437D01*
X149108557Y-82252773D01*
X149086613Y-82244921D01*
X149065543Y-82234956D01*
X149045552Y-82222974D01*
X149026832Y-82209090D01*
X149009562Y-82193438D01*
X148993910Y-82176168D01*
X148980026Y-82157448D01*
X148968044Y-82137457D01*
X148958079Y-82116387D01*
X148950227Y-82094443D01*
X148944563Y-82071834D01*
X148941144Y-82048779D01*
X148940000Y-82025500D01*
X148940000Y-81550500D01*
X148941144Y-81527221D01*
X148944563Y-81504166D01*
X148950227Y-81481557D01*
X148958079Y-81459613D01*
X148968044Y-81438543D01*
X148980026Y-81418552D01*
X148993910Y-81399832D01*
X149009562Y-81382562D01*
X149026832Y-81366910D01*
X149045552Y-81353026D01*
X149065543Y-81341044D01*
X149086613Y-81331079D01*
X149108557Y-81323227D01*
X149131166Y-81317563D01*
X149154221Y-81314144D01*
X149177500Y-81313000D01*
X149752500Y-81313000D01*
X149775779Y-81314144D01*
X149775779Y-81314144D01*
G37*
D15*
X149465000Y-81788000D03*
D14*
G36*
X160026779Y-68705144D02*
G01*
X160049834Y-68708563D01*
X160072443Y-68714227D01*
X160094387Y-68722079D01*
X160115457Y-68732044D01*
X160135448Y-68744026D01*
X160154168Y-68757910D01*
X160171438Y-68773562D01*
X160187090Y-68790832D01*
X160200974Y-68809552D01*
X160212956Y-68829543D01*
X160222921Y-68850613D01*
X160230773Y-68872557D01*
X160236437Y-68895166D01*
X160239856Y-68918221D01*
X160241000Y-68941500D01*
X160241000Y-69516500D01*
X160239856Y-69539779D01*
X160236437Y-69562834D01*
X160230773Y-69585443D01*
X160222921Y-69607387D01*
X160212956Y-69628457D01*
X160200974Y-69648448D01*
X160187090Y-69667168D01*
X160171438Y-69684438D01*
X160154168Y-69700090D01*
X160135448Y-69713974D01*
X160115457Y-69725956D01*
X160094387Y-69735921D01*
X160072443Y-69743773D01*
X160049834Y-69749437D01*
X160026779Y-69752856D01*
X160003500Y-69754000D01*
X159528500Y-69754000D01*
X159505221Y-69752856D01*
X159482166Y-69749437D01*
X159459557Y-69743773D01*
X159437613Y-69735921D01*
X159416543Y-69725956D01*
X159396552Y-69713974D01*
X159377832Y-69700090D01*
X159360562Y-69684438D01*
X159344910Y-69667168D01*
X159331026Y-69648448D01*
X159319044Y-69628457D01*
X159309079Y-69607387D01*
X159301227Y-69585443D01*
X159295563Y-69562834D01*
X159292144Y-69539779D01*
X159291000Y-69516500D01*
X159291000Y-68941500D01*
X159292144Y-68918221D01*
X159295563Y-68895166D01*
X159301227Y-68872557D01*
X159309079Y-68850613D01*
X159319044Y-68829543D01*
X159331026Y-68809552D01*
X159344910Y-68790832D01*
X159360562Y-68773562D01*
X159377832Y-68757910D01*
X159396552Y-68744026D01*
X159416543Y-68732044D01*
X159437613Y-68722079D01*
X159459557Y-68714227D01*
X159482166Y-68708563D01*
X159505221Y-68705144D01*
X159528500Y-68704000D01*
X160003500Y-68704000D01*
X160026779Y-68705144D01*
X160026779Y-68705144D01*
G37*
D15*
X159766000Y-69229000D03*
D14*
G36*
X160026779Y-70455144D02*
G01*
X160049834Y-70458563D01*
X160072443Y-70464227D01*
X160094387Y-70472079D01*
X160115457Y-70482044D01*
X160135448Y-70494026D01*
X160154168Y-70507910D01*
X160171438Y-70523562D01*
X160187090Y-70540832D01*
X160200974Y-70559552D01*
X160212956Y-70579543D01*
X160222921Y-70600613D01*
X160230773Y-70622557D01*
X160236437Y-70645166D01*
X160239856Y-70668221D01*
X160241000Y-70691500D01*
X160241000Y-71266500D01*
X160239856Y-71289779D01*
X160236437Y-71312834D01*
X160230773Y-71335443D01*
X160222921Y-71357387D01*
X160212956Y-71378457D01*
X160200974Y-71398448D01*
X160187090Y-71417168D01*
X160171438Y-71434438D01*
X160154168Y-71450090D01*
X160135448Y-71463974D01*
X160115457Y-71475956D01*
X160094387Y-71485921D01*
X160072443Y-71493773D01*
X160049834Y-71499437D01*
X160026779Y-71502856D01*
X160003500Y-71504000D01*
X159528500Y-71504000D01*
X159505221Y-71502856D01*
X159482166Y-71499437D01*
X159459557Y-71493773D01*
X159437613Y-71485921D01*
X159416543Y-71475956D01*
X159396552Y-71463974D01*
X159377832Y-71450090D01*
X159360562Y-71434438D01*
X159344910Y-71417168D01*
X159331026Y-71398448D01*
X159319044Y-71378457D01*
X159309079Y-71357387D01*
X159301227Y-71335443D01*
X159295563Y-71312834D01*
X159292144Y-71289779D01*
X159291000Y-71266500D01*
X159291000Y-70691500D01*
X159292144Y-70668221D01*
X159295563Y-70645166D01*
X159301227Y-70622557D01*
X159309079Y-70600613D01*
X159319044Y-70579543D01*
X159331026Y-70559552D01*
X159344910Y-70540832D01*
X159360562Y-70523562D01*
X159377832Y-70507910D01*
X159396552Y-70494026D01*
X159416543Y-70482044D01*
X159437613Y-70472079D01*
X159459557Y-70464227D01*
X159482166Y-70458563D01*
X159505221Y-70455144D01*
X159528500Y-70454000D01*
X160003500Y-70454000D01*
X160026779Y-70455144D01*
X160026779Y-70455144D01*
G37*
D15*
X159766000Y-70979000D03*
D14*
G36*
X160026779Y-66899144D02*
G01*
X160049834Y-66902563D01*
X160072443Y-66908227D01*
X160094387Y-66916079D01*
X160115457Y-66926044D01*
X160135448Y-66938026D01*
X160154168Y-66951910D01*
X160171438Y-66967562D01*
X160187090Y-66984832D01*
X160200974Y-67003552D01*
X160212956Y-67023543D01*
X160222921Y-67044613D01*
X160230773Y-67066557D01*
X160236437Y-67089166D01*
X160239856Y-67112221D01*
X160241000Y-67135500D01*
X160241000Y-67710500D01*
X160239856Y-67733779D01*
X160236437Y-67756834D01*
X160230773Y-67779443D01*
X160222921Y-67801387D01*
X160212956Y-67822457D01*
X160200974Y-67842448D01*
X160187090Y-67861168D01*
X160171438Y-67878438D01*
X160154168Y-67894090D01*
X160135448Y-67907974D01*
X160115457Y-67919956D01*
X160094387Y-67929921D01*
X160072443Y-67937773D01*
X160049834Y-67943437D01*
X160026779Y-67946856D01*
X160003500Y-67948000D01*
X159528500Y-67948000D01*
X159505221Y-67946856D01*
X159482166Y-67943437D01*
X159459557Y-67937773D01*
X159437613Y-67929921D01*
X159416543Y-67919956D01*
X159396552Y-67907974D01*
X159377832Y-67894090D01*
X159360562Y-67878438D01*
X159344910Y-67861168D01*
X159331026Y-67842448D01*
X159319044Y-67822457D01*
X159309079Y-67801387D01*
X159301227Y-67779443D01*
X159295563Y-67756834D01*
X159292144Y-67733779D01*
X159291000Y-67710500D01*
X159291000Y-67135500D01*
X159292144Y-67112221D01*
X159295563Y-67089166D01*
X159301227Y-67066557D01*
X159309079Y-67044613D01*
X159319044Y-67023543D01*
X159331026Y-67003552D01*
X159344910Y-66984832D01*
X159360562Y-66967562D01*
X159377832Y-66951910D01*
X159396552Y-66938026D01*
X159416543Y-66926044D01*
X159437613Y-66916079D01*
X159459557Y-66908227D01*
X159482166Y-66902563D01*
X159505221Y-66899144D01*
X159528500Y-66898000D01*
X160003500Y-66898000D01*
X160026779Y-66899144D01*
X160026779Y-66899144D01*
G37*
D15*
X159766000Y-67423000D03*
D14*
G36*
X160026779Y-65149144D02*
G01*
X160049834Y-65152563D01*
X160072443Y-65158227D01*
X160094387Y-65166079D01*
X160115457Y-65176044D01*
X160135448Y-65188026D01*
X160154168Y-65201910D01*
X160171438Y-65217562D01*
X160187090Y-65234832D01*
X160200974Y-65253552D01*
X160212956Y-65273543D01*
X160222921Y-65294613D01*
X160230773Y-65316557D01*
X160236437Y-65339166D01*
X160239856Y-65362221D01*
X160241000Y-65385500D01*
X160241000Y-65960500D01*
X160239856Y-65983779D01*
X160236437Y-66006834D01*
X160230773Y-66029443D01*
X160222921Y-66051387D01*
X160212956Y-66072457D01*
X160200974Y-66092448D01*
X160187090Y-66111168D01*
X160171438Y-66128438D01*
X160154168Y-66144090D01*
X160135448Y-66157974D01*
X160115457Y-66169956D01*
X160094387Y-66179921D01*
X160072443Y-66187773D01*
X160049834Y-66193437D01*
X160026779Y-66196856D01*
X160003500Y-66198000D01*
X159528500Y-66198000D01*
X159505221Y-66196856D01*
X159482166Y-66193437D01*
X159459557Y-66187773D01*
X159437613Y-66179921D01*
X159416543Y-66169956D01*
X159396552Y-66157974D01*
X159377832Y-66144090D01*
X159360562Y-66128438D01*
X159344910Y-66111168D01*
X159331026Y-66092448D01*
X159319044Y-66072457D01*
X159309079Y-66051387D01*
X159301227Y-66029443D01*
X159295563Y-66006834D01*
X159292144Y-65983779D01*
X159291000Y-65960500D01*
X159291000Y-65385500D01*
X159292144Y-65362221D01*
X159295563Y-65339166D01*
X159301227Y-65316557D01*
X159309079Y-65294613D01*
X159319044Y-65273543D01*
X159331026Y-65253552D01*
X159344910Y-65234832D01*
X159360562Y-65217562D01*
X159377832Y-65201910D01*
X159396552Y-65188026D01*
X159416543Y-65176044D01*
X159437613Y-65166079D01*
X159459557Y-65158227D01*
X159482166Y-65152563D01*
X159505221Y-65149144D01*
X159528500Y-65148000D01*
X160003500Y-65148000D01*
X160026779Y-65149144D01*
X160026779Y-65149144D01*
G37*
D15*
X159766000Y-65673000D03*
D14*
G36*
X161804779Y-70483144D02*
G01*
X161827834Y-70486563D01*
X161850443Y-70492227D01*
X161872387Y-70500079D01*
X161893457Y-70510044D01*
X161913448Y-70522026D01*
X161932168Y-70535910D01*
X161949438Y-70551562D01*
X161965090Y-70568832D01*
X161978974Y-70587552D01*
X161990956Y-70607543D01*
X162000921Y-70628613D01*
X162008773Y-70650557D01*
X162014437Y-70673166D01*
X162017856Y-70696221D01*
X162019000Y-70719500D01*
X162019000Y-71294500D01*
X162017856Y-71317779D01*
X162014437Y-71340834D01*
X162008773Y-71363443D01*
X162000921Y-71385387D01*
X161990956Y-71406457D01*
X161978974Y-71426448D01*
X161965090Y-71445168D01*
X161949438Y-71462438D01*
X161932168Y-71478090D01*
X161913448Y-71491974D01*
X161893457Y-71503956D01*
X161872387Y-71513921D01*
X161850443Y-71521773D01*
X161827834Y-71527437D01*
X161804779Y-71530856D01*
X161781500Y-71532000D01*
X161306500Y-71532000D01*
X161283221Y-71530856D01*
X161260166Y-71527437D01*
X161237557Y-71521773D01*
X161215613Y-71513921D01*
X161194543Y-71503956D01*
X161174552Y-71491974D01*
X161155832Y-71478090D01*
X161138562Y-71462438D01*
X161122910Y-71445168D01*
X161109026Y-71426448D01*
X161097044Y-71406457D01*
X161087079Y-71385387D01*
X161079227Y-71363443D01*
X161073563Y-71340834D01*
X161070144Y-71317779D01*
X161069000Y-71294500D01*
X161069000Y-70719500D01*
X161070144Y-70696221D01*
X161073563Y-70673166D01*
X161079227Y-70650557D01*
X161087079Y-70628613D01*
X161097044Y-70607543D01*
X161109026Y-70587552D01*
X161122910Y-70568832D01*
X161138562Y-70551562D01*
X161155832Y-70535910D01*
X161174552Y-70522026D01*
X161194543Y-70510044D01*
X161215613Y-70500079D01*
X161237557Y-70492227D01*
X161260166Y-70486563D01*
X161283221Y-70483144D01*
X161306500Y-70482000D01*
X161781500Y-70482000D01*
X161804779Y-70483144D01*
X161804779Y-70483144D01*
G37*
D15*
X161544000Y-71007000D03*
D14*
G36*
X161804779Y-72233144D02*
G01*
X161827834Y-72236563D01*
X161850443Y-72242227D01*
X161872387Y-72250079D01*
X161893457Y-72260044D01*
X161913448Y-72272026D01*
X161932168Y-72285910D01*
X161949438Y-72301562D01*
X161965090Y-72318832D01*
X161978974Y-72337552D01*
X161990956Y-72357543D01*
X162000921Y-72378613D01*
X162008773Y-72400557D01*
X162014437Y-72423166D01*
X162017856Y-72446221D01*
X162019000Y-72469500D01*
X162019000Y-73044500D01*
X162017856Y-73067779D01*
X162014437Y-73090834D01*
X162008773Y-73113443D01*
X162000921Y-73135387D01*
X161990956Y-73156457D01*
X161978974Y-73176448D01*
X161965090Y-73195168D01*
X161949438Y-73212438D01*
X161932168Y-73228090D01*
X161913448Y-73241974D01*
X161893457Y-73253956D01*
X161872387Y-73263921D01*
X161850443Y-73271773D01*
X161827834Y-73277437D01*
X161804779Y-73280856D01*
X161781500Y-73282000D01*
X161306500Y-73282000D01*
X161283221Y-73280856D01*
X161260166Y-73277437D01*
X161237557Y-73271773D01*
X161215613Y-73263921D01*
X161194543Y-73253956D01*
X161174552Y-73241974D01*
X161155832Y-73228090D01*
X161138562Y-73212438D01*
X161122910Y-73195168D01*
X161109026Y-73176448D01*
X161097044Y-73156457D01*
X161087079Y-73135387D01*
X161079227Y-73113443D01*
X161073563Y-73090834D01*
X161070144Y-73067779D01*
X161069000Y-73044500D01*
X161069000Y-72469500D01*
X161070144Y-72446221D01*
X161073563Y-72423166D01*
X161079227Y-72400557D01*
X161087079Y-72378613D01*
X161097044Y-72357543D01*
X161109026Y-72337552D01*
X161122910Y-72318832D01*
X161138562Y-72301562D01*
X161155832Y-72285910D01*
X161174552Y-72272026D01*
X161194543Y-72260044D01*
X161215613Y-72250079D01*
X161237557Y-72242227D01*
X161260166Y-72236563D01*
X161283221Y-72233144D01*
X161306500Y-72232000D01*
X161781500Y-72232000D01*
X161804779Y-72233144D01*
X161804779Y-72233144D01*
G37*
D15*
X161544000Y-72757000D03*
D21*
X151637998Y-81534000D03*
X159004000Y-75438000D03*
X159004000Y-77978000D03*
X154432000Y-73279000D03*
X147066000Y-85344000D03*
X162814000Y-84836000D03*
D22*
X146304000Y-80540000D03*
X149733000Y-75057000D03*
X150114000Y-69850000D03*
X160964000Y-65300000D03*
X156441669Y-69364331D03*
X157098998Y-63627000D03*
X156972000Y-68834000D03*
X155381800Y-70658492D03*
X155911669Y-70104000D03*
D23*
X160415000Y-76395000D02*
X160340000Y-76470000D01*
X160415000Y-74930000D02*
X160415000Y-76395000D01*
X154573000Y-77357000D02*
X154178000Y-76962000D01*
X154573000Y-80010000D02*
X154573000Y-77357000D01*
X152767000Y-78373000D02*
X154178000Y-76962000D01*
X152767000Y-80010000D02*
X152767000Y-78373000D01*
X151637998Y-81139002D02*
X151637998Y-81534000D01*
X152767000Y-80010000D02*
X151637998Y-81139002D01*
X156097000Y-76962000D02*
X157480000Y-78345000D01*
X154178000Y-76962000D02*
X156097000Y-76962000D01*
X160340000Y-76470000D02*
X160036000Y-76470000D01*
X160036000Y-76470000D02*
X159004000Y-75438000D01*
X157494000Y-78359000D02*
X157480000Y-78345000D01*
X159004000Y-77978000D02*
X158623000Y-78359000D01*
X158623000Y-78359000D02*
X157494000Y-78359000D01*
X154831999Y-72879001D02*
X154432000Y-73279000D01*
X157636000Y-72786000D02*
X154925000Y-72786000D01*
X154925000Y-72786000D02*
X154831999Y-72879001D01*
X159766000Y-62484000D02*
X158750000Y-62484000D01*
X161544000Y-71007000D02*
X161544000Y-64262000D01*
X161544000Y-64262000D02*
X159766000Y-62484000D01*
X166370000Y-75833000D02*
X166370000Y-76200000D01*
X161544000Y-71007000D02*
X166370000Y-75833000D01*
X147715000Y-84074000D02*
X147715000Y-84695000D01*
X147465999Y-84944001D02*
X147066000Y-85344000D01*
X147715000Y-84695000D02*
X147465999Y-84944001D01*
X162165000Y-76395000D02*
X162240000Y-76470000D01*
X162165000Y-74930000D02*
X162165000Y-76395000D01*
X159879000Y-82527000D02*
X159348000Y-83058000D01*
X159879000Y-80010000D02*
X159879000Y-82527000D01*
X160176000Y-84836000D02*
X161544000Y-84836000D01*
X159348000Y-83058000D02*
X159348000Y-84008000D01*
X159348000Y-84008000D02*
X160176000Y-84836000D01*
X161544000Y-74309000D02*
X162165000Y-74930000D01*
X161544000Y-72757000D02*
X161544000Y-74309000D01*
X161544000Y-72757000D02*
X159752000Y-72757000D01*
X159752000Y-72757000D02*
X159639000Y-72644000D01*
X155844000Y-86534000D02*
X156494000Y-86534000D01*
X156494000Y-86534000D02*
X157694000Y-86534000D01*
X158847000Y-73436000D02*
X159639000Y-72644000D01*
X157636000Y-73436000D02*
X158847000Y-73436000D01*
D24*
X152938000Y-70836000D02*
X157988000Y-65786000D01*
X151736000Y-70836000D02*
X152938000Y-70836000D01*
X144359999Y-69429999D02*
X143510000Y-68580000D01*
X145818001Y-70888001D02*
X144359999Y-69429999D01*
X150798999Y-70888001D02*
X145818001Y-70888001D01*
X150851000Y-70836000D02*
X150798999Y-70888001D01*
X151736000Y-70836000D02*
X150851000Y-70836000D01*
X159625000Y-67423000D02*
X159766000Y-67423000D01*
X157988000Y-65786000D02*
X159625000Y-67423000D01*
X156096001Y-68185999D02*
X157488001Y-68185999D01*
X151736000Y-71486000D02*
X152796000Y-71486000D01*
X157488001Y-68185999D02*
X157988000Y-67686000D01*
X152796000Y-71486000D02*
X156096001Y-68185999D01*
X143876000Y-71486000D02*
X143510000Y-71120000D01*
X151736000Y-71486000D02*
X143876000Y-71486000D01*
X159531000Y-69229000D02*
X159766000Y-69229000D01*
X157988000Y-67686000D02*
X159531000Y-69229000D01*
X149465000Y-81788000D02*
X149465000Y-84074000D01*
X150481000Y-83058000D02*
X151548000Y-83058000D01*
X149465000Y-84074000D02*
X150481000Y-83058000D01*
X145034000Y-72136000D02*
X151736000Y-72136000D01*
X143510000Y-73660000D02*
X145034000Y-72136000D01*
X146816990Y-81052990D02*
X146304000Y-80540000D01*
X149465000Y-81788000D02*
X148729990Y-81052990D01*
X148729990Y-81052990D02*
X146816990Y-81052990D01*
D23*
X161290000Y-79516000D02*
X161925000Y-80151000D01*
X161290000Y-78470000D02*
X161290000Y-79516000D01*
X165520001Y-84669999D02*
X166370000Y-83820000D01*
X154369000Y-87884000D02*
X162306000Y-87884000D01*
X162306000Y-87884000D02*
X165520001Y-84669999D01*
X153894000Y-86534000D02*
X153894000Y-87409000D01*
X153894000Y-87409000D02*
X154369000Y-87884000D01*
X162701000Y-80151000D02*
X166370000Y-83820000D01*
X161925000Y-80151000D02*
X162701000Y-80151000D01*
D24*
X149211000Y-80010000D02*
X151017000Y-80010000D01*
X151736000Y-74086000D02*
X149434000Y-74086000D01*
X147461000Y-76722000D02*
X147461000Y-80010000D01*
X147129500Y-76390500D02*
X147461000Y-76722000D01*
X149434000Y-74086000D02*
X147129500Y-76390500D01*
X144780000Y-80010000D02*
X147461000Y-80010000D01*
X143510000Y-81280000D02*
X144780000Y-80010000D01*
X156323000Y-80010000D02*
X158129000Y-80010000D01*
X151638000Y-76962000D02*
X149733000Y-75057000D01*
X156980928Y-76095928D02*
X157480000Y-76595000D01*
X156323000Y-75438000D02*
X156980928Y-76095928D01*
X151638000Y-76962000D02*
X153162000Y-75438000D01*
X153162000Y-75438000D02*
X156323000Y-75438000D01*
X151736000Y-70186000D02*
X150450000Y-70186000D01*
X150413999Y-70149999D02*
X150114000Y-69850000D01*
X150450000Y-70186000D02*
X150413999Y-70149999D01*
X144018000Y-66040000D02*
X143510000Y-66040000D01*
X150114000Y-69850000D02*
X147828000Y-69850000D01*
X147828000Y-69850000D02*
X144018000Y-66040000D01*
X148814000Y-73436000D02*
X151736000Y-73436000D01*
X143510000Y-78740000D02*
X148814000Y-73436000D01*
X149025580Y-72786000D02*
X150851000Y-72786000D01*
X150851000Y-72786000D02*
X151736000Y-72786000D01*
X146461579Y-75350001D02*
X149025580Y-72786000D01*
X144359999Y-75350001D02*
X146461579Y-75350001D01*
X143510000Y-76200000D02*
X144359999Y-75350001D01*
X156441669Y-70526669D02*
X156441669Y-69364331D01*
X157636000Y-70836000D02*
X156751000Y-70836000D01*
X156751000Y-70836000D02*
X156441669Y-70526669D01*
X157225998Y-63754000D02*
X157098998Y-63627000D01*
X160401000Y-63754000D02*
X157225998Y-63754000D01*
X160964000Y-65300000D02*
X160964000Y-64317000D01*
X160964000Y-64317000D02*
X160401000Y-63754000D01*
X157636000Y-70186000D02*
X157636000Y-69498000D01*
X157636000Y-69498000D02*
X156972000Y-68834000D01*
X165520001Y-80430001D02*
X166370000Y-81280000D01*
X162560000Y-77470000D02*
X165520001Y-80430001D01*
X157636000Y-74086000D02*
X157636000Y-75340000D01*
X159766000Y-77470000D02*
X162560000Y-77470000D01*
X157636000Y-75340000D02*
X159766000Y-77470000D01*
X155381800Y-70766800D02*
X155381800Y-70658492D01*
X157636000Y-72136000D02*
X156751000Y-72136000D01*
X156751000Y-72136000D02*
X155381800Y-70766800D01*
X157636000Y-71486000D02*
X156751000Y-71486000D01*
X155911669Y-70646669D02*
X155911669Y-70104000D01*
X156751000Y-71486000D02*
X155911669Y-70646669D01*
D25*
G36*
X160251928Y-78898881D02*
G01*
X160164750Y-78900000D01*
X160006000Y-79058750D01*
X160006000Y-79883000D01*
X160026000Y-79883000D01*
X160026000Y-80137000D01*
X160006000Y-80137000D01*
X160006000Y-80961250D01*
X160164750Y-81120000D01*
X160404000Y-81123072D01*
X160528482Y-81110812D01*
X160648180Y-81074502D01*
X160758494Y-81015537D01*
X160855185Y-80936185D01*
X160921988Y-80854785D01*
X160959488Y-80924942D01*
X160979099Y-80948839D01*
X160919463Y-81021506D01*
X160860498Y-81131820D01*
X160824188Y-81251518D01*
X160811928Y-81376000D01*
X160815000Y-81615250D01*
X160973750Y-81774000D01*
X161798000Y-81774000D01*
X161798000Y-81754000D01*
X162052000Y-81754000D01*
X162052000Y-81774000D01*
X162876250Y-81774000D01*
X163035000Y-81615250D01*
X163036151Y-81525597D01*
X164937432Y-83426878D01*
X164906487Y-83528889D01*
X164877815Y-83820000D01*
X164906487Y-84111111D01*
X164937432Y-84213121D01*
X162001554Y-87149000D01*
X158764456Y-87149000D01*
X158843603Y-87020150D01*
X158913268Y-86831938D01*
X158786734Y-86661000D01*
X157821000Y-86661000D01*
X157821000Y-86681000D01*
X157567000Y-86681000D01*
X157567000Y-86661000D01*
X156567000Y-86661000D01*
X156567000Y-86681000D01*
X156540250Y-86681000D01*
X156520250Y-86661000D01*
X156347000Y-86661000D01*
X156347000Y-86407000D01*
X156520250Y-86407000D01*
X156566805Y-86360445D01*
X156567000Y-86360709D01*
X156567000Y-86407000D01*
X157567000Y-86407000D01*
X157567000Y-85581436D01*
X157821000Y-85581436D01*
X157821000Y-86407000D01*
X158786734Y-86407000D01*
X158913268Y-86236062D01*
X158843603Y-86047850D01*
X158729553Y-85862178D01*
X158581471Y-85702324D01*
X158405049Y-85574431D01*
X158207066Y-85483414D01*
X157995131Y-85432770D01*
X157821000Y-85581436D01*
X157567000Y-85581436D01*
X157392869Y-85432770D01*
X157202515Y-85478257D01*
X157152343Y-85415088D01*
X157056933Y-85334200D01*
X156947576Y-85273479D01*
X156828474Y-85235259D01*
X156725750Y-85224000D01*
X156567000Y-85382750D01*
X156567000Y-85496494D01*
X156502343Y-85415088D01*
X156406933Y-85334200D01*
X156329399Y-85291149D01*
X156262250Y-85224000D01*
X156169000Y-85234221D01*
X156075750Y-85224000D01*
X156008601Y-85291149D01*
X155931067Y-85334200D01*
X155844703Y-85407419D01*
X155748494Y-85328463D01*
X155680218Y-85291968D01*
X155612250Y-85224000D01*
X155521120Y-85233988D01*
X155518482Y-85233188D01*
X155394000Y-85220928D01*
X154994000Y-85220928D01*
X154869518Y-85233188D01*
X154869000Y-85233345D01*
X154868482Y-85233188D01*
X154744000Y-85220928D01*
X154344000Y-85220928D01*
X154219518Y-85233188D01*
X154219000Y-85233345D01*
X154218482Y-85233188D01*
X154094000Y-85220928D01*
X153694000Y-85220928D01*
X153569518Y-85233188D01*
X153449820Y-85269498D01*
X153339506Y-85328463D01*
X153242815Y-85407815D01*
X153185084Y-85478161D01*
X152995131Y-85432770D01*
X152821000Y-85581436D01*
X152821000Y-86407000D01*
X152841000Y-86407000D01*
X152841000Y-86661000D01*
X152821000Y-86661000D01*
X152821000Y-87486564D01*
X152995131Y-87635230D01*
X153181075Y-87590797D01*
X153184282Y-87601367D01*
X153211664Y-87691633D01*
X153279914Y-87819320D01*
X153371763Y-87931238D01*
X153399808Y-87954254D01*
X153823741Y-88378187D01*
X153846762Y-88406238D01*
X153958680Y-88498087D01*
X154086367Y-88566337D01*
X154224915Y-88608365D01*
X154332895Y-88619000D01*
X154332904Y-88619000D01*
X154368999Y-88622555D01*
X154405094Y-88619000D01*
X157604311Y-88619000D01*
X157559000Y-88832000D01*
X157559000Y-89107000D01*
X158567000Y-89107000D01*
X158567000Y-89087000D01*
X158821000Y-89087000D01*
X158821000Y-89107000D01*
X159829000Y-89107000D01*
X159829000Y-88832000D01*
X159783689Y-88619000D01*
X162269895Y-88619000D01*
X162306000Y-88622556D01*
X162342105Y-88619000D01*
X162450085Y-88608365D01*
X162588633Y-88566337D01*
X162716320Y-88498087D01*
X162828238Y-88406238D01*
X162851259Y-88378187D01*
X165976879Y-85252568D01*
X166078889Y-85283513D01*
X166297050Y-85305000D01*
X166442950Y-85305000D01*
X166661111Y-85283513D01*
X166941034Y-85198599D01*
X166980001Y-85177771D01*
X166980001Y-90018000D01*
X159712347Y-90018000D01*
X159782415Y-89854987D01*
X159829000Y-89636000D01*
X159829000Y-89361000D01*
X158821000Y-89361000D01*
X158821000Y-89381000D01*
X158567000Y-89381000D01*
X158567000Y-89361000D01*
X157559000Y-89361000D01*
X157559000Y-89636000D01*
X157605585Y-89854987D01*
X157675653Y-90018000D01*
X152712347Y-90018000D01*
X152782415Y-89854987D01*
X152829000Y-89636000D01*
X152829000Y-89361000D01*
X151821000Y-89361000D01*
X151821000Y-89381000D01*
X151567000Y-89381000D01*
X151567000Y-89361000D01*
X150559000Y-89361000D01*
X150559000Y-89636000D01*
X150605585Y-89854987D01*
X150675653Y-90018000D01*
X142900000Y-90018000D01*
X142900000Y-88832000D01*
X150559000Y-88832000D01*
X150559000Y-89107000D01*
X151567000Y-89107000D01*
X151567000Y-87991046D01*
X151821000Y-87991046D01*
X151821000Y-89107000D01*
X152829000Y-89107000D01*
X152829000Y-88832000D01*
X152782415Y-88613013D01*
X152694003Y-88407322D01*
X152567161Y-88222831D01*
X152406764Y-88066631D01*
X152218976Y-87944724D01*
X151995874Y-87864881D01*
X151821000Y-87991046D01*
X151567000Y-87991046D01*
X151392126Y-87864881D01*
X151169024Y-87944724D01*
X150981236Y-88066631D01*
X150820839Y-88222831D01*
X150693997Y-88407322D01*
X150605585Y-88613013D01*
X150559000Y-88832000D01*
X142900000Y-88832000D01*
X142900000Y-86831938D01*
X151474732Y-86831938D01*
X151544397Y-87020150D01*
X151658447Y-87205822D01*
X151806529Y-87365676D01*
X151982951Y-87493569D01*
X152180934Y-87584586D01*
X152392869Y-87635230D01*
X152567000Y-87486564D01*
X152567000Y-86661000D01*
X151601266Y-86661000D01*
X151474732Y-86831938D01*
X142900000Y-86831938D01*
X142900000Y-85171696D01*
X143153109Y-85261481D01*
X143383000Y-85140814D01*
X143383000Y-83947000D01*
X143637000Y-83947000D01*
X143637000Y-85140814D01*
X143866891Y-85261481D01*
X144141252Y-85164157D01*
X144391355Y-85015178D01*
X144607588Y-84820269D01*
X144781641Y-84586920D01*
X144906825Y-84324099D01*
X144951476Y-84176890D01*
X144830155Y-83947000D01*
X143637000Y-83947000D01*
X143383000Y-83947000D01*
X143363000Y-83947000D01*
X143363000Y-83693000D01*
X143383000Y-83693000D01*
X143383000Y-83673000D01*
X143637000Y-83673000D01*
X143637000Y-83693000D01*
X144830155Y-83693000D01*
X144951476Y-83463110D01*
X144906825Y-83315901D01*
X144781641Y-83053080D01*
X144607588Y-82819731D01*
X144391355Y-82624822D01*
X144274477Y-82555201D01*
X144339014Y-82520706D01*
X144565134Y-82335134D01*
X144624332Y-82263000D01*
X146551928Y-82263000D01*
X146564188Y-82387482D01*
X146600498Y-82507180D01*
X146659463Y-82617494D01*
X146738815Y-82714185D01*
X146835506Y-82793537D01*
X146945820Y-82852502D01*
X147065518Y-82888812D01*
X147190000Y-82901072D01*
X147429250Y-82898000D01*
X147588000Y-82739250D01*
X147588000Y-81915000D01*
X146713750Y-81915000D01*
X146555000Y-82073750D01*
X146551928Y-82263000D01*
X144624332Y-82263000D01*
X144750706Y-82109014D01*
X144888599Y-81851034D01*
X144973513Y-81571111D01*
X145002185Y-81280000D01*
X144973513Y-80988889D01*
X144935985Y-80865177D01*
X145076162Y-80725000D01*
X145387481Y-80725000D01*
X145404932Y-80812729D01*
X145475414Y-80982889D01*
X145577738Y-81136028D01*
X145707972Y-81266262D01*
X145861111Y-81368586D01*
X146031271Y-81439068D01*
X146211911Y-81475000D01*
X146227837Y-81475000D01*
X146286578Y-81533741D01*
X146308963Y-81561017D01*
X146336238Y-81583401D01*
X146336241Y-81583404D01*
X146417834Y-81650366D01*
X146417836Y-81650367D01*
X146542048Y-81716760D01*
X146676826Y-81757644D01*
X146781870Y-81767990D01*
X146781879Y-81767990D01*
X146816989Y-81771448D01*
X146852099Y-81767990D01*
X147862000Y-81767990D01*
X147862000Y-81915000D01*
X147842000Y-81915000D01*
X147842000Y-82739250D01*
X148000750Y-82898000D01*
X148240000Y-82901072D01*
X148364482Y-82888812D01*
X148484180Y-82852502D01*
X148594494Y-82793537D01*
X148667161Y-82733901D01*
X148691058Y-82753512D01*
X148750000Y-82785017D01*
X148750001Y-83076983D01*
X148691058Y-83108488D01*
X148590000Y-83191425D01*
X148488942Y-83108488D01*
X148337567Y-83027577D01*
X148173316Y-82977752D01*
X148002500Y-82960928D01*
X147427500Y-82960928D01*
X147256684Y-82977752D01*
X147092433Y-83027577D01*
X146941058Y-83108488D01*
X146808377Y-83217377D01*
X146699488Y-83350058D01*
X146618577Y-83501433D01*
X146568752Y-83665684D01*
X146551928Y-83836500D01*
X146551928Y-84311500D01*
X146564053Y-84434607D01*
X146406226Y-84540063D01*
X146262063Y-84684226D01*
X146148795Y-84853744D01*
X146070774Y-85042102D01*
X146031000Y-85242061D01*
X146031000Y-85445939D01*
X146070774Y-85645898D01*
X146148795Y-85834256D01*
X146262063Y-86003774D01*
X146406226Y-86147937D01*
X146575744Y-86261205D01*
X146764102Y-86339226D01*
X146964061Y-86379000D01*
X147167939Y-86379000D01*
X147367898Y-86339226D01*
X147556256Y-86261205D01*
X147593885Y-86236062D01*
X151474732Y-86236062D01*
X151601266Y-86407000D01*
X152567000Y-86407000D01*
X152567000Y-85581436D01*
X152392869Y-85432770D01*
X152180934Y-85483414D01*
X151982951Y-85574431D01*
X151806529Y-85702324D01*
X151658447Y-85862178D01*
X151544397Y-86047850D01*
X151474732Y-86236062D01*
X147593885Y-86236062D01*
X147725774Y-86147937D01*
X147869937Y-86003774D01*
X147983205Y-85834256D01*
X148061226Y-85645898D01*
X148101000Y-85445939D01*
X148101000Y-85348446D01*
X148209187Y-85240259D01*
X148237238Y-85217238D01*
X148309773Y-85128854D01*
X148337567Y-85120423D01*
X148488942Y-85039512D01*
X148590000Y-84956575D01*
X148691058Y-85039512D01*
X148842433Y-85120423D01*
X149006684Y-85170248D01*
X149177500Y-85187072D01*
X149752500Y-85187072D01*
X149923316Y-85170248D01*
X150087567Y-85120423D01*
X150238942Y-85039512D01*
X150371623Y-84930623D01*
X150480512Y-84797942D01*
X150561423Y-84646567D01*
X150611248Y-84482316D01*
X150617693Y-84416878D01*
X150673518Y-84433812D01*
X150798000Y-84446072D01*
X152298000Y-84446072D01*
X152422482Y-84433812D01*
X152542180Y-84397502D01*
X152652494Y-84338537D01*
X152749185Y-84259185D01*
X152828537Y-84162494D01*
X152887502Y-84052180D01*
X152923812Y-83932482D01*
X152936072Y-83808000D01*
X157959928Y-83808000D01*
X157972188Y-83932482D01*
X158008498Y-84052180D01*
X158067463Y-84162494D01*
X158146815Y-84259185D01*
X158243506Y-84338537D01*
X158353820Y-84397502D01*
X158473518Y-84433812D01*
X158598000Y-84446072D01*
X159062250Y-84443000D01*
X159221000Y-84284250D01*
X159221000Y-83185000D01*
X159475000Y-83185000D01*
X159475000Y-84284250D01*
X159633750Y-84443000D01*
X160098000Y-84446072D01*
X160222482Y-84433812D01*
X160342180Y-84397502D01*
X160452494Y-84338537D01*
X160549185Y-84259185D01*
X160628537Y-84162494D01*
X160687502Y-84052180D01*
X160723812Y-83932482D01*
X160736072Y-83808000D01*
X160733000Y-83343750D01*
X160574250Y-83185000D01*
X159475000Y-83185000D01*
X159221000Y-83185000D01*
X158121750Y-83185000D01*
X157963000Y-83343750D01*
X157959928Y-83808000D01*
X152936072Y-83808000D01*
X152936072Y-82308000D01*
X157959928Y-82308000D01*
X157963000Y-82772250D01*
X158121750Y-82931000D01*
X159221000Y-82931000D01*
X159221000Y-81831750D01*
X159475000Y-81831750D01*
X159475000Y-82931000D01*
X160574250Y-82931000D01*
X160733000Y-82772250D01*
X160735291Y-82426000D01*
X160811928Y-82426000D01*
X160824188Y-82550482D01*
X160860498Y-82670180D01*
X160919463Y-82780494D01*
X160998815Y-82877185D01*
X161095506Y-82956537D01*
X161205820Y-83015502D01*
X161325518Y-83051812D01*
X161450000Y-83064072D01*
X161639250Y-83061000D01*
X161798000Y-82902250D01*
X161798000Y-82028000D01*
X162052000Y-82028000D01*
X162052000Y-82902250D01*
X162210750Y-83061000D01*
X162400000Y-83064072D01*
X162524482Y-83051812D01*
X162644180Y-83015502D01*
X162754494Y-82956537D01*
X162851185Y-82877185D01*
X162930537Y-82780494D01*
X162989502Y-82670180D01*
X163025812Y-82550482D01*
X163038072Y-82426000D01*
X163035000Y-82186750D01*
X162876250Y-82028000D01*
X162052000Y-82028000D01*
X161798000Y-82028000D01*
X160973750Y-82028000D01*
X160815000Y-82186750D01*
X160811928Y-82426000D01*
X160735291Y-82426000D01*
X160736072Y-82308000D01*
X160723812Y-82183518D01*
X160687502Y-82063820D01*
X160628537Y-81953506D01*
X160549185Y-81856815D01*
X160452494Y-81777463D01*
X160342180Y-81718498D01*
X160222482Y-81682188D01*
X160098000Y-81669928D01*
X159633750Y-81673000D01*
X159475000Y-81831750D01*
X159221000Y-81831750D01*
X159062250Y-81673000D01*
X158598000Y-81669928D01*
X158473518Y-81682188D01*
X158353820Y-81718498D01*
X158243506Y-81777463D01*
X158146815Y-81856815D01*
X158067463Y-81953506D01*
X158008498Y-82063820D01*
X157972188Y-82183518D01*
X157959928Y-82308000D01*
X152936072Y-82308000D01*
X152923812Y-82183518D01*
X152887502Y-82063820D01*
X152828537Y-81953506D01*
X152749185Y-81856815D01*
X152652494Y-81777463D01*
X152645582Y-81773769D01*
X152672998Y-81635939D01*
X152672998Y-81432061D01*
X152633224Y-81232102D01*
X152618907Y-81197539D01*
X152693374Y-81123072D01*
X153054500Y-81123072D01*
X153225316Y-81106248D01*
X153389567Y-81056423D01*
X153540942Y-80975512D01*
X153670000Y-80869596D01*
X153799058Y-80975512D01*
X153950433Y-81056423D01*
X154114684Y-81106248D01*
X154285500Y-81123072D01*
X154860500Y-81123072D01*
X155031316Y-81106248D01*
X155195567Y-81056423D01*
X155346942Y-80975512D01*
X155448000Y-80892575D01*
X155549058Y-80975512D01*
X155700433Y-81056423D01*
X155864684Y-81106248D01*
X156035500Y-81123072D01*
X156610500Y-81123072D01*
X156781316Y-81106248D01*
X156945567Y-81056423D01*
X157096942Y-80975512D01*
X157226000Y-80869596D01*
X157355058Y-80975512D01*
X157506433Y-81056423D01*
X157670684Y-81106248D01*
X157841500Y-81123072D01*
X158416500Y-81123072D01*
X158587316Y-81106248D01*
X158751567Y-81056423D01*
X158902942Y-80975512D01*
X158926839Y-80955901D01*
X158999506Y-81015537D01*
X159109820Y-81074502D01*
X159229518Y-81110812D01*
X159354000Y-81123072D01*
X159593250Y-81120000D01*
X159752000Y-80961250D01*
X159752000Y-80137000D01*
X159732000Y-80137000D01*
X159732000Y-79883000D01*
X159752000Y-79883000D01*
X159752000Y-79058750D01*
X159593250Y-78900000D01*
X159486004Y-78898623D01*
X159494256Y-78895205D01*
X159663774Y-78781937D01*
X159807937Y-78637774D01*
X159921205Y-78468256D01*
X159999226Y-78279898D01*
X160018102Y-78185000D01*
X160251928Y-78185000D01*
X160251928Y-78898881D01*
X160251928Y-78898881D01*
G37*
X160251928Y-78898881D02*
X160164750Y-78900000D01*
X160006000Y-79058750D01*
X160006000Y-79883000D01*
X160026000Y-79883000D01*
X160026000Y-80137000D01*
X160006000Y-80137000D01*
X160006000Y-80961250D01*
X160164750Y-81120000D01*
X160404000Y-81123072D01*
X160528482Y-81110812D01*
X160648180Y-81074502D01*
X160758494Y-81015537D01*
X160855185Y-80936185D01*
X160921988Y-80854785D01*
X160959488Y-80924942D01*
X160979099Y-80948839D01*
X160919463Y-81021506D01*
X160860498Y-81131820D01*
X160824188Y-81251518D01*
X160811928Y-81376000D01*
X160815000Y-81615250D01*
X160973750Y-81774000D01*
X161798000Y-81774000D01*
X161798000Y-81754000D01*
X162052000Y-81754000D01*
X162052000Y-81774000D01*
X162876250Y-81774000D01*
X163035000Y-81615250D01*
X163036151Y-81525597D01*
X164937432Y-83426878D01*
X164906487Y-83528889D01*
X164877815Y-83820000D01*
X164906487Y-84111111D01*
X164937432Y-84213121D01*
X162001554Y-87149000D01*
X158764456Y-87149000D01*
X158843603Y-87020150D01*
X158913268Y-86831938D01*
X158786734Y-86661000D01*
X157821000Y-86661000D01*
X157821000Y-86681000D01*
X157567000Y-86681000D01*
X157567000Y-86661000D01*
X156567000Y-86661000D01*
X156567000Y-86681000D01*
X156540250Y-86681000D01*
X156520250Y-86661000D01*
X156347000Y-86661000D01*
X156347000Y-86407000D01*
X156520250Y-86407000D01*
X156566805Y-86360445D01*
X156567000Y-86360709D01*
X156567000Y-86407000D01*
X157567000Y-86407000D01*
X157567000Y-85581436D01*
X157821000Y-85581436D01*
X157821000Y-86407000D01*
X158786734Y-86407000D01*
X158913268Y-86236062D01*
X158843603Y-86047850D01*
X158729553Y-85862178D01*
X158581471Y-85702324D01*
X158405049Y-85574431D01*
X158207066Y-85483414D01*
X157995131Y-85432770D01*
X157821000Y-85581436D01*
X157567000Y-85581436D01*
X157392869Y-85432770D01*
X157202515Y-85478257D01*
X157152343Y-85415088D01*
X157056933Y-85334200D01*
X156947576Y-85273479D01*
X156828474Y-85235259D01*
X156725750Y-85224000D01*
X156567000Y-85382750D01*
X156567000Y-85496494D01*
X156502343Y-85415088D01*
X156406933Y-85334200D01*
X156329399Y-85291149D01*
X156262250Y-85224000D01*
X156169000Y-85234221D01*
X156075750Y-85224000D01*
X156008601Y-85291149D01*
X155931067Y-85334200D01*
X155844703Y-85407419D01*
X155748494Y-85328463D01*
X155680218Y-85291968D01*
X155612250Y-85224000D01*
X155521120Y-85233988D01*
X155518482Y-85233188D01*
X155394000Y-85220928D01*
X154994000Y-85220928D01*
X154869518Y-85233188D01*
X154869000Y-85233345D01*
X154868482Y-85233188D01*
X154744000Y-85220928D01*
X154344000Y-85220928D01*
X154219518Y-85233188D01*
X154219000Y-85233345D01*
X154218482Y-85233188D01*
X154094000Y-85220928D01*
X153694000Y-85220928D01*
X153569518Y-85233188D01*
X153449820Y-85269498D01*
X153339506Y-85328463D01*
X153242815Y-85407815D01*
X153185084Y-85478161D01*
X152995131Y-85432770D01*
X152821000Y-85581436D01*
X152821000Y-86407000D01*
X152841000Y-86407000D01*
X152841000Y-86661000D01*
X152821000Y-86661000D01*
X152821000Y-87486564D01*
X152995131Y-87635230D01*
X153181075Y-87590797D01*
X153184282Y-87601367D01*
X153211664Y-87691633D01*
X153279914Y-87819320D01*
X153371763Y-87931238D01*
X153399808Y-87954254D01*
X153823741Y-88378187D01*
X153846762Y-88406238D01*
X153958680Y-88498087D01*
X154086367Y-88566337D01*
X154224915Y-88608365D01*
X154332895Y-88619000D01*
X154332904Y-88619000D01*
X154368999Y-88622555D01*
X154405094Y-88619000D01*
X157604311Y-88619000D01*
X157559000Y-88832000D01*
X157559000Y-89107000D01*
X158567000Y-89107000D01*
X158567000Y-89087000D01*
X158821000Y-89087000D01*
X158821000Y-89107000D01*
X159829000Y-89107000D01*
X159829000Y-88832000D01*
X159783689Y-88619000D01*
X162269895Y-88619000D01*
X162306000Y-88622556D01*
X162342105Y-88619000D01*
X162450085Y-88608365D01*
X162588633Y-88566337D01*
X162716320Y-88498087D01*
X162828238Y-88406238D01*
X162851259Y-88378187D01*
X165976879Y-85252568D01*
X166078889Y-85283513D01*
X166297050Y-85305000D01*
X166442950Y-85305000D01*
X166661111Y-85283513D01*
X166941034Y-85198599D01*
X166980001Y-85177771D01*
X166980001Y-90018000D01*
X159712347Y-90018000D01*
X159782415Y-89854987D01*
X159829000Y-89636000D01*
X159829000Y-89361000D01*
X158821000Y-89361000D01*
X158821000Y-89381000D01*
X158567000Y-89381000D01*
X158567000Y-89361000D01*
X157559000Y-89361000D01*
X157559000Y-89636000D01*
X157605585Y-89854987D01*
X157675653Y-90018000D01*
X152712347Y-90018000D01*
X152782415Y-89854987D01*
X152829000Y-89636000D01*
X152829000Y-89361000D01*
X151821000Y-89361000D01*
X151821000Y-89381000D01*
X151567000Y-89381000D01*
X151567000Y-89361000D01*
X150559000Y-89361000D01*
X150559000Y-89636000D01*
X150605585Y-89854987D01*
X150675653Y-90018000D01*
X142900000Y-90018000D01*
X142900000Y-88832000D01*
X150559000Y-88832000D01*
X150559000Y-89107000D01*
X151567000Y-89107000D01*
X151567000Y-87991046D01*
X151821000Y-87991046D01*
X151821000Y-89107000D01*
X152829000Y-89107000D01*
X152829000Y-88832000D01*
X152782415Y-88613013D01*
X152694003Y-88407322D01*
X152567161Y-88222831D01*
X152406764Y-88066631D01*
X152218976Y-87944724D01*
X151995874Y-87864881D01*
X151821000Y-87991046D01*
X151567000Y-87991046D01*
X151392126Y-87864881D01*
X151169024Y-87944724D01*
X150981236Y-88066631D01*
X150820839Y-88222831D01*
X150693997Y-88407322D01*
X150605585Y-88613013D01*
X150559000Y-88832000D01*
X142900000Y-88832000D01*
X142900000Y-86831938D01*
X151474732Y-86831938D01*
X151544397Y-87020150D01*
X151658447Y-87205822D01*
X151806529Y-87365676D01*
X151982951Y-87493569D01*
X152180934Y-87584586D01*
X152392869Y-87635230D01*
X152567000Y-87486564D01*
X152567000Y-86661000D01*
X151601266Y-86661000D01*
X151474732Y-86831938D01*
X142900000Y-86831938D01*
X142900000Y-85171696D01*
X143153109Y-85261481D01*
X143383000Y-85140814D01*
X143383000Y-83947000D01*
X143637000Y-83947000D01*
X143637000Y-85140814D01*
X143866891Y-85261481D01*
X144141252Y-85164157D01*
X144391355Y-85015178D01*
X144607588Y-84820269D01*
X144781641Y-84586920D01*
X144906825Y-84324099D01*
X144951476Y-84176890D01*
X144830155Y-83947000D01*
X143637000Y-83947000D01*
X143383000Y-83947000D01*
X143363000Y-83947000D01*
X143363000Y-83693000D01*
X143383000Y-83693000D01*
X143383000Y-83673000D01*
X143637000Y-83673000D01*
X143637000Y-83693000D01*
X144830155Y-83693000D01*
X144951476Y-83463110D01*
X144906825Y-83315901D01*
X144781641Y-83053080D01*
X144607588Y-82819731D01*
X144391355Y-82624822D01*
X144274477Y-82555201D01*
X144339014Y-82520706D01*
X144565134Y-82335134D01*
X144624332Y-82263000D01*
X146551928Y-82263000D01*
X146564188Y-82387482D01*
X146600498Y-82507180D01*
X146659463Y-82617494D01*
X146738815Y-82714185D01*
X146835506Y-82793537D01*
X146945820Y-82852502D01*
X147065518Y-82888812D01*
X147190000Y-82901072D01*
X147429250Y-82898000D01*
X147588000Y-82739250D01*
X147588000Y-81915000D01*
X146713750Y-81915000D01*
X146555000Y-82073750D01*
X146551928Y-82263000D01*
X144624332Y-82263000D01*
X144750706Y-82109014D01*
X144888599Y-81851034D01*
X144973513Y-81571111D01*
X145002185Y-81280000D01*
X144973513Y-80988889D01*
X144935985Y-80865177D01*
X145076162Y-80725000D01*
X145387481Y-80725000D01*
X145404932Y-80812729D01*
X145475414Y-80982889D01*
X145577738Y-81136028D01*
X145707972Y-81266262D01*
X145861111Y-81368586D01*
X146031271Y-81439068D01*
X146211911Y-81475000D01*
X146227837Y-81475000D01*
X146286578Y-81533741D01*
X146308963Y-81561017D01*
X146336238Y-81583401D01*
X146336241Y-81583404D01*
X146417834Y-81650366D01*
X146417836Y-81650367D01*
X146542048Y-81716760D01*
X146676826Y-81757644D01*
X146781870Y-81767990D01*
X146781879Y-81767990D01*
X146816989Y-81771448D01*
X146852099Y-81767990D01*
X147862000Y-81767990D01*
X147862000Y-81915000D01*
X147842000Y-81915000D01*
X147842000Y-82739250D01*
X148000750Y-82898000D01*
X148240000Y-82901072D01*
X148364482Y-82888812D01*
X148484180Y-82852502D01*
X148594494Y-82793537D01*
X148667161Y-82733901D01*
X148691058Y-82753512D01*
X148750000Y-82785017D01*
X148750001Y-83076983D01*
X148691058Y-83108488D01*
X148590000Y-83191425D01*
X148488942Y-83108488D01*
X148337567Y-83027577D01*
X148173316Y-82977752D01*
X148002500Y-82960928D01*
X147427500Y-82960928D01*
X147256684Y-82977752D01*
X147092433Y-83027577D01*
X146941058Y-83108488D01*
X146808377Y-83217377D01*
X146699488Y-83350058D01*
X146618577Y-83501433D01*
X146568752Y-83665684D01*
X146551928Y-83836500D01*
X146551928Y-84311500D01*
X146564053Y-84434607D01*
X146406226Y-84540063D01*
X146262063Y-84684226D01*
X146148795Y-84853744D01*
X146070774Y-85042102D01*
X146031000Y-85242061D01*
X146031000Y-85445939D01*
X146070774Y-85645898D01*
X146148795Y-85834256D01*
X146262063Y-86003774D01*
X146406226Y-86147937D01*
X146575744Y-86261205D01*
X146764102Y-86339226D01*
X146964061Y-86379000D01*
X147167939Y-86379000D01*
X147367898Y-86339226D01*
X147556256Y-86261205D01*
X147593885Y-86236062D01*
X151474732Y-86236062D01*
X151601266Y-86407000D01*
X152567000Y-86407000D01*
X152567000Y-85581436D01*
X152392869Y-85432770D01*
X152180934Y-85483414D01*
X151982951Y-85574431D01*
X151806529Y-85702324D01*
X151658447Y-85862178D01*
X151544397Y-86047850D01*
X151474732Y-86236062D01*
X147593885Y-86236062D01*
X147725774Y-86147937D01*
X147869937Y-86003774D01*
X147983205Y-85834256D01*
X148061226Y-85645898D01*
X148101000Y-85445939D01*
X148101000Y-85348446D01*
X148209187Y-85240259D01*
X148237238Y-85217238D01*
X148309773Y-85128854D01*
X148337567Y-85120423D01*
X148488942Y-85039512D01*
X148590000Y-84956575D01*
X148691058Y-85039512D01*
X148842433Y-85120423D01*
X149006684Y-85170248D01*
X149177500Y-85187072D01*
X149752500Y-85187072D01*
X149923316Y-85170248D01*
X150087567Y-85120423D01*
X150238942Y-85039512D01*
X150371623Y-84930623D01*
X150480512Y-84797942D01*
X150561423Y-84646567D01*
X150611248Y-84482316D01*
X150617693Y-84416878D01*
X150673518Y-84433812D01*
X150798000Y-84446072D01*
X152298000Y-84446072D01*
X152422482Y-84433812D01*
X152542180Y-84397502D01*
X152652494Y-84338537D01*
X152749185Y-84259185D01*
X152828537Y-84162494D01*
X152887502Y-84052180D01*
X152923812Y-83932482D01*
X152936072Y-83808000D01*
X157959928Y-83808000D01*
X157972188Y-83932482D01*
X158008498Y-84052180D01*
X158067463Y-84162494D01*
X158146815Y-84259185D01*
X158243506Y-84338537D01*
X158353820Y-84397502D01*
X158473518Y-84433812D01*
X158598000Y-84446072D01*
X159062250Y-84443000D01*
X159221000Y-84284250D01*
X159221000Y-83185000D01*
X159475000Y-83185000D01*
X159475000Y-84284250D01*
X159633750Y-84443000D01*
X160098000Y-84446072D01*
X160222482Y-84433812D01*
X160342180Y-84397502D01*
X160452494Y-84338537D01*
X160549185Y-84259185D01*
X160628537Y-84162494D01*
X160687502Y-84052180D01*
X160723812Y-83932482D01*
X160736072Y-83808000D01*
X160733000Y-83343750D01*
X160574250Y-83185000D01*
X159475000Y-83185000D01*
X159221000Y-83185000D01*
X158121750Y-83185000D01*
X157963000Y-83343750D01*
X157959928Y-83808000D01*
X152936072Y-83808000D01*
X152936072Y-82308000D01*
X157959928Y-82308000D01*
X157963000Y-82772250D01*
X158121750Y-82931000D01*
X159221000Y-82931000D01*
X159221000Y-81831750D01*
X159475000Y-81831750D01*
X159475000Y-82931000D01*
X160574250Y-82931000D01*
X160733000Y-82772250D01*
X160735291Y-82426000D01*
X160811928Y-82426000D01*
X160824188Y-82550482D01*
X160860498Y-82670180D01*
X160919463Y-82780494D01*
X160998815Y-82877185D01*
X161095506Y-82956537D01*
X161205820Y-83015502D01*
X161325518Y-83051812D01*
X161450000Y-83064072D01*
X161639250Y-83061000D01*
X161798000Y-82902250D01*
X161798000Y-82028000D01*
X162052000Y-82028000D01*
X162052000Y-82902250D01*
X162210750Y-83061000D01*
X162400000Y-83064072D01*
X162524482Y-83051812D01*
X162644180Y-83015502D01*
X162754494Y-82956537D01*
X162851185Y-82877185D01*
X162930537Y-82780494D01*
X162989502Y-82670180D01*
X163025812Y-82550482D01*
X163038072Y-82426000D01*
X163035000Y-82186750D01*
X162876250Y-82028000D01*
X162052000Y-82028000D01*
X161798000Y-82028000D01*
X160973750Y-82028000D01*
X160815000Y-82186750D01*
X160811928Y-82426000D01*
X160735291Y-82426000D01*
X160736072Y-82308000D01*
X160723812Y-82183518D01*
X160687502Y-82063820D01*
X160628537Y-81953506D01*
X160549185Y-81856815D01*
X160452494Y-81777463D01*
X160342180Y-81718498D01*
X160222482Y-81682188D01*
X160098000Y-81669928D01*
X159633750Y-81673000D01*
X159475000Y-81831750D01*
X159221000Y-81831750D01*
X159062250Y-81673000D01*
X158598000Y-81669928D01*
X158473518Y-81682188D01*
X158353820Y-81718498D01*
X158243506Y-81777463D01*
X158146815Y-81856815D01*
X158067463Y-81953506D01*
X158008498Y-82063820D01*
X157972188Y-82183518D01*
X157959928Y-82308000D01*
X152936072Y-82308000D01*
X152923812Y-82183518D01*
X152887502Y-82063820D01*
X152828537Y-81953506D01*
X152749185Y-81856815D01*
X152652494Y-81777463D01*
X152645582Y-81773769D01*
X152672998Y-81635939D01*
X152672998Y-81432061D01*
X152633224Y-81232102D01*
X152618907Y-81197539D01*
X152693374Y-81123072D01*
X153054500Y-81123072D01*
X153225316Y-81106248D01*
X153389567Y-81056423D01*
X153540942Y-80975512D01*
X153670000Y-80869596D01*
X153799058Y-80975512D01*
X153950433Y-81056423D01*
X154114684Y-81106248D01*
X154285500Y-81123072D01*
X154860500Y-81123072D01*
X155031316Y-81106248D01*
X155195567Y-81056423D01*
X155346942Y-80975512D01*
X155448000Y-80892575D01*
X155549058Y-80975512D01*
X155700433Y-81056423D01*
X155864684Y-81106248D01*
X156035500Y-81123072D01*
X156610500Y-81123072D01*
X156781316Y-81106248D01*
X156945567Y-81056423D01*
X157096942Y-80975512D01*
X157226000Y-80869596D01*
X157355058Y-80975512D01*
X157506433Y-81056423D01*
X157670684Y-81106248D01*
X157841500Y-81123072D01*
X158416500Y-81123072D01*
X158587316Y-81106248D01*
X158751567Y-81056423D01*
X158902942Y-80975512D01*
X158926839Y-80955901D01*
X158999506Y-81015537D01*
X159109820Y-81074502D01*
X159229518Y-81110812D01*
X159354000Y-81123072D01*
X159593250Y-81120000D01*
X159752000Y-80961250D01*
X159752000Y-80137000D01*
X159732000Y-80137000D01*
X159732000Y-79883000D01*
X159752000Y-79883000D01*
X159752000Y-79058750D01*
X159593250Y-78900000D01*
X159486004Y-78898623D01*
X159494256Y-78895205D01*
X159663774Y-78781937D01*
X159807937Y-78637774D01*
X159921205Y-78468256D01*
X159999226Y-78279898D01*
X160018102Y-78185000D01*
X160251928Y-78185000D01*
X160251928Y-78898881D01*
G36*
X149225000Y-76835000D02*
G01*
X149245000Y-76835000D01*
X149245000Y-77089000D01*
X149225000Y-77089000D01*
X149225000Y-78288250D01*
X149383750Y-78447000D01*
X149948000Y-78450072D01*
X150072482Y-78437812D01*
X150192180Y-78401502D01*
X150302494Y-78342537D01*
X150399185Y-78263185D01*
X150478537Y-78166494D01*
X150537502Y-78056180D01*
X150558393Y-77987313D01*
X150582866Y-78017134D01*
X150808986Y-78202706D01*
X151066966Y-78340599D01*
X151346889Y-78425513D01*
X151565050Y-78447000D01*
X151710950Y-78447000D01*
X151929111Y-78425513D01*
X152030584Y-78394731D01*
X152032001Y-78409115D01*
X152032001Y-79023673D01*
X151993058Y-79044488D01*
X151892000Y-79127425D01*
X151790942Y-79044488D01*
X151639567Y-78963577D01*
X151475316Y-78913752D01*
X151304500Y-78896928D01*
X150729500Y-78896928D01*
X150558684Y-78913752D01*
X150394433Y-78963577D01*
X150243058Y-79044488D01*
X150114000Y-79150404D01*
X149984942Y-79044488D01*
X149833567Y-78963577D01*
X149669316Y-78913752D01*
X149498500Y-78896928D01*
X148923500Y-78896928D01*
X148752684Y-78913752D01*
X148588433Y-78963577D01*
X148437058Y-79044488D01*
X148336000Y-79127425D01*
X148234942Y-79044488D01*
X148176000Y-79012983D01*
X148176000Y-78442981D01*
X148248000Y-78450072D01*
X148812250Y-78447000D01*
X148971000Y-78288250D01*
X148971000Y-77089000D01*
X148951000Y-77089000D01*
X148951000Y-76835000D01*
X148971000Y-76835000D01*
X148971000Y-76815000D01*
X149225000Y-76815000D01*
X149225000Y-76835000D01*
X149225000Y-76835000D01*
G37*
X149225000Y-76835000D02*
X149245000Y-76835000D01*
X149245000Y-77089000D01*
X149225000Y-77089000D01*
X149225000Y-78288250D01*
X149383750Y-78447000D01*
X149948000Y-78450072D01*
X150072482Y-78437812D01*
X150192180Y-78401502D01*
X150302494Y-78342537D01*
X150399185Y-78263185D01*
X150478537Y-78166494D01*
X150537502Y-78056180D01*
X150558393Y-77987313D01*
X150582866Y-78017134D01*
X150808986Y-78202706D01*
X151066966Y-78340599D01*
X151346889Y-78425513D01*
X151565050Y-78447000D01*
X151710950Y-78447000D01*
X151929111Y-78425513D01*
X152030584Y-78394731D01*
X152032001Y-78409115D01*
X152032001Y-79023673D01*
X151993058Y-79044488D01*
X151892000Y-79127425D01*
X151790942Y-79044488D01*
X151639567Y-78963577D01*
X151475316Y-78913752D01*
X151304500Y-78896928D01*
X150729500Y-78896928D01*
X150558684Y-78913752D01*
X150394433Y-78963577D01*
X150243058Y-79044488D01*
X150114000Y-79150404D01*
X149984942Y-79044488D01*
X149833567Y-78963577D01*
X149669316Y-78913752D01*
X149498500Y-78896928D01*
X148923500Y-78896928D01*
X148752684Y-78913752D01*
X148588433Y-78963577D01*
X148437058Y-79044488D01*
X148336000Y-79127425D01*
X148234942Y-79044488D01*
X148176000Y-79012983D01*
X148176000Y-78442981D01*
X148248000Y-78450072D01*
X148812250Y-78447000D01*
X148971000Y-78288250D01*
X148971000Y-77089000D01*
X148951000Y-77089000D01*
X148951000Y-76835000D01*
X148971000Y-76835000D01*
X148971000Y-76815000D01*
X149225000Y-76815000D01*
X149225000Y-76835000D01*
G36*
X165038466Y-75540913D02*
G01*
X164991401Y-75628966D01*
X164906487Y-75908889D01*
X164877815Y-76200000D01*
X164906487Y-76491111D01*
X164991401Y-76771034D01*
X165129294Y-77029014D01*
X165314866Y-77255134D01*
X165540986Y-77440706D01*
X165605523Y-77475201D01*
X165488645Y-77544822D01*
X165272412Y-77739731D01*
X165098359Y-77973080D01*
X164973175Y-78235901D01*
X164928524Y-78383110D01*
X165049845Y-78613000D01*
X166243000Y-78613000D01*
X166243000Y-78593000D01*
X166497000Y-78593000D01*
X166497000Y-78613000D01*
X166517000Y-78613000D01*
X166517000Y-78867000D01*
X166497000Y-78867000D01*
X166497000Y-78887000D01*
X166243000Y-78887000D01*
X166243000Y-78867000D01*
X165049845Y-78867000D01*
X165021629Y-78920467D01*
X163237843Y-77136682D01*
X163265812Y-77044482D01*
X163278072Y-76920000D01*
X163275000Y-76755750D01*
X163116250Y-76597000D01*
X162367000Y-76597000D01*
X162367000Y-76617000D01*
X162113000Y-76617000D01*
X162113000Y-76597000D01*
X162093000Y-76597000D01*
X162093000Y-76343000D01*
X162113000Y-76343000D01*
X162113000Y-75543750D01*
X162038000Y-75468750D01*
X162038000Y-75057000D01*
X162292000Y-75057000D01*
X162292000Y-75881250D01*
X162367000Y-75956250D01*
X162367000Y-76343000D01*
X163116250Y-76343000D01*
X163275000Y-76184250D01*
X163278072Y-76020000D01*
X163265812Y-75895518D01*
X163229502Y-75775820D01*
X163220656Y-75759271D01*
X163279502Y-75649180D01*
X163315812Y-75529482D01*
X163328072Y-75405000D01*
X163325000Y-75215750D01*
X163166250Y-75057000D01*
X162292000Y-75057000D01*
X162038000Y-75057000D01*
X162018000Y-75057000D01*
X162018000Y-74803000D01*
X162038000Y-74803000D01*
X162038000Y-74783000D01*
X162292000Y-74783000D01*
X162292000Y-74803000D01*
X163166250Y-74803000D01*
X163325000Y-74644250D01*
X163328072Y-74455000D01*
X163315812Y-74330518D01*
X163279502Y-74210820D01*
X163220537Y-74100506D01*
X163141185Y-74003815D01*
X163044494Y-73924463D01*
X162934180Y-73865498D01*
X162814482Y-73829188D01*
X162690000Y-73816928D01*
X162450750Y-73820000D01*
X162292002Y-73978748D01*
X162292002Y-73856096D01*
X162373494Y-73812537D01*
X162470185Y-73733185D01*
X162549537Y-73636494D01*
X162608502Y-73526180D01*
X162644812Y-73406482D01*
X162657072Y-73282000D01*
X162655479Y-73157925D01*
X165038466Y-75540913D01*
X165038466Y-75540913D01*
G37*
X165038466Y-75540913D02*
X164991401Y-75628966D01*
X164906487Y-75908889D01*
X164877815Y-76200000D01*
X164906487Y-76491111D01*
X164991401Y-76771034D01*
X165129294Y-77029014D01*
X165314866Y-77255134D01*
X165540986Y-77440706D01*
X165605523Y-77475201D01*
X165488645Y-77544822D01*
X165272412Y-77739731D01*
X165098359Y-77973080D01*
X164973175Y-78235901D01*
X164928524Y-78383110D01*
X165049845Y-78613000D01*
X166243000Y-78613000D01*
X166243000Y-78593000D01*
X166497000Y-78593000D01*
X166497000Y-78613000D01*
X166517000Y-78613000D01*
X166517000Y-78867000D01*
X166497000Y-78867000D01*
X166497000Y-78887000D01*
X166243000Y-78887000D01*
X166243000Y-78867000D01*
X165049845Y-78867000D01*
X165021629Y-78920467D01*
X163237843Y-77136682D01*
X163265812Y-77044482D01*
X163278072Y-76920000D01*
X163275000Y-76755750D01*
X163116250Y-76597000D01*
X162367000Y-76597000D01*
X162367000Y-76617000D01*
X162113000Y-76617000D01*
X162113000Y-76597000D01*
X162093000Y-76597000D01*
X162093000Y-76343000D01*
X162113000Y-76343000D01*
X162113000Y-75543750D01*
X162038000Y-75468750D01*
X162038000Y-75057000D01*
X162292000Y-75057000D01*
X162292000Y-75881250D01*
X162367000Y-75956250D01*
X162367000Y-76343000D01*
X163116250Y-76343000D01*
X163275000Y-76184250D01*
X163278072Y-76020000D01*
X163265812Y-75895518D01*
X163229502Y-75775820D01*
X163220656Y-75759271D01*
X163279502Y-75649180D01*
X163315812Y-75529482D01*
X163328072Y-75405000D01*
X163325000Y-75215750D01*
X163166250Y-75057000D01*
X162292000Y-75057000D01*
X162038000Y-75057000D01*
X162018000Y-75057000D01*
X162018000Y-74803000D01*
X162038000Y-74803000D01*
X162038000Y-74783000D01*
X162292000Y-74783000D01*
X162292000Y-74803000D01*
X163166250Y-74803000D01*
X163325000Y-74644250D01*
X163328072Y-74455000D01*
X163315812Y-74330518D01*
X163279502Y-74210820D01*
X163220537Y-74100506D01*
X163141185Y-74003815D01*
X163044494Y-73924463D01*
X162934180Y-73865498D01*
X162814482Y-73829188D01*
X162690000Y-73816928D01*
X162450750Y-73820000D01*
X162292002Y-73978748D01*
X162292002Y-73856096D01*
X162373494Y-73812537D01*
X162470185Y-73733185D01*
X162549537Y-73636494D01*
X162608502Y-73526180D01*
X162644812Y-73406482D01*
X162657072Y-73282000D01*
X162655479Y-73157925D01*
X165038466Y-75540913D01*
G36*
X159893000Y-70852000D02*
G01*
X159913000Y-70852000D01*
X159913000Y-71106000D01*
X159893000Y-71106000D01*
X159893000Y-71980250D01*
X160051750Y-72139000D01*
X160241000Y-72142072D01*
X160365482Y-72129812D01*
X160443615Y-72106111D01*
X160443188Y-72107518D01*
X160430928Y-72232000D01*
X160434000Y-72471250D01*
X160592750Y-72630000D01*
X161417000Y-72630000D01*
X161417000Y-72610000D01*
X161671000Y-72610000D01*
X161671000Y-72630000D01*
X161691000Y-72630000D01*
X161691000Y-72884000D01*
X161671000Y-72884000D01*
X161671000Y-72904000D01*
X161417000Y-72904000D01*
X161417000Y-72884000D01*
X160592750Y-72884000D01*
X160434000Y-73042750D01*
X160430928Y-73282000D01*
X160443188Y-73406482D01*
X160479498Y-73526180D01*
X160538463Y-73636494D01*
X160617815Y-73733185D01*
X160714506Y-73812537D01*
X160727288Y-73819369D01*
X160702500Y-73816928D01*
X160127500Y-73816928D01*
X159956684Y-73833752D01*
X159792433Y-73883577D01*
X159641058Y-73964488D01*
X159508377Y-74073377D01*
X159399488Y-74206058D01*
X159318577Y-74357433D01*
X159293441Y-74440296D01*
X159105939Y-74403000D01*
X158990011Y-74403000D01*
X158999072Y-74311000D01*
X158999072Y-73861000D01*
X158988905Y-73757773D01*
X158996000Y-73692750D01*
X158963753Y-73660503D01*
X158950502Y-73616820D01*
X158891537Y-73506506D01*
X158833674Y-73436000D01*
X158891537Y-73365494D01*
X158950502Y-73255180D01*
X158963753Y-73211497D01*
X158996000Y-73179250D01*
X158988905Y-73114227D01*
X158999072Y-73011000D01*
X158999072Y-72561000D01*
X158989223Y-72461000D01*
X158999072Y-72361000D01*
X158999072Y-72067980D01*
X159046820Y-72093502D01*
X159166518Y-72129812D01*
X159291000Y-72142072D01*
X159480250Y-72139000D01*
X159639000Y-71980250D01*
X159639000Y-71106000D01*
X159619000Y-71106000D01*
X159619000Y-70852000D01*
X159639000Y-70852000D01*
X159639000Y-70832000D01*
X159893000Y-70832000D01*
X159893000Y-70852000D01*
X159893000Y-70852000D01*
G37*
X159893000Y-70852000D02*
X159913000Y-70852000D01*
X159913000Y-71106000D01*
X159893000Y-71106000D01*
X159893000Y-71980250D01*
X160051750Y-72139000D01*
X160241000Y-72142072D01*
X160365482Y-72129812D01*
X160443615Y-72106111D01*
X160443188Y-72107518D01*
X160430928Y-72232000D01*
X160434000Y-72471250D01*
X160592750Y-72630000D01*
X161417000Y-72630000D01*
X161417000Y-72610000D01*
X161671000Y-72610000D01*
X161671000Y-72630000D01*
X161691000Y-72630000D01*
X161691000Y-72884000D01*
X161671000Y-72884000D01*
X161671000Y-72904000D01*
X161417000Y-72904000D01*
X161417000Y-72884000D01*
X160592750Y-72884000D01*
X160434000Y-73042750D01*
X160430928Y-73282000D01*
X160443188Y-73406482D01*
X160479498Y-73526180D01*
X160538463Y-73636494D01*
X160617815Y-73733185D01*
X160714506Y-73812537D01*
X160727288Y-73819369D01*
X160702500Y-73816928D01*
X160127500Y-73816928D01*
X159956684Y-73833752D01*
X159792433Y-73883577D01*
X159641058Y-73964488D01*
X159508377Y-74073377D01*
X159399488Y-74206058D01*
X159318577Y-74357433D01*
X159293441Y-74440296D01*
X159105939Y-74403000D01*
X158990011Y-74403000D01*
X158999072Y-74311000D01*
X158999072Y-73861000D01*
X158988905Y-73757773D01*
X158996000Y-73692750D01*
X158963753Y-73660503D01*
X158950502Y-73616820D01*
X158891537Y-73506506D01*
X158833674Y-73436000D01*
X158891537Y-73365494D01*
X158950502Y-73255180D01*
X158963753Y-73211497D01*
X158996000Y-73179250D01*
X158988905Y-73114227D01*
X158999072Y-73011000D01*
X158999072Y-72561000D01*
X158989223Y-72461000D01*
X158999072Y-72361000D01*
X158999072Y-72067980D01*
X159046820Y-72093502D01*
X159166518Y-72129812D01*
X159291000Y-72142072D01*
X159480250Y-72139000D01*
X159639000Y-71980250D01*
X159639000Y-71106000D01*
X159619000Y-71106000D01*
X159619000Y-70852000D01*
X159639000Y-70852000D01*
X159639000Y-70832000D01*
X159893000Y-70832000D01*
X159893000Y-70852000D01*
G36*
X149645000Y-62198250D02*
G01*
X149803750Y-62357000D01*
X151003000Y-62357000D01*
X151003000Y-62337000D01*
X151257000Y-62337000D01*
X151257000Y-62357000D01*
X151277000Y-62357000D01*
X151277000Y-62611000D01*
X151257000Y-62611000D01*
X151257000Y-63810250D01*
X151415750Y-63969000D01*
X151980000Y-63972072D01*
X152104482Y-63959812D01*
X152224180Y-63923502D01*
X152334494Y-63864537D01*
X152431185Y-63785185D01*
X152510537Y-63688494D01*
X152569502Y-63578180D01*
X152590393Y-63509313D01*
X152614866Y-63539134D01*
X152840986Y-63724706D01*
X153098966Y-63862599D01*
X153378889Y-63947513D01*
X153597050Y-63969000D01*
X153742950Y-63969000D01*
X153961111Y-63947513D01*
X154241034Y-63862599D01*
X154499014Y-63724706D01*
X154725134Y-63539134D01*
X154910706Y-63313014D01*
X154940000Y-63258209D01*
X154969294Y-63313014D01*
X155154866Y-63539134D01*
X155380986Y-63724706D01*
X155638966Y-63862599D01*
X155918889Y-63947513D01*
X156137050Y-63969000D01*
X156228623Y-63969000D01*
X156270412Y-64069889D01*
X156372736Y-64223028D01*
X156502970Y-64353262D01*
X156656109Y-64455586D01*
X156826269Y-64526068D01*
X157006909Y-64562000D01*
X157191087Y-64562000D01*
X157371727Y-64526068D01*
X157509502Y-64469000D01*
X160104839Y-64469000D01*
X160147288Y-64511449D01*
X160051750Y-64513000D01*
X159893000Y-64671750D01*
X159893000Y-65546000D01*
X159913000Y-65546000D01*
X159913000Y-65800000D01*
X159893000Y-65800000D01*
X159893000Y-65820000D01*
X159639000Y-65820000D01*
X159639000Y-65800000D01*
X159619000Y-65800000D01*
X159619000Y-65546000D01*
X159639000Y-65546000D01*
X159639000Y-64671750D01*
X159480250Y-64513000D01*
X159291000Y-64509928D01*
X159166518Y-64522188D01*
X159046820Y-64558498D01*
X158936506Y-64617463D01*
X158839815Y-64696815D01*
X158760463Y-64793506D01*
X158703912Y-64899304D01*
X158525624Y-64780176D01*
X158319067Y-64694617D01*
X158099788Y-64651000D01*
X157876212Y-64651000D01*
X157656933Y-64694617D01*
X157450376Y-64780176D01*
X157264480Y-64904388D01*
X157106388Y-65062480D01*
X156982176Y-65248376D01*
X156896617Y-65454933D01*
X156853000Y-65674212D01*
X156853000Y-65897788D01*
X156854999Y-65907838D01*
X153048940Y-69713898D01*
X152991537Y-69606506D01*
X152912185Y-69509815D01*
X152815494Y-69430463D01*
X152705180Y-69371498D01*
X152585482Y-69335188D01*
X152461000Y-69322928D01*
X151011000Y-69322928D01*
X150894034Y-69334448D01*
X150840262Y-69253972D01*
X150710028Y-69123738D01*
X150556889Y-69021414D01*
X150386729Y-68950932D01*
X150206089Y-68915000D01*
X150021911Y-68915000D01*
X149841271Y-68950932D01*
X149671111Y-69021414D01*
X149517972Y-69123738D01*
X149506710Y-69135000D01*
X148124163Y-69135000D01*
X144998072Y-66008911D01*
X144998072Y-65190000D01*
X144985812Y-65065518D01*
X144949502Y-64945820D01*
X144890537Y-64835506D01*
X144811185Y-64738815D01*
X144714494Y-64659463D01*
X144604180Y-64600498D01*
X144484482Y-64564188D01*
X144360000Y-64551928D01*
X142900000Y-64551928D01*
X142900000Y-63334000D01*
X149641928Y-63334000D01*
X149654188Y-63458482D01*
X149690498Y-63578180D01*
X149749463Y-63688494D01*
X149828815Y-63785185D01*
X149925506Y-63864537D01*
X150035820Y-63923502D01*
X150155518Y-63959812D01*
X150280000Y-63972072D01*
X150844250Y-63969000D01*
X151003000Y-63810250D01*
X151003000Y-62611000D01*
X149803750Y-62611000D01*
X149645000Y-62769750D01*
X149641928Y-63334000D01*
X142900000Y-63334000D01*
X142900000Y-62001000D01*
X149643926Y-62001000D01*
X149645000Y-62198250D01*
X149645000Y-62198250D01*
G37*
X149645000Y-62198250D02*
X149803750Y-62357000D01*
X151003000Y-62357000D01*
X151003000Y-62337000D01*
X151257000Y-62337000D01*
X151257000Y-62357000D01*
X151277000Y-62357000D01*
X151277000Y-62611000D01*
X151257000Y-62611000D01*
X151257000Y-63810250D01*
X151415750Y-63969000D01*
X151980000Y-63972072D01*
X152104482Y-63959812D01*
X152224180Y-63923502D01*
X152334494Y-63864537D01*
X152431185Y-63785185D01*
X152510537Y-63688494D01*
X152569502Y-63578180D01*
X152590393Y-63509313D01*
X152614866Y-63539134D01*
X152840986Y-63724706D01*
X153098966Y-63862599D01*
X153378889Y-63947513D01*
X153597050Y-63969000D01*
X153742950Y-63969000D01*
X153961111Y-63947513D01*
X154241034Y-63862599D01*
X154499014Y-63724706D01*
X154725134Y-63539134D01*
X154910706Y-63313014D01*
X154940000Y-63258209D01*
X154969294Y-63313014D01*
X155154866Y-63539134D01*
X155380986Y-63724706D01*
X155638966Y-63862599D01*
X155918889Y-63947513D01*
X156137050Y-63969000D01*
X156228623Y-63969000D01*
X156270412Y-64069889D01*
X156372736Y-64223028D01*
X156502970Y-64353262D01*
X156656109Y-64455586D01*
X156826269Y-64526068D01*
X157006909Y-64562000D01*
X157191087Y-64562000D01*
X157371727Y-64526068D01*
X157509502Y-64469000D01*
X160104839Y-64469000D01*
X160147288Y-64511449D01*
X160051750Y-64513000D01*
X159893000Y-64671750D01*
X159893000Y-65546000D01*
X159913000Y-65546000D01*
X159913000Y-65800000D01*
X159893000Y-65800000D01*
X159893000Y-65820000D01*
X159639000Y-65820000D01*
X159639000Y-65800000D01*
X159619000Y-65800000D01*
X159619000Y-65546000D01*
X159639000Y-65546000D01*
X159639000Y-64671750D01*
X159480250Y-64513000D01*
X159291000Y-64509928D01*
X159166518Y-64522188D01*
X159046820Y-64558498D01*
X158936506Y-64617463D01*
X158839815Y-64696815D01*
X158760463Y-64793506D01*
X158703912Y-64899304D01*
X158525624Y-64780176D01*
X158319067Y-64694617D01*
X158099788Y-64651000D01*
X157876212Y-64651000D01*
X157656933Y-64694617D01*
X157450376Y-64780176D01*
X157264480Y-64904388D01*
X157106388Y-65062480D01*
X156982176Y-65248376D01*
X156896617Y-65454933D01*
X156853000Y-65674212D01*
X156853000Y-65897788D01*
X156854999Y-65907838D01*
X153048940Y-69713898D01*
X152991537Y-69606506D01*
X152912185Y-69509815D01*
X152815494Y-69430463D01*
X152705180Y-69371498D01*
X152585482Y-69335188D01*
X152461000Y-69322928D01*
X151011000Y-69322928D01*
X150894034Y-69334448D01*
X150840262Y-69253972D01*
X150710028Y-69123738D01*
X150556889Y-69021414D01*
X150386729Y-68950932D01*
X150206089Y-68915000D01*
X150021911Y-68915000D01*
X149841271Y-68950932D01*
X149671111Y-69021414D01*
X149517972Y-69123738D01*
X149506710Y-69135000D01*
X148124163Y-69135000D01*
X144998072Y-66008911D01*
X144998072Y-65190000D01*
X144985812Y-65065518D01*
X144949502Y-64945820D01*
X144890537Y-64835506D01*
X144811185Y-64738815D01*
X144714494Y-64659463D01*
X144604180Y-64600498D01*
X144484482Y-64564188D01*
X144360000Y-64551928D01*
X142900000Y-64551928D01*
X142900000Y-63334000D01*
X149641928Y-63334000D01*
X149654188Y-63458482D01*
X149690498Y-63578180D01*
X149749463Y-63688494D01*
X149828815Y-63785185D01*
X149925506Y-63864537D01*
X150035820Y-63923502D01*
X150155518Y-63959812D01*
X150280000Y-63972072D01*
X150844250Y-63969000D01*
X151003000Y-63810250D01*
X151003000Y-62611000D01*
X149803750Y-62611000D01*
X149645000Y-62769750D01*
X149641928Y-63334000D01*
X142900000Y-63334000D01*
X142900000Y-62001000D01*
X149643926Y-62001000D01*
X149645000Y-62198250D01*
D26*
X151637998Y-81534000D03*
X159004000Y-75438000D03*
X159004000Y-77978000D03*
X154432000Y-73279000D03*
X147066000Y-85344000D03*
X162814000Y-84836000D03*
D27*
X146304000Y-80540000D03*
X149733000Y-75057000D03*
X150114000Y-69850000D03*
X160964000Y-65300000D03*
X156441669Y-69364331D03*
X157098998Y-63627000D03*
X156972000Y-68834000D03*
X155381800Y-70658492D03*
X155911669Y-70104000D03*
D26*
X157988000Y-67686000D03*
X157988000Y-65786000D03*
X166370000Y-83820000D03*
X166370000Y-81280000D03*
X166370000Y-78740000D03*
X166370000Y-76200000D03*
X166370000Y-73660000D03*
X166370000Y-71120000D03*
X166370000Y-68580000D03*
X166370000Y-66040000D03*
X158750000Y-62484000D03*
X156210000Y-62484000D03*
X153670000Y-62484000D03*
X151130000Y-62484000D03*
X143510000Y-83820000D03*
X143510000Y-81280000D03*
X143510000Y-78740000D03*
X143510000Y-76200000D03*
X143510000Y-73660000D03*
X143510000Y-71120000D03*
X143510000Y-68580000D03*
X143510000Y-66040000D03*
X154178000Y-76962000D03*
X151638000Y-76962000D03*
X149098000Y-76962000D03*
D28*
X158694000Y-89234000D03*
X151694000Y-89234000D03*
D29*
X157694000Y-86534000D03*
X152694000Y-86534000D03*
M02*
