M48
;DRILL file {KiCad 5.0.2} date 2019年04月27日 星期六 21时36分03秒
;FORMAT={-:-/ absolute / metric / decimal}
FMAT,2
METRIC,TZ
T1C0.300
T2C1.000
T3C1.016
%
G90
G05
T1
X107.315Y-38.862
X107.315Y-59.309
X110.236Y-47.117
X112.424Y-50.448
X113.266Y-36.83
X114.046Y-36.83
X114.173Y-50.038
X117.729Y-41.656
X117.983Y-42.418
X118.237Y-38.227
X118.342Y-40.872
X121.158Y-48.895
X121.158Y-38.227
X123.19Y-49.657
X124.841Y-51.689
X127.889Y-38.862
X127.889Y-59.309
T2
X118.745Y-55.372
X121.285Y-55.372
X123.825Y-55.372
X126.365Y-55.372
T3
X112.522Y-44.577
X112.522Y-47.117
X115.062Y-44.577
X115.062Y-47.117
X117.602Y-44.577
X117.602Y-47.117
X120.142Y-44.577
X120.142Y-47.117
X122.682Y-44.577
X122.682Y-47.117
T0
M30
