%TF.GenerationSoftware,KiCad,Pcbnew,5.0.2*%
%TF.CreationDate,2019-04-27T21:36:03+08:00*%
%TF.ProjectId,aw-sd-dbg,61772d73-642d-4646-9267-2e6b69636164,rev?*%
%TF.SameCoordinates,Original*%
%TF.FileFunction,Profile,NP*%
%FSLAX46Y46*%
G04 Gerber Fmt 4.6, Leading zero omitted, Abs format (unit mm)*
G04 Created by KiCad (PCBNEW 5.0.2) date 2019年04月27日 星期六 21时36分03秒*
%MOMM*%
%LPD*%
G01*
G04 APERTURE LIST*
%ADD10C,0.150000*%
%ADD11C,0.200000*%
G04 APERTURE END LIST*
D10*
X107200000Y-60200000D02*
G75*
G02X106400000Y-59400000I0J800000D01*
G01*
X128800000Y-59400000D02*
G75*
G02X128000000Y-60200000I-800000J0D01*
G01*
X106400000Y-38800000D02*
G75*
G02X107200000Y-38000000I800000J0D01*
G01*
X128000000Y-38000000D02*
G75*
G02X128800000Y-38800000I0J-800000D01*
G01*
D11*
X107200000Y-38000000D02*
X111200000Y-38000000D01*
X106400000Y-59400000D02*
X106400000Y-38800000D01*
X128000000Y-60200000D02*
X107200000Y-60200000D01*
X128800000Y-38800000D02*
X128800000Y-59400000D01*
X123800000Y-38000000D02*
X128000000Y-38000000D01*
X112000000Y-37200000D02*
G75*
G02X111200000Y-38000000I-800000J0D01*
G01*
X123800000Y-38000000D02*
G75*
G02X123000000Y-37200000I0J800000D01*
G01*
D10*
X123000000Y-32800000D02*
X123000000Y-37200000D01*
X122300000Y-32100000D02*
X123000000Y-32800000D01*
X122300000Y-30900000D02*
X122300000Y-32100000D01*
X123000000Y-30900000D02*
X122300000Y-30900000D01*
X123000000Y-29400000D02*
X123000000Y-30900000D01*
X121700000Y-28100000D02*
X123000000Y-29400000D01*
X121700000Y-23800000D02*
X121700000Y-28100000D01*
X112000000Y-23800000D02*
X112000000Y-37200000D01*
X112800000Y-23000000D02*
X120900000Y-23000000D01*
X112000000Y-23800000D02*
G75*
G02X112800000Y-23000000I800000J0D01*
G01*
X120900000Y-23000000D02*
G75*
G02X121700000Y-23800000I0J-800000D01*
G01*
M02*
