M48
; DRILL file {KiCad 5.1.0} date 2019年06月23日 星期日 04时01分33秒
; FORMAT={-:-/ absolute / metric / decimal}
; #@! TF.CreationDate,2019-06-23T04:01:33+08:00
; #@! TF.GenerationSoftware,Kicad,Pcbnew,5.1.0
; #@! TF.FileFunction,Plated,1,2,PTH
FMAT,2
METRIC
T1C0.300
T2C0.400
T3C0.500
T4C0.550
T5C0.800
T6C1.000
%
G90
G05
T1
X72.263Y-63.627
X73.152Y-46.101
X76.529Y-44.282
X77.724Y-48.133
T2
X69.342Y-73.533
X70.099Y-38.989
X70.739Y-47.244
X73.533Y-69.215
X77.597Y-33.782
X77.851Y-63.881
X77.978Y-60.833
X78.105Y-35.56
X79.503Y-33.781
X80.01Y-58.801
X82.804Y-48.133
X83.185Y-36.322
T5
X75.565Y-40.64
X80.445Y-40.64
T6
X73.914Y-31.623
X76.454Y-31.623
X78.994Y-31.623
X81.534Y-31.623
X66.802Y-32.004
X66.802Y-34.544
X66.802Y-37.084
X66.802Y-39.624
X66.802Y-42.164
X66.802Y-44.704
X66.802Y-47.244
X66.802Y-49.784
X66.802Y-52.324
X66.802Y-54.864
X66.802Y-57.404
X66.802Y-59.944
X75.438Y-52.642
X77.978Y-52.642
X80.518Y-52.642
X89.662Y-32.004
X89.662Y-34.544
X89.662Y-37.084
X89.662Y-39.624
X89.662Y-42.164
X89.662Y-44.704
X89.662Y-47.244
X89.662Y-49.784
X89.662Y-52.324
X89.662Y-54.864
X89.662Y-57.404
X89.662Y-59.944
T3
G00X78.542Y-74.192
M15
G01X78.542Y-73.542
M16
G05
G00X85.542Y-74.192
M15
G01X85.542Y-73.542
M16
G05
T4
G00X79.392Y-71.167
M15
G01X79.692Y-71.167
M16
G05
G00X84.392Y-71.167
M15
G01X84.692Y-71.167
M16
G05
T0
M30
