%TF.GenerationSoftware,KiCad,Pcbnew,5.1.0*%
%TF.CreationDate,2019-06-23T04:01:33+08:00*%
%TF.ProjectId,stm32_fxp6,73746d33-325f-4667-9870-362e6b696361,rev?*%
%TF.SameCoordinates,Original*%
%TF.FileFunction,Soldermask,Top*%
%TF.FilePolarity,Negative*%
%FSLAX46Y46*%
G04 Gerber Fmt 4.6, Leading zero omitted, Abs format (unit mm)*
G04 Created by KiCad (PCBNEW 5.1.0) date 2019-06-23 04:01:33*
%MOMM*%
%LPD*%
G04 APERTURE LIST*
%ADD10C,0.350000*%
G04 APERTURE END LIST*
D10*
G36*
X78650014Y-73048973D02*
G01*
X78753878Y-73080479D01*
X78797907Y-73104013D01*
X78849599Y-73131643D01*
X78849601Y-73131644D01*
X78849600Y-73131644D01*
X78933501Y-73200499D01*
X79002356Y-73284400D01*
X79053521Y-73380121D01*
X79085027Y-73483985D01*
X79093000Y-73564933D01*
X79093000Y-74169067D01*
X79085027Y-74250015D01*
X79053521Y-74353879D01*
X79053519Y-74353882D01*
X79002357Y-74449600D01*
X78933501Y-74533501D01*
X78849600Y-74602357D01*
X78781055Y-74638995D01*
X78753879Y-74653521D01*
X78650015Y-74685027D01*
X78542000Y-74695666D01*
X78433986Y-74685027D01*
X78330122Y-74653521D01*
X78302946Y-74638995D01*
X78234401Y-74602357D01*
X78150500Y-74533501D01*
X78081643Y-74449599D01*
X78030481Y-74353882D01*
X78030480Y-74353879D01*
X77998973Y-74250015D01*
X77991000Y-74169067D01*
X77991000Y-73564934D01*
X77998973Y-73483986D01*
X78030479Y-73380122D01*
X78081644Y-73284400D01*
X78150499Y-73200499D01*
X78234400Y-73131644D01*
X78234399Y-73131644D01*
X78234401Y-73131643D01*
X78286093Y-73104013D01*
X78330121Y-73080479D01*
X78433985Y-73048973D01*
X78542000Y-73038334D01*
X78650014Y-73048973D01*
X78650014Y-73048973D01*
G37*
G36*
X85650014Y-73048973D02*
G01*
X85753878Y-73080479D01*
X85797907Y-73104013D01*
X85849599Y-73131643D01*
X85849601Y-73131644D01*
X85849600Y-73131644D01*
X85933501Y-73200499D01*
X86002356Y-73284400D01*
X86053521Y-73380121D01*
X86085027Y-73483985D01*
X86093000Y-73564933D01*
X86093000Y-74169067D01*
X86085027Y-74250015D01*
X86053521Y-74353879D01*
X86053519Y-74353882D01*
X86002357Y-74449600D01*
X85933501Y-74533501D01*
X85849600Y-74602357D01*
X85781055Y-74638995D01*
X85753879Y-74653521D01*
X85650015Y-74685027D01*
X85542000Y-74695666D01*
X85433986Y-74685027D01*
X85330122Y-74653521D01*
X85302946Y-74638995D01*
X85234401Y-74602357D01*
X85150500Y-74533501D01*
X85081643Y-74449599D01*
X85030481Y-74353882D01*
X85030480Y-74353879D01*
X84998973Y-74250015D01*
X84991000Y-74169067D01*
X84991000Y-73564934D01*
X84998973Y-73483986D01*
X85030479Y-73380122D01*
X85081644Y-73284400D01*
X85150499Y-73200499D01*
X85234400Y-73131644D01*
X85234399Y-73131644D01*
X85234401Y-73131643D01*
X85286093Y-73104013D01*
X85330121Y-73080479D01*
X85433985Y-73048973D01*
X85542000Y-73038334D01*
X85650014Y-73048973D01*
X85650014Y-73048973D01*
G37*
G36*
X70270000Y-72519000D02*
G01*
X68668000Y-72519000D01*
X68668000Y-70917000D01*
X70270000Y-70917000D01*
X70270000Y-72519000D01*
X70270000Y-72519000D01*
G37*
G36*
X83593000Y-71893000D02*
G01*
X80491000Y-71893000D01*
X80491000Y-70441000D01*
X83593000Y-70441000D01*
X83593000Y-71893000D01*
X83593000Y-71893000D01*
G37*
G36*
X79795114Y-70648611D02*
G01*
X79894265Y-70678688D01*
X79985644Y-70727531D01*
X80065738Y-70793262D01*
X80131469Y-70873356D01*
X80180312Y-70964735D01*
X80210389Y-71063886D01*
X80220545Y-71167000D01*
X80210389Y-71270114D01*
X80180312Y-71369265D01*
X80131469Y-71460644D01*
X80065738Y-71540738D01*
X79985644Y-71606469D01*
X79894265Y-71655312D01*
X79795114Y-71685389D01*
X79717839Y-71693000D01*
X79366161Y-71693000D01*
X79288886Y-71685389D01*
X79189735Y-71655312D01*
X79098356Y-71606469D01*
X79018262Y-71540738D01*
X78952531Y-71460644D01*
X78903688Y-71369265D01*
X78873611Y-71270114D01*
X78863455Y-71167000D01*
X78873611Y-71063886D01*
X78903688Y-70964735D01*
X78952531Y-70873356D01*
X79018262Y-70793262D01*
X79098356Y-70727531D01*
X79189735Y-70678688D01*
X79288886Y-70648611D01*
X79366161Y-70641000D01*
X79717839Y-70641000D01*
X79795114Y-70648611D01*
X79795114Y-70648611D01*
G37*
G36*
X84795114Y-70648611D02*
G01*
X84894265Y-70678688D01*
X84985644Y-70727531D01*
X85065738Y-70793262D01*
X85131469Y-70873356D01*
X85180312Y-70964735D01*
X85210389Y-71063886D01*
X85220545Y-71167000D01*
X85210389Y-71270114D01*
X85180312Y-71369265D01*
X85131469Y-71460644D01*
X85065738Y-71540738D01*
X84985644Y-71606469D01*
X84894265Y-71655312D01*
X84795114Y-71685389D01*
X84717839Y-71693000D01*
X84366161Y-71693000D01*
X84288886Y-71685389D01*
X84189735Y-71655312D01*
X84098356Y-71606469D01*
X84018262Y-71540738D01*
X83952531Y-71460644D01*
X83903688Y-71369265D01*
X83873611Y-71270114D01*
X83863455Y-71167000D01*
X83873611Y-71063886D01*
X83903688Y-70964735D01*
X83952531Y-70873356D01*
X84018262Y-70793262D01*
X84098356Y-70727531D01*
X84189735Y-70678688D01*
X84288886Y-70648611D01*
X84366161Y-70641000D01*
X84717839Y-70641000D01*
X84795114Y-70648611D01*
X84795114Y-70648611D01*
G37*
G36*
X73961499Y-66661445D02*
G01*
X73998995Y-66672820D01*
X74033554Y-66691292D01*
X74063847Y-66716153D01*
X74088708Y-66746446D01*
X74107180Y-66781005D01*
X74118555Y-66818501D01*
X74123000Y-66863638D01*
X74123000Y-67502362D01*
X74118555Y-67547499D01*
X74107180Y-67584995D01*
X74088708Y-67619554D01*
X74063847Y-67649847D01*
X74033554Y-67674708D01*
X73998995Y-67693180D01*
X73961499Y-67704555D01*
X73916362Y-67709000D01*
X73177638Y-67709000D01*
X73132501Y-67704555D01*
X73095005Y-67693180D01*
X73060446Y-67674708D01*
X73030153Y-67649847D01*
X73005292Y-67619554D01*
X72986820Y-67584995D01*
X72975445Y-67547499D01*
X72971000Y-67502362D01*
X72971000Y-66863638D01*
X72975445Y-66818501D01*
X72986820Y-66781005D01*
X73005292Y-66746446D01*
X73030153Y-66716153D01*
X73060446Y-66691292D01*
X73095005Y-66672820D01*
X73132501Y-66661445D01*
X73177638Y-66657000D01*
X73916362Y-66657000D01*
X73961499Y-66661445D01*
X73961499Y-66661445D01*
G37*
G36*
X75711499Y-66661445D02*
G01*
X75748995Y-66672820D01*
X75783554Y-66691292D01*
X75813847Y-66716153D01*
X75838708Y-66746446D01*
X75857180Y-66781005D01*
X75868555Y-66818501D01*
X75873000Y-66863638D01*
X75873000Y-67502362D01*
X75868555Y-67547499D01*
X75857180Y-67584995D01*
X75838708Y-67619554D01*
X75813847Y-67649847D01*
X75783554Y-67674708D01*
X75748995Y-67693180D01*
X75711499Y-67704555D01*
X75666362Y-67709000D01*
X74927638Y-67709000D01*
X74882501Y-67704555D01*
X74845005Y-67693180D01*
X74810446Y-67674708D01*
X74780153Y-67649847D01*
X74755292Y-67619554D01*
X74736820Y-67584995D01*
X74725445Y-67547499D01*
X74721000Y-67502362D01*
X74721000Y-66863638D01*
X74725445Y-66818501D01*
X74736820Y-66781005D01*
X74755292Y-66746446D01*
X74780153Y-66716153D01*
X74810446Y-66691292D01*
X74845005Y-66672820D01*
X74882501Y-66661445D01*
X74927638Y-66657000D01*
X75666362Y-66657000D01*
X75711499Y-66661445D01*
X75711499Y-66661445D01*
G37*
G36*
X76387000Y-65331000D02*
G01*
X74285000Y-65331000D01*
X74285000Y-63729000D01*
X76387000Y-63729000D01*
X76387000Y-65331000D01*
X76387000Y-65331000D01*
G37*
G36*
X70270000Y-64719000D02*
G01*
X68668000Y-64719000D01*
X68668000Y-63117000D01*
X70270000Y-63117000D01*
X70270000Y-64719000D01*
X70270000Y-64719000D01*
G37*
G36*
X82687000Y-64181000D02*
G01*
X80585000Y-64181000D01*
X80585000Y-60279000D01*
X82687000Y-60279000D01*
X82687000Y-64181000D01*
X82687000Y-64181000D01*
G37*
G36*
X76387000Y-63031000D02*
G01*
X74285000Y-63031000D01*
X74285000Y-61429000D01*
X76387000Y-61429000D01*
X76387000Y-63031000D01*
X76387000Y-63031000D01*
G37*
G36*
X73008499Y-60628445D02*
G01*
X73045995Y-60639820D01*
X73080554Y-60658292D01*
X73110847Y-60683153D01*
X73135708Y-60713446D01*
X73154180Y-60748005D01*
X73165555Y-60785501D01*
X73170000Y-60830638D01*
X73170000Y-61569362D01*
X73165555Y-61614499D01*
X73154180Y-61651995D01*
X73135708Y-61686554D01*
X73110847Y-61716847D01*
X73080554Y-61741708D01*
X73045995Y-61760180D01*
X73008499Y-61771555D01*
X72963362Y-61776000D01*
X72324638Y-61776000D01*
X72279501Y-61771555D01*
X72242005Y-61760180D01*
X72207446Y-61741708D01*
X72177153Y-61716847D01*
X72152292Y-61686554D01*
X72133820Y-61651995D01*
X72122445Y-61614499D01*
X72118000Y-61569362D01*
X72118000Y-60830638D01*
X72122445Y-60785501D01*
X72133820Y-60748005D01*
X72152292Y-60713446D01*
X72177153Y-60683153D01*
X72207446Y-60658292D01*
X72242005Y-60639820D01*
X72279501Y-60628445D01*
X72324638Y-60624000D01*
X72963362Y-60624000D01*
X73008499Y-60628445D01*
X73008499Y-60628445D01*
G37*
G36*
X71484499Y-60628445D02*
G01*
X71521995Y-60639820D01*
X71556554Y-60658292D01*
X71586847Y-60683153D01*
X71611708Y-60713446D01*
X71630180Y-60748005D01*
X71641555Y-60785501D01*
X71646000Y-60830638D01*
X71646000Y-61569362D01*
X71641555Y-61614499D01*
X71630180Y-61651995D01*
X71611708Y-61686554D01*
X71586847Y-61716847D01*
X71556554Y-61741708D01*
X71521995Y-61760180D01*
X71484499Y-61771555D01*
X71439362Y-61776000D01*
X70800638Y-61776000D01*
X70755501Y-61771555D01*
X70718005Y-61760180D01*
X70683446Y-61741708D01*
X70653153Y-61716847D01*
X70628292Y-61686554D01*
X70609820Y-61651995D01*
X70598445Y-61614499D01*
X70594000Y-61569362D01*
X70594000Y-60830638D01*
X70598445Y-60785501D01*
X70609820Y-60748005D01*
X70628292Y-60713446D01*
X70653153Y-60683153D01*
X70683446Y-60658292D01*
X70718005Y-60639820D01*
X70755501Y-60628445D01*
X70800638Y-60624000D01*
X71439362Y-60624000D01*
X71484499Y-60628445D01*
X71484499Y-60628445D01*
G37*
G36*
X89772443Y-59049519D02*
G01*
X89838627Y-59056037D01*
X90008466Y-59107557D01*
X90164991Y-59191222D01*
X90200729Y-59220552D01*
X90302186Y-59303814D01*
X90385448Y-59405271D01*
X90414778Y-59441009D01*
X90498443Y-59597534D01*
X90549963Y-59767373D01*
X90567359Y-59944000D01*
X90549963Y-60120627D01*
X90498443Y-60290466D01*
X90414778Y-60446991D01*
X90385448Y-60482729D01*
X90302186Y-60584186D01*
X90211886Y-60658292D01*
X90164991Y-60696778D01*
X90008466Y-60780443D01*
X89838627Y-60831963D01*
X89800775Y-60835691D01*
X89706260Y-60845000D01*
X89617740Y-60845000D01*
X89523225Y-60835691D01*
X89485373Y-60831963D01*
X89315534Y-60780443D01*
X89159009Y-60696778D01*
X89112114Y-60658292D01*
X89021814Y-60584186D01*
X88938552Y-60482729D01*
X88909222Y-60446991D01*
X88825557Y-60290466D01*
X88774037Y-60120627D01*
X88756641Y-59944000D01*
X88774037Y-59767373D01*
X88825557Y-59597534D01*
X88909222Y-59441009D01*
X88938552Y-59405271D01*
X89021814Y-59303814D01*
X89123271Y-59220552D01*
X89159009Y-59191222D01*
X89315534Y-59107557D01*
X89485373Y-59056037D01*
X89551557Y-59049519D01*
X89617740Y-59043000D01*
X89706260Y-59043000D01*
X89772443Y-59049519D01*
X89772443Y-59049519D01*
G37*
G36*
X66912443Y-59049519D02*
G01*
X66978627Y-59056037D01*
X67148466Y-59107557D01*
X67304991Y-59191222D01*
X67340729Y-59220552D01*
X67442186Y-59303814D01*
X67525448Y-59405271D01*
X67554778Y-59441009D01*
X67638443Y-59597534D01*
X67689963Y-59767373D01*
X67707359Y-59944000D01*
X67689963Y-60120627D01*
X67638443Y-60290466D01*
X67554778Y-60446991D01*
X67525448Y-60482729D01*
X67442186Y-60584186D01*
X67351886Y-60658292D01*
X67304991Y-60696778D01*
X67148466Y-60780443D01*
X66978627Y-60831963D01*
X66940775Y-60835691D01*
X66846260Y-60845000D01*
X66757740Y-60845000D01*
X66663225Y-60835691D01*
X66625373Y-60831963D01*
X66455534Y-60780443D01*
X66299009Y-60696778D01*
X66252114Y-60658292D01*
X66161814Y-60584186D01*
X66078552Y-60482729D01*
X66049222Y-60446991D01*
X65965557Y-60290466D01*
X65914037Y-60120627D01*
X65896641Y-59944000D01*
X65914037Y-59767373D01*
X65965557Y-59597534D01*
X66049222Y-59441009D01*
X66078552Y-59405271D01*
X66161814Y-59303814D01*
X66263271Y-59220552D01*
X66299009Y-59191222D01*
X66455534Y-59107557D01*
X66625373Y-59056037D01*
X66691557Y-59049519D01*
X66757740Y-59043000D01*
X66846260Y-59043000D01*
X66912443Y-59049519D01*
X66912443Y-59049519D01*
G37*
G36*
X76387000Y-60731000D02*
G01*
X74285000Y-60731000D01*
X74285000Y-59129000D01*
X76387000Y-59129000D01*
X76387000Y-60731000D01*
X76387000Y-60731000D01*
G37*
G36*
X73008499Y-58878445D02*
G01*
X73045995Y-58889820D01*
X73080554Y-58908292D01*
X73110847Y-58933153D01*
X73135708Y-58963446D01*
X73154180Y-58998005D01*
X73165555Y-59035501D01*
X73170000Y-59080638D01*
X73170000Y-59819362D01*
X73165555Y-59864499D01*
X73154180Y-59901995D01*
X73135708Y-59936554D01*
X73110847Y-59966847D01*
X73080554Y-59991708D01*
X73045995Y-60010180D01*
X73008499Y-60021555D01*
X72963362Y-60026000D01*
X72324638Y-60026000D01*
X72279501Y-60021555D01*
X72242005Y-60010180D01*
X72207446Y-59991708D01*
X72177153Y-59966847D01*
X72152292Y-59936554D01*
X72133820Y-59901995D01*
X72122445Y-59864499D01*
X72118000Y-59819362D01*
X72118000Y-59080638D01*
X72122445Y-59035501D01*
X72133820Y-58998005D01*
X72152292Y-58963446D01*
X72177153Y-58933153D01*
X72207446Y-58908292D01*
X72242005Y-58889820D01*
X72279501Y-58878445D01*
X72324638Y-58874000D01*
X72963362Y-58874000D01*
X73008499Y-58878445D01*
X73008499Y-58878445D01*
G37*
G36*
X71484499Y-58878445D02*
G01*
X71521995Y-58889820D01*
X71556554Y-58908292D01*
X71586847Y-58933153D01*
X71611708Y-58963446D01*
X71630180Y-58998005D01*
X71641555Y-59035501D01*
X71646000Y-59080638D01*
X71646000Y-59819362D01*
X71641555Y-59864499D01*
X71630180Y-59901995D01*
X71611708Y-59936554D01*
X71586847Y-59966847D01*
X71556554Y-59991708D01*
X71521995Y-60010180D01*
X71484499Y-60021555D01*
X71439362Y-60026000D01*
X70800638Y-60026000D01*
X70755501Y-60021555D01*
X70718005Y-60010180D01*
X70683446Y-59991708D01*
X70653153Y-59966847D01*
X70628292Y-59936554D01*
X70609820Y-59901995D01*
X70598445Y-59864499D01*
X70594000Y-59819362D01*
X70594000Y-59080638D01*
X70598445Y-59035501D01*
X70609820Y-58998005D01*
X70628292Y-58963446D01*
X70653153Y-58933153D01*
X70683446Y-58908292D01*
X70718005Y-58889820D01*
X70755501Y-58878445D01*
X70800638Y-58874000D01*
X71439362Y-58874000D01*
X71484499Y-58878445D01*
X71484499Y-58878445D01*
G37*
G36*
X89772442Y-56509518D02*
G01*
X89838627Y-56516037D01*
X90008466Y-56567557D01*
X90164991Y-56651222D01*
X90200729Y-56680552D01*
X90302186Y-56763814D01*
X90385448Y-56865271D01*
X90414778Y-56901009D01*
X90498443Y-57057534D01*
X90549963Y-57227373D01*
X90567359Y-57404000D01*
X90549963Y-57580627D01*
X90498443Y-57750466D01*
X90414778Y-57906991D01*
X90385448Y-57942729D01*
X90302186Y-58044186D01*
X90200729Y-58127448D01*
X90164991Y-58156778D01*
X90008466Y-58240443D01*
X89838627Y-58291963D01*
X89772443Y-58298481D01*
X89706260Y-58305000D01*
X89617740Y-58305000D01*
X89551557Y-58298481D01*
X89485373Y-58291963D01*
X89315534Y-58240443D01*
X89159009Y-58156778D01*
X89123271Y-58127448D01*
X89021814Y-58044186D01*
X88938552Y-57942729D01*
X88909222Y-57906991D01*
X88825557Y-57750466D01*
X88774037Y-57580627D01*
X88756641Y-57404000D01*
X88774037Y-57227373D01*
X88825557Y-57057534D01*
X88909222Y-56901009D01*
X88938552Y-56865271D01*
X89021814Y-56763814D01*
X89123271Y-56680552D01*
X89159009Y-56651222D01*
X89315534Y-56567557D01*
X89485373Y-56516037D01*
X89551558Y-56509518D01*
X89617740Y-56503000D01*
X89706260Y-56503000D01*
X89772442Y-56509518D01*
X89772442Y-56509518D01*
G37*
G36*
X66912442Y-56509518D02*
G01*
X66978627Y-56516037D01*
X67148466Y-56567557D01*
X67304991Y-56651222D01*
X67340729Y-56680552D01*
X67442186Y-56763814D01*
X67525448Y-56865271D01*
X67554778Y-56901009D01*
X67638443Y-57057534D01*
X67689963Y-57227373D01*
X67707359Y-57404000D01*
X67689963Y-57580627D01*
X67638443Y-57750466D01*
X67554778Y-57906991D01*
X67525448Y-57942729D01*
X67442186Y-58044186D01*
X67340729Y-58127448D01*
X67304991Y-58156778D01*
X67148466Y-58240443D01*
X66978627Y-58291963D01*
X66912443Y-58298481D01*
X66846260Y-58305000D01*
X66757740Y-58305000D01*
X66691557Y-58298481D01*
X66625373Y-58291963D01*
X66455534Y-58240443D01*
X66299009Y-58156778D01*
X66263271Y-58127448D01*
X66161814Y-58044186D01*
X66078552Y-57942729D01*
X66049222Y-57906991D01*
X65965557Y-57750466D01*
X65914037Y-57580627D01*
X65896641Y-57404000D01*
X65914037Y-57227373D01*
X65965557Y-57057534D01*
X66049222Y-56901009D01*
X66078552Y-56865271D01*
X66161814Y-56763814D01*
X66263271Y-56680552D01*
X66299009Y-56651222D01*
X66455534Y-56567557D01*
X66625373Y-56516037D01*
X66691558Y-56509518D01*
X66757740Y-56503000D01*
X66846260Y-56503000D01*
X66912442Y-56509518D01*
X66912442Y-56509518D01*
G37*
G36*
X79394499Y-56501445D02*
G01*
X79431995Y-56512820D01*
X79466554Y-56531292D01*
X79496847Y-56556153D01*
X79521708Y-56586446D01*
X79540180Y-56621005D01*
X79551555Y-56658501D01*
X79556000Y-56703638D01*
X79556000Y-57342362D01*
X79551555Y-57387499D01*
X79540180Y-57424995D01*
X79521708Y-57459554D01*
X79496847Y-57489847D01*
X79466554Y-57514708D01*
X79431995Y-57533180D01*
X79394499Y-57544555D01*
X79349362Y-57549000D01*
X78610638Y-57549000D01*
X78565501Y-57544555D01*
X78528005Y-57533180D01*
X78493446Y-57514708D01*
X78463153Y-57489847D01*
X78438292Y-57459554D01*
X78419820Y-57424995D01*
X78408445Y-57387499D01*
X78404000Y-57342362D01*
X78404000Y-56703638D01*
X78408445Y-56658501D01*
X78419820Y-56621005D01*
X78438292Y-56586446D01*
X78463153Y-56556153D01*
X78493446Y-56531292D01*
X78528005Y-56512820D01*
X78565501Y-56501445D01*
X78610638Y-56497000D01*
X79349362Y-56497000D01*
X79394499Y-56501445D01*
X79394499Y-56501445D01*
G37*
G36*
X81073499Y-56501445D02*
G01*
X81110995Y-56512820D01*
X81145554Y-56531292D01*
X81175847Y-56556153D01*
X81200708Y-56586446D01*
X81219180Y-56621005D01*
X81230555Y-56658501D01*
X81235000Y-56703638D01*
X81235000Y-57342362D01*
X81230555Y-57387499D01*
X81219180Y-57424995D01*
X81200708Y-57459554D01*
X81175847Y-57489847D01*
X81145554Y-57514708D01*
X81110995Y-57533180D01*
X81073499Y-57544555D01*
X81028362Y-57549000D01*
X80289638Y-57549000D01*
X80244501Y-57544555D01*
X80207005Y-57533180D01*
X80172446Y-57514708D01*
X80142153Y-57489847D01*
X80117292Y-57459554D01*
X80098820Y-57424995D01*
X80087445Y-57387499D01*
X80083000Y-57342362D01*
X80083000Y-56703638D01*
X80087445Y-56658501D01*
X80098820Y-56621005D01*
X80117292Y-56586446D01*
X80142153Y-56556153D01*
X80172446Y-56531292D01*
X80207005Y-56512820D01*
X80244501Y-56501445D01*
X80289638Y-56497000D01*
X81028362Y-56497000D01*
X81073499Y-56501445D01*
X81073499Y-56501445D01*
G37*
G36*
X82823499Y-56501445D02*
G01*
X82860995Y-56512820D01*
X82895554Y-56531292D01*
X82925847Y-56556153D01*
X82950708Y-56586446D01*
X82969180Y-56621005D01*
X82980555Y-56658501D01*
X82985000Y-56703638D01*
X82985000Y-57342362D01*
X82980555Y-57387499D01*
X82969180Y-57424995D01*
X82950708Y-57459554D01*
X82925847Y-57489847D01*
X82895554Y-57514708D01*
X82860995Y-57533180D01*
X82823499Y-57544555D01*
X82778362Y-57549000D01*
X82039638Y-57549000D01*
X81994501Y-57544555D01*
X81957005Y-57533180D01*
X81922446Y-57514708D01*
X81892153Y-57489847D01*
X81867292Y-57459554D01*
X81848820Y-57424995D01*
X81837445Y-57387499D01*
X81833000Y-57342362D01*
X81833000Y-56703638D01*
X81837445Y-56658501D01*
X81848820Y-56621005D01*
X81867292Y-56586446D01*
X81892153Y-56556153D01*
X81922446Y-56531292D01*
X81957005Y-56512820D01*
X81994501Y-56501445D01*
X82039638Y-56497000D01*
X82778362Y-56497000D01*
X82823499Y-56501445D01*
X82823499Y-56501445D01*
G37*
G36*
X74215499Y-56501445D02*
G01*
X74252995Y-56512820D01*
X74287554Y-56531292D01*
X74317847Y-56556153D01*
X74342708Y-56586446D01*
X74361180Y-56621005D01*
X74372555Y-56658501D01*
X74377000Y-56703638D01*
X74377000Y-57342362D01*
X74372555Y-57387499D01*
X74361180Y-57424995D01*
X74342708Y-57459554D01*
X74317847Y-57489847D01*
X74287554Y-57514708D01*
X74252995Y-57533180D01*
X74215499Y-57544555D01*
X74170362Y-57549000D01*
X73431638Y-57549000D01*
X73386501Y-57544555D01*
X73349005Y-57533180D01*
X73314446Y-57514708D01*
X73284153Y-57489847D01*
X73259292Y-57459554D01*
X73240820Y-57424995D01*
X73229445Y-57387499D01*
X73225000Y-57342362D01*
X73225000Y-56703638D01*
X73229445Y-56658501D01*
X73240820Y-56621005D01*
X73259292Y-56586446D01*
X73284153Y-56556153D01*
X73314446Y-56531292D01*
X73349005Y-56512820D01*
X73386501Y-56501445D01*
X73431638Y-56497000D01*
X74170362Y-56497000D01*
X74215499Y-56501445D01*
X74215499Y-56501445D01*
G37*
G36*
X75965499Y-56501445D02*
G01*
X76002995Y-56512820D01*
X76037554Y-56531292D01*
X76067847Y-56556153D01*
X76092708Y-56586446D01*
X76111180Y-56621005D01*
X76122555Y-56658501D01*
X76127000Y-56703638D01*
X76127000Y-57342362D01*
X76122555Y-57387499D01*
X76111180Y-57424995D01*
X76092708Y-57459554D01*
X76067847Y-57489847D01*
X76037554Y-57514708D01*
X76002995Y-57533180D01*
X75965499Y-57544555D01*
X75920362Y-57549000D01*
X75181638Y-57549000D01*
X75136501Y-57544555D01*
X75099005Y-57533180D01*
X75064446Y-57514708D01*
X75034153Y-57489847D01*
X75009292Y-57459554D01*
X74990820Y-57424995D01*
X74979445Y-57387499D01*
X74975000Y-57342362D01*
X74975000Y-56703638D01*
X74979445Y-56658501D01*
X74990820Y-56621005D01*
X75009292Y-56586446D01*
X75034153Y-56556153D01*
X75064446Y-56531292D01*
X75099005Y-56512820D01*
X75136501Y-56501445D01*
X75181638Y-56497000D01*
X75920362Y-56497000D01*
X75965499Y-56501445D01*
X75965499Y-56501445D01*
G37*
G36*
X77644499Y-56501445D02*
G01*
X77681995Y-56512820D01*
X77716554Y-56531292D01*
X77746847Y-56556153D01*
X77771708Y-56586446D01*
X77790180Y-56621005D01*
X77801555Y-56658501D01*
X77806000Y-56703638D01*
X77806000Y-57342362D01*
X77801555Y-57387499D01*
X77790180Y-57424995D01*
X77771708Y-57459554D01*
X77746847Y-57489847D01*
X77716554Y-57514708D01*
X77681995Y-57533180D01*
X77644499Y-57544555D01*
X77599362Y-57549000D01*
X76860638Y-57549000D01*
X76815501Y-57544555D01*
X76778005Y-57533180D01*
X76743446Y-57514708D01*
X76713153Y-57489847D01*
X76688292Y-57459554D01*
X76669820Y-57424995D01*
X76658445Y-57387499D01*
X76654000Y-57342362D01*
X76654000Y-56703638D01*
X76658445Y-56658501D01*
X76669820Y-56621005D01*
X76688292Y-56586446D01*
X76713153Y-56556153D01*
X76743446Y-56531292D01*
X76778005Y-56512820D01*
X76815501Y-56501445D01*
X76860638Y-56497000D01*
X77599362Y-56497000D01*
X77644499Y-56501445D01*
X77644499Y-56501445D01*
G37*
G36*
X74215499Y-54850445D02*
G01*
X74252995Y-54861820D01*
X74287554Y-54880292D01*
X74317847Y-54905153D01*
X74342708Y-54935446D01*
X74361180Y-54970005D01*
X74372555Y-55007501D01*
X74377000Y-55052638D01*
X74377000Y-55691362D01*
X74372555Y-55736499D01*
X74361180Y-55773995D01*
X74342708Y-55808554D01*
X74317847Y-55838847D01*
X74287554Y-55863708D01*
X74252995Y-55882180D01*
X74215499Y-55893555D01*
X74170362Y-55898000D01*
X73431638Y-55898000D01*
X73386501Y-55893555D01*
X73349005Y-55882180D01*
X73314446Y-55863708D01*
X73284153Y-55838847D01*
X73259292Y-55808554D01*
X73240820Y-55773995D01*
X73229445Y-55736499D01*
X73225000Y-55691362D01*
X73225000Y-55052638D01*
X73229445Y-55007501D01*
X73240820Y-54970005D01*
X73259292Y-54935446D01*
X73284153Y-54905153D01*
X73314446Y-54880292D01*
X73349005Y-54861820D01*
X73386501Y-54850445D01*
X73431638Y-54846000D01*
X74170362Y-54846000D01*
X74215499Y-54850445D01*
X74215499Y-54850445D01*
G37*
G36*
X81073499Y-54850445D02*
G01*
X81110995Y-54861820D01*
X81145554Y-54880292D01*
X81175847Y-54905153D01*
X81200708Y-54935446D01*
X81219180Y-54970005D01*
X81230555Y-55007501D01*
X81235000Y-55052638D01*
X81235000Y-55691362D01*
X81230555Y-55736499D01*
X81219180Y-55773995D01*
X81200708Y-55808554D01*
X81175847Y-55838847D01*
X81145554Y-55863708D01*
X81110995Y-55882180D01*
X81073499Y-55893555D01*
X81028362Y-55898000D01*
X80289638Y-55898000D01*
X80244501Y-55893555D01*
X80207005Y-55882180D01*
X80172446Y-55863708D01*
X80142153Y-55838847D01*
X80117292Y-55808554D01*
X80098820Y-55773995D01*
X80087445Y-55736499D01*
X80083000Y-55691362D01*
X80083000Y-55052638D01*
X80087445Y-55007501D01*
X80098820Y-54970005D01*
X80117292Y-54935446D01*
X80142153Y-54905153D01*
X80172446Y-54880292D01*
X80207005Y-54861820D01*
X80244501Y-54850445D01*
X80289638Y-54846000D01*
X81028362Y-54846000D01*
X81073499Y-54850445D01*
X81073499Y-54850445D01*
G37*
G36*
X82823499Y-54850445D02*
G01*
X82860995Y-54861820D01*
X82895554Y-54880292D01*
X82925847Y-54905153D01*
X82950708Y-54935446D01*
X82969180Y-54970005D01*
X82980555Y-55007501D01*
X82985000Y-55052638D01*
X82985000Y-55691362D01*
X82980555Y-55736499D01*
X82969180Y-55773995D01*
X82950708Y-55808554D01*
X82925847Y-55838847D01*
X82895554Y-55863708D01*
X82860995Y-55882180D01*
X82823499Y-55893555D01*
X82778362Y-55898000D01*
X82039638Y-55898000D01*
X81994501Y-55893555D01*
X81957005Y-55882180D01*
X81922446Y-55863708D01*
X81892153Y-55838847D01*
X81867292Y-55808554D01*
X81848820Y-55773995D01*
X81837445Y-55736499D01*
X81833000Y-55691362D01*
X81833000Y-55052638D01*
X81837445Y-55007501D01*
X81848820Y-54970005D01*
X81867292Y-54935446D01*
X81892153Y-54905153D01*
X81922446Y-54880292D01*
X81957005Y-54861820D01*
X81994501Y-54850445D01*
X82039638Y-54846000D01*
X82778362Y-54846000D01*
X82823499Y-54850445D01*
X82823499Y-54850445D01*
G37*
G36*
X79394499Y-54850445D02*
G01*
X79431995Y-54861820D01*
X79466554Y-54880292D01*
X79496847Y-54905153D01*
X79521708Y-54935446D01*
X79540180Y-54970005D01*
X79551555Y-55007501D01*
X79556000Y-55052638D01*
X79556000Y-55691362D01*
X79551555Y-55736499D01*
X79540180Y-55773995D01*
X79521708Y-55808554D01*
X79496847Y-55838847D01*
X79466554Y-55863708D01*
X79431995Y-55882180D01*
X79394499Y-55893555D01*
X79349362Y-55898000D01*
X78610638Y-55898000D01*
X78565501Y-55893555D01*
X78528005Y-55882180D01*
X78493446Y-55863708D01*
X78463153Y-55838847D01*
X78438292Y-55808554D01*
X78419820Y-55773995D01*
X78408445Y-55736499D01*
X78404000Y-55691362D01*
X78404000Y-55052638D01*
X78408445Y-55007501D01*
X78419820Y-54970005D01*
X78438292Y-54935446D01*
X78463153Y-54905153D01*
X78493446Y-54880292D01*
X78528005Y-54861820D01*
X78565501Y-54850445D01*
X78610638Y-54846000D01*
X79349362Y-54846000D01*
X79394499Y-54850445D01*
X79394499Y-54850445D01*
G37*
G36*
X77644499Y-54850445D02*
G01*
X77681995Y-54861820D01*
X77716554Y-54880292D01*
X77746847Y-54905153D01*
X77771708Y-54935446D01*
X77790180Y-54970005D01*
X77801555Y-55007501D01*
X77806000Y-55052638D01*
X77806000Y-55691362D01*
X77801555Y-55736499D01*
X77790180Y-55773995D01*
X77771708Y-55808554D01*
X77746847Y-55838847D01*
X77716554Y-55863708D01*
X77681995Y-55882180D01*
X77644499Y-55893555D01*
X77599362Y-55898000D01*
X76860638Y-55898000D01*
X76815501Y-55893555D01*
X76778005Y-55882180D01*
X76743446Y-55863708D01*
X76713153Y-55838847D01*
X76688292Y-55808554D01*
X76669820Y-55773995D01*
X76658445Y-55736499D01*
X76654000Y-55691362D01*
X76654000Y-55052638D01*
X76658445Y-55007501D01*
X76669820Y-54970005D01*
X76688292Y-54935446D01*
X76713153Y-54905153D01*
X76743446Y-54880292D01*
X76778005Y-54861820D01*
X76815501Y-54850445D01*
X76860638Y-54846000D01*
X77599362Y-54846000D01*
X77644499Y-54850445D01*
X77644499Y-54850445D01*
G37*
G36*
X75965499Y-54850445D02*
G01*
X76002995Y-54861820D01*
X76037554Y-54880292D01*
X76067847Y-54905153D01*
X76092708Y-54935446D01*
X76111180Y-54970005D01*
X76122555Y-55007501D01*
X76127000Y-55052638D01*
X76127000Y-55691362D01*
X76122555Y-55736499D01*
X76111180Y-55773995D01*
X76092708Y-55808554D01*
X76067847Y-55838847D01*
X76037554Y-55863708D01*
X76002995Y-55882180D01*
X75965499Y-55893555D01*
X75920362Y-55898000D01*
X75181638Y-55898000D01*
X75136501Y-55893555D01*
X75099005Y-55882180D01*
X75064446Y-55863708D01*
X75034153Y-55838847D01*
X75009292Y-55808554D01*
X74990820Y-55773995D01*
X74979445Y-55736499D01*
X74975000Y-55691362D01*
X74975000Y-55052638D01*
X74979445Y-55007501D01*
X74990820Y-54970005D01*
X75009292Y-54935446D01*
X75034153Y-54905153D01*
X75064446Y-54880292D01*
X75099005Y-54861820D01*
X75136501Y-54850445D01*
X75181638Y-54846000D01*
X75920362Y-54846000D01*
X75965499Y-54850445D01*
X75965499Y-54850445D01*
G37*
G36*
X66912443Y-53969519D02*
G01*
X66978627Y-53976037D01*
X67148466Y-54027557D01*
X67304991Y-54111222D01*
X67340729Y-54140552D01*
X67442186Y-54223814D01*
X67525448Y-54325271D01*
X67554778Y-54361009D01*
X67638443Y-54517534D01*
X67689963Y-54687373D01*
X67707359Y-54864000D01*
X67689963Y-55040627D01*
X67638443Y-55210466D01*
X67554778Y-55366991D01*
X67525448Y-55402729D01*
X67442186Y-55504186D01*
X67340729Y-55587448D01*
X67304991Y-55616778D01*
X67148466Y-55700443D01*
X66978627Y-55751963D01*
X66912443Y-55758481D01*
X66846260Y-55765000D01*
X66757740Y-55765000D01*
X66691557Y-55758481D01*
X66625373Y-55751963D01*
X66455534Y-55700443D01*
X66299009Y-55616778D01*
X66263271Y-55587448D01*
X66161814Y-55504186D01*
X66078552Y-55402729D01*
X66049222Y-55366991D01*
X65965557Y-55210466D01*
X65914037Y-55040627D01*
X65896641Y-54864000D01*
X65914037Y-54687373D01*
X65965557Y-54517534D01*
X66049222Y-54361009D01*
X66078552Y-54325271D01*
X66161814Y-54223814D01*
X66263271Y-54140552D01*
X66299009Y-54111222D01*
X66455534Y-54027557D01*
X66625373Y-53976037D01*
X66691557Y-53969519D01*
X66757740Y-53963000D01*
X66846260Y-53963000D01*
X66912443Y-53969519D01*
X66912443Y-53969519D01*
G37*
G36*
X89772443Y-53969519D02*
G01*
X89838627Y-53976037D01*
X90008466Y-54027557D01*
X90164991Y-54111222D01*
X90200729Y-54140552D01*
X90302186Y-54223814D01*
X90385448Y-54325271D01*
X90414778Y-54361009D01*
X90498443Y-54517534D01*
X90549963Y-54687373D01*
X90567359Y-54864000D01*
X90549963Y-55040627D01*
X90498443Y-55210466D01*
X90414778Y-55366991D01*
X90385448Y-55402729D01*
X90302186Y-55504186D01*
X90200729Y-55587448D01*
X90164991Y-55616778D01*
X90008466Y-55700443D01*
X89838627Y-55751963D01*
X89772443Y-55758481D01*
X89706260Y-55765000D01*
X89617740Y-55765000D01*
X89551557Y-55758481D01*
X89485373Y-55751963D01*
X89315534Y-55700443D01*
X89159009Y-55616778D01*
X89123271Y-55587448D01*
X89021814Y-55504186D01*
X88938552Y-55402729D01*
X88909222Y-55366991D01*
X88825557Y-55210466D01*
X88774037Y-55040627D01*
X88756641Y-54864000D01*
X88774037Y-54687373D01*
X88825557Y-54517534D01*
X88909222Y-54361009D01*
X88938552Y-54325271D01*
X89021814Y-54223814D01*
X89123271Y-54140552D01*
X89159009Y-54111222D01*
X89315534Y-54027557D01*
X89485373Y-53976037D01*
X89551557Y-53969519D01*
X89617740Y-53963000D01*
X89706260Y-53963000D01*
X89772443Y-53969519D01*
X89772443Y-53969519D01*
G37*
G36*
X76339000Y-53542500D02*
G01*
X74537000Y-53542500D01*
X74537000Y-51740500D01*
X76339000Y-51740500D01*
X76339000Y-53542500D01*
X76339000Y-53542500D01*
G37*
G36*
X80628443Y-51747019D02*
G01*
X80694627Y-51753537D01*
X80864466Y-51805057D01*
X81020991Y-51888722D01*
X81056729Y-51918052D01*
X81158186Y-52001314D01*
X81241448Y-52102771D01*
X81270778Y-52138509D01*
X81354443Y-52295034D01*
X81405963Y-52464873D01*
X81423359Y-52641500D01*
X81405963Y-52818127D01*
X81354443Y-52987966D01*
X81270778Y-53144491D01*
X81257687Y-53160442D01*
X81158186Y-53281686D01*
X81056729Y-53364948D01*
X81020991Y-53394278D01*
X80864466Y-53477943D01*
X80694627Y-53529463D01*
X80628442Y-53535982D01*
X80562260Y-53542500D01*
X80473740Y-53542500D01*
X80407558Y-53535982D01*
X80341373Y-53529463D01*
X80171534Y-53477943D01*
X80015009Y-53394278D01*
X79979271Y-53364948D01*
X79877814Y-53281686D01*
X79778313Y-53160442D01*
X79765222Y-53144491D01*
X79681557Y-52987966D01*
X79630037Y-52818127D01*
X79612641Y-52641500D01*
X79630037Y-52464873D01*
X79681557Y-52295034D01*
X79765222Y-52138509D01*
X79794552Y-52102771D01*
X79877814Y-52001314D01*
X79979271Y-51918052D01*
X80015009Y-51888722D01*
X80171534Y-51805057D01*
X80341373Y-51753537D01*
X80407557Y-51747019D01*
X80473740Y-51740500D01*
X80562260Y-51740500D01*
X80628443Y-51747019D01*
X80628443Y-51747019D01*
G37*
G36*
X78088443Y-51747019D02*
G01*
X78154627Y-51753537D01*
X78324466Y-51805057D01*
X78480991Y-51888722D01*
X78516729Y-51918052D01*
X78618186Y-52001314D01*
X78701448Y-52102771D01*
X78730778Y-52138509D01*
X78814443Y-52295034D01*
X78865963Y-52464873D01*
X78883359Y-52641500D01*
X78865963Y-52818127D01*
X78814443Y-52987966D01*
X78730778Y-53144491D01*
X78717687Y-53160442D01*
X78618186Y-53281686D01*
X78516729Y-53364948D01*
X78480991Y-53394278D01*
X78324466Y-53477943D01*
X78154627Y-53529463D01*
X78088442Y-53535982D01*
X78022260Y-53542500D01*
X77933740Y-53542500D01*
X77867558Y-53535982D01*
X77801373Y-53529463D01*
X77631534Y-53477943D01*
X77475009Y-53394278D01*
X77439271Y-53364948D01*
X77337814Y-53281686D01*
X77238313Y-53160442D01*
X77225222Y-53144491D01*
X77141557Y-52987966D01*
X77090037Y-52818127D01*
X77072641Y-52641500D01*
X77090037Y-52464873D01*
X77141557Y-52295034D01*
X77225222Y-52138509D01*
X77254552Y-52102771D01*
X77337814Y-52001314D01*
X77439271Y-51918052D01*
X77475009Y-51888722D01*
X77631534Y-51805057D01*
X77801373Y-51753537D01*
X77867557Y-51747019D01*
X77933740Y-51740500D01*
X78022260Y-51740500D01*
X78088443Y-51747019D01*
X78088443Y-51747019D01*
G37*
G36*
X89772443Y-51429519D02*
G01*
X89838627Y-51436037D01*
X90008466Y-51487557D01*
X90164991Y-51571222D01*
X90200729Y-51600552D01*
X90302186Y-51683814D01*
X90348706Y-51740500D01*
X90414778Y-51821009D01*
X90498443Y-51977534D01*
X90549963Y-52147373D01*
X90567359Y-52324000D01*
X90549963Y-52500627D01*
X90498443Y-52670466D01*
X90414778Y-52826991D01*
X90385448Y-52862729D01*
X90302186Y-52964186D01*
X90200729Y-53047448D01*
X90164991Y-53076778D01*
X90008466Y-53160443D01*
X89838627Y-53211963D01*
X89772442Y-53218482D01*
X89706260Y-53225000D01*
X89617740Y-53225000D01*
X89551558Y-53218482D01*
X89485373Y-53211963D01*
X89315534Y-53160443D01*
X89159009Y-53076778D01*
X89123271Y-53047448D01*
X89021814Y-52964186D01*
X88938552Y-52862729D01*
X88909222Y-52826991D01*
X88825557Y-52670466D01*
X88774037Y-52500627D01*
X88756641Y-52324000D01*
X88774037Y-52147373D01*
X88825557Y-51977534D01*
X88909222Y-51821009D01*
X88975294Y-51740500D01*
X89021814Y-51683814D01*
X89123271Y-51600552D01*
X89159009Y-51571222D01*
X89315534Y-51487557D01*
X89485373Y-51436037D01*
X89551557Y-51429519D01*
X89617740Y-51423000D01*
X89706260Y-51423000D01*
X89772443Y-51429519D01*
X89772443Y-51429519D01*
G37*
G36*
X66912443Y-51429519D02*
G01*
X66978627Y-51436037D01*
X67148466Y-51487557D01*
X67304991Y-51571222D01*
X67340729Y-51600552D01*
X67442186Y-51683814D01*
X67488706Y-51740500D01*
X67554778Y-51821009D01*
X67638443Y-51977534D01*
X67689963Y-52147373D01*
X67707359Y-52324000D01*
X67689963Y-52500627D01*
X67638443Y-52670466D01*
X67554778Y-52826991D01*
X67525448Y-52862729D01*
X67442186Y-52964186D01*
X67340729Y-53047448D01*
X67304991Y-53076778D01*
X67148466Y-53160443D01*
X66978627Y-53211963D01*
X66912442Y-53218482D01*
X66846260Y-53225000D01*
X66757740Y-53225000D01*
X66691558Y-53218482D01*
X66625373Y-53211963D01*
X66455534Y-53160443D01*
X66299009Y-53076778D01*
X66263271Y-53047448D01*
X66161814Y-52964186D01*
X66078552Y-52862729D01*
X66049222Y-52826991D01*
X65965557Y-52670466D01*
X65914037Y-52500627D01*
X65896641Y-52324000D01*
X65914037Y-52147373D01*
X65965557Y-51977534D01*
X66049222Y-51821009D01*
X66115294Y-51740500D01*
X66161814Y-51683814D01*
X66263271Y-51600552D01*
X66299009Y-51571222D01*
X66455534Y-51487557D01*
X66625373Y-51436037D01*
X66691557Y-51429519D01*
X66757740Y-51423000D01*
X66846260Y-51423000D01*
X66912443Y-51429519D01*
X66912443Y-51429519D01*
G37*
G36*
X89772443Y-48889519D02*
G01*
X89838627Y-48896037D01*
X90008466Y-48947557D01*
X90164991Y-49031222D01*
X90200729Y-49060552D01*
X90302186Y-49143814D01*
X90385448Y-49245271D01*
X90414778Y-49281009D01*
X90498443Y-49437534D01*
X90549963Y-49607373D01*
X90567359Y-49784000D01*
X90549963Y-49960627D01*
X90498443Y-50130466D01*
X90414778Y-50286991D01*
X90389329Y-50318000D01*
X90302186Y-50424186D01*
X90200729Y-50507448D01*
X90164991Y-50536778D01*
X90008466Y-50620443D01*
X89838627Y-50671963D01*
X89772443Y-50678481D01*
X89706260Y-50685000D01*
X89617740Y-50685000D01*
X89551557Y-50678481D01*
X89485373Y-50671963D01*
X89315534Y-50620443D01*
X89159009Y-50536778D01*
X89123271Y-50507448D01*
X89021814Y-50424186D01*
X88934671Y-50318000D01*
X88909222Y-50286991D01*
X88825557Y-50130466D01*
X88774037Y-49960627D01*
X88756641Y-49784000D01*
X88774037Y-49607373D01*
X88825557Y-49437534D01*
X88909222Y-49281009D01*
X88938552Y-49245271D01*
X89021814Y-49143814D01*
X89123271Y-49060552D01*
X89159009Y-49031222D01*
X89315534Y-48947557D01*
X89485373Y-48896037D01*
X89551557Y-48889519D01*
X89617740Y-48883000D01*
X89706260Y-48883000D01*
X89772443Y-48889519D01*
X89772443Y-48889519D01*
G37*
G36*
X66912443Y-48889519D02*
G01*
X66978627Y-48896037D01*
X67148466Y-48947557D01*
X67304991Y-49031222D01*
X67340729Y-49060552D01*
X67442186Y-49143814D01*
X67525448Y-49245271D01*
X67554778Y-49281009D01*
X67638443Y-49437534D01*
X67689963Y-49607373D01*
X67707359Y-49784000D01*
X67689963Y-49960627D01*
X67638443Y-50130466D01*
X67554778Y-50286991D01*
X67529329Y-50318000D01*
X67442186Y-50424186D01*
X67340729Y-50507448D01*
X67304991Y-50536778D01*
X67148466Y-50620443D01*
X66978627Y-50671963D01*
X66912443Y-50678481D01*
X66846260Y-50685000D01*
X66757740Y-50685000D01*
X66691557Y-50678481D01*
X66625373Y-50671963D01*
X66455534Y-50620443D01*
X66299009Y-50536778D01*
X66263271Y-50507448D01*
X66161814Y-50424186D01*
X66074671Y-50318000D01*
X66049222Y-50286991D01*
X65965557Y-50130466D01*
X65914037Y-49960627D01*
X65896641Y-49784000D01*
X65914037Y-49607373D01*
X65965557Y-49437534D01*
X66049222Y-49281009D01*
X66078552Y-49245271D01*
X66161814Y-49143814D01*
X66263271Y-49060552D01*
X66299009Y-49031222D01*
X66455534Y-48947557D01*
X66625373Y-48896037D01*
X66691557Y-48889519D01*
X66757740Y-48883000D01*
X66846260Y-48883000D01*
X66912443Y-48889519D01*
X66912443Y-48889519D01*
G37*
G36*
X75804000Y-50318000D02*
G01*
X74252000Y-50318000D01*
X74252000Y-43916000D01*
X75804000Y-43916000D01*
X75804000Y-50318000D01*
X75804000Y-50318000D01*
G37*
G36*
X81704000Y-50318000D02*
G01*
X80152000Y-50318000D01*
X80152000Y-43916000D01*
X81704000Y-43916000D01*
X81704000Y-50318000D01*
X81704000Y-50318000D01*
G37*
G36*
X72373499Y-47420445D02*
G01*
X72410995Y-47431820D01*
X72445554Y-47450292D01*
X72475847Y-47475153D01*
X72500708Y-47505446D01*
X72519180Y-47540005D01*
X72530555Y-47577501D01*
X72535000Y-47622638D01*
X72535000Y-48361362D01*
X72530555Y-48406499D01*
X72519180Y-48443995D01*
X72500708Y-48478554D01*
X72475847Y-48508847D01*
X72445554Y-48533708D01*
X72410995Y-48552180D01*
X72373499Y-48563555D01*
X72328362Y-48568000D01*
X71689638Y-48568000D01*
X71644501Y-48563555D01*
X71607005Y-48552180D01*
X71572446Y-48533708D01*
X71542153Y-48508847D01*
X71517292Y-48478554D01*
X71498820Y-48443995D01*
X71487445Y-48406499D01*
X71483000Y-48361362D01*
X71483000Y-47622638D01*
X71487445Y-47577501D01*
X71498820Y-47540005D01*
X71517292Y-47505446D01*
X71542153Y-47475153D01*
X71572446Y-47450292D01*
X71607005Y-47431820D01*
X71644501Y-47420445D01*
X71689638Y-47416000D01*
X72328362Y-47416000D01*
X72373499Y-47420445D01*
X72373499Y-47420445D01*
G37*
G36*
X66912443Y-46349519D02*
G01*
X66978627Y-46356037D01*
X67148466Y-46407557D01*
X67304991Y-46491222D01*
X67335183Y-46516000D01*
X67442186Y-46603814D01*
X67522038Y-46701115D01*
X67554778Y-46741009D01*
X67638443Y-46897534D01*
X67689963Y-47067373D01*
X67707359Y-47244000D01*
X67689963Y-47420627D01*
X67638443Y-47590466D01*
X67554778Y-47746991D01*
X67525448Y-47782729D01*
X67442186Y-47884186D01*
X67340729Y-47967448D01*
X67304991Y-47996778D01*
X67148466Y-48080443D01*
X66978627Y-48131963D01*
X66912443Y-48138481D01*
X66846260Y-48145000D01*
X66757740Y-48145000D01*
X66691558Y-48138482D01*
X66625373Y-48131963D01*
X66455534Y-48080443D01*
X66299009Y-47996778D01*
X66263271Y-47967448D01*
X66161814Y-47884186D01*
X66078552Y-47782729D01*
X66049222Y-47746991D01*
X65965557Y-47590466D01*
X65914037Y-47420627D01*
X65896641Y-47244000D01*
X65914037Y-47067373D01*
X65965557Y-46897534D01*
X66049222Y-46741009D01*
X66081962Y-46701115D01*
X66161814Y-46603814D01*
X66268817Y-46516000D01*
X66299009Y-46491222D01*
X66455534Y-46407557D01*
X66625373Y-46356037D01*
X66691557Y-46349519D01*
X66757740Y-46343000D01*
X66846260Y-46343000D01*
X66912443Y-46349519D01*
X66912443Y-46349519D01*
G37*
G36*
X89772443Y-46349519D02*
G01*
X89838627Y-46356037D01*
X90008466Y-46407557D01*
X90164991Y-46491222D01*
X90195183Y-46516000D01*
X90302186Y-46603814D01*
X90382038Y-46701115D01*
X90414778Y-46741009D01*
X90498443Y-46897534D01*
X90549963Y-47067373D01*
X90567359Y-47244000D01*
X90549963Y-47420627D01*
X90498443Y-47590466D01*
X90414778Y-47746991D01*
X90385448Y-47782729D01*
X90302186Y-47884186D01*
X90200729Y-47967448D01*
X90164991Y-47996778D01*
X90008466Y-48080443D01*
X89838627Y-48131963D01*
X89772443Y-48138481D01*
X89706260Y-48145000D01*
X89617740Y-48145000D01*
X89551558Y-48138482D01*
X89485373Y-48131963D01*
X89315534Y-48080443D01*
X89159009Y-47996778D01*
X89123271Y-47967448D01*
X89021814Y-47884186D01*
X88938552Y-47782729D01*
X88909222Y-47746991D01*
X88825557Y-47590466D01*
X88774037Y-47420627D01*
X88756641Y-47244000D01*
X88774037Y-47067373D01*
X88825557Y-46897534D01*
X88909222Y-46741009D01*
X88941962Y-46701115D01*
X89021814Y-46603814D01*
X89128817Y-46516000D01*
X89159009Y-46491222D01*
X89315534Y-46407557D01*
X89485373Y-46356037D01*
X89551557Y-46349519D01*
X89617740Y-46343000D01*
X89706260Y-46343000D01*
X89772443Y-46349519D01*
X89772443Y-46349519D01*
G37*
G36*
X84438499Y-46912445D02*
G01*
X84475995Y-46923820D01*
X84510554Y-46942292D01*
X84540847Y-46967153D01*
X84565708Y-46997446D01*
X84584180Y-47032005D01*
X84595555Y-47069501D01*
X84600000Y-47114638D01*
X84600000Y-47853362D01*
X84595555Y-47898499D01*
X84584180Y-47935995D01*
X84565708Y-47970554D01*
X84540847Y-48000847D01*
X84510554Y-48025708D01*
X84475995Y-48044180D01*
X84438499Y-48055555D01*
X84393362Y-48060000D01*
X83754638Y-48060000D01*
X83709501Y-48055555D01*
X83672005Y-48044180D01*
X83637446Y-48025708D01*
X83607153Y-48000847D01*
X83582292Y-47970554D01*
X83563820Y-47935995D01*
X83552445Y-47898499D01*
X83548000Y-47853362D01*
X83548000Y-47114638D01*
X83552445Y-47069501D01*
X83563820Y-47032005D01*
X83582292Y-46997446D01*
X83607153Y-46967153D01*
X83637446Y-46942292D01*
X83672005Y-46923820D01*
X83709501Y-46912445D01*
X83754638Y-46908000D01*
X84393362Y-46908000D01*
X84438499Y-46912445D01*
X84438499Y-46912445D01*
G37*
G36*
X72373499Y-45670445D02*
G01*
X72410995Y-45681820D01*
X72445554Y-45700292D01*
X72475847Y-45725153D01*
X72500708Y-45755446D01*
X72519180Y-45790005D01*
X72530555Y-45827501D01*
X72535000Y-45872638D01*
X72535000Y-46611362D01*
X72530555Y-46656499D01*
X72519180Y-46693995D01*
X72500708Y-46728554D01*
X72475847Y-46758847D01*
X72445554Y-46783708D01*
X72410995Y-46802180D01*
X72373499Y-46813555D01*
X72328362Y-46818000D01*
X71689638Y-46818000D01*
X71644501Y-46813555D01*
X71607005Y-46802180D01*
X71572446Y-46783708D01*
X71542153Y-46758847D01*
X71517292Y-46728554D01*
X71498820Y-46693995D01*
X71487445Y-46656499D01*
X71483000Y-46611362D01*
X71483000Y-45872638D01*
X71487445Y-45827501D01*
X71498820Y-45790005D01*
X71517292Y-45755446D01*
X71542153Y-45725153D01*
X71572446Y-45700292D01*
X71607005Y-45681820D01*
X71644501Y-45670445D01*
X71689638Y-45666000D01*
X72328362Y-45666000D01*
X72373499Y-45670445D01*
X72373499Y-45670445D01*
G37*
G36*
X84438499Y-45162445D02*
G01*
X84475995Y-45173820D01*
X84510554Y-45192292D01*
X84540847Y-45217153D01*
X84565708Y-45247446D01*
X84584180Y-45282005D01*
X84595555Y-45319501D01*
X84600000Y-45364638D01*
X84600000Y-46103362D01*
X84595555Y-46148499D01*
X84584180Y-46185995D01*
X84565708Y-46220554D01*
X84540847Y-46250847D01*
X84510554Y-46275708D01*
X84475995Y-46294180D01*
X84438499Y-46305555D01*
X84393362Y-46310000D01*
X83754638Y-46310000D01*
X83709501Y-46305555D01*
X83672005Y-46294180D01*
X83637446Y-46275708D01*
X83607153Y-46250847D01*
X83582292Y-46220554D01*
X83563820Y-46185995D01*
X83552445Y-46148499D01*
X83548000Y-46103362D01*
X83548000Y-45364638D01*
X83552445Y-45319501D01*
X83563820Y-45282005D01*
X83582292Y-45247446D01*
X83607153Y-45217153D01*
X83637446Y-45192292D01*
X83672005Y-45173820D01*
X83709501Y-45162445D01*
X83754638Y-45158000D01*
X84393362Y-45158000D01*
X84438499Y-45162445D01*
X84438499Y-45162445D01*
G37*
G36*
X89772442Y-43809518D02*
G01*
X89838627Y-43816037D01*
X90008466Y-43867557D01*
X90164991Y-43951222D01*
X90200729Y-43980552D01*
X90302186Y-44063814D01*
X90385448Y-44165271D01*
X90414778Y-44201009D01*
X90498443Y-44357534D01*
X90549963Y-44527373D01*
X90567359Y-44704000D01*
X90549963Y-44880627D01*
X90498443Y-45050466D01*
X90414778Y-45206991D01*
X90407384Y-45216000D01*
X90302186Y-45344186D01*
X90208586Y-45421000D01*
X90164991Y-45456778D01*
X90008466Y-45540443D01*
X89838627Y-45591963D01*
X89772443Y-45598481D01*
X89706260Y-45605000D01*
X89617740Y-45605000D01*
X89551557Y-45598481D01*
X89485373Y-45591963D01*
X89315534Y-45540443D01*
X89159009Y-45456778D01*
X89115414Y-45421000D01*
X89021814Y-45344186D01*
X88916616Y-45216000D01*
X88909222Y-45206991D01*
X88825557Y-45050466D01*
X88774037Y-44880627D01*
X88756641Y-44704000D01*
X88774037Y-44527373D01*
X88825557Y-44357534D01*
X88909222Y-44201009D01*
X88938552Y-44165271D01*
X89021814Y-44063814D01*
X89123271Y-43980552D01*
X89159009Y-43951222D01*
X89315534Y-43867557D01*
X89485373Y-43816037D01*
X89551558Y-43809518D01*
X89617740Y-43803000D01*
X89706260Y-43803000D01*
X89772442Y-43809518D01*
X89772442Y-43809518D01*
G37*
G36*
X66912442Y-43809518D02*
G01*
X66978627Y-43816037D01*
X67148466Y-43867557D01*
X67304991Y-43951222D01*
X67340729Y-43980552D01*
X67442186Y-44063814D01*
X67525448Y-44165271D01*
X67554778Y-44201009D01*
X67638443Y-44357534D01*
X67689963Y-44527373D01*
X67707359Y-44704000D01*
X67689963Y-44880627D01*
X67638443Y-45050466D01*
X67554778Y-45206991D01*
X67547384Y-45216000D01*
X67442186Y-45344186D01*
X67348586Y-45421000D01*
X67304991Y-45456778D01*
X67148466Y-45540443D01*
X66978627Y-45591963D01*
X66912443Y-45598481D01*
X66846260Y-45605000D01*
X66757740Y-45605000D01*
X66691557Y-45598481D01*
X66625373Y-45591963D01*
X66455534Y-45540443D01*
X66299009Y-45456778D01*
X66255414Y-45421000D01*
X66161814Y-45344186D01*
X66056616Y-45216000D01*
X66049222Y-45206991D01*
X65965557Y-45050466D01*
X65914037Y-44880627D01*
X65896641Y-44704000D01*
X65914037Y-44527373D01*
X65965557Y-44357534D01*
X66049222Y-44201009D01*
X66078552Y-44165271D01*
X66161814Y-44063814D01*
X66263271Y-43980552D01*
X66299009Y-43951222D01*
X66455534Y-43867557D01*
X66625373Y-43816037D01*
X66691558Y-43809518D01*
X66757740Y-43803000D01*
X66846260Y-43803000D01*
X66912442Y-43809518D01*
X66912442Y-43809518D01*
G37*
G36*
X66912443Y-41269519D02*
G01*
X66978627Y-41276037D01*
X67148466Y-41327557D01*
X67148468Y-41327558D01*
X67226729Y-41369390D01*
X67304991Y-41411222D01*
X67340729Y-41440552D01*
X67442186Y-41523814D01*
X67525448Y-41625271D01*
X67554778Y-41661009D01*
X67638443Y-41817534D01*
X67689963Y-41987373D01*
X67707359Y-42164000D01*
X67689963Y-42340627D01*
X67638443Y-42510466D01*
X67554778Y-42666991D01*
X67525448Y-42702729D01*
X67442186Y-42804186D01*
X67340729Y-42887448D01*
X67304991Y-42916778D01*
X67148466Y-43000443D01*
X66978627Y-43051963D01*
X66912442Y-43058482D01*
X66846260Y-43065000D01*
X66757740Y-43065000D01*
X66691558Y-43058482D01*
X66625373Y-43051963D01*
X66455534Y-43000443D01*
X66299009Y-42916778D01*
X66263271Y-42887448D01*
X66161814Y-42804186D01*
X66078552Y-42702729D01*
X66049222Y-42666991D01*
X65965557Y-42510466D01*
X65914037Y-42340627D01*
X65896641Y-42164000D01*
X65914037Y-41987373D01*
X65965557Y-41817534D01*
X66049222Y-41661009D01*
X66078552Y-41625271D01*
X66161814Y-41523814D01*
X66263271Y-41440552D01*
X66299009Y-41411222D01*
X66377271Y-41369390D01*
X66455532Y-41327558D01*
X66455534Y-41327557D01*
X66625373Y-41276037D01*
X66691557Y-41269519D01*
X66757740Y-41263000D01*
X66846260Y-41263000D01*
X66912443Y-41269519D01*
X66912443Y-41269519D01*
G37*
G36*
X89772443Y-41269519D02*
G01*
X89838627Y-41276037D01*
X90008466Y-41327557D01*
X90008468Y-41327558D01*
X90086729Y-41369390D01*
X90164991Y-41411222D01*
X90200729Y-41440552D01*
X90302186Y-41523814D01*
X90385448Y-41625271D01*
X90414778Y-41661009D01*
X90498443Y-41817534D01*
X90549963Y-41987373D01*
X90567359Y-42164000D01*
X90549963Y-42340627D01*
X90498443Y-42510466D01*
X90414778Y-42666991D01*
X90385448Y-42702729D01*
X90302186Y-42804186D01*
X90200729Y-42887448D01*
X90164991Y-42916778D01*
X90008466Y-43000443D01*
X89838627Y-43051963D01*
X89772442Y-43058482D01*
X89706260Y-43065000D01*
X89617740Y-43065000D01*
X89551558Y-43058482D01*
X89485373Y-43051963D01*
X89315534Y-43000443D01*
X89159009Y-42916778D01*
X89123271Y-42887448D01*
X89021814Y-42804186D01*
X88938552Y-42702729D01*
X88909222Y-42666991D01*
X88825557Y-42510466D01*
X88774037Y-42340627D01*
X88756641Y-42164000D01*
X88774037Y-41987373D01*
X88825557Y-41817534D01*
X88909222Y-41661009D01*
X88938552Y-41625271D01*
X89021814Y-41523814D01*
X89123271Y-41440552D01*
X89159009Y-41411222D01*
X89237271Y-41369390D01*
X89315532Y-41327558D01*
X89315534Y-41327557D01*
X89485373Y-41276037D01*
X89551557Y-41269519D01*
X89617740Y-41263000D01*
X89706260Y-41263000D01*
X89772443Y-41269519D01*
X89772443Y-41269519D01*
G37*
G36*
X75798642Y-39869781D02*
G01*
X75944414Y-39930162D01*
X75944416Y-39930163D01*
X76075608Y-40017822D01*
X76187178Y-40129392D01*
X76274837Y-40260584D01*
X76274838Y-40260586D01*
X76335219Y-40406358D01*
X76366000Y-40561107D01*
X76366000Y-40718893D01*
X76335219Y-40873642D01*
X76274838Y-41019414D01*
X76274837Y-41019416D01*
X76187178Y-41150608D01*
X76075608Y-41262178D01*
X75944416Y-41349837D01*
X75944415Y-41349838D01*
X75944414Y-41349838D01*
X75798642Y-41410219D01*
X75643893Y-41441000D01*
X75486107Y-41441000D01*
X75331358Y-41410219D01*
X75185586Y-41349838D01*
X75185585Y-41349838D01*
X75185584Y-41349837D01*
X75054392Y-41262178D01*
X74942822Y-41150608D01*
X74855163Y-41019416D01*
X74855162Y-41019414D01*
X74794781Y-40873642D01*
X74764000Y-40718893D01*
X74764000Y-40561107D01*
X74794781Y-40406358D01*
X74855162Y-40260586D01*
X74855163Y-40260584D01*
X74942822Y-40129392D01*
X75054392Y-40017822D01*
X75185584Y-39930163D01*
X75185586Y-39930162D01*
X75331358Y-39869781D01*
X75486107Y-39839000D01*
X75643893Y-39839000D01*
X75798642Y-39869781D01*
X75798642Y-39869781D01*
G37*
G36*
X80678642Y-39869781D02*
G01*
X80824414Y-39930162D01*
X80824416Y-39930163D01*
X80955608Y-40017822D01*
X81067178Y-40129392D01*
X81154837Y-40260584D01*
X81154838Y-40260586D01*
X81215219Y-40406358D01*
X81246000Y-40561107D01*
X81246000Y-40718893D01*
X81215219Y-40873642D01*
X81154838Y-41019414D01*
X81154837Y-41019416D01*
X81067178Y-41150608D01*
X80955608Y-41262178D01*
X80824416Y-41349837D01*
X80824415Y-41349838D01*
X80824414Y-41349838D01*
X80678642Y-41410219D01*
X80523893Y-41441000D01*
X80366107Y-41441000D01*
X80211358Y-41410219D01*
X80065586Y-41349838D01*
X80065585Y-41349838D01*
X80065584Y-41349837D01*
X79934392Y-41262178D01*
X79822822Y-41150608D01*
X79735163Y-41019416D01*
X79735162Y-41019414D01*
X79674781Y-40873642D01*
X79644000Y-40718893D01*
X79644000Y-40561107D01*
X79674781Y-40406358D01*
X79735162Y-40260586D01*
X79735163Y-40260584D01*
X79822822Y-40129392D01*
X79934392Y-40017822D01*
X80065584Y-39930163D01*
X80065586Y-39930162D01*
X80211358Y-39869781D01*
X80366107Y-39839000D01*
X80523893Y-39839000D01*
X80678642Y-39869781D01*
X80678642Y-39869781D01*
G37*
G36*
X66912442Y-38729518D02*
G01*
X66978627Y-38736037D01*
X67148466Y-38787557D01*
X67304991Y-38871222D01*
X67340729Y-38900552D01*
X67442186Y-38983814D01*
X67525448Y-39085271D01*
X67554778Y-39121009D01*
X67638443Y-39277534D01*
X67689963Y-39447373D01*
X67707359Y-39624000D01*
X67689963Y-39800627D01*
X67638443Y-39970466D01*
X67638442Y-39970468D01*
X67596611Y-40048728D01*
X67554778Y-40126991D01*
X67525448Y-40162729D01*
X67442186Y-40264186D01*
X67340729Y-40347448D01*
X67304991Y-40376778D01*
X67148466Y-40460443D01*
X66978627Y-40511963D01*
X66912443Y-40518481D01*
X66846260Y-40525000D01*
X66757740Y-40525000D01*
X66691557Y-40518481D01*
X66625373Y-40511963D01*
X66455534Y-40460443D01*
X66299009Y-40376778D01*
X66263271Y-40347448D01*
X66161814Y-40264186D01*
X66078552Y-40162729D01*
X66049222Y-40126991D01*
X66007390Y-40048729D01*
X65965558Y-39970468D01*
X65965557Y-39970466D01*
X65914037Y-39800627D01*
X65896641Y-39624000D01*
X65914037Y-39447373D01*
X65965557Y-39277534D01*
X66049222Y-39121009D01*
X66078552Y-39085271D01*
X66161814Y-38983814D01*
X66263271Y-38900552D01*
X66299009Y-38871222D01*
X66455534Y-38787557D01*
X66625373Y-38736037D01*
X66691558Y-38729518D01*
X66757740Y-38723000D01*
X66846260Y-38723000D01*
X66912442Y-38729518D01*
X66912442Y-38729518D01*
G37*
G36*
X89772442Y-38729518D02*
G01*
X89838627Y-38736037D01*
X90008466Y-38787557D01*
X90164991Y-38871222D01*
X90200729Y-38900552D01*
X90302186Y-38983814D01*
X90385448Y-39085271D01*
X90414778Y-39121009D01*
X90498443Y-39277534D01*
X90549963Y-39447373D01*
X90567359Y-39624000D01*
X90549963Y-39800627D01*
X90498443Y-39970466D01*
X90498442Y-39970468D01*
X90456611Y-40048728D01*
X90414778Y-40126991D01*
X90385448Y-40162729D01*
X90302186Y-40264186D01*
X90200729Y-40347448D01*
X90164991Y-40376778D01*
X90008466Y-40460443D01*
X89838627Y-40511963D01*
X89772443Y-40518481D01*
X89706260Y-40525000D01*
X89617740Y-40525000D01*
X89551557Y-40518481D01*
X89485373Y-40511963D01*
X89315534Y-40460443D01*
X89159009Y-40376778D01*
X89123271Y-40347448D01*
X89021814Y-40264186D01*
X88938552Y-40162729D01*
X88909222Y-40126991D01*
X88867389Y-40048728D01*
X88825558Y-39970468D01*
X88825557Y-39970466D01*
X88774037Y-39800627D01*
X88756641Y-39624000D01*
X88774037Y-39447373D01*
X88825557Y-39277534D01*
X88909222Y-39121009D01*
X88938552Y-39085271D01*
X89021814Y-38983814D01*
X89123271Y-38900552D01*
X89159009Y-38871222D01*
X89315534Y-38787557D01*
X89485373Y-38736037D01*
X89551558Y-38729518D01*
X89617740Y-38723000D01*
X89706260Y-38723000D01*
X89772442Y-38729518D01*
X89772442Y-38729518D01*
G37*
G36*
X66912443Y-36189519D02*
G01*
X66978627Y-36196037D01*
X67148466Y-36247557D01*
X67304991Y-36331222D01*
X67340729Y-36360552D01*
X67442186Y-36443814D01*
X67502920Y-36517820D01*
X67554778Y-36581009D01*
X67638443Y-36737534D01*
X67689963Y-36907373D01*
X67707359Y-37084000D01*
X67689963Y-37260627D01*
X67638443Y-37430466D01*
X67554778Y-37586991D01*
X67525448Y-37622729D01*
X67442186Y-37724186D01*
X67340729Y-37807448D01*
X67304991Y-37836778D01*
X67148466Y-37920443D01*
X66978627Y-37971963D01*
X66912442Y-37978482D01*
X66846260Y-37985000D01*
X66757740Y-37985000D01*
X66691558Y-37978482D01*
X66625373Y-37971963D01*
X66455534Y-37920443D01*
X66299009Y-37836778D01*
X66263271Y-37807448D01*
X66161814Y-37724186D01*
X66078552Y-37622729D01*
X66049222Y-37586991D01*
X65965557Y-37430466D01*
X65914037Y-37260627D01*
X65896641Y-37084000D01*
X65914037Y-36907373D01*
X65965557Y-36737534D01*
X66049222Y-36581009D01*
X66101080Y-36517820D01*
X66161814Y-36443814D01*
X66263271Y-36360552D01*
X66299009Y-36331222D01*
X66455534Y-36247557D01*
X66625373Y-36196037D01*
X66691557Y-36189519D01*
X66757740Y-36183000D01*
X66846260Y-36183000D01*
X66912443Y-36189519D01*
X66912443Y-36189519D01*
G37*
G36*
X89772443Y-36189519D02*
G01*
X89838627Y-36196037D01*
X90008466Y-36247557D01*
X90164991Y-36331222D01*
X90200729Y-36360552D01*
X90302186Y-36443814D01*
X90362920Y-36517820D01*
X90414778Y-36581009D01*
X90498443Y-36737534D01*
X90549963Y-36907373D01*
X90567359Y-37084000D01*
X90549963Y-37260627D01*
X90498443Y-37430466D01*
X90414778Y-37586991D01*
X90385448Y-37622729D01*
X90302186Y-37724186D01*
X90200729Y-37807448D01*
X90164991Y-37836778D01*
X90008466Y-37920443D01*
X89838627Y-37971963D01*
X89772442Y-37978482D01*
X89706260Y-37985000D01*
X89617740Y-37985000D01*
X89551558Y-37978482D01*
X89485373Y-37971963D01*
X89315534Y-37920443D01*
X89159009Y-37836778D01*
X89123271Y-37807448D01*
X89021814Y-37724186D01*
X88938552Y-37622729D01*
X88909222Y-37586991D01*
X88825557Y-37430466D01*
X88774037Y-37260627D01*
X88756641Y-37084000D01*
X88774037Y-36907373D01*
X88825557Y-36737534D01*
X88909222Y-36581009D01*
X88961080Y-36517820D01*
X89021814Y-36443814D01*
X89123271Y-36360552D01*
X89159009Y-36331222D01*
X89315534Y-36247557D01*
X89485373Y-36196037D01*
X89551557Y-36189519D01*
X89617740Y-36183000D01*
X89706260Y-36183000D01*
X89772443Y-36189519D01*
X89772443Y-36189519D01*
G37*
G36*
X75897487Y-36487973D02*
G01*
X75934983Y-36499348D01*
X75969542Y-36517820D01*
X75999835Y-36542681D01*
X76024696Y-36572974D01*
X76043168Y-36607533D01*
X76054543Y-36645029D01*
X76058988Y-36690166D01*
X76058988Y-37328890D01*
X76054543Y-37374027D01*
X76043168Y-37411523D01*
X76024696Y-37446082D01*
X75999835Y-37476375D01*
X75969542Y-37501236D01*
X75934983Y-37519708D01*
X75897487Y-37531083D01*
X75852350Y-37535528D01*
X75113626Y-37535528D01*
X75068489Y-37531083D01*
X75030993Y-37519708D01*
X74996434Y-37501236D01*
X74966141Y-37476375D01*
X74941280Y-37446082D01*
X74922808Y-37411523D01*
X74911433Y-37374027D01*
X74906988Y-37328890D01*
X74906988Y-36690166D01*
X74911433Y-36645029D01*
X74922808Y-36607533D01*
X74941280Y-36572974D01*
X74966141Y-36542681D01*
X74996434Y-36517820D01*
X75030993Y-36499348D01*
X75068489Y-36487973D01*
X75113626Y-36483528D01*
X75852350Y-36483528D01*
X75897487Y-36487973D01*
X75897487Y-36487973D01*
G37*
G36*
X77647487Y-36487973D02*
G01*
X77684983Y-36499348D01*
X77719542Y-36517820D01*
X77749835Y-36542681D01*
X77774696Y-36572974D01*
X77793168Y-36607533D01*
X77804543Y-36645029D01*
X77808988Y-36690166D01*
X77808988Y-37328890D01*
X77804543Y-37374027D01*
X77793168Y-37411523D01*
X77774696Y-37446082D01*
X77749835Y-37476375D01*
X77719542Y-37501236D01*
X77684983Y-37519708D01*
X77647487Y-37531083D01*
X77602350Y-37535528D01*
X76863626Y-37535528D01*
X76818489Y-37531083D01*
X76780993Y-37519708D01*
X76746434Y-37501236D01*
X76716141Y-37476375D01*
X76691280Y-37446082D01*
X76672808Y-37411523D01*
X76661433Y-37374027D01*
X76656988Y-37328890D01*
X76656988Y-36690166D01*
X76661433Y-36645029D01*
X76672808Y-36607533D01*
X76691280Y-36572974D01*
X76716141Y-36542681D01*
X76746434Y-36517820D01*
X76780993Y-36499348D01*
X76818489Y-36487973D01*
X76863626Y-36483528D01*
X77602350Y-36483528D01*
X77647487Y-36487973D01*
X77647487Y-36487973D01*
G37*
G36*
X79326487Y-36487973D02*
G01*
X79363983Y-36499348D01*
X79398542Y-36517820D01*
X79428835Y-36542681D01*
X79453696Y-36572974D01*
X79472168Y-36607533D01*
X79483543Y-36645029D01*
X79487988Y-36690166D01*
X79487988Y-37328890D01*
X79483543Y-37374027D01*
X79472168Y-37411523D01*
X79453696Y-37446082D01*
X79428835Y-37476375D01*
X79398542Y-37501236D01*
X79363983Y-37519708D01*
X79326487Y-37531083D01*
X79281350Y-37535528D01*
X78542626Y-37535528D01*
X78497489Y-37531083D01*
X78459993Y-37519708D01*
X78425434Y-37501236D01*
X78395141Y-37476375D01*
X78370280Y-37446082D01*
X78351808Y-37411523D01*
X78340433Y-37374027D01*
X78335988Y-37328890D01*
X78335988Y-36690166D01*
X78340433Y-36645029D01*
X78351808Y-36607533D01*
X78370280Y-36572974D01*
X78395141Y-36542681D01*
X78425434Y-36517820D01*
X78459993Y-36499348D01*
X78497489Y-36487973D01*
X78542626Y-36483528D01*
X79281350Y-36483528D01*
X79326487Y-36487973D01*
X79326487Y-36487973D01*
G37*
G36*
X81076487Y-36487973D02*
G01*
X81113983Y-36499348D01*
X81148542Y-36517820D01*
X81178835Y-36542681D01*
X81203696Y-36572974D01*
X81222168Y-36607533D01*
X81233543Y-36645029D01*
X81237988Y-36690166D01*
X81237988Y-37328890D01*
X81233543Y-37374027D01*
X81222168Y-37411523D01*
X81203696Y-37446082D01*
X81178835Y-37476375D01*
X81148542Y-37501236D01*
X81113983Y-37519708D01*
X81076487Y-37531083D01*
X81031350Y-37535528D01*
X80292626Y-37535528D01*
X80247489Y-37531083D01*
X80209993Y-37519708D01*
X80175434Y-37501236D01*
X80145141Y-37476375D01*
X80120280Y-37446082D01*
X80101808Y-37411523D01*
X80090433Y-37374027D01*
X80085988Y-37328890D01*
X80085988Y-36690166D01*
X80090433Y-36645029D01*
X80101808Y-36607533D01*
X80120280Y-36572974D01*
X80145141Y-36542681D01*
X80175434Y-36517820D01*
X80209993Y-36499348D01*
X80247489Y-36487973D01*
X80292626Y-36483528D01*
X81031350Y-36483528D01*
X81076487Y-36487973D01*
X81076487Y-36487973D01*
G37*
G36*
X66912442Y-33649518D02*
G01*
X66978627Y-33656037D01*
X67148466Y-33707557D01*
X67304991Y-33791222D01*
X67340729Y-33820552D01*
X67442186Y-33903814D01*
X67525448Y-34005271D01*
X67554778Y-34041009D01*
X67638443Y-34197534D01*
X67689963Y-34367373D01*
X67707359Y-34544000D01*
X67689963Y-34720627D01*
X67638443Y-34890466D01*
X67554778Y-35046991D01*
X67525448Y-35082729D01*
X67442186Y-35184186D01*
X67340729Y-35267448D01*
X67304991Y-35296778D01*
X67148466Y-35380443D01*
X66978627Y-35431963D01*
X66912443Y-35438481D01*
X66846260Y-35445000D01*
X66757740Y-35445000D01*
X66691557Y-35438481D01*
X66625373Y-35431963D01*
X66455534Y-35380443D01*
X66299009Y-35296778D01*
X66263271Y-35267448D01*
X66161814Y-35184186D01*
X66078552Y-35082729D01*
X66049222Y-35046991D01*
X65965557Y-34890466D01*
X65914037Y-34720627D01*
X65896641Y-34544000D01*
X65914037Y-34367373D01*
X65965557Y-34197534D01*
X66049222Y-34041009D01*
X66078552Y-34005271D01*
X66161814Y-33903814D01*
X66263271Y-33820552D01*
X66299009Y-33791222D01*
X66455534Y-33707557D01*
X66625373Y-33656037D01*
X66691558Y-33649518D01*
X66757740Y-33643000D01*
X66846260Y-33643000D01*
X66912442Y-33649518D01*
X66912442Y-33649518D01*
G37*
G36*
X89772442Y-33649518D02*
G01*
X89838627Y-33656037D01*
X90008466Y-33707557D01*
X90164991Y-33791222D01*
X90200729Y-33820552D01*
X90302186Y-33903814D01*
X90385448Y-34005271D01*
X90414778Y-34041009D01*
X90498443Y-34197534D01*
X90549963Y-34367373D01*
X90567359Y-34544000D01*
X90549963Y-34720627D01*
X90498443Y-34890466D01*
X90414778Y-35046991D01*
X90385448Y-35082729D01*
X90302186Y-35184186D01*
X90200729Y-35267448D01*
X90164991Y-35296778D01*
X90008466Y-35380443D01*
X89838627Y-35431963D01*
X89772443Y-35438481D01*
X89706260Y-35445000D01*
X89617740Y-35445000D01*
X89551557Y-35438481D01*
X89485373Y-35431963D01*
X89315534Y-35380443D01*
X89159009Y-35296778D01*
X89123271Y-35267448D01*
X89021814Y-35184186D01*
X88938552Y-35082729D01*
X88909222Y-35046991D01*
X88825557Y-34890466D01*
X88774037Y-34720627D01*
X88756641Y-34544000D01*
X88774037Y-34367373D01*
X88825557Y-34197534D01*
X88909222Y-34041009D01*
X88938552Y-34005271D01*
X89021814Y-33903814D01*
X89123271Y-33820552D01*
X89159009Y-33791222D01*
X89315534Y-33707557D01*
X89485373Y-33656037D01*
X89551558Y-33649518D01*
X89617740Y-33643000D01*
X89706260Y-33643000D01*
X89772442Y-33649518D01*
X89772442Y-33649518D01*
G37*
G36*
X90563000Y-32905000D02*
G01*
X88761000Y-32905000D01*
X88761000Y-31103000D01*
X90563000Y-31103000D01*
X90563000Y-32905000D01*
X90563000Y-32905000D01*
G37*
G36*
X67703000Y-32905000D02*
G01*
X65901000Y-32905000D01*
X65901000Y-31103000D01*
X67703000Y-31103000D01*
X67703000Y-32905000D01*
X67703000Y-32905000D01*
G37*
G36*
X76564443Y-30728519D02*
G01*
X76630627Y-30735037D01*
X76800466Y-30786557D01*
X76956991Y-30870222D01*
X76992729Y-30899552D01*
X77094186Y-30982814D01*
X77177448Y-31084271D01*
X77206778Y-31120009D01*
X77290443Y-31276534D01*
X77341963Y-31446373D01*
X77359359Y-31623000D01*
X77341963Y-31799627D01*
X77290443Y-31969466D01*
X77206778Y-32125991D01*
X77177448Y-32161729D01*
X77094186Y-32263186D01*
X76992729Y-32346448D01*
X76956991Y-32375778D01*
X76800466Y-32459443D01*
X76630627Y-32510963D01*
X76564443Y-32517481D01*
X76498260Y-32524000D01*
X76409740Y-32524000D01*
X76343557Y-32517481D01*
X76277373Y-32510963D01*
X76107534Y-32459443D01*
X75951009Y-32375778D01*
X75915271Y-32346448D01*
X75813814Y-32263186D01*
X75730552Y-32161729D01*
X75701222Y-32125991D01*
X75617557Y-31969466D01*
X75566037Y-31799627D01*
X75548641Y-31623000D01*
X75566037Y-31446373D01*
X75617557Y-31276534D01*
X75701222Y-31120009D01*
X75730552Y-31084271D01*
X75813814Y-30982814D01*
X75915271Y-30899552D01*
X75951009Y-30870222D01*
X76107534Y-30786557D01*
X76277373Y-30735037D01*
X76343557Y-30728519D01*
X76409740Y-30722000D01*
X76498260Y-30722000D01*
X76564443Y-30728519D01*
X76564443Y-30728519D01*
G37*
G36*
X81644443Y-30728519D02*
G01*
X81710627Y-30735037D01*
X81880466Y-30786557D01*
X82036991Y-30870222D01*
X82072729Y-30899552D01*
X82174186Y-30982814D01*
X82257448Y-31084271D01*
X82286778Y-31120009D01*
X82370443Y-31276534D01*
X82421963Y-31446373D01*
X82439359Y-31623000D01*
X82421963Y-31799627D01*
X82370443Y-31969466D01*
X82286778Y-32125991D01*
X82257448Y-32161729D01*
X82174186Y-32263186D01*
X82072729Y-32346448D01*
X82036991Y-32375778D01*
X81880466Y-32459443D01*
X81710627Y-32510963D01*
X81644443Y-32517481D01*
X81578260Y-32524000D01*
X81489740Y-32524000D01*
X81423557Y-32517481D01*
X81357373Y-32510963D01*
X81187534Y-32459443D01*
X81031009Y-32375778D01*
X80995271Y-32346448D01*
X80893814Y-32263186D01*
X80810552Y-32161729D01*
X80781222Y-32125991D01*
X80697557Y-31969466D01*
X80646037Y-31799627D01*
X80628641Y-31623000D01*
X80646037Y-31446373D01*
X80697557Y-31276534D01*
X80781222Y-31120009D01*
X80810552Y-31084271D01*
X80893814Y-30982814D01*
X80995271Y-30899552D01*
X81031009Y-30870222D01*
X81187534Y-30786557D01*
X81357373Y-30735037D01*
X81423557Y-30728519D01*
X81489740Y-30722000D01*
X81578260Y-30722000D01*
X81644443Y-30728519D01*
X81644443Y-30728519D01*
G37*
G36*
X79104443Y-30728519D02*
G01*
X79170627Y-30735037D01*
X79340466Y-30786557D01*
X79496991Y-30870222D01*
X79532729Y-30899552D01*
X79634186Y-30982814D01*
X79717448Y-31084271D01*
X79746778Y-31120009D01*
X79830443Y-31276534D01*
X79881963Y-31446373D01*
X79899359Y-31623000D01*
X79881963Y-31799627D01*
X79830443Y-31969466D01*
X79746778Y-32125991D01*
X79717448Y-32161729D01*
X79634186Y-32263186D01*
X79532729Y-32346448D01*
X79496991Y-32375778D01*
X79340466Y-32459443D01*
X79170627Y-32510963D01*
X79104443Y-32517481D01*
X79038260Y-32524000D01*
X78949740Y-32524000D01*
X78883557Y-32517481D01*
X78817373Y-32510963D01*
X78647534Y-32459443D01*
X78491009Y-32375778D01*
X78455271Y-32346448D01*
X78353814Y-32263186D01*
X78270552Y-32161729D01*
X78241222Y-32125991D01*
X78157557Y-31969466D01*
X78106037Y-31799627D01*
X78088641Y-31623000D01*
X78106037Y-31446373D01*
X78157557Y-31276534D01*
X78241222Y-31120009D01*
X78270552Y-31084271D01*
X78353814Y-30982814D01*
X78455271Y-30899552D01*
X78491009Y-30870222D01*
X78647534Y-30786557D01*
X78817373Y-30735037D01*
X78883557Y-30728519D01*
X78949740Y-30722000D01*
X79038260Y-30722000D01*
X79104443Y-30728519D01*
X79104443Y-30728519D01*
G37*
G36*
X74815000Y-32524000D02*
G01*
X73013000Y-32524000D01*
X73013000Y-30722000D01*
X74815000Y-30722000D01*
X74815000Y-32524000D01*
X74815000Y-32524000D01*
G37*
M02*
