%TF.GenerationSoftware,KiCad,Pcbnew,5.1.0*%
%TF.CreationDate,2019-06-23T04:01:33+08:00*%
%TF.ProjectId,stm32_fxp6,73746d33-325f-4667-9870-362e6b696361,rev?*%
%TF.SameCoordinates,Original*%
%TF.FileFunction,Soldermask,Bot*%
%TF.FilePolarity,Negative*%
%FSLAX46Y46*%
G04 Gerber Fmt 4.6, Leading zero omitted, Abs format (unit mm)*
G04 Created by KiCad (PCBNEW 5.1.0) date 2019-06-23 04:01:33*
%MOMM*%
%LPD*%
G04 APERTURE LIST*
%ADD10C,0.350000*%
G04 APERTURE END LIST*
D10*
G36*
X85650014Y-73048973D02*
G01*
X85753878Y-73080479D01*
X85797907Y-73104013D01*
X85849599Y-73131643D01*
X85849601Y-73131644D01*
X85849600Y-73131644D01*
X85933501Y-73200499D01*
X86002356Y-73284400D01*
X86053521Y-73380121D01*
X86085027Y-73483985D01*
X86093000Y-73564933D01*
X86093000Y-74169067D01*
X86085027Y-74250015D01*
X86053521Y-74353879D01*
X86053519Y-74353882D01*
X86002357Y-74449600D01*
X85933501Y-74533501D01*
X85849600Y-74602357D01*
X85781055Y-74638995D01*
X85753879Y-74653521D01*
X85650015Y-74685027D01*
X85542000Y-74695666D01*
X85433986Y-74685027D01*
X85330122Y-74653521D01*
X85302946Y-74638995D01*
X85234401Y-74602357D01*
X85150500Y-74533501D01*
X85081643Y-74449599D01*
X85030481Y-74353882D01*
X85030480Y-74353879D01*
X84998973Y-74250015D01*
X84991000Y-74169067D01*
X84991000Y-73564934D01*
X84998973Y-73483986D01*
X85030479Y-73380122D01*
X85081644Y-73284400D01*
X85150499Y-73200499D01*
X85234400Y-73131644D01*
X85234399Y-73131644D01*
X85234401Y-73131643D01*
X85286093Y-73104013D01*
X85330121Y-73080479D01*
X85433985Y-73048973D01*
X85542000Y-73038334D01*
X85650014Y-73048973D01*
X85650014Y-73048973D01*
G37*
G36*
X78650014Y-73048973D02*
G01*
X78753878Y-73080479D01*
X78797907Y-73104013D01*
X78849599Y-73131643D01*
X78849601Y-73131644D01*
X78849600Y-73131644D01*
X78933501Y-73200499D01*
X79002356Y-73284400D01*
X79053521Y-73380121D01*
X79085027Y-73483985D01*
X79093000Y-73564933D01*
X79093000Y-74169067D01*
X79085027Y-74250015D01*
X79053521Y-74353879D01*
X79053519Y-74353882D01*
X79002357Y-74449600D01*
X78933501Y-74533501D01*
X78849600Y-74602357D01*
X78781055Y-74638995D01*
X78753879Y-74653521D01*
X78650015Y-74685027D01*
X78542000Y-74695666D01*
X78433986Y-74685027D01*
X78330122Y-74653521D01*
X78302946Y-74638995D01*
X78234401Y-74602357D01*
X78150500Y-74533501D01*
X78081643Y-74449599D01*
X78030481Y-74353882D01*
X78030480Y-74353879D01*
X77998973Y-74250015D01*
X77991000Y-74169067D01*
X77991000Y-73564934D01*
X77998973Y-73483986D01*
X78030479Y-73380122D01*
X78081644Y-73284400D01*
X78150499Y-73200499D01*
X78234400Y-73131644D01*
X78234399Y-73131644D01*
X78234401Y-73131643D01*
X78286093Y-73104013D01*
X78330121Y-73080479D01*
X78433985Y-73048973D01*
X78542000Y-73038334D01*
X78650014Y-73048973D01*
X78650014Y-73048973D01*
G37*
G36*
X79795114Y-70648611D02*
G01*
X79894265Y-70678688D01*
X79985644Y-70727531D01*
X80065738Y-70793262D01*
X80131469Y-70873356D01*
X80180312Y-70964735D01*
X80210389Y-71063886D01*
X80220545Y-71167000D01*
X80210389Y-71270114D01*
X80180312Y-71369265D01*
X80131469Y-71460644D01*
X80065738Y-71540738D01*
X79985644Y-71606469D01*
X79894265Y-71655312D01*
X79795114Y-71685389D01*
X79717839Y-71693000D01*
X79366161Y-71693000D01*
X79288886Y-71685389D01*
X79189735Y-71655312D01*
X79098356Y-71606469D01*
X79018262Y-71540738D01*
X78952531Y-71460644D01*
X78903688Y-71369265D01*
X78873611Y-71270114D01*
X78863455Y-71167000D01*
X78873611Y-71063886D01*
X78903688Y-70964735D01*
X78952531Y-70873356D01*
X79018262Y-70793262D01*
X79098356Y-70727531D01*
X79189735Y-70678688D01*
X79288886Y-70648611D01*
X79366161Y-70641000D01*
X79717839Y-70641000D01*
X79795114Y-70648611D01*
X79795114Y-70648611D01*
G37*
G36*
X84795114Y-70648611D02*
G01*
X84894265Y-70678688D01*
X84985644Y-70727531D01*
X85065738Y-70793262D01*
X85131469Y-70873356D01*
X85180312Y-70964735D01*
X85210389Y-71063886D01*
X85220545Y-71167000D01*
X85210389Y-71270114D01*
X85180312Y-71369265D01*
X85131469Y-71460644D01*
X85065738Y-71540738D01*
X84985644Y-71606469D01*
X84894265Y-71655312D01*
X84795114Y-71685389D01*
X84717839Y-71693000D01*
X84366161Y-71693000D01*
X84288886Y-71685389D01*
X84189735Y-71655312D01*
X84098356Y-71606469D01*
X84018262Y-71540738D01*
X83952531Y-71460644D01*
X83903688Y-71369265D01*
X83873611Y-71270114D01*
X83863455Y-71167000D01*
X83873611Y-71063886D01*
X83903688Y-70964735D01*
X83952531Y-70873356D01*
X84018262Y-70793262D01*
X84098356Y-70727531D01*
X84189735Y-70678688D01*
X84288886Y-70648611D01*
X84366161Y-70641000D01*
X84717839Y-70641000D01*
X84795114Y-70648611D01*
X84795114Y-70648611D01*
G37*
G36*
X89772443Y-59049519D02*
G01*
X89838627Y-59056037D01*
X90008466Y-59107557D01*
X90164991Y-59191222D01*
X90200729Y-59220552D01*
X90302186Y-59303814D01*
X90385448Y-59405271D01*
X90414778Y-59441009D01*
X90498443Y-59597534D01*
X90549963Y-59767373D01*
X90567359Y-59944000D01*
X90549963Y-60120627D01*
X90498443Y-60290466D01*
X90414778Y-60446991D01*
X90385448Y-60482729D01*
X90302186Y-60584186D01*
X90200729Y-60667448D01*
X90164991Y-60696778D01*
X90008466Y-60780443D01*
X89838627Y-60831963D01*
X89772443Y-60838481D01*
X89706260Y-60845000D01*
X89617740Y-60845000D01*
X89551557Y-60838481D01*
X89485373Y-60831963D01*
X89315534Y-60780443D01*
X89159009Y-60696778D01*
X89123271Y-60667448D01*
X89021814Y-60584186D01*
X88938552Y-60482729D01*
X88909222Y-60446991D01*
X88825557Y-60290466D01*
X88774037Y-60120627D01*
X88756641Y-59944000D01*
X88774037Y-59767373D01*
X88825557Y-59597534D01*
X88909222Y-59441009D01*
X88938552Y-59405271D01*
X89021814Y-59303814D01*
X89123271Y-59220552D01*
X89159009Y-59191222D01*
X89315534Y-59107557D01*
X89485373Y-59056037D01*
X89551557Y-59049519D01*
X89617740Y-59043000D01*
X89706260Y-59043000D01*
X89772443Y-59049519D01*
X89772443Y-59049519D01*
G37*
G36*
X66912443Y-59049519D02*
G01*
X66978627Y-59056037D01*
X67148466Y-59107557D01*
X67304991Y-59191222D01*
X67340729Y-59220552D01*
X67442186Y-59303814D01*
X67525448Y-59405271D01*
X67554778Y-59441009D01*
X67638443Y-59597534D01*
X67689963Y-59767373D01*
X67707359Y-59944000D01*
X67689963Y-60120627D01*
X67638443Y-60290466D01*
X67554778Y-60446991D01*
X67525448Y-60482729D01*
X67442186Y-60584186D01*
X67340729Y-60667448D01*
X67304991Y-60696778D01*
X67148466Y-60780443D01*
X66978627Y-60831963D01*
X66912443Y-60838481D01*
X66846260Y-60845000D01*
X66757740Y-60845000D01*
X66691557Y-60838481D01*
X66625373Y-60831963D01*
X66455534Y-60780443D01*
X66299009Y-60696778D01*
X66263271Y-60667448D01*
X66161814Y-60584186D01*
X66078552Y-60482729D01*
X66049222Y-60446991D01*
X65965557Y-60290466D01*
X65914037Y-60120627D01*
X65896641Y-59944000D01*
X65914037Y-59767373D01*
X65965557Y-59597534D01*
X66049222Y-59441009D01*
X66078552Y-59405271D01*
X66161814Y-59303814D01*
X66263271Y-59220552D01*
X66299009Y-59191222D01*
X66455534Y-59107557D01*
X66625373Y-59056037D01*
X66691557Y-59049519D01*
X66757740Y-59043000D01*
X66846260Y-59043000D01*
X66912443Y-59049519D01*
X66912443Y-59049519D01*
G37*
G36*
X89772442Y-56509518D02*
G01*
X89838627Y-56516037D01*
X90008466Y-56567557D01*
X90164991Y-56651222D01*
X90200729Y-56680552D01*
X90302186Y-56763814D01*
X90385448Y-56865271D01*
X90414778Y-56901009D01*
X90498443Y-57057534D01*
X90549963Y-57227373D01*
X90567359Y-57404000D01*
X90549963Y-57580627D01*
X90498443Y-57750466D01*
X90414778Y-57906991D01*
X90385448Y-57942729D01*
X90302186Y-58044186D01*
X90200729Y-58127448D01*
X90164991Y-58156778D01*
X90008466Y-58240443D01*
X89838627Y-58291963D01*
X89772443Y-58298481D01*
X89706260Y-58305000D01*
X89617740Y-58305000D01*
X89551557Y-58298481D01*
X89485373Y-58291963D01*
X89315534Y-58240443D01*
X89159009Y-58156778D01*
X89123271Y-58127448D01*
X89021814Y-58044186D01*
X88938552Y-57942729D01*
X88909222Y-57906991D01*
X88825557Y-57750466D01*
X88774037Y-57580627D01*
X88756641Y-57404000D01*
X88774037Y-57227373D01*
X88825557Y-57057534D01*
X88909222Y-56901009D01*
X88938552Y-56865271D01*
X89021814Y-56763814D01*
X89123271Y-56680552D01*
X89159009Y-56651222D01*
X89315534Y-56567557D01*
X89485373Y-56516037D01*
X89551558Y-56509518D01*
X89617740Y-56503000D01*
X89706260Y-56503000D01*
X89772442Y-56509518D01*
X89772442Y-56509518D01*
G37*
G36*
X66912442Y-56509518D02*
G01*
X66978627Y-56516037D01*
X67148466Y-56567557D01*
X67304991Y-56651222D01*
X67340729Y-56680552D01*
X67442186Y-56763814D01*
X67525448Y-56865271D01*
X67554778Y-56901009D01*
X67638443Y-57057534D01*
X67689963Y-57227373D01*
X67707359Y-57404000D01*
X67689963Y-57580627D01*
X67638443Y-57750466D01*
X67554778Y-57906991D01*
X67525448Y-57942729D01*
X67442186Y-58044186D01*
X67340729Y-58127448D01*
X67304991Y-58156778D01*
X67148466Y-58240443D01*
X66978627Y-58291963D01*
X66912443Y-58298481D01*
X66846260Y-58305000D01*
X66757740Y-58305000D01*
X66691557Y-58298481D01*
X66625373Y-58291963D01*
X66455534Y-58240443D01*
X66299009Y-58156778D01*
X66263271Y-58127448D01*
X66161814Y-58044186D01*
X66078552Y-57942729D01*
X66049222Y-57906991D01*
X65965557Y-57750466D01*
X65914037Y-57580627D01*
X65896641Y-57404000D01*
X65914037Y-57227373D01*
X65965557Y-57057534D01*
X66049222Y-56901009D01*
X66078552Y-56865271D01*
X66161814Y-56763814D01*
X66263271Y-56680552D01*
X66299009Y-56651222D01*
X66455534Y-56567557D01*
X66625373Y-56516037D01*
X66691558Y-56509518D01*
X66757740Y-56503000D01*
X66846260Y-56503000D01*
X66912442Y-56509518D01*
X66912442Y-56509518D01*
G37*
G36*
X89772443Y-53969519D02*
G01*
X89838627Y-53976037D01*
X90008466Y-54027557D01*
X90164991Y-54111222D01*
X90200729Y-54140552D01*
X90302186Y-54223814D01*
X90385448Y-54325271D01*
X90414778Y-54361009D01*
X90498443Y-54517534D01*
X90549963Y-54687373D01*
X90567359Y-54864000D01*
X90549963Y-55040627D01*
X90498443Y-55210466D01*
X90414778Y-55366991D01*
X90385448Y-55402729D01*
X90302186Y-55504186D01*
X90200729Y-55587448D01*
X90164991Y-55616778D01*
X90008466Y-55700443D01*
X89838627Y-55751963D01*
X89772443Y-55758481D01*
X89706260Y-55765000D01*
X89617740Y-55765000D01*
X89551557Y-55758481D01*
X89485373Y-55751963D01*
X89315534Y-55700443D01*
X89159009Y-55616778D01*
X89123271Y-55587448D01*
X89021814Y-55504186D01*
X88938552Y-55402729D01*
X88909222Y-55366991D01*
X88825557Y-55210466D01*
X88774037Y-55040627D01*
X88756641Y-54864000D01*
X88774037Y-54687373D01*
X88825557Y-54517534D01*
X88909222Y-54361009D01*
X88938552Y-54325271D01*
X89021814Y-54223814D01*
X89123271Y-54140552D01*
X89159009Y-54111222D01*
X89315534Y-54027557D01*
X89485373Y-53976037D01*
X89551557Y-53969519D01*
X89617740Y-53963000D01*
X89706260Y-53963000D01*
X89772443Y-53969519D01*
X89772443Y-53969519D01*
G37*
G36*
X66912443Y-53969519D02*
G01*
X66978627Y-53976037D01*
X67148466Y-54027557D01*
X67304991Y-54111222D01*
X67340729Y-54140552D01*
X67442186Y-54223814D01*
X67525448Y-54325271D01*
X67554778Y-54361009D01*
X67638443Y-54517534D01*
X67689963Y-54687373D01*
X67707359Y-54864000D01*
X67689963Y-55040627D01*
X67638443Y-55210466D01*
X67554778Y-55366991D01*
X67525448Y-55402729D01*
X67442186Y-55504186D01*
X67340729Y-55587448D01*
X67304991Y-55616778D01*
X67148466Y-55700443D01*
X66978627Y-55751963D01*
X66912443Y-55758481D01*
X66846260Y-55765000D01*
X66757740Y-55765000D01*
X66691557Y-55758481D01*
X66625373Y-55751963D01*
X66455534Y-55700443D01*
X66299009Y-55616778D01*
X66263271Y-55587448D01*
X66161814Y-55504186D01*
X66078552Y-55402729D01*
X66049222Y-55366991D01*
X65965557Y-55210466D01*
X65914037Y-55040627D01*
X65896641Y-54864000D01*
X65914037Y-54687373D01*
X65965557Y-54517534D01*
X66049222Y-54361009D01*
X66078552Y-54325271D01*
X66161814Y-54223814D01*
X66263271Y-54140552D01*
X66299009Y-54111222D01*
X66455534Y-54027557D01*
X66625373Y-53976037D01*
X66691557Y-53969519D01*
X66757740Y-53963000D01*
X66846260Y-53963000D01*
X66912443Y-53969519D01*
X66912443Y-53969519D01*
G37*
G36*
X76339000Y-53542500D02*
G01*
X74537000Y-53542500D01*
X74537000Y-51740500D01*
X76339000Y-51740500D01*
X76339000Y-53542500D01*
X76339000Y-53542500D01*
G37*
G36*
X80628443Y-51747019D02*
G01*
X80694627Y-51753537D01*
X80864466Y-51805057D01*
X81020991Y-51888722D01*
X81056729Y-51918052D01*
X81158186Y-52001314D01*
X81241448Y-52102771D01*
X81270778Y-52138509D01*
X81354443Y-52295034D01*
X81405963Y-52464873D01*
X81423359Y-52641500D01*
X81405963Y-52818127D01*
X81354443Y-52987966D01*
X81270778Y-53144491D01*
X81257687Y-53160442D01*
X81158186Y-53281686D01*
X81056729Y-53364948D01*
X81020991Y-53394278D01*
X80864466Y-53477943D01*
X80694627Y-53529463D01*
X80628442Y-53535982D01*
X80562260Y-53542500D01*
X80473740Y-53542500D01*
X80407558Y-53535982D01*
X80341373Y-53529463D01*
X80171534Y-53477943D01*
X80015009Y-53394278D01*
X79979271Y-53364948D01*
X79877814Y-53281686D01*
X79778313Y-53160442D01*
X79765222Y-53144491D01*
X79681557Y-52987966D01*
X79630037Y-52818127D01*
X79612641Y-52641500D01*
X79630037Y-52464873D01*
X79681557Y-52295034D01*
X79765222Y-52138509D01*
X79794552Y-52102771D01*
X79877814Y-52001314D01*
X79979271Y-51918052D01*
X80015009Y-51888722D01*
X80171534Y-51805057D01*
X80341373Y-51753537D01*
X80407557Y-51747019D01*
X80473740Y-51740500D01*
X80562260Y-51740500D01*
X80628443Y-51747019D01*
X80628443Y-51747019D01*
G37*
G36*
X78088443Y-51747019D02*
G01*
X78154627Y-51753537D01*
X78324466Y-51805057D01*
X78480991Y-51888722D01*
X78516729Y-51918052D01*
X78618186Y-52001314D01*
X78701448Y-52102771D01*
X78730778Y-52138509D01*
X78814443Y-52295034D01*
X78865963Y-52464873D01*
X78883359Y-52641500D01*
X78865963Y-52818127D01*
X78814443Y-52987966D01*
X78730778Y-53144491D01*
X78717687Y-53160442D01*
X78618186Y-53281686D01*
X78516729Y-53364948D01*
X78480991Y-53394278D01*
X78324466Y-53477943D01*
X78154627Y-53529463D01*
X78088442Y-53535982D01*
X78022260Y-53542500D01*
X77933740Y-53542500D01*
X77867558Y-53535982D01*
X77801373Y-53529463D01*
X77631534Y-53477943D01*
X77475009Y-53394278D01*
X77439271Y-53364948D01*
X77337814Y-53281686D01*
X77238313Y-53160442D01*
X77225222Y-53144491D01*
X77141557Y-52987966D01*
X77090037Y-52818127D01*
X77072641Y-52641500D01*
X77090037Y-52464873D01*
X77141557Y-52295034D01*
X77225222Y-52138509D01*
X77254552Y-52102771D01*
X77337814Y-52001314D01*
X77439271Y-51918052D01*
X77475009Y-51888722D01*
X77631534Y-51805057D01*
X77801373Y-51753537D01*
X77867557Y-51747019D01*
X77933740Y-51740500D01*
X78022260Y-51740500D01*
X78088443Y-51747019D01*
X78088443Y-51747019D01*
G37*
G36*
X89772443Y-51429519D02*
G01*
X89838627Y-51436037D01*
X90008466Y-51487557D01*
X90164991Y-51571222D01*
X90200729Y-51600552D01*
X90302186Y-51683814D01*
X90348706Y-51740500D01*
X90414778Y-51821009D01*
X90498443Y-51977534D01*
X90549963Y-52147373D01*
X90567359Y-52324000D01*
X90549963Y-52500627D01*
X90498443Y-52670466D01*
X90414778Y-52826991D01*
X90385448Y-52862729D01*
X90302186Y-52964186D01*
X90200729Y-53047448D01*
X90164991Y-53076778D01*
X90008466Y-53160443D01*
X89838627Y-53211963D01*
X89772442Y-53218482D01*
X89706260Y-53225000D01*
X89617740Y-53225000D01*
X89551558Y-53218482D01*
X89485373Y-53211963D01*
X89315534Y-53160443D01*
X89159009Y-53076778D01*
X89123271Y-53047448D01*
X89021814Y-52964186D01*
X88938552Y-52862729D01*
X88909222Y-52826991D01*
X88825557Y-52670466D01*
X88774037Y-52500627D01*
X88756641Y-52324000D01*
X88774037Y-52147373D01*
X88825557Y-51977534D01*
X88909222Y-51821009D01*
X88975294Y-51740500D01*
X89021814Y-51683814D01*
X89123271Y-51600552D01*
X89159009Y-51571222D01*
X89315534Y-51487557D01*
X89485373Y-51436037D01*
X89551557Y-51429519D01*
X89617740Y-51423000D01*
X89706260Y-51423000D01*
X89772443Y-51429519D01*
X89772443Y-51429519D01*
G37*
G36*
X66912443Y-51429519D02*
G01*
X66978627Y-51436037D01*
X67148466Y-51487557D01*
X67304991Y-51571222D01*
X67340729Y-51600552D01*
X67442186Y-51683814D01*
X67488706Y-51740500D01*
X67554778Y-51821009D01*
X67638443Y-51977534D01*
X67689963Y-52147373D01*
X67707359Y-52324000D01*
X67689963Y-52500627D01*
X67638443Y-52670466D01*
X67554778Y-52826991D01*
X67525448Y-52862729D01*
X67442186Y-52964186D01*
X67340729Y-53047448D01*
X67304991Y-53076778D01*
X67148466Y-53160443D01*
X66978627Y-53211963D01*
X66912442Y-53218482D01*
X66846260Y-53225000D01*
X66757740Y-53225000D01*
X66691558Y-53218482D01*
X66625373Y-53211963D01*
X66455534Y-53160443D01*
X66299009Y-53076778D01*
X66263271Y-53047448D01*
X66161814Y-52964186D01*
X66078552Y-52862729D01*
X66049222Y-52826991D01*
X65965557Y-52670466D01*
X65914037Y-52500627D01*
X65896641Y-52324000D01*
X65914037Y-52147373D01*
X65965557Y-51977534D01*
X66049222Y-51821009D01*
X66115294Y-51740500D01*
X66161814Y-51683814D01*
X66263271Y-51600552D01*
X66299009Y-51571222D01*
X66455534Y-51487557D01*
X66625373Y-51436037D01*
X66691557Y-51429519D01*
X66757740Y-51423000D01*
X66846260Y-51423000D01*
X66912443Y-51429519D01*
X66912443Y-51429519D01*
G37*
G36*
X66912443Y-48889519D02*
G01*
X66978627Y-48896037D01*
X67148466Y-48947557D01*
X67304991Y-49031222D01*
X67340729Y-49060552D01*
X67442186Y-49143814D01*
X67525448Y-49245271D01*
X67554778Y-49281009D01*
X67638443Y-49437534D01*
X67689963Y-49607373D01*
X67707359Y-49784000D01*
X67689963Y-49960627D01*
X67638443Y-50130466D01*
X67554778Y-50286991D01*
X67525448Y-50322729D01*
X67442186Y-50424186D01*
X67340729Y-50507448D01*
X67304991Y-50536778D01*
X67148466Y-50620443D01*
X66978627Y-50671963D01*
X66912443Y-50678481D01*
X66846260Y-50685000D01*
X66757740Y-50685000D01*
X66691557Y-50678481D01*
X66625373Y-50671963D01*
X66455534Y-50620443D01*
X66299009Y-50536778D01*
X66263271Y-50507448D01*
X66161814Y-50424186D01*
X66078552Y-50322729D01*
X66049222Y-50286991D01*
X65965557Y-50130466D01*
X65914037Y-49960627D01*
X65896641Y-49784000D01*
X65914037Y-49607373D01*
X65965557Y-49437534D01*
X66049222Y-49281009D01*
X66078552Y-49245271D01*
X66161814Y-49143814D01*
X66263271Y-49060552D01*
X66299009Y-49031222D01*
X66455534Y-48947557D01*
X66625373Y-48896037D01*
X66691557Y-48889519D01*
X66757740Y-48883000D01*
X66846260Y-48883000D01*
X66912443Y-48889519D01*
X66912443Y-48889519D01*
G37*
G36*
X89772443Y-48889519D02*
G01*
X89838627Y-48896037D01*
X90008466Y-48947557D01*
X90164991Y-49031222D01*
X90200729Y-49060552D01*
X90302186Y-49143814D01*
X90385448Y-49245271D01*
X90414778Y-49281009D01*
X90498443Y-49437534D01*
X90549963Y-49607373D01*
X90567359Y-49784000D01*
X90549963Y-49960627D01*
X90498443Y-50130466D01*
X90414778Y-50286991D01*
X90385448Y-50322729D01*
X90302186Y-50424186D01*
X90200729Y-50507448D01*
X90164991Y-50536778D01*
X90008466Y-50620443D01*
X89838627Y-50671963D01*
X89772443Y-50678481D01*
X89706260Y-50685000D01*
X89617740Y-50685000D01*
X89551557Y-50678481D01*
X89485373Y-50671963D01*
X89315534Y-50620443D01*
X89159009Y-50536778D01*
X89123271Y-50507448D01*
X89021814Y-50424186D01*
X88938552Y-50322729D01*
X88909222Y-50286991D01*
X88825557Y-50130466D01*
X88774037Y-49960627D01*
X88756641Y-49784000D01*
X88774037Y-49607373D01*
X88825557Y-49437534D01*
X88909222Y-49281009D01*
X88938552Y-49245271D01*
X89021814Y-49143814D01*
X89123271Y-49060552D01*
X89159009Y-49031222D01*
X89315534Y-48947557D01*
X89485373Y-48896037D01*
X89551557Y-48889519D01*
X89617740Y-48883000D01*
X89706260Y-48883000D01*
X89772443Y-48889519D01*
X89772443Y-48889519D01*
G37*
G36*
X66912443Y-46349519D02*
G01*
X66978627Y-46356037D01*
X67148466Y-46407557D01*
X67304991Y-46491222D01*
X67340729Y-46520552D01*
X67442186Y-46603814D01*
X67525448Y-46705271D01*
X67554778Y-46741009D01*
X67638443Y-46897534D01*
X67689963Y-47067373D01*
X67707359Y-47244000D01*
X67689963Y-47420627D01*
X67638443Y-47590466D01*
X67554778Y-47746991D01*
X67525448Y-47782729D01*
X67442186Y-47884186D01*
X67340729Y-47967448D01*
X67304991Y-47996778D01*
X67148466Y-48080443D01*
X66978627Y-48131963D01*
X66912443Y-48138481D01*
X66846260Y-48145000D01*
X66757740Y-48145000D01*
X66691558Y-48138482D01*
X66625373Y-48131963D01*
X66455534Y-48080443D01*
X66299009Y-47996778D01*
X66263271Y-47967448D01*
X66161814Y-47884186D01*
X66078552Y-47782729D01*
X66049222Y-47746991D01*
X65965557Y-47590466D01*
X65914037Y-47420627D01*
X65896641Y-47244000D01*
X65914037Y-47067373D01*
X65965557Y-46897534D01*
X66049222Y-46741009D01*
X66078552Y-46705271D01*
X66161814Y-46603814D01*
X66263271Y-46520552D01*
X66299009Y-46491222D01*
X66455534Y-46407557D01*
X66625373Y-46356037D01*
X66691557Y-46349519D01*
X66757740Y-46343000D01*
X66846260Y-46343000D01*
X66912443Y-46349519D01*
X66912443Y-46349519D01*
G37*
G36*
X89772443Y-46349519D02*
G01*
X89838627Y-46356037D01*
X90008466Y-46407557D01*
X90164991Y-46491222D01*
X90200729Y-46520552D01*
X90302186Y-46603814D01*
X90385448Y-46705271D01*
X90414778Y-46741009D01*
X90498443Y-46897534D01*
X90549963Y-47067373D01*
X90567359Y-47244000D01*
X90549963Y-47420627D01*
X90498443Y-47590466D01*
X90414778Y-47746991D01*
X90385448Y-47782729D01*
X90302186Y-47884186D01*
X90200729Y-47967448D01*
X90164991Y-47996778D01*
X90008466Y-48080443D01*
X89838627Y-48131963D01*
X89772443Y-48138481D01*
X89706260Y-48145000D01*
X89617740Y-48145000D01*
X89551558Y-48138482D01*
X89485373Y-48131963D01*
X89315534Y-48080443D01*
X89159009Y-47996778D01*
X89123271Y-47967448D01*
X89021814Y-47884186D01*
X88938552Y-47782729D01*
X88909222Y-47746991D01*
X88825557Y-47590466D01*
X88774037Y-47420627D01*
X88756641Y-47244000D01*
X88774037Y-47067373D01*
X88825557Y-46897534D01*
X88909222Y-46741009D01*
X88938552Y-46705271D01*
X89021814Y-46603814D01*
X89123271Y-46520552D01*
X89159009Y-46491222D01*
X89315534Y-46407557D01*
X89485373Y-46356037D01*
X89551557Y-46349519D01*
X89617740Y-46343000D01*
X89706260Y-46343000D01*
X89772443Y-46349519D01*
X89772443Y-46349519D01*
G37*
G36*
X66912442Y-43809518D02*
G01*
X66978627Y-43816037D01*
X67148466Y-43867557D01*
X67304991Y-43951222D01*
X67340729Y-43980552D01*
X67442186Y-44063814D01*
X67525448Y-44165271D01*
X67554778Y-44201009D01*
X67638443Y-44357534D01*
X67689963Y-44527373D01*
X67707359Y-44704000D01*
X67689963Y-44880627D01*
X67638443Y-45050466D01*
X67554778Y-45206991D01*
X67525448Y-45242729D01*
X67442186Y-45344186D01*
X67340729Y-45427448D01*
X67304991Y-45456778D01*
X67148466Y-45540443D01*
X66978627Y-45591963D01*
X66912443Y-45598481D01*
X66846260Y-45605000D01*
X66757740Y-45605000D01*
X66691557Y-45598481D01*
X66625373Y-45591963D01*
X66455534Y-45540443D01*
X66299009Y-45456778D01*
X66263271Y-45427448D01*
X66161814Y-45344186D01*
X66078552Y-45242729D01*
X66049222Y-45206991D01*
X65965557Y-45050466D01*
X65914037Y-44880627D01*
X65896641Y-44704000D01*
X65914037Y-44527373D01*
X65965557Y-44357534D01*
X66049222Y-44201009D01*
X66078552Y-44165271D01*
X66161814Y-44063814D01*
X66263271Y-43980552D01*
X66299009Y-43951222D01*
X66455534Y-43867557D01*
X66625373Y-43816037D01*
X66691558Y-43809518D01*
X66757740Y-43803000D01*
X66846260Y-43803000D01*
X66912442Y-43809518D01*
X66912442Y-43809518D01*
G37*
G36*
X89772442Y-43809518D02*
G01*
X89838627Y-43816037D01*
X90008466Y-43867557D01*
X90164991Y-43951222D01*
X90200729Y-43980552D01*
X90302186Y-44063814D01*
X90385448Y-44165271D01*
X90414778Y-44201009D01*
X90498443Y-44357534D01*
X90549963Y-44527373D01*
X90567359Y-44704000D01*
X90549963Y-44880627D01*
X90498443Y-45050466D01*
X90414778Y-45206991D01*
X90385448Y-45242729D01*
X90302186Y-45344186D01*
X90200729Y-45427448D01*
X90164991Y-45456778D01*
X90008466Y-45540443D01*
X89838627Y-45591963D01*
X89772443Y-45598481D01*
X89706260Y-45605000D01*
X89617740Y-45605000D01*
X89551557Y-45598481D01*
X89485373Y-45591963D01*
X89315534Y-45540443D01*
X89159009Y-45456778D01*
X89123271Y-45427448D01*
X89021814Y-45344186D01*
X88938552Y-45242729D01*
X88909222Y-45206991D01*
X88825557Y-45050466D01*
X88774037Y-44880627D01*
X88756641Y-44704000D01*
X88774037Y-44527373D01*
X88825557Y-44357534D01*
X88909222Y-44201009D01*
X88938552Y-44165271D01*
X89021814Y-44063814D01*
X89123271Y-43980552D01*
X89159009Y-43951222D01*
X89315534Y-43867557D01*
X89485373Y-43816037D01*
X89551558Y-43809518D01*
X89617740Y-43803000D01*
X89706260Y-43803000D01*
X89772442Y-43809518D01*
X89772442Y-43809518D01*
G37*
G36*
X66912443Y-41269519D02*
G01*
X66978627Y-41276037D01*
X67148466Y-41327557D01*
X67148468Y-41327558D01*
X67226729Y-41369390D01*
X67304991Y-41411222D01*
X67340729Y-41440552D01*
X67442186Y-41523814D01*
X67525448Y-41625271D01*
X67554778Y-41661009D01*
X67638443Y-41817534D01*
X67689963Y-41987373D01*
X67707359Y-42164000D01*
X67689963Y-42340627D01*
X67638443Y-42510466D01*
X67554778Y-42666991D01*
X67525448Y-42702729D01*
X67442186Y-42804186D01*
X67340729Y-42887448D01*
X67304991Y-42916778D01*
X67148466Y-43000443D01*
X66978627Y-43051963D01*
X66912442Y-43058482D01*
X66846260Y-43065000D01*
X66757740Y-43065000D01*
X66691558Y-43058482D01*
X66625373Y-43051963D01*
X66455534Y-43000443D01*
X66299009Y-42916778D01*
X66263271Y-42887448D01*
X66161814Y-42804186D01*
X66078552Y-42702729D01*
X66049222Y-42666991D01*
X65965557Y-42510466D01*
X65914037Y-42340627D01*
X65896641Y-42164000D01*
X65914037Y-41987373D01*
X65965557Y-41817534D01*
X66049222Y-41661009D01*
X66078552Y-41625271D01*
X66161814Y-41523814D01*
X66263271Y-41440552D01*
X66299009Y-41411222D01*
X66377271Y-41369390D01*
X66455532Y-41327558D01*
X66455534Y-41327557D01*
X66625373Y-41276037D01*
X66691557Y-41269519D01*
X66757740Y-41263000D01*
X66846260Y-41263000D01*
X66912443Y-41269519D01*
X66912443Y-41269519D01*
G37*
G36*
X89772443Y-41269519D02*
G01*
X89838627Y-41276037D01*
X90008466Y-41327557D01*
X90008468Y-41327558D01*
X90086729Y-41369390D01*
X90164991Y-41411222D01*
X90200729Y-41440552D01*
X90302186Y-41523814D01*
X90385448Y-41625271D01*
X90414778Y-41661009D01*
X90498443Y-41817534D01*
X90549963Y-41987373D01*
X90567359Y-42164000D01*
X90549963Y-42340627D01*
X90498443Y-42510466D01*
X90414778Y-42666991D01*
X90385448Y-42702729D01*
X90302186Y-42804186D01*
X90200729Y-42887448D01*
X90164991Y-42916778D01*
X90008466Y-43000443D01*
X89838627Y-43051963D01*
X89772442Y-43058482D01*
X89706260Y-43065000D01*
X89617740Y-43065000D01*
X89551558Y-43058482D01*
X89485373Y-43051963D01*
X89315534Y-43000443D01*
X89159009Y-42916778D01*
X89123271Y-42887448D01*
X89021814Y-42804186D01*
X88938552Y-42702729D01*
X88909222Y-42666991D01*
X88825557Y-42510466D01*
X88774037Y-42340627D01*
X88756641Y-42164000D01*
X88774037Y-41987373D01*
X88825557Y-41817534D01*
X88909222Y-41661009D01*
X88938552Y-41625271D01*
X89021814Y-41523814D01*
X89123271Y-41440552D01*
X89159009Y-41411222D01*
X89237271Y-41369390D01*
X89315532Y-41327558D01*
X89315534Y-41327557D01*
X89485373Y-41276037D01*
X89551557Y-41269519D01*
X89617740Y-41263000D01*
X89706260Y-41263000D01*
X89772443Y-41269519D01*
X89772443Y-41269519D01*
G37*
G36*
X80678642Y-39869781D02*
G01*
X80824414Y-39930162D01*
X80824416Y-39930163D01*
X80955608Y-40017822D01*
X81067178Y-40129392D01*
X81154837Y-40260584D01*
X81154838Y-40260586D01*
X81215219Y-40406358D01*
X81246000Y-40561107D01*
X81246000Y-40718893D01*
X81215219Y-40873642D01*
X81154838Y-41019414D01*
X81154837Y-41019416D01*
X81067178Y-41150608D01*
X80955608Y-41262178D01*
X80824416Y-41349837D01*
X80824415Y-41349838D01*
X80824414Y-41349838D01*
X80678642Y-41410219D01*
X80523893Y-41441000D01*
X80366107Y-41441000D01*
X80211358Y-41410219D01*
X80065586Y-41349838D01*
X80065585Y-41349838D01*
X80065584Y-41349837D01*
X79934392Y-41262178D01*
X79822822Y-41150608D01*
X79735163Y-41019416D01*
X79735162Y-41019414D01*
X79674781Y-40873642D01*
X79644000Y-40718893D01*
X79644000Y-40561107D01*
X79674781Y-40406358D01*
X79735162Y-40260586D01*
X79735163Y-40260584D01*
X79822822Y-40129392D01*
X79934392Y-40017822D01*
X80065584Y-39930163D01*
X80065586Y-39930162D01*
X80211358Y-39869781D01*
X80366107Y-39839000D01*
X80523893Y-39839000D01*
X80678642Y-39869781D01*
X80678642Y-39869781D01*
G37*
G36*
X75798642Y-39869781D02*
G01*
X75944414Y-39930162D01*
X75944416Y-39930163D01*
X76075608Y-40017822D01*
X76187178Y-40129392D01*
X76274837Y-40260584D01*
X76274838Y-40260586D01*
X76335219Y-40406358D01*
X76366000Y-40561107D01*
X76366000Y-40718893D01*
X76335219Y-40873642D01*
X76274838Y-41019414D01*
X76274837Y-41019416D01*
X76187178Y-41150608D01*
X76075608Y-41262178D01*
X75944416Y-41349837D01*
X75944415Y-41349838D01*
X75944414Y-41349838D01*
X75798642Y-41410219D01*
X75643893Y-41441000D01*
X75486107Y-41441000D01*
X75331358Y-41410219D01*
X75185586Y-41349838D01*
X75185585Y-41349838D01*
X75185584Y-41349837D01*
X75054392Y-41262178D01*
X74942822Y-41150608D01*
X74855163Y-41019416D01*
X74855162Y-41019414D01*
X74794781Y-40873642D01*
X74764000Y-40718893D01*
X74764000Y-40561107D01*
X74794781Y-40406358D01*
X74855162Y-40260586D01*
X74855163Y-40260584D01*
X74942822Y-40129392D01*
X75054392Y-40017822D01*
X75185584Y-39930163D01*
X75185586Y-39930162D01*
X75331358Y-39869781D01*
X75486107Y-39839000D01*
X75643893Y-39839000D01*
X75798642Y-39869781D01*
X75798642Y-39869781D01*
G37*
G36*
X66912442Y-38729518D02*
G01*
X66978627Y-38736037D01*
X67148466Y-38787557D01*
X67304991Y-38871222D01*
X67340729Y-38900552D01*
X67442186Y-38983814D01*
X67525448Y-39085271D01*
X67554778Y-39121009D01*
X67638443Y-39277534D01*
X67689963Y-39447373D01*
X67707359Y-39624000D01*
X67689963Y-39800627D01*
X67638443Y-39970466D01*
X67638442Y-39970468D01*
X67596611Y-40048728D01*
X67554778Y-40126991D01*
X67525448Y-40162729D01*
X67442186Y-40264186D01*
X67340729Y-40347448D01*
X67304991Y-40376778D01*
X67148466Y-40460443D01*
X66978627Y-40511963D01*
X66912443Y-40518481D01*
X66846260Y-40525000D01*
X66757740Y-40525000D01*
X66691557Y-40518481D01*
X66625373Y-40511963D01*
X66455534Y-40460443D01*
X66299009Y-40376778D01*
X66263271Y-40347448D01*
X66161814Y-40264186D01*
X66078552Y-40162729D01*
X66049222Y-40126991D01*
X66007390Y-40048729D01*
X65965558Y-39970468D01*
X65965557Y-39970466D01*
X65914037Y-39800627D01*
X65896641Y-39624000D01*
X65914037Y-39447373D01*
X65965557Y-39277534D01*
X66049222Y-39121009D01*
X66078552Y-39085271D01*
X66161814Y-38983814D01*
X66263271Y-38900552D01*
X66299009Y-38871222D01*
X66455534Y-38787557D01*
X66625373Y-38736037D01*
X66691558Y-38729518D01*
X66757740Y-38723000D01*
X66846260Y-38723000D01*
X66912442Y-38729518D01*
X66912442Y-38729518D01*
G37*
G36*
X89772442Y-38729518D02*
G01*
X89838627Y-38736037D01*
X90008466Y-38787557D01*
X90164991Y-38871222D01*
X90200729Y-38900552D01*
X90302186Y-38983814D01*
X90385448Y-39085271D01*
X90414778Y-39121009D01*
X90498443Y-39277534D01*
X90549963Y-39447373D01*
X90567359Y-39624000D01*
X90549963Y-39800627D01*
X90498443Y-39970466D01*
X90498442Y-39970468D01*
X90456611Y-40048728D01*
X90414778Y-40126991D01*
X90385448Y-40162729D01*
X90302186Y-40264186D01*
X90200729Y-40347448D01*
X90164991Y-40376778D01*
X90008466Y-40460443D01*
X89838627Y-40511963D01*
X89772443Y-40518481D01*
X89706260Y-40525000D01*
X89617740Y-40525000D01*
X89551557Y-40518481D01*
X89485373Y-40511963D01*
X89315534Y-40460443D01*
X89159009Y-40376778D01*
X89123271Y-40347448D01*
X89021814Y-40264186D01*
X88938552Y-40162729D01*
X88909222Y-40126991D01*
X88867389Y-40048728D01*
X88825558Y-39970468D01*
X88825557Y-39970466D01*
X88774037Y-39800627D01*
X88756641Y-39624000D01*
X88774037Y-39447373D01*
X88825557Y-39277534D01*
X88909222Y-39121009D01*
X88938552Y-39085271D01*
X89021814Y-38983814D01*
X89123271Y-38900552D01*
X89159009Y-38871222D01*
X89315534Y-38787557D01*
X89485373Y-38736037D01*
X89551558Y-38729518D01*
X89617740Y-38723000D01*
X89706260Y-38723000D01*
X89772442Y-38729518D01*
X89772442Y-38729518D01*
G37*
G36*
X89772443Y-36189519D02*
G01*
X89838627Y-36196037D01*
X90008466Y-36247557D01*
X90164991Y-36331222D01*
X90200729Y-36360552D01*
X90302186Y-36443814D01*
X90385448Y-36545271D01*
X90414778Y-36581009D01*
X90498443Y-36737534D01*
X90549963Y-36907373D01*
X90567359Y-37084000D01*
X90549963Y-37260627D01*
X90498443Y-37430466D01*
X90414778Y-37586991D01*
X90385448Y-37622729D01*
X90302186Y-37724186D01*
X90200729Y-37807448D01*
X90164991Y-37836778D01*
X90008466Y-37920443D01*
X89838627Y-37971963D01*
X89772442Y-37978482D01*
X89706260Y-37985000D01*
X89617740Y-37985000D01*
X89551558Y-37978482D01*
X89485373Y-37971963D01*
X89315534Y-37920443D01*
X89159009Y-37836778D01*
X89123271Y-37807448D01*
X89021814Y-37724186D01*
X88938552Y-37622729D01*
X88909222Y-37586991D01*
X88825557Y-37430466D01*
X88774037Y-37260627D01*
X88756641Y-37084000D01*
X88774037Y-36907373D01*
X88825557Y-36737534D01*
X88909222Y-36581009D01*
X88938552Y-36545271D01*
X89021814Y-36443814D01*
X89123271Y-36360552D01*
X89159009Y-36331222D01*
X89315534Y-36247557D01*
X89485373Y-36196037D01*
X89551557Y-36189519D01*
X89617740Y-36183000D01*
X89706260Y-36183000D01*
X89772443Y-36189519D01*
X89772443Y-36189519D01*
G37*
G36*
X66912443Y-36189519D02*
G01*
X66978627Y-36196037D01*
X67148466Y-36247557D01*
X67304991Y-36331222D01*
X67340729Y-36360552D01*
X67442186Y-36443814D01*
X67525448Y-36545271D01*
X67554778Y-36581009D01*
X67638443Y-36737534D01*
X67689963Y-36907373D01*
X67707359Y-37084000D01*
X67689963Y-37260627D01*
X67638443Y-37430466D01*
X67554778Y-37586991D01*
X67525448Y-37622729D01*
X67442186Y-37724186D01*
X67340729Y-37807448D01*
X67304991Y-37836778D01*
X67148466Y-37920443D01*
X66978627Y-37971963D01*
X66912442Y-37978482D01*
X66846260Y-37985000D01*
X66757740Y-37985000D01*
X66691558Y-37978482D01*
X66625373Y-37971963D01*
X66455534Y-37920443D01*
X66299009Y-37836778D01*
X66263271Y-37807448D01*
X66161814Y-37724186D01*
X66078552Y-37622729D01*
X66049222Y-37586991D01*
X65965557Y-37430466D01*
X65914037Y-37260627D01*
X65896641Y-37084000D01*
X65914037Y-36907373D01*
X65965557Y-36737534D01*
X66049222Y-36581009D01*
X66078552Y-36545271D01*
X66161814Y-36443814D01*
X66263271Y-36360552D01*
X66299009Y-36331222D01*
X66455534Y-36247557D01*
X66625373Y-36196037D01*
X66691557Y-36189519D01*
X66757740Y-36183000D01*
X66846260Y-36183000D01*
X66912443Y-36189519D01*
X66912443Y-36189519D01*
G37*
G36*
X89772442Y-33649518D02*
G01*
X89838627Y-33656037D01*
X90008466Y-33707557D01*
X90164991Y-33791222D01*
X90200729Y-33820552D01*
X90302186Y-33903814D01*
X90385448Y-34005271D01*
X90414778Y-34041009D01*
X90498443Y-34197534D01*
X90549963Y-34367373D01*
X90567359Y-34544000D01*
X90549963Y-34720627D01*
X90498443Y-34890466D01*
X90414778Y-35046991D01*
X90385448Y-35082729D01*
X90302186Y-35184186D01*
X90200729Y-35267448D01*
X90164991Y-35296778D01*
X90008466Y-35380443D01*
X89838627Y-35431963D01*
X89772443Y-35438481D01*
X89706260Y-35445000D01*
X89617740Y-35445000D01*
X89551557Y-35438481D01*
X89485373Y-35431963D01*
X89315534Y-35380443D01*
X89159009Y-35296778D01*
X89123271Y-35267448D01*
X89021814Y-35184186D01*
X88938552Y-35082729D01*
X88909222Y-35046991D01*
X88825557Y-34890466D01*
X88774037Y-34720627D01*
X88756641Y-34544000D01*
X88774037Y-34367373D01*
X88825557Y-34197534D01*
X88909222Y-34041009D01*
X88938552Y-34005271D01*
X89021814Y-33903814D01*
X89123271Y-33820552D01*
X89159009Y-33791222D01*
X89315534Y-33707557D01*
X89485373Y-33656037D01*
X89551558Y-33649518D01*
X89617740Y-33643000D01*
X89706260Y-33643000D01*
X89772442Y-33649518D01*
X89772442Y-33649518D01*
G37*
G36*
X66912442Y-33649518D02*
G01*
X66978627Y-33656037D01*
X67148466Y-33707557D01*
X67304991Y-33791222D01*
X67340729Y-33820552D01*
X67442186Y-33903814D01*
X67525448Y-34005271D01*
X67554778Y-34041009D01*
X67638443Y-34197534D01*
X67689963Y-34367373D01*
X67707359Y-34544000D01*
X67689963Y-34720627D01*
X67638443Y-34890466D01*
X67554778Y-35046991D01*
X67525448Y-35082729D01*
X67442186Y-35184186D01*
X67340729Y-35267448D01*
X67304991Y-35296778D01*
X67148466Y-35380443D01*
X66978627Y-35431963D01*
X66912443Y-35438481D01*
X66846260Y-35445000D01*
X66757740Y-35445000D01*
X66691557Y-35438481D01*
X66625373Y-35431963D01*
X66455534Y-35380443D01*
X66299009Y-35296778D01*
X66263271Y-35267448D01*
X66161814Y-35184186D01*
X66078552Y-35082729D01*
X66049222Y-35046991D01*
X65965557Y-34890466D01*
X65914037Y-34720627D01*
X65896641Y-34544000D01*
X65914037Y-34367373D01*
X65965557Y-34197534D01*
X66049222Y-34041009D01*
X66078552Y-34005271D01*
X66161814Y-33903814D01*
X66263271Y-33820552D01*
X66299009Y-33791222D01*
X66455534Y-33707557D01*
X66625373Y-33656037D01*
X66691558Y-33649518D01*
X66757740Y-33643000D01*
X66846260Y-33643000D01*
X66912442Y-33649518D01*
X66912442Y-33649518D01*
G37*
G36*
X67703000Y-32905000D02*
G01*
X65901000Y-32905000D01*
X65901000Y-31103000D01*
X67703000Y-31103000D01*
X67703000Y-32905000D01*
X67703000Y-32905000D01*
G37*
G36*
X90563000Y-32905000D02*
G01*
X88761000Y-32905000D01*
X88761000Y-31103000D01*
X90563000Y-31103000D01*
X90563000Y-32905000D01*
X90563000Y-32905000D01*
G37*
G36*
X81644443Y-30728519D02*
G01*
X81710627Y-30735037D01*
X81880466Y-30786557D01*
X82036991Y-30870222D01*
X82072729Y-30899552D01*
X82174186Y-30982814D01*
X82257448Y-31084271D01*
X82286778Y-31120009D01*
X82370443Y-31276534D01*
X82421963Y-31446373D01*
X82439359Y-31623000D01*
X82421963Y-31799627D01*
X82370443Y-31969466D01*
X82286778Y-32125991D01*
X82257448Y-32161729D01*
X82174186Y-32263186D01*
X82072729Y-32346448D01*
X82036991Y-32375778D01*
X81880466Y-32459443D01*
X81710627Y-32510963D01*
X81644443Y-32517481D01*
X81578260Y-32524000D01*
X81489740Y-32524000D01*
X81423557Y-32517481D01*
X81357373Y-32510963D01*
X81187534Y-32459443D01*
X81031009Y-32375778D01*
X80995271Y-32346448D01*
X80893814Y-32263186D01*
X80810552Y-32161729D01*
X80781222Y-32125991D01*
X80697557Y-31969466D01*
X80646037Y-31799627D01*
X80628641Y-31623000D01*
X80646037Y-31446373D01*
X80697557Y-31276534D01*
X80781222Y-31120009D01*
X80810552Y-31084271D01*
X80893814Y-30982814D01*
X80995271Y-30899552D01*
X81031009Y-30870222D01*
X81187534Y-30786557D01*
X81357373Y-30735037D01*
X81423557Y-30728519D01*
X81489740Y-30722000D01*
X81578260Y-30722000D01*
X81644443Y-30728519D01*
X81644443Y-30728519D01*
G37*
G36*
X79104443Y-30728519D02*
G01*
X79170627Y-30735037D01*
X79340466Y-30786557D01*
X79496991Y-30870222D01*
X79532729Y-30899552D01*
X79634186Y-30982814D01*
X79717448Y-31084271D01*
X79746778Y-31120009D01*
X79830443Y-31276534D01*
X79881963Y-31446373D01*
X79899359Y-31623000D01*
X79881963Y-31799627D01*
X79830443Y-31969466D01*
X79746778Y-32125991D01*
X79717448Y-32161729D01*
X79634186Y-32263186D01*
X79532729Y-32346448D01*
X79496991Y-32375778D01*
X79340466Y-32459443D01*
X79170627Y-32510963D01*
X79104443Y-32517481D01*
X79038260Y-32524000D01*
X78949740Y-32524000D01*
X78883557Y-32517481D01*
X78817373Y-32510963D01*
X78647534Y-32459443D01*
X78491009Y-32375778D01*
X78455271Y-32346448D01*
X78353814Y-32263186D01*
X78270552Y-32161729D01*
X78241222Y-32125991D01*
X78157557Y-31969466D01*
X78106037Y-31799627D01*
X78088641Y-31623000D01*
X78106037Y-31446373D01*
X78157557Y-31276534D01*
X78241222Y-31120009D01*
X78270552Y-31084271D01*
X78353814Y-30982814D01*
X78455271Y-30899552D01*
X78491009Y-30870222D01*
X78647534Y-30786557D01*
X78817373Y-30735037D01*
X78883557Y-30728519D01*
X78949740Y-30722000D01*
X79038260Y-30722000D01*
X79104443Y-30728519D01*
X79104443Y-30728519D01*
G37*
G36*
X76564443Y-30728519D02*
G01*
X76630627Y-30735037D01*
X76800466Y-30786557D01*
X76956991Y-30870222D01*
X76992729Y-30899552D01*
X77094186Y-30982814D01*
X77177448Y-31084271D01*
X77206778Y-31120009D01*
X77290443Y-31276534D01*
X77341963Y-31446373D01*
X77359359Y-31623000D01*
X77341963Y-31799627D01*
X77290443Y-31969466D01*
X77206778Y-32125991D01*
X77177448Y-32161729D01*
X77094186Y-32263186D01*
X76992729Y-32346448D01*
X76956991Y-32375778D01*
X76800466Y-32459443D01*
X76630627Y-32510963D01*
X76564443Y-32517481D01*
X76498260Y-32524000D01*
X76409740Y-32524000D01*
X76343557Y-32517481D01*
X76277373Y-32510963D01*
X76107534Y-32459443D01*
X75951009Y-32375778D01*
X75915271Y-32346448D01*
X75813814Y-32263186D01*
X75730552Y-32161729D01*
X75701222Y-32125991D01*
X75617557Y-31969466D01*
X75566037Y-31799627D01*
X75548641Y-31623000D01*
X75566037Y-31446373D01*
X75617557Y-31276534D01*
X75701222Y-31120009D01*
X75730552Y-31084271D01*
X75813814Y-30982814D01*
X75915271Y-30899552D01*
X75951009Y-30870222D01*
X76107534Y-30786557D01*
X76277373Y-30735037D01*
X76343557Y-30728519D01*
X76409740Y-30722000D01*
X76498260Y-30722000D01*
X76564443Y-30728519D01*
X76564443Y-30728519D01*
G37*
G36*
X74815000Y-32524000D02*
G01*
X73013000Y-32524000D01*
X73013000Y-30722000D01*
X74815000Y-30722000D01*
X74815000Y-32524000D01*
X74815000Y-32524000D01*
G37*
M02*
